<svg id="Layer_1" data-name="Layer 1" xmlns="http://www.w3.org/2000/svg" xmlns:xlink="http://www.w3.org/1999/xlink" viewBox="0 0 135.59 38.88"><defs><style>.cls-1,.cls-10,.cls-11,.cls-2,.cls-3{fill:none;}.cls-1,.cls-2,.cls-3{stroke-linecap:round;stroke-linejoin:round;}.cls-1{stroke:url(#linear-gradient);}.cls-2{stroke:url(#linear-gradient-2);}.cls-3{stroke:url(#linear-gradient-3);}.cls-4{fill:url(#linear-gradient-4);}.cls-5{font-size:3.32px;fill:#0152c6;font-family:ArialMT, Arial;}.cls-6{letter-spacing:-0.02em;}.cls-7{fill:url(#linear-gradient-17);}.cls-14,.cls-8,.cls-9{fill:#2e83ab;}.cls-11,.cls-8{stroke:#2e83ab;stroke-width:0.25px;}.cls-10,.cls-11,.cls-8{stroke-miterlimit:8;}.cls-8,.cls-9{fill-rule:evenodd;}.cls-10{stroke:#fff;stroke-width:0.44px;}.cls-12,.cls-14{font-size:9.33px;font-family:Calibri-Bold, Calibri;}.cls-12{fill:#fff;}.cls-12,.cls-14,.cls-15{font-weight:700;}.cls-13{letter-spacing:0.13em;}.cls-15{font-size:4px;font-family:Arial-BoldMT, Arial;}</style><linearGradient id="linear-gradient" x1="52.33" y1="37.03" x2="52.33" y2="37.03" gradientUnits="userSpaceOnUse"><stop offset="0" stop-color="#0152c6"/><stop offset="1" stop-color="#043b8b"/></linearGradient><linearGradient id="linear-gradient-2" x1="42.43" y1="19.17" x2="103.97" y2="19.17" xlink:href="#linear-gradient"/><linearGradient id="linear-gradient-3" x1="94.08" y1="37.03" x2="94.08" y2="37.03" xlink:href="#linear-gradient"/><linearGradient id="linear-gradient-4" x1="33.81" y1="38.02" x2="59.53" y2="12.29" gradientTransform="translate(27.17 -0.05)" gradientUnits="userSpaceOnUse"><stop offset="0.49" stop-color="#024ebb"/><stop offset="0.5" stop-color="#0152c6"/><stop offset="1" stop-color="#043b8b"/></linearGradient><linearGradient id="linear-gradient-17" x1="62.38" y1="47.66" x2="85.02" y2="25.02" gradientUnits="userSpaceOnUse"><stop offset="0.49" stop-color="#0152c6"/><stop offset="1" stop-color="#043b8b"/></linearGradient></defs><title>mini logo</title><path class="cls-1" d="M52.33,37" transform="translate(-42.43 -0.86)"/><path class="cls-2" d="M97,36.57a8.86,8.86,0,0,0,.4-16.91,14.1,14.1,0,0,0,.36-3.21c0-8.18-6.94-14.82-15.5-14.82A15.62,15.62,0,0,0,68.66,9.39a11.36,11.36,0,0,0-5.31-1.3,10.77,10.77,0,0,0-11,10.52c0,.15,0,.31,0,.46h0a9.2,9.2,0,0,0-9.4,9,9.05,9.05,0,0,0,6.92,8.66" transform="translate(-42.43 -0.86)"/><path class="cls-3" d="M94.08,37" transform="translate(-42.43 -0.86)"/><path d="M59.83,22.55V17.09H57.88V16H63.1v1.11H61.16v5.46Z" transform="translate(-42.43 -0.86)"/><path d="M65.2,16v2.41a1.87,1.87,0,0,1,1.46-.71,1.94,1.94,0,0,1,.78.16,1.27,1.27,0,0,1,.53.42,1.36,1.36,0,0,1,.24.55,5.17,5.17,0,0,1,.07,1v2.79H67V20a4.28,4.28,0,0,0-.07-1,.68.68,0,0,0-.26-.32.79.79,0,0,0-.45-.11,1,1,0,0,0-.56.15.8.8,0,0,0-.36.46,2.56,2.56,0,0,0-.12.9v2.39H63.94V16Z" transform="translate(-42.43 -0.86)"/><path d="M72.31,21l1.25.21a2,2,0,0,1-.76,1.05,2.25,2.25,0,0,1-1.31.37,2.12,2.12,0,0,1-1.83-.82,2.68,2.68,0,0,1-.47-1.64,2.65,2.65,0,0,1,.61-1.85,2.09,2.09,0,0,1,1.57-.67,2.12,2.12,0,0,1,1.67.7,3.1,3.1,0,0,1,.59,2.15H70.48a1.24,1.24,0,0,0,.3.87,1,1,0,0,0,.73.31.74.74,0,0,0,.49-.16A.94.94,0,0,0,72.31,21Zm.07-1.27a1.22,1.22,0,0,0-.28-.83.87.87,0,0,0-.66-.28.88.88,0,0,0-.68.3,1.12,1.12,0,0,0-.26.81Z" transform="translate(-42.43 -0.86)"/><path d="M77.17,22.55V16H78.5v6.57Z" transform="translate(-42.43 -0.86)"/><path d="M79.78,19.8a2.89,2.89,0,0,1,.34-1.36,2.36,2.36,0,0,1,1-1,3,3,0,0,1,1.42-.35,2.62,2.62,0,0,1,2,.79,2.68,2.68,0,0,1,.77,2,2.74,2.74,0,0,1-.78,2,2.63,2.63,0,0,1-2,.8,3.14,3.14,0,0,1-1.4-.34,2.26,2.26,0,0,1-1-1A3.2,3.2,0,0,1,79.78,19.8Zm1.44.07a1.78,1.78,0,0,0,.38,1.22,1.23,1.23,0,0,0,1.85,0,1.79,1.79,0,0,0,.37-1.23,1.74,1.74,0,0,0-.37-1.2,1.23,1.23,0,0,0-1.85,0A1.77,1.77,0,0,0,81.22,19.87Z" transform="translate(-42.43 -0.86)"/><path d="M87.16,22.55V17.09h-2V16h5.22v1.11H88.49v5.46Z" transform="translate(-42.43 -0.86)"/><path d="M60.48,30.46H59L58.46,29H55.84l-.54,1.49H53.89l2.56-6.57h1.4ZM58,27.86l-.91-2.44-.88,2.44Z" transform="translate(-42.43 -0.86)"/><path d="M65.32,27.11l-1.24.22a.94.94,0,0,0-.28-.56.85.85,0,0,0-.58-.19.94.94,0,0,0-.75.33A1.63,1.63,0,0,0,62.19,28a1.92,1.92,0,0,0,.28,1.2,1,1,0,0,0,.77.35.85.85,0,0,0,.59-.21,1.24,1.24,0,0,0,.32-.7l1.23.21a2.17,2.17,0,0,1-.73,1.29,2.32,2.32,0,0,1-1.47.43,2.18,2.18,0,0,1-1.66-.65,2.54,2.54,0,0,1-.62-1.83,2.54,2.54,0,0,1,.62-1.83,2.18,2.18,0,0,1,1.68-.66,2.28,2.28,0,0,1,1.38.38A2,2,0,0,1,65.32,27.11Z" transform="translate(-42.43 -0.86)"/><path d="M67.22,27.15l-1.15-.21a1.76,1.76,0,0,1,.67-1,2.43,2.43,0,0,1,1.4-.33,3.06,3.06,0,0,1,1.25.2,1.23,1.23,0,0,1,.58.51,2.59,2.59,0,0,1,.17,1.12l0,1.47a5.2,5.2,0,0,0,.06.93,2.77,2.77,0,0,0,.23.64H69.17a3.66,3.66,0,0,1-.13-.37,1.27,1.27,0,0,0,0-.15,2.49,2.49,0,0,1-.69.47,2.08,2.08,0,0,1-.78.15,1.64,1.64,0,0,1-1.16-.39,1.36,1.36,0,0,1-.43-1,1.34,1.34,0,0,1,.2-.72,1.26,1.26,0,0,1,.54-.48,3.63,3.63,0,0,1,1-.3,6.41,6.41,0,0,0,1.22-.31v-.12a.64.64,0,0,0-.18-.52,1.07,1.07,0,0,0-.67-.16.76.76,0,0,0-.83.6Zm1.68,1a5.86,5.86,0,0,1-.76.19,2.61,2.61,0,0,0-.69.22.55.55,0,0,0-.25.45.61.61,0,0,0,.2.45.69.69,0,0,0,.5.2,1.07,1.07,0,0,0,.65-.23.8.8,0,0,0,.3-.41,2.72,2.72,0,0,0,.05-.62Z" transform="translate(-42.43 -0.86)"/><path d="M75.74,30.46H74.57v-.7a2,2,0,0,1-.68.61,1.82,1.82,0,0,1-2.21-.47,2.67,2.67,0,0,1-.58-1.84,2.65,2.65,0,0,1,.57-1.84,1.82,1.82,0,0,1,1.43-.63,1.76,1.76,0,0,1,1.38.66V23.89h1.26ZM72.38,28a2.2,2.2,0,0,0,.21,1.1,1,1,0,0,0,.85.49.91.91,0,0,0,.74-.37,1.66,1.66,0,0,0,.31-1.1,1.84,1.84,0,0,0-.3-1.18.93.93,0,0,0-.75-.37,1,1,0,0,0-.76.36A1.63,1.63,0,0,0,72.38,28Z" transform="translate(-42.43 -0.86)"/><path d="M79.74,28.94l1.25.21a2,2,0,0,1-.76,1.05,2.25,2.25,0,0,1-1.31.36,2.12,2.12,0,0,1-1.83-.81,2.68,2.68,0,0,1-.47-1.64,2.65,2.65,0,0,1,.61-1.85,2,2,0,0,1,1.57-.67,2.12,2.12,0,0,1,1.67.7,3.1,3.1,0,0,1,.59,2.15H77.91a1.3,1.3,0,0,0,.3.87,1,1,0,0,0,.73.31.74.74,0,0,0,.49-.16A1,1,0,0,0,79.74,28.94Zm.07-1.27a1.22,1.22,0,0,0-.28-.83.88.88,0,0,0-.66-.29.86.86,0,0,0-.68.31,1.16,1.16,0,0,0-.26.81Z" transform="translate(-42.43 -0.86)"/><path d="M82,25.7h1.16v.65a1.87,1.87,0,0,1,1.49-.76,1.57,1.57,0,0,1,.79.19,1.51,1.51,0,0,1,.55.57,2.25,2.25,0,0,1,.68-.57,1.6,1.6,0,0,1,.77-.19,1.75,1.75,0,0,1,.89.21,1.34,1.34,0,0,1,.54.63,2.63,2.63,0,0,1,.13,1v3H87.73V27.74a2,2,0,0,0-.13-.92.59.59,0,0,0-.54-.27.83.83,0,0,0-.49.17.84.84,0,0,0-.34.47,3.35,3.35,0,0,0-.1,1v2.29H84.87V27.85a3.4,3.4,0,0,0-.07-.9.55.55,0,0,0-.21-.3.69.69,0,0,0-.38-.1.94.94,0,0,0-.52.16.91.91,0,0,0-.34.45,3.34,3.34,0,0,0-.1,1v2.31H82Z" transform="translate(-42.43 -0.86)"/><path d="M89.65,25.7H91l1.14,3.38,1.11-3.38h1.3l-1.68,4.58-.3.83a3.29,3.29,0,0,1-.32.63,1.31,1.31,0,0,1-.34.36,1.51,1.51,0,0,1-.48.21,2.3,2.3,0,0,1-.62.1,10.56,10.56,0,0,1-1.26,0l-34.66-.51c.2,0,36.12-.58,36.26-.75a1.85,1.85,0,0,0,.32-.66Z" transform="translate(-42.43 -0.86)"/><path class="cls-4" d="M59.83,22.55V17.09H57.88V16H63.1v1.11H61.16v5.46Z" transform="translate(-42.43 -0.86)"/><path class="cls-4" d="M65.2,16v2.41a1.87,1.87,0,0,1,1.46-.71,1.94,1.94,0,0,1,.78.16,1.27,1.27,0,0,1,.53.42,1.36,1.36,0,0,1,.24.55,5.17,5.17,0,0,1,.07,1v2.79H67V20a4.28,4.28,0,0,0-.07-1,.68.68,0,0,0-.26-.32.79.79,0,0,0-.45-.11,1,1,0,0,0-.56.15.8.8,0,0,0-.36.46,2.56,2.56,0,0,0-.12.9v2.39H63.94V16Z" transform="translate(-42.43 -0.86)"/><path class="cls-4" d="M72.31,21l1.25.21a2,2,0,0,1-.76,1.05,2.25,2.25,0,0,1-1.31.37,2.12,2.12,0,0,1-1.83-.82,2.68,2.68,0,0,1-.47-1.64,2.65,2.65,0,0,1,.61-1.85,2.09,2.09,0,0,1,1.57-.67,2.12,2.12,0,0,1,1.67.7,3.1,3.1,0,0,1,.59,2.15H70.48a1.24,1.24,0,0,0,.3.87,1,1,0,0,0,.73.31.74.74,0,0,0,.49-.16A.94.94,0,0,0,72.31,21Zm.07-1.27a1.22,1.22,0,0,0-.28-.83.87.87,0,0,0-.66-.28.88.88,0,0,0-.68.3,1.12,1.12,0,0,0-.26.81Z" transform="translate(-42.43 -0.86)"/><path class="cls-4" d="M77.17,22.55V16H78.5v6.57Z" transform="translate(-42.43 -0.86)"/><path class="cls-4" d="M79.78,19.8a2.89,2.89,0,0,1,.34-1.36,2.36,2.36,0,0,1,1-1,3,3,0,0,1,1.42-.35,2.62,2.62,0,0,1,2,.79,2.68,2.68,0,0,1,.77,2,2.74,2.74,0,0,1-.78,2,2.63,2.63,0,0,1-2,.8,3.14,3.14,0,0,1-1.4-.34,2.26,2.26,0,0,1-1-1A3.2,3.2,0,0,1,79.78,19.8Zm1.44.07a1.78,1.78,0,0,0,.38,1.22,1.23,1.23,0,0,0,1.85,0,1.79,1.79,0,0,0,.37-1.23,1.74,1.74,0,0,0-.37-1.2,1.23,1.23,0,0,0-1.85,0A1.77,1.77,0,0,0,81.22,19.87Z" transform="translate(-42.43 -0.86)"/><path class="cls-4" d="M87.16,22.55V17.09h-2V16h5.22v1.11H88.49v5.46Z" transform="translate(-42.43 -0.86)"/><path class="cls-4" d="M60.48,30.46H59L58.46,29H55.84l-.54,1.49H53.89l2.56-6.57h1.4ZM58,27.86l-.91-2.44-.88,2.44Z" transform="translate(-42.43 -0.86)"/><path class="cls-4" d="M65.32,27.11l-1.24.22a.94.94,0,0,0-.28-.56.85.85,0,0,0-.58-.19.94.94,0,0,0-.75.33A1.63,1.63,0,0,0,62.19,28a1.92,1.92,0,0,0,.28,1.2,1,1,0,0,0,.77.35.85.85,0,0,0,.59-.21,1.24,1.24,0,0,0,.32-.7l1.23.21a2.17,2.17,0,0,1-.73,1.29,2.32,2.32,0,0,1-1.47.43,2.18,2.18,0,0,1-1.66-.65,2.54,2.54,0,0,1-.62-1.83,2.54,2.54,0,0,1,.62-1.83,2.18,2.18,0,0,1,1.68-.66,2.28,2.28,0,0,1,1.38.38A2,2,0,0,1,65.32,27.11Z" transform="translate(-42.43 -0.86)"/><path class="cls-4" d="M67.22,27.15l-1.15-.21a1.76,1.76,0,0,1,.67-1,2.43,2.43,0,0,1,1.4-.33,3.06,3.06,0,0,1,1.25.2,1.23,1.23,0,0,1,.58.51,2.59,2.59,0,0,1,.17,1.12l0,1.47a5.2,5.2,0,0,0,.06.93,2.77,2.77,0,0,0,.23.64H69.17a3.66,3.66,0,0,1-.13-.37,1.27,1.27,0,0,0,0-.15,2.49,2.49,0,0,1-.69.47,2.08,2.08,0,0,1-.78.15,1.64,1.64,0,0,1-1.16-.39,1.36,1.36,0,0,1-.43-1,1.34,1.34,0,0,1,.2-.72,1.26,1.26,0,0,1,.54-.48,3.63,3.63,0,0,1,1-.3,6.41,6.41,0,0,0,1.22-.31v-.12a.64.64,0,0,0-.18-.52,1.07,1.07,0,0,0-.67-.16.76.76,0,0,0-.83.6Zm1.68,1a5.86,5.86,0,0,1-.76.19,2.61,2.61,0,0,0-.69.22.55.55,0,0,0-.25.45.61.61,0,0,0,.2.45.69.69,0,0,0,.5.2,1.07,1.07,0,0,0,.65-.23.8.8,0,0,0,.3-.41,2.72,2.72,0,0,0,.05-.62Z" transform="translate(-42.43 -0.86)"/><path class="cls-4" d="M75.74,30.46H74.57v-.7a2,2,0,0,1-.68.61,1.82,1.82,0,0,1-2.21-.47,2.67,2.67,0,0,1-.58-1.84,2.65,2.65,0,0,1,.57-1.84,1.82,1.82,0,0,1,1.43-.63,1.76,1.76,0,0,1,1.38.66V23.89h1.26ZM72.38,28a2.2,2.2,0,0,0,.21,1.1,1,1,0,0,0,.85.49.91.91,0,0,0,.74-.37,1.66,1.66,0,0,0,.31-1.1,1.84,1.84,0,0,0-.3-1.18.93.93,0,0,0-.75-.37,1,1,0,0,0-.76.36A1.63,1.63,0,0,0,72.38,28Z" transform="translate(-42.43 -0.86)"/><path class="cls-4" d="M79.74,28.94l1.25.21a2,2,0,0,1-.76,1.05,2.25,2.25,0,0,1-1.31.36,2.12,2.12,0,0,1-1.83-.81,2.68,2.68,0,0,1-.47-1.64,2.65,2.65,0,0,1,.61-1.85,2,2,0,0,1,1.57-.67,2.12,2.12,0,0,1,1.67.7,3.1,3.1,0,0,1,.59,2.15H77.91a1.3,1.3,0,0,0,.3.87,1,1,0,0,0,.73.31.74.74,0,0,0,.49-.16A1,1,0,0,0,79.74,28.94Zm.07-1.27a1.22,1.22,0,0,0-.28-.83.88.88,0,0,0-.66-.29.86.86,0,0,0-.68.31,1.16,1.16,0,0,0-.26.81Z" transform="translate(-42.43 -0.86)"/><path class="cls-4" d="M82,25.7h1.16v.65a1.87,1.87,0,0,1,1.49-.76,1.57,1.57,0,0,1,.79.19,1.51,1.51,0,0,1,.55.57,2.25,2.25,0,0,1,.68-.57,1.6,1.6,0,0,1,.77-.19,1.75,1.75,0,0,1,.89.21,1.34,1.34,0,0,1,.54.63,2.63,2.63,0,0,1,.13,1v3H87.73V27.74a2,2,0,0,0-.13-.92.59.59,0,0,0-.54-.27.83.83,0,0,0-.49.17.84.84,0,0,0-.34.47,3.35,3.35,0,0,0-.1,1v2.29H84.87V27.85a3.4,3.4,0,0,0-.07-.9.55.55,0,0,0-.21-.3.69.69,0,0,0-.38-.1.94.94,0,0,0-.52.16.91.91,0,0,0-.34.45,3.34,3.34,0,0,0-.1,1v2.31H82Z" transform="translate(-42.43 -0.86)"/><path class="cls-4" d="M89.65,25.7H91l1.14,3.38,1.11-3.38h1.3l-1.68,4.58-.3.83a3.29,3.29,0,0,1-.32.63,1.31,1.31,0,0,1-.34.36,1.51,1.51,0,0,1-.48.21,2.3,2.3,0,0,1-.62.1,10.56,10.56,0,0,1-1.26,0l-34.66-.51c.2,0,36.12-.58,36.26-.75a1.85,1.85,0,0,0,.32-.66Z" transform="translate(-42.43 -0.86)"/><text class="cls-5" transform="translate(9.06 36.66)">Connecting<tspan class="cls-6" x="16.81" y="0"> </tspan><tspan x="17.67" y="0">The Unconnected</tspan></text><path class="cls-7" d="M53.45,36.69l.31.08a1,1,0,0,1-.35.59,1,1,0,0,1-.63.21,1.17,1.17,0,0,1-.63-.16.91.91,0,0,1-.36-.45,1.53,1.53,0,0,1-.13-.64,1.48,1.48,0,0,1,.14-.65,1,1,0,0,1,.41-.42,1.2,1.2,0,0,1,.57-.14,1,1,0,0,1,.6.18.88.88,0,0,1,.34.51l-.31.07a.63.63,0,0,0-.24-.37.61.61,0,0,0-.39-.12.74.74,0,0,0-.46.13.71.71,0,0,0-.26.35,1.43,1.43,0,0,0-.07.46,1.69,1.69,0,0,0,.08.53.67.67,0,0,0,.28.34.8.8,0,0,0,.4.11.68.68,0,0,0,.45-.15A.83.83,0,0,0,53.45,36.69Z" transform="translate(-42.43 -0.86)"/><path class="cls-7" d="M54,36.67a.88.88,0,0,1,.27-.71.8.8,0,0,1,.54-.2.75.75,0,0,1,.58.24.88.88,0,0,1,.23.64,1.07,1.07,0,0,1-.1.52.7.7,0,0,1-.29.3.88.88,0,0,1-.42.11.75.75,0,0,1-.58-.24A.9.9,0,0,1,54,36.67Zm.3,0a.7.7,0,0,0,.15.49.48.48,0,0,0,.36.17.45.45,0,0,0,.36-.17.73.73,0,0,0,.15-.5.7.7,0,0,0-.15-.49.44.44,0,0,0-.36-.16.46.46,0,0,0-.36.16A.71.71,0,0,0,54.3,36.67Z" transform="translate(-42.43 -0.86)"/><path class="cls-7" d="M56,37.53V35.8h.26v.25a.63.63,0,0,1,.55-.29.68.68,0,0,1,.29.06.42.42,0,0,1,.19.15.4.4,0,0,1,.09.21,1.07,1.07,0,0,1,0,.29v1.06h-.29V36.48a.91.91,0,0,0,0-.27.35.35,0,0,0-.13-.14.39.39,0,0,0-.2,0,.47.47,0,0,0-.32.12.57.57,0,0,0-.14.45v.94Z" transform="translate(-42.43 -0.86)"/><path class="cls-7" d="M57.81,37.53V35.8h.26v.25a.63.63,0,0,1,.55-.29.72.72,0,0,1,.29.06.49.49,0,0,1,.19.15.4.4,0,0,1,.09.21,1.75,1.75,0,0,1,0,.29v1.06h-.29V36.48a.64.64,0,0,0,0-.27.27.27,0,0,0-.12-.14.42.42,0,0,0-.2,0,.45.45,0,0,0-.32.12.57.57,0,0,0-.14.45v.94Z" transform="translate(-42.43 -0.86)"/><path class="cls-7" d="M60.84,37l.3,0a.74.74,0,0,1-.27.41.77.77,0,0,1-.49.15.78.78,0,0,1-.6-.24.88.88,0,0,1-.22-.65,1,1,0,0,1,.22-.68.77.77,0,0,1,.58-.24.75.75,0,0,1,.57.24,1,1,0,0,1,.22.66v.08H59.86a.67.67,0,0,0,.16.43.46.46,0,0,0,.36.16.45.45,0,0,0,.28-.09A.71.71,0,0,0,60.84,37Zm-1-.47h1a.59.59,0,0,0-.11-.33.45.45,0,0,0-.36-.17.46.46,0,0,0-.34.14A.54.54,0,0,0,59.88,36.5Z" transform="translate(-42.43 -0.86)"/><path class="cls-7" d="M62.63,36.9l.29,0a.8.8,0,0,1-.25.47.68.68,0,0,1-.47.17.72.72,0,0,1-.57-.24.93.93,0,0,1-.21-.66,1.26,1.26,0,0,1,.09-.49.61.61,0,0,1,.28-.31.81.81,0,0,1,.41-.11.69.69,0,0,1,.46.15.67.67,0,0,1,.23.4l-.29,0a.44.44,0,0,0-.14-.26.37.37,0,0,0-.25-.09.47.47,0,0,0-.36.16.78.78,0,0,0-.14.5.8.8,0,0,0,.14.51.45.45,0,0,0,.35.16.39.39,0,0,0,.28-.11A.51.51,0,0,0,62.63,36.9Z" transform="translate(-42.43 -0.86)"/><path class="cls-7" d="M63.8,37.27l0,.25-.22,0a.54.54,0,0,1-.24,0,.4.4,0,0,1-.13-.13,1.28,1.28,0,0,1,0-.35V36H63V35.8h.22v-.42l.29-.18v.6h.29V36h-.29v1a.62.62,0,0,0,0,.16l0,.06.1,0Z" transform="translate(-42.43 -0.86)"/><path class="cls-7" d="M64.09,35.48v-.33h.29v.33Zm0,2.05V35.8h.29v1.73Z" transform="translate(-42.43 -0.86)"/><path class="cls-7" d="M64.83,37.53V35.8h.26v.25a.63.63,0,0,1,.55-.29.64.64,0,0,1,.28.06.46.46,0,0,1,.2.15.67.67,0,0,1,.09.21,1.75,1.75,0,0,1,0,.29v1.06h-.3V36.48a.91.91,0,0,0,0-.27.27.27,0,0,0-.12-.14.46.46,0,0,0-.2,0,.48.48,0,0,0-.33.12.58.58,0,0,0-.13.45v.94Z" transform="translate(-42.43 -0.86)"/><path class="cls-7" d="M66.62,37.67l.28,0a.31.31,0,0,0,.1.19.62.62,0,0,0,.61,0,.34.34,0,0,0,.15-.22,1.69,1.69,0,0,0,0-.38.58.58,0,0,1-.47.23.65.65,0,0,1-.55-.26,1,1,0,0,1-.2-.61,1.14,1.14,0,0,1,.09-.46.7.7,0,0,1,.26-.32.68.68,0,0,1,.4-.12.63.63,0,0,1,.5.25V35.8h.27v1.49a1.49,1.49,0,0,1-.08.57.67.67,0,0,1-.26.27,1,1,0,0,1-.44.1.87.87,0,0,1-.5-.14A.5.5,0,0,1,66.62,37.67Zm.24-1a.75.75,0,0,0,.14.5.44.44,0,0,0,.33.16.44.44,0,0,0,.34-.16.73.73,0,0,0,.14-.49.69.69,0,0,0-.14-.47.44.44,0,0,0-.34-.16.41.41,0,0,0-.33.16A.68.68,0,0,0,66.86,36.63Z" transform="translate(-42.43 -0.86)"/><path class="cls-7" d="M70,37.53v-2.1h-.79v-.28h1.89v.28h-.79v2.1Z" transform="translate(-42.43 -0.86)"/><path class="cls-7" d="M71.41,37.53V35.15h.3V36a.63.63,0,0,1,.51-.24.67.67,0,0,1,.33.08.47.47,0,0,1,.21.21,1,1,0,0,1,.06.38v1.1h-.3v-1.1a.44.44,0,0,0-.09-.31.33.33,0,0,0-.27-.1.48.48,0,0,0-.24.06.44.44,0,0,0-.17.19.86.86,0,0,0,0,.31v1Z" transform="translate(-42.43 -0.86)"/><path class="cls-7" d="M74.44,37l.3,0a.73.73,0,0,1-.26.41.8.8,0,0,1-.5.15.75.75,0,0,1-.59-.24.89.89,0,0,1-.23-.65,1,1,0,0,1,.23-.68.75.75,0,0,1,.58-.24.71.71,0,0,1,.56.24.92.92,0,0,1,.22.66v.08H73.47a.62.62,0,0,0,.16.43.47.47,0,0,0,.63.07A.54.54,0,0,0,74.44,37Zm-1-.47h1a.59.59,0,0,0-.11-.33A.45.45,0,0,0,74,36a.48.48,0,0,0-.34.14A.54.54,0,0,0,73.48,36.5Z" transform="translate(-42.43 -0.86)"/><path class="cls-7" d="M77.63,35.15h.31v1.37a1.5,1.5,0,0,1-.08.57.64.64,0,0,1-.29.34,1,1,0,0,1-.56.14,1.08,1.08,0,0,1-.54-.12.71.71,0,0,1-.31-.33,1.65,1.65,0,0,1-.09-.6V35.15h.32v1.37a1.3,1.3,0,0,0,.06.46.38.38,0,0,0,.19.22.65.65,0,0,0,.35.08.67.67,0,0,0,.49-.15.92.92,0,0,0,.15-.61Z" transform="translate(-42.43 -0.86)"/><path class="cls-7" d="M78.43,37.53V35.8h.26v.25a.63.63,0,0,1,.55-.29.68.68,0,0,1,.29.06.49.49,0,0,1,.19.15.4.4,0,0,1,.09.21,1.75,1.75,0,0,1,0,.29v1.06h-.29V36.48a.64.64,0,0,0,0-.27.27.27,0,0,0-.12-.14.39.39,0,0,0-.2,0,.47.47,0,0,0-.32.12.57.57,0,0,0-.14.45v.94Z" transform="translate(-42.43 -0.86)"/><path class="cls-7" d="M81.4,36.9l.29,0a.74.74,0,0,1-.24.47.72.72,0,0,1-.48.17.75.75,0,0,1-.57-.24.93.93,0,0,1-.21-.66,1.26,1.26,0,0,1,.09-.49.65.65,0,0,1,.28-.31.87.87,0,0,1,.41-.11.69.69,0,0,1,.46.15.62.62,0,0,1,.23.4l-.28,0a.51.51,0,0,0-.15-.26A.34.34,0,0,0,81,36a.47.47,0,0,0-.36.16.73.73,0,0,0-.14.5.8.8,0,0,0,.13.51.46.46,0,0,0,.35.16.44.44,0,0,0,.29-.11A.56.56,0,0,0,81.4,36.9Z" transform="translate(-42.43 -0.86)"/><path class="cls-7" d="M81.83,36.67A.88.88,0,0,1,82.1,36a.78.78,0,0,1,.54-.2.75.75,0,0,1,.58.24.87.87,0,0,1,.22.64,1.07,1.07,0,0,1-.1.52.65.65,0,0,1-.29.3.81.81,0,0,1-.41.11.78.78,0,0,1-.59-.24A.89.89,0,0,1,81.83,36.67Zm.3,0a.75.75,0,0,0,.14.49.48.48,0,0,0,.37.17.48.48,0,0,0,.36-.17.73.73,0,0,0,.14-.5.7.7,0,0,0-.14-.49.46.46,0,0,0-.36-.16.47.47,0,0,0-.37.16A.76.76,0,0,0,82.13,36.67Z" transform="translate(-42.43 -0.86)"/><path class="cls-7" d="M83.79,37.53V35.8h.26v.25a.63.63,0,0,1,.55-.29.64.64,0,0,1,.28.06.46.46,0,0,1,.2.15.67.67,0,0,1,.09.21,1.75,1.75,0,0,1,0,.29v1.06h-.3V36.48a.91.91,0,0,0,0-.27.27.27,0,0,0-.12-.14.46.46,0,0,0-.2,0,.48.48,0,0,0-.33.12.58.58,0,0,0-.13.45v.94Z" transform="translate(-42.43 -0.86)"/><path class="cls-7" d="M85.63,37.53V35.8h.27v.25a.62.62,0,0,1,.55-.29.67.67,0,0,1,.28.06.53.53,0,0,1,.2.15.67.67,0,0,1,.09.21,2.11,2.11,0,0,1,0,.29v1.06h-.29V36.48a.91.91,0,0,0,0-.27.27.27,0,0,0-.12-.14.46.46,0,0,0-.21,0,.47.47,0,0,0-.32.12.58.58,0,0,0-.13.45v.94Z" transform="translate(-42.43 -0.86)"/><path class="cls-7" d="M88.66,37l.3,0a.68.68,0,0,1-.26.41.77.77,0,0,1-.49.15.75.75,0,0,1-.6-.24.89.89,0,0,1-.23-.65,1,1,0,0,1,.23-.68.75.75,0,0,1,.58-.24.71.71,0,0,1,.56.24.92.92,0,0,1,.22.66v.08H87.69a.62.62,0,0,0,.16.43.44.44,0,0,0,.36.16.42.42,0,0,0,.27-.09A.54.54,0,0,0,88.66,37Zm-1-.47h1a.59.59,0,0,0-.11-.33.45.45,0,0,0-.36-.17.49.49,0,0,0-.34.14A.54.54,0,0,0,87.7,36.5Z" transform="translate(-42.43 -0.86)"/><path class="cls-7" d="M90.45,36.9l.29,0a.74.74,0,0,1-.24.47.72.72,0,0,1-.48.17.71.71,0,0,1-.56-.24.89.89,0,0,1-.22-.66,1.26,1.26,0,0,1,.09-.49.65.65,0,0,1,.28-.31.88.88,0,0,1,.42-.11.66.66,0,0,1,.45.15.62.62,0,0,1,.23.4l-.28,0a.59.59,0,0,0-.14-.26A.38.38,0,0,0,90,36a.47.47,0,0,0-.36.16.78.78,0,0,0-.14.5.8.8,0,0,0,.13.51.46.46,0,0,0,.35.16.42.42,0,0,0,.29-.11A.56.56,0,0,0,90.45,36.9Z" transform="translate(-42.43 -0.86)"/><path class="cls-7" d="M91.63,37.27l0,.25-.22,0a.55.55,0,0,1-.25,0,.37.37,0,0,1-.12-.13A1.17,1.17,0,0,1,91,37V36h-.21V35.8H91v-.42l.29-.18v.6h.3V36h-.3v1a.51.51,0,0,0,0,.16l.05.06.1,0Z" transform="translate(-42.43 -0.86)"/><path class="cls-7" d="M93.09,37l.3,0a.68.68,0,0,1-.26.41.77.77,0,0,1-.49.15.78.78,0,0,1-.6-.24.88.88,0,0,1-.22-.65A1,1,0,0,1,92,36a.81.81,0,0,1,1.15,0,1,1,0,0,1,.21.66v.08H92.12a.62.62,0,0,0,.16.43.46.46,0,0,0,.36.16.4.4,0,0,0,.27-.09A.54.54,0,0,0,93.09,37Zm-1-.47h1a.67.67,0,0,0-.11-.33.48.48,0,0,0-.37-.17.45.45,0,0,0-.33.14A.5.5,0,0,0,92.13,36.5Z" transform="translate(-42.43 -0.86)"/><path class="cls-7" d="M94.88,37.53v-.22a.54.54,0,0,1-.48.26.64.64,0,0,1-.38-.12.66.66,0,0,1-.27-.32,1.11,1.11,0,0,1-.09-.46,1.19,1.19,0,0,1,.08-.47.7.7,0,0,1,.26-.32.64.64,0,0,1,.38-.12.61.61,0,0,1,.28.07.55.55,0,0,1,.2.17v-.85h.29v2.38ZM94,36.67a.7.7,0,0,0,.14.49.41.41,0,0,0,.32.17.44.44,0,0,0,.33-.16.72.72,0,0,0,.13-.48.83.83,0,0,0-.13-.52.43.43,0,0,0-.34-.16.38.38,0,0,0-.32.16A.75.75,0,0,0,94,36.67Z" transform="translate(-42.43 -0.86)"/><polygon class="cls-8" points="97.68 11.35 108.15 11.35 108.15 21.59 97.68 21.59 97.68 11.35 97.68 11.35"/><polygon class="cls-9" points="108.15 11.15 118.62 11.15 118.62 21.98 108.15 21.98 108.15 11.15 108.15 11.15"/><polygon class="cls-10" points="108.15 11.15 118.62 11.15 118.62 21.98 108.15 21.98 108.15 11.15 108.15 11.15"/><polygon class="cls-9" points="87.21 11.15 97.68 11.15 97.68 21.98 87.21 21.98 87.21 11.15 87.21 11.15"/><polygon class="cls-10" points="87.21 11.15 97.68 11.15 97.68 21.98 87.21 21.98 87.21 11.15 87.21 11.15"/><polygon class="cls-11" points="97.76 22.11 108.23 22.11 108.23 32.88 97.76 32.88 97.76 22.11 97.76 22.11"/><text class="cls-12" transform="translate(89.88 19.41)">E</text><text class="cls-12" transform="translate(107.53 19.51)"><tspan class="cls-13">	</tspan><tspan x="3.36" y="0">C</tspan></text><text class="cls-12" transform="translate(99.73 19.41)">&amp;</text><text class="cls-14" transform="translate(100.67 30.65)">T</text><text class="cls-14" transform="translate(101.96 8.77)">I</text><polygon class="cls-11" points="97.68 0.13 108.15 0.13 108.15 10.9 97.68 10.9 97.68 0.13 97.68 0.13"/><text x="-42.43" y="-0.86"/><text class="cls-15" transform="translate(90.88 37.37)">IIT Guwahati</text></svg>