<svg id="Layer_1" data-name="Layer 1" xmlns="http://www.w3.org/2000/svg" xmlns:xlink="http://www.w3.org/1999/xlink" viewBox="0 0 194.36 118.38"><defs><style>.cls-1,.cls-2,.cls-3{fill:none;stroke-linecap:round;stroke-linejoin:round;stroke-width:3px;}.cls-1{stroke:url(#linear-gradient);}.cls-2{stroke:url(#linear-gradient-2);}.cls-3{stroke:url(#linear-gradient-3);}.cls-4{fill:url(#linear-gradient-4);}.cls-5{font-size:10.5px;fill:#0152c6;font-family:ArialMT, Arial;}.cls-6{letter-spacing:-0.02em;}.cls-7{fill:url(#linear-gradient-17);}</style><linearGradient id="linear-gradient" x1="49.46" y1="114.57" x2="49.46" y2="114.57" gradientUnits="userSpaceOnUse"><stop offset="0" stop-color="#0152c6"/><stop offset="1" stop-color="#043b8b"/></linearGradient><linearGradient id="linear-gradient-2" x1="18.27" y1="58.12" x2="212.62" y2="58.12" xlink:href="#linear-gradient"/><linearGradient id="linear-gradient-3" x1="181.43" y1="114.57" x2="181.43" y2="114.57" xlink:href="#linear-gradient"/><linearGradient id="linear-gradient-4" x1="81.38" y1="113.59" x2="162.69" y2="32.27" gradientTransform="translate(-4.59 3.96)" gradientUnits="userSpaceOnUse"><stop offset="0.49" stop-color="#024ebb"/><stop offset="0.5" stop-color="#0152c6"/><stop offset="1" stop-color="#043b8b"/></linearGradient><linearGradient id="linear-gradient-17" x1="81.23" y1="148.17" x2="152.8" y2="76.6" gradientUnits="userSpaceOnUse"><stop offset="0.49" stop-color="#0152c6"/><stop offset="1" stop-color="#043b8b"/></linearGradient></defs><title>Untitled-8</title><path class="cls-1" d="M49.46,114.57" transform="translate(-18.27 -1.17)"/><path class="cls-2" d="M190.81,113.12c11.8-3.75,20.31-14.4,20.31-26.94,0-12.1-7.92-22.42-19.07-26.51a45.29,45.29,0,0,0,1.16-10.14c0-25.88-21.94-46.86-49-46.86a49.38,49.38,0,0,0-43.12,24.54A35.85,35.85,0,0,0,84.32,23.1C65.11,23.1,49.54,38,49.54,56.35q0,.72,0,1.44h-.11c-16.4,0-29.69,12.71-29.69,28.39,0,13.09,9.26,24.1,21.86,27.39" transform="translate(-18.27 -1.17)"/><path class="cls-3" d="M181.43,114.57" transform="translate(-18.27 -1.17)"/><path d="M73.19,68.79V51.55H67V48H83.52v3.52H77.38V68.79Z" transform="translate(-18.27 -1.17)"/><path d="M90.16,48v7.64a5.87,5.87,0,0,1,4.61-2.26,5.8,5.8,0,0,1,2.47.51,4.1,4.1,0,0,1,1.67,1.31A4.65,4.65,0,0,1,99.67,57a15.37,15.37,0,0,1,.21,3v8.82h-4V60.85a11.69,11.69,0,0,0-.23-3,2,2,0,0,0-.8-1,2.57,2.57,0,0,0-1.44-.37,3.31,3.31,0,0,0-1.77.48,2.85,2.85,0,0,0-1.14,1.45,8.7,8.7,0,0,0-.36,2.87v7.53h-4V48Z" transform="translate(-18.27 -1.17)"/><path d="M112.62,64l4,.66A6.49,6.49,0,0,1,114.17,68a7.07,7.07,0,0,1-4.12,1.14,6.73,6.73,0,0,1-5.81-2.56,8.63,8.63,0,0,1-1.49-5.18,8.27,8.27,0,0,1,2-5.86,6.44,6.44,0,0,1,4.94-2.12,6.65,6.65,0,0,1,5.29,2.22q1.95,2.22,1.86,6.79h-10a4,4,0,0,0,1,2.75,3,3,0,0,0,2.3,1,2.45,2.45,0,0,0,1.57-.51A3.14,3.14,0,0,0,112.62,64Zm.23-4a3.86,3.86,0,0,0-.89-2.63,2.87,2.87,0,0,0-4.22,0A3.65,3.65,0,0,0,106.9,60Z" transform="translate(-18.27 -1.17)"/><path d="M128,68.79V48h4.19V68.79Z" transform="translate(-18.27 -1.17)"/><path d="M136.24,60.1a9.06,9.06,0,0,1,1.09-4.29,7.47,7.47,0,0,1,3.1-3.17,9.13,9.13,0,0,1,4.47-1.09A8.41,8.41,0,0,1,151.16,54a9.32,9.32,0,0,1,0,12.6,8.32,8.32,0,0,1-6.21,2.51,9.86,9.86,0,0,1-4.41-1A7.18,7.18,0,0,1,137.33,65,10.22,10.22,0,0,1,136.24,60.1Zm4.56.24A5.56,5.56,0,0,0,142,64.17a3.88,3.88,0,0,0,5.85,0A5.61,5.61,0,0,0,149,60.31a5.55,5.55,0,0,0-1.18-3.81,3.88,3.88,0,0,0-5.85,0A5.6,5.6,0,0,0,140.8,60.34Z" transform="translate(-18.27 -1.17)"/><path d="M159.57,68.79V51.55h-6.16V48h16.5v3.52h-6.15V68.79Z" transform="translate(-18.27 -1.17)"/><path d="M75.23,93.79H70.67l-1.81-4.71h-8.3l-1.71,4.71H54.4L62.49,73h4.43Zm-7.71-8.21-2.86-7.7-2.81,7.7Z" transform="translate(-18.27 -1.17)"/><path d="M90.54,83.2l-3.92.71a2.82,2.82,0,0,0-.9-1.77,2.72,2.72,0,0,0-1.82-.6,3,3,0,0,0-2.37,1A5.25,5.25,0,0,0,80.64,86a6.11,6.11,0,0,0,.9,3.79A3,3,0,0,0,84,90.89a2.72,2.72,0,0,0,1.85-.64,3.9,3.9,0,0,0,1-2.22l3.91.67a7,7,0,0,1-2.34,4.06,7.25,7.25,0,0,1-4.63,1.37,6.88,6.88,0,0,1-5.26-2.08,8.06,8.06,0,0,1-2-5.76,8.09,8.09,0,0,1,2-5.8,7,7,0,0,1,5.32-2.08,7.26,7.26,0,0,1,4.37,1.19A6.56,6.56,0,0,1,90.54,83.2Z" transform="translate(-18.27 -1.17)"/><path d="M96.53,83.34l-3.61-.65A5.66,5.66,0,0,1,95,79.46a7.69,7.69,0,0,1,4.42-1,9.54,9.54,0,0,1,4,.63,3.91,3.91,0,0,1,1.83,1.61,8.08,8.08,0,0,1,.53,3.56l0,4.64a16,16,0,0,0,.19,2.93,8.6,8.6,0,0,0,.72,2h-3.94c-.1-.26-.23-.65-.38-1.17-.07-.24-.12-.39-.14-.47A7.16,7.16,0,0,1,100,93.64a6.22,6.22,0,0,1-2.47.49,5.12,5.12,0,0,1-3.66-1.26,4.16,4.16,0,0,1-1.34-3.18,4.28,4.28,0,0,1,.61-2.28,4,4,0,0,1,1.7-1.53A13.37,13.37,0,0,1,98,85a21.57,21.57,0,0,0,3.86-1v-.4a2,2,0,0,0-.56-1.63,3.37,3.37,0,0,0-2.14-.49,2.85,2.85,0,0,0-1.66.42A3,3,0,0,0,96.53,83.34Zm5.32,3.23c-.51.17-1.31.37-2.42.61a7.65,7.65,0,0,0-2.16.69,1.67,1.67,0,0,0-.78,1.41,2,2,0,0,0,.62,1.44,2.16,2.16,0,0,0,1.59.61,3.47,3.47,0,0,0,2-.71,2.51,2.51,0,0,0,1-1.32,8.11,8.11,0,0,0,.15-1.94Z" transform="translate(-18.27 -1.17)"/><path d="M123.48,93.79h-3.7V91.58a6,6,0,0,1-2.17,1.92,5.6,5.6,0,0,1-2.53.63A5.7,5.7,0,0,1,110.64,92a8.49,8.49,0,0,1-1.85-5.82,8.42,8.42,0,0,1,1.8-5.82,5.9,5.9,0,0,1,4.55-2,5.63,5.63,0,0,1,4.36,2.1V73h4ZM112.86,86a6.94,6.94,0,0,0,.66,3.48A3,3,0,0,0,116.21,91a2.92,2.92,0,0,0,2.34-1.17,5.4,5.4,0,0,0,1-3.49,5.91,5.91,0,0,0-.93-3.73,3,3,0,0,0-2.4-1.14,3,3,0,0,0-2.37,1.12A5.17,5.17,0,0,0,112.86,86Z" transform="translate(-18.27 -1.17)"/><path d="M136.11,89l4,.66A6.47,6.47,0,0,1,137.66,93a7.1,7.1,0,0,1-4.13,1.14,6.71,6.71,0,0,1-5.8-2.56,8.56,8.56,0,0,1-1.49-5.18,8.31,8.31,0,0,1,2-5.86,6.45,6.45,0,0,1,4.94-2.12,6.67,6.67,0,0,1,5.3,2.22q1.94,2.22,1.86,6.79h-10a4,4,0,0,0,1,2.75,3,3,0,0,0,2.29,1,2.46,2.46,0,0,0,1.58-.51A3.21,3.21,0,0,0,136.11,89Zm.23-4a3.82,3.82,0,0,0-.9-2.63,2.71,2.71,0,0,0-2.06-.9,2.79,2.79,0,0,0-2.16,1,3.69,3.69,0,0,0-.83,2.58Z" transform="translate(-18.27 -1.17)"/><path d="M143.23,78.75h3.67v2.06a5.89,5.89,0,0,1,4.69-2.4,5,5,0,0,1,2.5.6,4.58,4.58,0,0,1,1.74,1.8A7.21,7.21,0,0,1,158,79a5.22,5.22,0,0,1,2.45-.6,5.46,5.46,0,0,1,2.81.68,4.14,4.14,0,0,1,1.71,2,8.66,8.66,0,0,1,.41,3.12v9.61h-4V85.2a6.45,6.45,0,0,0-.41-2.89,1.88,1.88,0,0,0-1.7-.85,2.7,2.7,0,0,0-1.57.51,2.81,2.81,0,0,0-1.06,1.49,10.67,10.67,0,0,0-.33,3.11v7.22h-4V85.55a11.53,11.53,0,0,0-.21-2.83,1.78,1.78,0,0,0-.66-1,2.07,2.07,0,0,0-1.21-.31,2.94,2.94,0,0,0-1.66.49,2.75,2.75,0,0,0-1.05,1.43,10.78,10.78,0,0,0-.32,3.11v7.3h-4Z" transform="translate(-18.27 -1.17)"/><path d="M167.43,78.75h4.23l3.6,10.68,3.51-10.68h4.12l-5.31,14.48-1,2.62a11,11,0,0,1-1,2A4.48,4.48,0,0,1,174.55,99a4.73,4.73,0,0,1-1.52.67,7.16,7.16,0,0,1-1.95.32,33.44,33.44,0,0,1-4-.07L57.54,98.3c.62.12,114.15-1.85,114.59-2.39a5.4,5.4,0,0,0,1-2.08Z" transform="translate(-18.27 -1.17)"/><path class="cls-4" d="M73.19,68.79V51.55H67V48H83.52v3.52H77.38V68.79Z" transform="translate(-18.27 -1.17)"/><path class="cls-4" d="M90.16,48v7.64a5.87,5.87,0,0,1,4.61-2.26,5.8,5.8,0,0,1,2.47.51,4.1,4.1,0,0,1,1.67,1.31A4.65,4.65,0,0,1,99.67,57a15.37,15.37,0,0,1,.21,3v8.82h-4V60.85a11.69,11.69,0,0,0-.23-3,2,2,0,0,0-.8-1,2.57,2.57,0,0,0-1.44-.37,3.31,3.31,0,0,0-1.77.48,2.85,2.85,0,0,0-1.14,1.45,8.7,8.7,0,0,0-.36,2.87v7.53h-4V48Z" transform="translate(-18.27 -1.17)"/><path class="cls-4" d="M112.62,64l4,.66A6.49,6.49,0,0,1,114.17,68a7.07,7.07,0,0,1-4.12,1.14,6.73,6.73,0,0,1-5.81-2.56,8.63,8.63,0,0,1-1.49-5.18,8.27,8.27,0,0,1,2-5.86,6.44,6.44,0,0,1,4.94-2.12,6.65,6.65,0,0,1,5.29,2.22q1.95,2.22,1.86,6.79h-10a4,4,0,0,0,1,2.75,3,3,0,0,0,2.3,1,2.45,2.45,0,0,0,1.57-.51A3.14,3.14,0,0,0,112.62,64Zm.23-4a3.86,3.86,0,0,0-.89-2.63,2.87,2.87,0,0,0-4.22,0A3.65,3.65,0,0,0,106.9,60Z" transform="translate(-18.27 -1.17)"/><path class="cls-4" d="M128,68.79V48h4.19V68.79Z" transform="translate(-18.27 -1.17)"/><path class="cls-4" d="M136.24,60.1a9.06,9.06,0,0,1,1.09-4.29,7.47,7.47,0,0,1,3.1-3.17,9.13,9.13,0,0,1,4.47-1.09A8.41,8.41,0,0,1,151.16,54a9.32,9.32,0,0,1,0,12.6,8.32,8.32,0,0,1-6.21,2.51,9.86,9.86,0,0,1-4.41-1A7.18,7.18,0,0,1,137.33,65,10.22,10.22,0,0,1,136.24,60.1Zm4.56.24A5.56,5.56,0,0,0,142,64.17a3.88,3.88,0,0,0,5.85,0A5.61,5.61,0,0,0,149,60.31a5.55,5.55,0,0,0-1.18-3.81,3.88,3.88,0,0,0-5.85,0A5.6,5.6,0,0,0,140.8,60.34Z" transform="translate(-18.27 -1.17)"/><path class="cls-4" d="M159.57,68.79V51.55h-6.16V48h16.5v3.52h-6.15V68.79Z" transform="translate(-18.27 -1.17)"/><path class="cls-4" d="M75.23,93.79H70.67l-1.81-4.71h-8.3l-1.71,4.71H54.4L62.49,73h4.43Zm-7.71-8.21-2.86-7.7-2.81,7.7Z" transform="translate(-18.27 -1.17)"/><path class="cls-4" d="M90.54,83.2l-3.92.71a2.82,2.82,0,0,0-.9-1.77,2.72,2.72,0,0,0-1.82-.6,3,3,0,0,0-2.37,1A5.25,5.25,0,0,0,80.64,86a6.11,6.11,0,0,0,.9,3.79A3,3,0,0,0,84,90.89a2.72,2.72,0,0,0,1.85-.64,3.9,3.9,0,0,0,1-2.22l3.91.67a7,7,0,0,1-2.34,4.06,7.25,7.25,0,0,1-4.63,1.37,6.88,6.88,0,0,1-5.26-2.08,8.06,8.06,0,0,1-2-5.76,8.09,8.09,0,0,1,2-5.8,7,7,0,0,1,5.32-2.08,7.26,7.26,0,0,1,4.37,1.19A6.56,6.56,0,0,1,90.54,83.2Z" transform="translate(-18.27 -1.17)"/><path class="cls-4" d="M96.53,83.34l-3.61-.65A5.66,5.66,0,0,1,95,79.46a7.69,7.69,0,0,1,4.42-1,9.54,9.54,0,0,1,4,.63,3.91,3.91,0,0,1,1.83,1.61,8.08,8.08,0,0,1,.53,3.56l0,4.64a16,16,0,0,0,.19,2.93,8.6,8.6,0,0,0,.72,2h-3.94c-.1-.26-.23-.65-.38-1.17-.07-.24-.12-.39-.14-.47A7.16,7.16,0,0,1,100,93.64a6.22,6.22,0,0,1-2.47.49,5.12,5.12,0,0,1-3.66-1.26,4.16,4.16,0,0,1-1.34-3.18,4.28,4.28,0,0,1,.61-2.28,4,4,0,0,1,1.7-1.53A13.37,13.37,0,0,1,98,85a21.57,21.57,0,0,0,3.86-1v-.4a2,2,0,0,0-.56-1.63,3.37,3.37,0,0,0-2.14-.49,2.85,2.85,0,0,0-1.66.42A3,3,0,0,0,96.53,83.34Zm5.32,3.23c-.51.17-1.31.37-2.42.61a7.65,7.65,0,0,0-2.16.69,1.67,1.67,0,0,0-.78,1.41,2,2,0,0,0,.62,1.44,2.16,2.16,0,0,0,1.59.61,3.47,3.47,0,0,0,2-.71,2.51,2.51,0,0,0,1-1.32,8.11,8.11,0,0,0,.15-1.94Z" transform="translate(-18.27 -1.17)"/><path class="cls-4" d="M123.48,93.79h-3.7V91.58a6,6,0,0,1-2.17,1.92,5.6,5.6,0,0,1-2.53.63A5.7,5.7,0,0,1,110.64,92a8.49,8.49,0,0,1-1.85-5.82,8.42,8.42,0,0,1,1.8-5.82,5.9,5.9,0,0,1,4.55-2,5.63,5.63,0,0,1,4.36,2.1V73h4ZM112.86,86a6.94,6.94,0,0,0,.66,3.48A3,3,0,0,0,116.21,91a2.92,2.92,0,0,0,2.34-1.17,5.4,5.4,0,0,0,1-3.49,5.91,5.91,0,0,0-.93-3.73,3,3,0,0,0-2.4-1.14,3,3,0,0,0-2.37,1.12A5.17,5.17,0,0,0,112.86,86Z" transform="translate(-18.27 -1.17)"/><path class="cls-4" d="M136.11,89l4,.66A6.47,6.47,0,0,1,137.66,93a7.1,7.1,0,0,1-4.13,1.14,6.71,6.71,0,0,1-5.8-2.56,8.56,8.56,0,0,1-1.49-5.18,8.31,8.31,0,0,1,2-5.86,6.45,6.45,0,0,1,4.94-2.12,6.67,6.67,0,0,1,5.3,2.22q1.94,2.22,1.86,6.79h-10a4,4,0,0,0,1,2.75,3,3,0,0,0,2.29,1,2.46,2.46,0,0,0,1.58-.51A3.21,3.21,0,0,0,136.11,89Zm.23-4a3.82,3.82,0,0,0-.9-2.63,2.71,2.71,0,0,0-2.06-.9,2.79,2.79,0,0,0-2.16,1,3.69,3.69,0,0,0-.83,2.58Z" transform="translate(-18.27 -1.17)"/><path class="cls-4" d="M143.23,78.75h3.67v2.06a5.89,5.89,0,0,1,4.69-2.4,5,5,0,0,1,2.5.6,4.58,4.58,0,0,1,1.74,1.8A7.21,7.21,0,0,1,158,79a5.22,5.22,0,0,1,2.45-.6,5.46,5.46,0,0,1,2.81.68,4.14,4.14,0,0,1,1.71,2,8.66,8.66,0,0,1,.41,3.12v9.61h-4V85.2a6.45,6.45,0,0,0-.41-2.89,1.88,1.88,0,0,0-1.7-.85,2.7,2.7,0,0,0-1.57.51,2.81,2.81,0,0,0-1.06,1.49,10.67,10.67,0,0,0-.33,3.11v7.22h-4V85.55a11.53,11.53,0,0,0-.21-2.83,1.78,1.78,0,0,0-.66-1,2.07,2.07,0,0,0-1.21-.31,2.94,2.94,0,0,0-1.66.49,2.75,2.75,0,0,0-1.05,1.43,10.78,10.78,0,0,0-.32,3.11v7.3h-4Z" transform="translate(-18.27 -1.17)"/><path class="cls-4" d="M167.43,78.75h4.23l3.6,10.68,3.51-10.68h4.12l-5.31,14.48-1,2.62a11,11,0,0,1-1,2A4.48,4.48,0,0,1,174.55,99a4.73,4.73,0,0,1-1.52.67,7.16,7.16,0,0,1-1.95.32,33.44,33.44,0,0,1-4-.07L57.54,98.3c.62.12,114.15-1.85,114.59-2.39a5.4,5.4,0,0,0,1-2.08Z" transform="translate(-18.27 -1.17)"/><text class="cls-5" transform="translate(28.57 114.97)">Connecting<tspan class="cls-6" x="53.12" y="0"> </tspan><tspan x="55.85" y="0">The Unconnected</tspan></text><path class="cls-7" d="M53,113.5l1,.25a3.37,3.37,0,0,1-1.13,1.87,3.08,3.08,0,0,1-2,.64,3.55,3.55,0,0,1-2-.49,3,3,0,0,1-1.16-1.44,5,5,0,0,1-.4-2,4.42,4.42,0,0,1,.45-2,3.16,3.16,0,0,1,1.28-1.33,3.75,3.75,0,0,1,1.82-.45,3.13,3.13,0,0,1,1.9.57,3,3,0,0,1,1.07,1.62l-1,.23a2.34,2.34,0,0,0-.76-1.19,2,2,0,0,0-1.25-.38,2.41,2.41,0,0,0-1.45.42,2.19,2.19,0,0,0-.82,1.11,4.73,4.73,0,0,0-.23,1.45,4.53,4.53,0,0,0,.28,1.67,2,2,0,0,0,.87,1.07,2.45,2.45,0,0,0,1.27.35,2.16,2.16,0,0,0,1.42-.48A2.46,2.46,0,0,0,53,113.5Z" transform="translate(-18.27 -1.17)"/><path class="cls-7" d="M54.77,113.41a2.81,2.81,0,0,1,.84-2.24,2.55,2.55,0,0,1,1.71-.6,2.46,2.46,0,0,1,1.84.73,2.83,2.83,0,0,1,.71,2,3.59,3.59,0,0,1-.31,1.65,2.23,2.23,0,0,1-.92.93,2.6,2.6,0,0,1-1.32.34,2.43,2.43,0,0,1-1.84-.74A2.91,2.91,0,0,1,54.77,113.41Zm.95,0a2.3,2.3,0,0,0,.46,1.57,1.43,1.43,0,0,0,1.14.52,1.5,1.5,0,0,0,1.15-.52,2.41,2.41,0,0,0,.45-1.6,2.24,2.24,0,0,0-.46-1.53,1.51,1.51,0,0,0-2.28,0A2.25,2.25,0,0,0,55.72,113.41Z" transform="translate(-18.27 -1.17)"/><path class="cls-7" d="M61,116.13v-5.44h.83v.77a2,2,0,0,1,1.74-.89,2.37,2.37,0,0,1,.9.17,1.46,1.46,0,0,1,.62.47,1.82,1.82,0,0,1,.29.68,5.83,5.83,0,0,1,0,.9v3.34h-.92v-3.31a2.54,2.54,0,0,0-.11-.84.88.88,0,0,0-.38-.45,1.25,1.25,0,0,0-.65-.16,1.51,1.51,0,0,0-1,.37,1.87,1.87,0,0,0-.42,1.42v3Z" transform="translate(-18.27 -1.17)"/><path class="cls-7" d="M66.79,116.13v-5.44h.83v.77a2,2,0,0,1,1.74-.89,2.37,2.37,0,0,1,.9.17,1.46,1.46,0,0,1,.62.47,1.82,1.82,0,0,1,.29.68,5.83,5.83,0,0,1,0,.9v3.34H70.3v-3.31a2.54,2.54,0,0,0-.11-.84.88.88,0,0,0-.38-.45,1.25,1.25,0,0,0-.65-.16,1.51,1.51,0,0,0-1,.37,1.87,1.87,0,0,0-.42,1.42v3Z" transform="translate(-18.27 -1.17)"/><path class="cls-7" d="M76.36,114.38l1,.12a2.31,2.31,0,0,1-.83,1.3,2.58,2.58,0,0,1-1.56.46,2.47,2.47,0,0,1-1.89-.74,2.86,2.86,0,0,1-.7-2.06,3,3,0,0,1,.7-2.13,2.39,2.39,0,0,1,1.84-.76,2.3,2.3,0,0,1,1.78.74,3,3,0,0,1,.7,2.09c0,.06,0,.14,0,.25H73.28a2,2,0,0,0,.51,1.37,1.5,1.5,0,0,0,1.14.48,1.4,1.4,0,0,0,.86-.27A1.77,1.77,0,0,0,76.36,114.38Zm-3-1.49h3a1.84,1.84,0,0,0-.35-1,1.38,1.38,0,0,0-1.14-.53,1.49,1.49,0,0,0-1.07.42A1.68,1.68,0,0,0,73.33,112.89Z" transform="translate(-18.27 -1.17)"/><path class="cls-7" d="M82,114.14l.9.12a2.38,2.38,0,0,1-.76,1.47,2.24,2.24,0,0,1-1.5.53,2.36,2.36,0,0,1-1.8-.73,3,3,0,0,1-.68-2.1,3.85,3.85,0,0,1,.29-1.54,2.1,2.1,0,0,1,.89-1,2.64,2.64,0,0,1,1.3-.33,2.24,2.24,0,0,1,1.45.45,2,2,0,0,1,.73,1.27l-.9.14a1.58,1.58,0,0,0-.45-.83,1.2,1.2,0,0,0-.79-.27,1.4,1.4,0,0,0-1.13.5,2.37,2.37,0,0,0-.44,1.58,2.44,2.44,0,0,0,.42,1.59,1.38,1.38,0,0,0,1.1.5,1.28,1.28,0,0,0,.9-.33A1.68,1.68,0,0,0,82,114.14Z" transform="translate(-18.27 -1.17)"/><path class="cls-7" d="M85.74,115.31l.13.82a3.76,3.76,0,0,1-.7.08,1.61,1.61,0,0,1-.77-.16.87.87,0,0,1-.39-.42,3.12,3.12,0,0,1-.12-1.09v-3.13h-.67v-.72h.67v-1.35l.92-.55v1.9h.93v.72h-.93v3.18a1.73,1.73,0,0,0,0,.51.39.39,0,0,0,.16.18.65.65,0,0,0,.31.07A4,4,0,0,0,85.74,115.31Z" transform="translate(-18.27 -1.17)"/><path class="cls-7" d="M86.65,109.68v-1.06h.92v1.06Zm0,6.45v-5.44h.92v5.44Z" transform="translate(-18.27 -1.17)"/><path class="cls-7" d="M89,116.13v-5.44h.83v.77a2,2,0,0,1,1.74-.89,2.37,2.37,0,0,1,.9.17,1.46,1.46,0,0,1,.62.47,1.82,1.82,0,0,1,.29.68,5.83,5.83,0,0,1,.05.9v3.34h-.92v-3.31a2.54,2.54,0,0,0-.11-.84.88.88,0,0,0-.38-.45,1.25,1.25,0,0,0-.65-.16,1.51,1.51,0,0,0-1,.37,1.87,1.87,0,0,0-.42,1.42v3Z" transform="translate(-18.27 -1.17)"/><path class="cls-7" d="M94.64,116.59l.9.13a.83.83,0,0,0,.31.6,1.5,1.5,0,0,0,.94.26,1.58,1.58,0,0,0,1-.26,1.26,1.26,0,0,0,.47-.71,6,6,0,0,0,.07-1.19,1.88,1.88,0,0,1-1.51.71,2,2,0,0,1-1.74-.81,3.08,3.08,0,0,1-.61-1.94,3.59,3.59,0,0,1,.28-1.44,2.17,2.17,0,0,1,2.08-1.37,2,2,0,0,1,1.59.78v-.66h.85v4.71a4.54,4.54,0,0,1-.26,1.8,2,2,0,0,1-.82.84,2.93,2.93,0,0,1-1.38.3,2.64,2.64,0,0,1-1.58-.43A1.51,1.51,0,0,1,94.64,116.59Zm.77-3.28a2.4,2.4,0,0,0,.42,1.57,1.36,1.36,0,0,0,1.07.49,1.37,1.37,0,0,0,1.07-.49,2.33,2.33,0,0,0,.43-1.53,2.21,2.21,0,0,0-.45-1.51,1.36,1.36,0,0,0-1.07-.51,1.34,1.34,0,0,0-1,.5A2.2,2.2,0,0,0,95.41,113.31Z" transform="translate(-18.27 -1.17)"/><path class="cls-7" d="M105.41,116.13v-6.62h-2.48v-.89h6v.89h-2.48v6.62Z" transform="translate(-18.27 -1.17)"/><path class="cls-7" d="M109.79,116.13v-7.51h.93v2.7a2.05,2.05,0,0,1,1.63-.75,2.2,2.2,0,0,1,1.05.24,1.35,1.35,0,0,1,.64.65,3,3,0,0,1,.19,1.22v3.45h-.92v-3.45a1.41,1.41,0,0,0-.3-1,1.13,1.13,0,0,0-.85-.32,1.49,1.49,0,0,0-.77.21,1.26,1.26,0,0,0-.52.58,2.72,2.72,0,0,0-.15,1v3Z" transform="translate(-18.27 -1.17)"/><path class="cls-7" d="M119.36,114.38l1,.12a2.32,2.32,0,0,1-.84,1.3,2.58,2.58,0,0,1-1.56.46,2.47,2.47,0,0,1-1.89-.74,2.86,2.86,0,0,1-.7-2.06,3,3,0,0,1,.7-2.13,2.41,2.41,0,0,1,1.84-.76,2.3,2.3,0,0,1,1.78.74,2.92,2.92,0,0,1,.7,2.09c0,.06,0,.14,0,.25h-4.06a2,2,0,0,0,.51,1.37,1.5,1.5,0,0,0,1.14.48,1.4,1.4,0,0,0,.86-.27A1.77,1.77,0,0,0,119.36,114.38Zm-3-1.49h3a1.84,1.84,0,0,0-.35-1,1.38,1.38,0,0,0-1.14-.53,1.49,1.49,0,0,0-1.07.42A1.68,1.68,0,0,0,116.33,112.89Z" transform="translate(-18.27 -1.17)"/><path class="cls-7" d="M129.44,108.62h1V113a5.12,5.12,0,0,1-.26,1.8,2.11,2.11,0,0,1-.93,1.08,3.24,3.24,0,0,1-1.75.42,3.64,3.64,0,0,1-1.73-.36,2.08,2.08,0,0,1-1-1.05,5.06,5.06,0,0,1-.29-1.89v-4.34h1V113a4.26,4.26,0,0,0,.18,1.44,1.33,1.33,0,0,0,.63.71,2.11,2.11,0,0,0,1.08.26,2.07,2.07,0,0,0,1.56-.5,2.81,2.81,0,0,0,.47-1.91Z" transform="translate(-18.27 -1.17)"/><path class="cls-7" d="M132,116.13v-5.44h.83v.77a2,2,0,0,1,1.74-.89,2.37,2.37,0,0,1,.9.17,1.46,1.46,0,0,1,.62.47,1.82,1.82,0,0,1,.29.68,5.83,5.83,0,0,1,.05.9v3.34h-.92v-3.31a2.54,2.54,0,0,0-.11-.84.88.88,0,0,0-.38-.45,1.25,1.25,0,0,0-.65-.16,1.47,1.47,0,0,0-1,.37,1.82,1.82,0,0,0-.43,1.42v3Z" transform="translate(-18.27 -1.17)"/><path class="cls-7" d="M141.37,114.14l.9.12a2.33,2.33,0,0,1-.76,1.47,2.24,2.24,0,0,1-1.5.53,2.36,2.36,0,0,1-1.8-.73,3,3,0,0,1-.68-2.1,3.85,3.85,0,0,1,.29-1.54,2.1,2.1,0,0,1,.89-1,2.64,2.64,0,0,1,1.3-.33,2.24,2.24,0,0,1,1.45.45,2,2,0,0,1,.73,1.27l-.9.14a1.51,1.51,0,0,0-.45-.83,1.2,1.2,0,0,0-.79-.27,1.4,1.4,0,0,0-1.13.5,2.37,2.37,0,0,0-.44,1.58,2.44,2.44,0,0,0,.42,1.59,1.38,1.38,0,0,0,1.1.5,1.32,1.32,0,0,0,.91-.33A1.74,1.74,0,0,0,141.37,114.14Z" transform="translate(-18.27 -1.17)"/><path class="cls-7" d="M142.72,113.41a2.81,2.81,0,0,1,.84-2.24,2.55,2.55,0,0,1,1.71-.6,2.46,2.46,0,0,1,1.84.73,2.83,2.83,0,0,1,.71,2,3.59,3.59,0,0,1-.31,1.65,2.23,2.23,0,0,1-.92.93,2.6,2.6,0,0,1-1.32.34,2.43,2.43,0,0,1-1.84-.74A2.91,2.91,0,0,1,142.72,113.41Zm.95,0a2.3,2.3,0,0,0,.46,1.57,1.43,1.43,0,0,0,1.14.52,1.5,1.5,0,0,0,1.15-.52,2.41,2.41,0,0,0,.45-1.6,2.29,2.29,0,0,0-.45-1.53,1.47,1.47,0,0,0-1.15-.52,1.43,1.43,0,0,0-1.14.52A2.25,2.25,0,0,0,143.67,113.41Z" transform="translate(-18.27 -1.17)"/><path class="cls-7" d="M148.9,116.13v-5.44h.83v.77a2,2,0,0,1,1.74-.89,2.37,2.37,0,0,1,.9.17,1.46,1.46,0,0,1,.62.47,1.82,1.82,0,0,1,.29.68,5.83,5.83,0,0,1,.05.9v3.34h-.92v-3.31a2.54,2.54,0,0,0-.11-.84.88.88,0,0,0-.38-.45,1.25,1.25,0,0,0-.65-.16,1.51,1.51,0,0,0-1,.37,1.87,1.87,0,0,0-.42,1.42v3Z" transform="translate(-18.27 -1.17)"/><path class="cls-7" d="M154.74,116.13v-5.44h.83v.77a2,2,0,0,1,1.74-.89,2.37,2.37,0,0,1,.9.17,1.46,1.46,0,0,1,.62.47,1.82,1.82,0,0,1,.29.68,5.83,5.83,0,0,1,0,.9v3.34h-.92v-3.31a2.54,2.54,0,0,0-.11-.84.88.88,0,0,0-.38-.45,1.25,1.25,0,0,0-.65-.16,1.51,1.51,0,0,0-1,.37,1.87,1.87,0,0,0-.42,1.42v3Z" transform="translate(-18.27 -1.17)"/><path class="cls-7" d="M164.31,114.38l.95.12a2.31,2.31,0,0,1-.83,1.3,2.58,2.58,0,0,1-1.56.46,2.47,2.47,0,0,1-1.89-.74,2.86,2.86,0,0,1-.7-2.06,3,3,0,0,1,.7-2.13,2.41,2.41,0,0,1,1.84-.76,2.3,2.3,0,0,1,1.78.74,3,3,0,0,1,.7,2.09c0,.06,0,.14,0,.25h-4.06a2,2,0,0,0,.51,1.37,1.5,1.5,0,0,0,1.14.48,1.4,1.4,0,0,0,.86-.27A1.77,1.77,0,0,0,164.31,114.38Zm-3-1.49h3a1.84,1.84,0,0,0-.35-1,1.38,1.38,0,0,0-1.14-.53,1.49,1.49,0,0,0-1.07.42A1.68,1.68,0,0,0,161.28,112.89Z" transform="translate(-18.27 -1.17)"/><path class="cls-7" d="M170,114.14l.9.12a2.33,2.33,0,0,1-.76,1.47,2.24,2.24,0,0,1-1.5.53,2.36,2.36,0,0,1-1.8-.73,3,3,0,0,1-.68-2.1,3.85,3.85,0,0,1,.29-1.54,2.05,2.05,0,0,1,.89-1,2.64,2.64,0,0,1,1.3-.33,2.24,2.24,0,0,1,1.45.45,2,2,0,0,1,.73,1.27l-.9.14a1.58,1.58,0,0,0-.45-.83,1.2,1.2,0,0,0-.79-.27,1.4,1.4,0,0,0-1.13.5,2.37,2.37,0,0,0-.44,1.58,2.44,2.44,0,0,0,.42,1.59,1.38,1.38,0,0,0,1.1.5,1.28,1.28,0,0,0,.9-.33A1.68,1.68,0,0,0,170,114.14Z" transform="translate(-18.27 -1.17)"/><path class="cls-7" d="M173.69,115.31l.13.82a3.76,3.76,0,0,1-.7.08,1.68,1.68,0,0,1-.78-.16.9.9,0,0,1-.38-.42,3.12,3.12,0,0,1-.12-1.09v-3.13h-.67v-.72h.67v-1.35l.92-.55v1.9h.93v.72h-.93v3.18a1.73,1.73,0,0,0,.05.51.39.39,0,0,0,.16.18.65.65,0,0,0,.31.07A4,4,0,0,0,173.69,115.31Z" transform="translate(-18.27 -1.17)"/><path class="cls-7" d="M178.32,114.38l1,.12a2.36,2.36,0,0,1-.83,1.3,2.58,2.58,0,0,1-1.56.46,2.51,2.51,0,0,1-1.9-.74,2.9,2.9,0,0,1-.7-2.06,3,3,0,0,1,.71-2.13,2.38,2.38,0,0,1,1.84-.76,2.31,2.31,0,0,1,1.78.74,3,3,0,0,1,.69,2.09v.25h-4.06a2.08,2.08,0,0,0,.5,1.37,1.53,1.53,0,0,0,1.14.48,1.41,1.41,0,0,0,.87-.27A1.77,1.77,0,0,0,178.32,114.38Zm-3-1.49h3a1.84,1.84,0,0,0-.35-1,1.4,1.4,0,0,0-1.14-.53,1.47,1.47,0,0,0-1.07.42A1.68,1.68,0,0,0,175.29,112.89Z" transform="translate(-18.27 -1.17)"/><path class="cls-7" d="M184,116.13v-.68a1.68,1.68,0,0,1-1.52.81,2.16,2.16,0,0,1-1.2-.36,2.37,2.37,0,0,1-.84-1,3.49,3.49,0,0,1-.3-1.48,3.86,3.86,0,0,1,.27-1.48,2.11,2.11,0,0,1,2-1.37,1.93,1.93,0,0,1,.88.2,1.83,1.83,0,0,1,.62.55v-2.7h.92v7.51Zm-2.91-2.71a2.31,2.31,0,0,0,.44,1.56,1.31,1.31,0,0,0,1,.52,1.33,1.33,0,0,0,1-.5,2.29,2.29,0,0,0,.42-1.51,2.62,2.62,0,0,0-.43-1.64,1.32,1.32,0,0,0-1.06-.52,1.29,1.29,0,0,0-1,.5A2.48,2.48,0,0,0,181.05,113.42Z" transform="translate(-18.27 -1.17)"/></svg>