<?xml version="1.0" encoding="utf-8"?>
<!-- Generator: Adobe Illustrator 26.0.1, SVG Export Plug-In . SVG Version: 6.00 Build 0)  -->
<svg version="1.1" id="Layer_1" xmlns="http://www.w3.org/2000/svg" xmlns:xlink="http://www.w3.org/1999/xlink" x="0px" y="0px"
	 viewBox="0 0 300 300" style="enable-background:new 0 0 300 300;" xml:space="preserve">
<style type="text/css">
	.st0{fill:#FF6C00;}
	.st1{fill:#1172BF;}
</style>
<g>
	<path class="st0" d="M241.35,239c-4.94,3.82-9.07,7.89-13.95,10.63c-23.4,13.12-54.63,4.61-71.89-19.25
		c-20.02-27.67-19.51-72.18,1.12-99.52c17.84-23.63,51.38-30.69,77.43-16.31c2.3,1.27,4.6,2.54,8.11,4.48
		c0.21-4.02,0.48-6.87,0.49-9.72c0.04-15.63-0.1-31.25,0.06-46.88c0.13-12.39,6.13-18.24,18.19-18.23
		c12,0.02,18.56,5.98,18.59,18.03c0.15,57.02,0.13,114.04,0.02,171.06c-0.02,11.44-5.51,18.52-15.1,20.64
		C254.92,256.03,247.76,251.51,241.35,239z M242.5,179.79c-0.5-3.28-0.86-8.21-2.03-12.94c-3.61-14.54-15.28-25.1-28.22-25.96
		c-13.52-0.89-24.42,6.64-30.43,21.56c-6.84,16.97-5.17,33.23,5.54,48.15c10.55,14.69,31.74,15.82,43.47,2.49
		C238.76,204.08,241.75,193.17,242.5,179.79z"/>
	<path class="st1" d="M122.9,134.56c0,21.65,0.19,43.3-0.11,64.95c-0.1,7.06-0.86,14.24-2.43,21.12
		c-6.43,28.1-30.4,37.07-56.41,34.54c-11.32-1.1-22.72-5.7-33.03-10.83c-4.72-2.35-8.3-9.4-9.92-15.03
		c-3.23-11.21,7.12-20.9,18.4-17.74c6.27,1.75,12.09,5.08,18.26,7.27c16.76,5.95,28.48-2.05,28.57-19.92
		c0.22-40.01,0.08-80.02,0.08-120.04c0-6.03-0.23-12.07,0.07-18.09c0.51-10.27,5.52-15.53,14.9-16.17
		c12.4-0.85,19.09,3.02,20.63,13.58c1.22,8.33,0.88,16.91,0.94,25.38C122.99,100.57,122.9,117.57,122.9,134.56z"/>
</g>
</svg>
