<?xml version="1.0" encoding="utf-8"?>
<!-- Generator: Adobe Illustrator 26.0.1, SVG Export Plug-In . SVG Version: 6.00 Build 0)  -->
<svg version="1.1" id="Layer_1" xmlns="http://www.w3.org/2000/svg" xmlns:xlink="http://www.w3.org/1999/xlink" x="0px" y="0px"
	 viewBox="0 0 612 612" style="enable-background:new 0 0 612 612;" xml:space="preserve">
<g>
	<path d="M395.34,524.5c-29.41-0.85-56.69-9.31-82.91-21.7c-40.77-19.26-75.99-46.3-108.07-77.7c-23.6-23.1-46.23-47.03-65.15-74.24
		c-20.08-28.89-36.71-59.46-45.66-93.75c-6.03-23.13-7.98-46.49-2.16-69.97c7.48-30.2,26.12-51.97,52.35-67.69
		c2.37-1.42,5.63-2.03,8.43-1.91c9.94,0.42,19.88,1.11,29.78,2.11c7.03,0.71,11.24,5.04,13.41,11.74
		c7.9,24.3,15.97,48.55,23.92,72.83c2.08,6.35,4.09,12.72,5.88,19.15c1.84,6.63,0.71,12.86-3.68,18.23
		c-4.16,5.08-8.51,10-12.8,14.98c-4.06,4.71-8.12,9.42-12.21,14.11c-6.1,6.98-6.51,14.25-1.9,22.3
		c10.46,18.26,22.11,35.67,35.01,52.3c20.03,25.84,45.68,45.01,72.98,62.26c5.15,3.26,10.54,6.14,15.69,9.4
		c8.51,5.39,16.33,4.6,23.76-2.08c5.76-5.18,11.61-10.26,17.45-15.34c3.45-3,6.93-5.98,10.48-8.86c5.6-4.53,12.01-5.92,18.86-3.83
		c12.66,3.86,25.25,7.96,37.84,12.05c17.28,5.61,34.46,11.52,51.81,16.86c8.67,2.67,13.39,7.79,14.4,16.87
		c1.15,10.39,2.56,20.74,1.1,31.2c-0.22,1.58-0.72,3.26-1.55,4.61c-17.04,27.96-40.57,47.11-73.38,53.26
		C411.24,523.17,403.25,523.6,395.34,524.5z"/>
	<path d="M295.38,88.46c76.63,4.52,138.31,37.16,183.77,99.16c28.68,39.12,43.14,83.41,44.5,131.92c0.04,1.29,0.06,2.58,0,3.87
		c-0.44,9.01-4.78,13.79-12.56,13.83c-8.12,0.05-14.53-5.93-15.2-14.05c-0.82-9.93-1.06-19.96-2.67-29.76
		c-9.87-59.84-40.2-106.95-89.94-141.33c-33.67-23.27-71.39-34.81-112.28-36.02c-10.09-0.3-16.51-6.38-16.37-15.43
		c0.11-6.71,4.21-11.3,11.28-12.13C289.01,88.16,292.21,88.46,295.38,88.46z"/>
	<path d="M465.59,316.19c0,2.46,0.1,4.93-0.02,7.38c-0.31,6.26-3.53,10.85-8.61,12.47c-5.64,1.79-12.48,0.02-15.73-4.95
		c-1.9-2.9-3.38-6.61-3.55-10.03c-2.56-54.18-26.8-95.83-72.4-124.85c-22.44-14.28-47.36-21.15-73.96-21.85
		c-11.1-0.29-17.48-8.36-15.17-19.12c1.09-5.07,4.47-8.11,9.24-8.25c8.4-0.23,16.96-0.41,25.21,0.91
		c68.94,10.97,116.73,49.01,143.34,113.46C461.16,278.84,464.56,297.29,465.59,316.19z"/>
	<path d="M293.52,204.75c55.62,1.38,104.54,44.97,112.39,100.12c0.74,5.21,1.22,10.5,1.35,15.76c0.23,9.77-4.35,15.23-12.47,15.41
		c-8.43,0.19-15.26-6.48-15.49-15.37c-0.56-21.61-7.89-40.65-22.09-56.85c-17.16-19.59-38.89-30.07-65.01-31.2
		c-10.93-0.47-17.28-7.74-15.71-17.91c0.92-5.98,4.52-9.17,11.41-9.94C289.75,204.57,291.64,204.75,293.52,204.75z"/>
</g>
</svg>
