<svg version="1.2" xmlns="http://www.w3.org/2000/svg" viewBox="0 0 18 18" width="18" height="18">
	<title>clock</title>
	<style>
		.s0 { fill: #ffffff } 
		.s1 { fill: #ff9d00 } 
	</style>
	<g id="Layer 1">
		<path class="s0" d="m9 0c-5 0-9 4-9 9 0 5 4 9 9 9 5 0 9-4 9-9 0-5-4-9-9-9zm0 16.8c-4.3 0-7.8-3.5-7.8-7.8 0-4.3 3.5-7.8 7.8-7.8 4.3 0 7.8 3.5 7.8 7.8 0 4.3-3.5 7.8-7.8 7.8z"/>
		<path class="s1" d="m13.5 8.3h-3.9v-5.1c0-0.3-0.3-0.6-0.6-0.6-0.3 0-0.6 0.3-0.6 0.6v6.3h2.5 2.6c0.3 0 0.6-0.2 0.6-0.6 0-0.3-0.3-0.6-0.6-0.6z"/>
	</g>
</svg>