<svg width="33" height="45" viewBox="0 0 33 45" fill="none" xmlns="http://www.w3.org/2000/svg">
<g id="Object" clip-path="url(#clip0_28_976)">
<g id="Group">
<g id="Group_2">
<g id="Group_3">
<path id="Vector" d="M29.8827 42.2279L25.064 40.1264L22.7775 44.8349L14.5399 22.6824L21.6456 20.0754L29.8827 42.2279Z" fill="url(#paint0_linear_28_976)"/>
<path id="Vector_2" d="M3.11731 42.2279L7.93601 40.1264L10.2225 44.8349L18.4596 22.6824L11.3544 20.0754L3.11731 42.2279Z" fill="url(#paint1_linear_28_976)"/>
</g>
<g id="Group_4">
<path id="Vector_3" d="M29.9669 42.085C28.3607 41.3843 26.7545 40.6841 25.1482 39.9835C25.0711 39.9496 24.9627 39.9553 24.9201 40.0427C24.1579 41.6124 23.3957 43.1816 22.6336 44.7512C22.7349 44.7644 22.8366 44.7776 22.938 44.7907C22.0129 42.3036 21.0884 39.8165 20.1634 37.3294C18.6816 33.3446 17.1999 29.3594 15.7182 25.3746C15.3792 24.4623 15.0398 23.5505 14.7009 22.6382C14.662 22.706 14.6232 22.7741 14.5844 22.8419C16.9528 21.9728 19.3212 21.1038 21.6896 20.2348C21.6214 20.1963 21.5528 20.1577 21.4846 20.1192C22.4096 22.6063 23.3342 25.0934 24.2592 27.5805C25.7409 31.5653 27.2227 35.5505 28.7044 39.5353C29.0433 40.4476 29.3828 41.3594 29.7217 42.2717C29.7956 42.4696 30.1175 42.384 30.0432 42.1837C29.1181 39.6966 28.1936 37.2095 27.2686 34.7224C25.7869 30.7376 24.3051 26.7524 22.8234 22.7676C22.4844 21.8553 22.145 20.9435 21.8061 20.0312C21.7767 19.9527 21.6915 19.8826 21.6011 19.9156C19.2327 20.7846 16.8643 21.6536 14.4959 22.5226C14.4168 22.5517 14.3463 22.6364 14.3794 22.7262C15.3044 25.2133 16.229 27.7004 17.154 30.1875C18.6357 34.1723 20.1175 38.1575 21.5992 42.1423C21.9381 43.0546 22.2776 43.9664 22.6165 44.8787C22.6615 44.9995 22.8532 45.0578 22.9209 44.9182C23.6831 43.3485 24.4452 41.7793 25.2074 40.2097C25.1312 40.2294 25.0555 40.2492 24.9792 40.2689C26.5855 40.9696 28.1917 41.6698 29.7979 42.3704C29.9925 42.4551 30.1625 42.1701 29.966 42.0845L29.9669 42.085Z" fill="url(#paint2_linear_28_976)"/>
<path id="Vector_4" d="M3.2011 42.371C4.80734 41.6703 6.41357 40.9701 8.01981 40.2695C7.94359 40.2497 7.86785 40.23 7.79163 40.2102C8.5538 41.7799 9.31597 43.3491 10.0781 44.9187C10.1463 45.0589 10.3376 45.0006 10.3825 44.8792C11.3075 42.3921 12.2321 39.9051 13.1571 37.418C14.6388 33.4331 16.1206 29.4479 17.6023 25.4631C17.9412 24.5508 18.2807 23.639 18.6196 22.7267C18.6528 22.6379 18.5818 22.5518 18.5032 22.5231C16.1348 21.6541 13.7664 20.7851 11.398 19.9161C11.3085 19.8832 11.2219 19.9537 11.193 20.0318C10.268 22.5189 9.34342 25.006 8.41841 27.4931C6.93668 31.4779 5.45494 35.4632 3.97321 39.448C3.63426 40.3602 3.29484 41.272 2.95588 42.1843C2.88156 42.3846 3.20347 42.4707 3.27732 42.2722C4.20234 39.7851 5.12688 37.298 6.0519 34.811C7.53363 30.8261 9.01536 26.8409 10.4971 22.8561C10.836 21.9438 11.1755 21.032 11.5144 20.1197C11.4462 20.1583 11.3776 20.1969 11.3094 20.2354C13.6778 21.1044 16.0462 21.9734 18.4146 22.8424C18.3758 22.7747 18.337 22.7065 18.2982 22.6388C17.3732 25.1259 16.4486 27.613 15.5236 30.1001C14.0419 34.0849 12.5602 38.0702 11.0784 42.055C10.7395 42.9672 10.4 43.879 10.0611 44.7913C10.1624 44.7781 10.2642 44.765 10.3655 44.7518C9.60332 43.1821 8.84115 41.613 8.07898 40.0433C8.03685 39.9563 7.92797 39.9502 7.8508 39.9841C6.24457 40.6847 4.63834 41.3849 3.0321 42.0855C2.83611 42.1711 3.00559 42.4561 3.20016 42.3715L3.2011 42.371Z" fill="url(#paint3_linear_28_976)"/>
</g>
</g>
<g id="Group_5">
<path id="Vector_5" d="M16.4998 29.9542C24.0407 29.9542 30.1539 23.8818 30.1539 16.3911C30.1539 8.90041 24.0407 2.828 16.4998 2.828C8.95876 2.828 2.84558 8.90041 2.84558 16.3911C2.84558 23.8818 8.95876 29.9542 16.4998 29.9542Z" fill="#1B2233"/>
<path id="Vector_6" d="M32.7936 19.3165C32.7297 18.9017 32.5867 18.4964 32.3694 18.1352C32.1214 17.7219 31.7853 17.4096 31.6527 16.9295C31.5277 16.4781 31.5637 15.9886 31.7569 15.5602C31.9467 15.1389 32.2999 14.8219 32.501 14.4048C33.3536 12.6362 32.4864 10.5917 30.7097 9.83268C29.8884 9.48141 29.2843 8.82308 29.2862 7.88919C29.2872 7.4829 29.3894 7.09401 29.353 6.68396C29.3085 6.19068 29.1603 5.70869 28.908 5.28077C28.4327 4.47478 27.5976 3.86206 26.6702 3.68525C25.775 3.51455 24.8808 3.90062 24.0452 3.42426C23.2002 2.94274 23.0994 1.96699 22.4901 1.28138C21.9003 0.616937 21.0392 0.22899 20.1549 0.172091C19.28 0.115662 18.4341 0.433544 17.7675 0.985604C16.9003 1.65993 15.8711 1.45725 15.0554 0.843122C14.2994 0.274133 13.3422 0.0597037 12.4106 0.226168C11.5286 0.383698 10.7508 0.903313 10.2415 1.6303C10.0133 1.95618 9.91009 2.33472 9.71505 2.67564C9.4793 3.08757 9.0968 3.40687 8.64944 3.57098C8.2693 3.71064 7.89768 3.70171 7.50334 3.65656C6.9916 3.59778 6.48317 3.61048 5.98847 3.77271C5.08381 4.06943 4.33301 4.72965 3.94103 5.59301C3.7441 6.02704 3.63569 6.49916 3.63853 6.97692C3.64137 7.43117 3.77298 7.85251 3.67688 8.30723C3.58788 8.72762 3.36349 9.1104 3.04395 9.39912C2.70263 9.70713 2.27184 9.80729 1.87892 10.025C0.236706 10.9359 -0.324742 13.1309 0.674598 14.7114C0.921711 15.1022 1.22563 15.3961 1.35345 15.8569C1.49405 16.3648 1.4273 16.9103 1.17308 17.3716C0.977098 17.728 0.681699 18.0106 0.505122 18.3816C0.299668 18.8143 0.181792 19.2779 0.16759 19.7566C0.141554 20.6364 0.490447 21.5125 1.09403 22.1529C1.71228 22.8089 2.68322 22.9157 3.2513 23.5994C3.92825 24.4139 3.56232 25.241 3.66268 26.174C3.76635 27.1365 4.28803 28.0018 5.08145 28.5623C5.87202 29.1205 6.72319 29.1957 7.65672 29.1068C8.6163 29.0156 9.45137 29.492 9.84382 30.369C10.214 31.1961 10.7092 31.8822 11.5575 32.2805C12.3874 32.6698 13.3526 32.7329 14.2147 32.4051C15.1075 32.0661 15.694 31.2502 16.744 31.38C17.6714 31.4942 18.2707 32.3167 19.1811 32.5274C20.0441 32.7267 20.9843 32.5894 21.7412 32.1253C22.1289 31.8878 22.4584 31.577 22.7235 31.2102C22.9867 30.8463 23.0947 30.4198 23.3314 30.045C23.8791 29.1779 24.7426 29.0603 25.6799 29.1525C26.6295 29.2456 27.5706 28.9159 28.276 28.283C28.9676 27.6627 29.3724 26.7326 29.3672 25.8086C29.3648 25.3821 29.2384 24.98 29.3146 24.5512C29.3989 24.0781 29.6479 23.6469 30.0186 23.3375C30.3495 23.0605 30.7561 22.9665 31.1273 22.7605C31.5472 22.5277 31.9074 22.1981 32.1905 21.8139C32.7188 21.0973 32.929 20.1906 32.7941 19.3155L32.7936 19.3165ZM16.4998 29.9542C8.95904 29.9542 2.84559 23.882 2.84559 16.3911C2.84559 8.9002 8.95904 2.828 16.4998 2.828C24.0405 2.828 30.1539 8.9002 30.1539 16.3911C30.1539 23.882 24.041 29.9542 16.4998 29.9542Z" fill="url(#paint4_linear_28_976)"/>
<path id="Vector_7" d="M16.4997 28.6366C9.70225 28.6366 4.17203 23.1433 4.17203 16.3911C4.17203 9.63896 9.70272 4.14563 16.4997 4.14563C23.2968 4.14563 28.8275 9.63896 28.8275 16.3911C28.8275 23.1433 23.2972 28.6366 16.4997 28.6366ZM16.4997 4.47668C9.88592 4.47668 4.5053 9.82142 4.5053 16.3911C4.5053 22.9608 9.88592 28.3056 16.4997 28.3056C23.1136 28.3056 28.4942 22.9608 28.4942 16.3911C28.4942 9.82142 23.1136 4.47668 16.4997 4.47668Z" fill="url(#paint5_linear_28_976)"/>
<path id="Vector_8" d="M19.9674 32.7822C19.6919 32.7822 19.4154 32.7511 19.1437 32.6886C18.6878 32.5833 18.3119 32.3383 17.9483 32.1017C17.5521 31.844 17.1777 31.6005 16.7237 31.544C16.1026 31.4683 15.6486 31.7608 15.1671 32.0712C14.8907 32.2494 14.6047 32.4337 14.2748 32.5593C13.3928 32.8941 12.3769 32.8471 11.487 32.4295C10.6969 32.0589 10.1435 31.4439 9.69183 30.4357C9.33253 29.633 8.559 29.1872 7.6728 29.2709C6.85619 29.3485 5.89851 29.341 4.98533 28.6963C4.14789 28.1052 3.60537 27.192 3.49744 26.1908C3.46478 25.8871 3.47898 25.5993 3.49271 25.3204C3.52206 24.727 3.54762 24.2149 3.12298 23.7037C2.85125 23.3769 2.4749 23.1902 2.07583 22.9923C1.69001 22.8009 1.29094 22.6029 0.972343 22.2648C0.328524 21.582 -0.0255771 20.666 0.00140654 19.7519C0.0160818 19.2581 0.134904 18.7733 0.355034 18.3106C0.458234 18.0933 0.596939 17.908 0.731384 17.7284C0.840739 17.5822 0.943939 17.4439 1.02773 17.292C1.26064 16.8688 1.32124 16.3614 1.19342 15.9006C1.11199 15.6067 0.946779 15.3805 0.771623 15.1407C0.693039 15.0325 0.611141 14.9211 0.534451 14.7993C0.0331241 14.0065 -0.115522 13.0129 0.126857 12.0733C0.368289 11.1352 0.978024 10.3358 1.79889 9.88059C1.94423 9.80018 2.09335 9.73529 2.23678 9.67274C2.49147 9.56224 2.73196 9.45785 2.93268 9.2768C3.22713 9.01112 3.43401 8.65468 3.51448 8.27378C3.57034 8.01092 3.54147 7.75417 3.5107 7.48237C3.49223 7.32014 3.47377 7.15273 3.47282 6.97827C3.46998 6.49064 3.57981 5.98842 3.79 5.52524C4.19901 4.62473 4.98154 3.92924 5.93685 3.61607C6.4022 3.46371 6.92104 3.42327 7.5232 3.49239C7.86358 3.53189 8.22904 3.54976 8.59213 3.41621C9.00683 3.26386 9.3543 2.97184 9.57064 2.59424C9.64875 2.4574 9.71124 2.31491 9.77752 2.16397C9.86936 1.95424 9.96404 1.73746 10.1051 1.5362C10.6476 0.761714 11.4775 0.225171 12.3817 0.0634087C13.3644 -0.112461 14.3766 0.123599 15.1567 0.711398C16.3923 1.64153 17.323 1.12145 17.6657 0.855291C18.3929 0.251975 19.2819 -0.049919 20.1662 0.00650974C21.1201 0.0676408 22.0129 0.492267 22.6156 1.17129C22.8712 1.45955 23.0397 1.7906 23.2026 2.11083C23.4388 2.57543 23.6622 3.01416 24.1281 3.27984C24.5925 3.54459 25.0862 3.51779 25.6093 3.48957C25.9634 3.47029 26.3298 3.45054 26.7019 3.52202C27.6634 3.70541 28.5415 4.3313 29.0519 5.19654C29.3103 5.6348 29.4718 6.1436 29.5191 6.66886C29.5418 6.92232 29.5153 7.16449 29.4898 7.39867C29.4713 7.56701 29.4538 7.72643 29.4533 7.88913C29.4505 8.95469 30.2808 9.46866 30.776 9.68027C31.6981 10.0743 32.4258 10.8277 32.7732 11.7474C33.1112 12.6428 33.0682 13.6119 32.6516 14.4758C32.5469 14.6921 32.4073 14.8802 32.2714 15.0617C32.1318 15.2493 31.9997 15.4266 31.9093 15.6269C31.7322 16.02 31.6981 16.4668 31.8137 16.8848C31.8946 17.1768 32.0622 17.4063 32.2397 17.6499C32.3316 17.7759 32.4267 17.9062 32.5129 18.0496C32.7368 18.422 32.8906 18.8513 32.9588 19.291C33.1013 20.2169 32.8703 21.1724 32.3249 21.9121C32.0201 22.3259 31.6338 22.6692 31.2087 22.9053C31.0638 22.9857 30.9151 23.0492 30.7717 23.1108C30.5374 23.2109 30.3158 23.3059 30.126 23.4644C29.7861 23.7484 29.5565 24.1448 29.4789 24.5803C29.4363 24.8215 29.4642 25.058 29.494 25.3091C29.5129 25.47 29.5328 25.636 29.5338 25.8081C29.5395 26.7862 29.111 27.7577 28.3877 28.4066C27.635 29.0819 26.6423 29.4129 25.6633 29.3179C24.5565 29.2088 23.9013 29.4534 23.4719 30.1338C23.3711 30.2937 23.2949 30.4639 23.2139 30.644C23.1145 30.8655 23.0123 31.095 22.8584 31.3075C22.5758 31.6983 22.2293 32.0209 21.8283 32.2668C21.2744 32.6063 20.6249 32.7826 19.9669 32.7826L19.9674 32.7822ZM16.5229 31.2008C16.6011 31.2008 16.682 31.2055 16.7653 31.2158C17.296 31.2812 17.7206 31.5577 18.1315 31.8248C18.4866 32.0557 18.8218 32.2738 19.2199 32.366C20.0559 32.5593 20.9435 32.4206 21.6546 31.9846C22.0181 31.7618 22.3325 31.4688 22.5891 31.1138C22.723 30.9285 22.8144 30.7249 22.911 30.5086C22.9929 30.3261 23.0771 30.1371 23.1907 29.957C23.8312 28.9427 24.8666 28.906 25.6969 28.9873C26.5826 29.0743 27.4821 28.7724 28.1652 28.1597C28.819 27.5729 29.2067 26.694 29.2015 25.809C29.2005 25.6557 29.1825 25.5057 29.1636 25.3472C29.1323 25.0834 29.0997 24.8112 29.1513 24.522C29.2422 24.0099 29.5125 23.5443 29.912 23.2105C30.1393 23.0205 30.3939 22.9119 30.6401 22.8061C30.7821 22.7454 30.9166 22.688 31.0463 22.6156C31.4302 22.4026 31.7796 22.0918 32.056 21.716C32.5498 21.0459 32.759 20.1802 32.6293 19.3404C32.5682 18.943 32.4291 18.5551 32.2269 18.2189C32.1483 18.0881 32.0579 17.964 31.9704 17.8441C31.7829 17.5878 31.5897 17.3226 31.4927 16.9723C31.3568 16.4804 31.3966 15.9547 31.6054 15.4915C31.7105 15.2578 31.8596 15.0579 32.004 14.8642C32.136 14.6869 32.2605 14.52 32.351 14.3319C32.7283 13.5499 32.7671 12.6729 32.4613 11.8626C32.1455 11.0266 31.4832 10.3414 30.6439 9.9831C29.673 9.56835 29.1177 8.80421 29.1196 7.88725C29.1196 7.70715 29.1394 7.53128 29.1579 7.36199C29.183 7.13392 29.2067 6.91808 29.1868 6.69754C29.1442 6.22119 28.9979 5.75989 28.764 5.36347C28.3015 4.57959 27.5072 4.01248 26.639 3.84695C26.3071 3.78394 25.9615 3.80181 25.6273 3.82015C25.0791 3.8493 24.512 3.87987 23.9624 3.56669C23.4094 3.25163 23.1533 2.74753 22.9053 2.2599C22.7519 1.95847 22.5933 1.64623 22.3656 1.38995C21.8207 0.776291 21.0112 0.392106 20.1444 0.336618C19.3458 0.284891 18.5401 0.560451 17.8745 1.11204C17.03 1.76897 15.9402 1.7163 14.9551 0.974732C14.2487 0.442892 13.3318 0.229403 12.4404 0.388814C11.6223 0.535059 10.8711 1.02176 10.3783 1.72476C10.2561 1.89922 10.1719 2.09155 10.0824 2.29516C10.0156 2.44752 9.94652 2.60552 9.85942 2.75741C9.60426 3.20272 9.19524 3.54694 8.70717 3.7261C8.27827 3.88363 7.86594 3.86435 7.48439 3.82062C6.92388 3.7562 6.46516 3.79052 6.041 3.92971C5.17374 4.21374 4.46412 4.8448 4.09345 5.66066C3.90267 6.08059 3.80325 6.53531 3.80562 6.97545C3.80657 7.13204 3.82361 7.28393 3.8416 7.44475C3.87379 7.73019 3.90693 8.0255 3.84018 8.34103C3.74503 8.79011 3.50217 9.20909 3.15612 9.52133C2.91469 9.73905 2.63775 9.85943 2.36934 9.97558C2.22637 10.0377 2.09145 10.096 1.96032 10.1688C1.21851 10.5803 0.667475 11.304 0.448766 12.1547C0.22911 13.0067 0.363081 13.9063 0.815649 14.6225C0.886658 14.7349 0.964769 14.8421 1.04051 14.9455C1.22514 15.1985 1.41639 15.4604 1.51391 15.8122C1.66445 16.3553 1.59344 16.952 1.31934 17.45C1.22466 17.6221 1.10963 17.7759 0.99838 17.925C0.868196 18.0994 0.745113 18.264 0.656114 18.4512C0.455867 18.8725 0.347459 19.3126 0.334678 19.7603C0.310535 20.5879 0.631497 21.4179 1.21614 22.0382C1.49403 22.333 1.84907 22.5093 2.22542 22.6955C2.63775 22.9001 3.06381 23.1112 3.38051 23.4921C3.88752 24.102 3.85627 24.7293 3.82598 25.3359C3.81272 25.6016 3.79899 25.8767 3.82929 26.1546C3.92728 27.0612 4.41914 27.8893 5.17895 28.4254C5.83413 28.8881 6.57073 29.0419 7.64155 28.9403C8.67498 28.842 9.57727 29.3631 9.9967 30.2998C10.4133 31.2304 10.917 31.7942 11.6294 32.1285C12.4375 32.5076 13.3583 32.5513 14.156 32.2485C14.4533 32.1356 14.724 31.9611 14.9858 31.7919C15.4389 31.4994 15.9056 31.1984 16.5229 31.1984V31.2008ZM16.5002 30.1192C8.87949 30.1192 2.67941 23.9605 2.67941 16.3906C2.67941 8.82067 8.87949 2.66242 16.5002 2.66242C24.121 2.66242 30.321 8.82114 30.321 16.3911C30.321 23.961 24.121 30.1197 16.5002 30.1197V30.1192ZM16.5002 2.99347C9.06316 2.99347 3.01268 9.00359 3.01268 16.3911C3.01268 23.7785 9.06316 29.7886 16.5002 29.7886C23.9373 29.7886 29.9878 23.7785 29.9878 16.3911C29.9878 9.00359 23.9373 2.99347 16.5002 2.99347Z" fill="url(#paint6_linear_28_976)"/>
<g id="Group_6">
<g id="Group_7">
<path id="Vector_9" d="M16.7123 1.82173C16.8766 1.95904 16.8979 2.20263 16.7601 2.36627C16.6219 2.52944 16.3767 2.5506 16.2119 2.41376C16.0477 2.27646 16.0264 2.03287 16.1641 1.86923C16.3024 1.70606 16.5476 1.68489 16.7123 1.82173Z" fill="#1B2233"/>
<path id="Vector_10" d="M16.7123 30.369C16.8766 30.5063 16.8979 30.7499 16.7601 30.9135C16.6219 31.0767 16.3767 31.0979 16.2119 30.961C16.0477 30.8237 16.0264 30.5801 16.1641 30.4165C16.3019 30.2529 16.5476 30.2322 16.7123 30.369Z" fill="#1B2233"/>
<path id="Vector_11" d="M2.34285 15.7088C2.50712 15.8461 2.52842 16.0897 2.39067 16.2534C2.25291 16.417 2.00722 16.4377 1.84247 16.3008C1.6782 16.1635 1.6569 15.92 1.79466 15.7563C1.93289 15.5931 2.17811 15.572 2.34285 15.7088Z" fill="#1B2233"/>
<path id="Vector_12" d="M2.73198 13.1004C2.89625 13.2377 2.91755 13.4813 2.7798 13.645C2.64156 13.8081 2.39634 13.8293 2.2316 13.6925C2.06733 13.5551 2.04603 13.3116 2.18379 13.1479C2.32202 12.9847 2.56724 12.9636 2.73198 13.1004Z" fill="#1B2233"/>
<path id="Vector_13" d="M2.8617 19.1453C2.90762 19.3537 2.7746 19.5596 2.56488 19.6052C2.35517 19.6508 2.14782 19.5187 2.1019 19.3104C2.05598 19.1021 2.18901 18.8961 2.39872 18.8505C2.60844 18.8049 2.81578 18.937 2.8617 19.1453Z" fill="#1B2233"/>
<path id="Vector_14" d="M4.06648 22.4304C4.1124 22.6387 3.97937 22.8447 3.76966 22.8903C3.55994 22.9359 3.35259 22.8038 3.30667 22.5955C3.26075 22.3872 3.39378 22.1812 3.60349 22.1356C3.81321 22.09 4.02056 22.2221 4.06648 22.4304Z" fill="#1B2233"/>
<path id="Vector_15" d="M6.13429 25.7381C6.18021 25.9464 6.04718 26.1524 5.83747 26.198C5.62775 26.2436 5.4204 26.1115 5.37448 25.9032C5.32856 25.6948 5.46159 25.4889 5.6713 25.4433C5.88102 25.3977 6.08837 25.5298 6.13429 25.7381Z" fill="#1B2233"/>
<path id="Vector_16" d="M9.10059 28.1805C9.14651 28.3888 9.01349 28.5948 8.80377 28.6404C8.59406 28.686 8.38671 28.5539 8.34079 28.3455C8.29487 28.1372 8.4279 27.9313 8.63761 27.8857C8.84733 27.84 9.05467 27.9722 9.10059 28.1805Z" fill="#1B2233"/>
<path id="Vector_17" d="M12.6852 29.8598C12.7311 30.0681 12.5981 30.274 12.3883 30.3197C12.1786 30.3653 11.9713 30.2331 11.9254 30.0248C11.8794 29.8165 12.0125 29.6105 12.2222 29.5649C12.4319 29.5193 12.6392 29.6514 12.6852 29.8598Z" fill="#1B2233"/>
<path id="Vector_18" d="M3.54766 10.3415C3.71193 10.4788 3.73323 10.7224 3.59547 10.886C3.45724 11.0492 3.21202 11.0704 3.04728 10.9335C2.88301 10.7962 2.86171 10.5526 2.99946 10.389C3.1377 10.2258 3.38291 10.2047 3.54766 10.3415Z" fill="#1B2233"/>
<path id="Vector_19" d="M4.96737 7.84688C5.13163 7.98419 5.15294 8.22777 5.01518 8.39142C4.87695 8.55459 4.63173 8.57575 4.46699 8.43891C4.30272 8.3016 4.28141 8.05802 4.41917 7.89437C4.5574 7.7312 4.80262 7.71004 4.96737 7.84688Z" fill="#1B2233"/>
<path id="Vector_20" d="M6.68483 5.81594C6.8491 5.95325 6.8704 6.19683 6.73265 6.36047C6.59441 6.52365 6.3492 6.54481 6.18445 6.40797C6.02018 6.27066 5.99888 6.02707 6.13664 5.86343C6.27487 5.70026 6.52009 5.6791 6.68483 5.81594Z" fill="#1B2233"/>
<path id="Vector_21" d="M8.97087 3.92983C9.13514 4.06714 9.15645 4.31072 9.01869 4.47436C8.88046 4.63754 8.63524 4.6587 8.47049 4.52186C8.30623 4.38455 8.28492 4.14096 8.42268 3.97732C8.56091 3.81415 8.80613 3.79299 8.97087 3.92983Z" fill="#1B2233"/>
<path id="Vector_22" d="M11.4993 2.73403C11.6636 2.87134 11.6849 3.11492 11.5471 3.27856C11.4089 3.44174 11.1636 3.4629 10.9989 3.32606C10.8346 3.18875 10.8133 2.94516 10.9511 2.78152C11.0893 2.61835 11.3345 2.59719 11.4993 2.73403Z" fill="#1B2233"/>
<path id="Vector_23" d="M14.1058 2.04463C14.2701 2.18194 14.2914 2.42553 14.1536 2.58917C14.0154 2.75234 13.7702 2.7735 13.6054 2.63667C13.4412 2.49936 13.4199 2.25577 13.5576 2.09213C13.6959 1.92896 13.9411 1.90779 14.1058 2.04463Z" fill="#1B2233"/>
</g>
<g id="Group_8">
<path id="Vector_24" d="M30.6567 15.7088C30.4924 15.8461 30.4711 16.0897 30.6089 16.2534C30.7467 16.417 30.9923 16.4377 31.1571 16.3008C31.3214 16.1635 31.3427 15.92 31.2049 15.7563C31.0667 15.5931 30.8215 15.572 30.6567 15.7088Z" fill="#1B2233"/>
<path id="Vector_25" d="M30.268 13.1004C30.1038 13.2377 30.0825 13.4813 30.2202 13.645C30.3585 13.8081 30.6037 13.8293 30.7684 13.6925C30.9327 13.5551 30.954 13.3116 30.8162 13.1479C30.678 12.9847 30.4328 12.9636 30.268 13.1004Z" fill="#1B2233"/>
<path id="Vector_26" d="M30.1379 19.1453C30.0919 19.3537 30.225 19.5596 30.4347 19.6052C30.6444 19.6508 30.8517 19.5187 30.8977 19.3104C30.9436 19.1021 30.8105 18.8961 30.6008 18.8505C30.3911 18.8049 30.1838 18.937 30.1379 19.1453Z" fill="#1B2233"/>
<path id="Vector_27" d="M28.9331 22.4304C28.8872 22.6387 29.0202 22.8447 29.2299 22.8903C29.4396 22.9359 29.647 22.8038 29.6929 22.5955C29.7388 22.3872 29.6058 22.1812 29.3961 22.1356C29.1863 22.09 28.979 22.2221 28.9331 22.4304Z" fill="#1B2233"/>
<path id="Vector_28" d="M26.8657 25.7381C26.8198 25.9464 26.9528 26.1524 27.1625 26.198C27.3723 26.2436 27.5796 26.1115 27.6255 25.9032C27.6714 25.6948 27.5384 25.4889 27.3287 25.4433C27.119 25.3977 26.9116 25.5298 26.8657 25.7381Z" fill="#1B2233"/>
<path id="Vector_29" d="M23.8994 28.1805C23.8535 28.3888 23.9866 28.5948 24.1963 28.6404C24.406 28.686 24.6133 28.5539 24.6592 28.3455C24.7052 28.1372 24.5721 27.9313 24.3624 27.8857C24.1527 27.84 23.9454 27.9722 23.8994 28.1805Z" fill="#1B2233"/>
<path id="Vector_30" d="M20.3149 29.8598C20.269 30.0681 20.402 30.274 20.6117 30.3197C20.8214 30.3653 21.0288 30.2331 21.0747 30.0248C21.1206 29.8165 20.9876 29.6105 20.7779 29.5649C20.5682 29.5193 20.3608 29.6514 20.3149 29.8598Z" fill="#1B2233"/>
<path id="Vector_31" d="M29.4519 10.3415C29.2876 10.4788 29.2663 10.7224 29.4041 10.886C29.5423 11.0492 29.7875 11.0704 29.9523 10.9335C30.1166 10.7962 30.1379 10.5526 30.0001 10.389C29.8619 10.2258 29.6167 10.2047 29.4519 10.3415Z" fill="#1B2233"/>
<path id="Vector_32" d="M28.0327 7.84694C27.8684 7.98425 27.8471 8.22783 27.9848 8.39148C28.1231 8.55465 28.3683 8.57581 28.533 8.43897C28.6973 8.30166 28.7186 8.05808 28.5809 7.89444C28.4426 7.73126 28.1974 7.7101 28.0327 7.84694Z" fill="#1B2233"/>
<path id="Vector_33" d="M26.3152 5.81594C26.1509 5.95325 26.1296 6.19683 26.2674 6.36047C26.4056 6.52365 26.6508 6.54481 26.8156 6.40797C26.9798 6.27066 27.0011 6.02707 26.8634 5.86343C26.7252 5.70026 26.4799 5.6791 26.3152 5.81594Z" fill="#1B2233"/>
<path id="Vector_34" d="M24.0291 3.92983C23.8649 4.06714 23.8436 4.31072 23.9813 4.47436C24.1196 4.63754 24.3648 4.6587 24.5295 4.52186C24.6938 4.38455 24.7151 4.14096 24.5773 3.97732C24.4391 3.81415 24.1939 3.79299 24.0291 3.92983Z" fill="#1B2233"/>
<path id="Vector_35" d="M21.5002 2.73403C21.336 2.87134 21.3147 3.11492 21.4524 3.27856C21.5907 3.44174 21.8359 3.4629 22.0006 3.32606C22.1649 3.18875 22.1862 2.94516 22.0484 2.78152C21.9102 2.61835 21.665 2.59719 21.5002 2.73403Z" fill="#1B2233"/>
<path id="Vector_36" d="M18.8937 2.04463C18.7295 2.18194 18.7082 2.42553 18.8459 2.58917C18.9842 2.75234 19.2294 2.7735 19.3941 2.63667C19.5584 2.49936 19.5797 2.25577 19.4419 2.09213C19.3037 1.92896 19.0585 1.90779 18.8937 2.04463Z" fill="#1B2233"/>
</g>
</g>
</g>
</g>
<g id="Group_9">
<path id="Vector_37" d="M12.6866 20.7376H14.9343C15.1681 20.7376 15.3357 20.7018 15.4375 20.6304C15.5388 20.5589 15.5894 20.4399 15.5894 20.273V11.4945H12.6866V10.8508H13.9742C14.8169 10.8508 15.4995 10.6782 16.0226 10.3321C16.5452 9.98649 16.869 9.56939 16.994 9.08081H17.7429V20.273C17.7429 20.4399 17.7936 20.5589 17.8949 20.6304C17.9962 20.7018 18.1642 20.7376 18.3981 20.7376H20.6458V22.1379H12.6861V20.7376H12.6866Z" fill="url(#paint7_linear_28_976)"/>
<path id="Vector_38" d="M20.6462 20.5894H19.1101C18.7119 20.5894 18.0004 20.7065 17.9034 20.2321C17.8617 20.0266 17.9034 19.7759 17.9034 19.5676V9.0808C17.9034 9.00086 17.83 8.93268 17.7434 8.93268H16.9945C16.9244 8.93268 16.8586 8.97876 16.8401 9.0413C16.3227 10.7849 14.2511 10.7027 12.687 10.7027C12.6004 10.7027 12.527 10.7704 12.527 10.8508V11.4945C12.527 11.5745 12.6004 11.6427 12.687 11.6427H15.4299V19.7693C15.4299 19.9179 15.4673 20.114 15.4299 20.2603C15.3134 20.7173 14.5115 20.5899 14.1233 20.5899H12.687C12.6402 20.5899 12.6042 20.6059 12.5786 20.6294C12.5767 20.6308 12.5748 20.6327 12.5729 20.6341C12.572 20.635 12.5711 20.636 12.5701 20.6369C12.5441 20.6604 12.5266 20.6938 12.5266 20.738V22.1384C12.5266 22.2183 12.5999 22.2865 12.6866 22.2865H20.6462C20.7329 22.2865 20.8063 22.2188 20.8063 22.1384V20.738C20.8063 20.6581 20.7329 20.5899 20.6462 20.5899V20.5894ZM15.2779 20.8537C15.9057 20.6919 15.7494 19.9382 15.7494 19.4703V11.4945C15.7494 11.4146 15.6761 11.3464 15.5894 11.3464H12.8466V11.0003C13.4776 11.006 14.1276 11.0365 14.7491 10.9448C15.8077 10.7882 16.7706 10.1873 17.1109 9.2294H17.5829V18.4122C17.5829 19.0231 17.527 19.6593 17.5829 20.2687C17.6402 20.8956 18.2012 20.8866 18.7498 20.8866H20.4858V21.9907H12.8466V20.8866H13.9676C14.3709 20.8866 14.8812 20.9567 15.2779 20.8546V20.8537Z" fill="url(#paint8_linear_28_976)"/>
</g>
</g>
<defs>
<linearGradient id="paint0_linear_28_976" x1="22.2113" y1="28.2802" x2="22.2113" y2="48.5273" gradientUnits="userSpaceOnUse">
<stop stop-color="#BA973B"/>
<stop offset="0.12" stop-color="#A57D24"/>
<stop offset="0.26" stop-color="#F1DD80"/>
<stop offset="0.37" stop-color="#F1DD80"/>
<stop offset="0.47" stop-color="#D9BF63"/>
<stop offset="0.6" stop-color="#C2A247"/>
<stop offset="0.73" stop-color="#B28D33"/>
<stop offset="0.85" stop-color="#A88128"/>
<stop offset="0.97" stop-color="#A57D24"/>
</linearGradient>
<linearGradient id="paint1_linear_28_976" x1="10.7882" y1="28.5101" x2="10.7882" y2="49.2383" gradientUnits="userSpaceOnUse">
<stop stop-color="#BA973B"/>
<stop offset="0.12" stop-color="#A57D24"/>
<stop offset="0.26" stop-color="#F1DD80"/>
<stop offset="0.37" stop-color="#F1DD80"/>
<stop offset="0.47" stop-color="#D9BF63"/>
<stop offset="0.6" stop-color="#C2A247"/>
<stop offset="0.73" stop-color="#B28D33"/>
<stop offset="0.85" stop-color="#A88128"/>
<stop offset="0.97" stop-color="#A57D24"/>
</linearGradient>
<linearGradient id="paint2_linear_28_976" x1="14.3709" y1="32.4535" x2="30.0545" y2="32.4535" gradientUnits="userSpaceOnUse">
<stop stop-color="#BA973B"/>
<stop offset="0.12" stop-color="#A57D24"/>
<stop offset="0.26" stop-color="#F1DD80"/>
<stop offset="0.37" stop-color="#F1DD80"/>
<stop offset="0.47" stop-color="#D9BF63"/>
<stop offset="0.6" stop-color="#C2A247"/>
<stop offset="0.73" stop-color="#B28D33"/>
<stop offset="0.85" stop-color="#A88128"/>
<stop offset="0.97" stop-color="#A57D24"/>
</linearGradient>
<linearGradient id="paint3_linear_28_976" x1="2.94547" y1="32.4536" x2="18.6286" y2="32.4536" gradientUnits="userSpaceOnUse">
<stop stop-color="#BA973B"/>
<stop offset="0.12" stop-color="#A57D24"/>
<stop offset="0.26" stop-color="#F1DD80"/>
<stop offset="0.37" stop-color="#F1DD80"/>
<stop offset="0.47" stop-color="#D9BF63"/>
<stop offset="0.6" stop-color="#C2A247"/>
<stop offset="0.73" stop-color="#B28D33"/>
<stop offset="0.85" stop-color="#A88128"/>
<stop offset="0.97" stop-color="#A57D24"/>
</linearGradient>
<linearGradient id="paint4_linear_28_976" x1="0.166644" y1="16.3911" x2="32.8334" y2="16.3911" gradientUnits="userSpaceOnUse">
<stop stop-color="#BA973B"/>
<stop offset="0.12" stop-color="#A57D24"/>
<stop offset="0.26" stop-color="#F1DD80"/>
<stop offset="0.37" stop-color="#F1DD80"/>
<stop offset="0.47" stop-color="#D9BF63"/>
<stop offset="0.6" stop-color="#C2A247"/>
<stop offset="0.73" stop-color="#B28D33"/>
<stop offset="0.85" stop-color="#A88128"/>
<stop offset="0.97" stop-color="#A57D24"/>
</linearGradient>
<linearGradient id="paint5_linear_28_976" x1="4.1725" y1="16.3911" x2="28.8275" y2="16.3911" gradientUnits="userSpaceOnUse">
<stop stop-color="#BA973B"/>
<stop offset="0.12" stop-color="#A57D24"/>
<stop offset="0.26" stop-color="#F1DD80"/>
<stop offset="0.37" stop-color="#F1DD80"/>
<stop offset="0.47" stop-color="#D9BF63"/>
<stop offset="0.6" stop-color="#C2A247"/>
<stop offset="0.73" stop-color="#B28D33"/>
<stop offset="0.85" stop-color="#A88128"/>
<stop offset="0.97" stop-color="#A57D24"/>
</linearGradient>
<linearGradient id="paint6_linear_28_976" x1="-1.36466e-05" y1="16.3911" x2="33" y2="16.3911" gradientUnits="userSpaceOnUse">
<stop offset="0.03" stop-color="#A57D24"/>
<stop offset="0.15" stop-color="#A88128"/>
<stop offset="0.27" stop-color="#B28D33"/>
<stop offset="0.4" stop-color="#C2A247"/>
<stop offset="0.53" stop-color="#D9BF63"/>
<stop offset="0.63" stop-color="#F1DD80"/>
<stop offset="0.74" stop-color="#F1DD80"/>
<stop offset="0.88" stop-color="#A57D24"/>
<stop offset="1" stop-color="#BA973B"/>
</linearGradient>
<linearGradient id="paint7_linear_28_976" x1="12.6866" y1="15.6091" x2="20.6463" y2="15.6091" gradientUnits="userSpaceOnUse">
<stop offset="0.03" stop-color="#A57D24"/>
<stop offset="0.13" stop-color="#A88128"/>
<stop offset="0.23" stop-color="#B28D33"/>
<stop offset="0.34" stop-color="#C2A247"/>
<stop offset="0.44" stop-color="#D9BF63"/>
<stop offset="0.53" stop-color="#F1DD80"/>
<stop offset="0.74" stop-color="#F1DD80"/>
<stop offset="0.88" stop-color="#A57D24"/>
<stop offset="1" stop-color="#BA973B"/>
</linearGradient>
<linearGradient id="paint8_linear_28_976" x1="12.5266" y1="15.6091" x2="20.8067" y2="15.6091" gradientUnits="userSpaceOnUse">
<stop stop-color="#BA973B"/>
<stop offset="0.12" stop-color="#A57D24"/>
<stop offset="0.26" stop-color="#F1DD80"/>
<stop offset="0.47" stop-color="#F1DD80"/>
<stop offset="0.56" stop-color="#D9BF63"/>
<stop offset="0.66" stop-color="#C2A247"/>
<stop offset="0.77" stop-color="#B28D33"/>
<stop offset="0.87" stop-color="#A88128"/>
<stop offset="0.97" stop-color="#A57D24"/>
</linearGradient>
<clipPath id="clip0_28_976">
<rect width="33" height="45" fill="white"/>
</clipPath>
</defs>
</svg>
