<svg width="14" height="14" viewBox="0 0 14 14" fill="none" xmlns="http://www.w3.org/2000/svg">
<g id="Vector">
<path d="M7 0C3.13111 0 0 3.13078 0 7C0 10.8689 3.13078 14 7 14C10.8689 14 14 10.8692 14 7C14 3.13111 10.8692 0 7 0ZM12.1762 7.41016H13.1657C13.0738 8.80592 12.5166 10.0765 11.6479 11.0678L11.2236 10.6436C11.0634 10.4833 10.8037 10.4834 10.6436 10.6436C10.4834 10.8037 10.4834 11.0634 10.6436 11.2236L11.0679 11.6479C10.0765 12.5166 8.80592 13.0738 7.41016 13.1657V12.4497C7.41016 12.2231 7.22652 12.0395 7 12.0395C6.77348 12.0395 6.58984 12.2231 6.58984 12.4497V13.1657C5.19408 13.0738 3.92353 12.5166 2.93215 11.6479L3.35645 11.2236C3.51662 11.0634 3.51662 10.8037 3.35645 10.6436C3.19629 10.4834 2.93658 10.4834 2.7764 10.6436L2.35211 11.0678C1.48337 10.0765 0.926188 8.80592 0.834258 7.41016H1.55034C1.77685 7.41016 1.96049 7.22652 1.96049 7C1.96049 6.77348 1.77685 6.58984 1.55034 6.58984H0.834258C0.926188 5.19408 1.48337 3.92353 2.35208 2.93215L2.77638 3.35645C2.93655 3.51662 3.19624 3.51662 3.35642 3.35645C3.51657 3.19629 3.51657 2.93658 3.35642 2.7764L2.93213 2.35211C3.9235 1.48337 5.19408 0.926188 6.58984 0.834258V1.55034C6.58984 1.77685 6.77348 1.96049 7 1.96049C7.22652 1.96049 7.41016 1.77685 7.41016 1.55034V0.834258C8.80592 0.926188 10.0765 1.48337 11.0678 2.35208L10.6436 2.7764C10.4834 2.93658 10.4834 3.19627 10.6436 3.35645C10.8037 3.51662 11.0634 3.51665 11.2236 3.35645L11.6479 2.93213C12.5166 3.9235 13.0738 5.19408 13.1657 6.58984H12.1762C11.9497 6.58984 11.7661 6.77348 11.7661 7C11.7661 7.22652 11.9497 7.41016 12.1762 7.41016Z" fill="#ABA4A4"/>
<path d="M9.58811 6.58984H7.41016V3.19096C7.41016 2.96445 7.22652 2.7808 7 2.7808C6.77348 2.7808 6.58984 2.96445 6.58984 3.19096V7C6.58984 7.22652 6.77348 7.41016 7 7.41016H9.58811C9.81463 7.41016 9.99827 7.22652 9.99827 7C9.99827 6.77348 9.81466 6.58984 9.58811 6.58984Z" fill="#ABA4A4"/>
</g>
</svg>
