<svg xmlns="http://www.w3.org/2000/svg" xmlns:xlink="http://www.w3.org/1999/xlink" width="62" height="64" xmlns:v="https://vecta.io/nano"><style><![CDATA[.B{fill:#322885}.C{fill:#322784}.D{fill:#483482}.E{fill:#917cb7}]]></style><defs><path id="A" d="M.336.408H3.33v2.994H.336z"/><path id="B" d="M0 .408h2.994v2.995H0z"/></defs><g fill="none" fill-rule="evenodd"><path d="M14.646 32.465l-.003 9.164c0 .132.032.208.153.277l15.797 9.141c.155.09.262.086.416-.002l15.798-9.141c.122-.07.149-.149.149-.28V23.316c0-.141-.037-.22-.163-.292l-15.781-9.132c-.161-.093-.273-.089-.43.003l-15.765 9.123c-.128.074-.176.153-.176.304l.004 9.145M26.117 8.858h9.367l-.125.137-3.325 3.489c-.11.114-.118.158.029.243l15.111 8.738c.221.128.221.128.295-.126l1.339-4.583.056-.177 4.699 8.157-1.93-.467-2.955-.725c-.133-.033-.193-.029-.193.142l.001 17.566c0 .138.016.18.173.142l4.686-1.142c.059-.014.116-.046.194-.014l-4.679 8.123-1.468-5.018L46 44.15 32.079 52.2c-.164.094-.152.142-.033.265l3.327 3.486c.033.035.062.073.11.128h-9.338c-.005-.069.053-.095.088-.132l3.34-3.5c.119-.124.097-.161-.039-.24l-15.157-8.77c-.128-.074-.175-.092-.225.083l-1.36 4.655-.057.18L8.036 40.2l1.106.267 3.766.921c.172.043.206.015.205-.16l-.003-11.27v-6.24c0-.218 0-.217-.213-.165l-4.74 1.155c-.028.007-.058.009-.115.017l4.696-8.152 1.469 5.018.545-.315 14.773-8.543c.145-.084.163-.125.039-.254l-3.313-3.475-.134-.147" class="D"/><g class="B"><path d="M25.696 3.397c0-.209-.087-.365-.231-.433-.097-.046-.186-.027-.257.039-.145.135-.144.311-.1.484.047.183.201.297.345.277s.243-.167.242-.367m4.531-.857c0-.093-.011-.188.002-.279.02-.138-.037-.2-.164-.239a.69.69 0 0 0-.773.256c-.173.242-.17.576.007.814s.499.337.778.24c.08-.028.114-.071.116-.161l.033-.631M14.653 8c.398-.006.765-.563.589-.866l-.592-.964c-.047-.078-.088-.081-.16-.035l-.834.519c-.073.044-.093.075-.042.154l.571.912c.114.18.283.27.469.279m4.31-2.044c.465.001 1.028-.472 1.184-.99.032-.105.03-.199-.013-.303l-.33-.866c-.1-.263-.099-.26-.358-.15-.074.031-.109.062-.074.149.046.113.154.245.104.341-.055.103-.225.107-.344.157l-.413.162c-.051.021-.103.042-.148.074-.071.052-.136.116-.109.216s.109.147.206.161c.068.01.133 0 .2-.028l.362-.139c.097-.043.144-.032.189.078.05.122-.021.133-.096.165-.204.085-.43.127-.606.271-.138.114-.244.254-.185.451.049.166.202.251.431.252m-3.305-.893l-.062.006.004.016.054-.025.028-.027c-.018.007-.021.019-.023.03m18.243-3.655c.212-.006.416.053.625.073.126.012.067.11.075.173.011.077-.037.095-.103.087l-.369-.039c-.081-.011-.108.02-.11.1l-.071 1.954c-.004.128.041.237.187.257.102.014.064.086.069.141.006.071-.041.076-.097.074l-1.058-.043c-.055-.003-.134.015-.134-.085 0-.076.016-.12.11-.132.119-.015.172-.107.176-.227l.077-1.972c.005-.117-.03-.144-.143-.147l-1.875-.069c-.267-.009-.267-.006-.25.295.297-.097.596-.142.906-.074.527.117.882.584.835 1.112-.044.487-.496.888-1.017.909-.211.009-.402-.034-.584-.144-.088-.053-.093-.112-.064-.198.033-.1.086-.063.156-.045.308.077.648-.155.743-.496.097-.349-.1-.725-.441-.832a.77.77 0 0 0-.237-.037c-.273.003-.331.066-.338.333l-.042 1.247c-.007.146.041.248.185.275.098.019.074.08.075.138.001.085-.06.077-.117.074l-1.058-.044c-.06-.003-.126.008-.123-.092.002-.073.021-.1.098-.121.176-.048.201-.106.187-.34-.216.119-.432.212-.684.205-.586-.015-1.084-.488-1.077-1.037s.49-1.009 1.072-1.017c.22-.003.431.031.635.111.037.015.098.065.114.024.028-.071.024-.156.023-.235-.001-.067-.062-.047-.1-.047-.167 0-.335-.006-.502.005l-2.038.142c-.131.008-.116.082-.103.163l.2 1.284.09.587c.014.153.078.25.23.266.081.008.101.043.11.115.01.088-.049.085-.103.093l-1.061.171c-.062.01-.103 0-.118-.075-.012-.062-.02-.107.053-.131.153-.051.178-.16.154-.309l-.3-1.946c-.012-.081-.035-.101-.118-.087l-1.136.177c.066.079.155.069.227.095.73.26.919.959.414 1.55-.353.414-.991.554-1.471.321-.389-.188-.467-.622-.153-.917s.681-.408 1.103-.259a.82.82 0 0 0-.839-.669l-.973.137c-.1.014-.114.068-.1.156l.298 1.908c.021.137.07.26.237.258.096 0 .088.059.097.121.013.091-.052.079-.105.088l-1.061.171c-.04.007-.095.027-.101-.041-.005-.056-.051-.132.036-.161.194-.064.176-.205.152-.362l-.272-1.819c-.013-.087-.031-.148-.148-.104-.312.118-.643.173-.966.255-.096.024-.122.046-.083.147l.701 1.856c.049.132.125.235.29.187.089-.026.082.046.104.091.029.058.007.088-.051.11l-1.037.396c-.051.02-.095.029-.115-.042-.014-.05-.062-.1.016-.142.158-.085.139-.214.087-.352l-.682-1.803c-.036-.098-.071-.124-.172-.077-.145.067-.298.117-.45.17-.073.026-.087.056-.057.133l.717 1.889c.043.115.135.173.247.148.102-.023.112.03.138.095.042.103-.045.096-.095.116l-.951.363c-.05.019-.113.084-.157-.009-.032-.067-.062-.125.039-.18.112-.061.13-.168.073-.29-.05-.108-.087-.224-.139-.362-.125.272-.255.511-.444.711-.404.425-.888.626-1.473.496-.494-.109-.769-.595-.328-1.048l.046-.051c-.001-.038-.024-.043-.049-.047-.16-.022-.286-.1-.326-.261-.044-.178.053-.312.182-.419.196-.161.444-.211.672-.304.07-.029.132-.045.094-.156-.042-.123-.1-.091-.179-.055l-1.565.719c-.148.07-.384.092-.414.233-.024.115.142.272.226.409l.772 1.248c.085.138.17.267.367.178.079-.036.084.049.116.086.043.05.002.079-.035.102l-.961.598c-.045.028-.081.028-.104-.025-.019-.045-.09-.086-.021-.14.152-.119.104-.243.022-.375L15.905 5.42c-.059-.097-.104-.112-.198-.043-.124.092-.26.168-.393.245-.068.039-.081.074-.037.145l1.067 1.721c.069.111.172.133.273.092s.116.022.152.077c.053.079-.022.095-.062.121l-.898.559c-.045.028-.096.076-.138-.002-.024-.043-.09-.085-.021-.142.151-.126.11-.255.012-.389-.053-.072-.096-.151-.164-.261a4.93 4.93 0 0 1-.284.841 3.16 3.16 0 0 1-.815 1.071c-.091.078-.152.091-.203-.034-.016-.039-.041-.077-.069-.11-.071-.085-.059-.135.04-.199a2.45 2.45 0 0 0 .785-.805c.015-.025.021-.056.031-.084l.022-.017-.021-.003.004.023c-.117-.022-.207.058-.31.086-.555.151-1.006-.013-1.314-.491l-.433-.674c-.038.027-.073.044-.097.071-.092.101-.145.046-.212-.037-.073-.092-.055-.133.036-.202.875-.66 1.834-1.191 2.805-1.817-.286.019-.52-.009-.754-.03l-.314-.026c-.183-.025-.358-.019-.512.1-.056.043-.102.055-.149-.022s-.011-.106.049-.142l.504-.312c.139-.084.291-.093.448-.075l.83.091c.082.009.167.001.232-.045.139-.099.194-.033.228.097-.084.066-.194.094-.261.185l-.034.022c.034.006.04-.006.032-.024.121-.007.211-.08.304-.145l1.482-.713c.959-.506 1.995-.821 2.994-1.225l.425-.166c-.379-.083-.71-.246-1.046-.391-.236-.103-.458-.13-.69-.008-.083.044-.134.038-.174-.071s-.011-.147.083-.174l.035-.011c.902-.329.597-.344 1.522.002l.519.197a.4.4 0 0 0 .254.027c.093-.026.165-.043.186.084.01.061.055.07.113.056l1.69-.407 1.175-.238.73-.116c.039-.007.133.013.076-.09-.317-.577-1.05-.896-1.625-.637-.434.195-.509.588-.19.939.006.006.004.019.007.038l-.179.041-.293.036c-.313.047-.533-.187-.47-.504a.73.73 0 0 1 .258-.418c.752-.637 2.06-.67 2.834-.069.166.129.321.275.389.483.021.066.057.054.097.047 1.79-.321 3.597-.264 5.402-.252l1.652.007-.003-.002c.184.092.387.081.582.108M2.776 20.821c.076-.005.142.011.179-.059.019-.037.004-.058-.028-.072-.223-.101-.432-.237-.678-.28-.037-.007-.093-.022-.111.034-.013.039.022.068.048.092.171.162.375.252.59.285h0zm1.208.679c.06-.007.126 0 .155-.072s-.025-.114-.068-.156c-.109-.104-.248-.158-.381-.218-.045-.021-.1-.098-.158-.018-.048.066-.045.137.002.206.108.159.266.229.449.257h0zm3.713-10.216c-.08.007-.117-.041-.163-.07-.205-.133-.43-.183-.671-.159a.53.53 0 0 0-.462.419c-.029.181.073.333.298.441.096.046.197.064.303.074.085.008.135-.014.186-.078l.509-.626h0zm2.399-1.879c.033.028.07.014.107.013.404-.013.578.21.473.6-.048.177-.135.332-.248.473-.185.232-.183.253.088.39.082.041.171.076.261.093.297.059.557-.074.71-.354.125-.229.149-.582-.069-.791-.255-.244-.485-.514-.717-.781-.079-.091-.124-.082-.202-.003l-.399.363.008.024-.012-.027zm-5.101 5.987a1.36 1.36 0 0 1 .562-.225c.393-.054.762.267.798.702.017.21.013.42-.09.642.214-.02.387-.071.543-.168.12-.074.131-.201.117-.33-.006-.058-.041-.127.059-.143.083-.013.135-.001.163.097.135.464.076.957-.57 1.123-.338.087-.696.113-1.002.308-.068.043-.078-.033-.11-.06-.044-.039-.05-.078 0-.123a1.56 1.56 0 0 0 .265-.334c.189-.295.184-.626-.012-.866-.203-.249-.529-.322-.857-.194a.9.9 0 0 0-.441.356l-.549.861c-.063.096-.032.128.06.172l1.688.806c.132.063.263.093.357-.061.049-.08.095-.021.141-.004.063.022.061.063.034.118l-.478 1.005c-.023.048-.048.09-.11.046-.042-.029-.12-.032-.088-.114.069-.177-.044-.25-.174-.313l-1.737-.834c-.091-.044-.139-.043-.18.059a3.3 3.3 0 0 1-.191.402c-.061.106-.024.145.074.191l1.738.83c.131.064.24.067.326-.053.052-.073.098-.05.156-.023.085.04.049.094.021.152l-.447.938c-.027.057-.043.12-.131.082-.069-.031-.104-.059-.075-.151.037-.114-.024-.202-.134-.253l-.484-.232c-.072-.038-.113-.031-.141.044l-.014.035c-.062.135-.182.277-.168.403s.223.137.338.211c.231.147.331.36.32.629-.02.48-.471.875-.891.779A.65.65 0 0 1 3.202 21c.02-.053.11-.125.011-.17s-.097.071-.126.121c-.181.309-.488.497-.751.451-.39-.068-.603-.421-.51-.866.053-.25.18-.461.39-.613a.63.63 0 0 1 .713-.067l.55.266c.08.042.12.043.168-.048.233-.442.236-.441-.212-.655l-.501-.242c-.093-.05-.151-.039-.178.062-.041.155-.122.09-.216.057-.133-.047-.1-.111-.058-.205.624-1.409 1.474-2.688 2.272-3.997.512-.841 1.146-1.585 1.757-2.349l.128-.161c-.039-.055-.093-.028-.136-.031-.443-.03-.686-.33-.623-.765.118-.82 1.338-1.699 2.254-1.056.09.063.118.007.163-.04.724-.75 1.518-1.426 2.28-2.135.241-.225.52-.4.786-.591.12-.086.144.037.201.083.081.065.016.103-.032.142l-.029.023c-.1.089-.289.152-.285.261s.159.207.25.307l1.077 1.183c.099.111.202.171.337.081.079-.053.107.001.151.042.065.059.017.094-.024.132l-.809.741c-.029.026-.058.076-.102.02-.029-.037-.086-.057-.08-.117.036-.363.037-.363-.221-.59-.057.593-.289 1.07-.907 1.206-.528.115-.984-.071-1.358-.477.141-.097.277-.183.391-.297.062-.062.119-.126.152-.208.065-.162.097-.327-.037-.469-.14-.149-.31-.125-.482-.062-.113.042-.198.125-.284.206l-.759.713c-.068.063-.064.095.005.152l1.474 1.223c.105.087.214.133.329.021.069-.069.107-.008.155.026.078.054.018.093-.015.134l-.661.804c-.033.04-.058.126-.143.063-.058-.043-.097-.079-.048-.166.064-.114.015-.215-.081-.294l-1.505-1.243c-.077-.064-.129-.075-.195.01l-.309.371c-.057.064-.042.099.018.148l1.55 1.276c.098.082.198.092.283.013s.129-.028.184.021c.081.073-.01.111-.04.149l-.639.775c-.033.039-.05.129-.138.075-.069-.043-.105-.084-.056-.178.056-.109.021-.208-.083-.292l-.891-.731c-.053-.044-.098-.082-.179-.066-.468.093-.779.655-.586 1.082.145.323.429.448.759.484.14.015.282.003.434.003l-.141.645c-.017.09-.073.099-.144.11-.496.075-.932-.05-1.241-.453s-.286-.847-.081-1.283c.171-.363.451-.628.823-.789-.332-.379-.331-.377-.629-.004-.619.774-1.27 1.523-1.765 2.389-.01.019-.031.04 0 .055.008.004.027-.014.04-.021h0zm48.681-3.561c.007-.077-.032-.073-.071-.071-.166.01-.553.383-.569.548a.12.12 0 0 0 .032.102c.041.041.066-.002.09-.025l.404-.384c.051-.051.083-.122.114-.17m-1.069 1.046c-.033-.078-.089-.112-.172-.114a.59.59 0 0 0-.46.356c-.011.048-.016.098.026.139s.089.022.136.003c.178-.071.299-.216.438-.339.013-.011.021-.029.032-.046m.371-2.233l.313.319c.092.083.048.132-.022.188-.063.05-.117.151-.201.025-.116-.108-.191-.299-.312-.29-.114.008-.219.164-.323.26l-1.164 1.071c-.116.106-.22.211-.097.379.054.073-.029.092-.059.131-.048.063-.082.018-.115-.02l-.739-.811c-.031-.034-.086-.069-.022-.118.043-.033.075-.115.15-.046.128.115.235.061.342-.036l1.414-1.293c.128-.114.021-.16-.04-.208-.126-.099-.144-.173 0-.276.078-.055.12-.066.179.01s.122.139.174.198c.079-.018.063-.064.068-.096.069-.396.354-.597.74-.476.898.283 1.428.917 1.646 1.822.091.379.048.753-.134 1.101-.036.069-.016.101.019.144 1.131 1.401 2.049 2.95 3.026 4.455.547.844.992 1.754 1.364 2.693l.108.244c.073-.137.116-.264.201-.366.273-.325.654-.33.92 0 .201.249.284.561.413.847.046.1-.052.094-.096.118-.049.027-.11.067-.144-.034a2.06 2.06 0 0 0-.137-.304c-.089-.168-.232-.211-.406-.136-.244.105-.336.334-.445.548-.023.045.017.082.032.121l.159.376c.075.175.033.242-.155.28-.084.017-.077-.044-.094-.08l-.192-.442c-.033-.087-.074-.126-.163-.07-.15.049-.294.197-.399.137-.1-.056-.129-.241-.187-.37-.061-.135-.102-.28-.193-.4s-.198-.203-.348-.121-.128.232-.077.361c.061.155.149.299.216.451.14.32.112.533-.079.675-.221.164-.565.15-.796-.033-.192-.151-.288-.367-.382-.585a.57.57 0 0 0 .022.674c.047.054.096.092.038.172-.069.095-.123.015-.172-.012-.432-.235-.584-.642-.416-1.123l.222-.55c.035-.086.077-.173.064-.268s.057-.114.118-.137c.082-.031.088.042.109.09l.194.441c.064.123.079.229-.021.336-.063.067-.05.136.003.2s.102.126.164.175c.117.091.247.112.379.029s.163-.21.137-.356c-.034-.192-.137-.357-.207-.535-.081-.208-.069-.404.063-.581.208-.279.615-.235.804.092.096.165.168.344.236.523.048.128.114.073.182.039.062-.031.163-.026.104-.156l-.759-1.629c-.055-.093-.09-.119-.191-.054l-1.559.972c-.124.077-.223.167-.147.331.042.092-.04.103-.085.135-.063.044-.086-.014-.111-.055l-.567-.916c-.03-.048-.068-.092.01-.136.057-.033.1-.065.158.005.094.114.207.089.317.021l1.672-1.036c.081-.05.1-.088.042-.171-.11-.157-.178-.402-.322-.458-.132-.051-.309.156-.465.252l-1.278.791c-.125.076-.203.163-.141.316.033.081-.024.107-.077.142-.081.053-.095-.02-.122-.061l-.556-.901c-.024-.038-.096-.085-.008-.134.055-.031.098-.096.169-.01.095.115.203.102.327.022l1.088-.675c.144-.084.098-.14-.002-.201-.19-.115-.39-.103-.587-.021-.067.028-.115.057-.167-.029s.001-.118.056-.161c.085-.065.146-.149.188-.249a.46.46 0 0 0-.457-.681c-.338.009-.728.285-.85.602-.11.284-.005.55.268.686.063.031.164.023.11.156s-.131.078-.208.053a1.03 1.03 0 0 1-.512-1.673 1.12 1.12 0 0 1 1.163-.451.98.98 0 0 1 .79.751c.067.235.041.466-.097.692.245.012.457.06.606.254.078.102.126-.014.185-.035.172-.061.186-.144.077-.304l-1.388-2.089c-.12-.18-.265-.342-.394-.516-.049-.066-.083-.07-.144-.013l-1.423 1.31c-.087.08-.106.177-.049.267s.033.131-.034.183c-.091.071-.119-.023-.158-.064l-.69-.756c-.031-.035-.106-.066-.03-.13.049-.042.084-.106.167-.037.109.089.215.062.314-.033l.37-.339c.082-.067.066-.11.001-.175-.105-.105-.184-.274-.307-.314-.142-.046-.219.157-.336.237-.186.128-.383.171-.597.098-.313-.107-.503-.335-.58-.648a.61.61 0 0 1 .244-.674c.28-.211.603-.183.873.071.036.035.065.133.142.059s-.021-.105-.052-.146c-.097-.13-.183-.264-.21-.429-.084-.53.323-.882.831-.718.406.13.695.567.66.993-.012.144-.078.259-.181.355l-.48.44c-.079.069-.112.118-.018.205.114.104.205.299.324.314s.232-.177.346-.28l.413-.375c.079-.067.096-.121.007-.188s-.093-.139.008-.199c.158-.093.121-.184.001-.276-.009-.007-.016-.019-.026-.027-.207-.17-.264-.34-.161-.628.173-.485.061-.954-.31-1.337a.78.78 0 0 0-.477-.226c-.234-.03-.447.118-.526.353-.017.051.007.127-.075.146l-.024-.036-.036-.038-.037-.038-.036-.038-.036-.038c-.077-.095-.148-.199-.304-.278a.91.91 0 0 0 .272.312l.036.036.036.037.037.037.037.037c.011.027.027.05.058.055m-9.261-5.617c-.002.121-.011.205.079.25.042.021.083.024.119-.012.182-.178.303-.386.319-.646.004-.063-.019-.125-.084-.151s-.121.006-.169.049c-.165.146-.244.334-.264.51m3.641 3.852c-.006.248.129.387.336.348.357-.066.763-.582.742-.941-.014-.242-.188-.362-.421-.289-.344.108-.649.519-.657.882m-2.989-2.084c-.369.137-.735.136-1.102-.012a1.23 1.23 0 0 1-.81-1.195v-.208c-.303.065-.518-.07-.703-.273-.114-.125.034-.186.083-.261.076-.117.104.017.144.047.18.135.362.26.604.177.068-.023.083.039.118.065a1.71 1.71 0 0 0 .891.348c-.17-.141-.309-.25-.403-.405-.285-.47-.052-.934.494-.962.387-.021.714.123.976.409.357.39.274.868-.199 1.11-.381.195-.778.186-1.168.035-.162-.063-.176-.002-.172.131.008.306.329.644.711.746.331.088.749.028.907-.418.106-.302.27-.583.409-.873.026-.055.069-.114-.022-.147-.198-.07-.055-.175-.023-.258.045-.124.122-.036.176-.005 1.411.81 2.825 1.614 4.092 2.649l1.663 1.282c.148.111.037.166-.011.249-.068.118-.121.051-.179-.006l-.113-.097c-.214-.185-.214-.185-.387.052l-1.025 1.392c-.094.126-.133.238-.015.362.068.071.005.109-.028.157-.045.065-.086.02-.123-.007l-.883-.649c-.045-.033-.076-.068-.023-.119.034-.034.041-.114.124-.066.163.093.262.007.354-.124l.463-.629c.071-.089.068-.161.02-.25a1.77 1.77 0 0 0-.303-.42c-.012-.014-.011-.05-.041-.034-.007.004.004.042.006.064.044.592-.35.976-.979.953-.571-.021-1.096-.617-1.032-1.17.085-.725.912-1.08 1.548-.657a2.89 2.89 0 0 1 .961 1.041l.068.128.451-.61c.075-.098-.021-.116-.065-.149l-1.464-1.081-1.12-.761c-.095-.058-.136-.065-.188.049L46.3 7.966c-.062.129-.082.249.059.341.08.052.026.103.005.159-.031.083-.08.034-.117.016l-.969-.463c-.046-.022-.114-.032-.075-.117.028-.06.052-.109.135-.088.173.045.244-.071.306-.201l.751-1.572c.057-.116.042-.167-.08-.217-.136-.057-.262-.137-.389-.215-.07-.043-.103-.033-.139.043l-.82 1.725c-.052.109-.037.213.062.281.078.055.06.103.028.17-.045.097-.102.038-.151.015l-.952-.456c-.04-.019-.108-.029-.073-.101.023-.045.028-.122.106-.106.308.064.329-.181.404-.37l.027-.021c-.016-.018-.031-.013-.046.003"/><path d="M41.763 3.586c.152.204.266.425.228.686-.071.503-.511.769-1.076.661l-.201-.039c.041.198.107.367.218.512.086.113.216.162.347.119.138-.044.149.062.179.128.043.099-.069.086-.11.103-.584.228-1.005.031-1.208-.565-.096-.28-.155-.576-.36-.806-.071-.079.011-.105.041-.148.046-.066.088-.063.149-.009.161.14.344.239.555.284a.65.65 0 0 0 .704-.294c.164-.259.159-.607-.01-.821-.072-.092-.172-.138-.281-.169l-1.317-.375c-.117-.035-.129.012-.152.104l-.464 1.852c-.034.134-.018.253.121.313.086.038.061.097.048.154-.017.083-.076.058-.13.044l-1.041-.259c-.055-.014-.097-.024-.084-.092.011-.059.008-.125.104-.118.17.012.236-.095.268-.246l.131-.553c-.236.007-.439-.044-.624-.173-.161-.112-.031-.208.012-.298.058-.122.102.014.152.026s.099.05.151.069c.301.108.396.059.47-.241l.179-.72c.014-.058.028-.102-.057-.122l-1.272-.299c.308.303.546.631.346 1.075s-.618.483-1.035.499c.083.376.315.539.691.481.099-.015.132.063.169.117.041.061-.04.077-.073.1-.507.349-.997.248-1.308-.277-.157-.266-.277-.556-.535-.749-.074-.056.001-.097.02-.141.026-.057.062-.089.131-.049.117.07.245.115.379.146.463.109.819-.101.912-.543a.83.83 0 0 0-.633-.915l-.385-.058c-.062-.01-.148-.006-.098-.118.033-.072-.018-.192.149-.17.423.057.837.156 1.254.238 1.998.391 3.863 1.188 5.755 1.9.064.024.139.047.068.137-.05.065-.03.22-.19.147l-1.249-.563c-.016-.018-.036-.028-.055-.007-.004.004.012.026.018.04"/></g><g transform="translate(58.271 30.606)"><mask id="C" fill="#fff"><use xlink:href="#A"/></mask><path d="M1.84 3.403C1.009 3.405.335 2.734.336 1.906A1.5 1.5 0 0 1 1.84.408c.823.002 1.489.667 1.491 1.488A1.49 1.49 0 0 1 1.84 3.403" mask="url(#C)" class="C"/></g><g transform="translate(0 30.606)"><mask id="D" fill="#fff"><use xlink:href="#B"/></mask><path d="M1.487.408c.83-.005 1.502.661 1.508 1.493a1.5 1.5 0 0 1-1.48 1.501C.679 3.409.003 2.747 0 1.92-.003 1.083.656.413 1.487.408" mask="url(#D)" class="C"/></g><path d="M54.156 49.827a.44.44 0 0 0-.079-.214c-.166-.215-.399-.208-.612.021-.28.301-.28.301.035.536l.25.19c.033.024.075.069.111.02.125-.166.278-.318.295-.552m1.199.821c.006-.221-.084-.339-.226-.423s-.27-.064-.4.021c-.177.114-.271.301-.401.457-.047.057-.008.086.034.117l.534.399c.034.026.071.069.108.017.139-.199.335-.368.352-.588m-.751-.937c.159-.101.287-.186.443-.211.623-.097 1.129.51.959 1.154a1.42 1.42 0 0 1-.231.483l-.72.969c-.068.094-.111.08-.189.021l-2.432-1.831c-.096-.071-.097-.113-.028-.201l.673-.889c.137-.178.295-.337.498-.438a.68.68 0 0 1 .752.046c.245.177.322.427.304.716-.003.049-.016.097-.03.182m-3.736 5.803a1.08 1.08 0 0 0-.553-.783c-.317-.113-.671.136-.631.461a.93.93 0 0 0 .541.749c.31.149.644-.082.643-.427m-.867-1.244c-.112-.131-.063-.22.068-.302.139-.087.253-.296.393-.269.123.023.212.225.314.349l1.035 1.266c.498.628.454 1.264-.121 1.823-.214.208-.45.387-.736.489-.062.022-.11.042-.161-.026l-.324-.403c.078-.071.172-.061.252-.088.178-.06.341-.146.482-.269.366-.32.381-.704.031-1.077l-.067.302c-.154.459-.683.724-1.157.584-.583-.172-1.088-.95-1.009-1.553.061-.461.434-.768 1.005-.828l-.002.024.021-.005-.022-.016M4.876 46.442c-.002-.232-.158-.413-.387-.449-.292-.046-.732.164-.877.419a.46.46 0 0 0 .129.597c.228.16.458.097.682-.016.231-.117.456-.24.453-.55m.489.017l.979-.524c.102-.057.158-.06.21.059.074.169.254.348.225.49-.029.148-.289.196-.449.284l-2.44 1.326c-.124.069-.177.056-.229-.07a1.9 1.9 0 0 0-.175-.327c-.08-.117-.082-.197.066-.247.028-.009.05-.032.089-.057-.412-.083-.637-.347-.732-.718-.099-.386.044-.713.339-.961.416-.35.886-.55 1.439-.38.46.142.743.645.639 1.096v.045l.041-.016m33.786 14.012c.086-.205.188-.362.354-.457.482-.277.969-.197 1.197.379.161.406.277.831.408 1.249.114.363.111.364-.254.479-.319.1-.318.1-.419-.221l-.325-1.024c-.104-.307-.269-.413-.502-.338-.224.072-.334.322-.254.599l.358 1.169c.046.135.006.173-.114.202a3.85 3.85 0 0 0-.406.127c-.088.032-.134.021-.164-.077l-.967-3.134c-.025-.082-.013-.12.076-.143.19-.05.409-.196.558-.141.138.051.135.333.193.513l.259.817m16.127-12.304c.039-.055.002-.108-.009-.158-.076-.348.06-.623.306-.847.238-.218.523-.206.798-.082.435.195.819.482 1.23.721.284.165.282.17.111.448-.208.34-.207.339-.552.13l-.971-.576c-.152-.084-.311-.075-.436.072-.12.142-.133.313-.04.483.059.108.153.177.254.238l.951.576c.14.079.174.145.068.277a1.69 1.69 0 0 0-.193.315c-.06.124-.12.114-.226.049l-2.721-1.662c-.115-.069-.123-.121-.05-.223a3.59 3.59 0 0 0 .232-.379c.048-.089.095-.084.172-.036l1.079.649.025.016c-.011-.014-.019-.013-.028-.011m-2.777 5.574l-.673-1.322c-.055-.106-.069-.177.035-.268.134-.117.248-.26.39-.412l.22.487.93 2.083c.127.291.219.592.135.919-.075.291-.272.478-.509.636-.045.03-.085.033-.13-.011l-.371-.353c.241-.115.451-.228.408-.501-.036-.23-.112-.434-.377-.538l-1.963-.825c-.122-.05-.142-.087-.036-.181.157-.14.288-.384.458-.412s.369.158.554.255l.902.476.045.008-.018-.04zM44.8 59.79c.264.001.517-.197.552-.43.041-.273-.232-.769-.482-.885a.41.41 0 0 0-.161-.035c-.298-.007-.546.217-.557.502-.014.379.327.838.63.848m1.249-.648c.024.803-.81 1.261-1.367 1.27-.63.01-1.194-.621-1.211-1.312-.018-.779.801-1.273 1.384-1.28.635-.007 1.191.618 1.194 1.322m-17.957 3.203v-.093c-.012-.311-.148-.469-.447-.519-.247-.041-.463.091-.565.347-.073.183-.089.373-.066.565a.49.49 0 0 0 .48.455c.269.024.442-.09.536-.354a1.09 1.09 0 0 0 .062-.4m-.515 1.317c-.794-.004-1.314-.485-1.305-1.207.01-.796.5-1.296 1.266-1.291.784.005 1.294.477 1.291 1.197-.003.796-.493 1.304-1.252 1.301m21.179-6.472c-.002-.292-.339-.736-.62-.815-.295-.083-.679.241-.632.551a.96.96 0 0 0 .518.728c.303.16.736-.122.734-.464m-.69 1.143c-.621 0-1.238-.642-1.242-1.293s.692-1.32 1.367-1.315c.616.005 1.226.655 1.23 1.31.003.65-.673 1.297-1.355 1.297M3.739 43.42a.89.89 0 0 1 .642.583c.126.347.046.629-.244.86a2 2 0 0 1-.489.261l-1.09.463c-.095.041-.151.048-.188-.072-.045-.141-.108-.277-.174-.409-.05-.1-.032-.144.076-.187l1.057-.446c.09-.039.178-.086.26-.14.129-.086.197-.211.158-.368a.39.39 0 0 0-.326-.315c-.132-.025-.257 0-.379.052l-1.073.456c-.102.045-.169.055-.197-.075-.007-.029-.025-.057-.035-.085-.054-.149-.207-.312-.149-.436.05-.106.258-.141.4-.201l1.602-.678c.117-.05.176-.043.214.088.035.118.081.236.144.341.089.148.048.22-.109.255-.028.007-.054.028-.1.054m37.867 16.158c.106-.361.319-.563.636-.66.309-.093.577-.017.781.232.087.106.156.223.209.349l.532 1.263c.046.106.033.151-.076.19-.173.062-.365.222-.506.184-.149-.042-.163-.307-.24-.473-.138-.296-.232-.613-.399-.896-.108-.182-.256-.241-.42-.191-.183.056-.292.203-.302.401a.68.68 0 0 0 .069.304l.448 1.057c.058.129.03.185-.096.228a3.24 3.24 0 0 0-.393.162c-.085.042-.126.035-.165-.06l-.832-1.981c-.042-.098-.011-.128.069-.16.127-.049.258-.091.375-.158.145-.084.218-.045.257.107.005.022.021.043.052.104m-29.698-4.857c.256-.04.493-.006.706.152.362.268.449.63.229 1.025a2.23 2.23 0 0 1-.212.304l-.813.991c-.065.079-.11.119-.201.027a2.6 2.6 0 0 0-.343-.284c-.099-.07-.086-.12-.015-.204l.769-.932c.224-.279.23-.49.034-.652-.204-.167-.459-.117-.678.143l-.768.932c-.061.076-.103.082-.174.019l-.385-.321c-.066-.051-.064-.087-.013-.149l1.386-1.675c.052-.063.089-.068.149-.014.111.099.22.203.343.284.13.085.124.157.019.251-.021.018-.05.038-.034.1m-3.653-3.694c.325-.018.562.089.749.311.284.335.295.67.011 1.005s-.662.576-.993.864c-.121.105-.261.283-.376.271s-.203-.228-.319-.337c-.141-.133-.116-.214.031-.326l.863-.704a1.09 1.09 0 0 0 .132-.13c.152-.181.165-.33.049-.487-.12-.164-.311-.213-.513-.135-.1.039-.18.106-.262.173l-.858.711c-.077.065-.126.076-.191-.014-.113-.155-.329-.3-.33-.451s.255-.254.4-.375l1.273-1.053c.089-.075.148-.09.218.017.05.078.116.145.175.217.185.222.186.222-.059.444m11.496 10.417c-.233.107-.439.164-.668.097-.494-.145-.731-.512-.591-1.004.152-.534.42-1.027.624-1.544.018-.045.046-.074.098-.039.01.007.023.008.035.013.179.08.437.115.516.254.075.131-.109.342-.178.518l-.339.822c-.055.142-.073.295.04.421a.4.4 0 0 0 .402.137c.178-.04.28-.173.348-.333l.451-1.076c.06-.157.132-.182.269-.102.146.087.393.087.438.23.038.121-.103.301-.167.454l-.661 1.57c-.048.119-.101.152-.216.086-.08-.045-.168-.075-.254-.111-.253-.107-.253-.107-.146-.391" class="C"/><path d="M58.592 44.05c-.008.186.058.299.207.343s.261-.026.332-.163c.15-.288-.037-.578-.338-.679-.05-.017-.071.01-.081.048l-.121.451m.909-.168c.117.223.141.433.074.651-.13.418-.471.646-.835.556-.464-.114-.709-.471-.619-.924a6.57 6.57 0 0 1 .175-.681c.043-.135-.013-.163-.125-.166-.168-.005-.258.097-.326.231-.138.272-.125.562-.099.877l-.45-.186c-.072-.029-.079-.09-.074-.154.028-.355.096-.699.286-1.007.226-.366.55-.512.967-.385.507.155.98.404 1.471.602.071.028.07.074.043.133l-.117.272c-.107.252-.107.252-.371.18" class="B"/><path d="M5.819 49.687c-.206.004-.331.191-.262.376a.45.45 0 0 0 .575.26c.261-.089.275-.136.097-.334l-.203-.215c-.059-.054-.129-.096-.208-.087m-.114.942c-.357-.031-.586-.194-.732-.481-.15-.295-.117-.584.096-.805.247-.256.592-.335.878-.199a.98.98 0 0 1 .298.218l.365.397c.054.054.088.181.187.128.11-.057.152-.175.126-.305-.037-.187-.163-.316-.292-.441s-.282-.197-.458-.286l.401-.272c.048-.034.089-.038.133-.006.369.264.682.573.803 1.03.086.324-.031.593-.273.796-.413.346-.884.611-1.323.921-.055.039-.083.021-.115-.028l-.25-.369c-.084-.104-.069-.169.047-.223.028-.013.05-.034.109-.075" class="C"/><path d="M23.928 61.038c-.183.006-.316.115-.414.277-.038.063-.028.095.052.114l.66.172c.046.012.074.011.092-.05.079-.265-.096-.51-.389-.513m.631 1.481l-.098.405c-.016.072-.054.1-.126.109-.485.063-.943-.018-1.328-.327-.356-.286-.412-.683-.33-1.114.148-.779.803-1.226 1.516-1.027.614.171.89.667.74 1.328-.081.356-.081.355-.427.264l-1.02-.269c-.122-.035-.151-.004-.145.115.01.203.113.338.286.422.253.123.52.15.795.098.041-.008.082-.031.136-.003" class="B"/><path d="M35.211 61.506a.51.51 0 0 0-.452.477c.002.096.059.078.111.07l.654-.105c.038-.007.083.008.077-.067-.014-.197-.196-.378-.39-.374m.983 1.128l.034.21c.065.345.05.376-.268.506a2.13 2.13 0 0 1-.703.153c-.532.027-.937-.25-1.096-.762-.165-.531-.138-1.037.295-1.441.324-.303.724-.368 1.142-.25.409.115.598.438.683.828.092.423.086.421-.342.48l-.99.146c-.125.016-.12.068-.077.159.098.204.269.285.482.285.306-.001.578-.107.84-.314m-3.877-1.624l-.462.036c-.08.008-.118-.018-.11-.1-.048-.517-.048-.511.446-.533l1.945-.107c.141-.009.186.025.194.173.026.452.034.452-.42.459-.517.008-.505.007-.471.525l.103 2.08c.005.094-.021.128-.117.141-.62.085-.613.087-.638-.528l-.103-2.025c-.005-.113-.045-.135-.144-.124-.074.009-.148.002-.223.002m-1.586-.148l-.086-.025c-.482-.147-.549.144-.541.482.001.058.028.076.078.077.025.001.05.005.074.007.421.048.424.053.345.486-.011.059-.025.093-.091.082-.012-.002-.024-.002-.037-.003-.414-.021-.413-.021-.433.393l-.061 1.282c-.004.104-.041.139-.144.128l-.444-.025c-.118.002-.143-.044-.136-.154l.081-1.523c.008-.129-.023-.186-.155-.167-.192.028-.257-.061-.22-.243a.23.23 0 0 0 .003-.074c-.018-.185.046-.282.247-.237.131.028.161-.03.171-.156.046-.574.256-.846.715-.947.023-.005.048-.009.073-.012.558-.059.628.018.561.628" class="C"/><path d="M12.473 57.046c.078.058.095.141.138.206.14.212.317.38.559.469.074.027.147.024.206-.039s.056-.137.013-.206l-.364-.559c-.184-.326-.108-.668.182-.895.2-.156.429-.159.655-.1.358.095.639.316.882.59.043.049.052.087.01.144l-.278.405c-.103-.179-.214-.335-.373-.449a.64.64 0 0 0-.247-.123c-.162-.032-.255.071-.198.227.025.069.069.131.11.192l.203.289c.204.318.208.562.02.826-.179.251-.474.349-.812.255-.401-.112-.715-.359-.978-.674-.039-.047-.056-.088-.013-.147l.284-.413" class="B"/><path d="M16.28 56.639l-.301.494c-.055.083-.06.13.037.185.116.066.308.116.316.224.008.117-.131.241-.196.367-.045.09-.088.067-.157.03-.121-.064-.239-.226-.36-.175-.103.043-.153.214-.224.33l-.288.476c-.135.244-.067.405.202.469.092.022.123.043.058.127-.034.044-.058.095-.087.142-.156.257-.187.266-.462.127-.05-.025-.098-.053-.145-.083-.408-.254-.501-.591-.266-1.013l.503-.825c.09-.135.09-.217-.068-.274-.166-.06-.157-.155-.057-.271.016-.018.026-.042.038-.063.138-.226.141-.231.369-.095.088.052.121.029.17-.047.211-.326.214-.325.592-.221l.324.093m1.861 3.836l-.128.269c-.117.242-.134.25-.395.159a1.92 1.92 0 0 1-.204-.087c-.413-.209-.538-.527-.356-.955l.44-.919c.069-.13.044-.193-.085-.228-.18-.05-.205-.145-.097-.29.014-.02.021-.045.032-.067.11-.228.115-.237.335-.121.11.058.144.02.189-.072.164-.334.166-.333.527-.27.367.064.367.064.204.401-.15.311-.153.317.164.46.134.06.167.109.091.252-.173.324-.167.335-.487.17-.118-.062-.175-.064-.231.073-.089.217-.201.424-.303.636-.19.397-.127.521.304.59m4.478-1.025l-.179.581c-.031.087-.017.127.072.141.012.002.023.01.034.014.408.136.411.142.238.546-.025.058-.051.098-.121.064-.011-.005-.024-.005-.036-.007-.13-.025-.277-.157-.375-.082-.089.068-.094.244-.136.373l-.13.405c-.131.42-.061.525.386.548-.031.101-.077.197-.088.296-.022.226-.161.25-.336.211a1.97 1.97 0 0 1-.37-.113c-.352-.155-.478-.454-.363-.864l.288-.937c.048-.137.035-.21-.114-.229-.179-.023-.227-.107-.136-.267.018-.031.027-.07.032-.106.025-.18.11-.242.281-.149.117.064.168.023.206-.103.097-.329.104-.327.455-.323h.392" class="C"/><path d="M38.297 61.143c-.53-.128-.864-.034-1.024.279a.81.81 0 0 0 .172.89c.255.224.567.183 1.056-.148l.062.304c.065.298.064.315-.213.427-.478.194-.963.271-1.404-.08-.434-.345-.535-.826-.431-1.341.101-.5.46-.775.936-.9.196-.051.397-.09.605-.059.087.014.129.048.144.134l.096.494" class="B"/><path d="M55.907 44.164l.127.057 2.865 1.387c.116.056.144.1.072.214-.097.156-.117.419-.266.463-.128.039-.318-.123-.479-.2l-2.517-1.215c-.116-.055-.142-.101-.073-.215.076-.126.133-.264.196-.399.018-.04.036-.075.075-.092m-8.508 14.741c.002.046-.021.056-.043.069l-.063.039c-.159.093-.332.277-.473.255-.148-.023-.209-.281-.305-.438l-1.441-2.382c-.066-.108-.071-.169.052-.228.165-.079.327-.285.474-.242.129.038.202.276.295.429l1.437 2.384.068.115M1.387 42.904c-.02.001-.041-.003-.05-.033-.008-.023-.021-.045-.029-.068-.063-.186-.214-.403-.165-.552.052-.157.333-.163.515-.23l2.397-.879c.142-.053.191-.021.225.113.046.177.219.374.146.51-.064.12-.31.144-.477.206l-2.562.933M9.49 55.402l-.093-.081-.331-.299c-.107-.081-.096-.135-.009-.229l1.732-1.894.323-.359c.058-.069.101-.068.165-.006l.383.352c.062.054.059.091.005.15L9.57 55.329c-.023.026-.052.047-.081.073" class="C"/><path d="M33.323 1.302C33.158.719 32.739.37 32.103.29c-.196-.024-.389-.05-.589-.007-.541.119-.684.454-.368.923-.24.029-.473.007-.697-.028-.193-.03-.29-.463-.166-.663.08-.13.2-.217.332-.29a1.83 1.83 0 0 1 .815-.22c.709-.03 1.392.078 2.008.459.292.18.517.416.594.77.029.134-.017.154-.128.134-.191-.051-.386-.075-.585-.068l.004.002zM17.206 58.04l-.041.084-1.011 1.857c-.05.094-.092.131-.196.064a3.71 3.71 0 0 0-.406-.222c-.094-.044-.091-.089-.047-.17l1.011-1.857c.051-.095.095-.127.197-.062.135.086.281.155.42.234.028.016.076.021.072.072" class="B"/><path d="M4.467 49.247c-.059 0-.071-.048-.093-.082l-.251-.412c-.061-.088-.028-.125.048-.171l1.824-1.104c.084-.051.124-.043.171.042l.248.413c.044.068.056.105-.029.156L4.529 49.21l-.061.036m54.007-2.378l-.314.563c-.032.054-.079-.002-.112-.02l-1.884-1.028c-.081-.043-.107-.078-.053-.165a5.76 5.76 0 0 0 .241-.438c.036-.072.069-.083.141-.043l1.898 1.041c.036.02.084.028.083.089m-.246-5.415l.07.023 1.992.619c.112.034.148.078.102.195-.068.171-.071.424-.192.503s-.338-.073-.511-.126l-1.585-.495c-.115-.035-.169-.065-.113-.197.06-.142.096-.292.143-.44.015-.047.018-.106.095-.082" class="C"/><path d="M15.867 4.564l-.679-.185c-.218-.077-.408-.071-.589.078-.063.052-.12.075-.178-.021-.063-.104.03-.108.074-.147.669-.424.669-.427 1.443-.191.163.05.319.109.473-.015.047-.038.076-.018.101.028.02.037.056.068.024.117-.037.055-.558.334-.668.337m39.335 41.132c-.002-.245.189-.46.409-.46.196 0 .363.164.37.364.008.228-.201.457-.418.46a.36.36 0 0 1-.361-.364M6.954 47.754c-.223.004-.415-.188-.423-.425-.007-.215.149-.391.353-.395.211-.006.424.219.429.452.005.198-.158.364-.36.368m10.338 9.833c-.231-.004-.439-.198-.442-.413a.38.38 0 0 1 .383-.369c.234.008.437.201.438.417s-.162.368-.379.365m40.445-16.069c.001.246-.177.453-.393.454-.208.001-.368-.165-.366-.382.002-.254.175-.455.391-.453a.37.37 0 0 1 .367.382M39.71 1.598c-.007.178-.15.322-.318.318s-.317-.156-.316-.326c0-.18.16-.335.334-.324a.31.31 0 0 1 .3.331" class="B"/><path d="M33.319 1.299c.199-.007.393.016.585.068-.003.009-.007.017-.009.027-.189-.014-.392-.002-.576-.095" class="D"/><path d="M16.065 4.836c-.094.065-.183.139-.304.146l.002.002c.066-.091.176-.119.261-.185l.041.037" class="B"/><path d="M52.951 10.559l.024.036.003.049c-.032-.006-.047-.028-.058-.056l.031-.029" class="E"/><path d="M30.009 43.97l.003-2.867c0-.124-.028-.17-.162-.174l-1.241-.065c-1.137-.065-2.263-.22-3.382-.427-.19-.035-.192-.033-.131.155.248.766.537 1.516.89 2.24.554 1.139 1.218 2.201 2.155 3.07.481.446 1.02.803 1.646 1.015.223.075.223.075.223-.154V43.97m0-22.99l.003-2.831c.001-.159-.041-.203-.191-.139l-.448.176c-.908.432-1.598 1.12-2.19 1.913-.963 1.29-1.599 2.743-2.098 4.264-.071.217.072.148.159.132 1.511-.281 3.033-.452 4.57-.48.154-.003.199-.052.197-.205l-.003-2.831m-7.162 17.252c.035-.06.018-.11.009-.157a29.46 29.46 0 0 1-.498-4.636c-.005-.149-.041-.195-.197-.195l-5.667.005c-.055 0-.111-.013-.174.024l.091.294c.357.969 1.022 1.7 1.806 2.336 1.003.814 2.137 1.396 3.33 1.871l1.3.458m15.875.018c.666-.202 1.29-.436 1.9-.706 1.217-.54 2.363-1.194 3.326-2.132.583-.569 1.057-1.212 1.302-2.004.031-.1.05-.154-.095-.154l-5.777.001c-.092 0-.134.019-.132.122.002.142-.015.285-.02.427a28.03 28.03 0 0 1-.368 3.623l-.137.823m.013-11.554c.004.064 0 .113.009.159.298 1.532.448 3.079.498 4.637.006.182.07.204.225.203l5.594-.003c.237 0 .239 0 .166-.22-.277-.835-.799-1.502-1.435-2.089-.948-.875-2.055-1.496-3.226-2.011-.592-.26-1.196-.484-1.83-.678M31.57 43.939v.913l-.001 1.974c-.001.129.03.166.161.119l.483-.189c.963-.456 1.678-1.195 2.293-2.042.919-1.266 1.535-2.681 2.014-4.162.045-.14.004-.146-.115-.123-1.546.301-3.107.456-4.68.501-.142.004-.158.061-.157.178l.002 2.831m4.885-19.428c.135.008.079-.077.057-.144a16.53 16.53 0 0 0-.869-2.209c-.585-1.208-1.283-2.336-2.304-3.232-.475-.417-1.003-.743-1.61-.934-.098-.031-.164-.051-.163.106l.001 5.755a.13.13 0 0 0 .161.162 20.41 20.41 0 0 1 1.576.078l2.136.249 1.014.169m-17.144 7.18l2.842.003c.145.001.2-.024.205-.186l.239-3.021.254-1.596c.04-.204.033-.213-.155-.149l-.961.34c-1.385.539-2.7 1.205-3.822 2.201-.695.616-1.264 1.324-1.559 2.226-.048.146-.03.187.133.186l2.824-.004m7.118-13.149c-1.233.17-4.031 1.789-5.513 3.171a14.66 14.66 0 0 0-4.038 6.364c.065 0 .09-.039.121-.066a11.87 11.87 0 0 1 2.016-1.384c1.296-.718 2.67-1.24 4.095-1.635.134-.037.202-.094.239-.234l.298-.996c.55-1.662 1.267-3.241 2.328-4.646l.455-.574m8.784-.013l-.023.041.114.142a11.63 11.63 0 0 1 .975 1.358c.898 1.462 1.519 3.043 1.974 4.692a.29.29 0 0 0 .236.236l1.082.33c1.692.571 3.296 1.316 4.711 2.427l.458.375a14.61 14.61 0 0 0-4.128-6.481c-1.571-1.435-3.373-2.475-5.398-3.119m-8.251 14.724c-.948 0-1.895.006-2.842-.005-.186-.002-.228.05-.215.228l.177 2.276c.105.94.262 1.871.455 2.797.025.118.083.168.205.194l2.717.448 2.364.18c.147.007.187-.037.187-.185v-5.753c0-.149-.044-.187-.188-.186l-2.861.003m3.045-4.631l.004-2.812c.002-.181-.032-.242-.231-.236l-2.513.193-2.535.425c-.12.025-.172.083-.198.199-.369 1.685-.553 3.392-.63 5.113-.006.14.021.192.176.192l5.742-.001c.145 0 .189-.037.188-.186l-.004-2.887m4.633 4.631c-.954 0-1.908.005-2.861-.004-.174-.001-.215.05-.214.219v5.698c0 .157.028.218.2.209l2.403-.184 2.663-.439c.158-.034.206-.108.237-.25.373-1.672.545-3.368.625-5.076.007-.144-.036-.177-.173-.176l-2.88.003M31.57 28.64l-.003 2.849c0 .147.031.205.193.205h5.761c.136 0 .186-.029.174-.175l-.156-2.168c-.101-.977-.256-1.948-.466-2.909-.037-.17-.109-.23-.265-.263a27.74 27.74 0 0 0-5.031-.606c-.182-.005-.213.054-.212.218l.003 2.85m-14.65 8.228c-.005-.014-.01-.034-.029-.02-.005.004.004.028.006.043l.047.16c1.547 4.433 4.516 7.482 8.884 9.169.193.075.393.134.589.199-.26-.354-.524-.69-.764-1.043-1.079-1.584-1.783-3.336-2.298-5.171a.35.35 0 0 0-.286-.279c-1.609-.449-3.151-1.059-4.583-1.93-.551-.335-1.061-.727-1.565-1.127m27.766.005c-.345.26-.675.54-1.033.783-1.591 1.078-3.348 1.78-5.186 2.297-.131.037-.179.1-.211.216-.128.485-.28.962-.448 1.435-.613 1.722-1.408 3.343-2.605 4.743-.013.014-.04.031-.011.06.017-.002.036-.001.052-.007 4.65-1.603 7.793-4.727 9.423-9.376.017-.048.057-.099.016-.155l.026.003-.006-.023-.018.024m-30.04-4.408l-.004-9.145c0-.15.048-.23.176-.304l15.765-9.123c.158-.092.27-.096.431-.003l15.781 9.132c.126.073.163.152.163.292v18.309c0 .131-.027.21-.149.28l-15.798 9.141c-.154.089-.261.092-.416.002l-15.797-9.141c-.121-.07-.153-.145-.153-.277l.003-9.164M15.654 5.06l-.054.025-.004-.016.062-.006-.004-.003z" fill="#fdfdfe"/><path d="M15.658 5.063l.008-.036c.006.014-.003.023-.012.033m.107-.079c.008.018.003.03-.017.033-.003-.016.008-.023.02-.031l-.002-.002zm-.775 3.245l-.004-.024.021.004-.022.017.005.003z" class="B"/><path d="M4.996 15.392c-.014.008-.032.025-.04.021-.03-.015-.01-.036 0-.054l.04.033" fill="#fefefe"/><path d="M10.097 9.404l.012.028-.009-.025" fill="#fdfdfe"/><path d="M52.773 10.441c-.097-.077-.191-.157-.272-.312.156.08.226.184.303.278l-.032.033" class="B"/><path d="M52.914 10.522l.036.038-.031.029-.037-.037.032-.03" class="E"/><g class="B"><path d="M52.882 10.552l-.037-.037.033-.03.037.038-.032.03"/><path d="M52.845 10.514l-.036-.038.032-.03.036.038-.033.03"/><path d="M52.805 10.408l.036.038-.032.03-.036-.036.032-.033"/></g><g fill="#fefefe"><path d="M48.868 8.65c-.002-.022-.014-.06-.006-.064.03-.016.029.02.041.034l-.035.03m-4.497-1.857c.014-.015.029-.021.046-.003l-.027.02-.019-.017m-6.976-4.51c-.018.009-.021.002-.025-.002.017-.009.021-.002.025.002"/><path d="M41.763 3.586c-.007-.014-.022-.036-.018-.04.019-.021.039-.011.055.007l-.037.033zm8.238 50.686l.023.016-.021.005.002-.024-.004.003zM5.365 46.459l-.04.016v-.045l.04.029m49.913 1.708l.026-.005c-.007.011-.015.006-.023 0l-.002.005zm-2.777 5.574l.018.04-.045-.008.027-.032"/></g><path d="M31.57 28.64l-.003-2.85c-.001-.163.03-.222.212-.217 1.697.043 3.372.256 5.031.605.156.033.228.093.265.263a26.32 26.32 0 0 1 .466 2.909l.156 2.169c.011.146-.038.175-.174.174a1127.5 1127.5 0 0 0-5.761.001c-.162 0-.194-.057-.193-.205l.003-2.85m3.07 4.613l2.88-.003c.138-.001.18.032.173.176-.08 1.708-.252 3.404-.625 5.076-.032.142-.079.216-.238.25l-2.663.439-2.402.184c-.173.009-.201-.052-.201-.209v-5.698c0-.169.041-.22.214-.218l2.862.004m-4.633-4.632l.004 2.887c.001.149-.043.186-.188.186a1069.12 1069.12 0 0 0-5.742.001c-.155 0-.182-.051-.176-.192.077-1.721.262-3.428.63-5.113.026-.116.078-.174.198-.199l2.535-.425 2.513-.193c.2-.006.233.056.231.236l-.004 2.812m-3.047 4.631l2.861-.003c.145-.001.188.037.188.186v5.753c0 .147-.04.192-.186.185l-2.365-.18-2.717-.448c-.123-.026-.18-.077-.205-.195l-.455-2.797-.177-2.276c-.013-.178.029-.23.215-.228l2.842.005" class="E"/><g class="D"><path d="M16.92 36.868l1.565 1.127c1.433.871 2.975 1.481 4.583 1.93a.35.35 0 0 1 .286.28c.516 1.835 1.219 3.587 2.298 5.171l.764 1.043-.589-.199c-4.368-1.687-7.337-4.736-8.884-9.169-.018-.053-.032-.107-.047-.16a.35.35 0 0 0 .023-.022m18.295-18.341a14.37 14.37 0 0 1 5.398 3.119 14.61 14.61 0 0 1 4.128 6.481l-.458-.375c-1.415-1.111-3.019-1.856-4.711-2.427l-1.082-.33a.29.29 0 0 1-.236-.236c-.455-1.649-1.076-3.229-1.974-4.692-.293-.476-.617-.93-.975-1.358l-.114-.142.023-.04z"/><path d="M26.43 18.541l-.455.574c-1.061 1.405-1.777 2.984-2.328 4.646l-.298.996a.29.29 0 0 1-.239.234c-1.425.394-2.799.916-4.095 1.634-.716.397-1.395.849-2.016 1.385-.031.027-.057.065-.122.065a14.68 14.68 0 0 1 4.038-6.364c1.482-1.381 4.28-3 5.513-3.17M44.684 36.87c.041.057.001.107-.016.155-1.63 4.65-4.773 7.773-9.423 9.376-.016.006-.035.005-.052.007-.03-.028-.002-.045.01-.06 1.197-1.4 1.993-3.021 2.605-4.743a17.92 17.92 0 0 0 .448-1.435.26.26 0 0 1 .21-.215c1.837-.518 3.595-1.22 5.186-2.298.358-.243.689-.523 1.034-.783l-.003-.004zm-25.372-5.18c-.941 0-1.882-.004-2.824.003-.164.001-.181-.04-.133-.186.294-.901.863-1.609 1.558-2.226 1.123-.995 2.437-1.661 3.823-2.2l.96-.34c.187-.064.195-.055.155.149l-.254 1.596c-.135 1.003-.206 2.011-.239 3.021-.005.162-.06.187-.205.186l-2.842-.003"/></g><path d="M36.456 24.51l-1.014-.169-2.136-.249-1.576-.078a.13.13 0 0 1-.161-.163l-.001-5.754c0-.157.065-.136.163-.106.606.191 1.135.517 1.609.934 1.021.896 1.72 2.025 2.304 3.232a16.63 16.63 0 0 1 .869 2.209c.021.067.078.152-.057.144M31.57 43.939l-.002-2.831c0-.117.015-.174.157-.178 1.572-.045 3.134-.201 4.68-.501.118-.023.16-.016.115.123-.478 1.481-1.095 2.896-2.013 4.162-.615.847-1.33 1.586-2.293 2.042-.157.074-.32.129-.483.189-.131.047-.163.01-.162-.119l.001-1.974v-.913z" class="E"/><path d="M38.734 26.696c.634.194 1.238.418 1.83.678 1.171.514 2.279 1.136 3.227 2.011.636.586 1.157 1.254 1.435 2.089.073.219.071.219-.166.219-1.865 0-3.729-.002-5.594.003-.155 0-.219-.021-.225-.204a29.12 29.12 0 0 0-.497-4.637c-.009-.046-.006-.095-.009-.159m-.013 11.554l.137-.823a28.12 28.12 0 0 0 .368-3.624l.02-.427c-.002-.103.04-.121.131-.121l5.777-.001c.145 0 .126.053.095.153-.245.792-.719 1.435-1.302 2.005-.962.939-2.108 1.592-3.326 2.132a16.4 16.4 0 0 1-1.9.707m-15.875-.019a14.5 14.5 0 0 1-1.3-.458c-1.193-.475-2.327-1.057-3.33-1.87-.784-.636-1.449-1.367-1.806-2.336-.036-.097-.061-.199-.09-.295.062-.037.12-.024.174-.024l5.666-.005c.157 0 .192.046.197.195a29.44 29.44 0 0 0 .498 4.636c.009.047.026.097-.009.157" class="D"/><path d="M30.009 20.98l.003 2.831c.001.153-.043.202-.197.205-1.537.028-3.059.199-4.57.48-.087.016-.23.085-.159-.132.499-1.522 1.136-2.975 2.098-4.265.592-.793 1.281-1.48 2.19-1.913.144-.069.3-.113.448-.176s.192-.02.191.139l-.003 2.831m-.001 22.99v2.793c0 .229 0 .229-.223.154-.626-.212-1.165-.569-1.646-1.015-.937-.868-1.601-1.931-2.155-3.07-.352-.725-.642-1.474-.89-2.24-.061-.188-.058-.189.131-.155 1.12.206 2.246.362 3.382.427l1.241.065c.134.004.162.05.162.174l-.003 2.867" class="E"/><path d="M16.896 36.891c-.002-.014-.011-.038-.006-.043.019-.014.024.006.029.02a.24.24 0 0 1-.023.022m27.79-.017l.018-.024.006.023-.026-.003" class="D"/></g></svg>