<?xml version="1.0" encoding="UTF-8"?>
<svg width="66px" height="66px" viewBox="0 0 66 66" version="1.1" xmlns="http://www.w3.org/2000/svg" xmlns:xlink="http://www.w3.org/1999/xlink">
    <!-- Generator: Sketch 63.1 (92452) - https://sketch.com -->
    <title>Group 15</title>
    <desc>Created with Sketch.</desc>
    <g id="Web-Responsive-Copy" stroke="none" stroke-width="1" fill="none" fill-rule="evenodd">
        <g id="1" transform="translate(-395.000000, -527.000000)">
            <g id="Group-15" transform="translate(396.000000, 528.000000)">
                <polygon id="Fill-1" fill="#2B9ECC" points="21.4266946 42.5513088 42.6655612 42.5513088 42.6655612 21.3213312 21.4266946 21.3213312"></polygon>
                <polygon id="Stroke-2" stroke="#FFFFFF" stroke-width="0.52" points="21.4266946 42.5513088 42.6655612 42.5513088 42.6655612 21.3213312 21.4266946 21.3213312"></polygon>
                <polygon id="Fill-3" fill="#FFFFFF" points="21.4266946 21.2782752 42.6655612 21.2782752 42.6655612 0.0482976 21.4266946 0.0482976"></polygon>
                <polygon id="Stroke-4" stroke="#32A2CE" stroke-width="0.8453952" points="21.4266946 21.2782752 42.6655612 21.2782752 42.6655612 0.0482976 21.4266946 0.0482976"></polygon>
                <polygon id="Fill-6" fill="#FFFFFF" points="21.4266946 63.7221312 42.6655612 63.7221312 42.6655612 42.4921536 21.4266946 42.4921536"></polygon>
                <polygon id="Stroke-7" stroke="#32A2CE" stroke-width="0.8453952" points="21.4266946 63.7221312 42.6655612 63.7221312 42.6655612 42.4921536 21.4266946 42.4921536"></polygon>
                <polygon id="Fill-9" fill="#2B9ECC" points="42.6655612 42.5513088 63.9048142 42.5513088 63.9048142 21.3213312 42.6655612 21.3213312"></polygon>
                <polygon id="Stroke-10" stroke="#FFFFFF" stroke-width="0.52" points="42.6655612 42.5513088 63.9048142 42.5513088 63.9048142 21.3213312 42.6655612 21.3213312"></polygon>
                <polygon id="Fill-12" fill="#2B9ECC" points="0.187441548 42.5513088 21.4266946 42.5513088 21.4266946 21.3213312 0.187441548 21.3213312"></polygon>
                <polygon id="Stroke-13" stroke="#FFFFFF" stroke-width="0.52" points="0.187441548 42.5513088 21.4266946 42.5513088 21.4266946 21.3213312 0.187441548 21.3213312"></polygon>
                <text id="I" font-family="LucidaGrande, Lucida Grande" font-size="12.542063" font-weight="normal" fill="#2F82AA">
                    <tspan x="30.2254328" y="12.0175438">I</tspan>
                </text>
                <text id="T" font-family="LucidaGrande, Lucida Grande" font-size="12.542063" font-weight="normal" fill="#2F82AA">
                    <tspan x="28.7448287" y="54.4975113">T</tspan>
                </text>
                <text id="&amp;" font-family="LucidaGrande, Lucida Grande" font-size="12.542063" font-weight="normal" fill="#FFFFFF">
                    <tspan x="28.7448287" y="33.8532755">&amp;</tspan>
                </text>
                <text id="C" font-family="LucidaGrande, Lucida Grande" font-size="12.542063" font-weight="normal" fill="#FFFFFF">
                    <tspan x="49.7744251" y="33.7654811">C</tspan>
                </text>
                <text id="E" font-family="LucidaGrande, Lucida Grande" font-size="12.542063" font-weight="normal" fill="#FFFFFF">
                    <tspan x="7.33880766" y="34.1919112">E</tspan>
                </text>
            </g>
        </g>
    </g>
</svg>