<svg width="183" height="97" viewBox="0 0 183 97" fill="none" xmlns="http://www.w3.org/2000/svg">
<rect width="183" height="97" fill="#A6A6A6"/>
<g id="about us">
<rect width="1440" height="9304" transform="translate(-629 -2419)" fill="white"/>
<path id="USP" d="M49.8375 49.9V32.4H57.1875V50.65C57.1875 57.05 59.1875 59.25 62.8375 59.25C66.4875 59.25 68.6375 57.05 68.6375 50.65V32.4H75.7375V49.9C75.7375 60.85 71.2875 65.6 62.8375 65.6C54.3875 65.6 49.8375 60.85 49.8375 49.9ZM80.5535 60.9L84.8035 55.85C87.1035 57.85 90.1035 59.25 92.8035 59.25C95.8535 59.25 97.3535 58.05 97.3535 56.1C97.3535 54.05 95.5035 53.4 92.6535 52.2L88.4535 50.4C85.0535 49.05 81.8535 46.25 81.8535 41.5C81.8535 36.1 86.7035 31.8 93.4535 31.8C97.2035 31.8 101.154 33.3 103.954 36.1L100.254 40.75C98.1035 39.1 96.0535 38.15 93.4535 38.15C90.9535 38.15 89.3035 39.25 89.3035 41.1C89.3035 43.1 91.4535 43.8 94.3035 44.95L98.4535 46.65C102.404 48.25 104.904 50.9 104.904 55.5C104.904 60.9 100.404 65.6 92.6535 65.6C88.4035 65.6 83.9035 64 80.5535 60.9ZM110.339 65V32.4H122.239C129.339 32.4 134.989 35 134.989 42.9C134.989 50.55 129.139 53.95 122.239 53.95H117.739V65H110.339ZM117.739 48.1H121.789C125.839 48.1 127.789 46.3 127.789 42.9C127.789 39.5 125.689 38.25 121.789 38.25H117.739V48.1Z" fill="#03045E"/>
<g id="Group 121">
<path id="Vector 22" d="M67 19L52.0349 3.63044C50.0903 1.63328 46.8881 1.61193 44.917 3.58299L3.5539 44.9461C1.59412 46.9059 1.60236 50.0858 3.57227 52.0354L45.0614 93.0969C46.9785 94.9942 50.0551 95.029 52.0146 93.1754L67 79" stroke="#307B74" stroke-width="3"/>
<path id="Vector 23" d="M116 19L130.965 3.63044C132.91 1.63328 136.112 1.61193 138.083 3.58299L179.446 44.9461C181.406 46.9059 181.398 50.0858 179.428 52.0354L137.939 93.0969C136.021 94.9942 132.945 95.029 130.985 93.1754L116 79" stroke="#307B74" stroke-width="3"/>
</g>
</g>
</svg>
