<svg width="139" height="139" viewBox="0 0 139 139" fill="none" xmlns="http://www.w3.org/2000/svg">
<g id="Layer_1" clip-path="url(#clip0_859_159)">
<path id="Vector" d="M51.2644 102.229L46.9393 106.724L50.4511 109.489C49.9488 110.066 49.7802 110.276 49.5928 110.467C41.2948 118.765 33.0194 127.086 24.684 135.343C18.5748 141.398 8.81891 139.667 5.39704 131.99C3.37315 127.457 4.34762 122.452 8.05058 118.717C12.788 113.936 17.5666 109.193 22.3265 104.432C22.6788 104.079 23.0161 103.709 23.5258 103.177H0V-0.00012207H138.996V103.117H137.34C120.736 103.117 104.134 103.123 87.5332 103.135C86.7979 103.126 86.0697 103.28 85.4007 103.585C74.1306 109.25 63.0329 109.014 52.0852 102.705C51.8078 102.543 51.5267 102.39 51.2644 102.229ZM43.9072 52.0266C50.8184 44.3951 59.2925 40.274 69.5581 40.2927C79.8237 40.3115 88.2753 44.4738 95.0816 52.0303L98.6384 50.3032C92.2069 43.9343 93.5187 35.5985 97.8513 31.0541C100.162 28.5899 103.317 27.0866 106.687 26.8436C110.057 26.6005 113.396 27.6357 116.036 29.7428C117.426 30.8226 118.584 32.1714 119.44 33.7086C120.297 35.2458 120.834 36.9397 121.021 38.6893C121.557 43.2562 119.923 47.085 116.681 50.3032C126.737 55.8741 131.298 63.2097 129.941 71.7066H103.136C103.567 82.2378 100.01 91.0981 92.4693 98.5273H134.499V22.4298H4.47504V98.6434C12.2333 98.6434 19.8978 98.6434 27.5624 98.6135C28.0536 98.5395 28.5032 98.2955 28.8329 97.9241C30.3771 96.3768 31.8725 94.7808 33.649 92.9263L36.7598 96.5229L41.1299 92.2594C36.8198 84.0398 36.0815 81.983 35.7441 71.6878H8.86014C8.5603 61.4264 13.0428 54.3831 22.304 50.3594C15.8088 43.8968 17.1881 35.4636 21.6856 30.9079C24.0586 28.47 27.2679 27.0217 30.6667 26.8549C34.0655 26.688 37.4012 27.815 40.0018 30.0088C41.3419 31.1128 42.4495 32.4717 43.2601 34.0069C44.0708 35.542 44.5684 37.2227 44.7242 38.9516C45.159 43.4061 43.5624 47.1675 40.3166 50.3332L43.9072 52.0266ZM4.48254 4.44693V17.7393H134.536V4.44693H4.48254ZM69.4756 103.117C75.247 103.119 80.8895 101.41 85.6895 98.2072C90.4895 95.004 94.2316 90.4499 96.4424 85.1209C98.6532 79.7919 99.2336 73.9273 98.1101 68.2686C96.9866 62.6099 94.2097 57.4113 90.1306 53.3301C86.0514 49.249 80.8532 46.4685 75.1932 45.3404C69.5333 44.2122 63.6657 44.7872 58.3326 46.9923C52.9995 49.1975 48.4402 52.9339 45.2314 57.7291C42.0226 62.5243 40.3084 68.1629 40.3054 73.9319C40.3153 81.6646 43.3909 89.0782 48.8585 94.5485C54.3261 100.019 61.7398 103.1 69.4756 103.117ZM33.3904 99.7186C31.5614 101.554 29.6425 103.465 27.7685 105.376C22.2391 110.898 16.7133 116.419 11.1914 121.939C8.22299 124.936 8.08057 129.203 10.7828 132.144C13.6575 135.272 18.2787 135.373 21.3933 132.279C28.7267 125.003 36.0365 117.703 43.3225 110.377C43.4388 110.256 43.5442 110.124 43.6373 109.984L33.3904 99.7186ZM13.5263 67.2146H17.9377C23.732 67.2146 29.5263 67.2146 35.3206 67.1884C35.7591 67.1884 36.5087 66.8662 36.5799 66.5665C37.526 62.7012 39.0943 59.0153 41.2236 55.6531C39.9231 55.1661 38.7837 54.4842 37.5806 54.3456C34.6722 54.0159 31.7226 53.705 28.8104 53.8361C26.6251 53.9205 24.4746 54.4109 22.4689 55.2822C17.4654 57.5488 14.5645 61.595 13.5076 67.2146H13.5263ZM125.406 67.2146C125.372 66.7961 125.316 66.3796 125.238 65.967C123.78 60.3474 120.365 56.4811 114.871 54.5929C111.018 53.2704 107.019 53.5664 103.08 54.0085C101.288 54.2108 99.5641 54.9937 97.6789 55.5482C99.8217 58.8912 101.405 62.5608 102.368 66.4128C102.457 66.6133 102.595 66.7888 102.768 66.924C102.941 67.0592 103.144 67.15 103.361 67.1884C110.624 67.2258 117.91 67.2146 125.387 67.2146H125.406ZM40.3279 40.2403C40.3197 38.462 39.7842 36.7261 38.789 35.252C37.7938 33.7779 36.3837 32.6319 34.737 31.9589C33.0903 31.286 31.2809 31.1161 29.5376 31.4711C27.7944 31.826 26.1955 32.6897 24.9433 33.9529C23.6912 35.2161 22.8418 36.8222 22.5027 38.5679C22.1637 40.3136 22.3501 42.1206 23.0384 43.7605C23.7267 45.4003 24.8861 46.7993 26.3698 47.7805C27.8535 48.7617 29.595 49.281 31.374 49.2729C33.7564 49.2541 36.034 48.2913 37.7071 46.5958C39.3801 44.9003 40.3119 42.6105 40.2979 40.2291L40.3279 40.2403ZM116.662 40.3265C116.671 38.548 116.152 36.8069 115.171 35.3232C114.19 33.8396 112.791 32.6801 111.15 31.9915C109.51 31.3029 107.702 31.1161 105.955 31.4546C104.209 31.7931 102.601 32.6418 101.337 33.8934C100.073 35.1449 99.2089 36.743 98.8535 38.4857C98.4981 40.2283 98.6677 42.0372 99.3409 43.6835C100.014 45.3297 101.16 46.7395 102.635 47.7345C104.11 48.7294 105.847 49.2647 107.626 49.2729C110.008 49.2759 112.293 48.3346 113.982 46.6554C115.67 44.9761 116.623 42.696 116.632 40.3152L116.662 40.3265ZM40.4253 99.565L43.5136 102.892L47.0479 99.4976L43.9484 96.2344L40.4253 99.565Z" fill="#1184ED"/>
<path id="Vector_2" d="M31.2506 76.281V80.6119H8.97656V76.281H31.2506Z" fill="#1184ED"/>
<path id="Vector_3" d="M107.724 80.5857V76.2623H130.001V80.5857H107.724Z" fill="#1184ED"/>
<path id="Vector_4" d="M8.98389 85.2163H31.2317V89.5809H8.98389V85.2163Z" fill="#1184ED"/>
<path id="Vector_5" d="M130.046 85.265V89.5809H107.772V85.265H130.046Z" fill="#1184ED"/>
<path id="Vector_6" d="M58.3369 26.8881H62.6545V31.2265H58.3369V26.8881Z" fill="#1184ED"/>
<path id="Vector_7" d="M71.6834 26.9255V31.2152H67.3208V26.9255H71.6834Z" fill="#1184ED"/>
<path id="Vector_8" d="M80.6521 26.9255V31.2452H76.3345V26.9255H80.6521Z" fill="#1184ED"/>
<path id="Vector_9" d="M13.2864 13.2997H8.96875V8.96143H13.2864V13.2997Z" fill="#1184ED"/>
<path id="Vector_10" d="M17.9375 8.94275H22.2401V13.2811H17.9375V8.94275Z" fill="#1184ED"/>
<path id="Vector_11" d="M26.9102 8.94275H31.2203V13.2736H26.9102V8.94275Z" fill="#1184ED"/>
<path id="Vector_12" d="M44.7954 73.8834C44.8036 69.0016 46.2596 64.2318 48.9794 60.1771C51.6992 56.1224 55.5607 52.9649 60.0756 51.1037C64.5906 49.2426 69.5562 48.7614 74.3447 49.721C79.1332 50.6805 83.5295 53.0378 86.9779 56.4947C90.4262 59.9516 92.7718 64.353 93.7179 69.1423C94.6641 73.9316 94.1683 78.8938 92.2934 83.4015C90.4185 87.9092 87.2486 91.76 83.1844 94.467C79.1203 97.174 74.3444 98.6158 69.4606 98.6098C62.9125 98.591 56.6389 95.9775 52.0153 91.3425C47.3918 86.7074 44.7954 80.429 44.7954 73.8834ZM69.5768 53.7539C58.4567 53.7239 49.3379 62.7228 49.2854 73.786C49.2528 77.7838 50.4079 81.7012 52.6043 85.0423C54.8008 88.3834 57.9398 90.9977 61.6238 92.5542C65.3077 94.1106 69.3709 94.5391 73.2988 93.7855C77.2266 93.0319 80.8423 91.13 83.6879 88.3207C86.5336 85.5114 88.4811 81.9211 89.2839 78.0046C90.0867 74.088 89.7086 70.0214 88.1975 66.3199C86.6864 62.6183 84.1103 59.4482 80.7955 57.2113C77.4807 54.9743 73.5763 53.7711 69.5768 53.7539Z" fill="#1184ED"/>
<path id="Vector_13" d="M80.6521 62.8276V67.1398H58.3818V62.8276H80.6521Z" fill="#1184ED"/>
<path id="Vector_14" d="M58.3291 76.0937V71.774H80.6031V76.0937H58.3291Z" fill="#1184ED"/>
<path id="Vector_15" d="M80.6558 80.7805V85.0889H58.333V80.7805H80.6558Z" fill="#1184ED"/>
</g>
<defs>
<clipPath id="clip0_859_159">
<rect width="139" height="139" fill="white"/>
</clipPath>
</defs>
</svg>
