<svg width="120" height="160" viewBox="0 0 120 160" fill="none" xmlns="http://www.w3.org/2000/svg">
<g id="awards" clip-path="url(#clip0_827_11)">
<path id="Vector" d="M35.3633 160C34.5548 158.971 33.4324 158.061 32.9916 156.897C30.6326 150.664 28.4226 144.376 26.2252 138.074C25.8606 137.026 25.4452 136.747 24.3228 136.988C17.8513 138.372 11.3513 139.639 4.87659 141.016C3.29122 141.352 1.93733 141.264 0.925859 139.903C-0.085609 138.541 0.352003 137.192 1.13518 135.824C7.09618 125.471 13.0127 115.093 18.9959 104.765C19.5984 103.721 19.5477 103.15 18.6472 102.29C-10.5237 74.5317 -4.61024 27.407 30.5121 7.62037C34.8586 5.17522 39.5078 3.29915 44.3429 2.03922C46.702 1.41177 48.4649 2.16783 48.931 4.02509C49.3971 5.88234 48.3571 7.38509 46.0012 8.06588C27.538 13.3992 14.9279 25.0478 8.93516 43.0996C-1.21122 73.6251 18.5077 105.886 50.51 111.614C79.2052 116.75 106.743 98.2777 112.657 69.9263C118.345 42.6573 101.353 15.338 74.1828 8.10352C72.9145 7.76783 71.5764 7.3694 71.2879 6.02038C71.0923 4.98283 71.2425 3.9105 71.7159 2.9647C72.3691 1.72862 73.7547 1.51844 75.0579 1.88236C77.2298 2.49098 79.4304 3.06824 81.5072 3.92157C102.983 12.7435 115.995 28.4612 119.328 51.2439C122.226 71.04 115.84 88.0972 101.492 102.18C100.541 103.122 100.421 103.749 101.096 104.9C107.063 115.186 112.976 125.506 118.833 135.859C119.387 136.881 119.583 138.056 119.391 139.2C119.052 140.841 117.394 141.468 115.456 141.082C108.868 139.733 102.276 138.406 95.6995 137.004C94.5707 136.762 94.1521 137.035 93.797 138.089C91.6219 144.329 89.3579 150.538 87.1543 156.775C86.6691 158.149 86.0192 159.322 84.6621 160.003H82.7596C81.9416 159.09 80.9396 158.281 80.3403 157.245C73.853 146.064 67.4058 134.862 60.9988 123.639C60.7229 123.159 60.4154 122.698 60.0254 122.071C59.6354 122.698 59.331 123.162 59.0551 123.639C52.6122 134.845 46.165 146.048 39.7136 157.245C39.1112 158.281 38.1092 159.09 37.2943 160.003L35.3633 160ZM36.9678 149.371C42.97 138.924 48.7915 128.794 54.6985 118.522C43.8797 117.524 33.5261 113.687 24.7064 107.407L9.7215 133.547C10.4603 133.456 10.8789 133.431 11.2847 133.346C16.3812 132.3 21.4734 131.254 26.5614 130.209C28.8855 129.729 30.119 130.403 30.937 132.64C31.9168 135.329 32.8584 138.03 33.8287 140.722C34.8275 143.489 35.8358 146.256 36.9678 149.362V149.371ZM110.332 133.628L95.5567 107.865C90.6294 110.278 85.9874 113.013 81.0126 114.861C76.0377 116.709 70.7679 117.647 65.5742 118.999L83.0133 149.333C83.3304 148.483 83.5301 148.009 83.7013 147.529C85.496 142.535 87.2748 137.534 89.0916 132.546C89.8653 130.409 91.1463 129.722 93.3721 130.18C95.5346 130.624 97.6959 131.066 99.8563 131.507L110.332 133.628Z" fill="#F2A10B"/>
<path id="Vector_2" d="M12.6226 59.4102C12.5972 33.5686 33.8665 12.4957 59.9935 12.4926C86.1204 12.4894 107.396 33.5561 107.377 59.4008C107.355 85.1828 86.1331 106.193 60.0854 106.243C33.9775 106.293 12.6511 85.2486 12.6226 59.4102ZM18.9387 59.2941C18.9006 81.691 37.329 99.9781 59.9649 99.9969C82.5406 99.9969 100.979 81.8541 101.061 59.5263C101.143 37.1232 82.75 18.8047 60.114 18.742C37.4781 18.6792 18.9767 36.8941 18.9419 59.2941H18.9387Z" fill="#F2A10B"/>
<path id="Vector_3" d="M59.9939 4.75357e-06C60.6193 -0.00107656 61.2308 0.182342 61.7504 0.526851C62.2699 0.871359 62.6739 1.36131 62.9107 1.9341C63.1474 2.50688 63.2062 3.13649 63.0795 3.7425C62.9528 4.3485 62.6465 4.90338 62.1995 5.33625C61.7526 5.76911 61.1853 6.06029 60.5703 6.17261C59.9552 6.28493 59.3203 6.21328 58.7466 5.9668C58.1729 5.72033 57.6865 5.31021 57.3495 4.78888C57.0125 4.26754 56.8403 3.65865 56.8548 3.03999C56.8802 2.2303 57.2211 1.46171 57.8062 0.895072C58.3912 0.328439 59.1752 0.00771726 59.9939 4.75357e-06Z" fill="#F2A10B"/>
<path id="Vector_4" d="M40.1351 82.789C40.7883 78.8611 41.1751 74.7858 42.2025 70.8674C43.1759 67.1843 42.5195 64.5678 39.4343 62.1301C36.4443 59.7803 33.9268 56.8439 31.1683 54.196C30.0997 53.1702 29.5036 52.0345 30.0045 50.5694C30.5055 49.1043 31.6692 48.5835 33.1468 48.3733C38.1439 47.6737 43.1283 46.8862 48.1222 46.1772C48.5586 46.1472 48.9778 45.9975 49.3329 45.7448C49.688 45.492 49.965 45.1464 50.1325 44.7466C52.333 40.2541 54.6254 35.8086 56.8608 31.3317C57.495 30.036 58.3447 29.0603 59.9301 29.0321C61.5947 29.0007 62.4666 29.9984 63.1515 31.3505C65.371 35.7803 67.6381 40.1756 69.8101 44.6243C70.3079 45.6439 70.9674 46.058 72.055 46.1929C77.0521 46.8894 82.0397 47.6611 87.0336 48.389C88.4478 48.5929 89.5417 49.1827 90.0014 50.5851C90.4612 51.9874 89.9507 53.0948 88.9265 54.1019C85.2421 57.6721 81.5926 61.2799 77.8955 64.8344C77.5813 65.0977 77.3491 65.444 77.2262 65.8328C77.1033 66.2216 77.0946 66.637 77.2011 67.0305C78.1143 72.0972 78.9355 77.1827 79.7979 82.2588C80.0199 83.5545 79.6648 84.6588 78.6216 85.4588C77.4516 86.3529 76.2023 86.2745 74.9214 85.6125C70.4031 83.2753 65.8594 80.9913 61.3664 78.6101C60.3581 78.0737 59.6004 78.1176 58.6143 78.6384C54.116 81.0101 49.5913 83.3338 45.0403 85.6094C42.5639 86.8643 40.0717 85.4243 40.1351 82.789ZM72.5401 77.3364C71.9504 73.8196 71.5667 70.5662 70.8279 67.3945C70.1937 64.7152 70.7519 62.7545 72.8826 60.8941C75.3875 58.698 77.5753 56.16 79.9819 53.6784C76.6304 53.1796 73.2789 52.5458 69.8925 52.2133C67.3781 51.9654 65.7706 50.9584 64.7369 48.6023C63.3735 45.465 61.6962 42.4847 59.9998 39.1341C58.3066 42.4784 56.6325 45.4713 55.2659 48.5929C54.2386 50.9458 52.6374 51.9654 50.1166 52.2133C46.7303 52.5458 43.3756 53.1827 39.7641 53.7255C40.3285 54.3121 40.7153 54.7262 41.1085 55.1184C43.4327 57.3866 45.7473 59.6611 48.0841 61.9043C49.2383 63.0054 49.6695 64.207 49.3778 65.8321C48.6739 69.5529 48.1095 73.3019 47.4595 77.3396C50.8871 75.5858 54.1181 74.0706 57.1874 72.32C59.1438 71.2062 60.8242 71.1937 62.7806 72.2948C65.8689 74.0423 69.0935 75.5702 72.5274 77.3364H72.5401Z" fill="#F2A10B"/>
</g>
<defs>
<clipPath id="clip0_827_11">
<rect width="120" height="160" fill="white"/>
</clipPath>
</defs>
</svg>
