<svg width="125" height="153" viewBox="0 0 125 153" fill="none" xmlns="http://www.w3.org/2000/svg">
<g id="hiring icon" clip-path="url(#clip0_827_16)">
<path id="Vector" d="M117.618 0C119.261 0.935505 121.113 1.63149 122.497 2.86635C124.516 4.67001 125 7.24828 125 9.95002C124.982 45.5591 124.982 81.1682 125 116.777C125 125.541 125 134.306 125 143.072C125 149.322 121.364 153 115.197 153H9.80212C3.63497 153 0.00335851 149.318 0.00335851 143.069C0.00335851 117.124 0.00335851 91.1793 0.00335851 65.2346C-0.0177044 64.5891 0.0380402 63.9433 0.169422 63.3112C0.32314 62.6775 0.683188 62.1149 1.19134 61.7143C1.6995 61.3137 2.32605 61.0986 2.9697 61.1038C3.61334 61.109 4.23647 61.3342 4.73827 61.7429C5.24008 62.1516 5.59126 62.72 5.73501 63.3561C5.8615 64.0393 5.91222 64.7346 5.8863 65.4292C5.8863 91.1768 5.8863 116.924 5.8863 142.672C5.8863 146.141 6.75731 147.031 10.138 147.031H114.78C118.201 147.031 119.08 146.148 119.08 142.717V10.3355C119.08 6.87035 118.209 5.976 114.824 5.976H58.0948C57.652 5.976 57.209 5.976 56.7699 5.976C55.1312 5.89741 53.9834 5.04795 53.6807 3.70831C53.3523 2.25266 53.8763 1.19744 55.3785 0.27316C55.496 0.19077 55.6082 0.10074 55.7143 0.0037L117.618 0Z" fill="#04BB8C"/>
<path id="Vector_2" d="M26.8274 0C29.6065 0.901827 32.5332 1.49676 35.1426 2.76157C44.5206 7.29315 49.7392 18.0627 48.0046 28.7873C46.3549 38.9956 37.7223 47.4338 27.5766 48.7548C12.2529 50.7455 -0.797373 38.5316 0.0551769 22.9947C0.678904 11.6152 9.47011 1.88969 20.568 0.295589C20.8925 0.222201 21.2108 0.123395 21.5202 0H26.8274ZM24.148 6.17433C14.0687 6.48866 6.20014 14.1074 6.15585 24.4541C6.11157 34.7185 13.9543 42.79 24.196 42.7675C34.6701 42.7376 42.2803 34.4341 42.1918 24.4054C42.0884 13.8043 33.98 6.43628 24.148 6.17433Z" fill="#04BB8C"/>
<path id="Vector_3" d="M37.0177 73.3735C40.479 67.4395 45.8322 62.8791 52.1938 60.4448C51.2933 59.064 50.3484 57.8628 49.6694 56.5195C46.7795 50.7717 47.0859 40.2679 53.9616 35.1264C61.5497 29.4572 73.3415 33.0346 76.0726 42.1838C77.6485 47.4601 77.5894 52.6914 74.7291 57.6047C74.1866 58.5327 73.4706 59.3634 72.7214 60.3962C79.1728 62.9782 84.2659 67.1655 87.9935 73.4372C89.1007 71.8244 90.1488 70.4436 91.0531 68.9467C101.69 51.3892 93.5074 27.4477 74.445 20.263C69.385 18.3583 64.2107 17.565 58.8334 18.2087C58.2002 18.2847 57.5627 18.316 56.9253 18.3022C56.2317 18.3188 55.5561 18.0776 55.0259 17.624C54.4956 17.1705 54.1472 16.5359 54.0465 15.84C53.9154 15.1185 54.0673 14.3737 54.47 13.7642C54.8726 13.1547 55.494 12.7287 56.2019 12.5769C58.2289 12.2043 60.2833 12.0065 62.3432 11.9857C71.3835 11.9681 80.1527 15.1148 87.1695 20.8942C94.1862 26.6737 99.0205 34.7316 100.856 43.7068C105.259 65.2758 91.2598 86.5379 69.9313 90.7028C64.8563 91.6934 59.6383 91.6579 54.5769 90.5984C49.5155 89.5389 44.7103 87.4762 40.4372 84.5289C36.164 81.5815 32.5071 77.8075 29.6764 73.4234C26.8456 69.0393 24.8967 64.1315 23.9416 58.9817C23.543 56.8638 24.4139 55.2921 26.1781 54.9441C27.9422 54.5961 29.3558 55.6326 29.7507 57.8105C30.807 63.5474 33.3106 68.9091 37.0177 73.3735ZM41.5572 77.7218C53.6738 88.0834 72.2453 87.5595 83.3802 77.6357C78.8664 69.3022 71.8763 64.7557 62.5573 64.7332C53.1755 64.707 46.1447 69.2723 41.5572 77.718V77.7218ZM54.0022 48.3768C54.0022 48.9718 53.969 49.5705 54.0022 50.1655C54.3196 54.9478 58.003 58.5514 62.5278 58.5214C67.0525 58.4915 70.6472 54.9628 70.9462 50.2329C71.0734 48.598 71.0077 46.9536 70.7506 45.3346C70.507 44.0104 69.9562 42.7641 69.1437 41.6984C68.3312 40.6328 67.2803 39.7784 66.0777 39.2059C64.8752 38.6334 63.5557 38.3592 62.228 38.4059C60.9003 38.4526 59.6026 38.8189 58.4421 39.4746C55.0061 41.4204 53.8324 44.5637 54.0022 48.3768Z" fill="#04BB8C"/>
<path id="Vector_4" d="M68.9644 102.198C75.6445 102.198 82.3247 102.198 89.0049 102.198C91.1233 102.198 92.3597 103.126 92.559 104.784C92.6782 105.505 92.5178 106.245 92.1113 106.849C91.7047 107.453 91.0836 107.874 90.3778 108.025C89.85 108.136 89.3111 108.184 88.7723 108.167C75.412 108.167 62.0517 108.167 48.6914 108.167C47.1561 108.167 45.8201 107.845 45.1631 106.296C44.3032 104.26 45.7831 102.236 48.1895 102.18C51.3302 102.131 54.4637 102.18 57.6192 102.18L68.9644 102.198Z" fill="#04BB8C"/>
<path id="Vector_5" d="M68.8351 118.933C75.4784 118.933 82.0958 118.933 88.728 118.933C89.4131 118.909 90.0975 118.999 90.7542 119.198C91.9869 119.64 92.5995 120.62 92.5995 121.96C92.6189 122.538 92.4561 123.107 92.1349 123.584C91.8137 124.062 91.3507 124.424 90.8132 124.617C90.3557 124.798 89.8686 124.889 89.3775 124.886C75.6752 124.901 61.9705 124.901 48.2632 124.886C46.8091 124.886 45.6502 124.329 45.1335 122.877C44.4212 120.893 45.8089 119 48.0602 118.929C50.3116 118.858 52.5813 118.929 54.84 118.929L68.8351 118.933Z" fill="#04BB8C"/>
<path id="Vector_6" d="M38.1692 105.226C38.1472 106.007 37.8271 106.749 37.2764 107.295C36.7256 107.842 35.9872 108.15 35.2166 108.156C34.6373 108.15 34.0726 107.971 33.594 107.64C33.1153 107.309 32.7443 106.842 32.5278 106.297C32.3114 105.752 32.2593 105.154 32.3782 104.58C32.497 104.005 32.7815 103.479 33.1955 103.068C33.6095 102.657 34.1345 102.38 34.7039 102.272C35.2733 102.164 35.8615 102.229 36.3941 102.46C36.9267 102.691 37.3797 103.077 37.6957 103.57C38.0116 104.062 38.1764 104.638 38.1692 105.226Z" fill="#04BB8C"/>
<path id="Vector_7" d="M38.1693 121.874C38.1707 122.452 38.0036 123.017 37.689 123.5C37.3745 123.982 36.9266 124.359 36.4014 124.584C35.8763 124.808 35.2973 124.871 34.7372 124.763C34.1772 124.656 33.6609 124.383 33.2532 123.979C32.8456 123.575 32.5647 123.058 32.4459 122.492C32.3271 121.927 32.3756 121.339 32.5853 120.801C32.7951 120.264 33.1567 119.801 33.6249 119.472C34.093 119.142 34.6468 118.96 35.2168 118.948C35.9885 118.948 36.7296 119.254 37.2814 119.801C37.8332 120.348 38.152 121.092 38.1693 121.874Z" fill="#04BB8C"/>
<path id="Vector_8" d="M5.87197 52.9459C5.86166 53.5319 5.6802 54.1017 5.35053 54.5831C5.02087 55.0646 4.55779 55.4361 4.01987 55.6508C3.48195 55.8654 2.89335 55.9136 2.32847 55.7891C1.76358 55.6646 1.24777 55.373 0.846288 54.9513C0.444811 54.5296 0.175681 53.9966 0.0729191 53.4198C-0.0298429 52.843 0.0384016 52.2483 0.268987 51.7108C0.499572 51.1734 0.882134 50.7173 1.36836 50.4003C1.85458 50.0832 2.42261 49.9195 3.0006 49.9298C3.76633 49.9721 4.48789 50.3066 5.02048 50.8661C5.55307 51.4255 5.85727 52.1685 5.87197 52.9459Z" fill="#04BB8C"/>
<path id="Vector_9" d="M20.9189 26.5085C21.3692 26.0782 21.7641 25.7227 22.1369 25.3448C24.7831 22.6729 27.385 19.9562 30.0756 17.3368C32.1497 15.3161 35.0358 15.9897 35.5636 18.6615C35.6413 19.1604 35.6158 19.6701 35.4887 20.1584C35.3617 20.6467 35.1358 21.1029 34.8255 21.4979C30.9982 25.5693 27.075 29.5433 23.0891 33.4724C21.801 34.7447 20.1624 34.7447 18.8263 33.5098C16.874 31.6987 14.9991 29.7865 13.2202 27.8032C12.7159 27.208 12.4494 26.443 12.4731 25.6587C12.4969 24.8744 12.8091 24.1274 13.3485 23.5646C13.8878 23.0018 14.6152 22.6639 15.3878 22.6174C16.1604 22.5708 16.9222 22.8188 17.5235 23.3128C18.6824 24.2558 19.7268 25.3784 20.9189 26.5085Z" fill="#04BB8C"/>
</g>
<defs>
<clipPath id="clip0_827_16">
<rect width="125" height="153" fill="white"/>
</clipPath>
</defs>
</svg>
