<svg width="102" height="142" viewBox="0 0 102 142" fill="none" xmlns="http://www.w3.org/2000/svg">
<g id="Layer_1" clip-path="url(#clip0_1265_15)">
<path id="Vector" d="M57.6205 141.994C52.4158 139.388 51.4804 138.266 50.0997 132.663H46.8483C34.4984 132.663 22.1485 132.663 9.79851 132.663C3.34676 132.663 0.00634766 129.366 0.00634766 122.996C0.00634766 85.249 0.00634766 47.4981 0.00634766 9.74304C0.00634766 3.72733 3.4104 0.0316864 9.17498 0.0253474C39.4698 -0.0169127 69.7625 -0.0169127 100.053 0.0253474C100.562 0.0253474 101.071 0.0950807 101.962 0.158471V3.63224C101.962 41.4888 101.979 79.3474 102.013 117.208C102.013 119.497 101.376 120.733 99.3213 121.829C88.4411 127.61 77.6883 133.582 66.8336 139.445C65.0902 140.39 63.2451 141.163 61.4381 142.013L57.6205 141.994ZM50.3797 120.695C53.9618 121.525 54.9544 123.515 54.5409 126.533C54.4272 128.009 54.4165 129.492 54.509 130.97C54.5408 137.138 58.1612 139.3 63.5949 136.352C73.9597 130.742 84.2672 125.005 94.7083 119.535C97.0307 118.311 97.7117 116.936 97.7053 114.432C97.6289 80.0489 97.6119 45.6641 97.6543 11.2771V7.89205C97.1899 7.89205 96.9417 7.75893 96.7953 7.84134C83.6437 14.941 70.4539 21.9837 57.4041 29.2735C56.0234 30.0469 54.7826 32.2211 54.6681 33.8312C54.4581 36.7155 52.7084 37.8565 50.6851 39.3272C49.6416 30.0659 50.7932 27.917 58.6511 23.6255C66.8929 19.1628 75.122 14.6832 83.3383 10.1868C86.5197 8.45623 89.6691 6.713 93.6204 4.54506C92.1888 4.38658 91.7115 4.2915 91.2216 4.2915C63.9979 4.2915 36.7678 4.2915 9.53133 4.2915C5.54829 4.2915 4.29486 5.7368 4.29486 10.0473C4.29486 47.5869 4.29486 85.1286 4.29486 122.672C4.29486 127.249 5.70098 128.599 10.3903 128.606C22.6321 128.606 34.876 128.606 47.122 128.606C48.1273 128.606 49.1389 128.498 50.3797 128.422V120.695Z" fill="#FB2100"/>
<path id="Vector_2" d="M50.2462 112.999C43.7881 117.563 39.2005 117.195 33.7668 111.807C29.1347 107.205 24.5091 102.597 19.8898 97.982C14.5261 92.6192 14.1189 87.8079 18.6873 81.5006C17.6757 80.4229 16.5749 79.339 15.5824 78.1662C12.7891 74.8636 12.6873 70.7052 15.7032 67.5991C22.4476 60.6474 29.2939 53.7949 36.2419 47.0417C39.5187 43.8722 43.9154 44.0687 47.2812 47.2826C48.1847 48.1447 48.8337 49.2667 50.1381 50.9656C51.8814 48.9624 52.9948 47.4474 54.3373 46.1796C58.8612 41.9198 64.9186 41.8247 69.3852 46.1162C74.9292 51.441 80.3607 56.8778 85.6799 62.4265C89.981 66.9208 89.8792 72.9302 85.6799 77.4499C84.4373 78.6671 83.1312 79.8182 81.7669 80.8983C86.3862 89.139 85.9216 92.3086 79.4317 98.749C75.1899 102.975 70.9376 107.201 66.6746 111.427C61.2346 116.847 56.787 117.272 50.2462 112.999ZM47.5548 52.8483C46.2186 51.796 45.2706 51.1241 44.4117 50.357C42.5029 48.6582 40.594 48.6328 38.7997 50.3951C32.1274 56.9792 25.4826 63.595 18.8654 70.2425C17.1539 71.954 17.1285 73.8494 18.8146 75.5419C30.2674 87.0155 41.7201 98.5018 53.332 109.868C56.2397 112.72 59.8156 112.232 62.7806 108.961C62.1443 108.289 61.5781 107.586 60.9228 106.933C57.7987 103.801 54.56 100.758 51.595 97.4938C50.9587 96.8219 51.2514 95.3323 51.1178 94.2229C52.2122 94.3434 53.4275 94.2229 54.3755 94.654C55.3236 95.085 55.909 96.0676 56.6407 96.8219C59.6884 99.9597 62.7233 103.104 65.4784 105.956L69.3788 103.002C65.4976 99.2307 61.8643 95.7253 58.2694 92.1945C57.1496 91.0978 55.5844 89.8807 57.2069 88.2516C58.8294 86.6225 60.0701 88.1185 61.1836 89.2468C64.7212 92.822 68.2398 96.4226 71.8156 100.067L75.455 96.9931C71.2875 92.9298 67.489 89.2912 63.7732 85.5829C62.138 83.9411 62.3797 81.8429 64.174 81.7097C65.1157 81.64 66.3374 82.388 67.0818 83.117C70.7531 86.7175 74.3161 90.4385 77.8983 94.1278C80.8379 90.9583 81.4233 87.5289 79.0564 85.0948C72.471 78.3184 65.6565 71.7829 58.454 64.6452C56.0107 67.2885 53.8346 70.027 51.2641 72.328C46.5557 76.5371 39.5314 75.0475 37.6735 69.5769C36.4328 65.9383 37.5209 62.7118 40.0977 60.024C42.312 57.7293 44.6661 55.6184 47.5548 52.8483ZM79.2218 78.6353C80.4435 77.1457 81.4679 75.8018 82.5941 74.553C85.4191 71.3835 85.4953 68.0999 82.4922 65.0445C77.2536 59.7071 71.9513 54.4246 66.5855 49.197C63.595 46.3001 60.0447 46.3444 57.0415 49.197C52.5579 53.4948 48.1274 57.8497 43.7499 62.2617C42.7698 63.194 42.0823 64.3897 41.7711 65.7038C41.5738 66.8765 41.8666 68.6704 42.6683 69.3297C43.2444 69.7137 43.893 69.9764 44.5746 70.1017C45.2562 70.2271 45.9565 70.2124 46.6322 70.0586C47.9493 69.729 49.1772 68.607 50.1952 67.6181C53.2366 64.7085 56.1698 61.6912 59.3257 58.5407L79.2218 78.6353ZM46.0913 110.578L21.1687 85.3927C19.0118 88.6636 19.1009 91.1739 21.8432 93.9503C27.0818 99.2582 32.3671 104.517 37.699 109.728C40.4159 112.397 43.1645 112.517 46.0913 110.578Z" fill="#FB2100"/>
</g>
<defs>
<clipPath id="clip0_1265_15">
<rect width="102" height="142" fill="white"/>
</clipPath>
</defs>
</svg>
