<svg width="149" height="149" viewBox="0 0 149 149" fill="none" xmlns="http://www.w3.org/2000/svg">
<g id="Layer_1" clip-path="url(#clip0_990_50)">
<path id="Vector" d="M69.6079 129.175C68.4548 137.113 63.5276 141.751 56.5763 141.523C50.1145 141.312 45.2411 136.353 44.6024 129.275C44.4321 129.205 44.2558 129.151 44.0757 129.113C38.9161 128.536 35.9424 124.047 37.5972 119.155C37.9166 118.209 37.8088 117.744 37.0954 117.081C34.105 114.292 33.9267 110.098 36.5064 106.874C36.9013 106.363 37.13 105.743 37.1617 105.098C37.2281 102.256 37.112 99.4052 37.2156 96.563C37.3359 93.2769 36.0709 90.8663 33.4165 88.8996C25.2666 82.8667 20.1693 74.8132 18.1121 64.8719C13.6162 43.1511 28.5805 21.3764 50.4048 17.8786C72.7019 14.3021 93.2944 29.0813 96.3594 51.3456C98.4332 66.4195 93.199 78.9582 81.2832 88.4515C78.2306 90.8829 76.6047 93.5217 76.9241 97.4053C77.0568 99.065 76.9573 100.725 76.9241 102.384C76.9241 104.43 76.9531 106.276 78.3467 108.156C80.3914 110.919 79.591 114.707 77.0071 117.172C76.5342 117.624 76.0573 117.886 76.36 118.811C78.1974 124.271 75.3895 128.57 69.6079 129.175ZM71.9761 104.202C71.9761 101.662 72.059 99.2807 71.9761 96.9074C71.7563 91.7085 73.8674 87.8457 78.0273 84.7172C86.5298 78.3192 91.1377 69.6185 91.7888 59.0299C93.1492 37.0394 73.8425 19.4429 51.9974 22.6128C38.3106 24.5961 26.8468 34.9939 23.3422 48.5906C19.9122 61.9135 24.9182 76.4148 36.0336 84.6343C40.3222 87.8042 42.4415 91.7583 42.1968 97.0817C42.089 99.4384 42.1968 101.803 42.1968 104.268H54.6187C54.6187 100.31 54.5399 96.5838 54.6477 92.862C54.7058 90.97 54.092 89.468 53.1919 87.8208C51.7362 85.1653 49.9486 84.1903 46.8379 84.2816C41.0314 84.4558 35.9921 80.0702 35.0589 74.3568C34.6442 71.8673 34.7728 69.3032 34.7894 66.7763C34.7754 66.4984 34.8175 66.2205 34.9131 65.9592C35.0087 65.6979 35.1559 65.4585 35.3459 65.2552C35.5359 65.052 35.7648 64.8891 36.0191 64.7762C36.2733 64.6633 36.5477 64.6027 36.8258 64.598C39.8078 64.6229 42.8936 64.4486 45.7471 65.1499C51.4209 66.544 54.7514 71.5063 54.5523 77.9749C54.4694 80.6843 55.3487 82.7381 57.1445 84.7048C58.563 82.7962 60.0893 81.0411 59.604 78.4354C59.5378 77.8176 59.5378 77.1944 59.604 76.5766C59.7658 70.7678 63.9257 65.7473 69.6535 64.8179C72.142 64.403 74.7052 64.5026 77.231 64.569C78.6536 64.6105 79.4251 65.6519 79.4541 67.0917C79.4873 68.8509 79.4997 70.6101 79.4541 72.3694C79.3779 75.189 78.3321 77.8961 76.4932 80.0343C74.6543 82.1725 72.1346 83.611 69.359 84.1073C67.7456 84.3936 66.0617 84.265 64.4193 84.4143C63.8897 84.4506 63.3908 84.6758 63.0133 85.0492C60.6575 87.9536 59.0441 91.0364 59.5294 95.0528C59.8861 98.0484 59.5999 101.119 59.5999 104.21L71.9761 104.202ZM56.9994 114.201C61.7607 114.201 66.5221 114.201 71.2835 114.201C73.266 114.201 74.3983 113.309 74.4356 111.774C74.4729 110.239 73.2992 109.239 71.2378 109.239C61.7676 109.239 52.2974 109.239 42.8273 109.239C42.6696 109.239 42.5162 109.239 42.3627 109.239C40.7618 109.313 39.7083 110.264 39.6793 111.666C39.6502 113.068 40.7286 114.184 42.4084 114.193C47.2859 114.218 52.1509 114.201 56.9994 114.201ZM57.0699 124.159C61.1013 124.159 65.1327 124.159 69.1599 124.159C71.0968 124.159 71.9678 123.358 71.9636 121.67C71.9595 119.981 71.0802 119.205 69.135 119.205C61.0722 119.205 53.0108 119.205 44.9508 119.205C43.0056 119.205 42.1471 119.989 42.1512 121.694C42.1554 123.4 43.0222 124.159 44.9757 124.184C49.0154 124.162 53.0509 124.148 57.0823 124.142L57.0699 124.159ZM64.4649 129.279H49.6582C50.0025 133.656 53.2542 136.677 57.327 136.557C59.2255 136.499 61.0281 135.71 62.3583 134.353C63.6885 132.997 64.4433 131.179 64.4649 129.279ZM49.4633 79.286C50.4214 72.8009 45.9586 68.382 39.7747 69.6932C39.1277 76.4148 42.9392 80.1864 49.4633 79.286ZM64.6681 79.286C71.1383 80.2486 75.5761 75.7634 74.2572 69.5977C67.5092 68.9131 63.7474 72.7262 64.6681 79.257V79.286Z" fill="#2C3D54"/>
<path id="Vector_2" d="M148.996 125.383C148.996 132.163 148.996 138.94 148.996 145.714C148.996 148.149 148.166 148.971 145.732 148.979C142.057 148.979 138.382 148.979 134.708 148.979C132.48 148.979 131.609 148.104 131.609 145.872C131.609 132.21 131.609 118.544 131.609 104.874C131.609 102.642 132.476 101.779 134.712 101.77C138.436 101.77 142.162 101.77 145.889 101.77C148.117 101.77 148.988 102.646 148.992 104.874C149.005 111.714 149.007 118.551 148.996 125.383ZM143.919 143.95V106.874H136.657V143.95H143.919Z" fill="#2C3D54"/>
<path id="Vector_3" d="M133.007 83.5222C131.933 81.9082 130.763 80.3772 129.871 78.7009C129.415 77.825 129.269 76.8202 129.457 75.8505C129.755 74.6804 130.937 74.4273 132.111 74.4314C136.765 74.4522 141.418 74.4314 146.076 74.4314C148.336 74.4314 149.394 75.8878 148.722 78.008C147.171 82.7712 145.636 87.5511 143.936 92.252C143.641 93.0819 142.629 94.0486 141.841 94.1523C141.053 94.2561 139.896 93.559 139.32 92.8661C138.046 91.3226 137.03 89.5468 135.744 87.6423C121.029 97.9613 104.572 103.741 86.9238 106.691V101.691C103.385 98.7869 118.997 93.4138 133.007 83.5222ZM143.015 79.5142H136.321C137.839 81.792 139.224 83.8874 140.796 86.2192C141.609 83.7836 142.293 81.6966 143.015 79.5142Z" fill="#2C3D54"/>
<path id="Vector_4" d="M126.636 131.603C126.636 136.366 126.636 141.125 126.636 145.888C126.636 148.112 125.757 148.979 123.526 148.988C119.799 148.988 116.066 148.988 112.327 148.988C110.104 148.988 109.238 148.112 109.233 145.876C109.233 136.349 109.233 126.824 109.233 117.301C109.233 115.072 110.109 114.214 112.344 114.205C116.069 114.205 119.794 114.205 123.522 114.205C125.749 114.205 126.616 115.081 126.62 117.313C126.645 122.076 126.636 126.839 126.636 131.603ZM121.56 143.951V119.296H114.293V143.951H121.56Z" fill="#2C3D54"/>
<path id="Vector_5" d="M104.281 136.673C104.281 139.727 104.281 142.781 104.281 145.834C104.281 148.091 103.419 148.979 101.225 148.988C97.445 149.004 93.6666 149.004 89.8895 148.988C87.7826 148.988 86.8992 148.075 86.895 145.93C86.895 139.667 86.895 133.403 86.895 127.138C86.895 125.026 87.7992 124.155 89.9476 124.147C93.7274 124.13 97.5058 124.13 101.283 124.147C103.394 124.147 104.269 125.051 104.277 127.2C104.281 130.358 104.281 133.515 104.281 136.673ZM91.9674 129.205V143.917H99.2339V129.184L91.9674 129.205Z" fill="#2C3D54"/>
<path id="Vector_6" d="M26.3615 21.9242L23.0891 25.0651L14.624 16.4971L17.6766 13.2483L26.3615 21.9242Z" fill="#2C3D54"/>
<path id="Vector_7" d="M95.8952 13.2773L98.8317 16.4017L90.2421 24.9904L87.3389 21.8412L95.8952 13.2773Z" fill="#2C3D54"/>
<path id="Vector_8" d="M59.4591 12.2856H54.7061V0H59.4591V12.2856Z" fill="#2C3D54"/>
<path id="Vector_9" d="M12.2477 54.4824H0V49.7026H12.2477V54.4824Z" fill="#2C3D54"/>
<path id="Vector_10" d="M101.921 49.6196H114.094V54.4575H101.921V49.6196Z" fill="#2C3D54"/>
<path id="Vector_11" d="M54.4861 27.293H59.3304C59.4009 27.3884 59.517 27.4797 59.5046 27.5502C59.2682 29.2929 59.8944 30.3758 61.5078 31.3218C63.5235 32.5043 64.4111 34.6121 64.5189 37.0725H59.6705C59.5502 36.7696 59.4424 36.4294 59.2806 36.1141C58.6792 34.9564 57.7004 34.4544 56.452 34.7863C55.8822 34.8993 55.3763 35.2241 55.0361 35.6952C54.696 36.1664 54.5469 36.7489 54.6188 37.3256C54.71 38.6201 55.5064 39.4002 56.7714 39.6159C57.4806 39.7487 58.223 39.7321 58.9115 39.9188C61.9516 40.7486 63.818 42.761 64.3862 45.8231C64.9295 48.7773 63.9466 51.3871 61.4415 52.9845C59.8613 53.9927 59.1769 55.0259 59.6414 56.9179H54.7681C54.7391 56.8805 54.6229 56.7934 54.6312 56.7229C54.8593 54.9802 54.258 53.889 52.6321 52.943C50.6206 51.7646 49.7289 49.6652 49.6252 47.1964H54.4653C54.5856 47.4952 54.6934 47.8395 54.8552 48.1507C55.4566 49.3083 56.4354 49.8104 57.6838 49.4785C58.2537 49.3654 58.7596 49.0407 59.0997 48.5695C59.4398 48.0984 59.5889 47.5159 59.517 46.9392C59.4258 45.6488 58.6336 44.8646 57.3645 44.6488C56.6552 44.5202 55.9128 44.5327 55.2243 44.346C52.1883 43.5161 50.3136 41.5038 49.7496 38.4417C49.2021 35.4875 50.1892 32.8736 52.6985 31.2844C54.2911 30.2762 54.9506 29.2348 54.4861 27.293Z" fill="#2C3D54"/>
</g>
<defs>
<clipPath id="clip0_990_50">
<rect width="149" height="149" fill="white"/>
</clipPath>
</defs>
</svg>
