<svg xmlns="http://www.w3.org/2000/svg" width="1440" height="636" fill="none"><path fill="#191919" d="M0 0h1440v636H0z"/><path fill="#fff" d="M158.68 548v-14.432h8.338v1.54h-6.49v4.884h5.5v1.54h-5.5V548h-1.848Zm9.561-5.324c0-3.586 2.332-5.632 4.95-5.632 2.618 0 4.95 2.046 4.95 5.632 0 3.542-2.332 5.588-4.95 5.588-2.618 0-4.95-2.046-4.95-5.588Zm1.87 0c0 2.442 1.254 4.092 3.08 4.092 1.848 0 3.08-1.65 3.08-4.092 0-2.464-1.232-4.136-3.08-4.136-1.826 0-3.08 1.672-3.08 4.136Zm10.691 1.408v-6.776h1.826v6.534c0 2.002.594 2.86 2.002 2.86 1.1 0 1.87-.55 2.882-1.804v-7.59h1.804V548h-1.496l-.154-1.672h-.066c-.99 1.166-2.046 1.936-3.52 1.936-2.266 0-3.278-1.452-3.278-4.18ZM192.923 548v-10.692h1.496l.154 1.54h.066c1.012-1.012 2.112-1.804 3.586-1.804 2.244 0 3.256 1.452 3.256 4.18V548h-1.804v-6.534c0-2.002-.616-2.86-2.024-2.86-1.1 0-1.848.572-2.926 1.65V548h-1.804Zm11.261-5.324c0-3.476 2.2-5.632 4.642-5.632 1.232 0 2.046.462 2.992 1.232l-.088-1.826v-4.114h1.826V548h-1.496l-.154-1.254h-.066c-.836.814-1.98 1.518-3.234 1.518-2.684 0-4.422-2.024-4.422-5.588Zm1.87-.022c0 2.552 1.078 4.092 2.948 4.092.99 0 1.848-.484 2.728-1.474v-5.588c-.902-.814-1.716-1.122-2.596-1.122-1.716 0-3.08 1.65-3.08 4.092Zm10.576 2.574c0-2.332 2.024-3.498 6.578-4.004 0-1.364-.462-2.684-2.2-2.684-1.254 0-2.354.572-3.19 1.144l-.726-1.254c.99-.638 2.486-1.386 4.202-1.386 2.618 0 3.718 1.738 3.718 4.4V548h-1.496l-.154-1.276h-.044c-1.034.836-2.222 1.54-3.542 1.54-1.804 0-3.146-1.122-3.146-3.036Zm1.782-.132c0 1.21.814 1.716 1.87 1.716 1.034 0 1.892-.506 2.926-1.43v-2.97c-3.586.44-4.796 1.32-4.796 2.684Zm10.311-.396v-5.918h-1.584v-1.364l1.672-.11.22-2.992h1.518v2.992h2.882v1.474h-2.882v5.94c0 1.32.418 2.068 1.65 2.068.374 0 .858-.154 1.21-.286l.352 1.364c-.594.198-1.32.396-1.98.396-2.288 0-3.058-1.452-3.058-3.564Zm8.05-9.592c-.704 0-1.254-.484-1.254-1.166 0-.704.55-1.166 1.254-1.166s1.254.462 1.254 1.166c0 .682-.55 1.166-1.254 1.166ZM235.849 548v-10.692h1.804V548h-1.804Zm4.622-5.324c0-3.586 2.332-5.632 4.95-5.632 2.618 0 4.95 2.046 4.95 5.632 0 3.542-2.332 5.588-4.95 5.588-2.618 0-4.95-2.046-4.95-5.588Zm1.87 0c0 2.442 1.254 4.092 3.08 4.092 1.848 0 3.08-1.65 3.08-4.092 0-2.464-1.232-4.136-3.08-4.136-1.826 0-3.08 1.672-3.08 4.136ZM253.187 548v-10.692h1.496l.154 1.54h.066c1.012-1.012 2.112-1.804 3.586-1.804 2.244 0 3.256 1.452 3.256 4.18V548h-1.804v-6.534c0-2.002-.616-2.86-2.024-2.86-1.1 0-1.848.572-2.926 1.65V548h-1.804Zm21.934.264c-3.63 0-6.182-2.904-6.182-7.546 0-4.62 2.552-7.414 6.182-7.414 3.608 0 6.16 2.816 6.16 7.414 0 4.642-2.552 7.546-6.16 7.546Zm0-1.606c2.574 0 4.268-2.332 4.268-5.94 0-3.586-1.694-5.808-4.268-5.808-2.596 0-4.29 2.222-4.29 5.808 0 3.608 1.694 5.94 4.29 5.94Zm14.26-14.234-.396 1.386a3.004 3.004 0 0 0-1.21-.264c-1.012 0-1.496.704-1.496 2.068v1.694h2.266v1.474h-2.266V548h-1.804v-9.218h-1.452v-1.364l1.452-.11v-1.694c0-2.178.99-3.542 3.124-3.542.66 0 1.298.154 1.782.352ZM147.622 576v-11.616h-3.96v-2.728h11.132v2.728h-3.938V576h-3.234Zm9.145 0v-15.422h3.234v3.784l-.154 1.958c.814-.726 1.892-1.496 3.366-1.496 2.376 0 3.388 1.672 3.388 4.4V576h-3.234v-6.358c0-1.584-.418-2.068-1.342-2.068-.814 0-1.32.374-2.024 1.056V576h-3.234Zm11.93-5.456c0-3.542 2.53-5.72 5.148-5.72 3.102 0 4.642 2.266 4.642 5.236 0 .572-.066 1.1-.132 1.364h-6.534c.286 1.65 1.386 2.376 2.838 2.376.814 0 1.562-.242 2.354-.726l1.078 1.958c-1.122.77-2.574 1.232-3.872 1.232-3.124 0-5.522-2.112-5.522-5.72Zm3.102-1.122h3.938c0-1.254-.528-2.134-1.826-2.134-1.012 0-1.892.682-2.112 2.134ZM185.54 576v-14.344h3.256V576h-3.256Zm5.716-5.456c0-3.63 2.552-5.72 5.324-5.72 2.75 0 5.302 2.09 5.302 5.72s-2.552 5.72-5.302 5.72c-2.772 0-5.324-2.09-5.324-5.72Zm3.322 0c0 1.892.66 3.102 2.002 3.102 1.32 0 2.002-1.21 2.002-3.102s-.682-3.102-2.002-3.102c-1.342 0-2.002 1.21-2.002 3.102ZM205.866 576v-11.616h-3.96v-2.728h11.132v2.728H209.1V576h-3.234Zm16.977-5.94h3.08l-.352-1.32c-.396-1.43-.77-3.124-1.166-4.62h-.088a88.746 88.746 0 0 1-1.122 4.62l-.352 1.32Zm4.62 5.94-.88-3.41h-4.4l-.88 3.41h-3.3l4.51-14.344h3.872l4.51 14.344h-3.432Zm4.055-5.456c0-3.63 2.662-5.72 5.676-5.72 1.342 0 2.464.506 3.19 1.254l-1.474 2.002c-.528-.44-1.012-.638-1.518-.638-1.562 0-2.552 1.21-2.552 3.102s1.034 3.102 2.442 3.102c.792 0 1.43-.374 1.958-.792l1.298 2.046a5.663 5.663 0 0 1-3.63 1.364c-3.036 0-5.39-2.09-5.39-5.72Zm10.296 2.42c0-2.288 1.826-3.542 6.138-3.982-.066-.968-.55-1.584-1.716-1.584-.924 0-1.848.374-2.904.99l-1.144-2.134c1.386-.836 2.948-1.43 4.664-1.43 2.794 0 4.334 1.584 4.334 4.928V576h-2.64l-.242-1.122h-.066c-.924.814-1.958 1.386-3.19 1.386-1.98 0-3.234-1.452-3.234-3.3Zm3.08-.242c0 .704.484 1.034 1.254 1.034.748 0 1.232-.352 1.804-.924v-1.914c-2.31.308-3.058.968-3.058 1.804Zm8.496-2.178c0-3.564 2.222-5.72 4.532-5.72 1.21 0 1.936.44 2.684 1.144l-.132-1.672v-3.718h3.234V576h-2.64l-.22-1.078h-.088c-.77.77-1.848 1.342-2.904 1.342-2.706 0-4.466-2.156-4.466-5.72Zm3.322-.044c0 2.156.726 3.124 1.98 3.124.704 0 1.254-.264 1.782-.99v-4.466a2.584 2.584 0 0 0-1.804-.704c-1.034 0-1.958.968-1.958 3.036Zm9.224.044c0-3.542 2.53-5.72 5.148-5.72 3.102 0 4.642 2.266 4.642 5.236 0 .572-.066 1.1-.132 1.364h-6.534c.286 1.65 1.386 2.376 2.838 2.376.814 0 1.562-.242 2.354-.726l1.078 1.958c-1.122.77-2.574 1.232-3.872 1.232-3.124 0-5.522-2.112-5.522-5.72Zm3.102-1.122h3.938c0-1.254-.528-2.134-1.826-2.134-1.012 0-1.892.682-2.112 2.134ZM277.96 576v-10.912h2.64l.22 1.408h.088c.902-.902 1.87-1.672 3.3-1.672 1.54 0 2.464.66 3.014 1.826.968-.99 1.98-1.826 3.432-1.826 2.354 0 3.41 1.672 3.41 4.4V576h-3.234v-6.358c0-1.584-.418-2.068-1.342-2.068-.55 0-1.166.352-1.87 1.056V576h-3.234v-6.358c0-1.584-.418-2.068-1.342-2.068-.528 0-1.166.352-1.848 1.056V576h-3.234Zm19.106 1.584c.198.044.484.132.726.132 1.078 0 1.628-.572 1.914-1.43l.154-.572-4.202-10.626h3.256l1.562 4.686c.308.99.572 2.024.858 3.102h.088c.242-1.034.484-2.068.748-3.102l1.32-4.686h3.102l-3.784 11.022c-1.034 2.75-2.2 4.158-4.774 4.158-.66 0-1.1-.088-1.54-.22l.572-2.464ZM276.14 87V74.108h-4.378v-1.54h10.582v1.54h-4.378V87h-1.826Zm7.554 0V76.308h1.496l.154 1.936h.066c.726-1.342 1.826-2.2 3.036-2.2.462 0 .792.066 1.144.22l-.352 1.584c-.352-.11-.594-.176-1.034-.176-.902 0-1.98.66-2.706 2.464V87h-1.804Zm6.54-2.772c0-2.332 2.024-3.498 6.578-4.004 0-1.364-.462-2.684-2.2-2.684-1.254 0-2.354.572-3.19 1.144l-.726-1.254c.99-.638 2.486-1.386 4.202-1.386 2.618 0 3.718 1.738 3.718 4.4V87h-1.496l-.154-1.276h-.044c-1.034.836-2.222 1.54-3.542 1.54-1.804 0-3.146-1.122-3.146-3.036Zm1.782-.132c0 1.21.814 1.716 1.87 1.716 1.034 0 1.892-.506 2.926-1.43v-2.97c-3.586.44-4.796 1.32-4.796 2.684Zm10.928-9.988c-.704 0-1.254-.484-1.254-1.166 0-.704.55-1.166 1.254-1.166s1.254.462 1.254 1.166c0 .682-.55 1.166-1.254 1.166ZM302.02 87V76.308h1.804V87h-1.804Zm5.414 0V76.308h1.496l.154 1.54h.066c1.012-1.012 2.112-1.804 3.586-1.804 2.244 0 3.256 1.452 3.256 4.18V87h-1.804v-6.534c0-2.002-.616-2.86-2.024-2.86-1.1 0-1.848.572-2.926 1.65V87h-1.804Zm11.239-5.324c0-3.498 2.354-5.632 4.796-5.632 2.728 0 4.268 1.958 4.268 5.016 0 .374-.022.726-.066.99h-7.216c.132 2.31 1.518 3.762 3.564 3.762 1.012 0 1.87-.33 2.662-.836l.638 1.188c-.924.594-2.068 1.1-3.52 1.1-2.86 0-5.126-2.09-5.126-5.588Zm1.76-.814h5.72c0-2.178-.968-3.388-2.64-3.388-1.496 0-2.86 1.232-3.08 3.388Zm9.176.814c0-3.476 2.2-5.632 4.642-5.632 1.232 0 2.046.462 2.992 1.232l-.088-1.826v-4.114h1.826V87h-1.496l-.154-1.254h-.066c-.836.814-1.98 1.518-3.234 1.518-2.684 0-4.422-2.024-4.422-5.588Zm1.87-.022c0 2.552 1.078 4.092 2.948 4.092.99 0 1.848-.484 2.728-1.474v-5.588c-.902-.814-1.716-1.122-2.596-1.122-1.716 0-3.08 1.65-3.08 4.092Zm14.253 3.652 1.452-2.046c.836.77 1.826 1.386 3.014 1.386 1.43 0 2.354-.748 2.354-2.178 0-1.408-.902-2.156-2.2-2.156-.814 0-1.232.176-2.068.704l-1.452-.924.396-7.062h7.92v2.728h-5.126l-.242 2.618c.528-.242.99-.33 1.562-.33 2.398 0 4.444 1.364 4.444 4.334 0 3.102-2.398 4.884-5.126 4.884-2.288 0-3.828-.858-4.928-1.958Zm16.925 1.958c-2.992 0-4.994-2.552-4.994-7.304 0-4.752 2.002-7.194 4.994-7.194s4.994 2.442 4.994 7.194-2.002 7.304-4.994 7.304Zm0-2.508c1.1 0 1.936-.99 1.936-4.796 0-3.828-.836-4.686-1.936-4.686-1.078 0-1.936.858-1.936 4.686 0 3.806.858 4.796 1.936 4.796Zm11.623 2.508c-2.992 0-4.994-2.552-4.994-7.304 0-4.752 2.002-7.194 4.994-7.194s4.994 2.442 4.994 7.194-2.002 7.304-4.994 7.304Zm0-2.508c1.1 0 1.936-.99 1.936-4.796 0-3.828-.836-4.686-1.936-4.686-1.078 0-1.936.858-1.936 4.686 0 3.806.858 4.796 1.936 4.796Zm11.623 2.508c-2.992 0-4.994-2.552-4.994-7.304 0-4.752 2.002-7.194 4.994-7.194s4.994 2.442 4.994 7.194-2.002 7.304-4.994 7.304Zm0-2.508c1.1 0 1.936-.99 1.936-4.796 0-3.828-.836-4.686-1.936-4.686-1.078 0-1.936.858-1.936 4.686 0 3.806.858 4.796 1.936 4.796Zm10.435.176v-4.048h-3.872v-2.288h3.872v-4.048h2.376v4.048h3.872v2.288h-3.872v4.048h-2.376Zm12.327.264 1.87-2.222c1.012.88 2.332 1.496 3.52 1.496 1.342 0 2.002-.528 2.002-1.386 0-.902-.814-1.188-2.068-1.716l-1.848-.792c-1.496-.594-2.904-1.826-2.904-3.916 0-2.376 2.134-4.268 5.104-4.268 1.65 0 3.388.66 4.62 1.892l-1.628 2.046c-.946-.726-1.848-1.144-2.992-1.144-1.1 0-1.826.484-1.826 1.298 0 .88.946 1.188 2.2 1.694l1.826.748c1.738.704 2.838 1.87 2.838 3.894 0 2.376-1.98 4.444-5.39 4.444-1.87 0-3.85-.704-5.324-2.068Zm13.304-2.156v-4.422h-1.496V76.22l1.672-.132.374-2.904h2.684v2.904h2.618v2.53h-2.618v4.378c0 1.232.55 1.738 1.408 1.738.352 0 .748-.11 1.034-.22l.506 2.354c-.572.176-1.364.396-2.42.396-2.706 0-3.762-1.694-3.762-4.224Zm7.872-.176v-6.776h3.234v6.358c0 1.562.418 2.068 1.364 2.068.814 0 1.298-.352 1.936-1.21v-7.216h3.234V87h-2.64l-.242-1.518h-.066c-.924 1.1-1.936 1.782-3.432 1.782-2.376 0-3.388-1.672-3.388-4.4Zm12.041-1.32c0-3.564 2.222-5.72 4.532-5.72 1.21 0 1.936.44 2.684 1.144l-.132-1.672v-3.718h3.234V87h-2.64l-.22-1.078h-.088c-.77.77-1.848 1.342-2.904 1.342-2.706 0-4.466-2.156-4.466-5.72Zm3.322-.044c0 2.156.726 3.124 1.98 3.124.704 0 1.254-.264 1.782-.99v-4.466a2.584 2.584 0 0 0-1.804-.704c-1.034 0-1.958.968-1.958 3.036Zm9.224.044c0-3.542 2.53-5.72 5.148-5.72 3.102 0 4.642 2.266 4.642 5.236 0 .572-.066 1.1-.132 1.364h-6.534c.286 1.65 1.386 2.376 2.838 2.376.814 0 1.562-.242 2.354-.726l1.078 1.958c-1.122.77-2.574 1.232-3.872 1.232-3.124 0-5.522-2.112-5.522-5.72Zm3.102-1.122h3.938c0-1.254-.528-2.134-1.826-2.134-1.012 0-1.892.682-2.112 2.134ZM466.452 87V76.088h2.64l.22 1.386h.088c.924-.88 2.024-1.65 3.498-1.65 2.376 0 3.388 1.672 3.388 4.4V87h-3.234v-6.358c0-1.584-.418-2.068-1.342-2.068-.814 0-1.32.374-2.024 1.056V87h-3.234Zm13.03-3.96v-4.422h-1.496V76.22l1.672-.132.374-2.904h2.684v2.904h2.618v2.53h-2.618v4.378c0 1.232.55 1.738 1.408 1.738.352 0 .748-.11 1.034-.22l.506 2.354c-.572.176-1.364.396-2.42.396-2.706 0-3.762-1.694-3.762-4.224Zm7.014 2.706 1.452-2.024c.99.748 1.892 1.144 2.816 1.144.968 0 1.386-.352 1.386-.924 0-.726-1.1-1.056-2.222-1.496-1.32-.506-2.882-1.408-2.882-3.212 0-2.024 1.65-3.41 4.18-3.41 1.672 0 2.904.682 3.85 1.386l-1.452 1.936c-.792-.572-1.54-.924-2.31-.924-.836 0-1.232.308-1.232.858 0 .704 1.012.968 2.134 1.386 1.386.506 2.948 1.276 2.948 3.278 0 1.98-1.562 3.52-4.488 3.52-1.43 0-3.08-.616-4.18-1.518ZM635.923 155.13l1.1-1.276c1.034 1.078 2.464 1.804 3.982 1.804 1.892 0 3.014-.946 3.014-2.354 0-1.474-1.056-1.936-2.42-2.552l-2.068-.902c-1.342-.572-2.926-1.606-2.926-3.718 0-2.2 1.936-3.828 4.554-3.828 1.716 0 3.234.726 4.246 1.782l-.968 1.188c-.88-.836-1.958-1.364-3.278-1.364-1.628 0-2.706.814-2.706 2.112 0 1.386 1.276 1.914 2.398 2.398l2.068.88c1.672.726 2.97 1.716 2.97 3.85 0 2.288-1.892 4.114-4.928 4.114a6.948 6.948 0 0 1-5.038-2.134Zm12.877-1.43v-5.918h-1.584v-1.364l1.672-.11.22-2.992h1.518v2.992h2.882v1.474h-2.882v5.94c0 1.32.418 2.068 1.65 2.068.374 0 .858-.154 1.21-.286l.352 1.364c-.594.198-1.32.396-1.98.396-2.288 0-3.058-1.452-3.058-3.564Zm6.21.528c0-2.332 2.024-3.498 6.578-4.004 0-1.364-.462-2.684-2.2-2.684-1.254 0-2.354.572-3.19 1.144l-.726-1.254c.99-.638 2.486-1.386 4.202-1.386 2.618 0 3.718 1.738 3.718 4.4V157h-1.496l-.154-1.276h-.044c-1.034.836-2.222 1.54-3.542 1.54-1.804 0-3.146-1.122-3.146-3.036Zm1.782-.132c0 1.21.814 1.716 1.87 1.716 1.034 0 1.892-.506 2.926-1.43v-2.97c-3.586.44-4.796 1.32-4.796 2.684ZM666.796 157v-10.692h1.496l.154 1.936h.066c.726-1.342 1.826-2.2 3.036-2.2.462 0 .792.066 1.144.22l-.352 1.584c-.352-.11-.594-.176-1.034-.176-.902 0-1.98.66-2.706 2.464V157h-1.804Zm7.935-3.3v-5.918h-1.584v-1.364l1.672-.11.22-2.992h1.518v2.992h2.882v1.474h-2.882v5.94c0 1.32.418 2.068 1.65 2.068.374 0 .858-.154 1.21-.286l.352 1.364c-.594.198-1.32.396-1.98.396-2.288 0-3.058-1.452-3.058-3.564Zm8.05-9.592c-.704 0-1.254-.484-1.254-1.166 0-.704.55-1.166 1.254-1.166s1.254.462 1.254 1.166c0 .682-.55 1.166-1.254 1.166ZM681.857 157v-10.692h1.804V157h-1.804Zm5.414 0v-10.692h1.496l.154 1.54h.066c1.012-1.012 2.112-1.804 3.586-1.804 2.244 0 3.256 1.452 3.256 4.18V157h-1.804v-6.534c0-2.002-.616-2.86-2.024-2.86-1.1 0-1.848.572-2.926 1.65V157h-1.804Zm12.801 1.804c0 1.144 1.166 1.87 3.102 1.87 2.046 0 3.388-1.056 3.388-2.178 0-.99-.77-1.32-2.156-1.32h-1.848c-.418 0-.924-.044-1.386-.176-.77.55-1.1 1.188-1.1 1.804Zm-1.584.242c0-.902.594-1.76 1.562-2.42v-.088c-.528-.33-.946-.902-.946-1.738 0-.902.616-1.606 1.166-1.98v-.088c-.704-.572-1.386-1.606-1.386-2.882 0-2.332 1.848-3.806 4.026-3.806.594 0 1.122.11 1.518.264h3.718v1.386h-2.2c.506.484.88 1.298.88 2.2 0 2.288-1.738 3.718-3.916 3.718a3.735 3.735 0 0 1-1.606-.374c-.374.33-.682.682-.682 1.276 0 .682.44 1.166 1.892 1.166h2.068c2.486 0 3.74.77 3.74 2.552 0 1.98-2.09 3.696-5.412 3.696-2.618 0-4.422-1.034-4.422-2.882Zm4.422-6.644c1.232 0 2.266-.99 2.266-2.552s-1.012-2.486-2.266-2.486-2.266.924-2.266 2.486c0 1.562 1.034 2.552 2.266 2.552Zm17.381 4.862c-3.63 0-6.182-2.904-6.182-7.546 0-4.62 2.552-7.414 6.182-7.414 3.608 0 6.16 2.816 6.16 7.414 0 4.642-2.552 7.546-6.16 7.546Zm0-1.606c2.574 0 4.268-2.332 4.268-5.94 0-3.586-1.694-5.808-4.268-5.808-2.596 0-4.29 2.222-4.29 5.808 0 3.608 1.694 5.94 4.29 5.94Zm14.26-14.234-.396 1.386a3.004 3.004 0 0 0-1.21-.264c-1.012 0-1.496.704-1.496 2.068v1.694h2.266v1.474h-2.266V157h-1.804v-9.218h-1.452v-1.364l1.452-.11v-1.694c0-2.178.99-3.542 3.124-3.542.66 0 1.298.154 1.782.352ZM740.318 157v-14.432h8.338v1.54h-6.49v4.884h5.5v1.54h-5.5V157h-1.848Zm11.578-12.892c-.704 0-1.254-.484-1.254-1.166 0-.704.55-1.166 1.254-1.166s1.254.462 1.254 1.166c0 .682-.55 1.166-1.254 1.166ZM750.972 157v-10.692h1.804V157h-1.804Zm5.414 0v-10.692h1.496l.154 1.936h.066c.726-1.342 1.826-2.2 3.036-2.2.462 0 .792.066 1.144.22l-.352 1.584c-.352-.11-.594-.176-1.034-.176-.902 0-1.98.66-2.706 2.464V157h-1.804Zm6.224-1.21.902-1.21c.924.748 1.87 1.276 3.146 1.276 1.408 0 2.112-.748 2.112-1.672 0-1.1-1.276-1.584-2.442-2.024-1.518-.55-3.19-1.276-3.19-3.08 0-1.716 1.364-3.036 3.674-3.036 1.342 0 2.508.55 3.322 1.21l-.858 1.144c-.726-.55-1.496-.946-2.442-.946-1.342 0-1.958.726-1.958 1.54 0 .99 1.166 1.386 2.376 1.848 1.54.572 3.256 1.21 3.256 3.234 0 1.738-1.386 3.19-3.916 3.19-1.518 0-2.97-.638-3.982-1.474Zm10.713-2.09v-5.918h-1.584v-1.364l1.672-.11.22-2.992h1.518v2.992h2.882v1.474h-2.882v5.94c0 1.32.418 2.068 1.65 2.068.374 0 .858-.154 1.21-.286l.352 1.364c-.594.198-1.32.396-1.98.396-2.288 0-3.058-1.452-3.058-3.564Zm11.683 3.3v-14.432h4.29c2.926 0 4.972.99 4.972 3.52 0 1.43-.814 2.706-2.53 3.146v.088c2.112.33 3.344 1.474 3.344 3.454 0 2.838-2.244 4.224-5.456 4.224h-4.62Zm1.848-8.272h2.134c2.442 0 3.476-.88 3.476-2.486 0-1.562-1.166-2.222-3.388-2.222h-2.222v4.708Zm0 6.82h2.508c2.464 0 3.916-.902 3.916-2.86 0-1.782-1.386-2.596-3.916-2.596h-2.508v5.456Zm10.34-1.32c0-2.332 2.024-3.498 6.578-4.004 0-1.364-.462-2.684-2.2-2.684-1.254 0-2.354.572-3.19 1.144l-.726-1.254c.99-.638 2.486-1.386 4.202-1.386 2.618 0 3.718 1.738 3.718 4.4V157h-1.496l-.154-1.276h-.044c-1.034.836-2.222 1.54-3.542 1.54-1.804 0-3.146-1.122-3.146-3.036Zm1.782-.132c0 1.21.814 1.716 1.87 1.716 1.034 0 1.892-.506 2.926-1.43v-2.97c-3.586.44-4.796 1.32-4.796 2.684Zm10.312-.396v-5.918h-1.584v-1.364l1.672-.11.22-2.992h1.518v2.992h2.882v1.474h-2.882v5.94c0 1.32.418 2.068 1.65 2.068.374 0 .858-.154 1.21-.286l.352 1.364c-.594.198-1.32.396-1.98.396-2.288 0-3.058-1.452-3.058-3.564Zm6.119-2.024c0-3.586 2.398-5.632 5.148-5.632 1.408 0 2.398.594 3.124 1.276l-.902 1.166c-.638-.55-1.298-.946-2.156-.946-1.936 0-3.344 1.672-3.344 4.136 0 2.442 1.342 4.092 3.3 4.092 1.012 0 1.87-.506 2.508-1.078l.814 1.188c-.968.858-2.2 1.386-3.476 1.386-2.838 0-5.016-2.046-5.016-5.588ZM826.232 157v-15.664h1.804v4.268l-.066 2.2c1.012-.968 2.09-1.76 3.564-1.76 2.244 0 3.256 1.452 3.256 4.18V157h-1.804v-6.534c0-2.002-.616-2.86-2.024-2.86-1.1 0-1.848.572-2.926 1.65V157h-1.804Zm18.108 0-3.058-14.432h1.892l1.518 7.854c.286 1.562.572 3.102.858 4.664h.088c.308-1.562.66-3.124 1.012-4.664l2.002-7.854h1.672l2.002 7.854c.33 1.518.682 3.102 1.034 4.664h.088c.286-1.562.55-3.124.814-4.664l1.518-7.854h1.782L854.57 157h-2.222l-2.178-8.69c-.242-1.122-.484-2.156-.682-3.278h-.088c-.242 1.122-.484 2.156-.726 3.278l-2.156 8.69h-2.178Zm16.417-12.892c-.704 0-1.254-.484-1.254-1.166 0-.704.55-1.166 1.254-1.166s1.254.462 1.254 1.166c0 .682-.55 1.166-1.254 1.166ZM859.833 157v-10.692h1.804V157h-1.804Zm5.722-3.3v-5.918h-1.584v-1.364l1.672-.11.22-2.992h1.518v2.992h2.882v1.474h-2.882v5.94c0 1.32.418 2.068 1.65 2.068.374 0 .858-.154 1.21-.286l.352 1.364c-.594.198-1.32.396-1.98.396-2.288 0-3.058-1.452-3.058-3.564Zm7.126 3.3v-15.664h1.804v4.268l-.066 2.2c1.012-.968 2.09-1.76 3.564-1.76 2.244 0 3.256 1.452 3.256 4.18V157h-1.804v-6.534c0-2.002-.616-2.86-2.024-2.86-1.1 0-1.848.572-2.926 1.65V157h-1.804Zm16.282 0v-14.344h3.256V157h-3.256Zm6.596 0v-14.344h3.256V157h-3.256Zm9.411 0v-11.616h-3.96v-2.728h11.132v2.728h-3.938V157h-3.234Zm17.22-11.77v4.026h1.65c1.694 0 2.618-.726 2.618-2.134s-.924-1.892-2.618-1.892h-1.65Zm8.14 11.77h-3.63l-2.75-5.17h-1.76V157h-3.256v-14.344h5.17c3.036 0 5.544 1.056 5.544 4.466 0 2.112-1.034 3.454-2.552 4.136L930.33 157Zm1.044-5.456c0-3.63 2.552-5.72 5.324-5.72 2.75 0 5.302 2.09 5.302 5.72s-2.552 5.72-5.302 5.72c-2.772 0-5.324-2.09-5.324-5.72Zm3.322 0c0 1.892.66 3.102 2.002 3.102 1.32 0 2.002-1.21 2.002-3.102s-.682-3.102-2.002-3.102c-1.342 0-2.002 1.21-2.002 3.102Zm8.881 0c0-3.63 2.552-5.72 5.324-5.72 2.75 0 5.302 2.09 5.302 5.72s-2.552 5.72-5.302 5.72c-2.772 0-5.324-2.09-5.324-5.72Zm3.322 0c0 1.892.66 3.102 2.002 3.102 1.32 0 2.002-1.21 2.002-3.102s-.682-3.102-2.002-3.102c-1.342 0-2.002 1.21-2.002 3.102Zm9.519 5.456v-10.912h2.64l.22 1.914h.088c.792-1.474 1.98-2.178 3.102-2.178.616 0 .99.088 1.298.22l-.528 2.794a4.076 4.076 0 0 0-1.188-.176c-.814 0-1.826.528-2.398 2.002V157h-3.234Zm8.766 0v-15.422h3.146v8.844h.088l3.454-4.334h3.52l-3.828 4.488 4.114 6.424h-3.498l-2.464-4.246-1.386 1.562V157h-3.146Zm10.792-5.456c0-3.542 2.53-5.72 5.148-5.72 3.102 0 4.642 2.266 4.642 5.236 0 .572-.066 1.1-.132 1.364H979.1c.286 1.65 1.386 2.376 2.838 2.376.814 0 1.562-.242 2.354-.726l1.078 1.958c-1.122.77-2.574 1.232-3.872 1.232-3.124 0-5.522-2.112-5.522-5.72Zm3.102-1.122h3.938c0-1.254-.528-2.134-1.826-2.134-1.012 0-1.892.682-2.112 2.134Zm8.284 1.122c0-3.542 2.53-5.72 5.148-5.72 3.102 0 4.642 2.266 4.642 5.236 0 .572-.066 1.1-.132 1.364h-6.534c.286 1.65 1.386 2.376 2.838 2.376.814 0 1.562-.242 2.354-.726l1.078 1.958c-1.122.77-2.574 1.232-3.872 1.232-3.124 0-5.522-2.112-5.522-5.72Zm3.102-1.122h3.938c0-1.254-.528-2.134-1.826-2.134-1.012 0-1.892.682-2.112 2.134ZM1115.38 68.062c0 1.232.99 1.958 2.15 1.958 1.08 0 1.87-.572 1.87-1.738 0-1.232-1.19-1.694-2.95-2.442-.61.572-1.07 1.364-1.07 2.222Zm2.97-4.202c.55-.638.85-1.32.85-2.046 0-1.078-.63-1.804-1.69-1.804-.86 0-1.56.528-1.56 1.606 0 1.144.97 1.694 2.4 2.244Zm-5.75 4.576c0-1.694 1.06-2.728 2.38-3.432v-.088c-1.08-.814-1.87-1.826-1.87-3.3 0-2.376 1.87-3.85 4.47-3.85 2.55 0 4.24 1.518 4.24 3.828 0 1.342-.86 2.42-1.82 3.058v.088c1.34.726 2.42 1.804 2.42 3.652 0 2.2-1.98 3.872-4.95 3.872-2.8 0-4.87-1.562-4.87-3.828Zm16.51 3.828c-2.99 0-4.99-2.552-4.99-7.304 0-4.752 2-7.194 4.99-7.194s5 2.442 5 7.194-2.01 7.304-5 7.304Zm0-2.508c1.1 0 1.94-.99 1.94-4.796 0-3.828-.84-4.686-1.94-4.686-1.08 0-1.93.858-1.93 4.686 0 3.806.85 4.796 1.93 4.796Zm11.62 2.508c-2.99 0-4.99-2.552-4.99-7.304 0-4.752 2-7.194 4.99-7.194 3 0 5 2.442 5 7.194s-2 7.304-5 7.304Zm0-2.508c1.1 0 1.94-.99 1.94-4.796 0-3.828-.84-4.686-1.94-4.686-1.07 0-1.93.858-1.93 4.686 0 3.806.86 4.796 1.93 4.796Zm11.63 2.508c-2.99 0-5-2.552-5-7.304 0-4.752 2.01-7.194 5-7.194s4.99 2.442 4.99 7.194-2 7.304-4.99 7.304Zm0-2.508c1.1 0 1.93-.99 1.93-4.796 0-3.828-.83-4.686-1.93-4.686-1.08 0-1.94.858-1.94 4.686 0 3.806.86 4.796 1.94 4.796Zm10.43.176v-4.048h-3.87v-2.288h3.87v-4.048h2.38v4.048h3.87v2.288h-3.87v4.048h-2.38Zm16.51-9.702v4.026h1.65c1.69 0 2.62-.726 2.62-2.134s-.93-1.892-2.62-1.892h-1.65Zm8.14 11.77h-3.63l-2.75-5.17h-1.76V72h-3.26V57.656h5.17c3.04 0 5.55 1.056 5.55 4.466 0 2.112-1.04 3.454-2.55 4.136l3.23 5.742Zm1.04-5.456c0-3.542 2.53-5.72 5.15-5.72 3.1 0 4.64 2.266 4.64 5.236 0 .572-.06 1.1-.13 1.364h-6.53c.28 1.65 1.38 2.376 2.84 2.376.81 0 1.56-.242 2.35-.726l1.08 1.958c-1.12.77-2.58 1.232-3.87 1.232-3.13 0-5.53-2.112-5.53-5.72Zm3.11-1.122h3.93c0-1.254-.52-2.134-1.82-2.134-1.01 0-1.89.682-2.11 2.134Zm10.68 7.942c0 .814.97 1.254 2.42 1.254 1.46 0 2.51-.594 2.51-1.342 0-.682-.59-.858-1.67-.858h-1.12c-.75 0-1.19-.044-1.54-.132-.4.352-.6.682-.6 1.078Zm-2.66.506c0-.902.55-1.628 1.56-2.2v-.088c-.57-.374-1.01-.946-1.01-1.848 0-.792.53-1.562 1.23-2.046V67.6a3.49 3.49 0 0 1-1.47-2.838c0-2.618 2.16-3.938 4.51-3.938.62 0 1.21.088 1.69.264h3.99v2.354h-1.74c.2.33.35.858.35 1.43 0 2.508-1.89 3.674-4.29 3.674-.4 0-.84-.066-1.32-.22-.29.242-.4.44-.4.814 0 .55.44.814 1.65.814h1.76c2.69 0 4.16.814 4.16 2.772 0 2.266-2.35 3.916-6.09 3.916-2.55 0-4.58-.836-4.58-2.772Zm4.82-7.282c.86 0 1.5-.616 1.5-1.826 0-1.144-.64-1.76-1.5-1.76s-1.5.594-1.5 1.76c0 1.21.64 1.826 1.5 1.826Zm9.22-7.106c-1.08 0-1.87-.704-1.87-1.694s.79-1.672 1.87-1.672c1.1 0 1.87.682 1.87 1.672 0 .99-.77 1.694-1.87 1.694ZM1212.05 72V61.088h3.23V72h-3.23Zm5.11-1.254 1.45-2.024c.99.748 1.89 1.144 2.82 1.144.96 0 1.38-.352 1.38-.924 0-.726-1.1-1.056-2.22-1.496-1.32-.506-2.88-1.408-2.88-3.212 0-2.024 1.65-3.41 4.18-3.41 1.67 0 2.9.682 3.85 1.386l-1.45 1.936c-.8-.572-1.54-.924-2.31-.924-.84 0-1.24.308-1.24.858 0 .704 1.02.968 2.14 1.386 1.38.506 2.95 1.276 2.95 3.278 0 1.98-1.57 3.52-4.49 3.52-1.43 0-3.08-.616-4.18-1.518Zm11.16-2.706v-4.422h-1.5V61.22l1.68-.132.37-2.904h2.68v2.904h2.62v2.53h-2.62v4.378c0 1.232.55 1.738 1.41 1.738.35 0 .75-.11 1.04-.22l.5 2.354c-.57.176-1.36.396-2.42.396-2.7 0-3.76-1.694-3.76-4.224Zm7.98 3.96V61.088h2.64l.22 1.914h.09c.79-1.474 1.98-2.178 3.1-2.178.62 0 .99.088 1.3.22l-.53 2.794c-.39-.11-.72-.176-1.19-.176-.81 0-1.82.528-2.39 2.002V72h-3.24Zm7.73-3.036c0-2.288 1.82-3.542 6.14-3.982-.07-.968-.55-1.584-1.72-1.584-.92 0-1.85.374-2.9.99l-1.15-2.134c1.39-.836 2.95-1.43 4.67-1.43 2.79 0 4.33 1.584 4.33 4.928V72h-2.64l-.24-1.122h-.07c-.92.814-1.96 1.386-3.19 1.386-1.98 0-3.23-1.452-3.23-3.3Zm3.08-.242c0 .704.48 1.034 1.25 1.034.75 0 1.23-.352 1.81-.924v-1.914c-2.31.308-3.06.968-3.06 1.804Zm9.51-.682v-4.422h-1.5V61.22l1.67-.132.38-2.904h2.68v2.904h2.62v2.53h-2.62v4.378c0 1.232.55 1.738 1.41 1.738.35 0 .75-.11 1.03-.22l.51 2.354c-.57.176-1.37.396-2.42.396-2.71 0-3.76-1.694-3.76-4.224Zm9.58-8.558c-1.08 0-1.87-.704-1.87-1.694s.79-1.672 1.87-1.672c1.1 0 1.87.682 1.87 1.672 0 .99-.77 1.694-1.87 1.694ZM1264.6 72V61.088h3.23V72h-3.23Zm5.44-5.456c0-3.63 2.55-5.72 5.32-5.72 2.75 0 5.31 2.09 5.31 5.72s-2.56 5.72-5.31 5.72c-2.77 0-5.32-2.09-5.32-5.72Zm3.32 0c0 1.892.66 3.102 2 3.102 1.32 0 2.01-1.21 2.01-3.102s-.69-3.102-2.01-3.102c-1.34 0-2 1.21-2 3.102Zm9.52 5.456V61.088h2.64l.22 1.386h.09c.92-.88 2.02-1.65 3.5-1.65 2.37 0 3.38 1.672 3.38 4.4V72h-3.23v-6.358c0-1.584-.42-2.068-1.34-2.068-.82 0-1.32.374-2.03 1.056V72h-3.23Zm17.65 0V57.568h1.85V72h-1.85Zm5.56 0V61.308h1.5l.15 1.54h.07c1.01-1.012 2.11-1.804 3.58-1.804 2.25 0 3.26 1.452 3.26 4.18V72h-1.8v-6.534c0-2.002-.62-2.86-2.03-2.86-1.1 0-1.85.572-2.92 1.65V72h-1.81Zm-221.9 26.13 1.1-1.276c1.03 1.078 2.46 1.804 3.98 1.804 1.89 0 3.02-.946 3.02-2.354 0-1.474-1.06-1.936-2.42-2.552l-2.07-.902c-1.34-.572-2.93-1.606-2.93-3.718 0-2.2 1.94-3.828 4.56-3.828 1.71 0 3.23.726 4.24 1.782l-.97 1.188c-.88-.836-1.95-1.364-3.27-1.364-1.63 0-2.71.814-2.71 2.112 0 1.386 1.28 1.914 2.4 2.398l2.07.88c1.67.726 2.97 1.716 2.97 3.85 0 2.288-1.9 4.114-4.93 4.114-2.03 0-3.79-.836-5.04-2.134Zm12.42-2.046v-6.776h1.82v6.534c0 2.002.6 2.86 2 2.86 1.1 0 1.87-.55 2.89-1.804v-7.59h1.8V100h-1.5l-.15-1.672h-.07c-.99 1.166-2.04 1.936-3.52 1.936-2.26 0-3.27-1.452-3.27-4.18Zm12.12 3.916V89.308h1.49l.16 1.54h.06c.93-1.012 2.05-1.804 3.32-1.804 1.63 0 2.51.77 2.95 2.046 1.12-1.21 2.22-2.046 3.52-2.046 2.2 0 3.26 1.452 3.26 4.18V100h-1.81v-6.534c0-2.002-.63-2.86-1.98-2.86-.83 0-1.69.55-2.68 1.65V100h-1.8v-6.534c0-2.002-.64-2.86-2.01-2.86-.79 0-1.69.55-2.68 1.65V100h-1.8Zm18.24 0V89.308h1.49l.16 1.54h.06c.93-1.012 2.05-1.804 3.32-1.804 1.63 0 2.51.77 2.95 2.046 1.12-1.21 2.22-2.046 3.52-2.046 2.2 0 3.26 1.452 3.26 4.18V100h-1.81v-6.534c0-2.002-.63-2.86-1.98-2.86-.83 0-1.69.55-2.68 1.65V100h-1.8v-6.534c0-2.002-.64-2.86-2.01-2.86-.79 0-1.69.55-2.68 1.65V100h-1.8Zm17.44-5.324c0-3.498 2.36-5.632 4.8-5.632 2.73 0 4.27 1.958 4.27 5.016 0 .374-.02.726-.07.99h-7.21c.13 2.31 1.51 3.762 3.56 3.762 1.01 0 1.87-.33 2.66-.836l.64 1.188c-.92.594-2.07 1.1-3.52 1.1-2.86 0-5.13-2.09-5.13-5.588Zm1.76-.814h5.72c0-2.178-.96-3.388-2.64-3.388-1.49 0-2.86 1.232-3.08 3.388Zm9.95 6.138V89.308h1.5l.15 1.936h.07c.72-1.342 1.82-2.2 3.03-2.2.46 0 .79.066 1.15.22l-.36 1.584c-.35-.11-.59-.176-1.03-.176-.9 0-1.98.66-2.71 2.464V100h-1.8Zm12.18 0V85.568h1.85V100h-1.85Zm5.57 0V89.308h1.49l.16 1.54h.06c1.01-1.012 2.11-1.804 3.59-1.804 2.24 0 3.25 1.452 3.25 4.18V100h-1.8v-6.534c0-2.002-.62-2.86-2.02-2.86-1.1 0-1.85.572-2.93 1.65V100h-1.8Zm12.34-3.3v-5.918h-1.59v-1.364l1.67-.11.22-2.992h1.52v2.992h2.88v1.474h-2.88v5.94c0 1.32.42 2.068 1.65 2.068.38 0 .86-.154 1.21-.286l.35 1.364c-.59.198-1.32.396-1.98.396-2.28 0-3.05-1.452-3.05-3.564Zm6.11-2.024c0-3.498 2.36-5.632 4.8-5.632 2.73 0 4.27 1.958 4.27 5.016 0 .374-.02.726-.07.99h-7.21c.13 2.31 1.51 3.762 3.56 3.762 1.01 0 1.87-.33 2.66-.836l.64 1.188c-.92.594-2.07 1.1-3.52 1.1-2.86 0-5.13-2.09-5.13-5.588Zm1.76-.814h5.72c0-2.178-.96-3.388-2.64-3.388-1.49 0-2.86 1.232-3.08 3.388Zm9.95 6.138V89.308h1.5l.15 1.936h.07c.72-1.342 1.82-2.2 3.03-2.2.46 0 .79.066 1.15.22l-.36 1.584c-.35-.11-.59-.176-1.03-.176-.9 0-1.98.66-2.71 2.464V100h-1.8Zm7.63 0V89.308h1.49l.16 1.54h.06c1.02-1.012 2.12-1.804 3.59-1.804 2.24 0 3.26 1.452 3.26 4.18V100h-1.81v-6.534c0-2.002-.61-2.86-2.02-2.86-1.1 0-1.85.572-2.93 1.65V100h-1.8Zm10.84-1.21.9-1.21c.93.748 1.87 1.276 3.15 1.276 1.41 0 2.11-.748 2.11-1.672 0-1.1-1.28-1.584-2.44-2.024-1.52-.55-3.19-1.276-3.19-3.08 0-1.716 1.36-3.036 3.67-3.036 1.34 0 2.51.55 3.32 1.21l-.85 1.144c-.73-.55-1.5-.946-2.45-.946-1.34 0-1.95.726-1.95 1.54 0 .99 1.16 1.386 2.37 1.848 1.54.572 3.26 1.21 3.26 3.234 0 1.738-1.39 3.19-3.92 3.19-1.52 0-2.97-.638-3.98-1.474Zm10.41 1.21V84.336h1.8v4.268l-.07 2.2c1.02-.968 2.09-1.76 3.57-1.76 2.24 0 3.25 1.452 3.25 4.18V100h-1.8v-6.534c0-2.002-.62-2.86-2.02-2.86-1.1 0-1.85.572-2.93 1.65V100h-1.8Zm12.89-12.892c-.71 0-1.26-.484-1.26-1.166 0-.704.55-1.166 1.26-1.166.7 0 1.25.462 1.25 1.166 0 .682-.55 1.166-1.25 1.166Zm-.93 12.892V89.308h1.81V100h-1.81Zm7.18-.968.04 1.87v3.608h-1.8V89.308h1.49l.16 1.232h.06c.97-.814 2.16-1.496 3.41-1.496 2.75 0 4.23 2.134 4.23 5.456 0 3.63-2.18 5.764-4.62 5.764-.99 0-1.98-.462-2.97-1.232Zm.04-1.408c.97.814 1.91 1.122 2.62 1.122 1.76 0 3.06-1.606 3.06-4.246 0-2.354-.8-3.938-2.82-3.938-.9 0-1.8.506-2.86 1.452v5.61Zm14.96 2.376V85.568h4.44c3.19 0 5.32 1.078 5.32 4.246 0 3.036-2.17 4.466-5.32 4.466h-2.6V100h-1.84Zm1.84-7.216h2.36c2.53 0 3.74-.924 3.74-2.97 0-2.09-1.26-2.772-3.74-2.772h-2.36v5.742Zm10.62 7.216V89.308h1.49l.16 1.936h.06c.73-1.342 1.83-2.2 3.04-2.2.46 0 .79.066 1.14.22l-.35 1.584c-.35-.11-.59-.176-1.03-.176-.91 0-1.98.66-2.71 2.464V100h-1.8Zm6.62-5.324c0-3.586 2.33-5.632 4.95-5.632 2.61 0 4.95 2.046 4.95 5.632 0 3.542-2.34 5.588-4.95 5.588-2.62 0-4.95-2.046-4.95-5.588Zm1.87 0c0 2.442 1.25 4.092 3.08 4.092 1.84 0 3.08-1.65 3.08-4.092 0-2.464-1.24-4.136-3.08-4.136-1.83 0-3.08 1.672-3.08 4.136Zm11.61 7.128c0 1.144 1.17 1.87 3.1 1.87 2.05 0 3.39-1.056 3.39-2.178 0-.99-.77-1.32-2.15-1.32h-1.85c-.42 0-.93-.044-1.39-.176-.77.55-1.1 1.188-1.1 1.804Zm-1.58.242c0-.902.59-1.76 1.56-2.42v-.088c-.53-.33-.95-.902-.95-1.738 0-.902.62-1.606 1.17-1.98v-.088c-.7-.572-1.39-1.606-1.39-2.882 0-2.332 1.85-3.806 4.03-3.806.59 0 1.12.11 1.52.264h3.72v1.386h-2.2c.5.484.88 1.298.88 2.2 0 2.288-1.74 3.718-3.92 3.718-.53 0-1.12-.132-1.61-.374-.37.33-.68.682-.68 1.276 0 .682.44 1.166 1.89 1.166h2.07c2.49 0 3.74.77 3.74 2.552 0 1.98-2.09 3.696-5.41 3.696-2.62 0-4.42-1.034-4.42-2.882Zm4.42-6.644c1.23 0 2.27-.99 2.27-2.552s-1.02-2.486-2.27-2.486-2.27.924-2.27 2.486c0 1.562 1.04 2.552 2.27 2.552Zm7.48 4.598V89.308h1.49l.16 1.936h.06c.73-1.342 1.83-2.2 3.04-2.2.46 0 .79.066 1.14.22l-.35 1.584c-.35-.11-.59-.176-1.03-.176-.9 0-1.98.66-2.71 2.464V100h-1.8Zm6.54-2.772c0-2.332 2.02-3.498 6.58-4.004 0-1.364-.47-2.684-2.2-2.684-1.26 0-2.36.572-3.19 1.144l-.73-1.254c.99-.638 2.49-1.386 4.2-1.386 2.62 0 3.72 1.738 3.72 4.4V100h-1.5l-.15-1.276h-.04c-1.04.836-2.23 1.54-3.55 1.54-1.8 0-3.14-1.122-3.14-3.036Zm1.78-.132c0 1.21.81 1.716 1.87 1.716 1.03 0 1.89-.506 2.93-1.43v-2.97c-3.59.44-4.8 1.32-4.8 2.684Zm10 2.904V89.308h1.5l.15 1.54h.07c.92-1.012 2.05-1.804 3.32-1.804 1.63 0 2.51.77 2.95 2.046 1.12-1.21 2.22-2.046 3.52-2.046 2.2 0 3.26 1.452 3.26 4.18V100h-1.81v-6.534c0-2.002-.64-2.86-1.98-2.86-.83 0-1.69.55-2.68 1.65V100h-1.81v-6.534c0-2.002-.63-2.86-2-2.86-.79 0-1.69.55-2.68 1.65V100h-1.81ZM422.913 492.13l1.1-1.276c1.034 1.078 2.464 1.804 3.982 1.804 1.892 0 3.014-.946 3.014-2.354 0-1.474-1.056-1.936-2.42-2.552l-2.068-.902c-1.342-.572-2.926-1.606-2.926-3.718 0-2.2 1.936-3.828 4.554-3.828 1.716 0 3.234.726 4.246 1.782l-.968 1.188c-.88-.836-1.958-1.364-3.278-1.364-1.628 0-2.706.814-2.706 2.112 0 1.386 1.276 1.914 2.398 2.398l2.068.88c1.672.726 2.97 1.716 2.97 3.85 0 2.288-1.892 4.114-4.928 4.114a6.948 6.948 0 0 1-5.038-2.134Zm12.877-1.43v-5.918h-1.584v-1.364l1.672-.11.22-2.992h1.518v2.992h2.882v1.474h-2.882v5.94c0 1.32.418 2.068 1.65 2.068.374 0 .858-.154 1.21-.286l.352 1.364c-.594.198-1.32.396-1.98.396-2.288 0-3.058-1.452-3.058-3.564Zm6.211.528c0-2.332 2.024-3.498 6.578-4.004 0-1.364-.462-2.684-2.2-2.684-1.254 0-2.354.572-3.19 1.144l-.726-1.254c.99-.638 2.486-1.386 4.202-1.386 2.618 0 3.718 1.738 3.718 4.4V494h-1.496l-.154-1.276h-.044c-1.034.836-2.222 1.54-3.542 1.54-1.804 0-3.146-1.122-3.146-3.036Zm1.782-.132c0 1.21.814 1.716 1.87 1.716 1.034 0 1.892-.506 2.926-1.43v-2.97c-3.586.44-4.796 1.32-4.796 2.684ZM453.786 494v-10.692h1.496l.154 1.936h.066c.726-1.342 1.826-2.2 3.036-2.2.462 0 .792.066 1.144.22l-.352 1.584c-.352-.11-.594-.176-1.034-.176-.902 0-1.98.66-2.706 2.464V494h-1.804Zm7.935-3.3v-5.918h-1.584v-1.364l1.672-.11.22-2.992h1.518v2.992h2.882v1.474h-2.882v5.94c0 1.32.418 2.068 1.65 2.068.374 0 .858-.154 1.21-.286l.352 1.364c-.594.198-1.32.396-1.98.396-2.288 0-3.058-1.452-3.058-3.564Zm8.05-9.592c-.704 0-1.254-.484-1.254-1.166 0-.704.55-1.166 1.254-1.166s1.254.462 1.254 1.166c0 .682-.55 1.166-1.254 1.166ZM468.847 494v-10.692h1.804V494h-1.804Zm5.414 0v-10.692h1.496l.154 1.54h.066c1.012-1.012 2.112-1.804 3.586-1.804 2.244 0 3.256 1.452 3.256 4.18V494h-1.804v-6.534c0-2.002-.616-2.86-2.024-2.86-1.1 0-1.848.572-2.926 1.65V494h-1.804Zm12.801 1.804c0 1.144 1.166 1.87 3.102 1.87 2.046 0 3.388-1.056 3.388-2.178 0-.99-.77-1.32-2.156-1.32h-1.848c-.418 0-.924-.044-1.386-.176-.77.55-1.1 1.188-1.1 1.804Zm-1.584.242c0-.902.594-1.76 1.562-2.42v-.088c-.528-.33-.946-.902-.946-1.738 0-.902.616-1.606 1.166-1.98v-.088c-.704-.572-1.386-1.606-1.386-2.882 0-2.332 1.848-3.806 4.026-3.806.594 0 1.122.11 1.518.264h3.718v1.386h-2.2c.506.484.88 1.298.88 2.2 0 2.288-1.738 3.718-3.916 3.718a3.735 3.735 0 0 1-1.606-.374c-.374.33-.682.682-.682 1.276 0 .682.44 1.166 1.892 1.166h2.068c2.486 0 3.74.77 3.74 2.552 0 1.98-2.09 3.696-5.412 3.696-2.618 0-4.422-1.034-4.422-2.882Zm4.422-6.644c1.232 0 2.266-.99 2.266-2.552s-1.012-2.486-2.266-2.486-2.266.924-2.266 2.486c0 1.562 1.034 2.552 2.266 2.552Zm17.381 4.862c-3.63 0-6.182-2.904-6.182-7.546 0-4.62 2.552-7.414 6.182-7.414 3.608 0 6.16 2.816 6.16 7.414 0 4.642-2.552 7.546-6.16 7.546Zm0-1.606c2.574 0 4.268-2.332 4.268-5.94 0-3.586-1.694-5.808-4.268-5.808-2.596 0-4.29 2.222-4.29 5.808 0 3.608 1.694 5.94 4.29 5.94Zm14.26-14.234-.396 1.386a3.004 3.004 0 0 0-1.21-.264c-1.012 0-1.496.704-1.496 2.068v1.694h2.266v1.474h-2.266V494h-1.804v-9.218h-1.452v-1.364l1.452-.11v-1.694c0-2.178.99-3.542 3.124-3.542.66 0 1.298.154 1.782.352ZM527.309 494v-14.432h8.338v1.54h-6.49v4.884h5.5v1.54h-5.5V494h-1.848Zm11.577-12.892c-.704 0-1.254-.484-1.254-1.166 0-.704.55-1.166 1.254-1.166s1.254.462 1.254 1.166c0 .682-.55 1.166-1.254 1.166ZM537.962 494v-10.692h1.804V494h-1.804Zm5.414 0v-10.692h1.496l.154 1.936h.066c.726-1.342 1.826-2.2 3.036-2.2.462 0 .792.066 1.144.22l-.352 1.584c-.352-.11-.594-.176-1.034-.176-.902 0-1.98.66-2.706 2.464V494h-1.804Zm6.224-1.21.902-1.21c.924.748 1.87 1.276 3.146 1.276 1.408 0 2.112-.748 2.112-1.672 0-1.1-1.276-1.584-2.442-2.024-1.518-.55-3.19-1.276-3.19-3.08 0-1.716 1.364-3.036 3.674-3.036 1.342 0 2.508.55 3.322 1.21l-.858 1.144c-.726-.55-1.496-.946-2.442-.946-1.342 0-1.958.726-1.958 1.54 0 .99 1.166 1.386 2.376 1.848 1.54.572 3.256 1.21 3.256 3.234 0 1.738-1.386 3.19-3.916 3.19-1.518 0-2.97-.638-3.982-1.474Zm10.713-2.09v-5.918h-1.584v-1.364l1.672-.11.22-2.992h1.518v2.992h2.882v1.474h-2.882v5.94c0 1.32.418 2.068 1.65 2.068.374 0 .858-.154 1.21-.286l.352 1.364c-.594.198-1.32.396-1.98.396-2.288 0-3.058-1.452-3.058-3.564Zm11.683 3.3v-14.432h4.29c2.926 0 4.972.99 4.972 3.52 0 1.43-.814 2.706-2.53 3.146v.088c2.112.33 3.344 1.474 3.344 3.454 0 2.838-2.244 4.224-5.456 4.224h-4.62Zm1.848-8.272h2.134c2.442 0 3.476-.88 3.476-2.486 0-1.562-1.166-2.222-3.388-2.222h-2.222v4.708Zm0 6.82h2.508c2.464 0 3.916-.902 3.916-2.86 0-1.782-1.386-2.596-3.916-2.596h-2.508v5.456Zm10.34-1.32c0-2.332 2.024-3.498 6.578-4.004 0-1.364-.462-2.684-2.2-2.684-1.254 0-2.354.572-3.19 1.144l-.726-1.254c.99-.638 2.486-1.386 4.202-1.386 2.618 0 3.718 1.738 3.718 4.4V494h-1.496l-.154-1.276h-.044c-1.034.836-2.222 1.54-3.542 1.54-1.804 0-3.146-1.122-3.146-3.036Zm1.782-.132c0 1.21.814 1.716 1.87 1.716 1.034 0 1.892-.506 2.926-1.43v-2.97c-3.586.44-4.796 1.32-4.796 2.684Zm10.312-.396v-5.918h-1.584v-1.364l1.672-.11.22-2.992h1.518v2.992h2.882v1.474h-2.882v5.94c0 1.32.418 2.068 1.65 2.068.374 0 .858-.154 1.21-.286l.352 1.364c-.594.198-1.32.396-1.98.396-2.288 0-3.058-1.452-3.058-3.564Zm6.119-2.024c0-3.586 2.398-5.632 5.148-5.632 1.408 0 2.398.594 3.124 1.276l-.902 1.166c-.638-.55-1.298-.946-2.156-.946-1.936 0-3.344 1.672-3.344 4.136 0 2.442 1.342 4.092 3.3 4.092 1.012 0 1.87-.506 2.508-1.078l.814 1.188c-.968.858-2.2 1.386-3.476 1.386-2.838 0-5.016-2.046-5.016-5.588ZM613.222 494v-15.664h1.804v4.268l-.066 2.2c1.012-.968 2.09-1.76 3.564-1.76 2.244 0 3.256 1.452 3.256 4.18V494h-1.804v-6.534c0-2.002-.616-2.86-2.024-2.86-1.1 0-1.848.572-2.926 1.65V494h-1.804Zm18.108 0-3.058-14.432h1.892l1.518 7.854c.286 1.562.572 3.102.858 4.664h.088c.308-1.562.66-3.124 1.012-4.664l2.002-7.854h1.672l2.002 7.854c.33 1.518.682 3.102 1.034 4.664h.088c.286-1.562.55-3.124.814-4.664l1.518-7.854h1.782L641.56 494h-2.222l-2.178-8.69c-.242-1.122-.484-2.156-.682-3.278h-.088c-.242 1.122-.484 2.156-.726 3.278l-2.156 8.69h-2.178Zm16.418-12.892c-.704 0-1.254-.484-1.254-1.166 0-.704.55-1.166 1.254-1.166s1.254.462 1.254 1.166c0 .682-.55 1.166-1.254 1.166ZM646.824 494v-10.692h1.804V494h-1.804Zm5.722-3.3v-5.918h-1.584v-1.364l1.672-.11.22-2.992h1.518v2.992h2.882v1.474h-2.882v5.94c0 1.32.418 2.068 1.65 2.068.374 0 .858-.154 1.21-.286l.352 1.364c-.594.198-1.32.396-1.98.396-2.288 0-3.058-1.452-3.058-3.564Zm7.125 3.3v-15.664h1.804v4.268l-.066 2.2c1.012-.968 2.09-1.76 3.564-1.76 2.244 0 3.256 1.452 3.256 4.18V494h-1.804v-6.534c0-2.002-.616-2.86-2.024-2.86-1.1 0-1.848.572-2.926 1.65V494h-1.804Zm16.282 0v-14.344h3.256V494h-3.256Zm6.596 0v-14.344h3.256V494h-3.256Zm9.412 0v-11.616h-3.96v-2.728h11.132v2.728h-3.938V494h-3.234Zm13.963 0v-14.344h3.256v5.874h.066l4.29-5.874h3.542l-4.334 5.72 5.148 8.624h-3.564l-3.476-6.05-1.672 2.2V494h-3.256Zm12.854-3.036c0-2.288 1.826-3.542 6.138-3.982-.066-.968-.55-1.584-1.716-1.584-.924 0-1.848.374-2.904.99l-1.144-2.134c1.386-.836 2.948-1.43 4.664-1.43 2.794 0 4.334 1.584 4.334 4.928V494h-2.64l-.242-1.122h-.066c-.924.814-1.958 1.386-3.19 1.386-1.98 0-3.234-1.452-3.234-3.3Zm3.08-.242c0 .704.484 1.034 1.254 1.034.748 0 1.232-.352 1.804-.924v-1.914c-2.31.308-3.058.968-3.058 1.804Zm9.068 3.278v-10.912h2.64l.22 1.386h.088c.924-.88 2.024-1.65 3.498-1.65 2.376 0 3.388 1.672 3.388 4.4V494h-3.234v-6.358c0-1.584-.418-2.068-1.342-2.068-.814 0-1.32.374-2.024 1.056V494h-3.234Zm15.714-.88.11 1.738v3.19h-3.234v-14.96h2.64l.22 1.078h.088c.858-.77 1.958-1.342 3.102-1.342 2.64 0 4.268 2.178 4.268 5.544 0 3.74-2.244 5.896-4.598 5.896-.946 0-1.826-.418-2.596-1.144Zm.11-2.2c.572.528 1.188.704 1.738.704 1.122 0 2.024-.968 2.024-3.212 0-1.958-.594-2.948-1.892-2.948-.66 0-1.232.308-1.87.99v4.466Zm9.267-1.056v-6.776h3.234v6.358c0 1.562.418 2.068 1.364 2.068.814 0 1.298-.352 1.936-1.21v-7.216h3.234V494h-2.64l-.242-1.518h-.066c-.924 1.1-1.936 1.782-3.432 1.782-2.376 0-3.388-1.672-3.388-4.4ZM768.631 494v-10.912h2.64l.22 1.914h.088c.792-1.474 1.98-2.178 3.102-2.178.616 0 .99.088 1.298.22l-.528 2.794a4.076 4.076 0 0 0-1.188-.176c-.814 0-1.826.528-2.398 2.002V494h-3.234ZM876.223 580v-14.432h8.316v1.54h-6.468v4.532h5.456v1.562h-5.456v5.236h6.688V580h-8.536Zm10.196-1.21.902-1.21c.924.748 1.87 1.276 3.146 1.276 1.408 0 2.112-.748 2.112-1.672 0-1.1-1.276-1.584-2.442-2.024-1.518-.55-3.19-1.276-3.19-3.08 0-1.716 1.364-3.036 3.674-3.036 1.342 0 2.508.55 3.322 1.21l-.858 1.144c-.726-.55-1.496-.946-2.442-.946-1.342 0-1.958.726-1.958 1.54 0 .99 1.166 1.386 2.376 1.848 1.54.572 3.256 1.21 3.256 3.234 0 1.738-1.386 3.19-3.916 3.19-1.518 0-2.97-.638-3.982-1.474Zm10.713-2.09v-5.918h-1.584v-1.364l1.672-.11.22-2.992h1.518v2.992h2.882v1.474h-2.882v5.94c0 1.32.418 2.068 1.65 2.068.374 0 .858-.154 1.21-.286l.352 1.364c-.594.198-1.32.396-1.98.396-2.288 0-3.058-1.452-3.058-3.564Zm6.21.528c0-2.332 2.024-3.498 6.578-4.004 0-1.364-.462-2.684-2.2-2.684-1.254 0-2.354.572-3.19 1.144l-.726-1.254c.99-.638 2.486-1.386 4.202-1.386 2.618 0 3.718 1.738 3.718 4.4V580h-1.496l-.154-1.276h-.044c-1.034.836-2.222 1.54-3.542 1.54-1.804 0-3.146-1.122-3.146-3.036Zm1.782-.132c0 1.21.814 1.716 1.87 1.716 1.034 0 1.892-.506 2.926-1.43v-2.97c-3.586.44-4.796 1.32-4.796 2.684ZM915.128 580v-15.664h1.804v4.268l-.044 1.936c.968-.858 2.156-1.496 3.344-1.496 2.772 0 4.246 2.134 4.246 5.434 0 3.652-2.178 5.786-4.62 5.786-.99 0-2.112-.484-3.058-1.32h-.066L916.58 580h-1.452Zm1.804-2.376c.946.814 1.914 1.122 2.618 1.122 1.76 0 3.058-1.606 3.058-4.246 0-2.354-.792-3.938-2.816-3.938-.902 0-1.848.506-2.86 1.452v5.61Zm10.399.22v-13.508h1.804v13.64c0 .572.242.792.506.792.11 0 .198 0 .396-.044l.242 1.364c-.242.11-.55.176-1.034.176-1.364 0-1.914-.858-1.914-2.42Zm6.532-10.736c-.704 0-1.254-.484-1.254-1.166 0-.704.55-1.166 1.254-1.166s1.254.462 1.254 1.166c0 .682-.55 1.166-1.254 1.166ZM932.939 580v-10.692h1.804V580h-1.804Zm4.226-1.21.902-1.21c.924.748 1.87 1.276 3.146 1.276 1.408 0 2.112-.748 2.112-1.672 0-1.1-1.276-1.584-2.442-2.024-1.518-.55-3.19-1.276-3.19-3.08 0-1.716 1.364-3.036 3.674-3.036 1.342 0 2.508.55 3.322 1.21l-.858 1.144c-.726-.55-1.496-.946-2.442-.946-1.342 0-1.958.726-1.958 1.54 0 .99 1.166 1.386 2.376 1.848 1.54.572 3.256 1.21 3.256 3.234 0 1.738-1.386 3.19-3.916 3.19-1.518 0-2.97-.638-3.982-1.474ZM947.57 580v-15.664h1.804v4.268l-.066 2.2c1.012-.968 2.09-1.76 3.564-1.76 2.244 0 3.256 1.452 3.256 4.18V580h-1.804v-6.534c0-2.002-.616-2.86-2.024-2.86-1.1 0-1.848.572-2.926 1.65V580h-1.804Zm11.966 0v-10.692h1.496l.154 1.54h.066c.924-1.012 2.046-1.804 3.322-1.804 1.628 0 2.508.77 2.948 2.046 1.122-1.21 2.222-2.046 3.52-2.046 2.2 0 3.256 1.452 3.256 4.18V580h-1.804v-6.534c0-2.002-.638-2.86-1.98-2.86-.836 0-1.694.55-2.684 1.65V580h-1.804v-6.534c0-2.002-.638-2.86-2.002-2.86-.792 0-1.694.55-2.684 1.65V580h-1.804Zm17.449-5.324c0-3.498 2.354-5.632 4.796-5.632 2.728 0 4.268 1.958 4.268 5.016 0 .374-.022.726-.066.99h-7.216c.132 2.31 1.518 3.762 3.564 3.762 1.012 0 1.87-.33 2.662-.836l.638 1.188c-.924.594-2.068 1.1-3.52 1.1-2.86 0-5.126-2.09-5.126-5.588Zm1.76-.814h5.72c0-2.178-.968-3.388-2.64-3.388-1.496 0-2.86 1.232-3.08 3.388Zm9.946 6.138v-10.692h1.496l.154 1.54h.066c1.012-1.012 2.112-1.804 3.586-1.804 2.244 0 3.256 1.452 3.256 4.18V580h-1.804v-6.534c0-2.002-.616-2.86-2.024-2.86-1.1 0-1.848.572-2.926 1.65V580h-1.804Zm12.339-3.3v-5.918h-1.584v-1.364l1.674-.11.22-2.992h1.52v2.992h2.88v1.474h-2.88v5.94c0 1.32.41 2.068 1.65 2.068.37 0 .85-.154 1.21-.286l.35 1.364c-.6.198-1.32.396-1.98.396-2.29 0-3.06-1.452-3.06-3.564Zm17.03 3.564c-3.63 0-6.18-2.904-6.18-7.546 0-4.62 2.55-7.414 6.18-7.414 3.61 0 6.16 2.816 6.16 7.414 0 4.642-2.55 7.546-6.16 7.546Zm0-1.606c2.57 0 4.27-2.332 4.27-5.94 0-3.586-1.7-5.808-4.27-5.808-2.6 0-4.29 2.222-4.29 5.808 0 3.608 1.69 5.94 4.29 5.94Zm14.26-14.234-.4 1.386a2.969 2.969 0 0 0-1.21-.264c-1.01 0-1.49.704-1.49 2.068v1.694h2.26v1.474h-2.26V580h-1.81v-9.218h-1.45v-1.364l1.45-.11v-1.694c0-2.178.99-3.542 3.13-3.542.66 0 1.29.154 1.78.352Zm5.59 8.932v-7.7h3.23v8.03c0 2.816.88 3.784 2.49 3.784 1.6 0 2.55-.968 2.55-3.784v-8.03h3.12v7.7c0 4.818-1.96 6.908-5.67 6.908-3.72 0-5.72-2.09-5.72-6.908Zm17.53 5.764.11 1.738v3.19h-3.23v-14.96h2.64l.22 1.078h.09c.85-.77 1.95-1.342 3.1-1.342 2.64 0 4.27 2.178 4.27 5.544 0 3.74-2.25 5.896-4.6 5.896-.95 0-1.83-.418-2.6-1.144Zm.11-2.2c.57.528 1.19.704 1.74.704 1.12 0 2.02-.968 2.02-3.212 0-1.958-.59-2.948-1.89-2.948-.66 0-1.23.308-1.87.99v4.466Zm8.3 1.826 1.46-2.024c.99.748 1.89 1.144 2.81 1.144.97 0 1.39-.352 1.39-.924 0-.726-1.1-1.056-2.22-1.496-1.32-.506-2.89-1.408-2.89-3.212 0-2.024 1.65-3.41 4.18-3.41 1.68 0 2.91.682 3.85 1.386l-1.45 1.936c-.79-.572-1.54-.924-2.31-.924-.83 0-1.23.308-1.23.858 0 .704 1.01.968 2.13 1.386 1.39.506 2.95 1.276 2.95 3.278 0 1.98-1.56 3.52-4.49 3.52-1.43 0-3.08-.616-4.18-1.518Zm10.73 1.254v-15.422h3.14v8.844h.09l3.45-4.334h3.52l-3.82 4.488 4.11 6.424h-3.5l-2.46-4.246-1.39 1.562V580h-3.14Zm13.66-12.518c-1.08 0-1.87-.704-1.87-1.694s.79-1.672 1.87-1.672c1.1 0 1.87.682 1.87 1.672 0 .99-.77 1.694-1.87 1.694ZM1086.63 580v-10.912h3.23V580h-3.23Zm6.08-3.388v-12.034h3.23v12.166c0 .682.31.902.58.902.13 0 .22 0 .39-.044l.4 2.398c-.35.154-.9.264-1.63.264-2.22 0-2.97-1.452-2.97-3.652Zm6.29 0v-12.034h3.24v12.166c0 .682.31.902.57.902.13 0 .22 0 .4-.044l.39 2.398c-.35.154-.9.264-1.63.264-2.22 0-2.97-1.452-2.97-3.652Zm10.44-3.696c0-4.752 3.14-7.524 6.84-7.524 1.78 0 3.28.88 4.24 1.87l-1.78 2.002c-.72-.66-1.41-1.078-2.42-1.078-2 0-3.56 1.738-3.56 4.62 0 2.948 1.38 4.664 3.47 4.664 1.19 0 2.03-.506 2.73-1.276l1.78 1.958c-1.18 1.386-2.77 2.112-4.55 2.112-3.72 0-6.75-2.53-6.75-7.348Zm12.8 4.048c0-2.288 1.83-3.542 6.14-3.982-.07-.968-.55-1.584-1.72-1.584-.92 0-1.84.374-2.9.99l-1.14-2.134c1.38-.836 2.94-1.43 4.66-1.43 2.79 0 4.33 1.584 4.33 4.928V580h-2.64l-.24-1.122h-.06c-.93.814-1.96 1.386-3.19 1.386-1.98 0-3.24-1.452-3.24-3.3Zm3.08-.242c0 .704.49 1.034 1.26 1.034.74 0 1.23-.352 1.8-.924v-1.914c-2.31.308-3.06.968-3.06 1.804Zm9.07 3.278v-10.912h2.64l.22 1.408h.09c.9-.902 1.87-1.672 3.3-1.672 1.54 0 2.46.66 3.01 1.826.97-.99 1.98-1.826 3.43-1.826 2.36 0 3.41 1.672 3.41 4.4V580h-3.23v-6.358c0-1.584-.42-2.068-1.34-2.068-.55 0-1.17.352-1.87 1.056V580h-3.24v-6.358c0-1.584-.42-2.068-1.34-2.068-.53 0-1.17.352-1.85 1.056V580h-3.23Zm21.99-.88.11 1.738v3.19h-3.24v-14.96h2.64l.22 1.078h.09c.86-.77 1.96-1.342 3.1-1.342 2.64 0 4.27 2.178 4.27 5.544 0 3.74-2.24 5.896-4.6 5.896-.94 0-1.82-.418-2.59-1.144Zm.11-2.2c.57.528 1.18.704 1.73.704 1.13 0 2.03-.968 2.03-3.212 0-1.958-.6-2.948-1.89-2.948-.66 0-1.24.308-1.87.99v4.466Zm9.26-1.056v-6.776h3.24v6.358c0 1.562.42 2.068 1.36 2.068.82 0 1.3-.352 1.94-1.21v-7.216h3.23V580h-2.64l-.24-1.518h-.07c-.92 1.1-1.93 1.782-3.43 1.782-2.37 0-3.39-1.672-3.39-4.4Zm11.65 2.882 1.45-2.024c.99.748 1.89 1.144 2.82 1.144.97 0 1.38-.352 1.38-.924 0-.726-1.1-1.056-2.22-1.496-1.32-.506-2.88-1.408-2.88-3.212 0-2.024 1.65-3.41 4.18-3.41 1.67 0 2.9.682 3.85 1.386l-1.45 1.936c-.79-.572-1.54-.924-2.31-.924-.84 0-1.23.308-1.23.858 0 .704 1.01.968 2.13 1.386 1.39.506 2.95 1.276 2.95 3.278 0 1.98-1.56 3.52-4.49 3.52-1.43 0-3.08-.616-4.18-1.518Z"/><path stroke="url(#a)" stroke-width="15" d="M197 314.273c84.742-31.358 298.164-77.021 473.911-8.805 219.685 85.27 376.739 88.977 571.089 8.805"/><circle cx="1214" cy="322" r="36" fill="#09CEFF"/><ellipse cx="225" cy="309.5" fill="#FB2100" rx="36" ry="35.5"/><circle cx="225" cy="481" r="35" stroke="#fff" stroke-width="2"/><path stroke="#fff" stroke-width="2" d="M1179 151c0-19.33 15.67-35 35-35s35 15.67 35 35-15.67 35-35 35-35-15.67-35-35ZM225 446V345M1214 187v99"/><path fill="#fff" d="M201.548 316v-1.932c3.726-3.519 6.348-6.026 6.348-8.096 0-1.426-.805-2.208-2.07-2.208-1.058 0-1.863.713-2.599 1.495l-1.84-1.817c1.449-1.541 2.806-2.323 4.899-2.323 2.875 0 4.83 1.84 4.83 4.646 0 2.461-2.3 5.083-4.669 7.567.736-.092 1.748-.184 2.438-.184h2.944V316h-10.281Zm17.373.276c-3.128 0-5.221-2.668-5.221-7.636s2.093-7.521 5.221-7.521 5.221 2.553 5.221 7.521-2.093 7.636-5.221 7.636Zm0-2.622c1.15 0 2.024-1.035 2.024-5.014 0-4.002-.874-4.899-2.024-4.899-1.127 0-2.024.897-2.024 4.899 0 3.979.897 5.014 2.024 5.014ZM226.61 316v-2.737h3.174v-8.441h-2.737v-2.093c1.587-.299 2.599-.713 3.634-1.334h2.484v11.868h2.737V316h-9.292Zm14.198 0c.276-4.853 1.15-7.935 3.91-11.753h-6.555v-2.852h10.166v2.07c-3.381 4.094-3.864 6.831-4.117 12.535h-3.404Z"/><circle cx="383.869" cy="138.662" r="34.93" stroke="#fff" stroke-width="2"/><circle cx="384.292" cy="273.507" r="8.454" fill="#fff"/><path stroke="#fff" stroke-width="2" d="M384.292 308.169V173.747"/><rect width="91.996" height="24.363" x="338.293" y="308.669" stroke="#fff" rx="3.5"/><path fill="#fff" d="M360.84 328.096v-1.932c3.726-3.519 6.348-6.026 6.348-8.096 0-1.426-.805-2.208-2.07-2.208-1.058 0-1.863.713-2.599 1.495l-1.84-1.817c1.449-1.541 2.806-2.323 4.899-2.323 2.875 0 4.83 1.84 4.83 4.646 0 2.461-2.3 5.083-4.669 7.567.736-.092 1.748-.184 2.438-.184h2.944v2.852H360.84Zm17.372.276c-3.128 0-5.221-2.668-5.221-7.636s2.093-7.521 5.221-7.521 5.221 2.553 5.221 7.521-2.093 7.636-5.221 7.636Zm0-2.622c1.15 0 2.024-1.035 2.024-5.014 0-4.002-.874-4.899-2.024-4.899-1.127 0-2.024.897-2.024 4.899 0 3.979.897 5.014 2.024 5.014Zm7.69 2.346v-2.737h3.174v-8.441h-2.737v-2.093c1.587-.299 2.599-.713 3.634-1.334h2.484v11.868h2.737v2.737h-9.292Zm14.405-4.117c0 1.288 1.035 2.047 2.254 2.047 1.127 0 1.955-.598 1.955-1.817 0-1.288-1.242-1.771-3.082-2.553-.644.598-1.127 1.426-1.127 2.323Zm3.105-4.393c.575-.667.897-1.38.897-2.139 0-1.127-.667-1.886-1.771-1.886-.897 0-1.633.552-1.633 1.679 0 1.196 1.012 1.771 2.507 2.346Zm-6.003 4.784c0-1.771 1.104-2.852 2.484-3.588v-.092c-1.127-.851-1.955-1.909-1.955-3.45 0-2.484 1.955-4.025 4.669-4.025 2.668 0 4.439 1.587 4.439 4.002 0 1.403-.897 2.53-1.909 3.197v.092c1.403.759 2.53 1.886 2.53 3.818 0 2.3-2.07 4.048-5.175 4.048-2.921 0-5.083-1.633-5.083-4.002Z"/><circle cx="600.296" cy="426.95" r="34.93" stroke="#fff" stroke-width="2" transform="rotate(-180 600.296 426.95)"/><circle cx="599.873" cy="283.652" r="8.454" fill="#fff" transform="rotate(-180 599.873 283.652)"/><path stroke="#fff" stroke-width="2" d="M599.873 248.99v142.875"/><rect width="91.996" height="24.363" x="645.871" y="248.49" stroke="#fff" rx="3.5" transform="rotate(-180 645.871 248.49)"/><path fill="#fff" d="M576.421 243.554v-1.932c3.726-3.519 6.348-6.026 6.348-8.096 0-1.426-.805-2.208-2.07-2.208-1.058 0-1.863.713-2.599 1.495l-1.84-1.817c1.449-1.541 2.806-2.323 4.899-2.323 2.875 0 4.83 1.84 4.83 4.646 0 2.461-2.3 5.083-4.669 7.567.736-.092 1.748-.184 2.438-.184h2.944v2.852h-10.281Zm17.373.276c-3.128 0-5.221-2.668-5.221-7.636s2.093-7.521 5.221-7.521 5.221 2.553 5.221 7.521-2.093 7.636-5.221 7.636Zm0-2.622c1.15 0 2.024-1.035 2.024-5.014 0-4.002-.874-4.899-2.024-4.899-1.127 0-2.024.897-2.024 4.899 0 3.979.897 5.014 2.024 5.014Zm6.93 2.346v-1.932c3.726-3.519 6.348-6.026 6.348-8.096 0-1.426-.805-2.208-2.07-2.208-1.058 0-1.863.713-2.599 1.495l-1.84-1.817c1.449-1.541 2.806-2.323 4.899-2.323 2.875 0 4.83 1.84 4.83 4.646 0 2.461-2.3 5.083-4.669 7.567.736-.092 1.748-.184 2.438-.184h2.944v2.852h-10.281Zm17.373.276c-3.128 0-5.221-2.668-5.221-7.636s2.093-7.521 5.221-7.521 5.221 2.553 5.221 7.521-2.093 7.636-5.221 7.636Zm0-2.622c1.15 0 2.024-1.035 2.024-5.014 0-4.002-.874-4.899-2.024-4.899-1.127 0-2.024.897-2.024 4.899 0 3.979.897 5.014 2.024 5.014Z"/><circle cx="815.878" cy="207.987" r="34.93" stroke="#fff" stroke-width="2" transform="rotate(180 815.878 207.987)"/><circle cx="815.455" cy="351.286" r="8.454" fill="#fff" transform="rotate(180 815.455 351.286)"/><path stroke="#fff" stroke-width="2" d="M815.455 243.072v142.876"/><rect width="91.996" height="24.363" x="861.453" y="410.81" stroke="#fff" rx="3.5" transform="rotate(180 861.453 410.81)"/><path fill="#fff" d="M792.004 406v-1.932c3.726-3.519 6.348-6.026 6.348-8.096 0-1.426-.805-2.208-2.07-2.208-1.058 0-1.863.713-2.599 1.495l-1.84-1.817c1.449-1.541 2.806-2.323 4.899-2.323 2.875 0 4.83 1.84 4.83 4.646 0 2.461-2.3 5.083-4.669 7.567.736-.092 1.748-.184 2.438-.184h2.944V406h-10.281Zm17.372.276c-3.128 0-5.221-2.668-5.221-7.636s2.093-7.521 5.221-7.521 5.221 2.553 5.221 7.521-2.093 7.636-5.221 7.636Zm0-2.622c1.15 0 2.024-1.035 2.024-5.014 0-4.002-.874-4.899-2.024-4.899-1.127 0-2.024.897-2.024 4.899 0 3.979.897 5.014 2.024 5.014Zm6.93 2.346v-1.932c3.726-3.519 6.348-6.026 6.348-8.096 0-1.426-.805-2.208-2.07-2.208-1.058 0-1.863.713-2.599 1.495l-1.84-1.817c1.449-1.541 2.806-2.323 4.899-2.323 2.875 0 4.83 1.84 4.83 4.646 0 2.461-2.3 5.083-4.669 7.567.736-.092 1.748-.184 2.438-.184h2.944V406h-10.281Zm12.911 0v-2.737h3.174v-8.441h-2.737v-2.093c1.587-.299 2.599-.713 3.634-1.334h2.484v11.868h2.737V406h-9.292ZM1191.05 329v-1.932c3.72-3.519 6.35-6.026 6.35-8.096 0-1.426-.81-2.208-2.07-2.208-1.06 0-1.87.713-2.6 1.495l-1.84-1.817c1.45-1.541 2.8-2.323 4.9-2.323 2.87 0 4.83 1.84 4.83 4.646 0 2.461-2.3 5.083-4.67 7.567.73-.092 1.75-.184 2.44-.184h2.94V329h-10.28Zm17.37.276c-3.13 0-5.22-2.668-5.22-7.636s2.09-7.521 5.22-7.521 5.22 2.553 5.22 7.521-2.09 7.636-5.22 7.636Zm0-2.622c1.15 0 2.02-1.035 2.02-5.014 0-4.002-.87-4.899-2.02-4.899-1.13 0-2.02.897-2.02 4.899 0 3.979.89 5.014 2.02 5.014Zm6.93 2.346v-1.932c3.73-3.519 6.35-6.026 6.35-8.096 0-1.426-.81-2.208-2.07-2.208-1.06 0-1.86.713-2.6 1.495l-1.84-1.817c1.45-1.541 2.81-2.323 4.9-2.323 2.87 0 4.83 1.84 4.83 4.646 0 2.461-2.3 5.083-4.67 7.567.74-.092 1.75-.184 2.44-.184h2.94V329h-10.28Zm11.81-1.794 1.56-2.139c.88.851 1.96 1.472 3.2 1.472 1.42 0 2.37-.621 2.37-1.725 0-1.288-.76-2.093-3.94-2.093v-2.392c2.63 0 3.45-.782 3.45-1.955 0-1.012-.64-1.61-1.79-1.61-1.03 0-1.82.483-2.74 1.288l-1.7-2.07c1.34-1.15 2.81-1.863 4.6-1.863 3.01 0 5.04 1.449 5.04 4.002 0 1.518-.88 2.576-2.44 3.243v.092c1.68.483 2.9 1.679 2.9 3.565 0 2.714-2.49 4.255-5.43 4.255-2.37 0-4.02-.828-5.08-2.07Z"/><circle cx="1031.46" cy="512.338" r="34.93" stroke="#fff" stroke-width="2" transform="rotate(180 1031.46 512.338)"/><path stroke="#fff" stroke-width="2" d="M1031.04 334.377v142.876"/><rect width="91.996" height="24.363" x="1077.03" y="333.877" stroke="#fff" rx="3.5" transform="rotate(180 1077.03 333.877)"/><path fill="#fff" d="M1007.59 328.942v-1.932c3.72-3.519 6.34-6.026 6.34-8.096 0-1.426-.8-2.208-2.07-2.208-1.05 0-1.86.713-2.6 1.495l-1.84-1.817c1.45-1.541 2.81-2.323 4.9-2.323 2.88 0 4.83 1.84 4.83 4.646 0 2.461-2.3 5.083-4.67 7.567.74-.092 1.75-.184 2.44-.184h2.95v2.852h-10.28Zm17.37.276c-3.13 0-5.22-2.668-5.22-7.636s2.09-7.521 5.22-7.521 5.22 2.553 5.22 7.521-2.09 7.636-5.22 7.636Zm0-2.622c1.15 0 2.02-1.035 2.02-5.014 0-4.002-.87-4.899-2.02-4.899-1.13 0-2.03.897-2.03 4.899 0 3.979.9 5.014 2.03 5.014Zm6.93 2.346v-1.932c3.72-3.519 6.35-6.026 6.35-8.096 0-1.426-.81-2.208-2.07-2.208-1.06 0-1.87.713-2.6 1.495l-1.84-1.817c1.45-1.541 2.8-2.323 4.9-2.323 2.87 0 4.83 1.84 4.83 4.646 0 2.461-2.3 5.083-4.67 7.567.73-.092 1.74-.184 2.43-.184h2.95v2.852h-10.28Zm12.15 0v-1.932c3.73-3.519 6.35-6.026 6.35-8.096 0-1.426-.81-2.208-2.07-2.208-1.06 0-1.87.713-2.6 1.495l-1.84-1.817c1.45-1.541 2.8-2.323 4.9-2.323 2.87 0 4.83 1.84 4.83 4.646 0 2.461-2.3 5.083-4.67 7.567.73-.092 1.75-.184 2.44-.184h2.94v2.852h-10.28Z"/><circle cx="1031.04" cy="369.039" r="8.454" fill="#fff" transform="rotate(180 1031.04 369.039)"/><g fill="#fff" clip-path="url(#b)"><path d="M206.429 493.83c-.221-2.71.797-4.59 3.547-5.421-1.118-1.171-1.484-2.519-.803-3.992.681-1.472 1.944-2.088 3.623-2.03v-.486c0-4.268-.01-8.536 0-12.804.009-2.923 1.262-5.22 3.754-6.841a7.514 7.514 0 0 1 4.125-1.242c2.539-.015 5.068-.011 7.602-.01.57 0 .742.185.743.775v6.827h7.218c.828 0 .936.108.936.901v12.872c1.665-.056 2.953.552 3.643 2.034.678 1.465.341 2.805-.8 3.997 2.749.808 3.775 2.697 3.558 5.423h.672c.552.007.753.196.754.727v3.716c0 .54-.191.725-.744.726h-38.301c-.836 0-.953-.114-.953-.928v-3.392c0-.694.162-.849.884-.85l.542-.002Zm21.407-13.1v-18.576c-.122-.009-.221-.022-.312-.022-2.208 0-4.407-.025-6.61.006-3.94.056-6.935 2.998-6.955 6.847-.023 4.469 0 8.94-.009 13.409a.489.489 0 0 0 .26.488c1.939 1.205 2.281 3.599.773 5.305-.059.067-.11.139-.196.245 1.446.343 2.479 1.155 3.178 2.471a5.395 5.395 0 0 1 1.666-2.549c.773-.667 1.697-1.049 2.734-1.249-2.162-1.883-1.856-4.503-.612-5.941 1.244-1.438 3.757-2.224 6.083-.434Zm1.195-10.976V481.576c0 .367-.046.748.04 1.096.389 1.566.045 2.929-1.104 4.092a4.179 4.179 0 0 1-.414.323c2.291.451 3.746 1.704 4.492 3.8.681-1.317 1.737-2.111 3.173-2.466l-.199-.227c-1.523-1.691-1.191-4.093.753-5.301.255-.158.255-.345.255-.575V470.2c0-.143-.012-.286-.02-.447l-6.976.001Zm-22.852 28.094h37.63v-2.864h-37.63v2.864Zm24.896-4.043c0-.492.01-.96 0-1.427-.064-2.448-1.84-4.159-4.348-4.185a162.644 162.644 0 0 0-3.422 0 4.531 4.531 0 0 0-1.025.102c-2.708.668-3.676 2.868-3.279 5.508l12.074.002Zm-23.551 0h9.653c0-.485.036-.943-.007-1.393-.147-1.527-1.3-2.75-2.863-2.87a26.078 26.078 0 0 0-3.873 0c-1.344.094-2.46 1.102-2.745 2.384-.134.592-.116 1.22-.167 1.873l.002.006Zm25.281 0h9.616c0-.449.022-.863 0-1.28-.098-1.543-1.284-2.853-2.854-2.976a25.827 25.827 0 0 0-3.914 0c-1.272.094-2.133.863-2.623 2.003-.307.708-.24 1.466-.222 2.244l-.003.009Zm-4.747-9.957a2.951 2.951 0 0 0-.226-1.15 3.003 3.003 0 0 0-.659-.979 3.085 3.085 0 0 0-.993-.656 3.141 3.141 0 0 0-1.174-.236 3.133 3.133 0 0 0-1.176.225 3.064 3.064 0 0 0-.999.647 2.989 2.989 0 0 0-.668.972 2.931 2.931 0 0 0-.237 1.148 2.92 2.92 0 0 0 .222 1.151c.151.366.375.698.659.979.283.28.621.503.994.654.372.152.772.23 1.175.23.405.004.807-.07 1.182-.219a3.071 3.071 0 0 0 1.003-.647c.287-.279.515-.61.67-.975.156-.366.235-.757.234-1.153l-.007.009Zm-13.31 2.014a2.296 2.296 0 0 0-.685-1.655 2.416 2.416 0 0 0-1.685-.69 2.365 2.365 0 0 0-2.388 2.373c.012.597.259 1.167.69 1.591.43.424 1.011.67 1.622.687 1.369.006 2.448-1.01 2.454-2.315l-.008.009Zm25.226-.014a2.29 2.29 0 0 0-.691-1.653 2.371 2.371 0 0 0-.775-.505 2.422 2.422 0 0 0-.914-.173 2.354 2.354 0 0 0-2.366 2.391c.012.598.26 1.167.692 1.589a2.391 2.391 0 0 0 1.626.677c1.371 0 2.435-1.023 2.435-2.335l-.007.009Z"/><path d="M217.212 472.88a6.644 6.644 0 0 1-.662 0c-.345-.035-.57-.223-.552-.579.017-.356.231-.539.589-.539.427-.007.855-.011 1.281 0 .347.01.6.249.585.551-.018.346-.228.539-.578.568-.22.017-.441 0-.662 0l-.001-.001ZM217.203 476.278a6.644 6.644 0 0 1-.662 0c-.332-.033-.53-.215-.546-.55-.014-.316.213-.554.567-.567.441-.015.883-.015 1.324 0a.565.565 0 0 1 .534.349c.028.069.04.144.037.218a.538.538 0 0 1-.16.387.56.56 0 0 1-.392.163c-.237.017-.472 0-.702 0ZM217.217 483.074c-.234 0-.469.018-.702 0a.535.535 0 0 1-.372-.156.503.503 0 0 1-.148-.369c-.017-.335.18-.557.504-.58.481-.034.964-.034 1.445 0a.522.522 0 0 1 .475.339.504.504 0 0 1 .029.2.521.521 0 0 1-.316.518.557.557 0 0 1-.213.045c-.232.021-.468.003-.702.003ZM217.232 469.479c-.221 0-.441.014-.662 0-.345-.027-.576-.204-.575-.561.001-.357.213-.547.57-.557.442-.012.884-.011 1.325 0 .343.009.529.216.563.533.032.299-.213.551-.558.583-.221.019-.442 0-.663 0v.002ZM224.629 475.155c.22 0 .441-.013.662 0 .331.024.535.205.552.54.016.334-.187.548-.512.57-.468.03-.936.03-1.403 0a.537.537 0 0 1-.392-.164.508.508 0 0 1-.137-.394.52.52 0 0 1 .143-.392.525.525 0 0 1 .392-.162c.224-.011.461.002.695.002ZM224.614 471.756c.221 0 .442-.007.662 0 .338.015.54.19.561.525.021.334-.175.557-.499.582-.48.035-.962.035-1.442 0-.331-.023-.523-.253-.503-.581.02-.328.221-.515.562-.527.219-.004.438.001.659.001ZM220.925 475.154c.22 0 .441-.011.662 0 .338.022.537.207.552.54.015.332-.181.551-.511.572-.467.029-.935.029-1.401 0a.523.523 0 0 1-.503-.348.504.504 0 0 1-.024-.211c0-.355.221-.54.571-.557.213-.005.434.003.654.004ZM217.19 479.678c-.22.01-.442.01-.662 0-.331-.034-.533-.223-.536-.556a.517.517 0 0 1 .53-.557c.468-.027.937-.027 1.405 0 .331.021.526.247.518.571a.511.511 0 0 1-.31.493.546.546 0 0 1-.203.046 7.101 7.101 0 0 1-.744 0l.002.003ZM224.581 469.479c-.206 0-.414.013-.618 0-.35-.027-.576-.216-.572-.565.005-.35.214-.547.576-.554.442-.007.884-.011 1.325 0 .338.011.536.201.552.54.017.338-.189.533-.513.573-.247.017-.495.02-.742.006h-.008ZM224.605 464.958c.234 0 .468-.012.701 0 .318.02.508.196.528.511.021.335-.159.563-.49.585a11.09 11.09 0 0 1-1.481 0c-.318-.022-.485-.256-.473-.561a.495.495 0 0 1 .143-.371.54.54 0 0 1 .372-.157c.232-.017.467 0 .7 0v-.007ZM220.919 471.756c.221 0 .442-.007.662 0 .319.014.518.179.552.491.036.331-.134.582-.461.609a9.196 9.196 0 0 1-1.521 0c-.306-.026-.474-.263-.453-.579a.501.501 0 0 1 .322-.478.536.536 0 0 1 .202-.037c.232-.018.467 0 .701 0l-.004-.006ZM220.935 468.361c.233 0 .468-.015.7 0 .133.003.26.057.352.15a.494.494 0 0 1 .145.349c.025.309-.129.559-.442.583a9.673 9.673 0 0 1-1.56 0c-.31-.024-.463-.273-.442-.584a.49.49 0 0 1 .145-.348.511.511 0 0 1 .353-.149c.253-.017.502-.002.749-.001ZM220.885 466.067a5.26 5.26 0 0 1-.699-.007c-.331-.044-.511-.251-.492-.585.018-.314.206-.502.525-.513.466-.016.934-.017 1.4 0 .321.014.501.216.514.525.014.308-.153.525-.468.566a5.97 5.97 0 0 1-.78.006v.008ZM232.524 472.83c-.315 0-.632.009-.946 0-.331-.015-.54-.194-.552-.528-.017-.358.197-.57.541-.584.643-.025 1.29-.025 1.934 0 .347.014.552.237.534.589-.017.33-.221.512-.561.523-.319.007-.634 0-.95 0ZM232.542 475.127c.315 0 .631-.012.946 0 .337.016.536.206.545.54.009.333-.178.552-.513.564-.663.023-1.316.023-1.973 0-.331-.011-.529-.216-.524-.555 0-.357.22-.539.574-.551.314-.013.63 0 .945 0v.002ZM232.926 478.543c.178 0 .357-.007.534 0 .332.015.542.186.563.519.022.356-.185.569-.528.595-.41.033-.822.033-1.232 0-.325-.028-.519-.243-.504-.577.016-.335.212-.514.552-.532.203-.014.41-.005.615-.005Z"/></g><g fill="#fff" clip-path="url(#c)"><path d="M366.41 116c-.369.21-.467.533-.466.941.008 5.326.01 10.652.006 15.977 0 .718.218.933.939.933 6.038 0 12.077-.002 18.116-.005.31 0 .492.067.668.36.295.494.772.853 1.329 1.004a2.24 2.24 0 0 0 1.659-.2c.923-.492 1.84-.993 2.76-1.49.114-.063.233-.116.405-.202v.524c0 1.294.003 2.589.009 3.884 0 .6.229.839.819.841 2.287.004 4.573.004 6.86 0 .596 0 .813-.229.82-.835v-.754c.379-.02.718 0 1.038-.064.767-.166 1.414-.828 1.419-1.598.013-1.745.175-3.499-.147-5.233a8.567 8.567 0 0 0-1.434-3.363 3.232 3.232 0 0 0-2.587-1.418c-1.586-.068-3.171-.054-4.756-.029-.98.015-1.769.492-2.424 1.195-.126.134-.238.28-.423.497v-.504c0-3.177-.005-6.354.005-9.531 0-.414-.101-.73-.478-.931L366.41 116Zm15.634 9.566c.088.139.156.248.23.362 1.119 1.648 2.23 3.302 3.363 4.94.234.337.389.612.028.95a.696.696 0 0 0-.183.352c-.06.295-.232.351-.513.35-5.756-.007-11.512-.01-17.268-.007-.128 0-.257-.013-.374-.02v-15.144h22.32c.007.149.019.279.019.409 0 3.671-.002 7.343-.007 11.016 0 .204-.06.511-.201.596-.761.463-1.558.871-2.356 1.305l-3.963-5.832-1.095.723Zm11.111 11.657v-1.185l-.017-4.605c0-.638-.219-.941-.667-.934-.448.007-.646.299-.65.911a.387.387 0 0 1 0 .159c-.05.11-.092.259-.184.31-1.208.669-2.42 1.337-3.641 1.977-.619.324-1.323-.141-1.329-.838-.004-.458.251-.74.631-.945.943-.511 1.892-1.011 2.825-1.538a1.65 1.65 0 0 0 .549-.505c.513-.766.99-1.555 1.492-2.329.432-.663 1.031-1.108 1.847-1.122 1.425-.026 2.851-.026 4.276 0 .751.016 1.419.272 1.868.936.604.898 1.102 1.866 1.189 2.941.123 1.525.12 3.064.147 4.593.006.375-.251.594-.577.59-.326-.004-.546-.219-.569-.599-.017-.292-.006-.587-.006-.88 0-1.148.005-2.296-.006-3.443-.004-.432-.283-.706-.667-.7-.384.006-.637.286-.653.715V137.223h-5.858ZM390.113 154.218c0-.707.057-1.42-.012-2.12-.148-1.513-.983-2.617-2.233-3.444-2.851-1.886-6.811-1.43-8.971 1.035-.729.828-1.069 1.811-1.084 2.899a160.36 160.36 0 0 0 0 3.604c0 .61.317.866.928.793.2-.024.401-.037.603-.037h9.885c.787 0 .981-.196.968-.969-.005-.294-.017-.587-.021-.881-.003-.293 0-.587 0-.881l-.063.001Zm-1.349 1.391h-9.608c0-1.055-.008-2.08 0-3.106a2.893 2.893 0 0 1 .879-2.088c2.169-2.16 5.773-2.124 7.904.026.456.46.781 1.021.808 1.661.047 1.157.017 2.317.017 3.508v-.001ZM398.046 156.949h5.043c.706 0 .918-.216.911-.907-.018-1.108-.058-2.216-.055-3.323 0-1.567-.636-2.807-1.861-3.771-2.489-1.959-6.215-1.936-8.678.054-1.164.942-1.783 2.149-1.793 3.645a229.847 229.847 0 0 0 0 3.523c0 .642.308.893.946.813.173-.022.347-.033.521-.034h4.966Zm-5.079-1.326c0-1.137-.029-2.231.011-3.323.026-.728.343-1.371.868-1.887 1.988-1.952 5.16-2.167 7.465-.373.843.657 1.285 1.521 1.299 2.591l.036 2.722c-.004.09-.014.181-.031.27h-9.648ZM376.308 154.244c0-.708.057-1.42-.011-2.121-.163-1.678-1.134-2.837-2.556-3.665-2.56-1.491-5.777-1.248-8.001.594-1.144.946-1.73 2.154-1.736 3.633a404.378 404.378 0 0 0 0 3.483c0 .641.307.896.942.817.187-.023.374-.034.562-.035h9.885c.834 0 1.006-.183.993-1.023-.009-.561 0-1.122 0-1.682l-.078-.001Zm-10.956 1.377c0-1.068-.007-2.094 0-3.119a2.875 2.875 0 0 1 .879-2.087c1.978-1.955 5.15-2.178 7.463-.382.841.653 1.294 1.512 1.299 2.59 0 .627.027 1.253.037 1.88.005.368 0 .736 0 1.118h-9.678Z"/><path d="M392.465 120.783a3.675 3.675 0 0 0 1.071 2.634 3.732 3.732 0 0 0 2.638 1.104 3.74 3.74 0 0 0 2.648-1.076 3.71 3.71 0 0 0 .813-1.202c.189-.45.286-.933.286-1.42a3.71 3.71 0 0 0-2.279-3.449 3.758 3.758 0 0 0-1.43-.293 3.719 3.719 0 0 0-3.747 3.702Zm3.69-2.38a2.43 2.43 0 0 1 1.714.679c.459.443.722 1.047.733 1.681a2.407 2.407 0 0 1-.68 1.703 2.444 2.444 0 0 1-1.689.739 2.44 2.44 0 0 1-1.712-.684 2.403 2.403 0 0 1-.736-1.68 2.402 2.402 0 0 1 .68-1.702 2.44 2.44 0 0 1 1.69-.736ZM394.39 143.033a3.382 3.382 0 0 0 2.107 3.155c.416.171.863.259 1.314.257a3.432 3.432 0 0 0 3.167-2.114 3.37 3.37 0 0 0 .254-1.307 3.389 3.389 0 0 0-1.002-2.393 3.426 3.426 0 0 0-5.581 1.097 3.38 3.38 0 0 0-.259 1.305Zm5.511-.011a2.088 2.088 0 0 1-.6 1.48 2.12 2.12 0 0 1-1.475.632c-1.139.014-2.103-.935-2.114-2.077a2.084 2.084 0 0 1 .602-1.478c.39-.395.921-.621 1.477-.629a2.11 2.11 0 0 1 1.487.602c.395.388.619.916.623 1.469v.001ZM373.615 142.982a3.395 3.395 0 0 0-1.053-2.41 3.418 3.418 0 0 0-2.471-.943c-1.836.037-3.348 1.606-3.316 3.446a3.37 3.37 0 0 0 1.043 2.416 3.437 3.437 0 0 0 2.467.953 3.399 3.399 0 0 0 3.33-3.462Zm-1.32.071a2.114 2.114 0 0 1-2.11 2.081 2.12 2.12 0 0 1-1.476-.63 2.08 2.08 0 0 1 .017-2.948 2.112 2.112 0 0 1 1.486-.606 2.116 2.116 0 0 1 1.477.626c.391.393.608.924.606 1.477ZM380.583 143.054c0 .447.089.891.263 1.304a3.408 3.408 0 0 0 3.183 2.087 3.431 3.431 0 0 0 2.418-1.02 3.387 3.387 0 0 0 .976-2.422 3.369 3.369 0 0 0-.27-1.305 3.405 3.405 0 0 0-1.879-1.83 3.432 3.432 0 0 0-3.717.782 3.383 3.383 0 0 0-.974 2.404Zm1.325-.006a2.08 2.08 0 0 1 .607-1.476 2.11 2.11 0 0 1 1.479-.622c.557.001 1.09.22 1.485.61.394.389.617.918.62 1.47 0 .553-.219 1.083-.609 1.476a2.128 2.128 0 0 1-1.477.628 2.13 2.13 0 0 1-1.483-.615 2.097 2.097 0 0 1-.622-1.471ZM369.42 130.875h1.283v-11.388h-1.283v11.388ZM378.286 130.867h1.269v-6.695h-1.269v6.695ZM374.289 124.587h-1.299v6.272h1.299v-6.272ZM376.867 126.578h-1.271v4.284h1.271v-4.284Z"/></g><path fill="#fff" d="M1239 143.85c-.36.694-.66 1.423-1.07 2.076-2.92 4.588-5.88 9.16-8.81 13.744-.13.212-.2.454-.2.702-.01 3.19-.01 6.38-.01 9.57 0 .792-.26 1.058-1.05 1.058h-28.79c-.8 0-1.07-.259-1.07-1.045v-3.004c0-.593.3-.939.8-.939s.8.346.8.938v2.423h27.68v-7.04c-.17.107-.3.194-.43.284-1.41 1.006-2.83 2.009-4.23 3.025-.33.237-.66.361-1.04.147-.37-.214-.41-.544-.38-.932.02-.37 0-.742 0-1.23-.31.107-.6.162-.85.302-.61.343-1.04.871-1.37 1.479-.23.428-.59.586-.99.459-.36-.107-.55-.428-.55-.878v-2.597c0-.066 0-.133-.01-.199-.1-.775-.39-.943-1.07-.568-1.5.822-2.62 2.033-3.52 3.475-.08.136-.16.278-.25.411-.25.385-.7.505-1.07.293a.78.78 0 0 1-.25-.206.964.964 0 0 1-.14-.286.853.853 0 0 1-.02-.318c.02-.106.06-.208.11-.299.61-1.08 1.32-2.08 2.25-2.895.65-.568 1.33-1.126 2.08-1.546 1.79-1.001 3.32-.127 3.49 1.921.01.193.03.385.06.642.82-.562 1.65-.895 2.62-.655.19-.989.37-1.943.57-2.889.07-.284.18-.555.34-.8 1.48-2.328 2.98-4.647 4.46-6.975.12-.175.18-.378.19-.587.01-6.327.01-12.653.01-18.98v-.301h-27.69v28.145a.793.793 0 0 1-.8.777c-.44 0-.76-.329-.79-.792-.01-.093 0-.186 0-.28 0-9.463 0-18.927-.01-28.391 0-.492.13-.856.57-1.089h29.78c.43.239.57.6.57 1.091-.01 5.686-.02 11.372-.01 17.059v.535c.15-.225.24-.35.32-.48 1.39-2.152 2.76-4.315 4.16-6.458.7-1.07 1.72-1.553 2.99-1.367 1.33.197 2.17 1.005 2.53 2.3.03.073.05.144.09.214v.956Zm-5.35.442-9.4 14.632 2.43 1.561 9.4-14.63-2.43-1.563Zm.88-1.336 2.4 1.537c.68-.902.59-1.819-.19-2.325-.68-.44-1.72-.279-2.21.788Zm-9.04 18.671-1.79-1.146c-.18.95-.35 1.83-.53 2.782.13-.086.2-.123.26-.167l2.06-1.469Z"/><path fill="#fff" d="M1203 140.01v-4.921c0-.824.27-1.089 1.1-1.089h8.82c.8 0 1.08.281 1.08 1.069v9.884c0 .767-.28 1.046-1.06 1.047h-8.86c-.8 0-1.08-.271-1.08-1.069v-4.921Zm3.1.694c-.86-1.518-.28-2.866.52-3.561a2.89 2.89 0 0 1 3.42-.256c.52.329.91.819 1.11 1.391.32.848.18 1.66-.26 2.425l1.41.736v-5.772h-7.58v5.764l1.38-.727Zm6.12 3.635a2.526 2.526 0 0 0-.49-1.108 2.475 2.475 0 0 0-.96-.75c-1.35-.636-2.74-.672-4.14-.174-.79.282-1.41.774-1.72 1.567-.05.152-.09.308-.12.465h7.43Zm-3.7-6.25c-.15-.003-.3.024-.44.078s-.27.134-.37.236c-.11.102-.2.224-.26.359a1.04 1.04 0 0 0-.09.426 1.097 1.097 0 0 0 .69 1.043 1.161 1.161 0 0 0 .87.014c.14-.054.26-.134.37-.236.11-.102.2-.224.26-.359.06-.134.09-.279.09-.426 0-.147-.03-.292-.08-.429a1.275 1.275 0 0 0-.24-.366 1.18 1.18 0 0 0-.8-.34ZM1214.53 153h-9.37c-.91 0-1.16-.224-1.16-1.023v-3.061c0-.651.3-.915 1.04-.916h18.94c.74 0 1.02.25 1.02.917v3.133c0 .715-.26.948-1.07.949l-9.4.001Zm-8.89-1.467h17.72v-2.072h-17.72v2.072ZM1209.97 155.01h5.24a.59.59 0 0 1 .3.062c.1.047.18.119.26.211.07.092.13.203.17.325.04.123.06.255.06.388 0 .534-.31.948-.75.999-.1.012-.2 0-.31 0h-9.91c-.17.007-.33-.013-.49-.062-.17-.063-.31-.202-.41-.392-.1-.19-.14-.419-.13-.648.02-.228.1-.442.22-.603.13-.16.29-.259.47-.277.19-.02.38-.011.57-.011h4.71v.008ZM1221.04 136h2.96c.64 0 1 .187 1 .5 0 .314-.38.499-1.01.5h-6.04c-.51 0-.87-.171-.94-.417-.03-.116 0-.236.11-.337.1-.102.26-.178.46-.216.15-.022.3-.032.46-.028 1-.003 2-.002 3-.002ZM1220.53 139.001h2.63c.51 0 .82.18.84.472.02.303-.3.521-.81.523-1.79.005-3.58.005-5.37 0-.5 0-.83-.221-.82-.518.01-.297.33-.475.83-.477.9-.002 1.8 0 2.7 0ZM1221.03 142.002h3c.61 0 .97.377.97.984s-.36 1.003-.96 1.007c-2.02.009-4.03.009-6.05 0-.61 0-1-.42-.99-1.027.01-.607.37-.962.99-.964 1.01-.004 2.03 0 3.04 0ZM1207.48 160.994c-.85 0-1.7.013-2.55 0-.66-.012-1.07-.642-.88-1.311.14-.486.44-.684.86-.683h5.19c.53 0 .9.4.9.978 0 .577-.36.999-.89 1.009-.87.02-1.75.007-2.63.007ZM1199.03 163c.13.002.26.018.38.045s.23.066.32.114a.67.67 0 0 1 .21.165c.04.062.06.127.06.193 0 .065-.04.13-.09.19a.64.64 0 0 1-.23.158c-.09.045-.21.08-.33.103-.12.023-.25.034-.38.032a1.58 1.58 0 0 1-.7-.159c-.18-.096-.28-.225-.27-.358.01-.132.12-.258.32-.348.19-.091.45-.139.71-.135Z"/><g fill="#fff" clip-path="url(#d)"><path d="M600.377 403c.153.037.31.064.459.114.633.214.944.697.973 1.332.029.658.25 1.069.963 1.207.419.082.816.321 1.201.527.236.127.404.12.606-.051a6.69 6.69 0 0 1 .716-.511c.534-.348 1.156-.342 1.632.08.516.46 1.005.95 1.465 1.467.446.499.512 1.193.057 1.686-.623.673-.682 1.294-.163 2.021.109.154.178.332.2.519.075.681.51.879 1.113.896a1.8 1.8 0 0 1 .509.098c.506.176.876.521.912 1.059.049.77.049 1.543 0 2.313-.038.57-.413.945-.963 1.095-.334.089-.688.101-1.019.196a.659.659 0 0 0-.377.314 25.751 25.751 0 0 0-.748 1.804.604.604 0 0 0 .038.453c.148.267.356.499.525.754.375.563.363 1.2-.086 1.698a19.22 19.22 0 0 1-1.443 1.44c-.482.427-1.176.509-1.652.08-.692-.622-1.339-.725-2.091-.17a.898.898 0 0 1-.407.158c-.722.095-.962.535-.99 1.218-.024.598-.308 1.077-.909 1.29a5.572 5.572 0 0 1-.687.15v1.353H612.207c1.497 0 2.326.827 2.328 2.326v1.1h.404c.8 0 1.604-.01 2.401.006a2.683 2.683 0 0 1 2.644 2.632c.024 2.561.024 5.122 0 7.684a2.686 2.686 0 0 1-2.674 2.649c-2.308.019-4.616.019-6.924 0-1.39-.009-2.51-1.046-2.667-2.438a6.402 6.402 0 0 1-.029-.72c0-2.307-.008-4.616 0-6.923.007-1.744 1.153-2.882 2.888-2.888H613.125c0-.534.052-1.051-.025-1.551-.029-.189-.34-.354-.551-.488-.096-.061-.26-.021-.394-.021H600.21v2.06c.817 0 1.617.041 2.411-.008 1.725-.107 3.082 1.192 3.043 3.037-.051 2.32-.012 4.643-.013 6.963 0 1.859-1.132 2.985-2.995 2.986h-6.404c-1.751 0-2.905-1.157-2.907-2.913-.004-2.388-.004-4.776 0-7.165 0-1.753 1.155-2.894 2.917-2.897h2.514v-2.061h-11.988c-.74 0-.962.219-.962.95v1.112c.95 0 1.854-.009 2.758 0a2.683 2.683 0 0 1 2.622 2.062c.065.286.096.579.092.872.007 2.362.007 4.723 0 7.084 0 1.818-1.143 2.954-2.945 2.955h-6.404c-1.51 0-2.449-.701-2.888-2.148a.384.384 0 0 0-.067-.094v-8.487c.018-.019.045-.035.051-.058.49-1.546 1.361-2.189 2.972-2.19h2.436v-1.108c0-1.498.829-2.318 2.336-2.318h11.987v-1.365c-.107-.018-.185-.033-.264-.045-.808-.126-1.203-.514-1.334-1.309a4.542 4.542 0 0 1-.087-.592c-.009-.335-.172-.488-.49-.559a2.22 2.22 0 0 1-.782-.293c-.769-.534-1.423-.491-2.128.168-.47.438-1.17.351-1.65-.084a20.533 20.533 0 0 1-1.403-1.411c-.481-.534-.494-1.164-.087-1.763.163-.243.362-.465.501-.722a.61.61 0 0 0 .034-.454 29.6 29.6 0 0 0-.748-1.803.657.657 0 0 0-.378-.314c-.33-.096-.685-.107-1.018-.196-.553-.149-.93-.522-.962-1.093a18.594 18.594 0 0 1 0-2.313c.032-.522.387-.87.873-1.044.241-.085.494-.133.749-.141.511-.016.804-.229.874-.757.027-.213.106-.416.229-.592.55-.756.453-1.401-.174-2.09-.422-.465-.36-1.15.057-1.62.47-.527.97-1.027 1.497-1.497.477-.427 1.092-.427 1.631-.084.25.154.49.325.717.511.203.172.368.171.606.051a8.479 8.479 0 0 1 1.466-.622c.428-.122.587-.321.642-.758.052-.42.175-.827.365-1.204.214-.428.697-.488 1.122-.596l1.743-.001Zm-11.107 12.558c.548.087 1.032.173 1.52.236.394.051.583.267.72.637.321.855.67 1.704 1.054 2.534.166.358.184.65-.047.962-.298.407-.588.818-.883 1.231.451.47.879.916 1.311 1.364.454-.34.856-.632 1.242-.932.298-.23.601-.259.924-.056a8.395 8.395 0 0 0 2.607 1.083.705.705 0 0 1 .586.625c.069.434.164.865.214 1.302.027.227.137.296.336.295.441 0 .88-.007 1.32 0 .221 0 .296-.107.321-.308.052-.411.136-.816.184-1.226.048-.409.279-.575.641-.711a32.58 32.58 0 0 0 2.497-1.038c.37-.173.668-.205.998.043.403.3.816.586 1.244.892l1.347-1.302c-.34-.461-.628-.855-.927-1.25-.24-.312-.23-.604-.066-.962.386-.844.742-1.699 1.07-2.567.132-.353.321-.56.696-.61.428-.057.844-.127 1.259-.224.107-.024.256-.164.261-.256.024-.544.012-1.088.012-1.651-.535-.084-1.017-.171-1.504-.231-.413-.052-.598-.281-.738-.667a31.79 31.79 0 0 0-1.042-2.495c-.165-.354-.2-.642.035-.963.3-.405.588-.82.899-1.255l-1.335-1.323c-.441.321-.849.626-1.255.927a.721.721 0 0 1-.892.038 8.391 8.391 0 0 0-2.608-1.085.718.718 0 0 1-.596-.658c-.063-.436-.134-.87-.228-1.298-.021-.097-.15-.238-.234-.241-.553-.021-1.106-.011-1.67-.011-.085.535-.176 1.004-.229 1.479-.049.434-.293.619-.691.764-.835.302-1.655.649-2.46 1.025-.368.173-.668.208-.999-.039-.402-.301-.816-.586-1.245-.894l-1.316 1.336c.321.436.619.845.923 1.25.214.288.243.586.05.892a8.497 8.497 0 0 0-1.091 2.64.676.676 0 0 1-.602.559c-.434.071-.865.165-1.3.214-.214.027-.314.107-.314.321l.001 1.604Zm5.438 20.263v5.248c0 1.012.548 1.559 1.555 1.56h6.439c1.036 0 1.581-.541 1.583-1.574v-5.234h-9.577Zm23.917.013h-9.545c-.009.107-.02.189-.02.267 0 1.68-.007 3.36 0 5.039 0 .855.518 1.472 1.3 1.478 2.319.022 4.639.022 6.959 0a1.299 1.299 0 0 0 1.296-1.275c.026-1.823.01-3.649.01-5.509Zm-38.26-.013v5.235c0 1.041.534 1.572 1.578 1.573h6.399c1.07 0 1.589-.525 1.591-1.604V435.818l-9.568.003Zm-.026-1.425h9.567a7.183 7.183 0 0 0-.007-.868 1.281 1.281 0 0 0-1.249-1.138 544.606 544.606 0 0 0-7.001 0 1.268 1.268 0 0 0-1.215.985c-.076.316-.063.658-.095 1.021Zm23.931.008a6.732 6.732 0 0 0-.005-.816 1.335 1.335 0 0 0-1.367-1.204 1285.58 1285.58 0 0 0-6.803 0 1.32 1.32 0 0 0-1.358 1.164c-.04.271-.007.553-.007.856h9.54Zm14.331 0c.196-1.321-.428-2.084-1.771-2.044a106.73 106.73 0 0 1-6.12 0c-1.069-.027-1.884.684-1.59 2.044h9.481Z"/><path d="M599.47 421.441a6.81 6.81 0 0 1-6.8-6.87 6.816 6.816 0 0 1 2.016-4.808 6.808 6.808 0 0 1 4.829-1.97 6.798 6.798 0 0 1 4.83 2.017 6.816 6.816 0 0 1 1.968 4.85 6.819 6.819 0 0 1-6.843 6.781Zm5.483-6.812a5.43 5.43 0 0 0-1.586-3.873 5.445 5.445 0 0 0-3.868-1.601 5.434 5.434 0 0 0-5.462 5.424 5.456 5.456 0 0 0 1.573 3.877 5.437 5.437 0 0 0 3.86 1.617 5.436 5.436 0 0 0 5.067-3.351 5.446 5.446 0 0 0 .416-2.093ZM600.883 437.17c.439 0 .88-.009 1.32 0 .418.012.701.289.708.662a.671.671 0 0 1-.196.493.68.68 0 0 1-.491.198c-.906.019-1.813.019-2.721 0a.656.656 0 0 1-.637-.423.65.65 0 0 1-.044-.266c0-.382.276-.652.699-.664.454-.009.908 0 1.362 0ZM600.176 439.903c.239 0 .48-.011.718 0a.66.66 0 0 1 .642.642.646.646 0 0 1-.577.699c-.519.035-1.038.035-1.557 0a.64.64 0 0 1-.58-.688c.013-.366.279-.628.675-.647.225-.012.452 0 .679 0v-.006ZM596.755 441.261a.7.7 0 0 1-.673-.705.687.687 0 0 1 .218-.476.682.682 0 0 1 .951.023.665.665 0 0 1 .182.469.697.697 0 0 1-.048.263.691.691 0 0 1-.368.373.674.674 0 0 1-.262.053ZM597.434 437.831a.684.684 0 0 1-.667.693.7.7 0 0 1-.685-.688.677.677 0 0 1 .657-.666.657.657 0 0 1 .695.661ZM615.199 438.534c-.428 0-.855.009-1.283 0-.475-.014-.756-.292-.749-.707.008-.415.276-.649.749-.654.867-.007 1.734-.007 2.601 0 .446 0 .739.288.737.674-.002.386-.299.669-.74.683-.442.014-.874.002-1.315.004ZM614.567 439.904c.226 0 .453-.012.679 0a.682.682 0 0 1 .642.642.666.666 0 0 1-.587.697c-.519.034-1.039.034-1.558 0-.363-.024-.588-.34-.575-.696a.644.644 0 0 1 .634-.642c.258-.013.511-.001.765-.001ZM611.789 437.855a.692.692 0 0 1-.697.672.67.67 0 0 1-.613-.447.678.678 0 0 1-.039-.264.653.653 0 0 1 .67-.641.67.67 0 0 1 .679.68ZM611.075 441.26a.681.681 0 0 1-.602-.463.679.679 0 0 1-.032-.265.66.66 0 0 1 .725-.626.673.673 0 0 1 .4 1.172.696.696 0 0 1-.491.182ZM586.516 437.169c.439 0 .88-.008 1.319 0 .44.009.703.259.718.642.015.383-.257.702-.698.711-.893.017-1.787.017-2.682 0a.68.68 0 0 1-.509-.202.69.69 0 0 1-.198-.51c.02-.374.303-.633.729-.642.425-.008.88.001 1.321.001ZM585.825 441.259c-.239 0-.481.018-.718 0a.686.686 0 0 1-.642-.697.676.676 0 0 1 .676-.652c.466-.014.932-.015 1.399 0a.643.643 0 0 1 .641.63.67.67 0 0 1-.604.719.516.516 0 0 1-.079.006h-.673v-.006ZM582.415 439.903a.67.67 0 0 1 .63.421.685.685 0 0 1-.648.936.702.702 0 0 1-.665-.672.692.692 0 0 1 .2-.484.676.676 0 0 1 .483-.201ZM583.09 437.848a.688.688 0 0 1-.687.676.702.702 0 0 1-.668-.708.677.677 0 0 1 .676-.648.655.655 0 0 1 .633.417.655.655 0 0 1 .046.263Z"/><path d="M599.486 418.705a4.071 4.071 0 0 1-3.777-2.532 4.078 4.078 0 0 1-.304-1.569 4.078 4.078 0 0 1 2.533-3.777 4.077 4.077 0 0 1 1.568-.305 4.09 4.09 0 0 1 2.835 6.969 4.095 4.095 0 0 1-2.855 1.214Zm-.007-1.365a2.727 2.727 0 0 0 1.933-.778 2.719 2.719 0 0 0 .811-1.919 2.726 2.726 0 0 0-.772-1.936 2.73 2.73 0 0 0-4.481 2.943 2.712 2.712 0 0 0 2.509 1.69Z"/></g><g fill="#fff" clip-path="url(#e)"><path d="M816.377 184c.153.037.31.064.459.114.633.214.944.697.973 1.332.029.658.25 1.069.963 1.207.419.082.816.321 1.201.527.236.127.404.12.606-.051a6.69 6.69 0 0 1 .716-.511c.534-.348 1.156-.342 1.632.08.516.46 1.005.95 1.465 1.467.446.499.512 1.193.057 1.686-.623.673-.682 1.294-.163 2.021.109.154.178.332.2.519.075.681.51.879 1.113.896a1.8 1.8 0 0 1 .509.098c.506.176.876.521.912 1.059.049.77.049 1.543 0 2.313-.038.57-.413.945-.963 1.095-.334.089-.688.101-1.019.196a.659.659 0 0 0-.377.314 25.751 25.751 0 0 0-.748 1.804.604.604 0 0 0 .038.453c.148.267.356.499.525.754.375.563.363 1.2-.086 1.698a19.22 19.22 0 0 1-1.443 1.44c-.482.427-1.176.509-1.652.08-.692-.622-1.339-.725-2.091-.17a.898.898 0 0 1-.407.158c-.722.095-.962.535-.99 1.218-.024.598-.308 1.077-.909 1.29a5.572 5.572 0 0 1-.687.15v1.353H828.207c1.497 0 2.326.827 2.328 2.326v1.1h.404c.8 0 1.604-.01 2.401.006a2.683 2.683 0 0 1 2.644 2.632c.024 2.561.024 5.122 0 7.684a2.686 2.686 0 0 1-2.674 2.649c-2.308.019-4.616.019-6.924 0-1.39-.009-2.51-1.046-2.667-2.438a6.402 6.402 0 0 1-.029-.72c0-2.307-.008-4.616 0-6.923.007-1.744 1.153-2.882 2.888-2.888H829.125c0-.534.052-1.051-.025-1.551-.029-.189-.34-.354-.551-.488-.096-.061-.26-.021-.394-.021H816.21v2.06c.817 0 1.617.041 2.411-.008 1.725-.107 3.082 1.192 3.043 3.037-.051 2.32-.012 4.643-.013 6.963 0 1.859-1.132 2.985-2.995 2.986h-6.404c-1.751 0-2.905-1.157-2.907-2.913-.004-2.388-.004-4.776 0-7.165 0-1.753 1.155-2.894 2.917-2.897h2.514v-2.061h-11.988c-.74 0-.962.219-.962.95v1.112c.95 0 1.854-.009 2.758 0a2.683 2.683 0 0 1 2.622 2.062c.065.286.096.579.092.872.007 2.362.007 4.723 0 7.084 0 1.818-1.143 2.954-2.945 2.955h-6.404c-1.51 0-2.449-.701-2.888-2.148a.384.384 0 0 0-.067-.094v-8.487c.018-.019.045-.035.051-.058.49-1.546 1.361-2.189 2.972-2.19h2.436v-1.108c0-1.498.829-2.318 2.336-2.318h11.987v-1.365c-.107-.018-.185-.033-.264-.045-.808-.126-1.203-.514-1.334-1.309a4.542 4.542 0 0 1-.087-.592c-.009-.335-.172-.488-.49-.559a2.22 2.22 0 0 1-.782-.293c-.769-.534-1.423-.491-2.128.168-.47.438-1.17.351-1.65-.084a20.533 20.533 0 0 1-1.403-1.411c-.481-.534-.494-1.164-.087-1.763.163-.243.362-.465.501-.722a.61.61 0 0 0 .034-.454 29.6 29.6 0 0 0-.748-1.803.657.657 0 0 0-.378-.314c-.33-.096-.685-.107-1.018-.196-.553-.149-.93-.522-.962-1.093a18.594 18.594 0 0 1 0-2.313c.032-.522.387-.87.873-1.044.241-.085.494-.133.749-.141.511-.016.804-.229.874-.757.027-.213.106-.416.229-.592.55-.756.453-1.401-.174-2.09-.422-.465-.36-1.15.057-1.62.47-.527.97-1.027 1.497-1.497.477-.427 1.092-.427 1.631-.084.25.154.49.325.717.511.203.172.368.171.606.051a8.479 8.479 0 0 1 1.466-.622c.428-.122.587-.321.642-.758.052-.42.175-.827.365-1.204.214-.428.697-.488 1.122-.596l1.743-.001Zm-11.107 12.558c.548.087 1.032.173 1.52.236.394.051.583.267.72.637.321.855.67 1.704 1.054 2.534.166.358.184.65-.047.962-.298.407-.588.818-.883 1.231.451.47.879.916 1.311 1.364.454-.34.856-.632 1.242-.932.298-.23.601-.259.924-.056a8.395 8.395 0 0 0 2.607 1.083.705.705 0 0 1 .586.625c.069.434.164.865.214 1.302.027.227.137.296.336.295.441 0 .88-.007 1.32 0 .221 0 .296-.107.321-.308.052-.411.136-.816.184-1.226.048-.409.279-.575.641-.711a32.58 32.58 0 0 0 2.497-1.038c.37-.173.668-.205.998.043.403.3.816.586 1.244.892l1.347-1.302c-.34-.461-.628-.855-.927-1.25-.24-.312-.23-.604-.066-.962.386-.844.742-1.699 1.07-2.567.132-.353.321-.56.696-.61.428-.057.844-.127 1.259-.224.107-.024.256-.164.261-.256.024-.544.012-1.088.012-1.651-.535-.084-1.017-.171-1.504-.231-.413-.052-.598-.281-.738-.667a31.79 31.79 0 0 0-1.042-2.495c-.165-.354-.2-.642.035-.963.3-.405.588-.82.899-1.255l-1.335-1.323c-.441.321-.849.626-1.255.927a.721.721 0 0 1-.892.038 8.391 8.391 0 0 0-2.608-1.085.718.718 0 0 1-.596-.658c-.063-.436-.134-.87-.228-1.298-.021-.097-.15-.238-.234-.241-.553-.021-1.106-.011-1.67-.011-.085.535-.176 1.004-.229 1.479-.049.434-.293.619-.691.764-.835.302-1.655.649-2.46 1.025-.368.173-.668.208-.999-.039-.402-.301-.816-.586-1.245-.894l-1.316 1.336c.321.436.619.845.923 1.25.214.288.243.586.05.892a8.497 8.497 0 0 0-1.091 2.64.676.676 0 0 1-.602.559c-.434.071-.865.165-1.3.214-.214.027-.314.107-.314.321l.001 1.604Zm5.438 20.263v5.248c0 1.012.548 1.559 1.555 1.56h6.439c1.036 0 1.581-.541 1.583-1.574v-5.234h-9.577Zm23.917.013h-9.545c-.009.107-.02.189-.02.267 0 1.68-.007 3.36 0 5.039 0 .855.518 1.472 1.3 1.478 2.319.022 4.639.022 6.959 0a1.299 1.299 0 0 0 1.296-1.275c.026-1.823.01-3.649.01-5.509Zm-38.26-.013v5.235c0 1.041.534 1.572 1.578 1.573h6.399c1.07 0 1.589-.525 1.591-1.604V216.818l-9.568.003Zm-.026-1.425h9.567a7.183 7.183 0 0 0-.007-.868 1.281 1.281 0 0 0-1.249-1.138 544.606 544.606 0 0 0-7.001 0 1.268 1.268 0 0 0-1.215.985c-.076.316-.063.658-.095 1.021Zm23.931.008a6.732 6.732 0 0 0-.005-.816 1.335 1.335 0 0 0-1.367-1.204 1285.58 1285.58 0 0 0-6.803 0 1.32 1.32 0 0 0-1.358 1.164c-.04.271-.007.553-.007.856h9.54Zm14.331 0c.196-1.321-.428-2.084-1.771-2.044a106.73 106.73 0 0 1-6.12 0c-1.069-.027-1.884.684-1.59 2.044h9.481Z"/><path d="M815.47 202.441a6.81 6.81 0 0 1-6.8-6.87 6.816 6.816 0 0 1 2.016-4.808 6.808 6.808 0 0 1 4.829-1.97 6.798 6.798 0 0 1 4.83 2.017 6.816 6.816 0 0 1 1.968 4.85 6.819 6.819 0 0 1-6.843 6.781Zm5.483-6.812a5.43 5.43 0 0 0-1.586-3.873 5.445 5.445 0 0 0-3.868-1.601 5.434 5.434 0 0 0-5.462 5.424 5.456 5.456 0 0 0 1.573 3.877 5.437 5.437 0 0 0 3.86 1.617 5.436 5.436 0 0 0 5.067-3.351 5.446 5.446 0 0 0 .416-2.093ZM816.883 218.17c.439 0 .88-.009 1.32 0 .418.012.701.289.708.662a.671.671 0 0 1-.196.493.68.68 0 0 1-.491.198c-.906.019-1.813.019-2.721 0a.656.656 0 0 1-.637-.423.65.65 0 0 1-.044-.266c0-.382.276-.652.699-.664.454-.009.908 0 1.362 0ZM816.176 220.903c.239 0 .48-.011.718 0a.66.66 0 0 1 .642.642.646.646 0 0 1-.577.699c-.519.035-1.038.035-1.557 0a.64.64 0 0 1-.58-.688c.013-.366.279-.628.675-.647.225-.012.452 0 .679 0v-.006ZM812.755 222.261a.7.7 0 0 1-.673-.705.687.687 0 0 1 .218-.476.682.682 0 0 1 .951.023.665.665 0 0 1 .182.469.697.697 0 0 1-.048.263.691.691 0 0 1-.368.373.674.674 0 0 1-.262.053ZM813.434 218.831a.684.684 0 0 1-.667.693.7.7 0 0 1-.685-.688.677.677 0 0 1 .657-.666.657.657 0 0 1 .695.661ZM831.199 219.534c-.428 0-.855.009-1.283 0-.475-.014-.756-.292-.749-.707.008-.415.276-.649.749-.654.867-.007 1.734-.007 2.601 0 .446 0 .739.288.737.674-.002.386-.299.669-.74.683-.442.014-.874.002-1.315.004ZM830.567 220.904c.226 0 .453-.012.679 0a.682.682 0 0 1 .642.642.666.666 0 0 1-.587.697c-.519.034-1.039.034-1.558 0-.363-.024-.588-.34-.575-.696a.644.644 0 0 1 .634-.642c.258-.013.511-.001.765-.001ZM827.789 218.855a.692.692 0 0 1-.697.672.67.67 0 0 1-.613-.447.678.678 0 0 1-.039-.264.653.653 0 0 1 .67-.641.67.67 0 0 1 .679.68ZM827.075 222.26a.681.681 0 0 1-.602-.463.679.679 0 0 1-.032-.265.66.66 0 0 1 .725-.626.673.673 0 0 1 .4 1.172.696.696 0 0 1-.491.182ZM802.516 218.169c.439 0 .88-.008 1.319 0 .44.009.703.259.718.642.015.383-.257.702-.698.711-.893.017-1.787.017-2.682 0a.68.68 0 0 1-.509-.202.69.69 0 0 1-.198-.51c.02-.374.303-.633.729-.642.425-.008.88.001 1.321.001ZM801.825 222.259c-.239 0-.481.018-.718 0a.686.686 0 0 1-.642-.697.676.676 0 0 1 .676-.652c.466-.014.932-.015 1.399 0a.643.643 0 0 1 .641.63.67.67 0 0 1-.604.719.516.516 0 0 1-.079.006h-.673v-.006ZM798.415 220.903a.67.67 0 0 1 .63.421.685.685 0 0 1-.648.936.702.702 0 0 1-.665-.672.692.692 0 0 1 .2-.484.676.676 0 0 1 .483-.201ZM799.09 218.848a.688.688 0 0 1-.687.676.702.702 0 0 1-.668-.708.677.677 0 0 1 .676-.648.655.655 0 0 1 .633.417.655.655 0 0 1 .046.263Z"/><path d="M815.486 199.705a4.071 4.071 0 0 1-3.777-2.532 4.078 4.078 0 0 1-.304-1.569 4.078 4.078 0 0 1 2.533-3.777 4.077 4.077 0 0 1 1.568-.305 4.09 4.09 0 0 1 2.835 6.969 4.095 4.095 0 0 1-2.855 1.214Zm-.007-1.365a2.727 2.727 0 0 0 1.933-.778 2.719 2.719 0 0 0 .811-1.919 2.726 2.726 0 0 0-.772-1.936 2.73 2.73 0 0 0-4.481 2.943 2.712 2.712 0 0 0 2.509 1.69Z"/></g><g fill="#fff" clip-path="url(#f)"><path d="M1039 534c-.39-.236-.52-.577-.52-1.029.01-3.808.01-7.616 0-11.424a1.405 1.405 0 0 1 .44-1.047c1.63-1.606 3.28-3.188 4.84-4.855 1.24-1.323 3.11-1.643 4.59-.113.48-.298.67-.693.67-1.295-.03-3.397-.03-6.795-.01-10.194 0-1.89 1.5-3.205 3.37-3.006 1.45.152 2.6 1.426 2.61 2.948.01 2.197 0 4.394 0 6.591 0 2.974 0 5.947.01 8.924.01.181-.03.362-.09.53-.07.168-.18.319-.31.443-2.03 2.012-4.04 4.039-6.07 6.05a.9.9 0 0 0-.23.329.906.906 0 0 0-.07.398c.01 1.919 0 3.837.02 5.756 0 .46-.13.799-.55 1.002L1039 534Zm4.93-12.634c.14-.073.27-.16.39-.259.92-.907 1.83-1.818 2.74-2.733.4-.408.54-.9.35-1.45a1.302 1.302 0 0 0-1.09-.906c-.52-.085-.93.142-1.29.504-1.6 1.597-3.19 3.185-4.77 4.791-.16.178-.25.407-.26.645-.02 3.354-.01 6.706-.01 10.06 0 .154.01.308.02.45h6.73c0-1.879.01-3.721-.01-5.564a1.63 1.63 0 0 1 .11-.656c.09-.208.21-.394.38-.546 1.99-1.965 3.96-3.953 5.94-5.918.12-.1.2-.224.26-.362a.94.94 0 0 0 .08-.437c-.01-4.89-.01-9.781 0-14.672 0-.147 0-.294-.01-.439a1.472 1.472 0 0 0-.5-.994 1.489 1.489 0 0 0-1.05-.367c-.84.028-1.44.663-1.44 1.566 0 3.222-.06 6.445.03 9.664.03 1.288-.21 2.321-1.29 3.075a.149.149 0 0 0-.03.031c-.07.177-.19.353-.2.535-.05.646-.18 1.28-.63 1.742-1.11 1.127-2.27 2.203-3.41 3.309l-1.04-1.069ZM1010 503.503c.04-.108.08-.215.11-.325.43-1.462 1.81-2.339 3.36-2.136 1.39.182 2.5 1.424 2.51 2.888.02 3.411.02 6.822 0 10.232 0 .597.12 1.056.68 1.368.06-.059.15-.134.23-.212 1.12-1.071 2.81-1.128 3.92-.046 1.83 1.772 3.62 3.586 5.41 5.401.17.194.27.443.28.704.02 3.908.01 7.817.02 11.726 0 .415-.2.683-.52.897h-8.71c-.42-.202-.55-.54-.54-1 .02-1.917 0-3.835.01-5.752a.9.9 0 0 0-.29-.729c-.75-.723-1.48-1.464-2.21-2.2l-4.26-4.293v-16.523Zm10.07 18.905c-1.18-1.127-2.38-2.224-3.52-3.382a1.863 1.863 0 0 1-.47-1.147c0-.736-.38-1.181-.87-1.611-.12-.105-.22-.235-.34-.34-.29-.249-.38-.563-.37-.939.01-1.083 0-2.167 0-3.25v-7.688c0-1.01-.79-1.677-1.76-1.521-.76.119-1.23.751-1.23 1.631 0 4.963 0 9.928-.01 14.893 0 .128.02.256.07.374a.96.96 0 0 0 .23.308c2.02 2.014 4.04 4.039 6.06 6.049.14.123.24.274.31.442.07.167.11.348.1.53-.01 1.581-.01 3.162-.01 4.744v.977h6.72a.857.857 0 0 0 .03-.224v-10.456a.553.553 0 0 0-.15-.384c-1.67-1.683-3.35-3.361-5.03-5.032a1.267 1.267 0 0 0-1.17-.361c-.53.102-.91.412-1.07.928-.17.535-.04 1.013.35 1.409.95.956 1.9 1.91 2.86 2.862.08.078.14.168.2.24l-.93.948Z"/><path d="M1024.2 497.887c.16-.094.29-.157.41-.231l6.36-3.815c.35-.21.69-.491 1.13-.242.44.249.4.672.39 1.084v2.724c.2-.108.34-.178.47-.259 1.9-1.135 3.79-2.273 5.68-3.412.32-.188.63-.331.99-.118.33.203.36.534.36.884-.01.939 0 1.872 0 2.899.18-.094.32-.159.44-.236 1.9-1.135 3.79-2.272 5.68-3.411.32-.188.62-.357.99-.155.36.202.4.572.4.953v17.395c0 .82-.23 1.054-1.03 1.054h-27.94c-.81 0-1.04-.232-1.04-1.052v-12.87c0-.509.08-.933.67-1.077.08-.02.17-.188.18-.296.21-2.537.42-5.073.62-7.609.08-.9.25-1.086 1.17-1.086h2.41c.68 0 .93.232.99.904l.63 7.79a.8.8 0 0 0 .04.182Zm6.8-2.28c-.12.052-.18.075-.24.11-1.83 1.098-3.66 2.203-5.5 3.288-.26.156-.26.353-.26.587v11.878h20.97v-15.863c-.19.104-.33.179-.46.26-1.92 1.15-3.84 2.305-5.76 3.449-.67.396-1.25.065-1.26-.708-.01-.878 0-1.757 0-2.636 0-.106-.02-.212-.04-.36-.19.114-.34.199-.49.289-1.88 1.124-3.75 2.247-5.61 3.369-.32.188-.64.32-.99.114-.35-.206-.37-.529-.36-.881.01-.946 0-1.893 0-2.896Zm-8.32 2.365c-.21-2.508-.41-4.979-.62-7.45h-1.62c-.21 2.492-.42 4.959-.62 7.45h2.86Zm-3.69 1.555c0 .931 0 1.834.02 2.737 0 .083.17.23.26.231 1.32.015 2.63.015 3.95 0 .1 0 .27-.122.27-.188.01-.917.01-1.834.01-2.78h-4.51Zm4.48 11.961v-2.954h-4.45v2.954h4.45Zm0-4.509v-2.943h-4.44v2.943h4.44Z"/><path d="M1029.48 507.741c-.48 0-.96.011-1.45 0-.48-.012-.77-.282-.78-.76-.02-.98-.02-1.96 0-2.941.01-.496.31-.78.81-.787.97-.012 1.93-.014 2.9 0 .48.008.77.282.78.769.01.994.01 1.988 0 2.984-.01.47-.29.719-.76.733-.5.013-1 .002-1.5.002Zm.74-2.969h-1.44v1.444h1.44v-1.444ZM1035.51 507.742c-.48 0-.97.009-1.45 0-.52-.013-.79-.265-.8-.782-.02-.979-.02-1.96 0-2.94.01-.484.29-.759.78-.767.96-.014 1.93-.014 2.89 0 .5.007.81.291.82.789.01.98.01 1.96 0 2.941-.01.48-.31.744-.79.759-.49.014-.97 0-1.45 0Zm-.74-1.534h1.46v-1.428h-1.46v1.428ZM1039.25 505.49v-1.409c.01-.533.28-.829.81-.835.96-.013 1.93-.013 2.89 0 .5.007.79.31.79.809.01.951.01 1.902 0 2.853 0 .538-.28.819-.81.825-.96.011-1.93.011-2.89 0-.52-.006-.78-.282-.79-.799-.01-.478 0-.961 0-1.444Zm2.98-.721h-1.45v1.441h1.45v-1.441Z"/></g><defs><clipPath id="b"><path fill="#fff" d="M205 461h40v38h-40z"/></clipPath><clipPath id="c"><path fill="#fff" d="M404 116h-40v41h40z"/></clipPath><clipPath id="d"><path fill="#fff" d="M579 403h41v41h-41z"/></clipPath><clipPath id="e"><path fill="#fff" d="M795 184h41v41h-41z"/></clipPath><clipPath id="f"><path fill="#fff" d="M1010 489h45v45h-45z"/></clipPath><linearGradient id="a" x1="480.702" x2="964.746" y1="270" y2="270" gradientUnits="userSpaceOnUse"><stop stop-color="#FB2100"/><stop offset=".5" stop-color="#FFDF11"/><stop offset="1" stop-color="#0BCFFD"/></linearGradient></defs></svg>