<svg width="131" height="140" viewBox="0 0 131 140" fill="none" xmlns="http://www.w3.org/2000/svg">
<g id="Layer_1" clip-path="url(#clip0_859_153)">
<path id="Vector" d="M21.765 97.9061C25.1271 97.9061 28.2214 97.8139 31.3118 97.9253C36.5686 98.1175 41.7943 98.6939 46.4221 101.411C48.6428 102.717 50.5336 104.566 52.634 106.08C53.2771 106.594 54.0589 106.909 54.8819 106.987C59.6766 106.987 64.4714 106.775 69.2467 106.875C71.8117 106.945 74.3632 107.267 76.864 107.836C82.773 109.135 87.1291 112.24 88.4608 118.684C89.6255 118.019 90.7125 117.427 91.7763 116.82C100.03 112.101 108.261 107.34 116.546 102.679C122.556 99.2973 129.245 102.295 130.736 108.923C131.656 113.012 129.96 116.582 125.926 118.915C119.613 122.558 113.277 126.154 106.949 129.77C101.42 132.933 95.8994 136.119 90.336 139.22C89.4601 139.704 88.4776 139.968 87.4746 139.988C75.3188 139.988 63.1591 139.946 50.98 139.923C47.0161 139.923 43.4016 138.609 39.8104 137.122C34.6908 135 29.5518 132.916 24.3934 130.869C23.6441 130.57 22.8055 130.485 21.73 130.235C21.73 130.946 21.73 131.496 21.73 132.042C21.5747 136.81 18.4067 139.896 13.577 139.927C9.89259 139.95 6.20044 139.927 2.53157 139.927C0.640844 139.927 -0.0385742 139.281 -0.0385742 137.444C-0.0385742 121.387 -0.0385742 105.327 -0.0385742 89.2637C-0.0385742 87.5037 0.629192 86.862 2.45392 86.8466C6.23538 86.8197 10.013 86.7851 13.7905 86.8466C18.4494 86.9311 21.5553 90.0169 21.7106 94.6513C21.7922 95.6658 21.765 96.6649 21.765 97.9061ZM21.765 101.906C21.765 109.861 21.765 117.623 21.8077 125.382C21.8077 125.705 22.3745 126.185 22.7705 126.312C23.9353 126.696 25.166 126.761 26.2647 127.2C31.1073 129.118 35.9306 131.085 40.7344 133.098C44.0383 134.482 47.3345 135.884 51.0072 135.896C62.8718 135.93 74.7403 135.98 86.605 135.973C87.4613 135.951 88.2988 135.72 89.0431 135.3C94.8124 132.065 100.547 128.767 106.285 125.493C112.108 122.163 117.932 118.833 123.756 115.502C125.441 114.541 126.691 113.296 126.815 111.275C126.913 110.24 126.711 109.198 126.234 108.272C125.757 107.345 125.024 106.572 124.121 106.041C122.257 104.854 120.359 105.146 118.499 106.21C108.922 111.7 99.3211 117.173 89.6954 122.627C88.7802 123.137 87.7522 123.417 86.702 123.441C77.3066 123.495 67.9073 123.468 58.5119 123.441C57.9878 123.441 57.289 123.522 56.9589 123.234C56.3805 122.711 55.7399 121.977 55.6467 121.266C55.5186 120.286 56.2679 119.599 57.3239 119.456C57.8066 119.414 58.2917 119.403 58.7759 119.422H82.7497C83.2544 119.422 83.7592 119.38 84.326 119.353C84.2952 119.12 84.2524 118.889 84.1979 118.661C83.0681 114.891 80.2262 112.851 76.6155 112.082C73.2112 111.385 69.7517 110.984 66.2767 110.883C62.0061 110.729 57.7548 110.964 53.4958 111.083C52.8949 111.121 52.2938 111.012 51.7449 110.767C51.196 110.522 50.7162 110.148 50.3472 109.677C47.4264 106.232 43.4339 103.844 38.9951 102.886C33.4005 101.641 27.6895 101.88 21.7728 101.906H21.765ZM4.19323 90.9814V135.757C4.31172 135.807 4.43544 135.843 4.56206 135.865C7.27198 135.865 9.98189 135.865 12.6918 135.865C16.5121 135.865 17.6458 134.766 17.6458 131.023C17.6458 119.239 17.6458 107.454 17.6458 95.6697C17.6596 95.0467 17.6245 94.4235 17.5409 93.8059C17.3041 92.3303 16.1433 91.0391 14.6602 90.993C11.201 90.9084 7.7301 90.9814 4.201 90.9814H4.19323Z" fill="#8A46CA"/>
<path id="Vector_2" d="M36.879 32.4829C36.844 15.8168 48.3903 2.67451 63.8151 0.395744C78.18 -1.72547 91.9043 4.77654 98.4306 16.8544C102.701 24.7628 102.678 33.0171 100.205 41.4135C98.5127 46.9736 95.9049 52.2191 92.4866 56.9384C85.4983 66.8297 78.4776 76.7069 71.4246 86.57C70.0308 88.526 68.6448 88.4914 67.2277 86.5124C59.9832 76.3252 52.7114 66.1456 45.4863 55.9392C40.2295 48.4727 36.9722 40.2991 36.879 32.4829ZM69.3242 82.4621C69.5805 82.147 69.7125 82.0086 69.8212 81.851C76.3358 72.6822 82.8466 63.5121 89.3535 54.3407C92.336 50.1993 94.6382 45.6172 96.1749 40.7641C98.3918 33.5743 98.6713 26.4422 95.2276 19.4983C89.7262 8.40801 76.9803 2.20571 64.0636 4.44989C51.8534 6.56726 39.8956 17.0657 41.0099 32.9594C41.5495 40.645 44.4652 47.4352 48.8601 53.6682C54.4546 61.5997 60.119 69.5004 65.733 77.4127L69.3242 82.4621Z" fill="#8A46CA"/>
<path id="Vector_3" d="M68.4156 89.4021C81.4294 89.1677 91.512 88.5221 101.342 85.8129C102.927 85.3879 104.469 84.822 105.951 84.1221C106.727 83.7378 107.313 82.9116 107.985 82.2814C107.302 81.6589 106.723 80.7443 105.916 80.4676C102.732 79.3609 99.5291 78.2234 96.2368 77.5279C92.4166 76.717 88.4953 76.3559 84.6207 75.7949C83.2308 75.595 82.5242 74.8226 82.6135 73.6352C82.6312 73.3586 82.7076 73.0888 82.8376 72.8433C82.9676 72.5979 83.1483 72.3822 83.368 72.2105C83.5877 72.0387 83.8415 71.9145 84.1128 71.8462C84.3842 71.7778 84.667 71.7668 84.9429 71.8137C91.7798 72.5246 98.6168 73.3201 105.089 75.7833C106.85 76.4372 108.505 77.3435 110 78.4733C112.881 80.7136 112.819 83.684 109.977 86.0012C106.979 88.4414 103.346 89.5251 99.665 90.3782C88.8913 92.876 77.9235 93.4524 66.9169 93.3217C57.1643 93.2064 47.4739 92.4917 37.9892 90.0938C36.0337 89.5577 34.1167 88.8926 32.251 88.1032C31.225 87.6755 30.254 87.1285 29.3586 86.4738C25.6625 83.8377 25.647 80.3831 29.4595 77.8853C31.206 76.7731 33.0886 75.8859 35.0618 75.2453C40.5399 73.4007 46.2393 72.5553 51.9775 71.9943C53.7478 71.8175 54.6486 72.4478 54.7456 73.7543C54.8427 75.0609 54.008 75.814 52.3036 75.9984C46.1849 76.6594 40.109 77.5356 34.3319 79.7721C33.3414 80.1498 32.394 80.6303 31.5056 81.2054C30.4418 81.901 30.3952 82.6811 31.4667 83.3459C32.6949 84.1037 34.0066 84.72 35.3763 85.1827C41.328 87.1579 47.501 88.1301 53.7284 88.6412C59.5714 89.1024 65.4339 89.2561 68.4156 89.4021Z" fill="#8A46CA"/>
<path id="Vector_4" d="M69.2735 51.4124C66.7859 51.4018 64.3249 50.9064 62.0308 49.9543C59.7367 49.0023 57.6545 47.6125 55.9031 45.864C54.1517 44.1155 52.7655 42.0427 51.8234 39.7639C50.8814 37.4851 50.402 35.0449 50.4128 32.5828C50.4678 27.6402 52.4841 22.9172 56.0265 19.4332C59.569 15.9492 64.3534 13.9836 69.3472 13.9607C71.8336 13.9657 74.2945 14.4556 76.5896 15.4021C78.8847 16.3487 80.9689 17.7334 82.7232 19.4773C84.4775 21.2212 85.8676 23.2901 86.814 25.5658C87.7604 27.8415 88.2446 30.2794 88.239 32.7404C88.2401 35.2011 87.7495 37.6378 86.7955 39.9102C85.8415 42.1826 84.443 44.2459 82.6803 45.9813C80.9177 47.7166 78.8257 49.0898 76.5248 50.0219C74.224 50.954 71.7596 51.4266 69.2735 51.4124ZM58.7133 42.8084C60.8409 36.5024 64.1836 33.6742 69.3861 33.678C71.5798 33.6605 73.7211 34.3422 75.4931 35.6225C77.9623 37.3748 79.3483 39.8072 79.8802 42.7854C84.3527 39.1424 86.3871 29.8544 80.6567 23.2064C79.3452 21.6784 77.7318 20.432 75.9156 19.5441C74.0995 18.6561 72.119 18.1453 70.0959 18.0431C68.0729 17.9409 66.0502 18.2494 64.1521 18.9496C62.254 19.6499 60.5207 20.7271 59.0589 22.1151C53.1615 27.7332 52.9557 37.4478 58.7133 42.8084ZM69.3666 47.6503C71.2651 47.2007 73.1015 46.8126 74.8991 46.3016C75.2873 46.1863 75.8619 45.5944 75.8309 45.2793C75.6833 43.8729 75.6096 42.3627 75.0233 41.1138C73.6528 38.2087 70.1276 36.9443 67.1187 38.0857C64.1099 39.227 62.4987 41.9592 62.8947 45.4676C62.9578 45.6579 63.0657 45.8307 63.2094 45.9717C63.3532 46.1127 63.5288 46.2178 63.7216 46.2785C65.5736 46.778 67.4526 47.193 69.3666 47.6503Z" fill="#8A46CA"/>
<path id="Vector_5" d="M62.4835 26.0078C62.4794 25.1102 62.6545 24.2205 62.9989 23.3901C63.3432 22.5597 63.8499 21.8049 64.49 21.1689C65.13 20.5329 65.8906 20.0283 66.7283 19.6842C67.5659 19.3401 68.4639 19.1633 69.3708 19.1638C71.1787 19.1816 72.9082 19.8972 74.191 21.1583C75.4738 22.4194 76.2086 24.1263 76.2388 25.9156C76.2513 27.7274 75.5403 29.4706 74.2606 30.7661C72.9809 32.0615 71.236 32.8043 69.4058 32.8326C68.4976 32.8377 67.5974 32.6648 66.757 32.3239C65.9166 31.9831 65.1526 31.481 64.5092 30.8466C63.8657 30.2122 63.3554 29.4581 63.0078 28.6276C62.6601 27.7971 62.4819 26.9068 62.4835 26.0078ZM69.4136 28.7938C70.1702 28.7628 70.8838 28.4374 71.3993 27.8883C71.9147 27.3392 72.1904 26.6109 72.1662 25.8618C72.1216 25.1383 71.7992 24.4591 71.2651 23.9633C70.7309 23.4674 70.0255 23.1926 69.2932 23.1949C68.9184 23.204 68.5493 23.2878 68.2079 23.4413C67.8665 23.5947 67.5599 23.8146 67.3062 24.0878C67.0526 24.3611 66.8572 24.6822 66.7316 25.0318C66.6061 25.3815 66.553 25.7527 66.5755 26.1231C66.6028 26.8469 66.9149 27.5313 67.4452 28.0303C67.9755 28.5294 68.6819 28.8034 69.4136 28.7938Z" fill="#8A46CA"/>
</g>
<defs>
<clipPath id="clip0_859_153">
<rect width="131" height="140" fill="white"/>
</clipPath>
</defs>
</svg>
