<svg width="302" height="97" viewBox="0 0 302 97" fill="none" xmlns="http://www.w3.org/2000/svg">
<path d="M50.05 65.6C41.3 65.6 35.25 59.2 35.25 48.55C35.25 37.9 41.3 31.8 50.05 31.8C58.85 31.8 64.85 37.95 64.85 48.55C64.85 59.2 58.85 65.6 50.05 65.6ZM50.05 59.25C54.5 59.25 57.3 55.1 57.3 48.55C57.3 42.05 54.5 38.15 50.05 38.15C45.65 38.15 42.8 42.05 42.8 48.55C42.8 55.1 45.65 59.25 50.05 59.25ZM70.1309 55.6V40.2H77.4809V54.65C77.4809 58.2 78.4309 59.35 80.5809 59.35C82.4309 59.35 83.5309 58.55 84.9809 56.6V40.2H92.3309V65H86.3309L85.7809 61.55H85.6309C83.5309 64.05 81.2309 65.6 77.8309 65.6C72.4309 65.6 70.1309 61.8 70.1309 55.6ZM98.7988 65V40.2H104.799L105.299 44.55H105.499C107.299 41.2 109.999 39.6 112.549 39.6C113.949 39.6 114.799 39.8 115.499 40.1L114.299 46.45C113.399 46.2 112.649 46.05 111.599 46.05C109.749 46.05 107.449 47.25 106.149 50.6V65H98.7988Z" fill="#307B74"/>
<path d="M135.321 65L125.471 32.4H133.271L137.221 47.6C138.171 51.15 138.821 54.45 139.821 58.05H140.021C141.021 54.45 141.671 51.15 142.621 47.6L146.471 32.4H154.021L144.171 65H135.321ZM154.198 58.1C154.198 52.9 158.348 50.05 168.148 49.05C167.998 46.85 166.898 45.45 164.248 45.45C162.148 45.45 160.048 46.3 157.648 47.7L155.048 42.85C158.198 40.95 161.748 39.6 165.648 39.6C171.998 39.6 175.498 43.2 175.498 50.8V65H169.498L168.948 62.45H168.798C166.698 64.3 164.348 65.6 161.548 65.6C157.048 65.6 154.198 62.3 154.198 58.1ZM161.198 57.55C161.198 59.15 162.298 59.9 164.048 59.9C165.748 59.9 166.848 59.1 168.148 57.8V53.45C162.898 54.15 161.198 55.65 161.198 57.55ZM181.807 57.3V29.95H189.157V57.6C189.157 59.15 189.857 59.65 190.457 59.65C190.757 59.65 190.957 59.65 191.357 59.55L192.257 65C191.457 65.35 190.207 65.6 188.557 65.6C183.507 65.6 181.807 62.3 181.807 57.3ZM195.863 55.6V40.2H203.213V54.65C203.213 58.2 204.163 59.35 206.313 59.35C208.163 59.35 209.263 58.55 210.713 56.6V40.2H218.063V65H212.063L211.513 61.55H211.363C209.263 64.05 206.963 65.6 203.563 65.6C198.163 65.6 195.863 61.8 195.863 55.6ZM223.081 52.6C223.081 44.55 228.831 39.6 234.781 39.6C241.831 39.6 245.331 44.75 245.331 51.5C245.331 52.8 245.181 54 245.031 54.6H230.181C230.831 58.35 233.331 60 236.631 60C238.481 60 240.181 59.45 241.981 58.35L244.431 62.8C241.881 64.55 238.581 65.6 235.631 65.6C228.531 65.6 223.081 60.8 223.081 52.6ZM230.131 50.05H239.081C239.081 47.2 237.881 45.2 234.931 45.2C232.631 45.2 230.631 46.75 230.131 50.05ZM248.21 62.15L251.51 57.55C253.76 59.25 255.81 60.15 257.91 60.15C260.11 60.15 261.06 59.35 261.06 58.05C261.06 56.4 258.56 55.65 256.01 54.65C253.01 53.5 249.46 51.45 249.46 47.35C249.46 42.75 253.21 39.6 258.96 39.6C262.76 39.6 265.56 41.15 267.71 42.75L264.41 47.15C262.61 45.85 260.91 45.05 259.16 45.05C257.26 45.05 256.36 45.75 256.36 47C256.36 48.6 258.66 49.2 261.21 50.15C264.36 51.3 267.91 53.05 267.91 57.6C267.91 62.1 264.36 65.6 257.71 65.6C254.46 65.6 250.71 64.2 248.21 62.15Z" fill="#03045E"/>
<path d="M67 19L52.0349 3.63044C50.0903 1.63328 46.8881 1.61193 44.917 3.58299L3.5539 44.9461C1.59412 46.9059 1.60236 50.0858 3.57227 52.0354L45.0614 93.0969C46.9785 94.9942 50.0551 95.029 52.0146 93.1754L67 79" stroke="#307B74" stroke-width="3"/>
<path d="M235 19L249.965 3.63044C251.91 1.63328 255.112 1.61193 257.083 3.58299L298.446 44.9461C300.406 46.9059 300.398 50.0858 298.428 52.0354L256.939 93.0969C255.021 94.9942 251.945 95.029 249.985 93.1754L235 79" stroke="#307B74" stroke-width="3"/>
</svg>
