<svg width="149" height="142" viewBox="0 0 149 142" fill="none" xmlns="http://www.w3.org/2000/svg">
<path id="Vector 14" d="M128.382 8.62196L115.695 26.1727M145.035 20.5884L119.659 36.5437M149 44.5213H127.589M128.382 78.0274L87.147 6.22867C85.8254 3.03762 82.0719 -1.42986 77.6312 6.22867C72.0802 15.8018 65.7363 41.3303 46.7047 54.8922C27.673 68.4542 17.3641 72.443 9.43425 78.0274C1.50438 83.6117 -0.0815913 96.3759 4.67633 104.354C9.43425 112.331 22.122 117.118 30.8449 112.331C39.5678 107.545 70.4943 77.2296 121.245 89.196C127.061 90.5256 136.629 90.1534 128.382 78.0274ZM49.0836 121.904L69.7013 109.14C71.8159 107.545 76.8382 105.47 80.0101 109.938C83.1821 114.405 88.2043 123.5 90.3189 127.489C91.3763 129.616 92.6979 134.349 89.526 136.264C85.561 138.657 81.5961 141.848 75.2522 138.657C70.1771 136.105 55.6918 126.425 49.0836 121.904Z" stroke="#5AA39B" stroke-width="3"/>
</svg>
