<svg width="149" height="142" viewBox="0 0 149 142" fill="none" xmlns="http://www.w3.org/2000/svg">
<path id="Vector 18" d="M20.6177 8.62196L33.3055 26.1727M3.96494 20.5884L29.3405 36.5437M3.76254e-06 44.5213H21.4107M20.6177 78.0274L61.853 6.22867C63.1746 3.03762 66.9281 -1.42986 71.3688 6.22867C76.9198 15.8018 83.2637 41.3303 102.295 54.8922C121.327 68.4542 131.636 72.443 139.566 78.0274C147.496 83.6117 149.082 96.3759 144.324 104.354C139.566 112.331 126.878 117.118 118.155 112.331C109.432 107.545 78.5057 77.2296 27.7546 89.196C21.9393 90.5256 12.3706 90.1534 20.6177 78.0274ZM99.9164 121.904L79.2987 109.14C77.1841 107.545 72.1618 105.47 68.9899 109.938C65.8179 114.405 60.7957 123.5 58.6811 127.489C57.6237 129.616 56.3021 134.349 59.474 136.264C63.439 138.657 67.4039 141.848 73.7478 138.657C78.8229 136.105 93.3082 126.425 99.9164 121.904Z" stroke="#5AA39B" stroke-width="3"/>
</svg>
