<svg width="111" height="106" viewBox="0 0 111 106" fill="none" xmlns="http://www.w3.org/2000/svg">
<path id="Vector 19" d="M15.2879 6.89449L24.6959 19.8668M2.93998 15.7393L21.7559 27.5323M-2.69711e-06 33.4288H15.8759M15.2879 58.1941L45.8638 5.12554C46.8438 2.76693 49.627 -0.535113 52.9198 5.12554C57.0357 12.2014 61.7397 31.0702 75.8517 41.0943C89.9636 51.1183 97.6076 54.0666 103.488 58.1941C109.367 62.3217 110.543 71.7561 107.016 77.6526C103.488 83.5491 94.0796 87.087 87.6116 83.5491C81.1436 80.0112 58.2117 57.6045 20.5799 66.4492C16.2679 67.432 9.17276 67.1568 15.2879 58.1941ZM74.0877 90.6249L58.7997 81.1905C57.2317 80.0112 53.5078 78.4781 51.1558 81.7802C48.8038 85.0822 45.0798 91.8042 43.5118 94.7525C42.7278 96.3249 41.7478 99.8235 44.0998 101.239C47.0398 103.008 49.9798 105.366 54.6837 103.008C58.4469 101.121 69.1877 93.9663 74.0877 90.6249Z" stroke="#5AA39B" stroke-width="3"/>
</svg>
