<svg width="111" height="106" viewBox="0 0 111 106" fill="none" xmlns="http://www.w3.org/2000/svg">
<path id="Vector 17" d="M95.7121 6.89449L86.3041 19.8668M108.06 15.7393L89.2441 27.5323M111 33.4288H95.1241M95.7121 58.1941L65.1362 5.12554C64.1562 2.76693 61.373 -0.535113 58.0802 5.12554C53.9643 12.2014 49.2603 31.0702 35.1483 41.0943C21.0364 51.1183 13.3924 54.0666 7.51247 58.1941C1.6325 62.3217 0.456507 71.7561 3.98449 77.6526C7.51247 83.5491 16.9204 87.087 23.3884 83.5491C29.8564 80.0112 52.7883 57.6045 90.4201 66.4492C94.7321 67.432 101.827 67.1568 95.7121 58.1941ZM36.9123 90.6249L52.2003 81.1905C53.7683 80.0112 57.4922 78.4781 59.8442 81.7802C62.1962 85.0822 65.9202 91.8042 67.4882 94.7525C68.2722 96.3249 69.2522 99.8235 66.9002 101.239C63.9602 103.008 61.0202 105.366 56.3163 103.008C52.5531 101.121 41.8123 93.9663 36.9123 90.6249Z" stroke="#5AA39B" stroke-width="3"/>
</svg>
