<svg width="24" height="19" viewBox="0 0 24 19" fill="none" xmlns="http://www.w3.org/2000/svg">
<path d="M23.6804 8.80501L14.2259 0.287849C13.7999 -0.0959498 13.1092 -0.0959498 12.6831 0.287849C12.2571 0.671649 12.2571 1.29386 12.6831 1.67766L20.2755 8.51739L1.09076 8.51831C0.488364 8.51831 0 8.95832 0 9.50107C0 10.0438 0.488509 10.4838 1.09098 10.4838L20.2753 10.4828L12.6832 17.3223C12.2572 17.7061 12.2572 18.3283 12.6832 18.7121C12.8961 18.904 13.1753 19 13.4545 19C13.7337 19 14.0129 18.904 14.2259 18.7121L23.6804 10.1948C23.885 10.0105 24 9.76058 24 9.49995C24 9.23932 23.8851 8.98931 23.6804 8.80501Z" fill="white"/>
</svg>
