<svg width="38" height="38" viewBox="0 0 38 38" fill="none" xmlns="http://www.w3.org/2000/svg">
<path d="M9.12247 29.0403H1.45882C0.843993 29.0403 0.345542 29.5388 0.345542 30.1536V36.8867C0.345542 37.5015 0.843993 38 1.45882 38H10.2358V30.1536C10.2357 29.5388 9.73737 29.0403 9.12247 29.0403Z" fill="#010273"/>
<path d="M20.126 22.8059H13.5756C12.9608 22.8059 12.4623 23.3044 12.4623 23.9192V38H21.2393V23.9192C21.2393 23.3044 20.7409 22.8059 20.126 22.8059Z" fill="#010273"/>
<path d="M35.4616 6.01246L37.7052 3.57734C38.005 3.25227 38.0837 2.78098 37.9063 2.37648C37.729 1.97125 37.3289 1.71 36.8866 1.71H29.7097V1.11328C29.7097 0.49875 29.2117 0 28.5964 0C27.9819 0 27.4832 0.49875 27.4832 1.11328V14.1016H24.579C23.9642 14.1016 23.4657 14.6 23.4657 15.2148V38H32.432C33.0472 38 33.5453 37.5013 33.5453 36.8867V15.2148C33.5453 14.6003 33.0472 14.1016 32.432 14.1016H29.7097V10.1182H36.8866C37.3371 10.1182 37.7431 9.8466 37.9152 9.43023C38.0874 9.01387 37.9917 8.53441 37.6725 8.21676L35.4616 6.01246Z" fill="#010273"/>
<path d="M18.8926 9.55826C19.1658 10.1091 19.8336 10.3341 20.3845 10.061C20.9354 9.78782 21.1605 9.11985 20.8873 8.569C18.869 4.49907 19.0732 4.90935 19.0439 4.85405C18.8346 4.45877 18.4042 4.22008 17.9457 4.26758C17.9426 4.26787 17.9394 4.26854 17.9362 4.26891C17.8451 4.27916 18.0884 4.23143 13.8717 5.11879C13.27 5.24541 12.885 5.83582 13.0115 6.43751C13.1219 6.96187 13.5845 7.32175 14.0998 7.32175C14.2548 7.32175 14.1549 7.33459 16.1129 6.92253C14.653 9.78812 12.7529 12.3996 10.4456 14.7071C7.61762 17.5351 4.33197 19.7523 0.679896 21.2969C0.113609 21.5365 -0.151277 22.1896 0.0882261 22.7559C0.327878 23.3227 0.981371 23.5869 1.54721 23.3477C5.46469 21.6907 8.98821 19.3133 12.0199 16.2815C14.4908 13.8105 16.5268 11.0136 18.0919 7.94393L18.8926 9.55826Z" fill="#FF9D00"/>
</svg>
