<svg width="38" height="38" viewBox="0 0 38 38" fill="none" xmlns="http://www.w3.org/2000/svg">
<path d="M35.3633 15.6602C34.9371 13.5739 34.1065 11.5766 32.9269 9.79584L34.7437 7.97911L30.0209 3.25635L28.2042 5.07307C26.4234 3.89352 24.4261 3.06293 22.3398 2.6367V0H15.6602V2.6367C13.5739 3.06286 11.5766 3.89352 9.79584 5.07307L7.97911 3.25635L3.25635 7.97911L5.07307 9.79584C3.89352 11.5766 3.06293 13.5739 2.6367 15.6602H0V22.3398H2.6367C3.06286 24.4261 3.89352 26.4234 5.07307 28.2042L3.25635 30.0209L7.97911 34.7437L14.6142 28.1096L13.4792 27.3573C10.6623 25.4895 8.98047 22.3649 8.98047 19C8.98047 13.4749 13.4749 8.98047 19 8.98047C24.5251 8.98047 29.0195 13.4749 29.0195 19C29.0195 22.3649 27.3377 25.4895 24.5208 27.3573L23.3857 28.1096L30.0208 34.7437L34.7436 30.0209L32.9268 28.2042C34.1065 26.4234 34.9371 24.4261 35.3633 22.3398H38V15.6602H35.3633Z" fill="#010273"/>
<path d="M15.6602 20.1133H22.3398V31.3203H15.6602V20.1133Z" fill="#FF9D00"/>
<path d="M15.6602 16.5103V17.8867H22.3398V16.5103L19 9.83064L15.6602 16.5103Z" fill="#FF9D00"/>
<path d="M15.6602 34.6602C15.6602 36.5018 17.1583 38 19 38C20.8417 38 22.3398 36.5018 22.3398 34.6602V33.5469H15.6602V34.6602Z" fill="#FF9D00"/>
</svg>
