<svg width="33" height="38" viewBox="0 0 33 38" fill="none" xmlns="http://www.w3.org/2000/svg">
<path d="M16.4667 0C12.759 0 9.74293 3.0705 9.74293 6.75391C9.74293 10.4373 12.759 13.4336 16.4667 13.4336C20.1743 13.4336 23.1904 10.4373 23.1904 6.75391C23.1904 3.0705 20.1743 0 16.4667 0Z" fill="#FF9D00"/>
<path d="M16.4667 29.0195C15.8484 29.0195 15.346 29.5186 15.346 30.1328C15.346 30.747 15.8484 31.2461 16.4667 31.2461C17.0849 31.2461 17.5873 30.747 17.5873 30.1328C17.5873 29.5186 17.0849 29.0195 16.4667 29.0195Z" fill="#FF9D00"/>
<path d="M32.1104 23.4912C31.4713 22.7596 30.5467 22.3398 29.5716 22.3398H3.36174C2.38665 22.3398 1.46192 22.7595 0.822863 23.4912C0.18381 24.2229 -0.10404 25.1927 0.0337963 26.1526L1.90949 37.0444C1.98831 37.5923 2.46106 38 3.0192 38H29.9141C30.4722 38 30.945 37.5923 31.0238 37.0444L32.8995 26.1526C33.0374 25.1926 32.7496 24.2228 32.1104 23.4912ZM16.4667 33.4727C14.6128 33.4727 13.1048 31.9745 13.1048 30.1328C13.1048 28.2911 14.6128 26.793 16.4667 26.793C18.3205 26.793 19.8285 28.2911 19.8285 30.1328C19.8285 31.9745 18.3205 33.4727 16.4667 33.4727Z" fill="#010273"/>
<path d="M22.1938 13.548C20.6357 14.8465 18.6547 15.6602 16.4667 15.6602C14.2786 15.6602 12.2976 14.8465 10.7395 13.548C7.37924 14.0877 4.74339 16.7533 4.25308 20.1133H28.6802C28.1899 16.7533 25.5541 14.0877 22.1938 13.548Z" fill="#010273"/>
</svg>
