<svg width="30" height="38" viewBox="0 0 30 38" fill="none" xmlns="http://www.w3.org/2000/svg">
<path d="M25.7718 35.7734H16.8073C26.7416 22.6148 29.1333 20.517 29.1333 14.4727C29.1333 6.49266 22.5985 0 14.5667 0C6.53483 0 0 6.49266 0 14.4727C0 20.5071 2.37115 22.5865 12.3262 35.7734H3.36154C2.74219 35.7734 2.24103 36.2714 2.24103 36.8867C2.24103 37.5021 2.74219 38 3.36154 38H25.7718C26.3911 38 26.8923 37.5021 26.8923 36.8867C26.8923 36.2714 26.3911 35.7734 25.7718 35.7734ZM4.48205 14.4727C4.48205 8.94759 9.00571 4.45312 14.5667 4.45312C20.1276 4.45312 24.6513 8.94759 24.6513 14.4727C24.6513 20.0839 19.8721 24.4922 14.5667 24.4922C9.24587 24.4922 4.48205 20.0692 4.48205 14.4727Z" fill="#010273"/>
<path d="M14.5667 8.90625C12.0947 8.90625 10.0846 10.9034 10.0846 13.3594C10.0846 15.8153 12.0947 17.8125 14.5667 17.8125C17.0386 17.8125 19.0487 15.8153 19.0487 13.3594C19.0487 10.9034 17.0386 8.90625 14.5667 8.90625Z" fill="#FF9D00"/>
<path d="M19.5411 17.8125C18.3097 19.1691 16.5459 20.0391 14.5667 20.0391C12.5874 20.0391 10.8236 19.1691 9.59219 17.8125C9.17379 18.2735 8.83965 18.8035 8.55892 19.3637C10.0112 21.1094 12.1708 22.2656 14.5667 22.2656C16.9625 22.2656 19.1221 21.1093 20.5744 19.3637C20.2938 18.8034 19.9595 18.2735 19.5411 17.8125Z" fill="#FF9D00"/>
</svg>
