<svg width="16" height="16" viewBox="0 0 16 16" fill="none" xmlns="http://www.w3.org/2000/svg">
<path d="M15.4087 8.08235C15.0174 7.71148 14.3829 7.71148 13.9916 8.08235L9.28949 12.5387L9.28949 1.90114C9.28949 1.37673 8.84077 0.951538 8.28752 0.951538C7.73411 0.951538 7.28554 1.37673 7.28554 1.90114L7.28554 12.5387L2.58339 8.0825C2.19198 7.7117 1.55761 7.7117 1.16636 8.0825C0.77495 8.45338 0.77495 9.05459 1.16636 9.42547L7.579 15.5028C7.77451 15.6881 8.03109 15.7809 8.28752 15.7809C8.54394 15.7809 8.80029 15.6881 8.99603 15.5028L15.4087 9.42532C15.8 9.05444 15.8 8.45323 15.4087 8.08235Z" fill="#010273"/>
</svg>
