<svg width="11" height="11" viewBox="0 0 11 11" fill="none" xmlns="http://www.w3.org/2000/svg">
<path d="M10.3008 4.00721L6.88369 3.69614L5.52632 0.602411C5.43128 0.385785 5.11837 0.385785 5.02335 0.602411L3.66598 3.69612L0.248913 4.00721C0.00963833 4.02898 -0.0870427 4.32109 0.0934674 4.47676L2.67166 6.69984L1.91714 9.98583C1.86431 10.2159 2.11748 10.3964 2.32408 10.276L5.27483 8.55626L8.22559 10.276C8.43221 10.3965 8.68534 10.2159 8.63253 9.98583L7.87799 6.69984L10.4562 4.47676C10.6367 4.32109 10.54 4.02898 10.3008 4.00721Z" fill="#FFDC64"/>
<path d="M6.0199 1.72742L5.52632 0.602411C5.43128 0.385785 5.11837 0.385785 5.02335 0.602411L3.66598 3.69612L0.248913 4.00721C0.00963833 4.02898 -0.0870427 4.32109 0.0934674 4.47676L2.67166 6.69984L1.91714 9.98583C1.86431 10.2159 2.11748 10.3964 2.32408 10.276L2.7168 10.0471C3.36064 5.95637 5.17064 2.95345 6.0199 1.72742Z" fill="#FFC850"/>
</svg>
