<svg xmlns="http://www.w3.org/2000/svg" xmlns:xlink="http://www.w3.org/1999/xlink" viewBox="0 0 209.6 159"><defs><style>.cls-1{isolation:isolate;}.cls-2,.cls-3,.cls-4{fill:none;stroke-linecap:round;stroke-linejoin:round;stroke-width:3px;}.cls-2{stroke:url(#linear-gradient);}.cls-3{stroke:url(#linear-gradient-2);}.cls-4{stroke:url(#linear-gradient-3);}.cls-5{font-size:10.5px;fill:#0152c6;font-family:ArialMT, Arial;}.cls-6{letter-spacing:-0.02em;}.cls-7{fill:url(#linear-gradient-4);}.cls-8{fill:url(#linear-gradient-28);}.cls-9{fill:#bd0c34;}.cls-10{fill:url(#åçûìßííûé_ãðàäèåíò_150);}.cls-11{fill:url(#åçûìßííûé_ãðàäèåíò_150-2);}.cls-12{fill:#f5f197;opacity:0.55;}.cls-12,.cls-13{mix-blend-mode:soft-light;}.cls-13{fill:#3dffff;opacity:0.28;}.cls-14{fill:#dacfe5;}.cls-15{fill:url(#åçûìßííûé_ãðàäèåíò_162);}.cls-16{fill:url(#åçûìßííûé_ãðàäèåíò_161);}.cls-17{fill:url(#åçûìßííûé_ãðàäèåíò_159);}.cls-18{fill:#b89dc2;}.cls-19{fill:#fff;opacity:0.47;}.cls-20{fill:url(#åçûìßííûé_ãðàäèåíò_151);}.cls-21{fill:#d9cfe4;}</style><linearGradient id="linear-gradient" x1="130.14" y1="225.9" x2="130.14" y2="225.9" gradientUnits="userSpaceOnUse"><stop offset="0" stop-color="#0152c6"/><stop offset="1" stop-color="#043b8b"/></linearGradient><linearGradient id="linear-gradient-2" x1="98.95" y1="169.45" x2="293.3" y2="169.45" xlink:href="#linear-gradient"/><linearGradient id="linear-gradient-3" x1="262.11" y1="225.9" x2="262.11" y2="225.9" xlink:href="#linear-gradient"/><linearGradient id="linear-gradient-4" x1="161.91" y1="259.5" x2="233.48" y2="187.93" gradientUnits="userSpaceOnUse"><stop offset="0.49" stop-color="#0152c6"/><stop offset="1" stop-color="#043b8b"/></linearGradient><linearGradient id="linear-gradient-28" x1="162.06" y1="224.92" x2="243.37" y2="143.6" gradientTransform="translate(-4.6 4)" gradientUnits="userSpaceOnUse"><stop offset="0.49" stop-color="#024ebb"/><stop offset="0.5" stop-color="#0152c6"/><stop offset="1" stop-color="#043b8b"/></linearGradient><linearGradient id="åçûìßííûé_ãðàäèåíò_150" x1="-17.41" y1="-239.74" x2="-4.26" y2="-245.57" gradientTransform="matrix(-0.99, 0.12, 0.12, 0.99, 301.65, 358.04)" gradientUnits="userSpaceOnUse"><stop offset="0.4" stop-color="#ff1c30"/><stop offset="1" stop-color="#e30040"/></linearGradient><linearGradient id="åçûìßííûé_ãðàäèåíò_150-2" x1="12.37" y1="-261.17" x2="49.14" y2="-277.47" xlink:href="#åçûìßííûé_ãðàäèåíò_150"/><radialGradient id="åçûìßííûé_ãðàäèåíò_162" cx="19" cy="-247.17" r="44.5" gradientTransform="matrix(-0.99, 0.12, 0.12, 0.99, 301.65, 358.04)" gradientUnits="userSpaceOnUse"><stop offset="0" stop-color="#fff"/><stop offset="0.78" stop-color="#ebe1ef"/></radialGradient><linearGradient id="åçûìßííûé_ãðàäèåíò_161" x1="7.3" y1="-283.77" x2="32.83" y2="-251.51" gradientTransform="matrix(-0.99, 0.12, 0.12, 0.99, 301.65, 358.04)" gradientUnits="userSpaceOnUse"><stop offset="0" stop-color="#fff"/><stop offset="0.12" stop-color="#ffebed"/><stop offset="0.51" stop-color="#ffb2b7"/><stop offset="0.69" stop-color="#ff9ba2"/><stop offset="0.77" stop-color="#f19ba8"/><stop offset="0.93" stop-color="#cb9cba"/><stop offset="0.99" stop-color="#b89dc2"/></linearGradient><radialGradient id="åçûìßííûé_ãðàäèåíò_159" cx="57.92" cy="48.17" r="18.74" gradientTransform="matrix(-0.91, -0.41, -0.41, 0.91, 372.58, 114.76)" gradientUnits="userSpaceOnUse"><stop offset="0.23" stop-color="#f1edf5"/><stop offset="0.73" stop-color="#dacfe5"/><stop offset="1" stop-color="#c9b9dc"/></radialGradient><linearGradient id="åçûìßííûé_ãðàäèåíò_151" x1="-25.4" y1="-226.01" x2="-18.94" y2="-203.62" gradientTransform="matrix(-0.99, 0.12, 0.12, 0.99, 301.65, 358.04)" gradientUnits="userSpaceOnUse"><stop offset="0" stop-color="#fff"/><stop offset="1" stop-color="#ebe1ef"/></linearGradient></defs><title>IOT ACADEMY tia logo Santa Claus</title><g class="cls-1"><g id="Layer_1" data-name="Layer 1"><path class="cls-2" d="M130.1,225.9" transform="translate(-98.9 -71.9)"/><path class="cls-3" d="M271.5,224.5c11.8-3.8,20.3-14.4,20.3-27s-7.9-22.4-19.1-26.5a42.9,42.9,0,0,0,1.2-10.1c0-25.9-22-46.9-49-46.9a49.4,49.4,0,0,0-43.1,24.5,36.3,36.3,0,0,0-16.8-4.1c-19.2,0-34.8,14.9-34.8,33.3a6.6,6.6,0,0,0,.1,1.4h-.2c-16.4,0-29.7,12.7-29.7,28.4,0,13.1,9.3,24.1,21.9,27.4" transform="translate(-98.9 -71.9)"/><path class="cls-4" d="M262.1,225.9" transform="translate(-98.9 -71.9)"/><text class="cls-5" transform="translate(28.6 155.6)">Connecting<tspan class="cls-6" x="53.1" y="0"> </tspan><tspan x="55.8" y="0">The Unconnected</tspan></text><path class="cls-7" d="M133.7,224.8l1,.3a4,4,0,0,1-1.1,1.9,3.4,3.4,0,0,1-2,.6,3.9,3.9,0,0,1-2-.5,3.3,3.3,0,0,1-1.2-1.4,7.1,7.1,0,0,1-.4-2,4.6,4.6,0,0,1,.5-2.1,2.7,2.7,0,0,1,1.3-1.3,3.5,3.5,0,0,1,1.8-.5,3,3,0,0,1,3,2.2l-1,.2a2.5,2.5,0,0,0-.8-1.2,2.1,2.1,0,0,0-1.2-.3,2.4,2.4,0,0,0-1.5.4,2.3,2.3,0,0,0-.8,1.1,3.6,3.6,0,0,0-.2,1.4,7.9,7.9,0,0,0,.2,1.7,2,2,0,0,0,.9,1.1,2.8,2.8,0,0,0,1.3.3,2.1,2.1,0,0,0,1.4-.4A2.4,2.4,0,0,0,133.7,224.8Z" transform="translate(-98.9 -71.9)"/><path class="cls-7" d="M135.5,224.7a2.6,2.6,0,0,1,.8-2.2,2.5,2.5,0,0,1,1.7-.6,2.1,2.1,0,0,1,1.8.7,2.9,2.9,0,0,1,.8,2.1,3.4,3.4,0,0,1-.4,1.6,2.8,2.8,0,0,1-.9,1,2.8,2.8,0,0,1-1.3.3,2.5,2.5,0,0,1-1.8-.7A2.9,2.9,0,0,1,135.5,224.7Zm.9,0a2.3,2.3,0,0,0,.5,1.6,1.5,1.5,0,0,0,2.2,0,1.9,1.9,0,0,0,.5-1.6,1.7,1.7,0,0,0-.5-1.5,1.5,1.5,0,0,0-2.2,0A2.1,2.1,0,0,0,136.4,224.7Z" transform="translate(-98.9 -71.9)"/><path class="cls-7" d="M141.6,227.5V222h.9v.8a1.9,1.9,0,0,1,1.7-.9l.9.2a.9.9,0,0,1,.6.4,1.1,1.1,0,0,1,.3.7c0,.2.1.5.1.9v3.4h-1v-3.3a2.2,2.2,0,0,0-.1-.9c0-.2-.2-.3-.4-.4l-.6-.2a1.3,1.3,0,0,0-1,.4c-.3.2-.4.7-.4,1.4v3Z" transform="translate(-98.9 -71.9)"/><path class="cls-7" d="M147.5,227.5V222h.8v.8a2,2,0,0,1,1.7-.9l.9.2.7.4a1.9,1.9,0,0,1,.2.7,2.2,2.2,0,0,1,.1.9v3.4H151v-3.3c0-.4-.1-.7-.1-.9a.8.8,0,0,0-.4-.4l-.7-.2a1.4,1.4,0,0,0-1,.4c-.3.2-.4.7-.4,1.4v3Z" transform="translate(-98.9 -71.9)"/><path class="cls-7" d="M157,225.7h1a2.4,2.4,0,0,1-.8,1.3,2.8,2.8,0,0,1-1.6.5,2.9,2.9,0,0,1-1.9-.7,3.5,3.5,0,0,1,0-4.2,2.6,2.6,0,0,1,1.9-.8,2.1,2.1,0,0,1,1.7.7,2.8,2.8,0,0,1,.7,2.1v.3h-4a2.2,2.2,0,0,0,.5,1.4,1.5,1.5,0,0,0,1.1.4l.9-.2A1.9,1.9,0,0,0,157,225.7Zm-3-1.5h3.1a2.3,2.3,0,0,0-.4-1,1.3,1.3,0,0,0-1.1-.5,1.4,1.4,0,0,0-1.1.4A1.4,1.4,0,0,0,154,224.2Z" transform="translate(-98.9 -71.9)"/><path class="cls-7" d="M162.7,225.5h.9a2.6,2.6,0,0,1-.7,1.5,3,3,0,0,1-1.6.5,2.4,2.4,0,0,1-1.7-.7,2.8,2.8,0,0,1-.7-2.1,4.1,4.1,0,0,1,.3-1.6,2.2,2.2,0,0,1,.9-1,2.8,2.8,0,0,1,1.3-.3,2.3,2.3,0,0,1,1.4.4,2.1,2.1,0,0,1,.7,1.3l-.9.2a1.9,1.9,0,0,0-.4-.9,1.1,1.1,0,0,0-.8-.2c-.5,0-.9.1-1.1.5a2.1,2.1,0,0,0-.5,1.5,2.8,2.8,0,0,0,.4,1.6,1.3,1.3,0,0,0,1.1.5,1.2,1.2,0,0,0,.9-.3A1.6,1.6,0,0,0,162.7,225.5Z" transform="translate(-98.9 -71.9)"/><path class="cls-7" d="M166.4,226.6l.2.9h-1.5l-.4-.4a3.1,3.1,0,0,1-.1-1.1v-3.2h-.7V222h.7v-1.3l.9-.6V222h.9v.7h-.9v3.7l.2.2h.7Z" transform="translate(-98.9 -71.9)"/><path class="cls-7" d="M167.3,221v-1h.9v1Zm0,6.5V222h.9v5.5Z" transform="translate(-98.9 -71.9)"/><path class="cls-7" d="M169.7,227.5V222h.8v.8a2,2,0,0,1,1.7-.9l.9.2a.9.9,0,0,1,.6.4,1.1,1.1,0,0,1,.3.7,2.2,2.2,0,0,1,.1.9v3.4h-.9v-3.3a2,2,0,0,0-.2-.9c0-.2-.2-.3-.3-.4l-.7-.2a1.3,1.3,0,0,0-1,.4c-.3.2-.4.7-.4,1.4v3Z" transform="translate(-98.9 -71.9)"/><path class="cls-7" d="M175.3,227.9h.9l.3.7,1,.2,1-.2a1.2,1.2,0,0,0,.4-.8,2.8,2.8,0,0,0,.1-1.1,2.1,2.1,0,0,1-1.5.7,2,2,0,0,1-1.7-.8,2.9,2.9,0,0,1-.7-2,3.2,3.2,0,0,1,.3-1.4,2.1,2.1,0,0,1,.8-1,2,2,0,0,1,1.3-.4,2.1,2.1,0,0,1,1.6.8V222h.8v4.7a3.9,3.9,0,0,1-.2,1.8,2.4,2.4,0,0,1-.8.9,3.2,3.2,0,0,1-1.4.3,2.5,2.5,0,0,1-1.6-.5A1.5,1.5,0,0,1,175.3,227.9Zm.8-3.3a2.2,2.2,0,0,0,.4,1.6,1.6,1.6,0,0,0,1.1.5,1.2,1.2,0,0,0,1-.5,2.5,2.5,0,0,0,0-3,1.1,1.1,0,0,0-1-.5,1.3,1.3,0,0,0-1.1.5A2,2,0,0,0,176.1,224.6Z" transform="translate(-98.9 -71.9)"/><path class="cls-7" d="M186.1,227.5v-6.7h-2.5V220h6v.8h-2.5v6.7Z" transform="translate(-98.9 -71.9)"/><path class="cls-7" d="M190.5,227.5V220h.9v2.6a2,2,0,0,1,1.6-.7l1.1.2a1.3,1.3,0,0,1,.6.7,3.7,3.7,0,0,1,.2,1.2v3.5H194V224a1.5,1.5,0,0,0-.3-1,1.2,1.2,0,0,0-.9-.3l-.7.2c-.3.1-.4.3-.5.6a2.5,2.5,0,0,0-.2,1v3Z" transform="translate(-98.9 -71.9)"/><path class="cls-7" d="M200,225.7h1a2.4,2.4,0,0,1-.8,1.3,2.8,2.8,0,0,1-1.6.5,2.9,2.9,0,0,1-1.9-.7,3.5,3.5,0,0,1,0-4.2,2.6,2.6,0,0,1,1.9-.8,2.1,2.1,0,0,1,1.7.7,2.8,2.8,0,0,1,.7,2.1v.3h-4a2.2,2.2,0,0,0,.5,1.4,1.5,1.5,0,0,0,1.1.4l.9-.2A1.9,1.9,0,0,0,200,225.7Zm-3-1.5h3.1a2.3,2.3,0,0,0-.4-1,1.3,1.3,0,0,0-1.1-.5,1.4,1.4,0,0,0-1.1.4A1.4,1.4,0,0,0,197,224.2Z" transform="translate(-98.9 -71.9)"/><path class="cls-7" d="M210.1,220h1v4.3a9,9,0,0,1-.2,1.8,2.6,2.6,0,0,1-1,1.1,3.8,3.8,0,0,1-3.4,0,1.9,1.9,0,0,1-1-1,5,5,0,0,1-.3-1.9V220h1v4.3a4.6,4.6,0,0,0,.2,1.4,1.1,1.1,0,0,0,.6.7,2,2,0,0,0,1.1.3,2.5,2.5,0,0,0,1.6-.5,3,3,0,0,0,.4-1.9Z" transform="translate(-98.9 -71.9)"/><path class="cls-7" d="M212.7,227.5V222h.8v.8a2,2,0,0,1,1.7-.9l.9.2a.9.9,0,0,1,.6.4,1.1,1.1,0,0,1,.3.7,2.2,2.2,0,0,1,.1.9v3.4h-.9v-3.3a2,2,0,0,0-.2-.9c0-.2-.1-.3-.3-.4l-.7-.2a1.3,1.3,0,0,0-1,.4c-.3.2-.4.7-.4,1.4v3Z" transform="translate(-98.9 -71.9)"/><path class="cls-7" d="M222,225.5h1a2.8,2.8,0,0,1-.8,1.5,2.5,2.5,0,0,1-1.5.5,2.5,2.5,0,0,1-1.8-.7,2.8,2.8,0,0,1-.7-2.1,4.1,4.1,0,0,1,.3-1.6,2.2,2.2,0,0,1,.9-1,2.8,2.8,0,0,1,1.3-.3,2,2,0,0,1,1.4.4,2.2,2.2,0,0,1,.8,1.3l-.9.2a1.9,1.9,0,0,0-.5-.9,1.1,1.1,0,0,0-.8-.2,1.3,1.3,0,0,0-1.1.5,2.1,2.1,0,0,0-.4,1.5,2.2,2.2,0,0,0,.4,1.6,1.2,1.2,0,0,0,1.1.5l.9-.3A1.5,1.5,0,0,0,222,225.5Z" transform="translate(-98.9 -71.9)"/><path class="cls-7" d="M223.4,224.7a2.9,2.9,0,0,1,.8-2.2,2.8,2.8,0,0,1,1.8-.6,2.4,2.4,0,0,1,1.8.7,2.8,2.8,0,0,1,.7,2.1,3.5,3.5,0,0,1-.3,1.6,2.8,2.8,0,0,1-.9,1,3.1,3.1,0,0,1-1.3.3,2.5,2.5,0,0,1-2.6-2.9Zm1,0a2.4,2.4,0,0,0,.4,1.6,1.3,1.3,0,0,0,1.2.5,1.3,1.3,0,0,0,1.1-.5,2.3,2.3,0,0,0,.5-1.6,2.1,2.1,0,0,0-.5-1.5,1.3,1.3,0,0,0-1.1-.5,1.3,1.3,0,0,0-1.2.5A2.1,2.1,0,0,0,224.4,224.7Z" transform="translate(-98.9 -71.9)"/><path class="cls-7" d="M229.6,227.5V222h.8v.8a2,2,0,0,1,1.7-.9l1,.2.6.4.3.7v4.3h-.9v-3.3a2.2,2.2,0,0,0-.1-.9.8.8,0,0,0-.4-.4l-.6-.2a1.5,1.5,0,0,0-1.1.4,2.1,2.1,0,0,0-.4,1.4v3Z" transform="translate(-98.9 -71.9)"/><path class="cls-7" d="M235.4,227.5V222h.9v.8a1.9,1.9,0,0,1,1.7-.9l.9.2a.9.9,0,0,1,.6.4l.3.7c0,.2.1.5.1.9v3.4h-1v-3.3a2.2,2.2,0,0,0-.1-.9l-.4-.4-.6-.2a1.3,1.3,0,0,0-1,.4,1.7,1.7,0,0,0-.5,1.4v3Z" transform="translate(-98.9 -71.9)"/><path class="cls-7" d="M245,225.7h.9a2,2,0,0,1-.8,1.3,2.5,2.5,0,0,1-1.5.5,2.7,2.7,0,0,1-1.9-.7,3.5,3.5,0,0,1,0-4.2,2.2,2.2,0,0,1,1.8-.8,2.4,2.4,0,0,1,1.8.7,3.3,3.3,0,0,1,.7,2.1v.3h-4.1a2.2,2.2,0,0,0,.5,1.4,1.6,1.6,0,0,0,1.2.4l.8-.2A1.5,1.5,0,0,0,245,225.7Zm-3-1.5h3a2.4,2.4,0,0,0-.3-1,1.3,1.3,0,0,0-1.2-.5,1.5,1.5,0,0,0-1.1.4A1.8,1.8,0,0,0,242,224.2Z" transform="translate(-98.9 -71.9)"/><path class="cls-7" d="M250.7,225.5h.9a2.8,2.8,0,0,1-.8,1.5,2.5,2.5,0,0,1-1.5.5,2.9,2.9,0,0,1-1.8-.7,2.8,2.8,0,0,1-.7-2.1,4.1,4.1,0,0,1,.3-1.6,2.2,2.2,0,0,1,.9-1,2.8,2.8,0,0,1,1.3-.3,2.4,2.4,0,0,1,1.5.4,2.7,2.7,0,0,1,.7,1.3l-.9.2a1.9,1.9,0,0,0-.5-.9,1.1,1.1,0,0,0-.8-.2,1.3,1.3,0,0,0-1.1.5,2.1,2.1,0,0,0-.4,1.5,2.2,2.2,0,0,0,.4,1.6,1.2,1.2,0,0,0,1.1.5,1.2,1.2,0,0,0,.9-.3A2.3,2.3,0,0,0,250.7,225.5Z" transform="translate(-98.9 -71.9)"/><path class="cls-7" d="M254.4,226.6v.9H253l-.4-.4c0-.2-.1-.6-.1-1.1v-3.2h-.7V222h.7v-1.3l.9-.6V222h1v.7h-1v3.2a1.2,1.2,0,0,0,.1.5v.2h.8Z" transform="translate(-98.9 -71.9)"/><path class="cls-7" d="M259,225.7h1a2.5,2.5,0,0,1-.9,1.3,2.5,2.5,0,0,1-1.5.5,2.7,2.7,0,0,1-1.9-.7,3.5,3.5,0,0,1,0-4.2,2.3,2.3,0,0,1,1.8-.8,2.4,2.4,0,0,1,1.8.7,2.8,2.8,0,0,1,.7,2.1v.3h-4.1a2.9,2.9,0,0,0,.5,1.4,1.6,1.6,0,0,0,1.2.4l.8-.2A1.5,1.5,0,0,0,259,225.7Zm-3-1.5h3a1.5,1.5,0,0,0-.3-1,1.3,1.3,0,0,0-1.2-.5,1.5,1.5,0,0,0-1.1.4A1.8,1.8,0,0,0,256,224.2Z" transform="translate(-98.9 -71.9)"/><path class="cls-7" d="M264.6,227.5v-.7a1.6,1.6,0,0,1-1.5.8,1.9,1.9,0,0,1-1.2-.4,2.1,2.1,0,0,1-.8-1,3.3,3.3,0,0,1-.3-1.5,3.2,3.2,0,0,1,.3-1.4,1.4,1.4,0,0,1,.8-1,1.6,1.6,0,0,1,1.2-.4l.9.2.6.5V220h.9v7.5Zm-2.9-2.8a2.3,2.3,0,0,0,.5,1.6,1.1,1.1,0,0,0,1,.5,1,1,0,0,0,1-.5,2.1,2.1,0,0,0,.5-1.5,2.3,2.3,0,0,0-.5-1.6,1.1,1.1,0,0,0-1-.5,1.3,1.3,0,0,0-1.1.5A2.7,2.7,0,0,0,261.7,224.7Z" transform="translate(-98.9 -71.9)"/><path d="M153.9,180.1V162.9h-6.2v-3.5h16.5v3.5h-6.1v17.2Z" transform="translate(-98.9 -71.9)"/><path d="M170.8,159.4V167a6.1,6.1,0,0,1,4.6-2.3,4.9,4.9,0,0,1,2.5.6,3.3,3.3,0,0,1,1.7,1.3,5.3,5.3,0,0,1,.8,1.7,21.1,21.1,0,0,1,.2,3v8.8h-4v-7.9a15.3,15.3,0,0,0-.2-3,2.7,2.7,0,0,0-.8-1,2.4,2.4,0,0,0-1.5-.4,4.1,4.1,0,0,0-1.8.5,2.6,2.6,0,0,0-1.1,1.4,10,10,0,0,0-.4,2.9v7.5h-3.9V159.4Z" transform="translate(-98.9 -71.9)"/><path d="M193.3,175.3l4,.7a6,6,0,0,1-2.4,3.3,7,7,0,0,1-4.2,1.2,6.8,6.8,0,0,1-5.8-2.6,8.6,8.6,0,0,1-1.5-5.2,8.2,8.2,0,0,1,2-5.8,6.4,6.4,0,0,1,4.9-2.2,6.6,6.6,0,0,1,5.3,2.3c1.3,1.4,1.9,3.7,1.9,6.8h-10a4.1,4.1,0,0,0,1,2.7,2.9,2.9,0,0,0,2.3,1,2.5,2.5,0,0,0,1.5-.5A2.9,2.9,0,0,0,193.3,175.3Zm.2-4a3.6,3.6,0,0,0-.9-2.6,2.5,2.5,0,0,0-2-.9,2.9,2.9,0,0,0-2.2.9,4.2,4.2,0,0,0-.8,2.6Z" transform="translate(-98.9 -71.9)"/><path d="M208.7,180.1V159.4h4.2v20.7Z" transform="translate(-98.9 -71.9)"/><path d="M216.9,171.4a9.8,9.8,0,0,1,1.1-4.3,7.7,7.7,0,0,1,3.1-3.1,8.4,8.4,0,0,1,4.5-1.1,8.5,8.5,0,0,1,8.7,8.7,8.6,8.6,0,0,1-8.7,8.9,9.9,9.9,0,0,1-4.4-1.1,7.2,7.2,0,0,1-3.2-3A10.9,10.9,0,0,1,216.9,171.4Zm4.6.3a5.6,5.6,0,0,0,1.2,3.8,3.9,3.9,0,0,0,5.8,0,5.7,5.7,0,0,0,1.2-3.9,5.6,5.6,0,0,0-1.2-3.8,3.9,3.9,0,0,0-5.8,0A5.7,5.7,0,0,0,221.5,171.7Z" transform="translate(-98.9 -71.9)"/><path d="M240.3,180.1V162.9h-6.2v-3.5h16.5v3.5h-6.2v17.2Z" transform="translate(-98.9 -71.9)"/><path d="M155.9,205.1h-4.5l-1.9-4.7h-8.3l-1.7,4.7h-4.4l8.1-20.7h4.4Zm-7.7-8.2-2.9-7.7-2.8,7.7Z" transform="translate(-98.9 -71.9)"/><path d="M171.2,194.5l-3.9.7a2.6,2.6,0,0,0-.9-1.7,2.8,2.8,0,0,0-1.8-.6,3,3,0,0,0-2.4,1,5.1,5.1,0,0,0-.9,3.4,6,6,0,0,0,.9,3.8,2.8,2.8,0,0,0,2.4,1.1,2.9,2.9,0,0,0,1.9-.6,4.1,4.1,0,0,0,1-2.2l3.9.6a7.2,7.2,0,0,1-2.3,4.1,7.4,7.4,0,0,1-4.6,1.4,6.9,6.9,0,0,1-5.3-2.1,9.4,9.4,0,0,1,0-11.6,6.9,6.9,0,0,1,5.3-2.1,7.2,7.2,0,0,1,4.4,1.2A6.6,6.6,0,0,1,171.2,194.5Z" transform="translate(-98.9 -71.9)"/><path d="M177.2,194.7l-3.6-.7a5.7,5.7,0,0,1,2.1-3.2,7.7,7.7,0,0,1,4.4-1.1,9.9,9.9,0,0,1,4,.7,3.6,3.6,0,0,1,1.8,1.6,7.3,7.3,0,0,1,.5,3.5v4.7a18.5,18.5,0,0,0,.2,2.9,9.6,9.6,0,0,0,.7,2h-3.9a4,4,0,0,1-.4-1.2l-.2-.4a10.1,10.1,0,0,1-2.1,1.5,7,7,0,0,1-2.5.5,5.4,5.4,0,0,1-3.7-1.3,4.1,4.1,0,0,1-1.3-3.2,4.6,4.6,0,0,1,.6-2.3,5,5,0,0,1,1.7-1.5,19,19,0,0,1,3.2-.9,26.9,26.9,0,0,0,3.8-1v-.4a2.2,2.2,0,0,0-.5-1.6,3.7,3.7,0,0,0-2.2-.5,2.5,2.5,0,0,0-1.6.4A3.6,3.6,0,0,0,177.2,194.7Zm5.3,3.2-2.4.6a8,8,0,0,0-2.2.7,1.6,1.6,0,0,0-.7,1.4,2.2,2.2,0,0,0,.6,1.5,2.1,2.1,0,0,0,1.6.6,3.7,3.7,0,0,0,2-.7,2.8,2.8,0,0,0,1-1.4,8.7,8.7,0,0,0,.1-1.9Z" transform="translate(-98.9 -71.9)"/><path d="M204.2,205.1h-3.7v-2.2a6.4,6.4,0,0,1-2.2,1.9,4.7,4.7,0,0,1-2.5.7,5.8,5.8,0,0,1-4.5-2.1,8.9,8.9,0,0,1-1.8-5.9,8.6,8.6,0,0,1,1.8-5.8,5.9,5.9,0,0,1,4.5-2,5.6,5.6,0,0,1,4.4,2.1v-7.4h4Zm-10.7-7.8a7.7,7.7,0,0,0,.7,3.5,2.9,2.9,0,0,0,2.7,1.5,3,3,0,0,0,2.3-1.1,5.2,5.2,0,0,0,1-3.5,6.2,6.2,0,0,0-.9-3.8,3.4,3.4,0,0,0-2.4-1.1,3,3,0,0,0-2.4,1.1A5.5,5.5,0,0,0,193.5,197.3Z" transform="translate(-98.9 -71.9)"/><path d="M216.8,200.3l4,.7a6.7,6.7,0,0,1-6.6,4.5,6.8,6.8,0,0,1-5.8-2.6,8.6,8.6,0,0,1-1.5-5.2,8.2,8.2,0,0,1,2-5.8,6.4,6.4,0,0,1,4.9-2.2,6.6,6.6,0,0,1,5.3,2.3c1.3,1.4,1.9,3.7,1.9,6.8H211a3.6,3.6,0,0,0,1,2.7,2.8,2.8,0,0,0,2.3,1,2.5,2.5,0,0,0,1.5-.5A2.9,2.9,0,0,0,216.8,200.3Zm.2-4a3.6,3.6,0,0,0-.9-2.6,2.5,2.5,0,0,0-2-.9,2.9,2.9,0,0,0-2.2.9,3.7,3.7,0,0,0-.8,2.6Z" transform="translate(-98.9 -71.9)"/><path d="M223.9,190.1h3.7v2a5.9,5.9,0,0,1,4.7-2.4,5.1,5.1,0,0,1,2.5.6,4.2,4.2,0,0,1,1.7,1.8,7.3,7.3,0,0,1,2.2-1.8,4.8,4.8,0,0,1,2.4-.6,6.1,6.1,0,0,1,2.8.7,4.2,4.2,0,0,1,1.7,2,8,8,0,0,1,.4,3.1v9.6h-3.9v-8.6a5.9,5.9,0,0,0-.5-2.9,1.9,1.9,0,0,0-1.7-.8,3,3,0,0,0-1.5.5,2.5,2.5,0,0,0-1.1,1.5,11.9,11.9,0,0,0-.3,3.1v7.2h-4v-8.2a13.5,13.5,0,0,0-.2-2.8,1.5,1.5,0,0,0-.7-1,2.1,2.1,0,0,0-1.2-.3,3,3,0,0,0-1.6.5,2.6,2.6,0,0,0-1.1,1.4,11.4,11.4,0,0,0-.3,3.1v7.3h-4Z" transform="translate(-98.9 -71.9)"/><path d="M248.1,190.1h4.2l3.6,10.7,3.6-10.7h4.1l-5.3,14.5-1,2.6a9.2,9.2,0,0,1-1,2l-1.1,1.1a5.2,5.2,0,0,1-1.5.7,10.8,10.8,0,0,1-1.9.3,26.4,26.4,0,0,1-4-.1l-109.6-1.6c.6.2,114.2-1.8,114.6-2.4a4.2,4.2,0,0,0,1-2Z" transform="translate(-98.9 -71.9)"/><path class="cls-8" d="M153.9,180.1V162.9h-6.2v-3.5h16.5v3.5h-6.1v17.2Z" transform="translate(-98.9 -71.9)"/><path class="cls-8" d="M170.8,159.4V167a6.1,6.1,0,0,1,4.6-2.3,4.9,4.9,0,0,1,2.5.6,3.3,3.3,0,0,1,1.7,1.3,5.3,5.3,0,0,1,.8,1.7,21.1,21.1,0,0,1,.2,3v8.8h-4v-7.9a15.3,15.3,0,0,0-.2-3,2.7,2.7,0,0,0-.8-1,2.4,2.4,0,0,0-1.5-.4,4.1,4.1,0,0,0-1.8.5,2.6,2.6,0,0,0-1.1,1.4,10,10,0,0,0-.4,2.9v7.5h-3.9V159.4Z" transform="translate(-98.9 -71.9)"/><path class="cls-8" d="M193.3,175.3l4,.7a6,6,0,0,1-2.4,3.3,7,7,0,0,1-4.2,1.2,6.8,6.8,0,0,1-5.8-2.6,8.6,8.6,0,0,1-1.5-5.2,8.2,8.2,0,0,1,2-5.8,6.4,6.4,0,0,1,4.9-2.2,6.6,6.6,0,0,1,5.3,2.3c1.3,1.4,1.9,3.7,1.9,6.8h-10a4.1,4.1,0,0,0,1,2.7,2.9,2.9,0,0,0,2.3,1,2.5,2.5,0,0,0,1.5-.5A2.9,2.9,0,0,0,193.3,175.3Zm.2-4a3.6,3.6,0,0,0-.9-2.6,2.5,2.5,0,0,0-2-.9,2.9,2.9,0,0,0-2.2.9,4.2,4.2,0,0,0-.8,2.6Z" transform="translate(-98.9 -71.9)"/><path class="cls-8" d="M208.7,180.1V159.4h4.2v20.7Z" transform="translate(-98.9 -71.9)"/><path class="cls-8" d="M216.9,171.4a9.8,9.8,0,0,1,1.1-4.3,7.7,7.7,0,0,1,3.1-3.1,8.4,8.4,0,0,1,4.5-1.1,8.5,8.5,0,0,1,8.7,8.7,8.6,8.6,0,0,1-8.7,8.9,9.9,9.9,0,0,1-4.4-1.1,7.2,7.2,0,0,1-3.2-3A10.9,10.9,0,0,1,216.9,171.4Zm4.6.3a5.6,5.6,0,0,0,1.2,3.8,3.9,3.9,0,0,0,5.8,0,5.7,5.7,0,0,0,1.2-3.9,5.6,5.6,0,0,0-1.2-3.8,3.9,3.9,0,0,0-5.8,0A5.7,5.7,0,0,0,221.5,171.7Z" transform="translate(-98.9 -71.9)"/><path class="cls-8" d="M240.3,180.1V162.9h-6.2v-3.5h16.5v3.5h-6.2v17.2Z" transform="translate(-98.9 -71.9)"/><path class="cls-8" d="M155.9,205.1h-4.5l-1.9-4.7h-8.3l-1.7,4.7h-4.4l8.1-20.7h4.4Zm-7.7-8.2-2.9-7.7-2.8,7.7Z" transform="translate(-98.9 -71.9)"/><path class="cls-8" d="M171.2,194.5l-3.9.7a2.6,2.6,0,0,0-.9-1.7,2.8,2.8,0,0,0-1.8-.6,3,3,0,0,0-2.4,1,5.1,5.1,0,0,0-.9,3.4,6,6,0,0,0,.9,3.8,2.8,2.8,0,0,0,2.4,1.1,2.9,2.9,0,0,0,1.9-.6,4.1,4.1,0,0,0,1-2.2l3.9.6a7.2,7.2,0,0,1-2.3,4.1,7.4,7.4,0,0,1-4.6,1.4,6.9,6.9,0,0,1-5.3-2.1,9.4,9.4,0,0,1,0-11.6,6.9,6.9,0,0,1,5.3-2.1,7.2,7.2,0,0,1,4.4,1.2A6.6,6.6,0,0,1,171.2,194.5Z" transform="translate(-98.9 -71.9)"/><path class="cls-8" d="M177.2,194.7l-3.6-.7a5.7,5.7,0,0,1,2.1-3.2,7.7,7.7,0,0,1,4.4-1.1,9.9,9.9,0,0,1,4,.7,3.6,3.6,0,0,1,1.8,1.6,7.3,7.3,0,0,1,.5,3.5v4.7a18.5,18.5,0,0,0,.2,2.9,9.6,9.6,0,0,0,.7,2h-3.9a4,4,0,0,1-.4-1.2l-.2-.4a10.1,10.1,0,0,1-2.1,1.5,7,7,0,0,1-2.5.5,5.4,5.4,0,0,1-3.7-1.3,4.1,4.1,0,0,1-1.3-3.2,4.6,4.6,0,0,1,.6-2.3,5,5,0,0,1,1.7-1.5,19,19,0,0,1,3.2-.9,26.9,26.9,0,0,0,3.8-1v-.4a2.2,2.2,0,0,0-.5-1.6,3.7,3.7,0,0,0-2.2-.5,2.5,2.5,0,0,0-1.6.4A3.6,3.6,0,0,0,177.2,194.7Zm5.3,3.2-2.4.6a8,8,0,0,0-2.2.7,1.6,1.6,0,0,0-.7,1.4,2.2,2.2,0,0,0,.6,1.5,2.1,2.1,0,0,0,1.6.6,3.7,3.7,0,0,0,2-.7,2.8,2.8,0,0,0,1-1.4,8.7,8.7,0,0,0,.1-1.9Z" transform="translate(-98.9 -71.9)"/><path class="cls-8" d="M204.2,205.1h-3.7v-2.2a6.4,6.4,0,0,1-2.2,1.9,4.7,4.7,0,0,1-2.5.7,5.8,5.8,0,0,1-4.5-2.1,8.9,8.9,0,0,1-1.8-5.9,8.6,8.6,0,0,1,1.8-5.8,5.9,5.9,0,0,1,4.5-2,5.6,5.6,0,0,1,4.4,2.1v-7.4h4Zm-10.7-7.8a7.7,7.7,0,0,0,.7,3.5,2.9,2.9,0,0,0,2.7,1.5,3,3,0,0,0,2.3-1.1,5.2,5.2,0,0,0,1-3.5,6.2,6.2,0,0,0-.9-3.8,3.4,3.4,0,0,0-2.4-1.1,3,3,0,0,0-2.4,1.1A5.5,5.5,0,0,0,193.5,197.3Z" transform="translate(-98.9 -71.9)"/><path class="cls-8" d="M216.8,200.3l4,.7a6.7,6.7,0,0,1-6.6,4.5,6.8,6.8,0,0,1-5.8-2.6,8.6,8.6,0,0,1-1.5-5.2,8.2,8.2,0,0,1,2-5.8,6.4,6.4,0,0,1,4.9-2.2,6.6,6.6,0,0,1,5.3,2.3c1.3,1.4,1.9,3.7,1.9,6.8H211a3.6,3.6,0,0,0,1,2.7,2.8,2.8,0,0,0,2.3,1,2.5,2.5,0,0,0,1.5-.5A2.9,2.9,0,0,0,216.8,200.3Zm.2-4a3.6,3.6,0,0,0-.9-2.6,2.5,2.5,0,0,0-2-.9,2.9,2.9,0,0,0-2.2.9,3.7,3.7,0,0,0-.8,2.6Z" transform="translate(-98.9 -71.9)"/><path class="cls-8" d="M223.9,190.1h3.7v2a5.9,5.9,0,0,1,4.7-2.4,5.1,5.1,0,0,1,2.5.6,4.2,4.2,0,0,1,1.7,1.8,7.3,7.3,0,0,1,2.2-1.8,4.8,4.8,0,0,1,2.4-.6,6.1,6.1,0,0,1,2.8.7,4.2,4.2,0,0,1,1.7,2,8,8,0,0,1,.4,3.1v9.6h-3.9v-8.6a5.9,5.9,0,0,0-.5-2.9,1.9,1.9,0,0,0-1.7-.8,3,3,0,0,0-1.5.5,2.5,2.5,0,0,0-1.1,1.5,11.9,11.9,0,0,0-.3,3.1v7.2h-4v-8.2a13.5,13.5,0,0,0-.2-2.8,1.5,1.5,0,0,0-.7-1,2.1,2.1,0,0,0-1.2-.3,3,3,0,0,0-1.6.5,2.6,2.6,0,0,0-1.1,1.4,11.4,11.4,0,0,0-.3,3.1v7.3h-4Z" transform="translate(-98.9 -71.9)"/><path class="cls-8" d="M248.1,190.1h4.2l3.6,10.7,3.6-10.7h4.1l-5.3,14.5-1,2.6a9.2,9.2,0,0,1-1,2l-1.1,1.1a5.2,5.2,0,0,1-1.5.7,10.8,10.8,0,0,1-1.9.3,26.4,26.4,0,0,1-4-.1l-109.6-1.6c.6.2,114.2-1.8,114.6-2.4a4.2,4.2,0,0,0,1-2Z" transform="translate(-98.9 -71.9)"/><path class="cls-9" d="M270.3,129.6a82.4,82.4,0,0,0,2.3-19.8,63.1,63.1,0,0,0-2.5-18.3,33.5,33.5,0,0,0-3.6-7.9v-.9a52.8,52.8,0,0,1,10.1,13c7.7,13.9,12.2,33.1,16.7,38.6-.7,1.6-1,6.5-2.7,6.1-5.3-1.1-15.7-4-22.2-7.8C268.9,131.3,270,131,270.3,129.6Z" transform="translate(-98.9 -71.9)"/><path class="cls-10" d="M276.8,95.8c7.5,13.7,11.9,32.2,16.3,38.1a20.6,20.6,0,0,0-.7,2.5,3.2,3.2,0,0,1-2.9-1.1c-.9-.8-1.9-1.1-2.4-2.2C282.4,121.3,279.6,108.3,276.8,95.8Z" transform="translate(-98.9 -71.9)"/><path class="cls-11" d="M201.2,105l.6-.2-.6.2,1-.9c3.7-9.7,15-19.8,27.3-25.2,3.8-1.6,18.3-7.6,22.4-7s10.6,6.4,14.1,9.7,5.9,9.7,7.3,14.4,3,17.3,1.2,22.6-4.7,4.7-8,9.4l-.7,1.2c-4.8-5-9.5-10.4-15.1-13.8-8.2-4.8-15.6-11.7-25.1-13s-17,2.3-24.9,5.8A2,2,0,0,1,201.2,105Z" transform="translate(-98.9 -71.9)"/><path class="cls-12" d="M273.3,121.2c-2.9-3.1-6.1-6-8.3-9.6s1.3-.5,1.2-5.8c-.2-14-3.2-24.5-11.5-32.9,4,1.9,8.5,6,11.3,8.7s5.9,9.7,7.3,14.4,3,17.3,1.2,22.6A12.6,12.6,0,0,1,273.3,121.2Z" transform="translate(-98.9 -71.9)"/><path class="cls-13" d="M201.2,105l.6-.2-.6.2,1-.9c3.7-9.7,15-19.8,27.3-25.2,3.2-1.4,13.9-5.8,19.7-6.8A37.4,37.4,0,0,0,237.9,81c-5,5.4-9,11.6-14.3,16.7a52.3,52.3,0,0,1-5.6,4.8c-6,.8-11.8,3.2-17.3,5.7A2,2,0,0,1,201.2,105Z" transform="translate(-98.9 -71.9)"/><path class="cls-14" d="M199.4,106.7c1.1-3.1,3.5-5.4,6.1-7.4a46.9,46.9,0,0,1,63.5,6.1,20.2,20.2,0,0,1,4.1,6.7c3.9,12.8,1.2,8.6-.8,12.6-.9,7.2-3.3,8.3-5.1,8.2a38.5,38.5,0,0,0-11.9-12.2,34.8,34.8,0,0,0-9.8-5.1c-23.7-8.3-37.8-2.2-43.5.8C201.2,114.4,198.6,108.7,199.4,106.7Z" transform="translate(-98.9 -71.9)"/><path class="cls-15" d="M267.2,132.9a38.5,38.5,0,0,0-11.9-12.2,34.8,34.8,0,0,0-9.8-5.1,73.6,73.6,0,0,0-33.8-3.1c-3-3.7,5-11.1,13.9-12.7,2.8-6.1,4.7-8.9,10.5-10.1l2.3.2A47.5,47.5,0,0,1,269,105.4c1.1,1.2,1.9,4.2-3.3,7.9,5.5,7.6,6.1,14.1,4.8,17.6C269.5,132.6,268.3,133,267.2,132.9Z" transform="translate(-98.9 -71.9)"/><path class="cls-16" d="M198.8,106a19.6,19.6,0,0,1,4.2-5.7,46.1,46.1,0,0,1,26.9-10.8H234l4.4.4h-4.2l-4.2.3a50.3,50.3,0,0,0-10.2,2.3,44.5,44.5,0,0,0-7.1,3s-7,1.8-11.2,15.4c-.5,1.6-.1,3.4,6.5,1.8,9.6-2.3,23-2.7,33.8.6a52,52,0,0,1,9.5,3.7,53.3,53.3,0,0,1,9.8,7.1,40.7,40.7,0,0,1,5.1,5.9,9.4,9.4,0,0,1,1.2,1.8c.3.5.6.3,1,.1s2.1-2.2,2.5-3.5a26.8,26.8,0,0,0,.7-2.7,15.7,15.7,0,0,0,.4-2.3l2.1-1.7a.5.5,0,0,1,.9.4v.3l-.5.5a5.7,5.7,0,0,0-1.5,1.6,1.9,1.9,0,0,0-.2.7c-.3,2.4-1.2,8.3-5.4,8.3a1,1,0,0,1-.8-.3c-.4-.5-.7-1.2-1.1-1.7a29.5,29.5,0,0,0-3.1-3.9,55.3,55.3,0,0,0-7.9-6.6,45.1,45.1,0,0,0-9.3-4.7,73.2,73.2,0,0,0-20.2-4,46,46,0,0,0-21,4,33.2,33.2,0,0,0-5.7,3.7.5.5,0,0,1-.9-.1,4.2,4.2,0,0,1-.4-1.5A21.9,21.9,0,0,1,198.8,106Z" transform="translate(-98.9 -71.9)"/><path class="cls-17" d="M304.4,135.1c.7,1,3.1,1.3,3.3,2.6s-1,2.2-1,2.2,2.2,3,1.9,5.1-2.2,3.5-3.6,1.9c3.1,2.7-1.2,7.6-4.2,4.7.9,3.7-4.8,5.3-5.8,1.7-3,3.5-8.9.2-7.5-4.1-4.3,2.4-4.7-4.9-2.4-7.1-2.2.3-2.5-3.4-.2-3.3a3.7,3.7,0,0,1-.2-4.6c1.3-2,2.9-.6,4.3-1.4s5.4-7.4,6.7-2.2c.9-.9,2.2-2.4,3.6-1.8s1.8,1.5.7,2.3C302.6,129.5,306.3,132.5,304.4,135.1Z" transform="translate(-98.9 -71.9)"/><path class="cls-18" d="M284.2,134.7l.3-.6h0a3.5,3.5,0,0,1,1.2-1H288a2.2,2.2,0,0,0,1.4-.5,1.7,1.7,0,0,1-.8.9,6.7,6.7,0,0,1-2,.1,1.7,1.7,0,0,0-1.2.6,1.6,1.6,0,0,0-.5.8,1.9,1.9,0,0,0-.2.8,3.5,3.5,0,0,0,.3,2h.1l.2.2.4.5h0c.1.1.2.3.1.4h0l-.3.3h-1.1l-.4.4v.2a1,1,0,0,0,.2.9H286l.2.2a.3.3,0,0,1,0,.4h0l-.7.7-.3.4v.2l-.2.4c0,.1-.1.2-.1.4a5.8,5.8,0,0,0-.2,3.7c.2.5.5,1,.8,1.1h1l.5-.2.5-.2.5-.3h.5a.7.7,0,0,1,.1.5l-.3,1.1v.7a2.1,2.1,0,0,0,0,.8,3.5,3.5,0,0,0,.8,1.6,3.9,3.9,0,0,0,3,1.3l1.5-.3.6-.4a.3.3,0,0,0,.1-.2l.3-.2.2-.3h.3c.1-.1.2-.2.3-.1h.1l.2.2h.1a2.4,2.4,0,0,0,.2.8v.2h.1l.4.5.5.3.5.2a2.6,2.6,0,0,0,1.5-.2h.5l.2-.2h.1l.2-.2a3.7,3.7,0,0,0,1-2.4h.1a3.1,3.1,0,0,1-2.1,3.6,3.1,3.1,0,0,1-2.5-.1,3,3,0,0,1-1.5-1.6,4.9,4.9,0,0,1-2.3,1.3,5,5,0,0,1-2.7-.4,4.7,4.7,0,0,1-2.3-2.1,4,4,0,0,1-.3-2.9,2.9,2.9,0,0,1-2.2.2,2.3,2.3,0,0,1-1.1-1.1,6.7,6.7,0,0,1-.5-2.6,11.5,11.5,0,0,1,.6-2.8l.6-1h-.5a1.8,1.8,0,0,1-1-1.1,2.2,2.2,0,0,1,.1-1.4,1.4,1.4,0,0,1,1.3-.9A4.1,4.1,0,0,1,284.2,134.7Z" transform="translate(-98.9 -71.9)"/><path class="cls-19" d="M271,93.6a6.7,6.7,0,0,1-.5-1.9c-.3-.7-.5-1.4-.8-2a27.5,27.5,0,0,0-2-3.8,31.8,31.8,0,0,0-5.4-6.7,29.6,29.6,0,0,0-3.8-3,45,45,0,0,0,3,4.2l3.2,4.4Z" transform="translate(-98.9 -71.9)"/><path class="cls-20" d="M305.2,145.6h0a2.5,2.5,0,0,0-1.5-2.4l-1-.4a3.2,3.2,0,0,0-.3-.9,2.2,2.2,0,0,0-.3-1.5c-.7-1.5-2.1-1.8-3.6-1.8a2.4,2.4,0,0,0-.4-1.7l-.2-.5a2.9,2.9,0,0,0-2.1-.9h-1.4a2.5,2.5,0,0,0-1.2-2.2,2.7,2.7,0,0,0-3.1.1h-.2v-.7c1.7-1.9,4.5-4.9,5.4-1,.8-.9,2.1-2.4,3.5-1.7s1.8,1.3.7,2.2c2.5-1.6,6.1,1.4,4.3,3.8.6,1,2.9,1.3,3.1,2.6s-.4,2-.8,2.1l.6,1.1a3,3,0,0,0,.4.8,4.3,4.3,0,0,1-.2,1.1,3.5,3.5,0,0,1-1.6,2.6C305.3,146,305.2,145.8,305.2,145.6Z" transform="translate(-98.9 -71.9)"/><path class="cls-21" d="M265.7,114a23.7,23.7,0,0,1,3.6,5.3c.4.7.6,1.3.8,1.7s.4.7.5.6.1-.3.1-.7a11.5,11.5,0,0,0-.5-2,14.8,14.8,0,0,0-3.4-5.8,21,21,0,0,0-2.8-2.5,17.6,17.6,0,0,0-2.7-1.4,5.5,5.5,0,0,0-2.7-.7C258.4,109,262.4,110.4,265.7,114Z" transform="translate(-98.9 -71.9)"/></g></g></svg>