<svg xmlns="http://www.w3.org/2000/svg" xmlns:xlink="http://www.w3.org/1999/xlink" baseProfile="basic" viewBox="0 0 385 425" xmlns:v="https://vecta.io/nano"><style><![CDATA[.S{fill:#21181e}.T{fill:#ff8c64}.U{fill:#ff4231}.V{fill:#006ff9}.W{fill:#564c54}.X{fill:#ff6a48}.Y{fill:#0045bd}.Z{fill:#b81a2a}.a{fill:#fff}.b{fill:#c9daf4}.c{fill:#f79c00}.d{fill:#d16e00}.e{fill:#60181e}.f{fill:#893f49}]]></style><path d="M207.53 178.67c-16.42-2.33-31.98-8.75-45.41-18.48-20.06-14.54-62.03-39.27-102.07-26.95-55.23 17-55.48 66.16-41.1 92.87 14.39 26.7 116.4 104.9 248.66 92.46 118.35-11.13 141.41-138.59 78.29-161.65-54.74-20.01-73.42 30.96-138.37 21.75z" fill="#d9e5f9"/><g class="b"><path d="M356.53 176.47c-.01-35.66-28.6-74.74-64.18-77.1l-1.89-.11c-51.02-2.47-54.9 62.15-101.06 69.44s-81.4-29.5-136.63-5.5c-49.6 21.56-63.04 142.7 82.7 147.56 116.6 3.89 221.08-27.88 221.06-134.29z"/><circle transform="matrix(.9251 -.3798 .3798 .9251 -37.0254 61.7587)" cx="138" cy="124.71" r="7.44"/><circle transform="matrix(.7071 -.7071 .7071 .7071 -118.361 329.9441)" cx="339.1" cy="307.85" r="7.44"/></g><g fill="#d9e5f9"><path d="M367.25 144.48a4.49 4.49 0 1 1-8.98 0 4.49 4.49 0 1 1 8.98 0z"/><circle transform="matrix(.2162 -.9763 .9763 .2162 -13.0983 207.3265)" cx="122.58" cy="111.82" r="4.49"/><circle transform="matrix(.2305 -.9731 .9731 .2305 -12.7444 576.7258)" cx="358.27" cy="296.42" r="4.49"/></g><path d="M285.68 305.18V185.94h-70.04v119.24a6.12 6.12 0 0 0 6.12 6.12h57.8a6.12 6.12 0 0 0 6.12-6.12z" class="a"/><path d="M245.38 228.12h10.68v23.73h-10.68z" class="c"/><path d="M254.95 242.79l1.1.05v9.01h-10.68v-9.04c2.85-.19 6.04-.22 9.58-.02z" class="d"/><path d="M227.93 240.83h10.68v11.02h-10.68z" class="c"/><path d="M227.93 246.95c2.14-1.08 5.61-2.44 10.68-3.34v8.24h-10.68v-4.9z" class="d"/><path d="M262.82 214.45h10.68v37.39h-10.68z" class="c"/><path d="M273.5 236.77v15.08h-10.68v-9.42c5.23-.9 8.51-3.08 10.68-5.66z" class="d"/><path d="M273.1 196.84l-9.72 2.08 2.61 2.56-14.87 15.16-5.22-5.12-18.46 18.82a1.84 1.84 0 0 0 .02 2.58h0a1.84 1.84 0 0 0 2.58-.02l15.91-16.22 5.22 5.12 17.43-17.76 2.61 2.56 1.89-9.76z" class="V"/><g class="b"><use xlink:href="#B"/><use xlink:href="#C"/><use xlink:href="#C" y="5.93"/><use xlink:href="#B" y="17.79"/><path d="M248.17 283.21h-24.72c-.75 0-1.39.57-1.42 1.32-.04.79.6 1.45 1.38 1.45h24.76c.76 0 1.38-.62 1.38-1.38h0c.01-.77-.61-1.39-1.38-1.39zm29.39 20.07h-53.72a1.83 1.83 0 0 1-1.83-1.83v-7.74a1.83 1.83 0 0 1 1.83-1.83h53.72a1.83 1.83 0 0 1 1.83 1.83v7.74c0 1.02-.82 1.83-1.83 1.83z"/></g><path d="M280.44 273.77a13.33 13.33 0 0 1-13.33 13.33c-7.37 0-13.34-5.97-13.34-13.33 0-1.83.37-3.57 1.03-5.15l12.3 5.15-.63-13.32c.21-.01.42-.02.63-.02 7.37 0 13.34 5.98 13.34 13.34z" class="V"/><path d="M265.27 258.35c-3.99.18-7.51 2.12-9.83 5.05-.75.94-1.37 1.99-1.84 3.12l12.3 5.15-.63-13.32z" class="U"/><g class="b"><path d="M226.31 204.35v1.07h-1.36v-1.02c-.97-.06-1.9-.32-2.48-.68l.74-1.66a4.62 4.62 0 0 0 2.23.62c.65 0 .88-.13.88-.36 0-.85-3.74-.17-3.73-2.69 0-1.09.8-2.01 2.38-2.23v-1.05h1.36v1.03c.71.07 1.41.25 1.96.57l-.69 1.65c-.67-.34-1.29-.51-1.88-.51-.67 0-.88.19-.88.42 0 .81 3.74.14 3.73 2.64 0 1.04-.76 1.94-2.26 2.2z"/><use xlink:href="#D"/><use xlink:href="#D" y="5.54"/></g><path d="M285.68 183.92v7.03h-70.04v-7.03c0-1.91 1.55-3.45 3.46-3.45h63.13a3.45 3.45 0 0 1 3.45 3.45z" fill="#55a6ff"/><path d="M270.56 185.94a1.89 1.89 0 1 1-3.78 0 1.89 1.89 0 0 1 1.89-1.89c1.04 0 1.89.85 1.89 1.89z" class="Y"/><path d="M276.69 185.94a1.89 1.89 0 0 1-3.78 0 1.89 1.89 0 0 1 1.89-1.89c1.04 0 1.89.85 1.89 1.89z" class="U"/><path d="M282.57 185.94a1.89 1.89 0 0 1-1.89 1.89c-1.04 0-1.89-.85-1.89-1.89a1.89 1.89 0 0 1 1.89-1.89c1.04 0 1.89.85 1.89 1.89z" class="S"/><path d="M109.58 167.28v-64.43H51.37v64.43c0 2.86 2.31 5.17 5.17 5.17h47.88c2.85 0 5.16-2.31 5.16-5.17z" class="a"/><path d="M65.8 166.36h-3.73a1.59 1.59 0 0 1-1.59-1.59v-13.52a1.59 1.59 0 0 1 1.59-1.59h3.73a1.59 1.59 0 0 1 1.59 1.59v13.52a1.59 1.59 0 0 1-1.59 1.59z" class="V"/><path d="M67.39 158.66v6.68a1.03 1.03 0 0 1-1.03 1.03H61.5a1.03 1.03 0 0 1-1.03-1.03v-5.78c1.24-.72 3.34-1.24 6.92-.9z" class="Y"/><path d="M75.99 166.36h-3.73a1.59 1.59 0 0 1-1.59-1.59v-25.38a1.59 1.59 0 0 1 1.59-1.59h3.73a1.59 1.59 0 0 1 1.59 1.59v25.38c.01.88-.71 1.59-1.59 1.59z" class="U"/><path d="M77.59 158.94v6.4a1.03 1.03 0 0 1-1.03 1.03H71.7a1.03 1.03 0 0 1-1.03-1.03v-6.24c2.56.31 4.84.22 6.92-.16z" class="Z"/><path d="M87.28 166.36h-3.73a1.59 1.59 0 0 1-1.59-1.59v-34.13a1.59 1.59 0 0 1 1.59-1.59h3.73a1.59 1.59 0 0 1 1.59 1.59v34.13a1.59 1.59 0 0 1-1.59 1.59z" class="V"/><use xlink:href="#E" class="a"/><use xlink:href="#E" class="Y"/><path d="M98.91 166.36h-4.86a1.03 1.03 0 0 1-1.03-1.03V119.8a1.03 1.03 0 0 1 1.03-1.03h4.86a1.03 1.03 0 0 1 1.03 1.03v45.54a1.04 1.04 0 0 1-1.03 1.02z" class="U"/><path d="M99.93 150.65v14.69a1.03 1.03 0 0 1-1.03 1.03h-4.86a1.03 1.03 0 0 1-1.03-1.03v-15.13c2.39-1.47 4.85-.83 6.92.44z" class="Z"/><path d="M90.04 114.54l-6.38 1.37 1.71 1.68-9.77 9.96-3.43-3.36-12.13 12.37a1.19 1.19 0 0 0 .02 1.69h0a1.19 1.19 0 0 0 1.69-.02l10.45-10.66 3.43 3.36 11.45-11.67 1.71 1.68 1.25-6.4z" class="c"/><path d="M109.58 100.67v7.96H51.37v-7.96a2.87 2.87 0 0 1 2.87-2.87h52.47a2.87 2.87 0 0 1 2.87 2.87z" fill="#55a6ff"/><circle cx="93.59" cy="102.7" r="1.89" class="Y"/><path d="M101.62 102.7a1.89 1.89 0 0 1-1.89 1.89c-1.04 0-1.89-.85-1.89-1.89a1.89 1.89 0 1 1 3.78 0z" class="U"/><path d="M107.49 102.7a1.89 1.89 0 1 1-3.78 0 1.89 1.89 0 0 1 1.89-1.89c1.05-.01 1.89.84 1.89 1.89z" class="S"/><ellipse cx="173.1" cy="342.33" rx="49.27" ry="5.1" class="b"/><path d="M216.63 183.42c-1.95 0-3.74-.44-5.35-1.32-2.57-1.41-6.56-4.73-14.69-18.07-4.19-6.88-7.53-13.22-7.67-13.49a6.49 6.49 0 0 1 2.73-8.76 6.49 6.49 0 0 1 8.76 2.73c.05.09 3.21 6.1 7.09 12.49 5.65 9.31 8.56 12.43 9.6 13.37.95-.21 3.49-1.09 8.32-4.65 3.75-2.76 6.75-5.6 6.78-5.63 2.6-2.46 6.7-2.36 9.17.24a6.49 6.49 0 0 1-.23 9.17c-.18.17-4.38 4.15-9.49 7.73-3.2 2.24-6.14 3.88-8.74 4.89-2.25.87-4.35 1.3-6.28 1.3zm.91-12.68z" class="V"/><g class="Y"><path d="M232.03 165.06c-.18.43.02.93.45 1.12.43.18.93-.02 1.12-.45.18-.43-.02-.93-.45-1.12a.85.85 0 0 0-1.12.45zm6.11 6.48c-3.9 0-6.18-2.15-7.42-4.02-1.43-2.15-1.82-4.35-1.83-4.44-.03-.2.1-.39.3-.42s.39.1.42.3a12.09 12.09 0 0 0 1.73 4.18c1.78 2.67 4.34 3.9 7.61 3.64.2-.01.38.13.39.34.02.2-.13.38-.34.39l-.86.03z"/><path d="M234.3 170.39a.37.37 0 0 1-.31-.17.36.36 0 0 1 .11-.5c1.91-1.22 3.05-3.33 3.06-3.35.09-.18.32-.25.49-.15.18.09.25.31.15.49-.05.09-1.23 2.3-3.31 3.63-.05.04-.12.05-.19.05z"/></g><path d="M217.39 162.64h37.29a1.73 1.73 0 0 0 1.73-1.73h0a1.73 1.73 0 0 0-1.73-1.73h-37.29a1.73 1.73 0 0 0-1.73 1.73h0a1.74 1.74 0 0 0 1.73 1.73z" class="Z"/><path d="M226.76 162.64H255c.67 0 1.27-.39 1.55-1l7.72-16.86a1.71 1.71 0 0 0-1.55-2.42h-28.24c-.67 0-1.27.39-1.55 1l-7.72 16.86c-.51 1.13.31 2.42 1.55 2.42z" class="U"/><path d="M243.8 152.5c0 1.35 1.1 2.45 2.45 2.45s2.45-1.1 2.45-2.45-1.1-2.45-2.45-2.45-2.45 1.1-2.45 2.45z" class="Z"/><path d="M234.25 165.02c.99 1.33 2.66 1.95 4.29 1.68.78-.13 1.68-.38 2.59-.84.63-.32 1.41-.9 1.97-.84 1.37.15 1.87-.8 2.22-.88.32.16.78.29 1.34.23a4.62 4.62 0 0 0 1.65-.53c1.36-.02 2.55.03 2.94-.23.77-.53 1.51-5.77.21-5.99-1.73-.29-.85 3.58-2.43 4.31 0 0 1.19-4.88-.76-5.25-1.33-.25-1.54 4.62-2.96 5.51 0 0 1.34-4.53-.1-5.25-1.44-.73-1.43 4.73-2.9 4.87-.3.03 1.19-3.86-.53-4.07s-.76 4.44-5.86 4.34c-2.08-.05-2.91 1.26-1.67 2.94z" class="T"/><g class="Y"><path d="M213.54 175.61c-.07 0-.13-.02-.19-.05a.37.37 0 0 1-.12-.5c.95-1.54 3.58-4.33 3.69-4.45.14-.15.37-.15.52-.02.15.14.15.37.01.52-.03.03-2.68 2.85-3.6 4.33a.37.37 0 0 1-.31.17z"/><path d="M212.63 173.15c-.14 0-.27-.08-.33-.21-.09-.18-.01-.4.17-.49.1-.05 2.57-1.22 3.92-1.28a.36.36 0 0 1 .38.35c.01.2-.15.37-.35.38-1.2.05-3.61 1.2-3.63 1.21-.05.03-.11.04-.16.04z"/></g><path d="M146.37 320.85l-.63 8.9 9.14.17.51-8.35z" class="T"/><path d="M183.12 218.8l-.55 1.48-17.82 47.98c0 19.82-8.96 55.59-8.96 55.59l-10.74-.51 2.95-55.92.04-.77c.02-.07.03-.14.05-.21 2.75-11.02 8.49-38.53 12.39-51.8l.32-1.08 1.39-4.7.3-1.02 3.01 1.6.87.46 16.75 8.9z" class="S"/><path d="M153.69 266.74c-1.43.57-2.89.76-4.19.76a14.01 14.01 0 0 1-1.5-.08l.04-.77.05-.21c.45.05.93.08 1.43.08 1.2 0 2.53-.17 3.81-.68.25-.1.53.02.63.27s-.02.53-.27.63z" class="W"/><path d="M156.95 340.07v.21l-.03.84-.07.86H139.1s-.09-.69-.02-1.71c.12-1.81.72-4.68 3.17-6.57 3.36-2.59 2.06-2.05 2.75-3.24.08-.13.68-2.14.75-2.28.58-1.23 1.11-1.81 4.29-1.81 4.22 0 4.59 2.05 5.04 3.12.19.45.44 1.39.7 2.51l.32 1.42.67 3.52c.16 1.09.2 2.22.18 3.13z" class="e"/><g class="f"><path d="M156.95 340.07v.21l-.03.84a4.93 4.93 0 0 1-1.84-2.39c-1.1-2.99.59-6.58.66-6.73l.04.02.32 1.42c-.4 1.22-.86 3.27-.22 5.01.22.62.58 1.16 1.07 1.62z"/><path d="M156.95 340.27l-.1 1.71H139.1s-.09-.69-.02-1.71h17.87zm-6.34-8.36c-.04 0-.08-.01-.13-.02-2.26-.58-4.1-.09-4.11-.08-.27.07-.55-.08-.62-.35s.08-.55.35-.62c.09-.02 2.12-.57 4.64.08a.51.51 0 0 1 .36.62c-.06.22-.26.37-.49.37zm.3-2.04c-.04 0-.08-.01-.13-.02-2.26-.58-4.1-.09-4.11-.08-.27.07-.55-.08-.62-.35s.08-.55.35-.62c.09-.02 2.12-.57 4.64.08a.51.51 0 0 1 .36.62c-.06.22-.27.37-.49.37zm-1.06 3.64c-.04 0-.08-.01-.13-.02-2.24-.58-4.1-.09-4.12-.08-.27.07-.55-.08-.62-.35s.08-.55.35-.62c.09-.02 2.12-.57 4.64.08a.51.51 0 0 1 .36.62c-.04.22-.25.37-.48.37zm-.89 1.83c-.04 0-.08-.01-.13-.02-2.24-.58-4.1-.09-4.12-.08-.27.07-.55-.08-.62-.35s.08-.55.35-.62c.09-.02 2.12-.57 4.64.08a.51.51 0 0 1 .36.62c-.05.22-.25.37-.48.37z"/></g><path d="M154.67 323.65c-.03 0-.06 0-.1-.01a.49.49 0 0 1-.38-.57c.05-.23 4.71-23.4 5.99-30.53 1.27-7.09 1.81-25.71 1.81-25.9 0-.06.02-.13.04-.18 3.03-6.77 16.88-44.66 17.02-45.04.09-.25.37-.38.62-.29s.38.37.29.62l-17 45.01c-.04 1.47-.59 19.05-1.83 25.95-1.28 7.13-5.95 30.31-5.99 30.55a.49.49 0 0 1-.47.39z" class="W"/><path d="M184.1 320.85l.16 8.92 8.35.15.05-8.39z" class="T"/><path d="M212.18 342.26l-29.8-.32c-.22-.4-.33-.98-.37-1.66-.16-2.52.69-6.54 1.11-9.07l.13-.82.1-1.03c.02-2.07 1.85-1.7 1.85-1.7 2.98 2.99 6.44-1.41 8.42.07 0 0 .85.62 3.19 2.78 2.34 2.15 6.35 3.6 9.76 5.07 4.4 1.9 5.64 3.76 5.87 5.03.18 1.01-.26 1.65-.26 1.65z" class="e"/><g class="f"><path d="M212.18 342.26l-29.8-.32c-.22-.4-.33-.98-.37-1.66l30.43.33c.18 1.01-.26 1.65-.26 1.65z"/><path d="M185.42 341.98l-.89-.01c.89-1 1.74-2.54 1.65-4.75-.11-2.95-1.86-4.95-3.07-6l.13-.82c1.31 1.03 3.52 3.26 3.65 6.79.09 2.11-.62 3.68-1.47 4.79z"/><use xlink:href="#F"/><use xlink:href="#G"/><use xlink:href="#G" x="3.89" y="2.73"/><path d="M199.99 334.43a.48.48 0 0 1-.47-.38c-.06-.26.1-.53.36-.59l1.87-.44c.26-.06.53.1.59.36s-.1.53-.36.59l-1.87.44c-.04.01-.08.02-.12.02z"/><use xlink:href="#F" x="5.72" y="3.15"/><use xlink:href="#F" x="7.91" y="3.99"/></g><g class="S"><path d="M204.54 214.98c-3.42 2.28-11.2 4.14-19.07 5.02-10.15 1.14-20.47.66-21.8-2.61a12.13 12.13 0 0 1-.41-1.16c0-.01-.01-.02-.01-.03-.09-.3-.17-.6-.25-.91a22.73 22.73 0 0 1-.36-1.72c-.06-.34-.11-.69-.16-1.04-.72-5.41-.09-11.35-.09-11.35l38.53-8.09s3.8 11 4.4 17.47c.03.36.06.7.07 1.02.06 1.69-.17 2.95-.85 3.4z"/><path d="M205.44 212.37l-.01.9-.02 2.12-.01 1.09v.15l-.01 1c-.26 21.82-1.03 41.76-2.6 56.07v.01l-.17.98-8.79 49.48-11.31-.96s.41-39.18 2.9-48.12l-.05-54.84v-7.89l15.24 1.6.95-.31.56-.18.93-.31 2.39-.79z"/></g><g class="W"><path d="M202.79 273.7h0l-.17.99-.52.01c-3.68 0-6.77-1.8-6.94-1.9-.23-.14-.31-.43-.17-.66a.49.49 0 0 1 .67-.17c.04.03 3.41 1.98 7.13 1.73zm-18.05 46.44h.06c.26 0 .47-.22.47-.48-.26-33.03 3.88-46.13 3.92-46.25.02-.05.02-.1.02-.15l-.83-52.4c0-.26-.22-.47-.48-.47s-.47.22-.47.48l.82 52.32c-.35 1.14-4.19 14.58-3.94 46.48.01.25.2.45.43.47zm20.64-108.56l-.11-.03c-.7-.24-1.37-.56-2.01-.98l-.5-.34c-.62-.45-1.17-.96-1.67-1.51-3.12-3.42-4.05-8.25-4.09-8.49-.05-.26.12-.5.38-.55s.5.12.55.38c.01.06.96 5 4.07 8.25.46.48.97.93 1.52 1.31l.25.17a9.28 9.28 0 0 0 1.54.78l.07 1.01zm-16.08 6.37a.39.39 0 0 1-.37.4c-.22.01-.4-.15-.41-.36l-.25-4.34-.05-.77-1-12.74-.07-.77-.18-1.91.78-.13.18 1.92.07.77.99 12.64.05.78.26 4.51z"/><path d="M190.42 212.92c-.12.06-.67.32-1.38.53l-.78.2c-.25.05-.5.08-.75.1-.48.03-.94-.02-1.32-.21-.48-.23-.79-.65-.9-1.2-.29-1.47-.89-7.53-1.29-11.82-.03-.26-.05-.52-.07-.77l-.17-1.84.78-.1.17 1.86.07.77 1.28 11.76c.06.33.21.54.47.66.42.2 1.04.16 1.66.02a9.93 9.93 0 0 0 .78-.21 11.32 11.32 0 0 0 1.08-.42c.2-.09.43-.02.53.17.11.18.03.41-.16.5zm-21.86-8.03c-.05.17-.72 2.6-2.21 5.01-.91 1.47-2.12 2.93-3.69 3.87l-.55.3a7.1 7.1 0 0 1-1.64.57l.32-1.08a5.28 5.28 0 0 0 .9-.36c.28-.14.56-.3.82-.48 1.23-.83 2.21-2.05 2.98-3.28 1.46-2.35 2.12-4.77 2.13-4.81a.48.48 0 0 1 .59-.34c.27.07.42.34.35.6z"/></g><path d="M203.85 202.75l-.03.03a21.21 21.21 0 0 1-2.71 2.12l-.1.06-.99.62-.83.48-.44.24-.86.44c-2.31 1.15-4.93 2.11-7.75 2.81l-.78.19-.56.13-.78.16-.94.18-.78.13-.48.07-.78.11a45.14 45.14 0 0 1-8 .36l-1.11-.06-1.7-.15-1.09-.13-.17-.02c-.02 0-.05-.01-.07-.01l-.89-.14a41.37 41.37 0 0 1-4.76-1.07l-.47-.14-.95-.3-2.61-1-.67-.29-.4-.18-.42-.2c-.02-.01-.05-.02-.08-.04-1.63-4.45-3.42-20.31-3.9-25.06-.1-.94-.17-1.89-.24-2.83-.17-2.57-.22-5.16-.2-7.78.02-2.02.09-4.06.18-6.15l.04-.78.16-2.89.04-.67c0-.05 0-.1.01-.16 0-.04 0-.08.01-.12l.14-2.31.26-3.99.14-2.24c.3-4.75 1.31-8.49 2.99-11.02a9.32 9.32 0 0 1 1.4-1.68 7.75 7.75 0 0 1 1.17-.92 7.46 7.46 0 0 1 2.83-1.07 22.8 22.8 0 0 0 2.59-.57c.14-.04.29-.08.43-.13.44-.14.86-.28 1.24-.43a16.5 16.5 0 0 0 1.24-.53c.06-.03.12-.06.18-.08l.3-.15.75-.41a18.02 18.02 0 0 0 1.46-.92c.21-.15.31-.24.31-.24h11.12c.09.13.18.25.27.37.01.01.01.02.02.02a5.72 5.72 0 0 0 .45.53c.29.31.59.59.91.84.4.33.83.6 1.27.84.18.1.37.2.55.28.14.07.29.14.44.2s.3.13.46.19c.36.14.73.27 1.1.39 2.3.73 4.62 1.1 6.19 2.42a4.33 4.33 0 0 1 .75.79h0c.46.61.8 1.36.99 2.33.05.27.08.56.1.89.08 2.46-.97 6.55-1.39 13.28-.14 2.18-.21 4.65-.16 7.43.01.71.03 1.43.07 2.18l.03.67.08 1.4.1 1.45.25 2.83a95.23 95.23 0 0 0 .29 2.62l.37 2.82c.55 3.84 1.78 11.45 3.07 17.85l.62 2.91.06.29c.2 1.07.43 2.04.66 2.91z" class="V"/><path d="M183.87 160.45a.35.35 0 0 1-.29-.15l-16.7-22.45c-.12-.16-.09-.39.07-.51s.39-.09.51.07l16.29 21.89 7.12-21.41c.06-.19.27-.29.46-.23s.29.27.23.46l-7.35 22.07c-.04.13-.15.22-.29.24-.01.02-.03.02-.05.02zm-.84 5.58c-1.88 0-3.9-.51-6-1.52-3.61-1.73-6.26-4.38-6.29-4.41-.1-.1-.1-.26-.01-.37s.24-.11.34-.01a24.97 24.97 0 0 0 6.17 4.32c4.71 2.25 8.75 1.93 12.03-.95.1-.09.26-.07.34.04s.07.28-.04.37c-1.89 1.66-4.06 2.52-6.46 2.54-.03-.01-.06-.01-.08-.01zm6.66 27.15c-.98 0-1.99-.09-3.01-.27-2.52-.44-5.15-1.41-7.82-2.9-4.54-2.53-7.67-5.7-7.7-5.73-.1-.1-.1-.26-.01-.37s.24-.11.34-.01c.03.03 3.12 3.16 7.6 5.66 4.11 2.29 10.28 4.49 16.29 1.98.12-.05.26.02.31.15.05.14-.01.29-.14.34-1.84.76-3.81 1.15-5.86 1.15z" class="Y"/><path d="M176.12 129.26s.56 4.69-2.17 3.12c-2.01-1.15-.94-2.62-3.03-3.89-.85-.52-3.26-1.28-3.08-3.77s1.65-2.97.43-3.86-3.46-3.2-.7-6.21c2.76-3.02-1.02-5.17 2.82-7.22 3.83-2.05 5.88-.72 8.92-3.03 3.05-2.31 6.09-3.43 8.54-2.45 3.35 1.34 1.42 8.34-1.03 8.95-2.44.64-10.7 18.36-10.7 18.36z" class="S"/><path d="M185.67 131.38l.39 2.75c-.29.31-.58.58-.88.82-4.37 3.56-10.04.74-10.04.74l-1.36-9.55 10.47 4.61 1.42.63z" class="T"/><path d="M185.67 131.38l.39 2.75c-.29.31-.58.58-.88.82-4.3-1.03-7.88-4.88-7.88-4.88l6.94.68 1.43.63z" class="S"/><path d="M187.36 118.68s1.3-2.07 2.45-.35 1 5.56-1.46 5.29l-.99-4.94z" class="X"/><path d="M187.54 109.87s1.91.38 1.42 2.56-.35 2.59.12 3.81-.4 2.4-.79 2.32c-.38-.07-5.22-8.94-.75-8.69z" class="S"/><path d="M189.96 124.92s.82 5.69-5.1 6.53c-5.89.83-10.56-3.22-10.8-3.4l-.25-1.19-1.22-6.16-.65-3.29s-1.61-5.87 3.92-7.77c4.04-1.39 8.03-1.26 10.3.63.07.06.15.12.21.19.73.67 1.25 1.54 1.52 2.62l1.04 5.94.25 1.45.78 4.45z" class="T"/><path d="M177.37 116.08h0c.4.62 1.22.81 1.85.43.37-.22.81-.46 1.28-.63.67-.25 1-1 .71-1.66h0s-2.79.14-3.84 1.86zm10.71-1.53h0c-.21.71-.94 1.12-1.65.93a8.13 8.13 0 0 0-1.4-.25c-.71-.05-1.24-.69-1.15-1.39h0s2.72-.65 4.2.71zm-1.71-4.11c-.98-.2-1.6.21-2.96 1.05-1.96 1.22-4.42.73-6.64-.04s-3.25.89-2.41 1.75.88 1.66.27 3 1.74 1.59.63 2.73c-.47.48-.35 1.08-.06 1.62.32.58-.13 1.29-.8 1.27h0c-.7-.07-1.82-1.13-1.82-1.13l-.65-3.29s-1.61-5.87 3.92-7.77c4.04-1.39 8.03-1.26 10.3.63.08.05.15.12.22.18z" class="S"/><path d="M181.3 120.84c.06.41-.75.87-1.8 1.02s-1.96-.06-2.01-.48c-.06-.41.75-.87 1.8-1.02s1.96.06 2.01.48z" class="X"/><g opacity=".8" class="X"><path d="M189.18 120.46c-.14.04-.3.07-.46.09-1.05.15-1.95-.06-2.01-.48-.06-.41.75-.87 1.8-1.02l.42-.04.25 1.45z"/></g><path d="M181.33 118.51c.08.57-.11 1.07-.43 1.11-.32.05-.64-.38-.72-.95s.11-1.07.43-1.11c.31-.05.63.38.72.95zm5.63-.81c.08.57-.11 1.07-.43 1.11-.32.05-.64-.38-.72-.95s.11-1.07.43-1.11c.31-.04.64.38.72.95zm-2.9 3.34c1.39-.2 1.72-1.23 1.73-1.28.02-.07.01-.14-.03-.2l-2.5-3.72a.24.24 0 0 0-.33-.07.24.24 0 0 0-.07.33 556.84 556.84 0 0 0 2.43 3.62c-.11.22-.44.73-1.31.85-.13.02-.22.14-.2.27.03.13.15.22.28.2zm1.34 2.63c.69-.1 1.38-.4 2.03-1.01.09-.09.1-.24.01-.33s-.24-.1-.33-.01c-2.32 2.21-5.44-.25-5.47-.28-.1-.08-.25-.07-.33.04-.08.1-.07.25.04.33.01.02 1.97 1.56 4.05 1.26zm-9.82 1.8c-.02.07-.52 1.91-1.52 2.58l-.25-1.19c.01-.01.92-.3 1.77-1.39z" class="S"/><path d="M173.97 121.67s-2.71-2.73-4.04-.09c-1.09 2.18 2.24 6.97 4.71 4.81l-.67-4.72z" class="T"/><g class="S"><path d="M174.2 125.51c.01 0 .02 0 .03-.01.13-.03.2-.16.17-.29a4.42 4.42 0 0 0-3.07-3.17c-.13-.03-.25.05-.29.17-.03.13.05.25.17.29h0c.09.02 2.14.55 2.73 2.83.03.12.15.19.26.18z"/><path d="M171.82 124.4c.05-.01.1-.03.14-.07.18-.19.74-.69 1.16-.64.13.01.25-.08.26-.21s-.08-.25-.21-.26c-.73-.08-1.47.7-1.56.79-.09.1-.08.25.01.33.06.05.13.07.2.06z"/></g><path d="M170.22 136.63l13.07 19.17 5.91-19.14s-.68-2.82-3.14-2.82c-1.5 1.48-3.11 2.35-4.81 2.82 0 0-4.79-1.04-6.47-3.56-.01 0-3.46.66-4.56 3.53z" class="a"/><path d="M175.87 144.63a.36.36 0 0 1-.22-.07c-.16-.12-.19-.35-.07-.51l5.38-7.17c.06-.08.16-.14.26-.14a.36.36 0 0 1 .28.1l5.78 5.51c.15.14.15.37.01.52s-.37.15-.52.01l-5.49-5.23-5.14 6.84c-.05.09-.16.14-.27.14z" class="b"/><g class="S"><path d="M178.98 140.71l2.85 3.39 2.57-3.5-3.09-2.97z"/><path d="M180.57 142.6l-.65 8.24 3.38 4.95 2.02-6.54-2.52-6.48z"/></g><path d="M129.93 137.63s-3.21 4.24-7.06 3.27c-3.11-.79-4.31-4.81-4.66-6.33l-.12-.58s-.22-.09-.52-.25c-.71-.39-1.92-1.21-1.95-2.36-.05-1.64 3-1.13 3-1.13s-.7-1.89.09-2.58c.78-.68 2.66.09 2.66.09s-1.26-2.26-.05-3.01c1.83-1.13 2.87 1.72 2.98 1.91-.05-.21-2.18-9.09-.57-8.84 1.4.22 3.65 7.58 4.24 9.59l.14.5s.11-.02.29-.04c.87-.09 3.45-.2 4.16 1.51.84 2.08-2.63 8.25-2.63 8.25z" class="T"/><g class="X"><path d="M121.49 132.28c.4.65.66 1.39.59 1.95-.05.36-.24.63-.54.77-.21.1-.49.13-.81.12-.8-.03-1.84-.33-2.52-.55l-.12-.58s-.22-.09-.52-.25c.06-.01.11-.01.17.02 1.07.41 2.97.97 3.55.7a.36.36 0 0 0 .2-.3c.09-.62-.53-1.82-1.26-2.47-.12-.1-.14-.28-.05-.4a.3.3 0 0 1 .4-.09c.66.37 2.57 1.22 3.4.83.12-.06.13-.12.13-.15.02-.15-.07-.36-.21-.59-.3-.48-.86-1.07-1.29-1.45-.05-.04-.08-.1-.1-.16-.02-.09 0-.2.07-.27.11-.13.31-.14.43-.03.19.17.86.78 1.31 1.44a2.85 2.85 0 0 1 .36.72c.04.15.06.29.04.43a.8.8 0 0 1-.48.62c-.75.32-1.88.03-2.75-.31z"/><path d="M125.8 129.1a.29.29 0 0 0-.18.29c.02.4-.02.75-.14.98-.1.18-.21.21-.29.22-.14.01-.32-.03-.52-.12-.52-.21-1.21-.67-1.81-1.13.01.06.05.11.09.16.43.38.99.97 1.29 1.45l.2.09c.21.08.41.14.58.16a.81.81 0 0 0 .22 0c.33-.03.6-.22.77-.54.18-.34.24-.8.22-1.3-.01-.21-.23-.34-.43-.26z"/><path d="M130.61 131.93c-.08.02-1.24.29-2.41.26-.65-.02-1.3-.14-1.77-.45a1.52 1.52 0 0 1-.69-1.07c-.25-1.61 1.28-2.73 2.22-3.25l.14.5.29-.04c-.79.42-2.25 1.39-2.05 2.69.04.28.18.5.42.66.9.61 2.97.29 3.69.11.16-.04.33.06.37.23.05.15-.05.32-.21.36zm-5.75 6.67c-.11 0-.21-.06-.26-.16a.32.32 0 0 1 .12-.42c.8-.43 1.3-1.04 1.48-1.81.47-1.97-1.22-4.4-1.24-4.43-.1-.14-.06-.33.07-.43.14-.1.33-.06.43.07.08.11 1.86 2.68 1.34 4.92-.22.95-.83 1.69-1.79 2.21-.05.04-.1.05-.15.05z"/></g><path d="M172.33 148.44l-.4.64-.35.53-.34.51-.34.49-1.42 1.89-3.03 3.54c-2.11 2.27-4.4 4.38-6.88 6.3l-.94.71-.95.69-.97.68-.99.66-4.11 2.4-4.35 2.04-4.56 1.6-1.17.34-1.18.29-.59.15-.15.04-.18.04-.2.04-.8.12c-1.1.12-2.25.06-3.32-.16-.27-.05-.52-.13-.77-.2l-.38-.11-.35-.13-.69-.28-.62-.31-.3-.16-.28-.16-.54-.34-.48-.35-.24-.18-.21-.17c-1.14-.94-1.92-1.87-2.58-2.74-.65-.87-1.17-1.7-1.62-2.51l-1.19-2.36c-.7-1.54-1.25-3.04-1.74-4.51l-.68-2.2-.59-2.18-.98-4.33-.76-4.31-.3-2.17-.13-1.09-.06-.55-.06-.59 12.21-1.95.48 1.84.5 1.9 1.06 3.77 1.15 3.68 1.26 3.51 1.39 3.16.72 1.31.65.95c.18.23.33.33.26.27l-.04-.03c-.02-.02-.04-.03-.06-.04-.03-.02-.06-.05-.1-.07l-.06-.03c-.02-.01-.05-.03-.07-.04-.05-.03-.11-.06-.16-.08-.06-.03-.14-.07-.21-.09l-.11-.04c-.04-.02-.09-.03-.13-.05-.09-.03-.17-.04-.27-.07-.39-.09-.85-.12-1.26-.07l-.29.04-.07.02-.04.01h-.02l.1-.03.41-.11.83-.21.82-.25c1.1-.32 2.18-.73 3.25-1.14l3.17-1.45 1.55-.83.76-.44.76-.46 2.97-1.98 1.43-1.09 1.41-1.13 2.71-2.42 2.55-2.58 1.19-1.33.28-.33.27-.33.26-.31.12-.14.05-.06.02-.03v.01l11.07 7.13z" class="V"/><g class="Y"><path d="M126 141.7c-.18.43.02.93.45 1.12.43.18.93-.02 1.12-.45.18-.43-.02-.93-.45-1.12s-.93.01-1.12.45zm9.02 21.28c-.09 0-.17-.03-.24-.09-.15-.13-.16-.36-.03-.51 1.82-2.03 3.23-4.94 3.25-4.97.09-.18.31-.26.49-.17s.26.31.17.49c-.06.12-1.48 3.04-3.36 5.14a.43.43 0 0 1-.28.11z"/><path d="M138.31 161.73c-.21 0-.37-.17-.36-.37l-.09-3.47c-.04-.2.09-.39.29-.43s.39.09.43.29c.16.88.11 3.51.1 3.63-.01.2-.17.35-.37.35zm-17.76-14.95c-.15 0-.3-.1-.35-.25-.06-.19.04-.4.23-.46 4.23-1.38 12.7-2.57 12.79-2.58.2-.03.38.11.41.31s-.11.38-.31.41c-.08.01-8.5 1.19-12.66 2.55a.36.36 0 0 1-.11.02z"/><path d="M124.42 145.77c-.17 0-.32-.12-.36-.29l-1.19-5.63c-.04-.2.08-.39.28-.43s.39.08.43.28l1.19 5.63c.04.2-.08.39-.28.43a.17.17 0 0 1-.07.01zm33.51 18.29a.37.37 0 0 1-.31-.17.36.36 0 0 1 .11-.5c.06-.04 5.53-3.61 7.91-6.24.13-.15.37-.16.51-.03.15.13.16.37.03.51-2.44 2.7-7.83 6.21-8.06 6.36-.05.05-.12.07-.19.07z"/><path d="M163.48 160.01c-.18 0-.34-.14-.36-.32-.02-.2.12-.38.32-.41l2.96-.37c.2-.03.38.12.41.32.02.2-.12.38-.32.41l-2.96.37h-.05z"/></g><path d="M321.06 118.73s4.15-6.97 15.9-2.78c11.74 4.18 3.93 19.69 6.99 26.99 3.06 7.31-.08 7.6-6.12 8.12-6.05.52-18.2.87-21.03-2.45-2.93-3.44.31-20.38 4.26-29.88z" class="S"/><path d="M279.24 170.53s-1.47 4.74-5.17 5.11c-2.99.3-5.32-2.85-6.11-4.08l-.29-.47s-.22-.01-.54-.06c-.75-.11-2.07-.46-2.46-1.45-.56-1.42 2.28-1.95 2.28-1.95s-1.22-1.44-.74-2.29c.47-.84 2.36-.77 2.36-.77s-1.83-1.59-1-2.63c1.25-1.57 3.07.6 3.22.73-.11-.17-4.8-7.3-3.31-7.59 1.3-.25 5.62 5.51 6.77 7.08l.29.39.24-.12c.74-.36 2.97-1.27 4.14.01 1.42 1.56.32 8.09.32 8.09z" class="T"/><g class="X"><path d="M270.13 168.51c.56.45 1.03 1.01 1.13 1.53.07.33-.01.63-.23.85-.15.15-.39.27-.68.36-.72.23-1.72.3-2.39.32l-.29-.47s-.22-.01-.54-.06c.05-.03.1-.04.16-.04 1.07.02 2.92-.09 3.34-.52.05-.06.11-.14.08-.33-.12-.57-1.04-1.43-1.89-1.77-.14-.05-.21-.2-.17-.34s.18-.23.32-.21c.7.11 2.65.26 3.26-.35.09-.09.08-.15.07-.18-.03-.13-.17-.29-.38-.45-.42-.33-1.09-.67-1.59-.87-.06-.02-.1-.06-.13-.11-.05-.08-.06-.17-.03-.26a.28.28 0 0 1 .37-.16c.22.09 1.01.41 1.6.85.22.16.41.34.54.52.09.12.15.24.17.36.04.18.03.44-.23.7-.53.54-1.62.65-2.49.63z"/><path d="M272.91 164.34c-.09.08-.11.21-.07.31.15.34.22.67.19.9-.03.19-.11.25-.18.28-.12.05-.29.07-.5.06-.52-.02-1.27-.21-1.95-.42.03.05.08.09.13.11.5.19 1.18.54 1.59.87a1.41 1.41 0 0 0 .2.01c.21.01.4 0 .56-.04.07-.02.14-.04.2-.07.28-.13.46-.38.51-.72.05-.35-.04-.78-.22-1.21-.08-.17-.31-.22-.46-.08z"/><path d="M278.03 165.3a9.67 9.67 0 0 1-2.04.99c-.58.19-1.19.29-1.7.16a1.45 1.45 0 0 1-.95-.72c-.73-1.33.26-2.8.92-3.56l.29.39.24-.12c-.56.62-1.54 1.94-.94 3.02.13.23.32.38.58.44.99.24 2.7-.69 3.28-1.08a.29.29 0 0 1 .4.08.29.29 0 0 1-.08.4zm-2.93 7.69c-.09.03-.2.01-.28-.06-.12-.11-.13-.29-.02-.4.57-.64.81-1.33.73-2.06-.22-1.88-2.47-3.48-2.5-3.5-.13-.09-.16-.27-.07-.4s.27-.16.4-.07c.1.07 2.49 1.76 2.74 3.9.1.9-.19 1.75-.87 2.51-.05.04-.09.06-.13.08z"/></g><path d="M310.81 149.48l-2.91 7.36-1.33 3.68-1.34 3.66-1.37 3.61-1.41 3.5-1.44 3.25-.68 1.32-.14.24-.06.1c-.01.02-.01.03-.02.04-.02.05-.03.08-.03.1-.01.05.01.08-.01.12-.02.05-.09.11-.24.18-.3.13-.96.23-1.79.2-.83-.04-1.81-.2-2.83-.46s-2.1-.6-3.19-1.01c-2.17-.83-4.4-1.87-6.6-3.04l-5.96-3.44c-.68 3.18-2.93 5.74-6.19 6.97 2.09 1.9 4.27 3.66 6.57 5.34 2.31 1.66 4.73 3.24 7.4 4.64 1.34.69 2.73 1.36 4.24 1.92 1.51.57 3.12 1.06 4.93 1.38.91.15 1.87.26 2.89.28 1.03.01 2.12-.06 3.27-.28a13.93 13.93 0 0 0 3.51-1.17c1.16-.57 2.26-1.34 3.21-2.22a13.98 13.98 0 0 0 1.29-1.39l.28-.36.23-.31.21-.3.2-.29 1.33-2.13 2.09-3.91 1.8-3.81 1.66-3.78 1.57-3.78 1.49-3.79 1.42-3.81.68-1.92.33-.96.33-.99-13.39-4.74z" class="S"/><g class="W"><path d="M277.06 178.93c-.16 0-.31-.11-.35-.27-.05-.2.06-.4.26-.45 5.17-1.4 5.18-7.03 5.18-7.09 0-.2.16-.37.36-.37s.37.16.37.36c0 .06-.01 6.25-5.72 7.8-.03.01-.06.02-.1.02z"/><path d="M279.5 177.77a.4.4 0 0 1-.23-.08l-3.38-2.77c-.16-.13-.18-.36-.05-.52s.36-.18.52-.05l3.38 2.77c.16.13.18.36.05.52a.43.43 0 0 1-.29.13zm.95-4.85a.64.64 0 1 1-.64-.64c.35 0 .64.29.64.64zm22.44 7.17a.35.35 0 0 1-.29-.15c-.01-.02-1.41-1.87-2.64-2.75a.38.38 0 0 1-.09-.51.38.38 0 0 1 .51-.09c1.32.94 2.74 2.82 2.8 2.9.12.16.09.39-.07.51-.07.06-.14.09-.22.09z"/><path d="M300.39 180.45c-.03 0-.05 0-.08-.01-.2-.04-.32-.24-.28-.44 0-.02.34-1.58.01-2.76-.06-.19.06-.4.25-.45.19-.06.4.06.45.25.39 1.36.02 3.05.01 3.12-.04.18-.19.29-.36.29z"/></g><ellipse cx="312.09" cy="343.56" rx="43.23" ry="3.87" class="b"/><path d="M284.86 335.92c1.33-2.15 13.3-13.63 13.3-13.63s2.45 1.92 2.33 4.03c-.11 2.01-.03 12.59.04 14.75h-1.45l-.92-5.87s-3.31 5.29-5.79 7.11c-2.48 1.81-10.88 1.49-12.89 1.22-2.02-.28 4.04-5.46 5.38-7.61z" class="V"/><path d="M299.59 317.05l-1.59 4.72s.67 1.54 0 3.83c-.67 2.28-3.21 5.9-5.64 8.59-2.09 2.32-6.58 4.63-7.92 4.03s2.55-5.24 3.69-7.65c1.14-2.42 1.61-4.74 1.99-6.78.39-2.08.64-7.2.64-7.2l8.83.46z" class="T"/><path d="M332.01 321.24s-2.72 1.11-2.82 4.93c-.1 3.83-.05 14.88-.05 14.88h1.39l.8-4.67s.48 3.78 2.39 6.2 6.04 2.52 8.76 2.11c2.72-.4.7-5.44-.4-8.26s-3.42-9.57-3.42-9.57l-6.65-5.62z" class="V"/><path d="M332.73 315.77s.09 4.67-.72 5.47c-.81.81-1.91 3.42-1.11 6.65s1.34 7.92 3.22 9.93 6.78 2.08 7.18.47-2.48-7.59-2.62-10.67c-.13-3.09-.67-11.41-.67-11.41l-5.28-.44z" class="T"/><path d="M303.8 219.66c6.79 3.91 23.22 5.93 33.94 1.67 3.93-1.56 4.62-2.52 4.32-9.58l-.04-.79-.1-1.66-.06-.79c-.08-.99-.18-1.95-.28-2.88l-.09-.76a43.68 43.68 0 0 0-1-5.36l-.19-.74c-.38-1.41-.69-2.25-.69-2.25-1.73.28-3.51.44-5.3.51l-.76.03c-9.27.24-18.7-1.85-23.07-2.99l-.73-.19-1.78-.5s-.4.7-.96 1.86l-.32.69c-.89 1.91-2.03 4.68-2.67 7.57a.36.36 0 0 0-.02.11l-.16.75-.03.15c-.44 2.1-.85 4.3-1.12 6.4h0c-.04.27-.07.54-.1.8-.55 4.61-.63 6.89 1.21 7.95z" class="U"/><g class="Z"><path d="M303.8 204.5c.02-.01.03-.02.05-.03 1.38-.75 2.6-1.89 3.64-3.4l.42-.64h0c1.05-1.71 1.91-3.83 2.58-6.36l-.73-.19c-.65 2.49-1.5 4.57-2.53 6.22l-.42.64c-.82 1.17-1.75 2.09-2.78 2.75a.36.36 0 0 0-.02.11l-.16.75c-.03.05-.04.1-.05.15zm29.76-7.44c.3 2.66.89 4.92 1.77 6.75l.36.7c.72 1.3 1.59 2.35 2.63 3.16 1.27.99 2.56 1.44 3.6 1.63l-.06-.79c-.92-.19-2.02-.6-3.09-1.45-.89-.7-1.66-1.61-2.3-2.71l-.38-.7c-.88-1.77-1.48-3.99-1.78-6.63-.25.03-.5.04-.75.04z"/><path d="M306.69 195.92l1.69.71.72.28c3.5 1.37 8.08 2.77 13.02 3.28.19.02.38.04.57.05 4.49.41 9.05.22 12.81-.13l.8-.08a85.03 85.03 0 0 0 4.2-.53l-.19-.74a88.5 88.5 0 0 1-4.32.53l-.78.07c-3.84.35-8.48.52-13.01.05-4.82-.5-9.3-1.86-12.73-3.19h0c-.24-.09-.48-.19-.71-.28l-1.74-.73-.33.71z"/></g><path d="M306.26 299.12l-6.08 21.98h-10.7l5.83-54.67.1-.92.22-2.08c.45-19.66 2.93-38.18 7.04-52.52l18.22 8.48c-.87 21.61-7.13 32.93-11.98 47.26.01 0 3.01 13.27-2.65 32.47z" class="U"/><g class="Z"><path d="M290.13 318.55c-.2 0-.36-.16-.37-.36 0-.2.16-.37.36-.37l10.54-.15c.21 0 .37.16.38.36 0 .2-.16.37-.36.37l-10.55.15zm5.19-52.12a13.36 13.36 0 0 0 2.42.22c.88 0 1.79-.09 2.71-.32a.46.46 0 0 0 .33-.55.46.46 0 0 0-.55-.33c-1.66.41-3.34.34-4.81.06l-.1.92z"/><path d="M304.46 297.78l-5.11 20.26h-.78l5.15-20.44c3.01-12.35 2.03-32.09 2.01-32.28 0-.07.01-.13.04-.19 10.27-20.35 11.79-40.55 11.8-40.75a.38.38 0 0 1 .41-.35c.21.01.37.2.35.4-.01.2-1.54 20.5-11.84 40.95.09 1.55.9 20.4-2.03 32.4z"/></g><path d="M341.8 266.4l-.11 3.25-.85 51.45h-10.15L326 293.06c-3.06-18.26.21-25.23.21-25.23s-3.98-35.98-4.28-45.31l20.13-10.76s4.68 16.14-.23 53.67l-.03.97z" class="U"/><g class="Z"><path d="M327.61 284.94l4.77 33.1h-.77l-4.86-32.98c-1.12-7.53 1.18-17.11 1.43-18.09l-5.2-42.9a.43.43 0 0 1 .86-.1l5.21 42.98c.01.05 0 .11-.01.16-.03.1-2.58 10.1-1.43 17.83z"/><path d="M340.59 318.11h-10.14a.37.37 0 1 1 0-.74h10.14a.37.37 0 1 1 0 .74zm-5.56-51.43c.92.23 1.83.32 2.71.32 1.49 0 2.89-.27 4.07-.61l.03-.97c-1.79.55-4.2.97-6.58.38a.46.46 0 0 0-.55.33.43.43 0 0 0 .32.55zm-14.85-46.64c-.02.21-.21.36-.42.33-.21-.02-.36-.21-.33-.42l.48-4.31.08-.77 1.16-12.71.06-.77.15-1.91h.76l-.15 1.92-.06.77-1.14 12.61-.08.78-.51 4.48z"/><path d="M322.08 215.28a9.08 9.08 0 0 1-1.39.29l-.77.07c-.24.01-.49 0-.72-.03-.46-.05-.89-.18-1.22-.42-.42-.3-.64-.76-.65-1.33-.03-1.49.4-7.56.73-11.86l.06-.77.14-1.84.76.03-.14 1.86-.06.77-.73 11.79c.01.33.11.57.34.73.36.26.96.33 1.58.29.26-.01.52-.04.77-.08a9.75 9.75 0 0 0 1.1-.24c.2-.06.41.05.47.25.05.22-.07.43-.27.49z"/></g><path d="M338.71 193.38l-2.34 9.82c-5.85-.47-12.77-1.31-17.99-4.01 0 0-6.95 2.34-10.47 1.25l2.58-7.06h28.22z" class="a"/><path d="M304.33 200.65c6.75-.05 10.8-.92 14.48-3.93 6.9 7.17 23.95 7.45 23.95 7.45-1.71-5.51-2.26-15.24-2.26-15.24h0c.27-2.02.29-4.21.84-6.34 1.68-4.86 3.65-8.34 5.4-13.36.11-.33.23-.65.35-.97l.23-.63a95.27 95.27 0 0 1 1.84-4.64c2.82-6.58 3.28-13.99-3.51-16.25l-1.45-.47a102.67 102.67 0 0 0-6.63-1.86c-.14-.03-.2-.05-.2-.05l-14.25 1.18-1.36.11c-1.99.22-4.1.17-5.44.46-1.17.26-1.88.2-3.08.55-2.81.83-2.73 4.61-3.6 9.3-.01.08-.03.16-.04.24-.01.03-.01.05-.02.08-.15.8-.34 1.59-.54 2.37-.23.87-.49 1.73-.76 2.58-1.64 5.15-3.62 7.52-3.29 10.76.31 2.94 3.3 6.94 4.1 7.8a4.64 4.64 0 0 0 .29.3c0 .01 0 .03-.01.05-.01.12-.03.24-.04.37a45.08 45.08 0 0 1-.26 1.75c-1.18 11.87-4.74 18.39-4.74 18.39z" class="S"/><g class="W"><path d="M308.21 179.34c-.1 0-.19-.04-.27-.11-.18-.19-4.29-4.58-2.86-8.59l1.35-3.43c1.49-3.62 3.18-7.71 3.61-13.03.02-.2.19-.35.4-.34.2.02.35.19.34.4-.44 5.43-2.16 9.59-3.67 13.25-.49 1.18-.95 2.3-1.34 3.4-1.28 3.58 2.66 7.79 2.7 7.83.14.15.13.38-.01.52-.07.06-.16.1-.25.1z"/><circle cx="320.98" cy="163.67" r=".8"/><use xlink:href="#H"/><use xlink:href="#H" x="-0.71" y="7.2"/><use xlink:href="#H" x="-1.02" y="14.61"/><path d="M318.01 193.08c0 .44.36.8.8.8s.8-.36.8-.8-.36-.8-.8-.8c-.45 0-.8.36-.8.8zm6.73-47.58s-3.1-.28-5.26.3l.23 8.13 1.85.4-1.56 1.53 1.87 5.46s2.55-9.08 2.87-15.82z"/><path d="M337.35 144.34l5.66 1.55-6.65 8.84-4.99-.4 1.75 3.81-11.26 3.18s13.04-12.39 14.09-16.86l1.4-.12z"/></g><path d="M336.37 145s-3.25 6.93-14.5 16.32c0 0 .6-7.39 2.87-15.3-.01-.01 6.61 2.3 11.63-1.02z" class="a"/><path d="M320.3 167.12c3.7 0 11.26-5.31 11.58-5.53.14-.1.17-.29.07-.42-.1-.14-.29-.17-.42-.07-.08.05-7.72 5.42-11.23 5.42-3.36 0-4.1-3.67-4.11-3.71-.03-.16-.19-.27-.36-.24-.16.03-.27.19-.24.36.01.03.85 4.19 4.71 4.19z" class="W"/><path d="M324.74 145.5l-.15 1.92c-.28 3.58 2.26 4.59 5.96 2.7 2.93-1.5 5.41-3.74 5.82-5.12l-11.63.5z" class="T"/><path d="M330.04 182.04c-.06.11-.17.16-.29.16-.06 0-.11-.01-.16-.04s-5.4-3.05-11.94-1.77c-3.32.65-6.14.58-8.33.09l.04-.37v-.05s-.11-.11-.29-.3c2.14.54 5.01.65 8.45-.02 6.78-1.32 12.17 1.72 12.39 1.85.17.1.22.3.13.45z" class="W"/><path d="M320.93 130.64s-1.69-1.99-2.64 0-.22 6.02 2.35 5.36l.29-5.36z" class="X"/><path d="M325.01 140.86l-.22 5.42s2.94 4.46 11.58-1.28c-.84-2.07-1.52-4.96-.85-7.07 0 0-.64.23-1.67.84-.2.12-.44.2-.69.3-2.17.91-5.42 2-8.15 1.79z" class="T"/><path d="M325.01 140.86l-.11 2.57c2.35-.52 6.58-1.8 8.94-4.66a11.82 11.82 0 0 1-.69.3c-2.16.91-5.41 2-8.14 1.79z" class="S"/><path d="M320.31 139.06c4.62 4.77 14.86-.92 15.19-1.11.1-.44.19-.86.27-1.28a33.53 33.53 0 0 0 .33-9.98c.17-3.3-1.79-6.38-4.9-7.52-3.22-1.17-6.11.24-7.85.78-2.62.81-4.27 4.19-4.28 9.02-.02 5.93.1 8.91 1.24 10.09z" class="T"/><path d="M322.11 124.59s.96.09.62.97-2.26-.09-3.63 1.53c0 0-.59-2.11 3.01-2.5zm4.34 0s-.96.09-.62.97 2.26-.09 3.63 1.53c0 0 .59-2.11-3.01-2.5z" class="S"/><ellipse cx="328.81" cy="131.44" rx="2.06" ry=".81" class="X"/><g opacity=".8" class="X"><path d="M318.38 132.22c.16.02.32.02.5.02 1.13 0 2.05-.36 2.05-.81s-.92-.81-2.05-.81l-.45.02-.05 1.58z"/></g><g class="S"><use xlink:href="#I"/><use xlink:href="#I" x="-6.07"/><path d="M323.27 134.83c-.71 0-1.46-.23-2.13-.89-.1-.1-.1-.26 0-.36s.26-.1.36 0c1.85 1.8 4.31-.18 4.41-.26.11-.09.27-.07.36.03.09.11.07.27-.03.36-.04.01-1.41 1.12-2.97 1.12zm-.22-3.51c-.29 0-.49-.05-.51-.05-.07-.02-.13-.06-.16-.13a.28.28 0 0 1-.02-.2l.93-2.68c.05-.13.19-.2.32-.16.13.05.2.19.16.32l-.83 2.38c.25.01.65-.01 1.03-.22.12-.07.28-.02.34.1.07.12.02.28-.1.34a2.35 2.35 0 0 1-1.16.3zm10.45 4.14c.03.07.84 1.94 2 2.49l.27-1.28c-.05 0-1.22-.2-2.27-1.21z"/></g><path d="M334.63 131.2s2.45-3.3 4.25-.71c1.48 2.13-1.32 7.7-4.25 5.79v-5.08z" class="T"/><path d="M337.17 135.17c0 .34-.28.62-.62.62s-.62-.28-.62-.62.28-.62.62-.62.62.28.62.62z" class="a"/><g class="S"><path d="M334.96 135.3h-.03c-.14-.02-.24-.14-.22-.28.31-2.8 2.67-3.77 2.77-3.81.13-.05.28.01.33.14s-.01.28-.14.33h0c-.09.04-2.18.91-2.45 3.4-.02.12-.13.22-.26.22z"/><path d="M337.32 133.76c-.06 0-.11-.02-.16-.06-.22-.18-.89-.62-1.32-.5-.14.03-.27-.05-.31-.18-.03-.14.05-.27.18-.31.76-.19 1.66.52 1.76.6.11.09.12.25.04.36-.04.06-.12.09-.19.09zm-.72-10.35s-3.36 3.06-4.77 2.31c-1.41-.76.87-3.53.87-3.53s-4.98 2.7-6.89 1.83 1.52-3.19 1.52-3.19-3.8 3.38-5.96 3.18 0-2.93 0-2.93-1.98 3.82-3.28 3.5c-1.3-.33.45-5.82 4.77-7.69 4.32-1.88 15.33-1.54 13.74 6.52z"/><path d="M333.67 124.58s-1.11 7.01.66 7.04 3.54-2.7 2.27-8.2l-2.93 1.16z"/></g><g class="a"><path d="M315.77 129.22l3.27.11v.45l-3.29-.11c-.12 0-.22-.11-.22-.23.01-.12.11-.23.24-.22zm8.39-.13a3.84 3.84 0 0 1 3.83-3.83 3.84 3.84 0 0 1 3.83 3.83 3.84 3.84 0 0 1-3.83 3.83 3.84 3.84 0 0 1-3.83-3.83zm.45 0c0 1.86 1.51 3.37 3.37 3.37s3.37-1.51 3.37-3.37-1.51-3.37-3.37-3.37a3.38 3.38 0 0 0-3.37 3.37z"/><path d="M315.12 129.09a3.84 3.84 0 0 1 3.83-3.83 3.84 3.84 0 0 1 3.83 3.83 3.84 3.84 0 0 1-3.83 3.83 3.84 3.84 0 0 1-3.83-3.83zm.45 0c0 1.86 1.51 3.37 3.37 3.37s3.37-1.51 3.37-3.37-1.51-3.37-3.37-3.37-3.37 1.51-3.37 3.37zm20.75.8c.03 0 .05 0 .08-.01.12-.04.18-.18.13-.29-1.01-2.64-5.02-1.29-5.06-1.27-.12.04-.18.17-.14.29s.17.18.29.14c.04-.01 3.64-1.22 4.49 1.01a.24.24 0 0 0 .21.13z"/><path d="M322.52 128.5c.06 0 .12-.02.16-.07.63-.64 1.58-.1 1.59-.09.11.06.25.03.31-.08s.03-.25-.08-.31c-.44-.25-1.44-.54-2.14.16-.09.09-.09.23 0 .32.05.05.11.07.16.07z"/></g><path d="M342.96 236.56c-.16 0-.32-.04-.48-.11a1.09 1.09 0 0 1-.51-1.47l2.35-4.86-15.24-7.36-2.35 4.86a1.09 1.09 0 1 1-1.98-.96l2.83-5.85a1.12 1.12 0 0 1 .63-.56c.28-.1.58-.08.84.05l17.23 8.31a1.09 1.09 0 0 1 .51 1.47l-2.83 5.85c-.2.4-.59.63-1 .63z" class="W"/><path d="M330.62 223.9l11.83 5.71c.29.14.63.02.77-.27l.88-1.82c.14-.29.02-.63-.27-.77L332 221.04c-.29-.14-.63-.02-.77.27l-.88 1.82a.59.59 0 0 0 .27.77z" class="V"/><path d="M299.85 252.92l39.03 18.84a2.27 2.27 0 0 0 3.02-1.05l13.01-26.97a2.27 2.27 0 0 0-1.05-3.02l-39.03-18.84a2.27 2.27 0 0 0-3.02 1.05L298.8 249.9c-.55 1.13-.08 2.48 1.05 3.02z" class="S"/><path d="M322.96 245.61c-.67 2.15.53 4.44 2.68 5.11s4.44-.53 5.11-2.68-.53-4.44-2.68-5.11a4.07 4.07 0 0 0-5.11 2.68z" class="W"/><path d="M338.45 215.42s-4.14 1.68-5.72 3.54c-1.58 1.87-.11 3.46-.11 3.46s-2.65 3.74-2.16 5.13 1.91 1 1.91 1-.13 1.06.47 1.5c.59.44 1.96-.12 1.96-.12s-.08 1.85.66 2.19c.73.34 1.94-.51 1.94-.51s.68 2.08 1.86 1.54c2.73-1.23 7.77-11.56 7.77-11.56s-4.6-4.65-8.58-6.17z" class="T"/><path d="M332.78 222.44c-.08 0-.15-.03-.21-.09-.11-.11-.11-.3 0-.42l2.85-2.99c.11-.12.3-.13.41-.02.12.11.13.3.02.41l-2.87 3.01c-.05.07-.12.1-.2.1z" class="X"/><path d="M349.83 149.8l.22.33.18.28.35.53.66 1.04 1.23 2.08 2.24 4.23 1.98 4.35 1.72 4.48 1.45 4.61 1.13 4.74a56.14 56.14 0 0 1 1.1 9.83l-.01 2.51-.02.63-.08.99c-.03.32-.08.59-.13.88l-.08.4-.08.39c-.22 1.01-.49 1.89-.77 2.73l-.89 2.39-1.96 4.38-2.11 4.13-2.22 3.99-2.3 3.9-2.38 3.83-1.22 1.9-.62.95-.64.96-8.53-5.24 1.02-1.88 1.02-1.91 2-3.84 1.94-3.85 1.85-3.86 1.71-3.85 1.46-3.77.57-1.78.36-1.54.02-.15.02-.14c0-.08.02-.17.01-.22.01-.07 0-.08 0-.11v-.47l-.06-1.91c-.31-5.11-1.59-10.29-3.48-15.31-.95-2.51-2.05-4.99-3.28-7.41-.61-1.21-1.26-2.4-1.93-3.56l-1.03-1.72-.52-.83-.26-.39-.21-.31 10.57-7.41z" class="S"/><g class="W"><path d="M342.07 216.1c-.1.45.19.9.64 1s.9-.19 1-.64-.19-.9-.64-1-.9.19-1 .64zm6.94 1.32c-.07 0-.15-.02-.21-.07-.04-.03-3.89-2.72-8.4-5.09-.18-.09-.25-.32-.15-.5.09-.18.32-.25.5-.15a86.07 86.07 0 0 1 8.48 5.14.36.36 0 0 1 .09.51.37.37 0 0 1-.31.16z"/><path d="M339.66 216.94c-.06 0-.12-.02-.18-.05-.18-.1-.24-.32-.14-.5l2.17-3.86c.1-.18.32-.24.5-.14s.24.32.14.5l-2.17 3.86c-.06.12-.19.19-.32.19zm6.08-46c-.15 0-.29-.09-.34-.23-.03-.09-3.44-8.85-6.95-13.02-.13-.16-.11-.39.04-.52.16-.13.39-.11.52.04 3.59 4.27 6.93 12.87 7.07 13.23.07.19-.02.4-.21.47-.04.03-.09.03-.13.03z"/><path d="M340.55 160.33a.36.36 0 0 1-.11-.02l-2.96-.96a.37.37 0 0 1-.24-.46.37.37 0 0 1 .46-.24l2.96.96a.37.37 0 0 1 .24.46c-.05.16-.2.26-.35.26zm14.54 30.26c-.04 0-.09-.01-.13-.02h0c-.02-.01-1.87-.69-4.48-.69a.37.37 0 1 1 0-.74c2.75 0 4.66.7 4.74.73.19.07.29.28.21.47-.06.16-.2.25-.34.25z"/><path d="M350.47 189.88c-.13 0-.26-.07-.32-.19-.1-.18-.03-.4.15-.5 1.13-.62 3.15-1.41 3.23-1.45.19-.07.4.02.48.21.07.19-.02.4-.21.48l-3.15 1.41c-.06.03-.12.04-.18.04z"/></g><ellipse cx="70.26" cy="342.33" rx="65.4" ry="5.1" class="b"/><path d="M75.59 208.98l-.02.36-.02.46-.02.97v2.01l.19 4.08c.19 2.73.54 5.47 1.02 8.18l.83 4.04 1.05 3.98.3.98.31.98.66 1.94.35.96.37.96.09.24.05.12.01.03c0 .01.01.03 0 .01l-.02-.04-.08-.15-.05-.08c-.06-.08-.04-.03.02.05.14.17.47.49.86.8.4.32.88.66 1.39.99 1.03.67 2.19 1.32 3.39 1.95l3.75 1.83 3.92 1.71 8.08 3.18 4.11 1.49 2.06.72 1.03.35 1.01.34-2.7 9.45-1.14-.29-1.11-.29-2.2-.6-4.38-1.27-8.72-2.87-8.73-3.54-4.44-2.32-2.31-1.51c-.79-.58-1.61-1.23-2.48-2.15-.44-.47-.89-1-1.35-1.7l-.34-.56-.33-.65-.12-.26-.06-.14-.12-.28-.48-1.11-.46-1.12-.87-2.25-.41-1.13-.39-1.14-.38-1.14-.35-1.15-.66-2.31-1.12-4.68a89.36 89.36 0 0 1-1.42-9.51l-.28-4.83-.03-2.46.03-1.26.03-.65.02-.34.03-.42 12.63 1.04z" class="U"/><g class="Z"><path d="M76.61 241.9a.35.35 0 0 1-.29-.15c-.12-.16-.09-.39.08-.51 2-1.48 3.84-2.42 3.92-2.46.18-.09.4-.02.49.16s.02.4-.16.49c-.02.01-1.87.95-3.81 2.39-.08.06-.15.08-.23.08z"/><path d="M77.69 239.46a.36.36 0 0 1-.36-.34c-.02-.2.14-.38.34-.39l2.65-.11a.36.36 0 1 1 0 .72l-2.59.11c-.03.01-.03.01-.04.01z"/></g><g class="b"><path d="M101.7 261.37c-.03 0-.07 0-.1-.02-.19-.06-.3-.26-.25-.45l3.3-11.09c.06-.19.26-.3.45-.25.19.06.3.26.25.45l-3.3 11.09c-.05.16-.2.27-.35.27z"/><path d="M107.86 259.87c-.04 0-.07-.01-.11-.02l-5.07-1.6a.37.37 0 0 1-.24-.46.37.37 0 0 1 .46-.24l5.07 1.6a.37.37 0 0 1 .24.46c-.05.16-.19.26-.35.26zm-.86-3.95c.09.46-.2.9-.66.99s-.9-.2-.99-.65c-.09-.46.2-.9.66-.99a.82.82 0 0 1 .99.65z"/></g><path d="M83.12 314.55H40.11a1.82 1.82 0 0 1 0-3.64h43.01a1.82 1.82 0 0 1 0 3.64z" class="Y"/><g class="V"><path d="M87.08 342.37a1.82 1.82 0 0 1-1.8-1.58l-7.62-56.92h-31.9l-7.5 56.92a1.82 1.82 0 1 1-3.61-.47l7.71-58.5c.12-.91.89-1.58 1.81-1.58h35.09a1.84 1.84 0 0 1 1.81 1.58l7.83 58.5a1.83 1.83 0 0 1-1.56 2.05h-.26z"/><path d="M69.08 282.05H46.29c-7.22 0-14.95-3.95-16.06-11.09-1.48-9.54-1.85-18.78-1.44-27.26.47-9.59 5.05-18.51 12.59-24.46h0s4.55 19.84-1.17 47.22c2.18 10.42 28.87 15.59 28.87 15.59z"/></g><path d="M109.55 335.78c-1.36-2.19-13.56-13.87-13.56-13.87s-2.49 1.96-2.37 4.11c.12 2.05.04 12.83.07 13.96h1.48l.83-4.92s3.38 5.39 5.91 7.23 11.08 1.5 13.13 1.23c2.05-.28-4.13-5.54-5.49-7.74z" class="U"/><path d="M94.52 316.58l1.62 4.81s-.68 1.57 0 3.9c.69 2.32 3.28 6.01 5.75 8.74 2.13 2.36 6.71 4.71 8.07 4.09 1.37-.62-2.6-5.33-3.77-7.79s-1.64-4.82-2.04-6.9c-.4-2.12-.66-7.33-.66-7.33l-8.97.48z" class="T"/><path d="M145.45 332.01c-2.06-1.55-17.67-7.99-17.67-7.99s-1.61 2.73-.71 4.69c.85 1.87 4.7 11.93 5.14 12.98l1.38-.54-1.02-4.88s5.1 3.79 8.13 4.59 10.87-2.63 12.68-3.63c1.81-1.01-5.86-3.68-7.93-5.22z" class="U"/><path d="M124.48 319.57l3.26 3.89s-.06 1.71 1.42 3.63 5.24 4.41 8.54 6.06c2.85 1.42 7.96 1.95 9.01.88s-4.36-4.02-6.34-5.89-3.28-3.9-4.4-5.69c-1.15-1.83-3.28-6.59-3.28-6.59l-8.21 3.71z" class="T"/><path d="M110.6 260.58c-2.53-2.49-42.74-12.65-55.97-8.96-1.52 2.92 16.85 14.92 21.59 21.75 17.39 2.84 27.09 8.69 27.09 8.69s6.17 14.25 9.83 19.48 10.65 19.74 10.65 19.74l9.82-4.66c-.01.01-16.14-49.27-23.01-56.04z" class="S"/><g class="W"><path d="M121.38 315.66c-.14 0-.28-.08-.33-.22-.08-.18.01-.4.19-.48l9.85-4.26c.18-.08.4.01.48.19s-.01.4-.19.48l-9.85 4.26a.4.4 0 0 1-.15.03z"/><path d="M123.78 314.62c-.14 0-.27-.08-.33-.22-.03-.07-.8-1.75-6.46-11.01-6.16-10.09-12.34-24.64-12.41-24.78-.08-.19.01-.4.19-.48s.4.01.48.19c.06.15 6.22 14.64 12.36 24.69 5.72 9.37 6.47 11.03 6.5 11.1.08.18 0 .4-.19.48a.32.32 0 0 1-.14.03z"/></g><path d="M40.54 248.35s-13.7 30.12 23.93 32.32c16.98.99 25.09-1.64 25.09-1.64s.41 15.02 1.2 21.36 3.15 17.64 3.15 17.64h10.18s4.08-46.3-4.13-51.37c-8.21-5.06-22.45-8.87-42.72-10.81 0-.01-13.72-6.05-16.7-7.5z" class="S"/><g class="W"><path d="M95.17 312.57c-.17 0-.32-.12-.36-.29-1.47-7.27-1.96-16.32-2.36-23.58-.33-6.03-.64-11.72-1.41-12.41-.63-.55-3.23-.12-6.53.43-6.56 1.09-16.47 2.73-27.4.19-5.95-1.39-10.33-4.28-13.01-8.59-4.62-7.45-2.51-16.68-2.49-16.77a.36.36 0 0 1 .71.17c-.02.09-2.06 9.04 2.4 16.22 2.57 4.14 6.8 6.92 12.55 8.26 10.79 2.51 20.61.88 27.11-.2 3.89-.65 6.24-1.04 7.13-.25.96.85 1.23 5.01 1.66 12.91.39 7.25.89 16.26 2.34 23.48.04.2-.09.39-.29.43h-.05z"/><path d="M104.28 312.57l-11.33-.24c-.2 0-.36-.17-.36-.37s.17-.37.37-.36l11.32.24c.2 0 .36.17.36.37a.36.36 0 0 1-.36.36z"/></g><path d="M68.06 263.37h39.08a.69.69 0 0 0 .69-.69v-3.89a.69.69 0 0 0-.69-.69H68.06a.69.69 0 0 0-.69.69v3.89a.69.69 0 0 0 .69.69z" class="Y"/><path d="M112.06 263.37c1.52 0 2.86-1.02 3.25-2.49l7.57-28.34a2.73 2.73 0 0 0-2.64-3.43h-18.12a2.73 2.73 0 0 0-2.63 1.99l-9.07 32.27h21.64z" class="V"/><path d="M99.49 231.1l-8.99 32h-2.07l8.99-32.01a2.72 2.72 0 0 1 2.63-1.99h2.07a2.76 2.76 0 0 0-2.63 2zm5.12 15.6c-.41 1.78.7 3.22 2.48 3.22s3.56-1.44 3.97-3.22-.7-3.22-2.48-3.22-3.56 1.44-3.97 3.22z" class="Y"/><path d="M77.93 232.35c-.02.03-.03.06-.05.09-.18.35-.38.69-.61 1.02-1.32 1.96-3.23 3.47-3.99 4.02l-.33.23v.04l-.03.35-.07 1.67.34 11.62c-11.74 11.43-31.83-1.18-32.66-3.04l.67-14.33c.14-3.41-.25-8.63-1.08-13.92l-.1-.63c-.26-1.56-.55-3.12-.88-4.62-1.45-6.6.23-11.95 4.27-13.74 1.37-.61 5.3-1 7.01-1.02.46-.01.91-.01 1.34-.01a107.36 107.36 0 0 1 4.26.1l11.09 2.26c1.07.34 2.03.66 2.88 1 .75.29 1.42.58 2.02.88 5.36 2.66 5 5.68 4.99 11.24 0 1.59.13 3.17.3 4.71l.19 1.44c.62 4.53 1.5 8.5.44 10.64z" class="U"/><path d="M63.34 211.37a.79.79 0 1 1-.79-.79c.43-.01.79.35.79.79zm.31 3.35a.79.79 0 0 1-1.58 0 .79.79 0 0 1 1.58 0z" class="Z"/><path d="M55.17 200.13s-5.69-.66-5.78 2.7c-.09 3.35 6.32 7.89 11.74 6.43 0 0-6.27-4.34-5.96-9.13zm11.71 2.24s6.43 1.21 6.08 4.79-6.47 4.66-9.43 2.25c0 0 2.85-1.9 3.35-7.04z" class="a"/><path d="M66.89 201.92l-.36 4.01c-.3 3.27-4.21 4.77-6.63 2.56-2.82-2.58-5.18-5.81-4.72-8.35l11.71 1.78z" class="T"/><g class="Z"><path d="M72.96 237.72v.04l-.03.35c-2.12.07-4.74-.37-7.7-1.55-5.83-2.34-11.32-.49-11.37-.47s-.11.02-.16.01c-.1-.02-.2-.1-.23-.2-.06-.16.03-.33.19-.39.23-.08 5.75-1.94 11.81.48 3.07 1.23 5.74 1.64 7.83 1.51l-.34.22zm-7.08-17.04c-3.71-.71-10.26-7.47-10.54-7.75-.12-.12-.12-.32.01-.44.12-.12.32-.12.44.01.07.07 6.69 6.9 10.21 7.57 3.36.64 4.81-2.89 4.83-2.93.06-.16.24-.24.4-.17.16.06.24.24.17.4-.02.05-1.66 4.05-5.52 3.31z"/><path d="M73.38 246.17c-.18 0-.34-.14-.36-.32-.34-2.93-.42-8.03-.42-8.08a.39.39 0 0 1 .21-.34c.03-.02 3.43-1.67 4.79-5.21.07-.19.28-.28.47-.21s.28.28.21.47c-1.28 3.33-4.14 5.06-4.94 5.5l.41 7.78a.36.36 0 0 1-.32.4c-.02.01-.04.01-.05.01z"/></g><path d="M66.12 170.83c-.22 3.86-3.52 6.8-7.38 6.58-1.82-.1-3.43-.89-4.61-2.1a7.01 7.01 0 0 1-1.98-5.28c.22-3.86 3.52-6.8 7.38-6.58a7 7 0 0 1 6.55 6.17 6.93 6.93 0 0 1 .04 1.21z" class="S"/><path d="M66.12 170.83c-.22 3.86-3.52 6.8-7.38 6.58-1.82-.1-3.43-.89-4.61-2.1 1.82-2.36 6-6.61 11.95-5.69a6.93 6.93 0 0 1 .04 1.21z" class="U"/><path d="M76.74 179.81s1.8 5.51-1.17 7.6l-.16-7.54 1.33-.06zm-3.11-5.9s-6.9-6.98-15.27-1.39c-8.51 5.68-7.75 20.46-.2 22.35 0-.01 12.75-10.83 15.47-20.96z" class="S"/><path d="M73.4 188.38s2.06-1.67 2.64.5c.57 2.17-.93 6.06-3.37 4.91l.73-5.41z" class="X"/><path d="M67.55 197.85l-.81 5.46s-4.04 4.21-11.57-3.18c1.98-1.51 2.71-4.98 2.45-7.21 0 0 .59.35 1.51 1.16.18.16.41.28.63.43 1.98 1.32 5.02 3.03 7.79 3.34z" class="T"/><path d="M67.55 197.85l-.38 2.59c-2.25-.97-6.23-3.06-8.04-6.36l.63.43c1.98 1.32 5.02 3.03 7.79 3.34z" class="S"/><path d="M72.64 196.7c-4.93 4.61-14.72-3.51-15.01-3.75-.02-.45-.03-.89-.02-1.33a34.13 34.13 0 0 1 1.57-10.04c.46-3.33 3.01-6.03 6.33-6.57 3.44-.56 6.06 1.41 7.69 2.27 2.46 1.31 3.46 5 2.56 9.83-1.11 5.92-1.76 8.31-3.12 9.59z" class="T"/><path d="M69.22 181.32s.94.28.44 1.09-2.24-.52-3.92.83c-.01 0-.19-2.21 3.48-1.92zm4.33.83s-.97-.09-.81.85c.17.94 2.27.34 3.34 2.22.01 0 .99-1.99-2.53-3.07z" class="S"/><path d="M67.6 188.1c-.09.45-1.07.63-2.21.42-1.13-.22-1.98-.75-1.9-1.2.09-.45 1.07-.63 2.21-.42 1.14.22 1.99.75 1.9 1.2z" class="X"/><g opacity=".8" class="X"><path d="M75.82 190.48c-.16-.01-.33-.04-.5-.07-1.13-.22-1.98-.75-1.9-1.2.09-.45 1.07-.63 2.21-.42l.44.11-.25 1.58z"/></g><path d="M60.1 190.84c-.04.06-1.21 1.78-2.47 2.11l-.01-1.33c.03 0 1.24.02 2.48-.78z" class="S"/><path d="M59.79 186.37s-1.82-3.76-4.11-1.52c-1.89 1.85-.15 7.94 3.14 6.6l.97-5.08z" class="T"/><path d="M58 191.34a.78.78 0 0 1-.91.62.78.78 0 0 1-.62-.91.78.78 0 0 1 .91-.62.77.77 0 0 1 .62.91z" class="a"/><g class="S"><path d="M58.67 190.39c-.13-.02-.22-.14-.21-.27.2-2.54-1.72-3.81-1.8-3.86a.26.26 0 0 1-.08-.35c.08-.12.23-.15.35-.08.09.06 2.26 1.48 2.04 4.34-.01.14-.14.25-.28.24 0-.02-.01-.02-.02-.02z"/><path d="M56.61 188.41a.26.26 0 0 1-.18-.13c-.07-.12-.02-.28.1-.35.12-.06 1.16-.6 1.88-.26.13.06.18.21.12.34s-.21.18-.34.12c-.41-.19-1.16.12-1.42.25-.05.03-.11.04-.16.03zm11.84-2.7c-.12.61-.49 1.06-.83.99s-.53-.62-.41-1.23.49-1.06.83-.99.52.62.41 1.23zm6.06 1.16c-.12.61-.49 1.06-.83.99s-.53-.62-.41-1.23.49-1.06.83-.99c.35.07.53.62.41 1.23zm-4.07 5.29c-1.56-.3-2.72-1.67-2.73-1.69-.09-.11-.08-.27.03-.36s.27-.08.36.03 2.17 2.55 4.36 1.1c.12-.08.28-.05.36.07s.05.28-.07.36a3.03 3.03 0 0 1-2.31.49zM59.3 178.21s2.77 3.7 4.33 3.21-.2-3.7-.2-3.7 4.46 3.64 6.53 3.14-.91-3.48-.91-3.48 3.15 4.1 5.35 4.31.56-2.92.56-2.92 1.25 4.2 2.61 4.12c1.37-.08.66-5.9-3.3-8.59-3.95-2.69-15.02-4.45-14.97 3.91z"/><path d="M62.25 179.59s.34 7.27-1.83 7.68c-2.57.48-2.69-5.27-.92-9.81l2.75 2.13zm9.08 9.1c-.32-.06-.73-.2-1.11-.51-.11-.09-.13-.25-.04-.36s.25-.13.36-.04a2.08 2.08 0 0 0 .99.42l-.38-2.54c-.02-.14.08-.27.22-.29s.27.08.29.22l.42 2.85c.01.07-.01.14-.05.2-.05.06-.11.09-.18.09-.01 0-.22.02-.52-.04z"/></g><path d="M79.27 253.29s8.5-.23 11.37 1.99l-1.59 5.67s-4.68-1.37-6.01-1.04-1.91 2.64-6.58 1.75l2.81-8.37z" class="T"/><path d="M51.81 209.21l-.13.3-.17.42-.34.9-.64 1.87-1.05 3.89c-.61 2.62-1.01 5.29-1.15 7.94l-.06 1.99.03 1.98.13 1.96.23 1.94.32 1.92.43 1.89.54 1.86.31.92.04.11.02.05-.02-.05c-.03-.07-.05-.11-.08-.15-.04-.07-.07-.11-.08-.12-.02-.01.03.06.12.18a3.69 3.69 0 0 0 .4.41c.33.32.77.67 1.25 1.03.97.72 2.12 1.43 3.31 2.13 2.4 1.39 5.01 2.68 7.66 3.92l8.14 3.55 4.15 1.68 2.08.81 1.04.4 1.02.38-3.03 9.35-1.15-.34-1.14-.33-2.23-.7-4.43-1.46-8.81-3.27-8.8-3.99c-1.48-.77-2.96-1.61-4.48-2.64l-2.35-1.78-1.24-1.18a13.74 13.74 0 0 1-1.31-1.6l-.66-1.1-.31-.67-.07-.18-.03-.09-.06-.15-.47-1.23-.83-2.5-.68-2.54-.54-2.56c-.61-3.43-.85-6.91-.74-10.34.1-3.43.53-6.82 1.22-10.15a60.71 60.71 0 0 1 1.28-4.94 58.45 58.45 0 0 1 .81-2.45l.47-1.24c.08-.21.17-.42.26-.64l.14-.33.08-.18.11-.24 11.49 5.36z" class="U"/><g class="Z"><path d="M46.07 241.63c-.12 0-.23-.06-.3-.16-.11-.17-.07-.39.09-.51 2.05-1.41 4.83-2.66 4.95-2.71.18-.08.4 0 .48.18s0 .4-.18.48c-.03.01-2.84 1.28-4.84 2.65-.06.05-.13.07-.2.07z"/><path d="M47.23 239.23a.36.36 0 0 1-.36-.33.37.37 0 0 1 .33-.4c.08-.01 2.06-.2 3.58-.19.2 0 .36.17.36.37s-.17.36-.37.36a37.33 37.33 0 0 0-3.5.19h-.04z"/><path d="M72.27 250.75a.4.4 0 0 1-.15-.03c-12.63-5.88-20.8-11.4-21.17-11.92a.35.35 0 0 1-.06-.14c-.16-.81-3.85-19.91-1.43-26.85.07-.19.27-.29.46-.22s.29.27.22.46c-2.26 6.49 1.14 24.78 1.44 26.36.82.72 8.78 6.03 20.84 11.65.18.08.26.3.18.48-.06.13-.19.21-.33.21z"/><path d="M49.36 215.37c-.09 0-.18-.03-.26-.1-.14-.14-.15-.37 0-.52l1.57-1.61c.14-.14.37-.15.52 0 .14.14.15.37 0 .52l-1.57 1.61a.4.4 0 0 1-.26.1zm21.38 45.73a.5.5 0 0 1-.12-.02c-.19-.06-.29-.27-.23-.46l3.06-9.11c.06-.19.27-.29.46-.23s.29.27.23.46l-3.06 9.11c-.04.15-.18.25-.34.25z"/><path d="M76.67 260.68c-.04 0-.08-.01-.12-.02l-5.01-1.78c-.19-.07-.29-.28-.22-.47s.28-.29.47-.22l5.01 1.78c.19.07.29.28.22.47-.06.15-.2.24-.35.24zm-.73-3.98a.842.842 0 1 1-1.66.28.84.84 0 0 1 .69-.97c.45-.08.89.23.97.69z"/></g><path d="M74.87 307.36l-.03 32.52a2.32 2.32 0 0 1-2.32 2.32l-52.93-.06a2.32 2.32 0 0 1-2.32-2.32l.03-32.52a2.32 2.32 0 0 1 2.32-2.32l52.93.06a2.32 2.32 0 0 1 2.32 2.32z" class="e"/><path d="M74.85 324.99l.02-17.63a2.32 2.32 0 0 0-2.32-2.32l-52.93-.06c-1.28 0-2.32 1.03-2.32 2.32l-.02 17.63 57.57.06z" class="f"/><path d="M54.26 299.86l-.01 5.16h-2.62v-5.01h-2.54-.13-1.54-.19l-6.7-.01-.01 5.01H37.9l.01-5.16c0-1.36 1.11-2.47 2.47-2.47l6.28.01h.47.88.18 3.58a2.48 2.48 0 0 1 2.49 2.47z" class="c"/><path d="M31.76 322.37l-.01 5.15a.5.5 0 0 1-.5.5h-2.64a.5.5 0 0 1-.5-.5l.01-5.15a.51.51 0 0 1 .5-.51h2.64c.27.01.5.23.5.51z" fill="#e07f20"/><path d="M31.76 322.37v2.57h-3.65v-2.57a.51.51 0 0 1 .5-.51h2.64c.28.01.51.23.51.51z" class="c"/><path d="M64.03 322.41l-.01 5.15a.5.5 0 0 1-.5.5h-2.65a.5.5 0 0 1-.5-.5l.01-5.15a.51.51 0 0 1 .5-.51h2.65a.51.51 0 0 1 .5.51z" fill="#e07f20"/><path d="M64.03 322.41v2.57h-3.65v-2.57a.51.51 0 0 1 .5-.51h2.65a.51.51 0 0 1 .5.51z" class="c"/><defs ><path id="B" d="M248.17 259.48h-24.72c-.75 0-1.39.57-1.42 1.32a1.38 1.38 0 0 0 1.38 1.45h24.76c.76 0 1.38-.62 1.38-1.38h0c.01-.77-.61-1.39-1.38-1.39z"/><path id="C" d="M249.56 266.8c0-.76-.62-1.38-1.38-1.38h-24.76c-.76 0-1.38.62-1.38 1.38h0c0 .76.62 1.38 1.38 1.38h24.76c.76 0 1.38-.62 1.38-1.38h0z"/><path id="D" d="M248.3 197.29h-16.41c-.75 0-1.39.57-1.42 1.32a1.38 1.38 0 0 0 1.38 1.45h16.45c.76 0 1.38-.62 1.38-1.38h0c0-.77-.62-1.39-1.38-1.39z"/><path id="E" d="M81.96 157.63c2.54-1.07 4.79-2.56 6.91-4.18v11.88a1.03 1.03 0 0 1-1.03 1.03h-4.86a1.03 1.03 0 0 1-1.03-1.03v-7.7z"/><path id="F" d="M196.29 332.26a.48.48 0 0 1-.47-.38c-.06-.26.1-.53.36-.59l1.87-.44c.26-.06.53.1.59.36s-.1.53-.36.59l-1.87.44c-.04.02-.08.02-.12.02z"/><path id="G" d="M194.25 330.64a.48.48 0 0 1-.47-.38c-.06-.26.1-.53.36-.59l1.87-.44c.26-.06.53.1.59.36s-.1.53-.36.59l-1.87.44a.5.5 0 0 1-.12.02z"/><path id="H" d="M318.99 170.76c0 .44.36.8.8.8s.8-.36.8-.8-.36-.8-.8-.8-.8.36-.8.8z"/><path id="I" d="M326.38 128.98c0 .61.28 1.11.62 1.11s.62-.5.62-1.11-.28-1.11-.62-1.11c-.34-.01-.62.49-.62 1.11z"/></defs></svg>