<svg width="298" height="159" viewBox="0 0 298 159" fill="none" xmlns="http://www.w3.org/2000/svg">
<path d="M1.84229 73.0083C1.01845 73.0954 0.421212 73.8339 0.508314 74.6577C0.595416 75.4815 1.33388 76.0788 2.15771 75.9917L1.84229 73.0083ZM191 128L190.017 129.133L191 128ZM297.092 12.0287C297.66 11.4259 297.632 10.4765 297.029 9.90836L287.204 0.649632C286.601 0.0814705 285.652 0.109629 285.084 0.712525C284.515 1.31542 284.544 2.26475 285.146 2.83291L293.88 11.0629L285.65 19.796C285.081 20.3989 285.11 21.3482 285.713 21.9164C286.315 22.4846 287.265 22.4564 287.833 21.8535L297.092 12.0287ZM2.15771 75.9917C3.09019 75.8931 4.05582 75.8 5.05334 75.7131L4.79282 72.7244C3.7777 72.8129 2.79375 72.9077 1.84229 73.0083L2.15771 75.9917ZM10.91 75.2971C12.7861 75.1921 14.7458 75.1077 16.7829 75.0469L16.6934 72.0482C14.631 72.1098 12.6453 72.1953 10.7423 72.3018L10.91 75.2971ZM22.6846 74.9405C24.5963 74.928 26.5631 74.9357 28.5807 74.9655L28.6251 71.9659C26.5863 71.9357 24.5981 71.9279 22.6649 71.9406L22.6846 74.9405ZM34.4604 75.1122C36.3836 75.1794 38.3456 75.2666 40.3432 75.3751L40.5059 72.3795C38.4889 72.2699 36.5076 72.1819 34.5652 72.1141L34.4604 75.1122ZM46.2234 75.7505C48.1538 75.892 50.1126 76.0534 52.0973 76.236L52.3722 73.2486C50.3688 73.0643 48.3914 72.9013 46.4426 72.7585L46.2234 75.7505ZM57.9623 76.8302C59.8933 77.0438 61.8453 77.2776 63.816 77.5325L64.2009 74.5573C62.2116 74.3 60.2413 74.064 58.2922 73.8484L57.9623 76.8302ZM69.6564 78.343C71.5834 78.6287 73.5256 78.9348 75.4811 79.2623L75.9766 76.3035C74.0023 75.9729 72.0416 75.6638 70.0964 75.3754L69.6564 78.343ZM81.2879 80.2913C83.2034 80.6497 85.1295 81.0288 87.0644 81.4295L87.6728 78.4919C85.7187 78.0871 83.7737 77.7043 81.8395 77.3425L81.2879 80.2913ZM92.818 82.6801C94.7214 83.1136 96.6316 83.5685 98.5467 84.0454L99.2717 81.1343C97.3366 80.6524 95.4069 80.1929 93.4842 79.755L92.818 82.6801ZM104.247 85.5275C106.134 86.039 108.024 86.5726 109.916 87.1288L110.762 84.2506C108.85 83.6883 106.939 83.149 105.032 82.632L104.247 85.5275ZM115.549 88.8518C117.414 89.4447 119.279 90.0603 121.143 90.6993L122.116 87.8615C120.231 87.2151 118.344 86.5924 116.458 85.9928L115.549 88.8518ZM126.687 92.6718C128.522 93.3489 130.354 94.0493 132.182 94.7738L133.287 91.9849C131.437 91.2515 129.582 90.5425 127.726 89.8573L126.687 92.6718ZM137.624 97.0089C139.425 97.7748 141.22 98.5649 143.009 99.3799L144.253 96.6501C142.441 95.8243 140.622 95.0239 138.798 94.2482L137.624 97.0089ZM148.33 101.89C150.089 102.748 151.839 103.632 153.58 104.541L154.969 101.882C153.203 100.96 151.428 100.064 149.645 99.1937L148.33 101.89ZM158.751 107.334C160.458 108.288 162.154 109.267 163.839 110.273L165.377 107.698C163.668 106.677 161.946 105.682 160.214 104.715L158.751 107.334ZM168.837 113.362C170.485 114.414 172.12 115.494 173.74 116.601L175.432 114.124C173.786 112.999 172.126 111.903 170.452 110.834L168.837 113.362ZM178.538 119.992C180.114 121.144 181.675 122.324 183.219 123.532L185.068 121.17C183.498 119.941 181.911 118.742 180.308 117.57L178.538 119.992ZM187.78 127.225C188.53 127.854 189.276 128.49 190.017 129.133L191.983 126.867C191.229 126.213 190.47 125.566 189.707 124.926L187.78 127.225ZM190.017 129.133C190.856 129.861 191.659 130.573 192.427 131.269L194.442 129.046C193.657 128.335 192.838 127.608 191.983 126.867L190.017 129.133ZM196.709 135.347C198.253 136.902 199.59 138.359 200.733 139.72L203.03 137.791C201.825 136.356 200.431 134.838 198.838 133.234L196.709 135.347ZM204.221 144.513C205.467 146.599 206.048 148.275 206.172 149.582L209.159 149.3C208.978 147.39 208.173 145.279 206.797 142.975L204.221 144.513ZM204.391 153.397C203.25 154.162 201.535 154.724 199.233 155.003L199.594 157.981C202.139 157.673 204.375 157.019 206.061 155.889L204.391 153.397ZM193.44 155.142C191.597 155.047 189.604 154.839 187.488 154.521L187.042 157.487C189.239 157.818 191.331 158.038 193.286 158.138L193.44 155.142ZM181.559 153.412C179.661 152.994 177.7 152.505 175.693 151.949L174.892 154.84C176.948 155.41 178.96 155.911 180.913 156.342L181.559 153.412ZM169.895 150.198C168.008 149.582 166.096 148.913 164.17 148.195L163.122 151.006C165.085 151.738 167.037 152.42 168.964 153.05L169.895 150.198ZM158.525 145.96C156.672 145.184 154.817 144.365 152.972 143.506L151.706 146.225C153.587 147.102 155.477 147.936 157.366 148.728L158.525 145.96ZM147.529 140.836C145.732 139.909 143.955 138.945 142.207 137.946L140.718 140.55C142.504 141.571 144.319 142.556 146.153 143.502L147.529 140.836ZM137.019 134.819C135.3 133.726 133.623 132.599 131.999 131.442L130.257 133.885C131.927 135.075 133.648 136.231 135.409 137.351L137.019 134.819ZM127.191 127.794C125.603 126.509 124.086 125.192 122.653 123.848L120.601 126.036C122.091 127.434 123.663 128.798 125.303 130.126L127.191 127.794ZM118.469 119.569C117.112 118.044 115.87 116.493 114.759 114.919L112.308 116.649C113.49 118.324 114.804 119.964 116.229 121.564L118.469 119.569ZM111.702 109.877C110.797 108.091 110.07 106.286 109.54 104.465L106.659 105.305C107.247 107.32 108.045 109.298 109.026 111.233L111.702 109.877ZM108.541 98.7945C108.428 96.9065 108.537 94.9988 108.89 93.0739L105.939 92.5332C105.542 94.6987 105.419 96.8479 105.546 98.9729L108.541 98.7945ZM110.568 87.559C111.288 85.8727 112.208 84.1685 113.347 82.4498L110.847 80.7924C109.614 82.6524 108.605 84.5163 107.809 86.3809L110.568 87.559ZM116.937 77.8121C117.601 77.0635 118.308 76.3129 119.061 75.5607L116.939 73.4393C116.147 74.2321 115.398 75.0262 114.693 75.8214L116.937 77.8121ZM119.061 75.5607C119.76 74.861 120.469 74.1685 121.187 73.483L119.115 71.3132C118.381 72.0144 117.656 72.7231 116.939 73.4393L119.061 75.5607ZM125.587 69.4658C127.079 68.1626 128.604 66.8867 130.159 65.6376L128.281 63.2985C126.694 64.5728 125.137 65.8753 123.614 67.2065L125.587 69.4658ZM134.884 61.9933C136.478 60.8122 138.1 59.6568 139.747 58.5267L138.049 56.053C136.373 57.2032 134.722 58.3796 133.098 59.583L134.884 61.9933ZM144.731 55.2311C146.406 54.1633 148.105 53.1197 149.824 52.0999L148.293 49.5198C146.548 50.5554 144.822 51.6157 143.119 52.7012L144.731 55.2311ZM155.012 49.1271C156.753 48.1636 158.512 47.223 160.286 46.3049L158.908 43.6403C157.109 44.571 155.325 45.5248 153.559 46.5023L155.012 49.1271ZM165.639 43.6263C167.433 42.7574 169.241 41.9105 171.061 41.0849L169.821 38.3529C167.979 39.1885 166.149 40.0461 164.331 40.9261L165.639 43.6263ZM176.545 38.675C178.383 37.8929 180.23 37.1317 182.085 36.391L180.972 33.6049C179.097 34.3537 177.229 35.1234 175.37 35.9145L176.545 38.675ZM187.675 34.2279C189.549 33.5254 191.428 32.8433 193.31 32.1808L192.314 29.351C190.413 30.02 188.515 30.7091 186.622 31.4188L187.675 34.2279ZM198.985 30.2456C200.888 29.6169 202.792 29.0079 204.695 28.4182L203.807 25.5526C201.887 26.1477 199.965 26.7624 198.044 27.397L198.985 30.2456ZM210.44 26.6942C212.37 26.1337 214.297 25.5925 216.218 25.0702L215.431 22.1753C213.493 22.702 211.55 23.2478 209.603 23.8133L210.44 26.6942ZM222.023 23.5441C223.975 23.0481 225.92 22.5714 227.853 22.1134L227.162 19.1942C225.213 19.6558 223.253 20.1363 221.284 20.6364L222.023 23.5441ZM233.706 20.7764C235.678 20.3421 237.637 19.9274 239.579 19.5315L238.979 16.592C237.023 16.9909 235.049 17.4089 233.061 17.8466L233.706 20.7764ZM245.47 18.3777C247.462 18.0036 249.432 17.6495 251.378 17.3148L250.869 14.3582C248.909 14.6955 246.923 15.0523 244.916 15.4293L245.47 18.3777ZM257.3 16.3431C259.31 16.0292 261.289 15.7364 263.233 15.464L262.816 12.493C260.857 12.7676 258.863 13.0627 256.837 13.379L257.3 16.3431ZM269.172 14.6801C271.211 14.4279 273.204 14.1988 275.146 13.992L274.828 11.0089C272.869 11.2175 270.86 11.4485 268.804 11.7028L269.172 14.6801ZM281.129 13.4093C283.193 13.2276 285.186 13.0728 287.1 12.9434L286.898 9.95028C284.963 10.0811 282.95 10.2375 280.866 10.4209L281.129 13.4093ZM293.08 12.6085C294.098 12.564 295.087 12.5277 296.044 12.4993L295.956 9.50066C294.983 9.52949 293.981 9.56629 292.949 9.61135L293.08 12.6085Z" fill="white"/>
</svg>
