<svg width="133" height="123" viewBox="0 0 133 123" fill="none" xmlns="http://www.w3.org/2000/svg">
<path d="M49.035 103.619C47.8261 104.546 46.2557 105.024 44.1135 104.812C37.7617 104.149 28.8033 97.6349 22.8363 91.1776C22.584 90.8988 22.331 90.6201 22.0591 90.3428C21.8674 90.1 21.6371 89.8586 21.4455 89.6158C21.2137 89.3553 21.0016 89.0942 20.7887 88.8322C18.879 86.4975 17.4852 84.2865 16.839 82.4582C16.7693 82.2856 16.6981 82.0931 16.6671 81.9182C16.6451 81.88 16.6428 81.8411 16.6413 81.8212C16.5906 81.6471 16.5406 81.4737 16.53 81.3164C16.4406 80.8498 16.4338 80.4366 16.4868 80.0593C16.53 79.8203 16.5731 79.5812 16.6557 79.359L22.1568 78.6602C22.1439 78.7594 22.1121 78.8801 22.0992 78.9794C21.1614 84.9678 38.3366 101.886 49.035 103.619V103.619Z" fill="#2A9F6C"/>
<path d="M83.3559 103.483C82.8037 109.702 75.633 119.234 59.7244 121.154C71.722 117.957 77.2571 109.991 77.7435 104.564C78.4722 96.5606 66.2943 87.4044 58.8282 88.5095C60.5577 88.0795 63.9195 87.5227 64.4422 87.4487C71.9075 86.3245 84.0854 95.4807 83.3567 103.484L83.3559 103.483Z" fill="#2A9F6C"/>
<path d="M77.7435 104.563C77.2571 109.991 71.722 117.958 59.7244 121.154C55.1141 121.735 49.7585 121.656 43.6196 120.665C21.3978 117.116 3.97259 91.8658 5.75503 72.7674C7.00872 59.335 7.74048 51.9819 13.4772 49.5143L13.6484 49.444C15.0187 48.9003 21.0107 47.9326 22.4015 47.9983C23.44 48.0479 24.4892 48.2732 25.4922 48.6795C33.5946 51.9429 39.8986 65.0721 34.8036 67.7917C34.8036 67.7917 23.465 72.717 22.1545 78.671L16.6534 79.3698C16.5701 79.592 16.5269 79.8311 16.4838 80.0701C16.4307 80.4474 16.4375 80.8606 16.5269 81.3272C16.5368 81.4838 16.5875 81.6579 16.6383 81.832C16.6398 81.8519 16.6421 81.8908 16.664 81.929C16.6951 82.1039 16.7663 82.2964 16.836 82.469C17.4822 84.2966 18.876 86.5083 20.7857 88.843C20.9978 89.105 21.2107 89.3662 21.4417 89.6266C21.5493 89.777 21.697 89.9443 21.8243 90.0932C21.8886 90.1872 21.9727 90.2803 22.0561 90.3536C22.328 90.6309 22.5803 90.9096 22.8333 91.1884C28.8002 97.6449 37.7594 104.16 44.1104 104.822C46.2527 105.035 47.823 104.557 49.0328 103.63C49.2706 103.693 49.507 103.717 49.7236 103.742C59.3971 104.735 52.656 92.0881 57.8117 88.7934C57.9435 88.7254 58.0965 88.6757 58.251 88.646C58.4419 88.5742 58.6351 88.5421 58.8282 88.5093C66.2943 87.4041 78.4722 96.5612 77.7435 104.563Z" fill="#2A9F6C"/>
<path d="M77.7435 104.563C77.2571 109.99 71.7219 117.958 59.7244 121.154C54.0051 122.694 46.8284 123.15 38.0071 121.746C15.7853 118.197 -1.63986 92.9465 0.122886 73.8488C1.44324 59.6443 7.25567 51.4419 13.4772 49.5143C15.6012 48.8422 17.7943 48.9331 19.8797 49.7594C21.8455 50.5545 23.6915 51.9093 25.3043 53.5742C25.3884 53.6674 25.4709 53.7399 25.5361 53.8346C27.7586 56.1686 29.4684 59.028 30.3607 61.6468C30.4812 61.9935 30.5834 62.3609 30.6827 62.6885C30.7652 63.0574 30.8258 63.3881 30.8864 63.7188C30.947 64.0495 30.9872 64.3618 31.0076 64.6757C31.1319 66.5774 30.588 68.1293 29.1911 68.8716C29.1911 68.8716 18.3276 73.5884 16.6534 79.3697C16.5701 79.592 16.5269 79.831 16.4838 80.0701C16.4307 80.4474 16.4375 80.8605 16.5269 81.3272C16.5368 81.4837 16.5875 81.6579 16.6383 81.832C16.6398 81.8518 16.6421 81.8908 16.664 81.929C16.6951 82.1039 16.7451 82.278 16.836 82.4689C17.4822 84.2965 18.876 86.5083 20.7857 88.843C20.9789 89.1057 21.191 89.3677 21.4417 89.6266C21.5493 89.777 21.697 89.9443 21.8243 90.0932C21.8886 90.1871 21.9727 90.2803 22.0561 90.3536C22.328 90.6308 22.5803 90.9096 22.8333 91.1884C28.8002 97.6449 37.7594 104.16 44.1104 104.822C46.2527 105.035 47.823 104.557 49.0328 103.63C53.5559 100.219 52.9741 90.6889 57.8116 88.7933C57.9435 88.7254 58.0965 88.6757 58.251 88.6459C58.4419 88.5741 58.6351 88.5421 58.8282 88.5092C66.2943 87.4041 78.4722 96.5612 77.7435 104.563Z" fill="url(#paint0_linear_273_748)"/>
<g opacity="0.63">
<path d="M73.7513 95.3584C76.1466 98.0658 77.6662 101.2 77.395 104.177C76.667 112.179 64.9679 125.727 37.648 121.365C28.6639 119.93 20.4653 114.946 14.0014 108.256C20.519 115.133 28.8517 120.279 38.0026 121.74C65.3224 126.103 77.0215 112.555 77.7495 104.552C78.0328 101.435 76.3451 98.1498 73.7521 95.3584H73.7513Z" fill="url(#paint1_linear_273_748)"/>
<path d="M31.0092 64.6665C31.1334 66.5681 30.5895 68.12 29.1926 68.8624C29.1926 68.8624 18.3291 73.5791 16.6549 79.3605C16.5716 79.5828 16.5292 79.8218 16.486 80.0608C16.4322 80.4381 16.4398 80.8513 16.5292 81.3179C16.539 81.4745 16.5898 81.6486 16.6406 81.8228C16.6421 81.8426 16.6443 81.8816 16.6663 81.9197C16.6974 82.0946 16.7686 82.2871 16.8383 82.4597C17.4844 84.2873 18.879 86.499 20.788 88.8337C21.0008 89.0957 21.2129 89.3569 21.4447 89.6173C21.6364 89.861 21.8667 90.1015 22.0583 90.3444C21.975 90.2711 21.8909 90.1787 21.8265 90.084C18.1609 85.9751 15.7732 81.9984 16.13 79.6912C16.1429 79.5919 16.1573 79.5125 16.1898 79.4117C17.4397 73.4218 28.8366 68.4927 28.8366 68.4927C32.5537 66.4941 30.2122 59.0294 25.5376 53.8262C27.7602 56.1601 29.4691 59.0195 30.3622 61.6383C30.4827 61.985 30.5849 62.3524 30.6842 62.68C30.7667 63.0489 30.8273 63.3796 30.8879 63.7103C30.9486 64.041 30.9887 64.3533 31.0092 64.6672V64.6665Z" fill="url(#paint2_linear_273_748)"/>
</g>
<path d="M94.024 41.4628C94.024 29.1279 79.6456 19.1284 61.9091 19.1284C44.1718 19.1284 29.7933 29.1278 29.7933 41.462C29.7933 51.8433 39.9926 60.5444 53.793 63.0486C54.2013 65.9829 54.3248 70.0443 52.906 73.8095C50.291 80.7456 48.2359 82.4411 48.2359 82.4411C48.2359 82.4411 48.8449 84.9362 50.5524 84.2206C53.6885 82.9062 59.3858 77.4036 63.7392 72.6486C66.7011 69.4135 68.1389 66.034 68.8229 63.264C83.2332 61.063 94.024 52.145 94.024 41.4628Z" fill="#2A9F6C"/>
<path d="M96.3405 43.242C96.3405 30.9071 81.9621 20.9077 64.2256 20.9077C46.4883 20.9077 32.1098 30.9071 32.1098 43.2413C32.1098 53.6226 42.3091 62.3237 56.1095 64.8279C56.5178 67.7622 56.6413 71.8236 55.2225 75.5888C52.6075 82.5249 50.5524 84.2204 50.5524 84.2204C50.5524 84.2204 59.3312 81.7719 66.0557 74.4279C69.0176 71.1928 70.4554 67.8133 71.1394 65.0433C85.5497 62.8423 96.3405 53.9243 96.3405 43.242Z" fill="url(#paint3_linear_273_748)"/>
<path d="M130.334 22.3343C130.334 9.99943 115.956 0 98.2191 0C80.4826 0 66.1042 9.99943 66.1042 22.3343C66.1042 31.2569 73.646 38.9346 84.5217 42.5127C84.399 44.949 84.5846 48.0298 85.5921 51.6376C88.4244 61.7768 102.188 69.6646 102.188 69.6646C102.188 69.6646 93.3642 55.2829 99.919 44.6091C116.861 43.9905 130.335 34.2706 130.335 22.3351L130.334 22.3343Z" fill="#2A9F6C"/>
<path d="M132.962 24.1117C132.962 11.7768 118.583 1.77734 100.847 1.77734C83.1105 1.77734 68.732 11.7768 68.732 24.1117C68.732 33.0343 76.2739 40.712 87.1495 44.29C87.0268 46.7263 87.2124 49.8072 88.2199 53.415C91.0523 63.5542 104.816 71.4419 104.816 71.4419C104.816 71.4419 95.992 57.0602 102.547 46.3864C119.489 45.7678 132.963 36.0479 132.963 24.1124L132.962 24.1117Z" fill="url(#paint4_linear_273_748)"/>
<path d="M91.753 15.1592H118.219" stroke="#E6E7E8" stroke-width="2" stroke-linecap="round" stroke-linejoin="round"/>
<path d="M83.4756 20.187H118.219" stroke="#E6E7E8" stroke-width="2" stroke-linecap="round" stroke-linejoin="round"/>
<path d="M83.4756 25.2144H118.219" stroke="#E6E7E8" stroke-width="2" stroke-linecap="round" stroke-linejoin="round"/>
<path d="M83.4756 30.2422H111.807" stroke="#E6E7E8" stroke-width="2" stroke-linecap="round" stroke-linejoin="round"/>
<path d="M56.6306 43.3208C57.3753 42.106 57.0023 40.5124 55.7973 39.7615C54.5923 39.0106 53.0117 39.3867 52.2669 40.6016C51.5221 41.8164 51.8952 43.41 53.1002 44.1609C54.3051 44.9118 55.8858 44.5357 56.6306 43.3208Z" fill="white"/>
<path d="M64.2788 42.9485C64.821 41.629 64.1995 40.1163 62.8907 39.5698C61.582 39.0232 60.0815 39.6498 59.5394 40.9693C58.9973 42.2888 59.6188 43.8015 60.9276 44.348C62.2363 44.8946 63.7367 44.268 64.2788 42.9485Z" fill="white"/>
<path d="M71.3561 43.6053C72.2543 42.5009 72.0944 40.8715 70.999 39.9659C69.9035 39.0604 68.2874 39.2216 67.3892 40.326C66.491 41.4304 66.6509 43.0598 67.7463 43.9653C68.8418 44.8709 70.4579 44.7097 71.3561 43.6053Z" fill="white"/>
<defs>
<linearGradient id="paint0_linear_273_748" x1="45.6251" y1="75.8364" x2="21.8347" y2="110.419" gradientUnits="userSpaceOnUse">
<stop stop-color="#57CC99"/>
<stop offset="1" stop-color="white"/>
</linearGradient>
<linearGradient id="paint1_linear_273_748" x1="56.9847" y1="91.3564" x2="36.4979" y2="121.137" gradientUnits="userSpaceOnUse">
<stop stop-color="white"/>
<stop offset="1" stop-color="#BC5757"/>
</linearGradient>
<linearGradient id="paint2_linear_273_748" x1="30.3404" y1="62.4218" x2="15.9424" y2="83.3515" gradientUnits="userSpaceOnUse">
<stop stop-color="white"/>
<stop offset="1" stop-color="#BC5757"/>
</linearGradient>
<linearGradient id="paint3_linear_273_748" x1="88.3139" y1="69.2613" x2="40.9141" y2="37.269" gradientUnits="userSpaceOnUse">
<stop stop-color="white"/>
<stop offset="1" stop-color="#57CC99"/>
</linearGradient>
<linearGradient id="paint4_linear_273_748" x1="68.732" y1="36.61" x2="132.962" y2="36.61" gradientUnits="userSpaceOnUse">
<stop stop-color="#57CC99"/>
<stop offset="1" stop-color="white"/>
</linearGradient>
</defs>
</svg>
