<svg width="30" height="30" viewBox="0 0 30 30" fill="none" xmlns="http://www.w3.org/2000/svg">
<rect width="30" height="30" rx="5" fill="white"/>
<path d="M6.08041 13.8849L6.06439 16.4889H12.9185V13.8849H6.08041Z" fill="#074568"/>
<path d="M4.94064 13.8593V20.4073H7.9046V12.9521C6.90172 13.0921 5.92132 13.3945 4.94064 13.8593Z" fill="#074568"/>
<path d="M11.2809 12.9521V20.4073H14.2449V13.8593C13.2645 13.3945 12.2838 13.0921 11.2809 12.9521Z" fill="#074568"/>
<path d="M16.7164 7.91616L10.1872 10.779C9.74454 10.9732 9.24113 10.9732 8.79843 10.779L2.26646 7.91616L8.89203 5.46172C9.27992 5.3181 9.70632 5.3181 10.0939 5.46172L16.7164 7.91616Z" fill="#57CC99"/>
<path d="M14.2364 9.54291V13.4614C14.2364 13.4614 14.2334 13.4614 14.23 13.4583C14.2266 13.4552 14.2173 13.4518 14.2078 13.4487C14.0678 13.3723 13.3547 13.0254 12.2689 12.7548C12.1767 12.7326 12.0842 12.7101 11.9887 12.6848C11.4155 12.5479 10.938 12.4841 10.5625 12.4588C8.96426 12.306 6.99054 12.4619 4.94035 13.4616V9.54319L9.14275 11.3546C9.42608 11.4754 9.75072 11.4754 10.034 11.3546L14.2364 9.54319V9.54291Z" fill="#57CC99"/>
<path d="M14.2494 12.1469L14.2367 13.4617C14.2367 13.4617 14.2336 13.4617 14.2303 13.4586C14.2269 13.4555 14.2176 13.4521 14.2081 13.449C14.0681 13.3726 13.355 13.0258 12.2692 12.7551C12.177 12.7329 12.0845 12.7104 11.9889 12.6851C11.4158 12.5483 10.9383 12.4845 10.5628 12.4592C8.96455 12.3063 6.99082 12.4623 4.94064 13.462V12.1472H14.2494V12.1469Z" fill="#57CC99"/>
<path d="M26.3844 21.6749C25.8017 22.1094 24.9753 21.9767 24.5576 21.382L23.0168 19.1867L21.1861 16.6752L21.0324 16.4641C20.6091 15.8832 20.7423 15.0684 21.3289 14.6527L21.3331 14.6496C21.9096 14.241 22.7076 14.3722 23.1227 14.9442L23.4432 15.3857L25.2547 17.875L26.6705 19.9031C27.0693 20.4742 26.9423 21.2586 26.3841 21.6752L26.3844 21.6749Z" fill="#074568"/>
<path d="M26.8178 13.0016C26.5471 12.3425 26.162 11.7697 25.6589 11.2826C25.1527 10.7925 24.5669 10.4136 23.892 10.1463C23.2172 9.87569 22.4785 9.74219 21.6698 9.74219C20.8612 9.74219 20.1194 9.87597 19.4415 10.1463C18.7635 10.4136 18.1744 10.7925 17.6746 11.2826C17.1748 11.7697 16.7895 12.3428 16.5157 13.0016C16.2419 13.6604 16.1051 14.3894 16.1051 15.1854C16.1051 15.9813 16.2419 16.7005 16.5157 17.3627C16.7895 18.0279 17.1748 18.6041 17.6746 19.0912C18.1744 19.5813 18.7635 19.9602 19.4415 20.2275C20.1194 20.4981 20.8612 20.6316 21.6698 20.6316C22.3003 20.6316 22.8892 20.549 23.4367 20.3866C23.5927 20.3388 23.7422 20.2879 23.892 20.2275C24.5669 19.9602 25.1527 19.5813 25.6589 19.0912C25.6654 19.0847 25.6685 19.0816 25.6749 19.0752C26.1716 18.5912 26.5505 18.0215 26.8178 17.3627C27.0851 16.7005 27.222 15.9748 27.222 15.1854C27.222 14.3959 27.0851 13.6606 26.8178 13.0016ZM23.4814 17.1238C23.2523 17.3689 22.9816 17.5566 22.6727 17.6839C22.3638 17.8143 22.0296 17.8781 21.6698 17.8781C21.6476 17.8781 21.6251 17.8781 21.6063 17.8751C21.2592 17.872 20.941 17.8082 20.6512 17.6839C20.3423 17.5566 20.075 17.3689 19.8456 17.1238C19.6166 16.8787 19.4381 16.5923 19.3141 16.2643C19.1899 15.9332 19.1264 15.5769 19.1264 15.1851C19.1264 14.7933 19.1902 14.4274 19.3141 14.1027C19.4384 13.7781 19.6166 13.4948 19.8456 13.2497C20.075 13.0047 20.3423 12.8169 20.6512 12.6896C20.9601 12.5592 21.3008 12.4923 21.6698 12.4923C22.0389 12.4923 22.3638 12.5592 22.6727 12.6896C22.9816 12.8169 23.252 13.0047 23.4814 13.2497C23.7107 13.4948 23.8856 13.7812 24.0132 14.1092C24.1374 14.4372 24.1979 14.7967 24.1979 15.1851C24.1979 15.5735 24.1374 15.9332 24.0132 16.2643C23.9685 16.3756 23.9207 16.4841 23.8636 16.5859C23.7585 16.7832 23.6312 16.9616 23.4817 17.1238H23.4814Z" fill="#074568"/>
<path d="M28.0939 24.253L23.8426 22.4809C23.7664 22.4492 23.7869 22.3362 23.8693 22.3331L25.6386 22.2682C26.2995 22.244 26.8824 21.8286 27.1208 21.212L27.7599 19.5594C27.7897 19.4824 27.9033 19.5001 27.9084 19.5821L28.1998 24.1768C28.2035 24.2336 28.1461 24.2746 28.0936 24.2527L28.0939 24.253Z" fill="#57CC99"/>
</svg>
