<svg width="140" height="47" viewBox="0 0 140 47" fill="none" xmlns="http://www.w3.org/2000/svg">
<path d="M125.982 45.5436C126.359 45.5436 126.664 45.238 126.664 44.8611C126.664 44.4842 126.359 44.1787 125.982 44.1787C125.605 44.1787 125.299 44.4842 125.299 44.8611C125.299 45.238 125.605 45.5436 125.982 45.5436Z" fill="#57CC99"/>
<path d="M65.1614 45.5436C65.5383 45.5436 65.8439 45.238 65.8439 44.8611C65.8439 44.4842 65.5383 44.1787 65.1614 44.1787C64.7845 44.1787 64.4789 44.4842 64.4789 44.8611C64.4789 45.238 64.7845 45.5436 65.1614 45.5436Z" fill="#57CC99"/>
<path d="M64.9356 44.8611H125.592" stroke="#57CC99" stroke-width="2" stroke-miterlimit="10"/>
<path d="M33.4762 17.6776C33.0908 17.6064 32.689 17.5677 32.271 17.5677C31.3577 17.5677 30.4758 17.7884 29.6246 18.237C28.7743 18.6784 28.0176 19.2846 27.3646 20.0484C26.9476 20.5366 26.6089 21.0563 26.3485 21.6157V17.9776H22.4979V37.4049H26.3485V26.6716C26.3485 25.9546 26.4828 25.3016 26.7584 24.6955C27.0259 24.0893 27.388 23.5614 27.8447 23.1047C28.3013 22.6481 28.8373 22.286 29.4354 22.0256C30.0416 21.7663 30.6793 21.6401 31.3414 21.6401C31.6882 21.6401 32.0422 21.6869 32.3971 21.7663C32.7592 21.8527 33.0826 21.9636 33.3817 22.0816L34.3814 17.939C34.1607 17.8444 33.8536 17.7579 33.4762 17.6786V17.6776Z" fill="white"/>
<path d="M54.1484 26.9707C54.1718 25.6159 53.9674 24.3557 53.5341 23.2146C53.1008 22.0653 52.4865 21.0726 51.683 20.2305C50.8795 19.3954 49.9347 18.7343 48.8555 18.2543C47.7683 17.7742 46.5956 17.5301 45.3354 17.5301C43.9024 17.5301 42.5791 17.7823 41.3586 18.2939C40.1381 18.7984 39.0905 19.5144 38.2087 20.4359C37.3351 21.3655 36.6495 22.4518 36.1532 23.7119C35.665 24.9721 35.4128 26.3655 35.4128 27.8932C35.4128 29.8226 35.8542 31.5231 36.7279 33.004C37.6097 34.4849 38.8149 35.6504 40.3578 36.5007C41.9018 37.351 43.6735 37.7761 45.666 37.7761C46.5793 37.7761 47.5171 37.65 48.4619 37.3907C49.4149 37.1313 50.313 36.7764 51.1633 36.3349C52.0136 35.8935 52.7388 35.3738 53.3287 34.7839L51.4074 32.0744C50.4463 32.9165 49.5492 33.4993 48.7223 33.8146C47.8954 34.137 47.0055 34.2947 46.0372 34.2947C44.6825 34.2947 43.4853 34.0272 42.454 33.4841C41.4146 32.9409 40.6111 32.169 40.0446 31.1692C39.6194 30.4135 39.3519 29.5622 39.2492 28.6021H54.1098L54.1495 26.9717L54.1484 26.9707ZM39.895 24.0252C40.368 23.0488 41.0525 22.3084 41.9658 21.8049C42.8792 21.3004 44.0051 21.0492 45.3364 21.0492C46.1786 21.0492 46.9505 21.2303 47.6676 21.6005C48.3846 21.9707 48.9745 22.4823 49.4475 23.12C49.9123 23.7658 50.1879 24.49 50.2581 25.3016V25.562H39.3906C39.5086 25.0026 39.6743 24.491 39.895 24.0262V24.0252Z" fill="white"/>
<path d="M76.3168 22.4894C75.5295 20.9851 74.4504 19.8043 73.0957 18.9378C71.7409 18.0712 70.1817 17.6379 68.4334 17.6379C67.3705 17.6379 66.3382 17.8586 65.3384 18.2919C64.3457 18.7252 63.4954 19.2764 62.8109 19.9538C62.5434 20.2132 62.3227 20.4735 62.1417 20.741V17.9766H58.291V45.5467H62.1417V34.8602C62.2678 35.0016 62.401 35.1511 62.5516 35.2935C63.292 36.0105 64.1901 36.6004 65.2529 37.0571C66.3087 37.5137 67.4112 37.7426 68.5452 37.7426C70.2458 37.7426 71.7745 37.3012 73.1364 36.4275C74.4911 35.5457 75.5621 34.3486 76.3341 32.8362C77.1142 31.3167 77.4996 29.5998 77.4996 27.6704C77.4996 25.741 77.106 23.9927 76.3188 22.4884L76.3168 22.4894ZM73.056 31.0421C72.5444 32.0266 71.8355 32.8057 70.9537 33.3732C70.0637 33.9397 69.0477 34.2235 67.9136 34.2235C66.7796 34.2235 65.732 33.9397 64.842 33.3732C63.9521 32.8057 63.2513 32.0266 62.7316 31.0421C62.2119 30.0575 61.9515 28.9316 61.9515 27.6714C61.9515 26.4113 62.2109 25.2935 62.7316 24.3008C63.2513 23.3163 63.9521 22.5443 64.842 21.9931C65.732 21.4337 66.7552 21.158 67.9136 21.158C69.0721 21.158 70.0953 21.4418 70.9852 22.0083C71.8752 22.5748 72.5678 23.3468 73.0804 24.3232C73.5849 25.2996 73.8361 26.4103 73.8361 27.6704C73.8361 28.9306 73.5757 30.0565 73.056 31.041V31.0421Z" fill="white"/>
<path d="M18.0258 22.4894C17.2385 20.9851 16.1594 19.8043 14.8047 18.9378C13.4499 18.0712 11.8907 17.6379 10.1423 17.6379C9.07949 17.6379 8.04716 17.8586 7.04736 18.2919C6.05469 18.7252 5.20441 19.2764 4.51991 19.9538C4.25242 20.2132 4.03171 20.4735 3.85067 20.741V17.9766H0V45.5467H3.85067V34.8602C3.97679 35.0016 4.11003 35.1511 4.26056 35.2935C5.00099 36.0105 5.89908 36.6004 6.96193 37.0571C8.01766 37.5137 9.12018 37.7426 10.2542 37.7426C11.9548 37.7426 13.4835 37.3012 14.8453 36.4275C16.2001 35.5457 17.2711 34.3486 18.043 32.8362C18.8231 31.3167 19.2086 29.5998 19.2086 27.6704C19.2086 25.741 18.815 23.9927 18.0278 22.4884L18.0258 22.4894ZM14.766 31.0421C14.2544 32.0266 13.5455 32.8057 12.6637 33.3732C11.7737 33.9397 10.7577 34.2235 9.62363 34.2235C8.48959 34.2235 7.44199 33.9397 6.55204 33.3732C5.6621 32.8057 4.96133 32.0266 4.4416 31.0421C3.92187 30.0575 3.6615 28.9316 3.6615 27.6714C3.6615 26.4113 3.92085 25.2935 4.4416 24.3008C4.96133 23.3163 5.6621 22.5443 6.55204 21.9931C7.44199 21.4337 8.46518 21.158 9.62363 21.158C10.7821 21.158 11.8053 21.4418 12.6952 22.0083C13.5852 22.5748 14.2778 23.3468 14.7904 24.3232C15.2949 25.2996 15.5461 26.4103 15.5461 27.6704C15.5461 28.9306 15.2857 30.0565 14.766 31.041V31.0421Z" fill="white"/>
<path d="M84.8694 21.2689L84.8297 27.7101H101.785V21.2689H84.8694Z" fill="white"/>
<path d="M82.05 21.2061V37.4052H89.3812V18.9624C86.9005 19.3092 84.4748 20.0568 82.05 21.2071V21.2061Z" fill="white"/>
<path d="M97.7335 18.9611V37.4039H105.065V21.2048C102.639 20.0555 100.213 19.3069 97.7335 18.9601V18.9611Z" fill="white"/>
<path d="M111.179 6.5029L95.029 13.5848C93.9347 14.0649 92.6887 14.0649 91.5933 13.5848L75.435 6.50189L91.8242 0.430921C92.7833 0.0759591 93.838 0.0759591 94.7971 0.430921L111.179 6.5029Z" fill="#57CC99"/>
<path d="M105.044 10.5275V20.2213C105.044 20.2213 105.036 20.2213 105.028 20.2132C105.02 20.205 104.996 20.1979 104.973 20.1898C104.626 20.0006 102.863 19.1422 100.178 18.4729C99.9487 18.418 99.7208 18.3631 99.4849 18.3C98.0671 17.9614 96.8862 17.8037 95.9566 17.7406C92.0032 17.3623 87.1212 17.7488 82.049 20.2213V10.5275L92.4436 15.0088C93.1444 15.3078 93.9479 15.3078 94.6487 15.0088L105.043 10.5275H105.044Z" fill="#57CC99"/>
<path d="M105.076 16.9687L105.044 20.2213C105.044 20.2213 105.036 20.2213 105.028 20.2132C105.02 20.205 104.996 20.1979 104.973 20.1898C104.626 20.0006 102.863 19.1422 100.178 18.4729C99.9487 18.418 99.7208 18.3631 99.4849 18.3C98.0671 17.9613 96.8862 17.8037 95.9566 17.7406C92.0032 17.3623 87.1212 17.7488 82.049 20.2213V16.9687H105.076Z" fill="#57CC99"/>
<path d="M135.095 40.5406C133.654 41.6156 131.609 41.2871 130.576 39.8154L126.765 34.3842L122.237 28.1708L121.857 27.6491C120.809 26.2119 121.14 24.1961 122.59 23.1678L122.6 23.1607C124.026 22.1497 126 22.4752 127.027 23.8899L127.821 24.9823L132.302 31.1407L135.805 36.158C136.791 37.5707 136.477 39.5113 135.096 40.5416L135.095 40.5406Z" fill="white"/>
<path d="M136.167 19.0832C135.498 17.4528 134.545 16.036 133.301 14.8308C132.049 13.6184 130.599 12.6807 128.93 12.0196C127.261 11.3503 125.434 11.0198 123.434 11.0198C121.435 11.0198 119.599 11.3503 117.922 12.0196C116.244 12.6807 114.787 13.6184 113.551 14.8308C112.314 16.036 111.362 17.4528 110.685 19.0832C110.008 20.7136 109.669 22.5169 109.669 24.4859C109.669 26.455 110.008 28.2349 110.685 29.8724C111.362 31.518 112.315 32.944 113.551 34.1482C114.788 35.3606 116.244 36.2983 117.922 36.9594C119.599 37.6287 121.434 37.9592 123.434 37.9592C124.993 37.9592 126.45 37.7548 127.805 37.353C128.19 37.2351 128.56 37.1089 128.93 36.9594C130.599 36.2983 132.049 35.3606 133.301 34.1482C133.317 34.133 133.324 34.1248 133.341 34.1085C134.569 32.9114 135.506 31.5018 136.168 29.8714C136.829 28.2339 137.168 26.4377 137.168 24.4849C137.168 22.5321 136.829 20.7126 136.168 19.0822L136.167 19.0832ZM127.913 29.2815C127.347 29.8877 126.677 30.3525 125.913 30.6678C125.149 30.9902 124.322 31.1478 123.432 31.1478C123.377 31.1478 123.322 31.1478 123.274 31.1397C122.416 31.1315 121.629 30.9739 120.912 30.6667C120.148 30.3514 119.487 29.8866 118.919 29.2805C118.353 28.6743 117.911 27.9654 117.604 27.1537C117.297 26.335 117.139 25.4532 117.139 24.4839C117.139 23.5146 117.297 22.6094 117.604 21.8059C117.911 21.0024 118.353 20.3017 118.919 19.6955C119.487 19.0893 120.148 18.6245 120.912 18.3092C121.676 17.9868 122.519 17.821 123.432 17.821C124.345 17.821 125.149 17.9868 125.913 18.3092C126.677 18.6245 127.346 19.0893 127.913 19.6955C128.481 20.3017 128.913 21.0106 129.228 21.8222C129.536 22.6328 129.685 23.5228 129.685 24.4839C129.685 25.445 129.536 26.335 129.228 27.1537C129.119 27.4294 129 27.6969 128.858 27.9491C128.598 28.4373 128.284 28.8787 127.913 29.2805V29.2815Z" fill="white"/>
<path d="M139.323 46.9187L128.806 42.5351C128.618 42.4568 128.669 42.1771 128.872 42.1689L133.249 42.0082C134.883 41.9482 136.326 40.921 136.916 39.3953L138.497 35.3077C138.57 35.1175 138.852 35.1602 138.864 35.3646L139.585 46.7316C139.595 46.8719 139.452 46.9736 139.322 46.9197L139.323 46.9187Z" fill="#57CC99"/>
<path d="M106.25 42.3581C106.615 42.3581 106.912 42.0617 106.912 41.696C106.912 41.3303 106.615 41.0339 106.25 41.0339C105.884 41.0339 105.587 41.3303 105.587 41.696C105.587 42.0617 105.884 42.3581 106.25 42.3581Z" fill="white"/>
<path d="M83.8381 42.3581C84.2038 42.3581 84.5002 42.0617 84.5002 41.696C84.5002 41.3303 84.2038 41.0339 83.8381 41.0339C83.4724 41.0339 83.176 41.3303 83.176 41.696C83.176 42.0617 83.4724 42.3581 83.8381 42.3581Z" fill="white"/>
<path d="M64.4779 43.1941V40.0615H65.8073C65.9954 40.0615 66.1632 40.1053 66.3127 40.1937C66.4623 40.2822 66.5802 40.4022 66.6687 40.5538C66.7562 40.7064 66.8009 40.8772 66.8009 41.0684C66.8009 41.2597 66.7572 41.4366 66.6687 41.5922C66.5802 41.7479 66.4623 41.8709 66.3127 41.9614C66.1632 42.053 65.9954 42.0977 65.8073 42.0977H65.1492V43.1941H64.4779ZM65.1411 41.4936H65.732C65.8032 41.4936 65.8673 41.4753 65.9242 41.4376C65.9812 41.4 66.0259 41.3502 66.0605 41.2881C66.0951 41.2251 66.1124 41.1539 66.1124 41.0735C66.1124 40.9932 66.0951 40.923 66.0605 40.863C66.0259 40.803 65.9802 40.7552 65.9242 40.7196C65.8673 40.684 65.8032 40.6657 65.732 40.6657H65.1411V41.4936Z" fill="white"/>
<path d="M67.3115 43.1941V40.8264H67.9248L67.9472 41.5871L67.8394 41.4305C67.875 41.3085 67.933 41.1976 68.0143 41.0969C68.0947 40.9972 68.1893 40.9189 68.2981 40.862C68.4069 40.805 68.5208 40.7765 68.6409 40.7765C68.6917 40.7765 68.7405 40.7806 68.7883 40.7897C68.8361 40.7989 68.8758 40.8091 68.9094 40.8213L68.7395 41.519C68.707 41.5007 68.6642 41.4854 68.6124 41.4722C68.5605 41.459 68.5076 41.4519 68.4537 41.4519C68.3825 41.4519 68.3154 41.4641 68.2544 41.4895C68.1933 41.5149 68.1404 41.5505 68.0957 41.5973C68.0509 41.6441 68.0153 41.698 67.9909 41.7611C67.9655 41.8241 67.9533 41.8923 67.9533 41.9665V43.1931H67.3136L67.3115 43.1941Z" fill="white"/>
<path d="M70.2957 43.2389C70.0393 43.2389 69.8146 43.187 69.6223 43.0822C69.4301 42.9775 69.2806 42.8351 69.1748 42.653C69.069 42.471 69.0162 42.2625 69.0162 42.0265C69.0162 41.8414 69.0457 41.6726 69.1057 41.521C69.1657 41.3685 69.2491 41.2373 69.3559 41.1254C69.4637 41.0135 69.5908 40.927 69.7383 40.866C69.8858 40.805 70.0465 40.7745 70.2194 40.7745C70.3801 40.7745 70.5296 40.804 70.6669 40.864C70.8042 40.924 70.9232 41.0064 71.0229 41.1122C71.1225 41.2179 71.1998 41.343 71.2537 41.4885C71.3076 41.6329 71.331 41.7895 71.3249 41.9563L71.3209 42.1536H69.4189L69.3162 41.7641H70.7971L70.7259 41.8445V41.7458C70.7198 41.6654 70.6933 41.5932 70.6476 41.5292C70.6008 41.4651 70.5428 41.4142 70.4706 41.3766C70.3994 41.339 70.318 41.3207 70.2285 41.3207C70.0973 41.3207 69.9865 41.3461 69.8949 41.3969C69.8034 41.4478 69.7342 41.522 69.6864 41.6207C69.6386 41.7194 69.6152 41.8384 69.6152 41.9787C69.6152 42.1191 69.6457 42.2452 69.7068 42.3499C69.7678 42.4547 69.8542 42.5361 69.9661 42.594C70.078 42.652 70.2102 42.6815 70.3618 42.6815C70.4665 42.6815 70.5611 42.6652 70.6486 42.6327C70.735 42.6001 70.8276 42.5432 70.9262 42.4628L71.2303 42.888C71.1439 42.9653 71.0483 43.0304 70.9435 43.0822C70.8388 43.1341 70.732 43.1738 70.6211 43.2012C70.5102 43.2277 70.4014 43.2419 70.2946 43.2419L70.2957 43.2389Z" fill="white"/>
<path d="M71.7948 44.1787V40.8264H72.4081L72.4264 41.3593L72.3105 41.3186C72.3308 41.223 72.3827 41.1356 72.4651 41.0542C72.5475 40.9738 72.6492 40.9077 72.7712 40.8569C72.8933 40.806 73.0214 40.7806 73.1557 40.7806C73.3611 40.7806 73.5452 40.8335 73.7059 40.9393C73.8666 41.045 73.9938 41.1895 74.0863 41.3736C74.1789 41.5566 74.2246 41.7682 74.2246 42.0072C74.2246 42.2462 74.1779 42.4537 74.0863 42.6378C73.9938 42.8229 73.8666 42.9683 73.7059 43.0741C73.5452 43.1799 73.3611 43.2328 73.1557 43.2328C73.0184 43.2328 72.8882 43.2063 72.7641 43.1545C72.64 43.1026 72.5363 43.0324 72.4508 42.946C72.3654 42.8595 72.3115 42.767 72.2871 42.6683L72.4346 42.6052V44.1756H71.7948V44.1787ZM73.0123 42.6886C73.1282 42.6886 73.232 42.6602 73.3215 42.6032C73.411 42.5462 73.4811 42.4669 73.532 42.3642C73.5829 42.2615 73.6083 42.1425 73.6083 42.0082C73.6083 41.874 73.5829 41.756 73.532 41.6543C73.4811 41.5526 73.412 41.4742 73.3235 41.4173C73.235 41.3603 73.1313 41.3319 73.0123 41.3319C72.8933 41.3319 72.7885 41.3593 72.699 41.4142C72.6095 41.4692 72.5393 41.5485 72.4885 41.6512C72.4376 41.7539 72.4122 41.8729 72.4122 42.0072C72.4122 42.1414 72.4376 42.2604 72.4885 42.3632C72.5393 42.4659 72.6095 42.5462 72.699 42.6022C72.7885 42.6591 72.8933 42.6876 73.0123 42.6876V42.6886Z" fill="white"/>
<path d="M75.5896 43.2389C75.3922 43.2389 75.2153 43.185 75.0566 43.0782C74.8979 42.9704 74.7728 42.8249 74.6803 42.6398C74.5877 42.4547 74.542 42.2431 74.542 42.0041C74.542 41.7651 74.5887 41.5536 74.6833 41.3685C74.7769 41.1834 74.9051 41.0389 75.0658 40.9342C75.2265 40.8294 75.4105 40.7775 75.616 40.7775C75.7319 40.7775 75.8387 40.7948 75.9364 40.8294C76.033 40.864 76.1184 40.9108 76.1917 40.9708C76.2649 41.0308 76.3269 41.0989 76.3778 41.1762C76.4286 41.2535 76.4642 41.3369 76.4856 41.4264L76.3513 41.4041V40.8264H76.9819V43.1941H76.3422V42.6256L76.4856 42.6124C76.4612 42.6958 76.4225 42.7751 76.3697 42.8493C76.3158 42.9236 76.2496 42.9907 76.1703 43.0487C76.091 43.1067 76.0025 43.1534 75.9038 43.187C75.8052 43.2206 75.7004 43.2389 75.5906 43.2389H75.5896ZM75.7645 42.6886C75.8835 42.6886 75.9883 42.6602 76.0778 42.6032C76.1673 42.5462 76.2364 42.4669 76.2863 42.3642C76.3351 42.2615 76.3605 42.1414 76.3605 42.0041C76.3605 41.8668 76.3361 41.7519 76.2863 41.6502C76.2374 41.5485 76.1673 41.4692 76.0778 41.4112C75.9883 41.3532 75.8835 41.3237 75.7645 41.3237C75.6455 41.3237 75.5458 41.3532 75.4583 41.4112C75.3699 41.4692 75.3007 41.5495 75.2498 41.6502C75.199 41.7519 75.1736 41.8699 75.1736 42.0041C75.1736 42.1384 75.199 42.2615 75.2498 42.3642C75.3007 42.4669 75.3699 42.5473 75.4583 42.6032C75.5458 42.6602 75.6485 42.6886 75.7645 42.6886Z" fill="white"/>
<path d="M77.6176 43.1941V40.8264H78.2309L78.2533 41.5871L78.1455 41.4305C78.1811 41.3085 78.239 41.1976 78.3204 41.0969C78.4008 40.9972 78.4954 40.9189 78.6042 40.862C78.713 40.805 78.8269 40.7765 78.9469 40.7765C78.9978 40.7765 79.0466 40.7806 79.0944 40.7897C79.1422 40.7989 79.1819 40.8091 79.2154 40.8213L79.0456 41.519C79.013 41.5007 78.9703 41.4854 78.9185 41.4722C78.8666 41.459 78.8137 41.4519 78.7598 41.4519C78.6886 41.4519 78.6215 41.4641 78.5604 41.4895C78.4994 41.5149 78.4465 41.5505 78.4018 41.5973C78.357 41.6441 78.3214 41.698 78.297 41.7611C78.2716 41.8241 78.2594 41.8923 78.2594 41.9665V43.1931H77.6196L77.6176 43.1941Z" fill="white"/>
<path d="M80.6017 43.2389C80.3454 43.2389 80.1207 43.187 79.9284 43.0822C79.7362 42.9775 79.5867 42.8351 79.4809 42.653C79.3751 42.471 79.3223 42.2625 79.3223 42.0265C79.3223 41.8414 79.3517 41.6726 79.4118 41.521C79.4718 41.3685 79.5552 41.2373 79.662 41.1254C79.7698 41.0135 79.8969 40.927 80.0444 40.866C80.1919 40.805 80.3526 40.7745 80.5255 40.7745C80.6862 40.7745 80.8357 40.804 80.973 40.864C81.1103 40.924 81.2293 41.0064 81.329 41.1122C81.4286 41.2179 81.5059 41.343 81.5598 41.4885C81.6137 41.6329 81.6371 41.7895 81.631 41.9563L81.627 42.1536H79.725L79.6223 41.7641H81.1032L81.032 41.8445V41.7458C81.0259 41.6654 80.9994 41.5932 80.9536 41.5292C80.9069 41.4651 80.8489 41.4142 80.7767 41.3766C80.7055 41.339 80.6241 41.3207 80.5346 41.3207C80.4034 41.3207 80.2925 41.3461 80.201 41.3969C80.1095 41.4478 80.0403 41.522 79.9925 41.6207C79.9447 41.7194 79.9213 41.8384 79.9213 41.9787C79.9213 42.1191 79.9518 42.2452 80.0128 42.3499C80.0739 42.4547 80.1603 42.5361 80.2722 42.594C80.3841 42.652 80.5163 42.6815 80.6678 42.6815C80.7726 42.6815 80.8672 42.6652 80.9547 42.6327C81.0411 42.6001 81.1337 42.5432 81.2323 42.4628L81.5364 42.888C81.45 42.9653 81.3544 43.0304 81.2496 43.0822C81.1449 43.1341 81.0381 43.1738 80.9272 43.2012C80.8163 43.2277 80.7075 43.2419 80.6007 43.2419L80.6017 43.2389Z" fill="white"/>
<path d="M87.6237 43.2389C87.3938 43.2389 87.1833 43.1992 86.99 43.1199C86.7978 43.0406 86.63 42.9287 86.4886 42.7843C86.3472 42.6398 86.2374 42.468 86.1601 42.2696C86.0828 42.0713 86.0441 41.8546 86.0441 41.6187C86.0441 41.3827 86.0848 41.1763 86.1652 40.981C86.2455 40.7857 86.3594 40.6158 86.5049 40.4704C86.6513 40.326 86.8222 40.2131 87.0195 40.1327C87.2168 40.0524 87.4294 40.0117 87.6593 40.0117C87.8088 40.0117 87.9552 40.032 88.0997 40.0717C88.2441 40.1124 88.3773 40.1714 88.4983 40.2487C88.6194 40.326 88.7231 40.4185 88.8096 40.5263L88.3885 40.9922C88.3193 40.921 88.2471 40.8589 88.1688 40.806C88.0915 40.7542 88.0101 40.7135 87.9247 40.685C87.8393 40.6565 87.7498 40.6423 87.6542 40.6423C87.526 40.6423 87.406 40.6667 87.2941 40.7135C87.1822 40.7613 87.0846 40.8274 87.0012 40.9128C86.9178 40.9983 86.8517 41.101 86.8019 41.222C86.753 41.3431 86.7276 41.4763 86.7276 41.6228C86.7276 41.7692 86.751 41.9065 86.7988 42.0276C86.8466 42.1486 86.9137 42.2513 87.0002 42.3367C87.0866 42.4222 87.1904 42.4873 87.3114 42.5341C87.4324 42.5808 87.5657 42.6032 87.7121 42.6032C87.8078 42.6032 87.9003 42.59 87.9898 42.5625C88.0793 42.5351 88.1617 42.4985 88.238 42.4507C88.3143 42.4029 88.3824 42.3479 88.4414 42.2849L88.773 42.8087C88.6987 42.889 88.6011 42.9623 88.48 43.0284C88.359 43.0945 88.2237 43.1453 88.0752 43.183C87.9257 43.2206 87.7752 43.2389 87.6237 43.2389Z" fill="white"/>
<path d="M90.3454 43.2389C90.1033 43.2389 89.8877 43.186 89.6985 43.0802C89.5093 42.9745 89.3598 42.829 89.251 42.6439C89.1422 42.4588 89.0872 42.2472 89.0872 42.0082C89.0872 41.7692 89.1411 41.5577 89.251 41.3726C89.3598 41.1874 89.5093 41.042 89.6985 40.9362C89.8877 40.8304 90.1033 40.7776 90.3454 40.7776C90.5874 40.7776 90.798 40.8304 90.9871 40.9362C91.1763 41.042 91.3248 41.1874 91.4326 41.3726C91.5404 41.5577 91.5933 41.7692 91.5933 42.0082C91.5933 42.2472 91.5394 42.4588 91.4326 42.6439C91.3248 42.829 91.1763 42.9745 90.9871 43.0802C90.798 43.186 90.5834 43.2389 90.3454 43.2389ZM90.3454 42.6836C90.4613 42.6836 90.5661 42.6541 90.6586 42.5961C90.7512 42.5381 90.8234 42.4578 90.8753 42.354C90.9271 42.2513 90.9515 42.1354 90.9495 42.0072C90.9526 41.876 90.9282 41.759 90.8753 41.6563C90.8234 41.5536 90.7502 41.4732 90.6586 41.4143C90.5661 41.3563 90.4613 41.3268 90.3454 41.3268C90.2294 41.3268 90.1196 41.3563 90.028 41.4163C89.9355 41.4763 89.8623 41.5566 89.8083 41.6584C89.7544 41.7601 89.729 41.876 89.7321 42.0072C89.729 42.1354 89.7544 42.2513 89.8083 42.354C89.8623 42.4568 89.9355 42.5371 90.028 42.5961C90.1206 42.6541 90.2264 42.6836 90.3454 42.6836Z" fill="white"/>
<path d="M92.0765 43.1941V40.8264H92.6847L92.703 41.3095L92.5779 41.3634C92.6104 41.2556 92.6694 41.158 92.7549 41.0705C92.8403 40.983 92.942 40.9118 93.061 40.8579C93.18 40.804 93.3051 40.7776 93.4373 40.7776C93.6163 40.7776 93.7658 40.8132 93.8869 40.8854C94.0079 40.9576 94.0984 41.0654 94.1595 41.2098C94.2205 41.3542 94.251 41.5322 94.251 41.7448V43.1952H93.6153V41.7946C93.6153 41.6868 93.6001 41.5973 93.5706 41.5261C93.5411 41.4549 93.4953 41.4021 93.4343 41.3695C93.3732 41.337 93.298 41.3217 93.2085 41.3248C93.1373 41.3248 93.0701 41.3359 93.0091 41.3583C92.9481 41.3807 92.8962 41.4132 92.8525 41.4549C92.8088 41.4966 92.7752 41.5444 92.7498 41.5983C92.7243 41.6523 92.7121 41.7102 92.7121 41.7733V43.1962H92.0765V43.1941Z" fill="white"/>
<path d="M94.8602 43.1941V40.8264H95.4684L95.4867 41.3095L95.3616 41.3634C95.3942 41.2556 95.4532 41.158 95.5386 41.0705C95.624 40.983 95.7258 40.9118 95.8447 40.8579C95.9637 40.804 96.0889 40.7776 96.2211 40.7776C96.4001 40.7776 96.5496 40.8132 96.6706 40.8854C96.7917 40.9576 96.8822 41.0654 96.9432 41.2098C97.0042 41.3542 97.0347 41.5322 97.0347 41.7448V43.1952H96.3991V41.7946C96.3991 41.6868 96.3838 41.5973 96.3543 41.5261C96.3248 41.4549 96.279 41.4021 96.218 41.3695C96.157 41.337 96.0817 41.3217 95.9922 41.3248C95.921 41.3248 95.8539 41.3359 95.7929 41.3583C95.7319 41.3807 95.68 41.4132 95.6362 41.4549C95.5925 41.4966 95.5589 41.5444 95.5335 41.5983C95.5081 41.6523 95.4959 41.7102 95.4959 41.7733V43.1962H94.8602V43.1941Z" fill="white"/>
<path d="M98.7668 43.2389C98.5105 43.2389 98.2857 43.187 98.0935 43.0823C97.9013 42.9775 97.7518 42.8351 97.646 42.6531C97.5402 42.471 97.4873 42.2625 97.4873 42.0265C97.4873 41.8414 97.5168 41.6726 97.5768 41.5211C97.6368 41.3685 97.7202 41.2373 97.827 41.1254C97.9349 41.0135 98.062 40.9271 98.2095 40.8661C98.3569 40.805 98.5176 40.7745 98.6905 40.7745C98.8512 40.7745 99.0008 40.804 99.1381 40.864C99.2754 40.924 99.3944 41.0064 99.494 41.1122C99.5937 41.218 99.671 41.3431 99.7249 41.4885C99.7788 41.6329 99.8022 41.7896 99.7961 41.9564L99.792 42.1537H97.8901L97.7874 41.7641H99.2682L99.1971 41.8445V41.7458C99.1909 41.6655 99.1645 41.5933 99.1187 41.5292C99.0719 41.4651 99.014 41.4143 98.9418 41.3766C98.8706 41.339 98.7892 41.3207 98.6997 41.3207C98.5685 41.3207 98.4576 41.3461 98.3661 41.397C98.2746 41.4478 98.2054 41.5221 98.1576 41.6207C98.1098 41.7194 98.0864 41.8384 98.0864 41.9787C98.0864 42.1191 98.1169 42.2452 98.1779 42.35C98.239 42.4547 98.3254 42.5361 98.4373 42.5941C98.5492 42.652 98.6814 42.6815 98.8329 42.6815C98.9377 42.6815 99.0323 42.6653 99.1198 42.6327C99.2062 42.6002 99.2988 42.5432 99.3974 42.4629L99.7015 42.888C99.6151 42.9653 99.5195 43.0304 99.4147 43.0823C99.3099 43.1341 99.2032 43.1738 99.0923 43.2013C98.9814 43.2277 98.8726 43.242 98.7658 43.242L98.7668 43.2389Z" fill="white"/>
<path d="M101.295 43.2389C101.068 43.2389 100.866 43.185 100.687 43.0782C100.508 42.9704 100.367 42.825 100.264 42.6398C100.161 42.4547 100.109 42.2442 100.109 42.0093C100.109 41.7743 100.161 41.5638 100.264 41.3787C100.367 41.1936 100.508 41.0471 100.687 40.9403C100.866 40.8325 101.068 40.7796 101.295 40.7796C101.507 40.7796 101.701 40.8182 101.877 40.8955C102.053 40.9728 102.19 41.0807 102.289 41.218L101.94 41.639C101.898 41.5821 101.847 41.5312 101.783 41.4844C101.72 41.4387 101.653 41.4021 101.58 41.3746C101.507 41.3481 101.432 41.3339 101.354 41.3339C101.232 41.3339 101.123 41.3634 101.03 41.4214C100.936 41.4794 100.862 41.5597 100.808 41.6604C100.754 41.7621 100.728 41.878 100.728 42.0093C100.728 42.1405 100.755 42.2483 100.81 42.349C100.865 42.4507 100.94 42.531 101.036 42.591C101.132 42.651 101.238 42.6805 101.358 42.6805C101.436 42.6805 101.509 42.6704 101.578 42.649C101.646 42.6276 101.711 42.5951 101.772 42.5503C101.833 42.5056 101.889 42.4517 101.94 42.3896L102.285 42.8107C102.186 42.9389 102.047 43.0426 101.867 43.1219C101.687 43.2013 101.496 43.2409 101.296 43.2409L101.295 43.2389Z" fill="white"/>
<path d="M102.477 41.3949V40.8264H104.043V41.3949H102.477ZM102.92 43.1941V40.2273H103.555V43.1941H102.92Z" fill="white"/>
<path d="M109.744 43.2389C109.55 43.2389 109.373 43.2145 109.214 43.1677C109.055 43.1199 108.913 43.0497 108.789 42.9572C108.665 42.8646 108.554 42.7527 108.456 42.6215L108.877 42.1425C109.023 42.3459 109.169 42.4832 109.313 42.5564C109.457 42.6297 109.615 42.6663 109.785 42.6663C109.877 42.6663 109.96 42.6531 110.033 42.6256C110.106 42.5992 110.163 42.5625 110.205 42.5158C110.247 42.47 110.268 42.414 110.268 42.3479C110.268 42.3001 110.258 42.2564 110.236 42.2157C110.215 42.175 110.186 42.1394 110.147 42.1079C110.108 42.0764 110.062 42.0479 110.009 42.0225C109.955 41.997 109.895 41.9747 109.83 41.9553C109.764 41.936 109.692 41.9208 109.615 41.9086C109.448 41.8699 109.302 41.8231 109.177 41.7672C109.052 41.7123 108.947 41.6431 108.863 41.5617C108.78 41.4793 108.718 41.3868 108.677 41.282C108.637 41.1773 108.617 41.0603 108.617 40.9281C108.617 40.7959 108.647 40.6697 108.707 40.5548C108.767 40.4399 108.849 40.3412 108.955 40.2568C109.061 40.1734 109.183 40.1093 109.322 40.0646C109.46 40.0198 109.608 39.9975 109.762 39.9975C109.954 39.9975 110.121 40.0188 110.264 40.0605C110.407 40.1022 110.531 40.1643 110.637 40.2466C110.743 40.329 110.831 40.4277 110.904 40.5446L110.479 40.9566C110.415 40.8732 110.348 40.803 110.275 40.746C110.202 40.6891 110.123 40.6474 110.038 40.6189C109.953 40.5904 109.866 40.5762 109.777 40.5762C109.678 40.5762 109.594 40.5884 109.521 40.6138C109.45 40.6392 109.394 40.6769 109.354 40.7257C109.313 40.7745 109.294 40.8325 109.294 40.8976C109.294 40.9515 109.307 40.9993 109.334 41.041C109.361 41.0827 109.4 41.1193 109.45 41.1508C109.501 41.1824 109.562 41.2098 109.633 41.2332C109.705 41.2576 109.784 41.278 109.87 41.2963C110.034 41.3288 110.182 41.3726 110.314 41.4265C110.445 41.4804 110.558 41.5455 110.651 41.6207C110.745 41.697 110.818 41.7865 110.868 41.8892C110.919 41.992 110.944 42.1079 110.944 42.2361C110.944 42.4476 110.894 42.6286 110.792 42.7771C110.69 42.9267 110.55 43.0406 110.371 43.1199C110.192 43.1992 109.983 43.2389 109.744 43.2389Z" fill="white"/>
<path d="M112.277 43.2389C112.104 43.2389 111.955 43.2013 111.831 43.125C111.707 43.0487 111.612 42.9399 111.544 42.7985C111.477 42.6571 111.444 42.4863 111.444 42.2859V40.8274H112.079V42.1832C112.079 42.291 112.098 42.3835 112.133 42.4629C112.169 42.5422 112.22 42.6022 112.286 42.6439C112.351 42.6856 112.432 42.707 112.528 42.707C112.596 42.707 112.66 42.6958 112.718 42.6734C112.776 42.651 112.827 42.6185 112.871 42.5768C112.913 42.5351 112.947 42.4863 112.971 42.4293C112.995 42.3723 113.007 42.3113 113.007 42.2462V40.8274H113.643V43.1952H113.039L113.016 42.707L113.132 42.6531C113.096 42.7639 113.037 42.8636 112.953 42.9531C112.87 43.0426 112.77 43.1128 112.653 43.1636C112.537 43.2145 112.411 43.2399 112.277 43.2399V43.2389Z" fill="white"/>
<path d="M115.311 43.2389C115.084 43.2389 114.881 43.185 114.702 43.0782C114.523 42.9704 114.382 42.8249 114.279 42.6398C114.177 42.4547 114.125 42.2442 114.125 42.0092C114.125 41.7743 114.177 41.5638 114.279 41.3787C114.382 41.1935 114.523 41.0471 114.702 40.9403C114.881 40.8325 115.084 40.7796 115.311 40.7796C115.522 40.7796 115.717 40.8182 115.892 40.8955C116.068 40.9728 116.206 41.0806 116.304 41.218L115.956 41.639C115.914 41.5821 115.862 41.5312 115.799 41.4844C115.736 41.4387 115.669 41.402 115.595 41.3746C115.522 41.3481 115.447 41.3339 115.37 41.3339C115.248 41.3339 115.139 41.3634 115.045 41.4214C114.952 41.4793 114.877 41.5597 114.824 41.6604C114.77 41.7621 114.743 41.878 114.743 42.0092C114.743 42.1404 114.771 42.2483 114.826 42.349C114.88 42.4507 114.956 42.531 115.051 42.591C115.147 42.651 115.254 42.6805 115.374 42.6805C115.451 42.6805 115.524 42.6703 115.593 42.649C115.662 42.6276 115.727 42.5951 115.788 42.5503C115.849 42.5056 115.905 42.4517 115.956 42.3896L116.3 42.8107C116.202 42.9389 116.062 43.0426 115.882 43.1219C115.702 43.2013 115.511 43.2409 115.312 43.2409L115.311 43.2389Z" fill="white"/>
<path d="M117.736 43.2389C117.51 43.2389 117.307 43.185 117.128 43.0782C116.949 42.9704 116.808 42.8249 116.705 42.6398C116.602 42.4547 116.551 42.2442 116.551 42.0092C116.551 41.7743 116.602 41.5638 116.705 41.3787C116.808 41.1935 116.949 41.0471 117.128 40.9403C117.307 40.8325 117.51 40.7796 117.736 40.7796C117.948 40.7796 118.142 40.8182 118.318 40.8955C118.494 40.9728 118.631 41.0806 118.73 41.218L118.381 41.639C118.34 41.5821 118.288 41.5312 118.225 41.4844C118.162 41.4387 118.094 41.402 118.021 41.3746C117.948 41.3481 117.873 41.3339 117.795 41.3339C117.673 41.3339 117.565 41.3634 117.471 41.4214C117.377 41.4793 117.303 41.5597 117.249 41.6604C117.195 41.7621 117.169 41.878 117.169 42.0092C117.169 42.1404 117.196 42.2483 117.251 42.349C117.306 42.4507 117.381 42.531 117.477 42.591C117.573 42.651 117.679 42.6805 117.799 42.6805C117.877 42.6805 117.95 42.6703 118.019 42.649C118.087 42.6276 118.152 42.5951 118.213 42.5503C118.274 42.5056 118.33 42.4517 118.381 42.3896L118.726 42.8107C118.627 42.9389 118.488 43.0426 118.308 43.1219C118.128 43.2013 117.937 43.2409 117.737 43.2409L117.736 43.2389Z" fill="white"/>
<path d="M120.256 43.2389C119.999 43.2389 119.775 43.187 119.582 43.0823C119.39 42.9775 119.241 42.8351 119.135 42.6531C119.029 42.471 118.976 42.2625 118.976 42.0265C118.976 41.8414 119.006 41.6726 119.066 41.521C119.126 41.3685 119.209 41.2373 119.316 41.1254C119.424 41.0135 119.551 40.9271 119.698 40.866C119.846 40.805 120.007 40.7745 120.179 40.7745C120.34 40.7745 120.49 40.804 120.627 40.864C120.764 40.924 120.883 41.0064 120.983 41.1122C121.083 41.218 121.16 41.3431 121.214 41.4885C121.268 41.6329 121.291 41.7896 121.285 41.9564L121.281 42.1537H119.379L119.276 41.7641H120.757L120.686 41.8445V41.7458C120.68 41.6655 120.653 41.5933 120.608 41.5292C120.561 41.4651 120.503 41.4143 120.431 41.3766C120.359 41.339 120.278 41.3207 120.189 41.3207C120.057 41.3207 119.947 41.3461 119.855 41.397C119.763 41.4478 119.694 41.5221 119.647 41.6207C119.599 41.7194 119.575 41.8384 119.575 41.9787C119.575 42.1191 119.606 42.2452 119.667 42.35C119.728 42.4547 119.814 42.5361 119.926 42.5941C120.038 42.652 120.17 42.6815 120.322 42.6815C120.427 42.6815 120.521 42.6653 120.609 42.6327C120.695 42.6002 120.788 42.5432 120.886 42.4629L121.19 42.888C121.104 42.9653 121.008 43.0304 120.904 43.0823C120.799 43.1341 120.692 43.1738 120.581 43.2013C120.47 43.2277 120.362 43.2419 120.255 43.2419L120.256 43.2389Z" fill="white"/>
<path d="M122.879 43.2389C122.622 43.2389 122.398 43.187 122.205 43.0823C122.013 42.9775 121.864 42.8351 121.758 42.6531C121.652 42.471 121.599 42.2625 121.599 42.0265C121.599 41.8414 121.629 41.6726 121.689 41.521C121.749 41.3685 121.832 41.2373 121.939 41.1254C122.047 41.0135 122.174 40.9271 122.321 40.866C122.469 40.805 122.63 40.7745 122.803 40.7745C122.963 40.7745 123.113 40.804 123.25 40.864C123.387 40.924 123.506 41.0064 123.606 41.1122C123.706 41.218 123.783 41.3431 123.837 41.4885C123.891 41.6329 123.914 41.7896 123.908 41.9564L123.904 42.1537H122.002L121.899 41.7641H123.38L123.309 41.8445V41.7458C123.303 41.6655 123.276 41.5933 123.231 41.5292C123.184 41.4651 123.126 41.4143 123.054 41.3766C122.983 41.339 122.901 41.3207 122.812 41.3207C122.68 41.3207 122.57 41.3461 122.478 41.397C122.387 41.4478 122.317 41.5221 122.27 41.6207C122.222 41.7194 122.198 41.8384 122.198 41.9787C122.198 42.1191 122.229 42.2452 122.29 42.35C122.351 42.4547 122.437 42.5361 122.549 42.5941C122.661 42.652 122.793 42.6815 122.945 42.6815C123.05 42.6815 123.144 42.6653 123.232 42.6327C123.318 42.6002 123.411 42.5432 123.509 42.4629L123.813 42.888C123.727 42.9653 123.631 43.0304 123.527 43.0823C123.422 43.1341 123.315 43.1738 123.204 43.2013C123.093 43.2277 122.985 43.2419 122.878 43.2419L122.879 43.2389Z" fill="white"/>
<path d="M125.305 43.2389C125.096 43.2389 124.91 43.186 124.747 43.0802C124.584 42.9745 124.456 42.83 124.363 42.6459C124.269 42.4629 124.221 42.2503 124.221 42.0082C124.221 41.7662 124.268 41.5617 124.363 41.3746C124.456 41.1885 124.584 41.042 124.747 40.9362C124.91 40.8304 125.095 40.7776 125.305 40.7776C125.414 40.7776 125.521 40.7948 125.625 40.8294C125.728 40.864 125.82 40.9108 125.903 40.9708C125.985 41.0308 126.051 41.0969 126.102 41.1701C126.153 41.2434 126.181 41.3186 126.187 41.3959L126.027 41.4275V39.8835H126.666V43.1952H126.062L126.036 42.649L126.161 42.6622C126.155 42.7365 126.128 42.8087 126.081 42.8768C126.033 42.945 125.97 43.007 125.89 43.0629C125.811 43.1179 125.722 43.1616 125.622 43.1931C125.522 43.2247 125.416 43.2399 125.307 43.2399L125.305 43.2389ZM125.447 42.711C125.566 42.711 125.671 42.6815 125.76 42.6215C125.85 42.5615 125.92 42.4801 125.971 42.3754C126.022 42.2706 126.047 42.1486 126.047 42.0082C126.047 41.8679 126.022 41.7499 125.971 41.6461C125.92 41.5414 125.85 41.46 125.76 41.4C125.671 41.34 125.566 41.3105 125.447 41.3105C125.328 41.3105 125.224 41.34 125.136 41.4C125.047 41.46 124.979 41.5414 124.93 41.6461C124.881 41.7509 124.856 41.8709 124.856 42.0082C124.856 42.1455 124.88 42.2706 124.93 42.3754C124.979 42.4801 125.048 42.5615 125.136 42.6215C125.223 42.6815 125.327 42.711 125.447 42.711Z" fill="white"/>
</svg>
