<svg width="17" height="14" viewBox="0 0 17 14" fill="none" xmlns="http://www.w3.org/2000/svg">
<path d="M0.408581 7.99094C1.22292 8.79525 5.1878 12.7115 6.0716 13.5844C6.63267 14.1386 7.5424 14.1385 8.10332 13.5844C8.66439 13.0303 8.66439 12.1318 8.10332 11.5777L4.90501 8.41889H15.5634C16.3568 8.41889 17 7.78364 17 6.99998C17 6.21631 16.3568 5.58107 15.5634 5.58107H4.90501L8.10325 2.42229C8.66432 1.86813 8.66432 0.969675 8.10325 0.41559C7.54218 -0.138495 6.63253 -0.138566 6.07153 0.41559C5.29052 1.18705 1.17386 5.25309 0.409801 6.0078C-0.138981 6.56274 -0.13381 7.44246 0.408581 7.99094Z" fill="white"/>
</svg>
