<svg width="18" height="18" viewBox="0 0 18 18" fill="none" xmlns="http://www.w3.org/2000/svg">
<path d="M8.99968 0C4.03762 0 0 4.03729 0 9C0 13.9627 4.03762 18 8.99968 18C13.9627 18 17.9997 13.9627 17.9997 9C17.9997 4.03729 13.9627 0 8.99968 0ZM8.99968 16.8001C4.69886 16.8001 1.19994 13.3011 1.19994 9C1.19994 4.69886 4.69918 1.19994 8.99968 1.19994C13.3011 1.19994 16.7997 4.69886 16.7997 9C16.7997 13.3011 13.3015 16.8001 8.99968 16.8001Z" fill="#010273"/>
<path d="M13.457 8.34846H9.5998V3.24833C9.5998 2.9169 9.33111 2.6482 9 2.6482C8.66922 2.6482 8.40052 2.91722 8.40052 3.24833V9.54807H10.9288H13.457C13.7881 9.54807 14.0568 9.27969 14.0565 8.94827C14.0565 8.61716 13.7875 8.34846 13.457 8.34846Z" fill="#FF9D00"/>
</svg>
