<svg width="36" height="36" viewBox="0 0 36 36" fill="none" xmlns="http://www.w3.org/2000/svg">
<g id="bootstrap-logo-vector 1" clip-path="url(#clip0_333_10)">
<path id="Vector" d="M0 31.3581C0 33.922 2.0783 36 4.64189 36H31.358C33.922 36 36 33.9217 36 31.3581V4.64203C36 2.07802 33.9217 0 31.3581 0H4.64203C2.07802 0 0 2.0783 0 4.64189V31.3581Z" fill="#563D7C"/>
<path id="Vector_2" d="M14.9284 15.9241V10.826H19.4159C19.8434 10.826 20.2554 10.8616 20.6523 10.9329C21.0491 11.004 21.4003 11.1312 21.7056 11.3144C22.0107 11.4976 22.255 11.752 22.4382 12.0776C22.6213 12.4033 22.713 12.8205 22.713 13.3291C22.713 14.245 22.4382 14.9065 21.8887 15.3135C21.3392 15.7206 20.6371 15.9241 19.7822 15.9241H14.9284ZM10.1355 7.10156V28.8984H20.6981C21.675 28.8984 22.6265 28.7764 23.5525 28.5321C24.4785 28.2878 25.3027 27.9114 26.0253 27.4026C26.7477 26.8938 27.3227 26.2374 27.75 25.4336C28.1775 24.6296 28.3912 23.6782 28.3912 22.5792C28.3912 21.2155 28.0604 20.0505 27.399 19.0838C26.7375 18.117 25.7352 17.4403 24.3919 17.0536C25.3688 16.5856 26.1067 15.9851 26.6054 15.2525C27.1039 14.5198 27.3532 13.6041 27.3532 12.5049C27.3532 11.4874 27.1853 10.6327 26.8495 9.94064C26.5137 9.24877 26.0405 8.69414 25.4299 8.27691C24.8194 7.85967 24.0868 7.55944 23.2319 7.37634C22.3772 7.19311 21.4308 7.10156 20.3928 7.10156H10.1355ZM14.9284 25.174V19.1905H20.1486C21.1865 19.1905 22.021 19.4296 22.652 19.908C23.2828 20.3863 23.5984 21.185 23.5984 22.3044C23.5984 22.8743 23.5016 23.3423 23.3083 23.7087C23.1149 24.075 22.8555 24.3651 22.5298 24.5787C22.2042 24.7925 21.8276 24.945 21.4003 25.0367C20.9728 25.1281 20.5252 25.174 20.057 25.174H14.9284Z" fill="white"/>
</g>
<defs>
<clipPath id="clip0_333_10">
<rect width="36" height="36" fill="white"/>
</clipPath>
</defs>
</svg>
