<svg width="114" height="111" viewBox="0 0 114 111" fill="none" xmlns="http://www.w3.org/2000/svg">
<g id="Layer_1" clip-path="url(#clip0_255_382)">
<path id="Vector" d="M20.8723 54.6355C20.8858 45.2886 24.5753 36.3272 31.1342 29.7102C37.6932 23.0932 46.5881 19.3588 55.8746 19.3234C60.4836 19.3175 65.0486 20.2259 69.3087 21.9967C73.5687 23.7674 77.4403 26.3658 80.7021 29.6434C83.9638 32.9209 86.5518 36.8133 88.3182 41.098C90.0846 45.3828 90.9947 49.9759 90.9965 54.6148C90.9992 59.2537 90.0929 63.8475 88.3295 68.1333C86.566 72.4191 83.9801 76.3128 80.7197 79.5915C77.4593 82.8702 73.5885 85.4695 69.3288 87.2407C65.069 89.0118 60.504 89.92 55.8951 89.9132C46.609 89.8896 37.7103 86.1644 31.1466 79.5528C24.5828 72.9413 20.8885 63.9819 20.8723 54.6355ZM41.1435 47.1516C43.9101 48.2242 45.5256 50.0874 46.3214 52.6141H71.0874C71.3265 49.5202 69.687 40.5821 68.7853 39.489C64.3451 39.8877 60.1167 40.565 55.9054 40.5615C51.694 40.5581 47.493 39.874 43.0425 39.4511C42.4653 41.8128 41.8164 44.4221 41.1435 47.1516ZM41.1059 62.14C41.789 64.8558 42.4243 67.4684 43.0972 70.2014C51.4904 68.1338 60.254 68.1232 68.6522 70.1704C70.1663 65.8683 70.9996 61.3534 71.1216 56.7909C71.0407 56.7487 70.9561 56.7142 70.8688 56.6878C62.8799 56.6672 54.8944 56.6397 46.9054 56.65C46.735 56.669 46.5716 56.7284 46.4285 56.8235C46.2854 56.9185 46.1667 57.0464 46.0823 57.1966C45.2182 59.5376 43.5958 61.1087 41.1059 62.14ZM75.4695 52.5832H87.0379C86.5392 45.7077 84.1689 39.7296 79.9063 34.573L72.7986 37.9007C73.6934 42.8029 74.5747 47.6569 75.4695 52.5832ZM67.1561 73.8729C59.7941 72.1481 52.1359 72.1563 44.7776 73.8969C47.1309 78.5516 50.017 82.4912 54.6826 84.8219C55.0555 85.0392 55.4774 85.1573 55.9082 85.1652C56.3391 85.173 56.7648 85.0702 57.1453 84.8666C61.8587 82.5462 64.7721 78.5963 67.1561 73.8729ZM44.7469 35.4153C52.2918 37.0757 59.642 37.1341 67.1391 35.3843C64.8097 30.7881 61.9953 26.9551 57.5278 24.5831C57.0516 24.2973 56.5076 24.1464 55.9533 24.1464C55.3989 24.1464 54.8548 24.2973 54.3787 24.5831C49.9351 26.9792 47.066 30.7813 44.7469 35.4153ZM79.9473 74.6876C84.1617 69.5825 86.649 63.2579 87.0481 56.6328C83.151 56.6328 79.4178 56.6328 75.6847 56.674C75.4627 56.674 75.1075 57.2756 75.0597 57.6297C74.8513 59.2076 74.8513 60.8165 74.561 62.3703C74.0077 65.3577 73.3075 68.3141 72.6654 71.3083L79.9473 74.6876ZM24.8651 52.6588C26.8871 52.6588 28.7895 52.6794 30.6885 52.6347C30.833 52.5965 30.967 52.5255 31.08 52.4272C31.1931 52.3289 31.2824 52.2058 31.341 52.0675C31.7692 50.8594 32.4779 49.7717 33.4083 48.8951C34.3387 48.0185 35.4637 47.3783 36.6896 47.0279C36.8521 46.9727 37.0008 46.8827 37.1252 46.7639C37.2497 46.6452 37.347 46.5007 37.4103 46.3403C38.0695 43.5523 38.6707 40.7506 39.282 37.9729L31.983 34.5662C27.7533 39.6782 25.2591 46.018 24.8651 52.6588ZM31.9864 74.6979L39.364 71.243C38.7321 68.4928 38.131 65.7805 37.4547 63.0716C37.3829 62.8762 37.2706 62.6984 37.1251 62.5502C36.9796 62.402 36.8044 62.2868 36.6111 62.2122C35.4317 61.8554 34.3496 61.2305 33.4482 60.3859C32.5469 59.5413 31.8504 58.4995 31.4127 57.341C31.3 57.0556 30.9481 56.6534 30.6954 56.6534C28.7998 56.595 26.9008 56.6225 24.8685 56.6225C25.5312 63.4979 28.0757 69.4107 31.9864 74.6979ZM42.5746 54.5942C42.5766 53.5827 42.1841 52.6108 41.4815 51.8876C40.7789 51.1643 39.8223 50.7475 38.8175 50.7268C37.7876 50.722 36.7968 51.1234 36.0575 51.845C35.3181 52.5667 34.8892 53.5511 34.8624 54.5874C34.8635 55.1113 34.9689 55.6296 35.1724 56.1119C35.3759 56.5941 35.6732 57.0304 36.047 57.3951C36.4207 57.7598 36.8633 58.0453 37.3486 58.235C37.8338 58.4247 38.3519 58.5146 38.8722 58.4995C39.3697 58.4874 39.8599 58.3768 40.3149 58.174C40.7699 57.9712 41.1807 57.6802 41.5239 57.3175C41.8671 56.9548 42.1359 56.5277 42.315 56.0604C42.4941 55.5931 42.58 55.0949 42.5677 54.5942H42.5746ZM34.7872 77.6475C38.6467 81.178 42.8239 83.4916 47.2675 84.7566L40.597 75.0623L34.7872 77.6475ZM77.1158 77.6475L71.3094 75.0382L64.6799 84.7326C69.3177 83.3831 73.5754 80.9549 77.109 77.644L77.1158 77.6475ZM64.4134 24.6037C66.9747 27.3079 69.103 30.3963 70.722 33.7583C70.8127 33.8724 70.931 33.961 71.0655 34.0158C71.2001 34.0706 71.3465 34.0896 71.4905 34.0711C73.3246 33.3183 75.1382 32.507 77.1363 31.6338C73.287 28.1652 69.1918 25.7794 64.4067 24.6003L64.4134 24.6037ZM47.2607 24.5418C42.6154 25.8803 38.3506 28.3057 34.8145 31.62L40.6209 34.2224L47.2607 24.5418Z" fill="#FF6000"/>
<path id="Vector_2" d="M26.2688 6.82385C25.7735 5.95755 25.3023 5.16688 24.8685 4.35902C23.9531 2.65736 24.7899 1.14134 26.6821 1.18947C32.1742 1.32698 37.6664 1.50001 43.1586 1.70857C44.8663 1.77388 45.669 3.20052 44.8663 4.7303C42.2978 9.65767 39.693 14.5644 37.0516 19.4505C36.208 21.0113 34.4934 20.9872 33.5507 19.4815C33.0452 18.6771 32.5876 17.8383 32.1094 17.0166C14.4716 27.5876 4.90474 53.0678 16.5893 75.3751C28.7588 98.6037 56.4587 105.094 76.4327 94.2618C75.9613 93.4299 75.4729 92.6083 75.0323 91.7626C74.1784 90.1332 75.0323 88.624 76.8596 88.6687C82.3108 88.8108 87.7608 88.9872 93.2097 89.1981C95.078 89.2703 95.8977 90.666 95.0336 92.323C92.4993 97.1724 89.9342 102.007 87.3384 106.827C86.4231 108.525 84.7153 108.515 83.7009 106.864C83.2193 106.084 82.7651 105.287 82.2459 104.406C65.1888 112.891 47.9984 113.324 30.8729 104.905C19.0859 99.109 10.5642 89.9372 5.0345 77.9706C-6.16501 53.7279 1.49599 22.3691 26.2688 6.82385ZM30.0635 5.4144C31.3136 8.31582 31.276 8.43613 28.5128 10.1344L27.9834 10.4781C10.4891 21.4272 0.891487 43.2326 4.62466 63.5666C6.8994 75.9423 12.6374 86.4273 22.2556 94.5059C34.7598 105.022 49.2006 108.817 65.2707 106.153C70.9404 105.164 76.3951 103.187 81.3886 100.309C83.1715 99.305 83.9229 99.5284 84.9715 101.254C85.0944 101.46 85.2276 101.656 85.4667 102.031L90.3031 92.9486H80.2341C80.3537 93.1893 80.4766 93.4471 80.6098 93.6981C81.4296 95.2691 81.1905 96.1869 79.6843 97.0223C68.1022 103.44 55.8678 105.084 43.1381 101.515C19.571 94.9116 4.88418 72.68 8.06745 48.231C10.0382 33.1051 17.7129 21.4513 30.5143 13.2558C33.0588 11.6229 33.4721 11.7535 35.0672 14.2321C35.0979 14.2768 35.2004 14.2768 35.3678 14.3249C36.8911 11.4544 38.4178 8.56333 40.0983 5.38689L30.0635 5.4144Z" fill="#1D3C87"/>
<path id="Vector_3" d="M94.2821 37.2062C94.4836 35.5836 94.6236 34.0813 94.8764 32.5963C94.9759 32.2168 94.9689 31.817 94.8561 31.4413C94.7433 31.0656 94.5293 30.7288 94.2376 30.4683C93.1891 29.4576 92.2259 28.3507 91.249 27.2644C89.9033 25.7724 90.402 24.1704 92.3625 23.727C93.8619 23.3832 95.3921 23.1735 96.8778 22.7885C97.4046 22.6289 97.8606 22.2914 98.1689 21.8328C98.9647 20.5609 99.6239 19.203 100.372 17.8966C101.397 16.1022 103.104 16.1159 104.129 17.9241C104.874 19.2305 105.529 20.5884 106.329 21.8603C106.637 22.3149 107.092 22.6478 107.616 22.8022C109.143 23.1976 110.714 23.4245 112.255 23.7785C114.027 24.1876 114.55 25.8171 113.341 27.2162C112.354 28.3507 111.244 29.3786 110.301 30.5439C109.916 31.0332 109.707 31.6388 109.707 32.2628C109.778 33.8063 110.086 35.3361 110.202 36.8796C110.349 38.8219 108.996 39.7673 107.234 38.987C105.939 38.4129 104.645 37.8388 103.405 37.1581C103.054 36.9474 102.652 36.8384 102.243 36.8433C101.835 36.8481 101.435 36.9666 101.089 37.1856C99.8015 37.8731 98.4865 38.5022 97.1442 39.066C95.6141 39.7157 94.2001 38.6947 94.2821 37.2062ZM98.6607 33.9301C101.13 32.1356 103.47 32.3556 105.929 33.9301C104.839 30.9668 105.987 28.856 108.108 26.9584C104.983 27.0237 103.255 25.4733 102.254 22.651C101.325 25.5799 99.378 26.9447 96.345 27.0031C98.7768 28.801 99.4907 31.0149 98.6607 33.9301Z" fill="#FF6000"/>
<path id="Vector_4" d="M58.7299 0.00346281C73.5772 1.03477 86.1361 6.92699 96.2597 17.9586C97.1921 18.9727 97.2229 20.1725 96.3895 20.9631C95.4981 21.8054 94.3778 21.6919 93.3395 20.5575C87.2113 13.7654 79.3709 8.76913 70.6501 6.0985C66.7076 4.89975 62.6372 4.17847 58.525 3.94994C57.1587 3.864 56.363 3.02521 56.4518 1.8117C56.5372 0.666943 57.4491 -0.0412273 58.7299 0.00346281Z" fill="#1D3C87"/>
<path id="Vector_5" d="M106.633 54.1266C106.165 50.7542 105.673 47.0312 105.113 43.315C104.891 41.8265 105.355 40.8261 106.554 40.5923C107.753 40.3586 108.631 41.0461 108.945 42.5381C111.691 55.3126 110.187 67.5611 104.433 79.2837C103.579 81.0232 101.875 81.3463 100.901 79.9712C100.307 79.1324 100.533 78.3246 100.949 77.4961C103.184 73.1413 104.732 68.4626 105.536 63.6284C106.018 60.617 106.247 57.5677 106.633 54.1266Z" fill="#1D3C87"/>
</g>
<defs>
<clipPath id="clip0_255_382">
<rect width="114" height="111" fill="white"/>
</clipPath>
</defs>
</svg>
