<svg width="105" height="108" viewBox="0 0 105 108" fill="none" xmlns="http://www.w3.org/2000/svg">
<g id="Layer_1" clip-path="url(#clip0_255_366)">
<path id="Vector" d="M26.2864 33.6601L31.4529 38.0202L36.3195 34.599C33.0479 29.4744 33.2575 25.2625 37.021 22.1233C38.6064 20.8207 40.6135 20.1412 42.6653 20.2124C44.717 20.2835 46.6721 21.1006 48.1631 22.5099C51.5773 25.748 51.6559 30.1837 48.4105 34.5874L53.3062 38.0202L58.4815 33.6369C57.0261 31.8172 56.2868 29.55 56.9388 26.9804C57.3489 25.3064 58.3478 23.8353 59.7535 22.8354C61.1412 21.8157 62.8445 21.317 64.5639 21.4271C66.2833 21.5371 67.9089 22.2488 69.155 23.4371C72.0395 26.1753 72.2024 29.8145 69.5712 33.8403C69.7458 33.945 69.9117 34.0554 70.0893 34.1543C73.7888 36.189 76.0358 39.2614 76.7839 43.4122C77.1331 45.3162 76.4637 46.1155 74.4844 46.1184C69.1811 46.1184 63.8789 46.1184 58.5775 46.1184H57.2997C57.1833 48.4438 56.8107 48.813 54.5608 48.813H29.9393C27.9513 48.813 27.4361 48.2752 27.5001 46.1184H10.3271C8.21105 46.1184 7.56782 45.3336 7.95785 43.2814C8.78448 38.9562 11.2556 35.878 15.2083 33.8345C13.6919 31.951 12.9438 29.8639 13.3921 27.4397C13.708 25.6704 14.6693 24.0807 16.0903 22.9778C17.4436 21.9144 19.1273 21.3583 20.8486 21.4061C22.57 21.4539 24.2201 22.1026 25.5121 23.2395C28.5538 25.934 28.778 29.5791 26.2864 33.6601ZM53.2975 45.2871C52.3952 40.5288 47.1531 36.8052 41.7508 37.0494C36.9133 37.2674 31.8546 41.3339 31.5227 45.2871H53.2975ZM11.8232 42.6361C17.2807 42.6361 22.648 42.6361 28.0183 42.6361C28.8915 42.6361 29.3019 41.7467 28.8333 40.9241C27.8478 39.1708 26.3142 37.7884 24.4672 36.9883C19.4201 34.7269 13.1825 37.4621 11.8232 42.6449V42.6361ZM72.9475 42.6361C71.9783 39.1481 68.631 36.5116 64.9461 36.1861C61.2611 35.8605 57.3026 37.9737 55.856 41.0171C55.7576 41.1861 55.7073 41.3787 55.7103 41.5742C55.7134 41.7696 55.7697 41.9606 55.8733 42.1265C55.9768 42.2924 56.1237 42.4269 56.2981 42.5157C56.4725 42.6045 56.6678 42.6441 56.8631 42.6303C58.4232 42.6507 59.9834 42.6303 61.5464 42.6303L72.9475 42.6361ZM37.4663 28.6227C37.4594 29.9254 37.9705 31.1775 38.8873 32.104C39.8042 33.0306 41.0519 33.5557 42.3563 33.5642C43.658 33.5689 44.9087 33.0593 45.8357 32.1467C46.7626 31.234 47.2906 29.9924 47.3045 28.6925C47.3174 28.0387 47.1985 27.3889 46.9548 26.7819C46.711 26.1749 46.3475 25.6231 45.8859 25.1594C45.4242 24.6956 44.8737 24.3293 44.2673 24.0824C43.661 23.8354 43.0111 23.7129 42.3563 23.722C41.7119 23.7193 41.0733 23.8443 40.4777 24.0898C39.8821 24.3354 39.3411 24.6965 38.8863 25.1524C38.4314 25.6082 38.0718 26.1497 37.828 26.7454C37.5843 27.3411 37.4613 27.9792 37.4663 28.6227ZM67.9935 28.7739C67.9807 27.749 67.5671 26.7697 66.8411 26.0452C66.115 25.3207 65.1341 24.9083 64.1078 24.8963C63.0815 24.9081 62.0999 25.3175 61.37 26.0382C60.6402 26.759 60.2192 27.7346 60.1959 28.7593C60.1966 29.2764 60.2995 29.7882 60.4987 30.2655C60.6979 30.7428 60.9895 31.1761 61.3567 31.5406C61.7239 31.9052 62.1595 32.1938 62.6386 32.3899C63.1177 32.586 63.6308 32.6857 64.1485 32.6834C65.1739 32.6636 66.1505 32.2425 66.868 31.5108C67.5855 30.779 67.9866 29.7951 67.9849 28.771L67.9935 28.7739ZM20.6542 32.6922C21.681 32.6863 22.6649 32.2806 23.3966 31.5613C24.1283 30.842 24.55 29.8659 24.572 28.8407C24.5674 27.7968 24.1495 26.7971 23.4095 26.0598C22.6695 25.3224 21.6675 24.9073 20.6222 24.905C19.5963 24.9241 18.6191 25.3449 17.9009 26.0767C17.1828 26.8085 16.7813 27.7928 16.783 28.8175C16.786 29.8427 17.1946 30.8251 17.9197 31.5509C18.6448 32.2766 19.6277 32.6868 20.6542 32.6922Z" fill="#FF6000"/>
<path id="Vector_2" d="M90.0332 78.1826V50.8592C90.0332 48.7983 90.5222 48.3187 92.6121 48.3187C95.9885 48.3187 99.3658 48.3187 102.744 48.3187C104.389 48.3187 104.994 48.9001 104.994 50.5337C104.994 68.9217 104.994 87.3098 104.994 105.698C104.994 107.392 104.389 107.98 102.686 107.983C99.2746 107.983 95.8614 107.983 92.4462 107.983C90.6008 107.983 90.0361 107.427 90.0361 105.587C90.0303 96.4583 90.0293 87.3233 90.0332 78.1826ZM101.431 104.462V51.9085H93.5726V104.462H101.431Z" fill="#FF6000"/>
<path id="Vector_3" d="M68.8231 83.531C68.8231 76.2099 68.8231 68.8868 68.8231 61.5618C68.8231 59.5998 69.315 59.0998 71.2536 59.0969C74.628 59.0969 78.0034 59.0969 81.3798 59.0969C83.1728 59.0969 83.7084 59.6434 83.7084 61.4223C83.7084 76.1789 83.7084 90.9354 83.7084 105.692C83.7084 107.419 83.1495 107.977 81.441 107.98C77.9481 107.98 74.463 107.98 70.9857 107.98C69.4111 107.98 68.8202 107.398 68.8202 105.811C68.8163 98.3893 68.8173 90.9626 68.8231 83.531ZM72.3945 62.6315V104.445H80.1456V62.6315H72.3945Z" fill="#1D3C87"/>
<path id="Vector_4" d="M98.1716 30.5499C96.853 30.5499 95.6363 30.5499 94.4197 30.5499C93.203 30.5499 92.4317 29.9859 92.3822 28.9453C92.3327 27.9047 92.9818 27.1635 94.2072 27.085C97.1411 26.899 100.078 26.7362 103.018 26.617C104.354 26.5647 105.119 27.4629 104.936 28.7768C104.534 31.6467 104.12 34.5156 103.693 37.3836C103.518 38.5638 102.706 39.2556 101.725 39.1277C100.698 38.994 100.119 38.2091 100.244 36.9854C100.369 35.7617 100.573 34.4914 100.771 33.0439C100.381 33.3345 100.145 33.4769 99.9383 33.6543C80.2388 50.8564 57.9401 63.678 33.5252 72.9243C31.6624 73.6278 29.7821 74.2934 27.9047 74.9591C26.5047 75.4561 25.5761 75.1306 25.2152 74.026C24.8659 72.997 25.3754 72.1657 26.7259 71.7006C36.8607 68.1665 46.7363 63.9308 56.2809 59.0243C70.9231 51.5192 84.6142 42.2926 97.0626 31.5411C97.4264 31.2388 97.7903 30.89 98.1716 30.5499Z" fill="#1D3C87"/>
<path id="Vector_5" d="M62.4982 89.4986C62.4982 94.8296 62.4982 100.159 62.4982 105.486C62.4982 107.465 61.9656 107.988 59.9689 107.991C56.5546 107.991 53.1433 107.991 49.729 107.991C48.1718 107.991 47.5374 107.369 47.5374 105.814C47.5374 94.9623 47.5374 84.1105 47.5374 73.2587C47.5374 71.7065 48.1573 71.0873 49.7319 71.0786C53.2539 71.0573 56.7768 71.0573 60.3007 71.0786C61.9132 71.0786 62.4924 71.7094 62.4953 73.372C62.4973 78.7553 62.4982 84.1308 62.4982 89.4986ZM51.1 74.651V104.428H58.9589V74.651H51.1Z" fill="#FF6000"/>
<path id="Vector_6" d="M66.3666 7.3279C66.1949 6.68551 66.0289 6.13613 65.9008 5.58385C65.7746 5.14487 65.8259 4.67395 66.0436 4.27229C66.2613 3.87063 66.6281 3.57028 67.0651 3.43578C67.2823 3.3617 67.5126 3.33336 67.7413 3.35255C67.9701 3.37174 68.1924 3.43804 68.3942 3.54727C68.596 3.65651 68.773 3.80631 68.9139 3.98723C69.0549 4.16815 69.1568 4.37627 69.2132 4.59847C69.938 6.98781 70.6366 9.38878 71.2507 11.8072C71.5738 13.0891 70.8636 13.9407 69.5392 14.0047C67.1447 14.1171 64.7502 14.2033 62.3557 14.2634C61.2176 14.2925 60.4608 13.6355 60.3909 12.6618C60.3211 11.688 61.0284 10.9177 62.1373 10.8189C62.9665 10.7839 63.7903 10.668 64.5969 10.473C63.3511 9.72015 62.149 8.8801 60.8508 8.22608C47.5548 1.51732 34.4829 1.89811 21.6497 9.51377C21.1694 9.80445 20.5291 10.1533 20.0692 10.0457C19.4378 9.8767 18.8983 9.46636 18.5673 8.90336C18.1744 8.11854 18.5324 7.29011 19.3386 6.86864C22.1009 5.44143 24.7845 3.75843 27.6923 2.72072C40.9825 -2.01436 53.6498 -0.517396 65.5981 6.99363C65.7524 7.08955 65.8892 7.18547 66.0609 7.2843C66.1614 7.30768 66.2636 7.32227 66.3666 7.3279Z" fill="#1D3C87"/>
<path id="Vector_7" d="M7.48626 18.3212C6.70328 18.516 6.08622 18.7078 5.44878 18.8183C5.23658 18.8705 5.01609 18.8802 4.80013 18.8466C4.58417 18.8131 4.37707 18.7371 4.19077 18.623C4.00447 18.5088 3.84268 18.3589 3.71487 18.1819C3.58707 18.0048 3.4958 17.8042 3.44626 17.5916C3.37889 17.3825 3.3543 17.162 3.37406 16.9433C3.39382 16.7245 3.45748 16.512 3.56124 16.3183C3.66499 16.1247 3.80675 15.9538 3.97801 15.816C4.14928 15.6782 4.34653 15.5763 4.55809 15.5162C7.01859 14.7682 9.4917 14.0638 11.9774 13.403C12.1994 13.341 12.4324 13.3287 12.6598 13.367C12.8871 13.4053 13.1031 13.4933 13.2925 13.6246C13.4818 13.756 13.6398 13.9274 13.7552 14.1268C13.8705 14.3261 13.9403 14.5485 13.9596 14.7779C14.1381 17.4153 14.2449 20.0565 14.2798 22.7017C14.2798 23.6696 13.4561 24.3033 12.5334 24.2858C11.6107 24.2684 10.9471 23.6289 10.8569 22.629C10.787 21.8384 10.7608 21.0419 10.6967 19.9315C10.3125 20.4635 10.0768 20.7512 9.88174 21.0652C1.90065 34.1106 1.39809 47.438 8.37403 61.0474C9.18902 62.6258 9.15699 63.6112 8.13825 64.178C7.11951 64.7448 6.15314 64.3233 5.34979 62.7711C-2.27426 48.0281 -1.78039 33.5574 6.83135 19.3589C7.02346 19.0566 7.21265 18.763 7.48626 18.3212Z" fill="#1D3C87"/>
<path id="Vector_8" d="M41.2211 95.2917C41.2211 98.7798 41.2211 102.268 41.2211 105.736C41.2211 107.445 40.6565 107.997 38.9246 107.997C35.4764 107.997 32.0273 107.997 28.5771 107.997C26.9122 107.997 26.3359 107.436 26.333 105.794C26.333 98.7943 26.333 91.7949 26.333 84.7955C26.333 83.159 26.9151 82.5805 28.5742 82.5747C32.067 82.5747 35.5521 82.5747 39.0294 82.5747C40.6129 82.5747 41.2153 83.1793 41.2211 84.7373C41.2269 88.2574 41.2211 91.7745 41.2211 95.2917ZM37.6934 86.1297H29.8753V104.442H37.6934V86.1297Z" fill="#1D3C87"/>
<path id="Vector_9" d="M84.3284 36.8226C84.3458 37.9098 83.6938 38.6771 82.7479 38.7643C81.8019 38.8515 81.1004 38.1655 80.8355 37.0755C80.1486 34.2385 79.5315 31.3696 78.6409 28.5936C78.0587 26.7508 77.0662 25.03 76.2018 23.283C75.5439 21.9546 75.6399 20.9838 76.5976 20.4431C77.5552 19.9025 78.5157 20.2775 79.2347 21.5506C81.8191 26.1297 83.5286 31.1487 84.276 36.3517C84.308 36.532 84.3284 36.7122 84.3284 36.8226Z" fill="#1D3C87"/>
</g>
<defs>
<clipPath id="clip0_255_366">
<rect width="105" height="108" fill="white"/>
</clipPath>
</defs>
</svg>
