<svg width="101" height="112" viewBox="0 0 101 112" fill="none" xmlns="http://www.w3.org/2000/svg">
<g id="Layer_1" clip-path="url(#clip0_255_376)">
<path id="Vector" d="M62.634 -3.15113e-06C65.9197 1.40381 66.5769 2.41659 66.5769 6.05904C66.5769 10.1079 66.6097 14.1568 66.5769 18.2035C66.5418 21.5625 63.7796 23.799 60.4852 23.219C58.6321 22.8939 57.5565 21.6812 57.0045 19.9808C56.7176 19.091 56.6124 18.1442 56.3978 17.0897C56.113 17.3511 55.8305 17.6015 55.5588 17.863C51.762 21.5245 47.9652 25.1911 44.1684 28.8628C41.8115 31.1344 39.9606 31.4024 37.0757 29.9086C35.8491 29.2737 34.5939 28.6849 33.4111 27.9797C32.686 27.5403 32.2611 27.637 31.6587 28.2389C24.1484 35.8709 16.6205 43.4868 9.07506 51.0866C7.8265 52.3477 6.44648 53.3011 4.5583 53.0045C2.62193 52.6992 1.17406 51.6996 0.420543 49.8608C-0.322023 48.0571 -0.0175706 46.3589 1.16528 44.8233C1.43818 44.4834 1.73075 44.1599 2.04146 43.8545C10.4426 35.3598 18.8438 26.8651 27.2449 18.3705C29.6785 15.9099 31.4725 15.6353 34.5764 17.239C35.8907 17.9223 37.205 18.6407 38.5587 19.2646C38.8544 19.403 39.4349 19.3547 39.6539 19.1481C42.668 16.2922 45.6426 13.3967 48.6216 10.5056C48.7051 10.4015 48.7785 10.2897 48.8407 10.1716C48.2427 10.0772 47.6798 10.0288 47.1387 9.89482C44.9176 9.34779 43.6603 7.90004 43.4697 5.70974C43.2682 3.40519 44.4182 1.35548 46.4202 0.448166C46.7401 0.300974 47.0555 0.147191 47.3753 -0.00439453L62.634 -3.15113e-06ZM63.2912 11.5974C63.2912 9.40052 63.3109 7.2212 63.2912 5.03529C63.2759 3.81381 62.7677 3.29754 61.5388 3.29315C57.2499 3.27118 52.9602 3.27118 48.6699 3.29315C47.4739 3.29315 46.7138 4.0357 46.7181 5.05067C46.7225 6.06563 47.476 6.76644 48.6896 6.7928C49.96 6.81697 51.2327 6.81038 52.5054 6.7928C53.3815 6.78182 54.192 6.89167 54.595 7.82535C54.9981 8.75903 54.4855 9.41151 53.8525 10.0222C49.5562 14.1656 45.2644 18.3148 40.977 22.4699C40.1139 23.3113 39.2728 23.4079 38.2301 22.8389C36.4449 21.8657 34.6246 20.9562 32.8153 20.0269C31.2053 19.2009 30.9906 19.2382 29.7004 20.541L4.42471 46.0799C4.1862 46.3047 3.9623 46.5447 3.75442 46.7983C3.11261 47.6441 3.16739 48.5932 3.87491 49.2654C4.54738 49.9025 5.55497 49.8674 6.32163 49.1709C6.59106 48.9249 6.83859 48.6569 7.09487 48.3976C14.8798 40.5327 22.6654 32.6671 30.4518 24.8008C31.5799 23.6628 32.018 23.5925 33.4221 24.3153C35.135 25.194 36.8413 26.086 38.5521 26.9691C40.2103 27.8259 40.5235 27.782 41.8969 26.4616C46.7452 21.7866 51.5912 17.1102 56.435 12.4322C57.0922 11.7864 57.7493 11.1141 58.8029 11.5798C59.7777 12.0192 59.8105 12.898 59.7996 13.8053C59.7821 15.1542 59.7864 16.5031 59.7996 17.852C59.8127 19.2009 60.4808 20.0313 61.5519 20.0225C62.6231 20.0137 63.2802 19.2075 63.2868 17.8256C63.3021 15.7539 63.2956 13.6757 63.2956 11.5974H63.2912Z" fill="#FF6000"/>
<path id="Vector_2" d="M46.2319 53.7449C47.2351 53.2132 48.1004 52.8397 48.8604 52.3081C49.1189 52.1258 49.1978 51.5524 49.2 51.1569C49.2219 46.1612 49.2219 41.1647 49.2 36.1675C49.1868 33.4543 50.0082 31.1476 52.2666 29.5065C52.812 29.0831 53.4233 28.7528 54.0759 28.5289C56.4907 27.7891 59.0628 27.7359 61.506 28.3751C64.98 29.267 66.9296 32.156 66.934 36.1345C66.9442 46.9726 66.9442 57.804 66.934 68.6288V69.8789C67.1004 69.947 67.1661 69.9997 67.2253 69.9953C69.8911 69.7317 69.8911 69.7317 69.8911 67.0822C69.8911 51.5092 69.8911 35.9361 69.8911 20.363C69.8911 17.1094 71.0761 14.5434 74.0529 13.0144C77.665 11.158 83.6406 12.1708 85.9581 14.9916C87.0077 16.269 87.5816 17.8729 87.5812 19.5282C87.6075 21.0946 87.6229 22.6632 87.5812 24.2318C87.5572 25.4247 86.9854 26.0574 86.0216 26.0859C85.0053 26.1167 84.381 25.4664 84.3459 24.2318C84.3065 22.8104 84.3459 21.3868 84.3262 19.9654C84.2671 17.1094 82.6527 15.5342 79.8051 15.5167C78.8961 15.5167 77.987 15.4925 77.078 15.5342C76.143 15.5649 75.2486 15.924 74.5507 16.5488C73.8529 17.1736 73.3961 18.0244 73.26 18.9526C73.1914 19.3842 73.1577 19.8206 73.1592 20.2576C73.1592 35.8658 73.1592 51.4755 73.1592 67.0866C73.1592 67.37 73.1833 67.6556 73.2052 68.1236C73.8317 67.7984 74.399 67.5831 74.8809 67.2448C77.8556 65.1555 80.8324 63.0707 83.7523 60.9002C84.1159 60.6299 84.3109 59.916 84.3131 59.4063C84.3459 50.3616 84.3372 41.317 84.3415 32.2702C84.3293 31.7975 84.3601 31.3247 84.4336 30.8576C84.5869 30.0118 85.2046 29.5988 85.9932 29.6098C86.7817 29.6207 87.3863 30.0491 87.5265 30.8971C87.5883 31.3661 87.6139 31.8391 87.6031 32.3119C87.6031 40.4097 87.6031 48.5067 87.6031 56.603V58.0969C88.3063 57.7278 88.8517 57.4159 89.419 57.1457C96.0386 53.9997 101.05 59.3052 100.998 64.3756C100.974 66.7285 99.9026 68.6178 98.1634 70.0634C92.1527 75.0753 86.1114 80.0498 80.0395 84.9869C76.8743 87.5771 73.03 88.5635 69.1726 89.4994C58.6584 92.0463 48.1442 94.6181 37.6299 97.2149C37.3189 97.2917 37.0144 97.3972 36.8195 97.4565C36.6946 99.0141 36.7428 100.532 36.4252 101.951C35.6125 105.585 33.3388 108.116 29.8078 109.14C25.9727 110.254 22.0785 111.153 18.1436 111.833C12.6674 112.775 8.17479 109.84 6.59985 104.533C5.83538 101.951 5.22205 99.3239 4.56929 96.7118C4.25824 95.4705 4.70731 94.5896 5.68206 94.3611C6.59767 94.1414 7.39062 94.7038 7.70824 95.8769C8.36538 98.2935 8.97212 100.739 9.60955 103.166C10.7179 107.395 14.0343 109.441 18.2991 108.5C21.4563 107.806 24.6077 107.088 27.7532 106.347C31.834 105.392 34.4187 100.903 32.9949 97.0215C29.7092 88.0362 26.314 79.0839 22.9626 70.1183C22.9013 69.958 22.8137 69.8064 22.7041 69.5757C17.999 70.9444 13.2961 72.1834 8.68518 73.6949C4.94387 74.9207 3.27034 78.4204 4.23195 82.377C4.70509 84.3235 5.23739 86.2545 5.72367 88.1966C6.0369 89.4378 5.63169 90.3078 4.65256 90.567C3.70628 90.8153 2.90014 90.2419 2.58253 88.9963C1.96701 86.5643 1.29234 84.1389 0.830157 81.674C0.0131145 77.3439 2.69207 72.3811 6.87366 70.9092C11.1845 69.3978 15.5961 68.1543 20.0164 66.9856C22.864 66.2298 25.4181 64.8809 27.9437 63.4552C28.2657 63.2728 28.4979 62.6489 28.5001 62.2271C28.5395 57.7059 28.5468 53.1832 28.522 48.659C28.522 45.8228 29.6369 43.6545 32.1538 42.288C34.1668 41.1896 40.5871 41.2072 42.5957 42.288C45.0731 43.6325 46.1925 45.7899 46.2253 48.5602C46.2472 50.232 46.2319 51.8929 46.2319 53.7449ZM35.5315 94.3194C35.7943 94.2688 35.9696 94.2425 36.1382 94.1985C47.1387 91.5007 58.1327 88.7744 69.1419 86.1117C72.4145 85.3209 75.6125 84.4091 78.2761 82.221C84.0984 77.4406 89.9126 72.6506 95.7188 67.8511C96.1631 67.4712 96.5485 67.0269 96.8622 66.533C97.7866 65.1248 98.0013 63.6177 97.1973 62.0843C96.3628 60.4937 95.077 59.5403 93.2195 59.448C91.949 59.3909 90.8976 59.8874 89.8922 60.597C85.7062 63.5606 81.5027 66.4978 77.3211 69.4681C74.4735 71.487 71.363 72.9831 67.9021 73.1808C63.0086 73.4488 58.0932 73.3478 53.1866 73.3478C51.5613 73.3478 50.4266 72.4404 49.9009 70.9312C49.3752 69.4219 49.7563 68.0401 50.9655 66.9658C51.8636 66.1705 52.8076 65.428 53.743 64.6722C56.17 62.7126 57.5522 60.1268 58.2049 57.1193C58.3685 56.3632 58.2568 55.5733 57.89 54.8927C57.5231 54.212 56.9254 53.6856 56.205 53.4087C55.0813 52.9694 54.0781 53.2923 53.0815 53.8239C44.232 58.5429 35.3818 63.2589 26.5309 67.972C26.3118 68.0884 26.1103 68.2356 25.8474 68.4113L35.5315 94.3194ZM52.6587 50.3397C53.0267 50.2474 53.3399 50.1661 53.6532 50.0958C58.0867 49.1028 62.2135 52.8463 61.46 57.3192C61.1818 58.9801 60.5597 60.6146 59.8894 62.1744C58.6343 65.0896 56.1963 66.9878 53.789 68.8881C53.4407 69.1627 53.1318 69.4966 52.5908 70.0239H63.6592V68.8441C63.6592 57.9827 63.6592 47.1198 63.6592 36.2554C63.6625 35.8553 63.6406 35.4554 63.5935 35.0581C63.3197 32.9139 61.828 31.4661 59.6901 31.3365C58.6017 31.2695 57.5103 31.2695 56.4219 31.3365C54.2862 31.4727 52.6149 32.971 52.5733 35.0712C52.4725 40.0626 52.5295 45.0561 52.5273 50.0475C52.5251 50.12 52.582 50.1881 52.6587 50.3397ZM31.8011 61.2341C32.0202 61.2341 32.1384 61.2539 32.2217 61.2099C35.6519 59.3953 39.0822 57.5806 42.4928 55.7331C42.6181 55.6492 42.7234 55.5385 42.801 55.409C42.8786 55.2794 42.9267 55.1343 42.9418 54.9839C42.9725 52.6926 43.0185 50.3968 42.9309 48.1054C42.8564 46.1722 41.4545 44.8914 39.5312 44.843C38.217 44.8123 36.9181 44.8277 35.6125 44.843C33.0913 44.8606 31.8208 46.1348 31.8055 48.692C31.7902 51.493 31.8055 54.2963 31.8055 57.0973L31.8011 61.2341Z" fill="#1D3C87"/>
<path id="Vector_3" d="M20.4151 104.654C19.5696 104.659 18.7313 104.497 17.9484 104.176C17.1656 103.856 16.4538 103.383 15.8538 102.785C15.2539 102.188 14.7777 101.477 14.4526 100.694C14.1276 99.911 13.9601 99.0714 13.9598 98.2233C13.965 96.5099 14.6449 94.8679 15.8515 93.6549C17.058 92.4419 18.6936 91.7561 20.402 91.7468C22.0915 91.7737 23.7048 92.4565 24.9029 93.6515C26.101 94.8466 26.7905 96.4609 26.8266 98.1552C26.877 101.679 23.9637 104.636 20.4151 104.654ZM20.3494 101.358C20.7661 101.364 21.1799 101.287 21.5669 101.132C21.9539 100.977 22.3065 100.746 22.6043 100.454C22.9021 100.162 23.1394 99.813 23.3024 99.4282C23.4654 99.0435 23.5509 98.6303 23.554 98.2123C23.5438 97.3678 23.2043 96.5608 22.6082 95.9642C22.0121 95.3676 21.2068 95.0288 20.3647 95.0202C19.5412 95.0325 18.7546 95.3648 18.1703 95.947C17.5861 96.5293 17.2499 97.3161 17.2324 98.142C17.2186 98.5614 17.289 98.9792 17.4394 99.3707C17.5898 99.7623 17.8171 100.119 18.1079 100.421C18.3986 100.723 18.7469 100.963 19.132 101.127C19.517 101.291 19.931 101.375 20.3494 101.376V101.358Z" fill="black"/>
</g>
<defs>
<clipPath id="clip0_255_376">
<rect width="101" height="112" fill="white"/>
</clipPath>
</defs>
</svg>
