<svg width="109" height="109" viewBox="0 0 109 109" fill="none" xmlns="http://www.w3.org/2000/svg">
<g id="Layer_1" clip-path="url(#clip0_255_392)">
<path id="Vector" d="M109 59.804C108.573 61.945 108.235 64.1115 107.706 66.2268C105.552 74.9846 101.044 82.9876 94.6695 89.3705C93.8758 90.1752 93.0023 90.3202 92.3138 89.7544C92.0085 89.5339 91.798 89.2061 91.7246 88.8369C91.6513 88.4677 91.7205 88.0844 91.9183 87.7641C92.1258 87.4355 92.3776 87.137 92.6666 86.877C98.7091 80.7148 102.916 72.9937 104.818 64.5778C105.213 62.8164 105.512 61.0349 105.714 59.2411C105.777 58.6923 105.572 57.7711 105.213 57.6006C104.9 57.4778 104.564 57.424 104.229 57.4426C103.893 57.4612 103.565 57.552 103.267 57.7086C102.741 58.027 102.328 58.7606 102.152 59.3946C101.338 62.289 100.775 65.263 99.8475 68.1176C97.6284 74.9413 93.2043 79.968 86.8342 83.2804C84.911 84.2783 83.0104 84.2755 81.201 83.0416C79.3915 81.8076 78.6632 80.0192 78.9762 77.8726C79.3147 75.5611 79.7643 73.2666 80.1569 70.9608C80.2223 70.5798 80.356 70.1618 80.2621 69.8235C80.1683 69.4852 79.898 68.9961 79.5879 68.8767C79.2777 68.7573 78.8054 68.9677 78.4242 69.0928C78.2848 69.1411 78.1938 69.3544 78.0999 69.5022C75.1353 74.1224 72.1736 78.7483 69.1778 83.4197C69.3968 83.667 69.5932 83.9087 69.8094 84.1276C73.3714 87.6902 76.9505 91.2357 80.4812 94.8266C81.0502 95.4123 81.4599 95.4237 82.0972 94.9944C83.7701 93.8571 85.4913 92.808 87.1728 91.6906C88.2852 90.9514 89.1871 90.9741 89.7703 91.8328C90.3393 92.6459 90.1004 93.5387 89.0534 94.2665C87.2809 95.4976 85.4743 96.6776 83.6791 97.8831C84.6691 100.294 84.5326 101.011 82.6008 102.93C80.8444 104.685 79.0871 106.439 77.3289 108.193C76.2364 109.279 75.5194 109.279 74.4355 108.193C68.5101 102.279 62.5886 96.361 56.6709 90.4396C55.6068 89.3762 55.604 88.5972 56.6538 87.5395C58.5069 85.68 60.3638 83.8244 62.2244 81.9725C63.7466 80.4571 64.7679 80.2666 66.8164 81.1195C67.0155 80.8352 67.2374 80.5253 67.4423 80.2069C70.0996 76.0615 72.7455 71.9047 75.4084 67.7679C76.5778 65.9539 78.3616 65.209 80.228 65.6866C82.5666 66.2837 83.827 68.3337 83.4031 70.9352C83.0503 73.1017 82.6434 75.2597 82.265 77.4234C82.2281 77.6309 82.1968 77.8413 82.1598 78.0517C81.9976 78.9871 82.1257 79.8287 82.9649 80.4173C83.8042 81.0058 84.6208 80.8637 85.4686 80.4173C91.2754 77.3466 95.193 72.6951 97.0594 66.3974C97.8218 63.8186 98.3624 61.1773 99.0168 58.5672C99.8077 55.4113 102.764 53.5177 105.671 54.2797C107.475 54.7516 108.4 56.0652 108.994 57.6915L109 59.804ZM75.8182 104.88L80.7145 99.9331L64.8903 84.1618C63.3141 85.7398 61.6242 87.4343 59.9996 89.0663L75.8182 104.88Z" fill="#1D3C87"/>
<path id="Vector_2" d="M62.5744 0C64.2217 0.952474 65.8433 1.95044 67.5191 2.84321C69.1379 3.69617 69.8976 4.97561 69.7951 6.8237C69.7739 7.6015 69.7967 8.3799 69.8634 9.15513C69.9032 10.0081 69.5135 10.6137 68.6913 10.8212C67.869 11.0288 67.0952 10.7303 66.8846 9.91711C66.6657 8.95795 66.5701 7.9748 66.6001 6.99145C66.6001 6.31477 66.4579 5.88829 65.8177 5.56985C64.5915 4.93581 63.4336 4.17383 62.2045 3.5398C62.0299 3.45954 61.8393 3.4199 61.6471 3.42384C61.4549 3.42778 61.2662 3.4752 61.095 3.56255C59.5017 4.76807 57.7178 5.09218 55.7775 4.93865C54.8923 4.86614 54.0026 4.86614 53.1174 4.93865C51.2055 5.10355 49.47 4.74247 47.9053 3.57107C47.7355 3.47947 47.5471 3.42777 47.3543 3.41988C47.1615 3.412 46.9695 3.44816 46.7928 3.52558C45.5069 4.19658 44.2323 4.9216 43.0231 5.70916C42.8511 5.8291 42.7084 5.9862 42.6054 6.16881C42.5025 6.35141 42.442 6.55485 42.4285 6.764C42.6732 8.75424 42.0615 10.4602 40.9576 12.058C40.4364 12.8182 39.9751 13.6177 39.5778 14.4492C38.801 16.0812 37.6886 17.3464 35.9759 18.0202C35.4069 18.2477 35.222 18.6458 35.239 19.2542C35.2789 20.636 35.2077 22.0235 35.2817 23.4024C35.3027 23.6113 35.3697 23.8129 35.4779 23.9929C35.5861 24.1728 35.7329 24.3265 35.9076 24.4431C37.5789 25.1799 38.9101 26.5203 39.6346 28.1961C39.9997 28.965 40.427 29.7029 40.9121 30.4024C42.033 32.0316 42.6846 33.7603 42.4314 35.7875C42.3887 36.1144 42.7158 36.6404 43.043 36.8366C44.2326 37.6078 45.4604 38.3185 46.7217 38.9661C46.9098 39.0568 47.116 39.1039 47.3248 39.1039C47.5337 39.1039 47.7399 39.0568 47.928 38.9661C49.5013 37.8033 51.2396 37.4592 53.1487 37.6156C54.0691 37.6867 54.9936 37.6867 55.9141 37.6156C57.7861 37.4706 59.4875 37.8118 61.0352 38.9519C61.3197 39.1623 61.9741 39.1169 62.3325 38.9519C63.536 38.352 64.6655 37.6042 65.8547 36.9787C66.4465 36.666 66.6798 36.2622 66.5802 35.6197C66.2957 33.837 66.8477 32.2789 67.8434 30.8175C68.3766 30.0243 68.852 29.1938 69.266 28.3325C70.0996 26.6266 71.2291 25.2477 73.0471 24.4857C73.2249 24.3733 73.375 24.222 73.4858 24.0432C73.5967 23.8644 73.6656 23.6628 73.6872 23.4536C73.7659 22.0331 73.7659 20.6093 73.6872 19.1888C73.6001 18.7454 73.3569 18.348 73.0015 18.0686C72.1281 17.3208 71.064 16.7607 70.3044 15.922C70.1462 15.7622 70.0257 15.5692 69.9517 15.357C69.8776 15.1447 69.8519 14.9187 69.8765 14.6953C69.901 14.4719 69.9752 14.2567 70.0935 14.0656C70.2118 13.8745 70.3714 13.7122 70.5605 13.5905C71.3315 13.0219 72.0826 13.255 72.882 14.0654C73.4162 14.5711 74.0269 14.9894 74.6915 15.305C76.2534 16.0982 76.996 17.2952 76.9277 19.0665C76.8651 20.6957 76.9106 22.3277 76.9106 23.9597C76.9106 25.3273 76.3416 26.4361 75.1154 26.982C73.4909 27.7042 72.4553 28.8898 71.7355 30.4479C71.4991 30.9643 71.2133 31.4566 70.882 31.9179C69.983 33.116 69.5759 34.6121 69.7439 36.1002C69.8777 37.5645 69.2147 38.6989 67.9117 39.4381C66.4323 40.2797 64.9585 41.1327 63.4905 41.997C62.2415 42.7277 60.9498 42.8187 59.7919 41.96C58.449 40.9706 57.0009 40.6834 55.3963 40.8228C54.8653 40.8697 54.3312 40.8697 53.8002 40.8228C52.0932 40.6749 50.5341 40.9507 49.0945 41.997C47.9564 42.8244 46.6961 42.7107 45.4841 41.997C43.9848 41.1213 42.4769 40.2626 40.9718 39.3955C39.794 38.7159 39.0742 37.6696 39.2221 36.3419C39.427 34.4853 38.8096 32.9556 37.828 31.4828C37.5434 31.0759 37.2931 30.6461 37.0798 30.1977C36.4877 28.7805 35.3645 27.6509 33.9502 27.0503C32.6329 26.4816 32.027 25.3444 32.0355 23.883C32.0355 22.1088 32.0355 20.3375 32.0355 18.5633C32.0355 17.2384 32.6045 16.1523 33.7824 15.6234C35.3455 14.9311 36.5815 13.6633 37.2334 12.0836C37.4669 11.5658 37.7529 11.0732 38.0869 10.6137C38.9832 9.43962 39.3872 7.96319 39.2136 6.49674C39.0599 4.93866 39.7997 3.79284 41.1824 3.02233C42.9349 2.04427 44.6562 1.00934 46.3917 0H48.0987C49.1485 0.568641 50.1984 1.61778 51.2482 1.61494C54.2355 1.61494 57.4334 2.59869 60.139 0.389518C60.3705 0.234616 60.6175 0.104082 60.8759 0H62.5744Z" fill="#1D3C87"/>
<path id="Vector_3" d="M42.1212 81.1054C44.1952 80.2524 45.2223 80.4429 46.7387 81.9583C48.5956 83.8083 50.4515 85.664 52.3065 87.5253C53.3592 88.583 53.3564 89.3648 52.3065 90.4282C50.2543 92.4905 48.1963 94.5461 46.1327 96.5951C45.2508 97.4737 44.309 97.5874 43.612 96.9278C42.915 96.2681 42.9804 95.2474 43.8965 94.3348C45.6548 92.5834 47.4244 90.8433 49.1001 89.1886L44.0246 84.1191L28.1804 100.015L33.3015 105.102C34.0526 104.297 34.8521 103.396 35.6885 102.543C36.8009 101.406 37.9247 100.269 39.0827 99.1682C39.3754 98.8767 39.7719 98.713 40.1851 98.713C40.5984 98.713 40.9949 98.8767 41.2876 99.1682C41.4383 99.3076 41.5595 99.4759 41.644 99.6629C41.7285 99.8499 41.7747 100.052 41.7797 100.257C41.7847 100.462 41.7486 100.666 41.6733 100.857C41.5981 101.048 41.4853 101.222 41.3416 101.369C38.9859 103.776 36.6046 106.159 34.1977 108.517C34.0612 108.674 33.8925 108.8 33.7031 108.886C33.5136 108.973 33.3078 109.018 33.0995 109.018C32.8912 109.018 32.6854 108.973 32.4959 108.886C32.3065 108.8 32.1378 108.674 32.0013 108.517C29.8021 106.356 27.6 104.189 25.4747 101.955C24.4306 100.86 24.4647 99.6999 25.3325 97.866C23.8104 96.8709 22.2257 95.9383 20.7548 94.8608C8.9933 86.2458 2.09118 74.728 0.165075 60.2646C0.00974296 59.4311 -0.0171298 58.5787 0.0854049 57.737C0.606051 54.9365 3.41131 53.4409 6.22792 54.402C8.23653 55.0872 9.45137 56.5201 9.95779 58.5616C10.5496 60.9669 11.0702 63.395 11.7274 65.7833C13.5226 72.3227 17.4346 77.1561 23.4092 80.3604C24.2855 80.8295 25.1362 81.02 26.0068 80.4144C26.8773 79.8088 26.9684 78.9018 26.8005 77.9437C26.3965 75.6407 25.9755 73.3405 25.58 71.0376C24.9541 67.3755 27.9841 64.538 31.2303 65.8572C32.2171 66.3182 33.0535 67.0485 33.6429 67.964C36.3173 71.9701 38.8778 76.0558 41.4782 80.113C41.6717 80.4173 41.8822 80.7329 42.1212 81.1054ZM39.8252 83.4624C36.7725 78.6943 33.7766 74.0144 30.7779 69.3373C30.721 69.2463 30.6584 69.1155 30.5759 69.0956C30.1549 68.9933 29.674 68.7601 29.3213 68.8824C29.0368 68.9819 28.7807 69.4908 28.6982 69.8576C28.6157 70.2244 28.7551 70.6253 28.8205 70.9949C29.216 73.369 29.6741 75.7345 30.0012 78.1029C30.2857 80.1785 29.4578 81.8673 27.7252 83.0359C25.9925 84.2044 24.1262 84.2613 22.2769 83.3202C15.8584 80.0306 11.3832 75.0095 9.13841 68.146C8.19385 65.2573 7.5793 62.2634 6.84243 59.3122C6.62051 58.4251 6.19091 57.7512 5.31178 57.4243C3.949 56.9153 3.03576 57.6148 3.20362 59.062C4.18232 67.9754 7.35454 76.0018 12.9593 83.0302C16.8108 87.868 21.556 91.9219 26.9371 94.9716C27.4122 95.256 27.7906 95.4834 28.3113 94.9404C32.1009 91.1447 35.9247 87.3547 39.8252 83.4624Z" fill="#1D3C87"/>
<path id="Vector_4" d="M94.4275 35.5258C94.6091 36.149 94.8384 36.7574 95.1132 37.3455C95.9667 38.8808 96.678 40.473 98.4334 41.326C99.028 41.6103 99.4405 42.6879 99.5515 43.4555C99.7364 44.7065 99.6226 46.0144 99.597 47.2796C99.5743 48.488 98.9142 49.2699 97.9156 49.9238C96.939 50.5245 96.1276 51.3591 95.5549 52.3519C94.9821 53.3448 94.6661 54.4646 94.6353 55.6102C94.5698 56.8982 94.1317 57.8592 92.9965 58.4933C92.0387 59.0278 91.0903 59.5765 90.1514 60.1395C89.039 60.8019 87.9949 60.7252 86.8426 60.1196C85.842 59.5631 84.7159 59.2711 83.5708 59.2711C82.4257 59.2711 81.2996 59.5631 80.299 60.1196C79.1154 60.7508 78.0457 60.8247 76.8991 60.1196C75.9972 59.5509 75.0669 59.042 74.1337 58.5302C72.9502 57.8848 72.5263 56.8868 72.4466 55.5647C72.4067 54.4395 72.0908 53.3414 71.5267 52.3667C70.9627 51.3921 70.1677 50.5708 69.2118 49.975C68.0936 49.2528 67.4649 48.3743 67.5047 47.0294C67.5303 45.9661 67.5303 44.8999 67.5047 43.8394C67.4734 42.4888 68.0738 41.5648 69.2459 40.9137C70.8221 40.0607 72.495 37.1379 72.4722 35.3041C72.4551 33.9734 72.9644 32.9868 74.1593 32.3471C75.1266 31.8268 76.0655 31.2582 77.0044 30.6981C78.0827 30.0584 79.1183 30.1294 80.2222 30.6981C81.2406 31.2611 82.3855 31.5565 83.5494 31.5565C84.7134 31.5565 85.8583 31.2611 86.8768 30.6981C87.9892 30.1294 89.0134 30.0299 90.0974 30.6583C91.0448 31.2098 92.0035 31.75 92.9424 32.313C94.2881 33.1233 94.6324 33.7886 94.4275 35.5258ZM75.7725 54.4133C75.4225 55.4908 75.892 55.9287 76.626 56.2557C77.0469 56.4439 77.4465 56.6764 77.8181 56.9494C78.3558 57.3417 78.7882 57.2081 79.3629 56.9494C80.1525 56.5807 80.9974 56.3444 81.8638 56.25C83.0665 56.159 84.2743 56.159 85.477 56.25C86.0972 56.2841 86.8284 56.358 87.2921 56.702C88.2367 57.4071 88.9992 57.2707 89.8527 56.6281C90.0463 56.4728 90.2621 56.3473 90.4928 56.2557C91.2297 55.9713 91.4459 55.4908 91.4374 54.7004C91.4369 53.9995 91.5974 53.3079 91.9068 52.6789C92.5469 51.4105 93.2535 50.1767 94.0236 48.9827C94.2969 48.4889 94.7029 48.0812 95.1957 47.8056C96.2427 47.3479 96.6182 46.6485 96.4305 45.5652C96.3764 45.2212 96.5073 44.8288 96.3992 44.5104C96.2562 44.0903 96.0298 43.7035 95.7334 43.3731C95.0848 42.6537 94.2768 42.0624 93.7106 41.289C93.0429 40.3288 92.4558 39.315 91.9552 38.2581C91.6707 37.7066 91.3862 37.0356 91.4459 36.4641C91.591 35.3268 91.0505 34.7581 90.1315 34.3715C89.8687 34.2613 89.621 34.118 89.3946 33.945C88.8256 33.4901 88.3334 33.5583 87.6876 33.9109C86.9739 34.281 86.1932 34.5043 85.3917 34.5677C84.1525 34.6473 82.9095 34.6473 81.6703 34.5677C81.0842 34.5421 80.3701 34.5165 79.9433 34.1924C78.9106 33.3991 78.04 33.5356 77.1125 34.2777C76.8874 34.4503 76.6406 34.5928 76.3785 34.7013C75.8095 34.943 75.7071 35.3524 75.6473 35.9495C75.5584 36.849 75.3279 37.7289 74.9645 38.5567C74.4455 39.6422 73.8464 40.6876 73.1721 41.6842C72.8563 42.1789 72.458 42.7618 71.9601 42.9665C70.7765 43.447 70.5376 44.2658 70.6884 45.3889C70.7225 45.6351 70.7225 45.8848 70.6884 46.131C70.5859 46.8191 70.8818 47.1773 71.4764 47.5526C72.1755 48.0119 72.7793 48.6018 73.2546 49.2898C73.9545 50.3128 74.5801 51.3845 75.1266 52.4969C75.3905 53.1222 75.6064 53.7666 75.7725 54.4246V54.4133Z" fill="#1D3C87"/>
<path id="Vector_5" d="M14.5211 55.252C14.3545 54.6591 14.1414 54.0801 13.8838 53.5205C13.0303 51.9625 12.2878 50.3447 10.4925 49.4576C9.89224 49.1733 9.53658 48.0161 9.40287 47.2058C9.22078 46.0998 9.37159 44.9312 9.35452 43.8081C9.33461 42.4661 9.9235 41.5336 11.1014 40.8853C12.6661 40.0324 14.3817 37.0783 14.3419 35.2842C14.3134 33.9479 14.8199 32.967 16.0091 32.3244C16.9764 31.8013 17.921 31.2383 18.8542 30.6754C19.9324 30.0328 20.9652 30.1067 22.0719 30.6754C23.1046 31.2499 24.268 31.5491 25.4499 31.5441C26.6318 31.5391 27.7926 31.2301 28.8204 30.6469C29.8475 30.101 30.8319 30.0271 31.8476 30.6071C32.8633 31.1871 33.8021 31.7615 34.8007 32.313C36.0326 32.9727 36.4537 34.0019 36.5249 35.3638C36.5644 36.4549 36.8682 37.52 37.4103 38.4679C37.9525 39.4158 38.7167 40.218 39.6373 40.8057C40.855 41.6132 41.5407 42.5344 41.4781 44.0072C41.4383 44.9994 41.4496 45.9974 41.4781 46.984C41.5151 48.326 40.9091 49.2216 39.7711 49.9466C38.796 50.5479 37.9867 51.3828 37.4163 52.3758C36.846 53.3688 36.5327 54.4884 36.5049 55.633C36.4452 56.867 36.0355 57.828 34.9401 58.4535C33.9245 59.0221 32.9173 59.6277 31.9016 60.2106C30.886 60.7934 29.8532 60.7508 28.7721 60.1765C27.7453 59.5916 26.5839 59.2841 25.4021 59.2841C24.2203 59.2841 23.0588 59.5916 22.0321 60.1765C20.9282 60.7679 19.8955 60.8134 18.8172 60.1594C17.9637 59.6476 17.1101 59.17 16.2396 58.6753C14.6833 57.7427 14.3277 57.1172 14.5211 55.252ZM33.1677 36.3362C33.6001 35.287 33.0368 34.8975 32.3426 34.562C31.9553 34.3841 31.5857 34.1699 31.2387 33.9223C30.6896 33.5129 30.2344 33.5527 29.6085 33.8712C28.862 34.2494 28.0516 34.4856 27.2186 34.5677C25.9798 34.6559 24.7362 34.6559 23.4973 34.5677C22.8799 34.5364 22.1488 34.4654 21.6822 34.1242C20.7433 33.4333 19.9751 33.5157 19.1216 34.1952C18.8697 34.3929 18.5909 34.5538 18.2937 34.6729C17.6792 34.926 17.571 35.3723 17.5198 36.0064C17.4567 36.8405 17.2487 37.6574 16.9053 38.4203C16.35 39.568 15.7139 40.6748 15.002 41.7326C14.6634 42.2501 14.2139 42.8073 13.679 43.0547C12.7174 43.5011 12.3703 44.1237 12.541 45.1274C12.5865 45.4442 12.5865 45.7659 12.541 46.0827C12.4414 46.8134 12.7629 47.1944 13.3945 47.5839C14.062 48.0298 14.6409 48.5957 15.1015 49.2529C15.6705 50.0461 16.0859 50.9588 16.6179 51.8118C17.2666 52.824 17.682 53.8674 17.5938 55.107C17.5739 55.3914 17.8783 55.7837 18.123 56.0027C18.4957 56.3183 18.9936 56.4803 19.3862 56.7788C20.0975 57.3247 20.712 57.2992 21.4887 56.813C22.0976 56.4674 22.7805 56.2724 23.4802 56.2443C24.7909 56.1747 26.1043 56.1747 27.415 56.2443C27.9641 56.2671 28.6269 56.3239 29.0338 56.6338C30.0609 57.4129 30.9428 57.2963 31.8789 56.5429C32.1041 56.3703 32.3521 56.2297 32.6158 56.1249C33.1848 55.8775 33.2672 55.4511 33.3327 54.8654C33.4273 53.9668 33.6605 53.0883 34.024 52.261C34.5418 51.176 35.139 50.1306 35.8107 49.1335C36.1266 48.6416 36.5277 48.0701 37.0284 47.8569C38.1408 47.3849 38.468 46.6371 38.2945 45.5311C38.2501 45.2485 38.2501 44.9607 38.2945 44.6781C38.4026 43.9816 38.0697 43.6375 37.5007 43.2565C36.8082 42.7903 36.2057 42.2028 35.7225 41.5222C35.0226 40.4982 34.397 39.4255 33.8505 38.3122C33.5747 37.6712 33.3464 37.0107 33.1677 36.3362Z" fill="#1D3C87"/>
<path id="Vector_6" d="M64.1164 21.2899C64.1169 22.5601 63.8648 23.8178 63.3749 24.9899C62.885 26.162 62.167 27.2251 61.2626 28.1176C60.3581 29.0101 59.2853 29.7141 58.1063 30.1888C56.9273 30.6635 55.6657 30.8994 54.3948 30.8829C53.1326 30.8754 51.8843 30.6194 50.7213 30.1293C49.5582 29.6393 48.5032 28.925 47.6167 28.0271C46.7301 27.1293 46.0294 26.0656 45.5546 24.8968C45.0798 23.7281 44.8403 22.4773 44.8496 21.216C44.85 19.9546 45.0991 18.7057 45.5826 17.5405C46.0661 16.3754 46.7746 15.3169 47.6677 14.4255C48.5607 13.5341 49.6208 12.8273 50.7872 12.3454C51.9537 11.8636 53.2037 11.6162 54.4659 11.6173C55.7372 11.6116 56.997 11.8581 58.1723 12.3426C59.3475 12.827 60.4149 13.5397 61.3126 14.4394C62.2102 15.3391 62.9202 16.4079 63.4015 17.5838C63.8828 18.7597 64.1258 20.0194 64.1164 21.2899ZM60.9214 21.2899C60.9309 20.4386 60.7704 19.594 60.4495 18.8054C60.1286 18.0168 59.6536 17.3001 59.0523 16.6971C58.451 16.094 57.7355 15.6168 56.9475 15.2933C56.1595 14.9699 55.3149 14.8066 54.4631 14.8131C53.6205 14.8119 52.7859 14.9768 52.0071 15.2982C51.2282 15.6195 50.5204 16.0912 49.9241 16.6861C49.3277 17.281 48.8545 17.9875 48.5315 18.7652C48.2086 19.543 48.0422 20.3767 48.0418 21.2188C48.0309 22.0612 48.1868 22.8975 48.5005 23.6795C48.8141 24.4616 49.2794 25.1739 49.8696 25.7756C50.4597 26.3772 51.1631 26.8564 51.9392 27.1854C52.7153 27.5144 53.5489 27.6868 54.3919 27.6928C55.2439 27.7102 56.0907 27.5574 56.8828 27.2433C57.6748 26.9292 58.3961 26.4602 59.0043 25.8638C59.6125 25.2674 60.0954 24.5556 60.4246 23.7701C60.7538 22.9847 60.9227 22.1414 60.9214 21.2899Z" fill="#FF6000"/>
<path id="Vector_7" d="M90.709 45.3747C90.718 46.3154 90.5409 47.2485 90.1879 48.1205C89.8349 48.9925 89.3129 49.7863 88.6519 50.456C87.991 51.1258 87.2041 51.6585 86.3365 52.0233C85.4689 52.3882 84.5376 52.5781 83.5964 52.5822C82.6542 52.5909 81.7196 52.413 80.8465 52.0589C79.9735 51.7048 79.1792 51.1815 78.5095 50.5191C77.8398 49.8567 77.308 49.0684 76.9447 48.1996C76.5813 47.3308 76.3938 46.3988 76.3927 45.4572C76.3806 44.5161 76.5557 43.582 76.9077 42.7091C77.2598 41.8362 77.7818 41.0418 78.4434 40.3721C79.1051 39.7024 79.8933 39.1707 80.7622 38.8078C81.6312 38.4449 82.5636 38.2581 83.5053 38.2582C84.4477 38.2461 85.3831 38.4213 86.2571 38.7737C87.1312 39.126 87.9265 39.6484 88.5967 40.3106C89.267 40.9727 89.7989 41.7614 90.1615 42.6308C90.5241 43.5001 90.7102 44.4328 90.709 45.3747ZM79.5763 45.3917C79.5672 45.9144 79.6626 46.4337 79.8568 46.9191C80.051 47.4044 80.3402 47.8462 80.7075 48.2185C81.0747 48.5908 81.5126 48.8861 81.9954 49.0871C82.4783 49.2882 82.9964 49.3909 83.5195 49.3893C84.0412 49.3946 84.5587 49.2963 85.0421 49.1003C85.5255 48.9043 85.9652 48.6143 86.3357 48.2473C86.7061 47.8802 87 47.4433 87.2003 46.962C87.4006 46.4806 87.5034 45.9643 87.5026 45.4429C87.5102 44.9212 87.4136 44.4033 87.2184 43.9193C87.0233 43.4354 86.7335 42.9952 86.366 42.6246C85.9986 42.2539 85.5608 41.9602 85.0784 41.7607C84.596 41.5611 84.0786 41.4597 83.5565 41.4625C83.0353 41.4534 82.5174 41.5484 82.0334 41.742C81.5494 41.9356 81.109 42.2239 80.738 42.5899C80.367 42.9559 80.0728 43.3923 79.8729 43.8734C79.6729 44.3546 79.5711 44.8708 79.5734 45.3917H79.5763Z" fill="#FF6000"/>
<path id="Vector_8" d="M25.4205 38.2582C26.363 38.2514 27.2974 38.4319 28.1694 38.7891C29.0415 39.1463 29.8338 39.6731 30.5003 40.339C31.1669 41.0048 31.6943 41.7964 32.0521 42.6677C32.4099 43.5391 32.5908 44.4728 32.5844 45.4146C32.5893 46.3561 32.4076 47.2891 32.0498 48.16C31.6919 49.0309 31.1651 49.8224 30.4996 50.4888C29.8341 51.1552 29.0432 51.6833 28.1724 52.0426C27.3016 52.4019 26.3683 52.5853 25.4262 52.5823C24.484 52.5849 23.5505 52.4014 22.6795 52.0423C21.8084 51.6831 21.017 51.1555 20.3507 50.4896C19.6844 49.8238 19.1564 49.0329 18.7971 48.1624C18.4377 47.292 18.254 46.3591 18.2567 45.4175C18.2525 44.4761 18.435 43.5433 18.7935 42.6728C19.1521 41.8024 19.6796 41.0115 20.3457 40.3459C21.0117 39.6803 21.8031 39.1531 22.6741 38.7948C23.5452 38.4365 24.4786 38.2541 25.4205 38.2582ZM25.4205 41.4512C24.8974 41.4465 24.3786 41.5466 23.8947 41.7453C23.4108 41.944 22.9715 42.2374 22.6028 42.6083C22.234 42.9792 21.9433 43.4201 21.7475 43.905C21.5518 44.3898 21.4551 44.9089 21.4631 45.4316C21.46 45.9543 21.5611 46.4723 21.7604 46.9555C21.9598 47.4387 22.2534 47.8774 22.6241 48.2461C22.9948 48.6147 23.4353 48.9059 23.9198 49.1027C24.4043 49.2995 24.9232 49.3979 25.4461 49.3922C25.9686 49.3945 26.4864 49.293 26.9692 49.0934C27.4521 48.8939 27.8904 48.6003 28.2587 48.2299C28.627 47.8595 28.9179 47.4196 29.1144 46.9357C29.311 46.4519 29.4093 45.9339 29.4036 45.4118C29.409 44.8875 29.3092 44.3675 29.11 43.8825C28.9107 43.3974 28.6162 42.9573 28.2438 42.588C27.8714 42.2188 27.4286 41.9279 26.9417 41.7326C26.4548 41.5373 25.9337 41.4416 25.4092 41.4512H25.4205Z" fill="#FF6000"/>
</g>
<defs>
<clipPath id="clip0_255_392">
<rect width="109" height="109" fill="white"/>
</clipPath>
</defs>
</svg>
