<svg width="98" height="109" viewBox="0 0 98 109" fill="none" xmlns="http://www.w3.org/2000/svg">
<g id="Layer_1" clip-path="url(#clip0_255_407)">
<path id="Vector" d="M50.3247 -0.0057373C52.1248 0.566913 53.7364 1.60994 54.9906 3.0139C56.0561 4.15125 57.5025 4.24224 58.969 3.71622C60.316 3.20809 61.7915 3.14132 63.1794 3.5257C65.932 4.30763 67.6734 6.11031 68.2635 8.87405C68.6931 10.8985 69.8273 11.9819 71.8524 12.4226C76.0828 13.341 78.4029 17.3586 77.071 21.4587C76.4437 23.3865 76.8419 24.8708 78.3341 26.2384C81.608 29.2126 81.6223 33.762 78.3599 36.7247C76.8734 38.0782 76.4323 39.5681 77.0595 41.493C78.4229 45.6926 76.0313 49.6762 71.6862 50.6259C71.3001 50.6963 70.9214 50.8019 70.5549 50.9415C69.0483 51.5869 68.8592 52.1329 69.6068 53.5659C71.861 57.9134 74.1323 62.2495 76.3664 66.6055C77.2257 68.2689 76.438 70.0005 74.7166 70.336C74.3347 70.394 73.945 70.3746 73.5709 70.2791C71.2394 69.7588 68.9136 69.2101 66.585 68.6755C66.2413 68.5959 65.8947 68.5333 65.4651 68.4452C64.4111 71.0042 63.3799 73.5262 62.3345 76.0398C61.9163 77.0406 61.1888 77.6463 60.0431 77.6889C58.9633 77.7259 58.2128 77.1999 57.7059 76.2871C57.5856 76.071 57.4796 75.8464 57.365 75.6275C55.3161 71.6923 53.2692 67.758 51.2241 63.8247C51.0608 63.5091 50.8918 63.1992 50.7429 62.9177H47.366C47.2457 63.1281 47.0538 63.4551 46.879 63.7906C44.7824 67.8196 42.6801 71.8458 40.6035 75.8834C40.0306 76.9753 39.3117 77.7628 37.9713 77.6832C36.6852 77.6093 36.0408 76.7819 35.6025 75.6929C34.7748 73.6201 33.884 71.5729 33.0849 69.4859C32.7813 68.6897 32.4719 68.4054 31.5439 68.6556C29.2754 69.2698 26.9611 69.719 24.6697 70.2763C23.5469 70.5607 22.5989 70.3417 21.8828 69.4404C21.1668 68.539 21.2155 67.558 21.7396 66.5515C24.0539 62.1187 26.3224 57.6575 28.6854 53.2503C29.1809 52.3262 28.9919 51.7888 28.2013 51.3509C27.6467 51.0383 27.051 50.8039 26.4312 50.6543C22.0174 49.6705 19.6544 45.7154 21.0379 41.439C21.6336 39.5965 21.2412 38.1379 19.8234 36.8356C16.4465 33.7363 16.4322 29.2723 19.7948 26.2015C21.247 24.8736 21.6336 23.3922 21.0207 21.5099C19.6688 17.3558 22.0003 13.3324 26.2909 12.4112C28.2787 11.9875 29.3757 10.8957 29.8053 8.9224C30.739 4.65737 34.7776 2.34856 38.9709 3.69062C40.867 4.29626 42.408 3.97496 43.6854 2.46514C44.8311 1.12876 46.3234 0.457738 47.9646 0.00280109L50.3247 -0.0057373ZM77.5608 31.493L77.8243 31.3337C77.3088 30.4437 76.965 29.3661 76.2404 28.7008C73.7084 26.3721 72.9207 23.7192 74.0292 20.455C74.7968 18.1804 73.485 16.0251 71.1191 15.5417C67.8252 14.865 65.8403 12.9315 65.1386 9.66167C64.6058 7.17373 62.4892 5.96531 60.0431 6.74723C56.8924 7.76799 54.2258 7.06284 52.006 4.60902C50.2617 2.68123 47.7956 2.71251 46.037 4.65168C43.8802 7.03157 41.2766 7.76231 38.1918 6.78989C35.528 5.93688 33.526 7.10834 32.9102 9.82374C32.217 12.9003 30.3209 14.7882 27.2218 15.4877C24.4692 16.1076 23.2949 18.0837 24.1398 20.7138C25.1194 23.7732 24.4005 26.3607 22.006 28.5074C20.001 30.2987 20.001 32.7184 22.006 34.5069C24.4005 36.6546 25.1089 39.2534 24.1312 42.3034C23.3006 44.8937 24.4692 46.9295 27.1187 47.5039C30.3132 48.1957 32.2494 50.1273 32.9273 53.2986C33.4801 55.8576 35.571 57.0547 38.083 56.2472C41.2021 55.2492 43.8372 55.9458 46.0284 58.3655C47.7842 60.3018 50.2617 60.3246 52.0003 58.3968C54.2201 55.943 56.8695 55.2407 60.0374 56.2671C62.4777 57.0576 64.5944 55.8321 65.1271 53.3413C65.8174 50.1198 67.768 48.1806 71.0103 47.4897C73.5251 46.9551 74.7796 44.8624 73.9805 42.4484C72.9236 39.261 73.654 36.5968 76.1888 34.3989C76.6158 34.0432 76.9597 33.5996 77.1966 33.0988C77.4335 32.5979 77.5578 32.0519 77.5608 31.4986V31.493ZM44.4616 61.4676C42.9293 59.1929 41.0074 58.4309 38.4209 59.4516C37.7278 59.736 36.8714 59.699 36.1009 59.6507C33.778 59.5085 32.0394 58.3086 30.6589 56.378L25.2168 66.8558L32.0423 65.2805C33.9241 64.8483 34.8263 65.3118 35.5682 67.0974C36.4274 69.1816 37.2867 71.2715 38.2204 73.5092L44.4616 61.4676ZM72.8863 66.8529L67.4443 56.3979C65.0842 59.3123 62.3631 60.3786 59.3757 59.3692C56.669 58.4622 55.1023 59.3919 53.6472 61.4875L59.8942 73.5064C60.8193 71.2743 61.6786 69.193 62.5407 67.1117C63.2854 65.3175 64.1877 64.837 66.0551 65.2777C68.2577 65.7895 70.4718 66.3013 72.8863 66.8586V66.8529Z" fill="#1D3C87"/>
<path id="Vector_2" d="M63.5204 90.9646C64.5372 90.5296 65.4824 90.1344 66.419 89.7249C73.7305 86.529 81.0419 83.334 88.3533 80.14C91.4553 78.7894 94.1477 79.1334 96.1126 81.0556C99.4838 84.351 97.897 89.5686 94.7864 91.2319C85.4605 96.2135 76.2949 101.502 67.0663 106.68C64.4847 108.155 61.5612 108.939 58.5824 108.955C50.9378 108.983 43.2931 109.057 35.6513 108.903C33.5232 108.861 31.332 108.312 29.3041 107.618C24.117 105.844 18.9929 103.856 13.7943 101.931C13.6826 102.31 13.5967 102.637 13.4907 102.958C13.2318 103.833 12.6975 104.602 11.9661 105.153C11.2346 105.704 10.3445 106.008 9.42634 106.02C7.8195 106.057 6.21264 106.043 4.6058 106.02C1.9707 105.992 0.169095 104.28 0.0230188 101.678C0.00583339 101.394 0.0230188 101.11 0.0230188 100.825V71.9C0.0230188 68.3771 1.74156 66.691 5.28463 66.6881C6.49907 66.6881 7.71353 66.6881 8.92797 66.6881C11.924 66.7165 13.6969 68.4879 13.7256 71.4735C13.7256 71.8573 13.7256 72.2412 13.7256 72.679C15.2637 72.7757 16.7158 72.8297 18.1565 72.9634C22.4815 73.3814 26.629 74.5585 30.2522 76.91C34.4054 79.6055 38.9223 80.7115 43.7657 81.0925C47.6439 81.3968 51.4992 81.9086 55.3659 82.3863C59.4245 82.8895 62.6353 86.0286 63.3858 90.1429C63.4058 90.3846 63.4574 90.6178 63.5204 90.9646ZM13.6826 76.02C13.6826 77.2199 13.7227 78.3487 13.6826 79.4718C13.6225 80.7087 12.3908 81.4963 11.4427 80.8253C11.1811 80.6111 10.9655 80.347 10.8085 80.0485C10.6516 79.7501 10.5566 79.4235 10.5291 79.088C10.4288 76.529 10.4947 73.9699 10.4804 71.4308C10.4804 70.2935 10.0908 69.9096 8.92797 69.8869C7.71353 69.8641 6.49907 69.8869 5.28463 69.8869C3.51739 69.8869 3.21665 70.1712 3.21665 71.9199C3.21665 77.417 3.21665 82.9142 3.21665 88.4113C3.21665 92.6763 3.21665 96.9243 3.21665 101.181C3.21665 102.466 3.5976 102.833 4.86646 102.841C6.13532 102.85 7.44427 102.841 8.72458 102.841C10.171 102.841 10.4775 102.534 10.4775 101.087C10.4775 96.5121 10.4775 91.9371 10.4775 87.3621C10.4775 86.04 11.1019 85.3149 12.1474 85.3462C13.1928 85.3775 13.6855 86.0542 13.6883 87.3564C13.6883 90.6889 13.7198 94.0241 13.6711 97.3565C13.6568 98.1839 13.8688 98.5877 14.6965 98.8834C19.9581 100.783 25.171 102.816 30.4498 104.65C32.2217 105.297 34.0855 105.661 35.9721 105.73C43.4707 105.85 50.975 105.79 58.4764 105.773C60.8861 105.773 63.2546 105.153 65.3506 103.973C74.6785 98.7602 84.0016 93.5351 93.3199 88.2976C94.563 87.601 95.0843 86.2646 94.7091 84.8344C94.3339 83.4042 93.1939 82.4516 91.7618 82.5767C90.845 82.6794 89.95 82.9241 89.1095 83.3018C82.2754 86.2589 75.3612 89.0738 68.6703 92.301C64.4208 94.3787 59.7113 95.3568 54.9792 95.1444C49.2708 94.9425 43.5537 95.1046 37.8969 94.0923C36.7512 93.8905 36.1096 93.1882 36.2557 92.2669C36.4017 91.3457 37.2181 90.74 38.3323 90.9362C43.3504 91.8205 48.4115 91.974 53.4927 91.903C55.6981 91.8717 57.9036 91.903 60.0804 91.903C60.5559 88.9828 58.0755 85.966 54.9248 85.5822C51.1354 85.1159 47.346 84.6069 43.5394 84.3027C38.2291 83.8819 33.2282 82.7218 28.6826 79.7533C26.7206 78.4795 24.3691 77.7317 22.112 76.9924C19.394 76.139 16.5368 75.8089 13.694 76.02H13.6826Z" fill="#1D3C87"/>
<path id="Vector_3" d="M47.4432 9.74988C60.3724 9.78115 69.9132 18.3965 70.8813 29.4543C71.3836 34.9013 69.8082 40.337 66.4667 44.6862C63.1252 49.0353 58.2611 51.9809 52.8366 52.9404C41.4283 55.0075 30.0802 47.5096 27.6312 36.2812C27.5854 36.0737 27.5539 35.8633 27.5253 35.6528C27.3792 34.6491 27.8289 33.8928 28.6996 33.6795C29.5703 33.4663 30.3437 33.9866 30.6215 34.9392C30.8192 35.6187 30.9595 36.3153 31.1686 36.9921C33.8008 45.4027 41.7376 50.6714 50.7485 50.0004C59.1236 49.3777 66.2154 42.7299 67.5101 34.2823C68.235 29.5296 67.077 24.6829 64.279 20.7597C61.4811 16.8364 57.2609 14.1418 52.5043 13.2415C47.7269 12.3488 42.787 13.337 38.7308 15.997C34.6746 18.657 31.8206 22.7798 30.7733 27.4924C30.7265 27.7361 30.6634 27.9764 30.5843 28.2118C30.2692 29.0648 29.6563 29.4657 28.754 29.3207C28.5482 29.2916 28.3507 29.2201 28.1743 29.1108C27.9979 29.0015 27.8465 28.8568 27.7297 28.686C27.6129 28.5152 27.5334 28.3221 27.4962 28.119C27.459 27.9159 27.465 27.7073 27.5138 27.5066C27.9177 25.8973 28.2757 24.2368 28.9803 22.7497C32.9788 14.3476 39.79 10.1508 47.4432 9.74988Z" fill="#FF6000"/>
<path id="Vector_4" d="M55.9328 43.8587C55.5045 43.694 55.0898 43.4962 54.6926 43.2673C53.0714 42.238 51.4503 41.2002 49.8778 40.097C49.2477 39.6534 48.8066 39.6932 48.1965 40.1169C46.6498 41.1973 45.0458 42.2039 43.4705 43.2445C42.2561 44.0322 41.2965 44.0976 40.4058 43.4265C39.515 42.7555 39.2944 41.8684 39.684 40.4581C40.1967 38.6184 40.7008 36.7617 41.245 34.942C41.4168 34.3733 41.3424 33.9894 40.8154 33.5914C39.22 32.3972 37.6647 31.1404 36.118 29.895C35.0754 29.0562 34.7632 28.1378 35.127 27.1085C35.4707 26.1361 36.2927 25.6186 37.5673 25.5646C39.5293 25.485 41.4913 25.3741 43.4533 25.3399C44.1379 25.3399 44.4615 25.084 44.6821 24.4557C45.3265 22.6189 46.0311 20.802 46.7243 18.9794C47.2055 17.7226 47.9788 17.1141 49.0472 17.117C50.1155 17.1198 50.8832 17.7311 51.3644 18.9907C52.0718 20.8418 52.7965 22.6871 53.4524 24.5609C53.5058 24.7986 53.6452 25.0087 53.8443 25.1512C54.0433 25.2938 54.2881 25.3589 54.5322 25.3343C56.4971 25.3797 58.4562 25.4821 60.4182 25.5617C61.7959 25.6158 62.6094 26.1304 62.9588 27.1199C63.3283 28.1861 63.0075 29.0647 61.8761 29.9632C60.3781 31.166 58.8887 32.3858 57.3477 33.5316C56.752 33.9752 56.6832 34.3846 56.8809 35.0585C57.4766 37.0489 58.0266 39.0733 58.5364 41.1006C58.9002 42.5707 57.7716 43.8786 55.9328 43.8587ZM43.3044 39.5084C44.8597 38.4961 46.1686 37.6687 47.4633 36.7845C48.5402 36.0423 49.5542 36.048 50.6139 36.7845C51.9 37.663 53.2175 38.4905 54.7527 39.4942C54.3603 38.0441 54.0424 36.83 53.7073 35.6187C52.9998 33.0597 53.0657 32.8464 55.1394 31.2029C56.1161 30.4296 57.0842 29.6448 58.0552 28.8629C58.0208 28.7406 57.9836 28.6155 57.9492 28.4904C56.6747 28.4904 55.3972 28.5216 54.1226 28.4904C51.7109 28.4164 51.3729 28.1549 50.5309 25.9314C50.0668 24.7002 49.5942 23.4747 49.0243 21.9848C48.3741 23.6908 47.807 25.1125 47.3057 26.5341C46.8646 27.7994 46.0082 28.4278 44.6735 28.4591C43.7827 28.4818 42.8919 28.5103 42.0012 28.5529C41.351 28.5842 40.7037 28.6439 39.7642 28.7122L43.1783 31.402C44.8711 32.7412 45.0315 33.2445 44.4472 35.3315C44.0978 36.6281 43.7397 37.9417 43.3044 39.5169V39.5084Z" fill="#FF6000"/>
</g>
<defs>
<clipPath id="clip0_255_407">
<rect width="98" height="109" fill="white"/>
</clipPath>
</defs>
</svg>
