<svg width="86" height="114" viewBox="0 0 86 114" fill="none" xmlns="http://www.w3.org/2000/svg">
<g id="Layer_1" clip-path="url(#clip0_255_401)">
<path id="Vector" d="M10.4854 84.2972C11.9619 83.1773 13.3631 82.1201 14.7584 81.054C17.8796 78.6648 21.2745 77.9571 25.1235 79.065C30.6233 80.6478 36.1712 82.0783 41.698 83.5775C45.8387 84.7004 46.9151 85.6381 48.584 89.6369L55.882 85.4559C58.9672 83.688 62.0313 81.8902 65.1405 80.164C67.5702 78.8142 70.054 78.8859 72.3964 80.3611C74.6667 81.7946 75.7552 83.9448 75.5959 86.6146C75.4425 89.2307 74.0924 91.1331 71.798 92.4381C64.4209 96.649 57.0527 100.872 49.6936 105.106C48.0067 106.077 46.3077 107.024 44.6358 108.018C43.3557 108.802 41.9319 109.327 40.4465 109.562C38.9612 109.796 37.4437 109.737 35.9817 109.386C32.1087 108.52 28.2417 107.63 24.3657 106.779C23.2292 106.518 22.0509 106.489 20.9028 106.694C19.7546 106.899 18.6605 107.335 17.6872 107.973C17.185 108.29 16.9895 108.595 17.0858 109.228C17.3654 111.097 16.6107 112.214 14.7975 112.749C13.5044 113.125 12.1994 113.465 10.8884 113.803C8.56997 114.4 7.26195 113.645 6.62146 111.297C5.14402 105.876 3.67861 100.452 2.22523 95.0244C1.52761 92.4352 0.823964 89.8519 0.147391 87.2597C-0.366805 85.2857 0.424046 83.9239 2.41468 83.3446C3.6716 82.9802 4.93754 82.6457 6.20649 82.3142C8.33243 81.7617 9.40292 82.2426 10.4854 84.2972ZM15.9311 104.754C16.1081 104.705 16.281 104.642 16.4483 104.566C19.4012 102.87 22.5315 102.652 25.7971 103.416C29.4054 104.254 33.0198 105.077 36.6403 105.883C38.664 106.392 40.8079 106.092 42.6121 105.05C51.7594 99.7936 60.9077 94.5396 70.057 89.2875C70.5441 89.0114 70.9754 88.6478 71.3289 88.2154C71.808 87.6073 72.0562 86.851 72.0298 86.0794C72.0034 85.3077 71.7041 84.5699 71.1846 83.9956C70.0449 82.7204 68.34 82.4635 66.6892 83.3983C60.6752 86.8247 54.6712 90.268 48.6773 93.7283C48.3327 93.9362 48.0463 94.2268 47.8443 94.5734C45.8687 97.9719 42.6993 99.3517 38.8865 98.3811C35.6239 97.5449 32.3794 96.6341 29.1318 95.7411C27.7426 95.3618 27.1592 94.5466 27.4479 93.4356C27.7366 92.3247 28.6898 91.9424 30.079 92.3217C33.3326 93.1907 36.5771 94.1135 39.8367 94.9467C42.7384 95.6963 45.2493 93.6416 45.0057 90.7866C44.8524 89.0515 43.6526 87.8003 41.6138 87.2358C35.7231 85.6471 29.8174 84.1091 23.9477 82.4576C21.4189 81.7438 19.2117 82.2038 17.17 83.7268C15.462 85.002 13.7871 86.325 12.0581 87.5852C11.5529 87.9555 11.4567 88.287 11.6281 88.8903C12.6324 92.474 13.5857 96.0726 14.5569 99.6653L15.9311 104.754ZM13.4533 109.416L7.08153 85.8024L3.71669 86.6983C5.84865 94.6003 7.96258 102.434 10.0885 110.318L13.4533 109.416Z" fill="#1D3C87"/>
<path id="Vector_2" d="M45.7724 43.503C45.1469 43.503 44.6959 43.5418 44.2689 43.503C41.8633 43.2581 40.7176 40.8153 42.164 38.886C43.8299 36.6343 45.592 34.4542 47.312 32.2443C48.2141 31.0945 49.0921 29.9388 49.9942 28.792C51.5188 26.8538 53.5545 26.8329 55.058 28.7531C57.5899 31.9874 60.0917 35.2456 62.6356 38.4739C63.4656 39.5251 63.8384 40.6211 63.237 41.8844C62.6356 43.1476 61.508 43.5508 60.1729 43.5329C59.9143 43.5329 59.6587 43.5717 59.2498 43.6045V44.9335C59.2498 54.4721 59.2498 64.0116 59.2498 73.5522C59.2498 75.6427 58.7686 76.1235 56.6788 76.1265H48.578C46.2445 76.1265 45.7935 75.6875 45.7935 73.4029V43.503H45.7724ZM45.9228 39.8417C46.2625 39.8984 46.4009 39.9343 46.5242 39.9402C49.1162 40.0537 49.3628 40.3105 49.3628 42.9266V72.4622H55.6173V42.7982C55.6173 42.4608 55.5993 42.1233 55.6173 41.7918C55.7105 40.639 56.3209 40.0328 57.4756 39.9581C57.9417 39.9283 58.4138 39.9581 59.1746 39.9581L52.5171 31.3752L45.9228 39.8417Z" fill="#1D3C87"/>
<path id="Vector_3" d="M81.7061 53.6179V57.9093C81.7061 63.2012 81.7061 68.4922 81.7061 73.7821C81.7061 75.5351 81.1258 76.1115 79.3396 76.1174C76.4489 76.1294 73.5602 76.1294 70.6735 76.1174C68.7761 76.1174 68.2288 75.55 68.2288 73.6178C68.2288 67.3961 68.2288 61.1745 68.2288 54.9528V53.6119C67.6905 53.6119 67.2515 53.6388 66.8155 53.6119C66.2671 53.6022 65.733 53.4367 65.2763 53.1351C64.8197 52.8334 64.4595 52.4082 64.2385 51.9097C64.0021 51.4379 63.9106 50.9075 63.9753 50.3845C64.04 49.8615 64.258 49.369 64.6023 48.968C67.2755 45.5098 69.9397 42.0486 72.6551 38.6261C73.936 37.0105 76.0079 36.9956 77.2828 38.5993C79.9891 42.0187 82.6683 45.4829 85.3415 48.9352C85.6975 49.3512 85.9208 49.8631 85.9829 50.4055C86.045 50.948 85.9432 51.4965 85.6904 51.9813C85.1641 53.0535 84.241 53.5552 83.0683 53.6179C82.6533 53.6358 82.2504 53.6179 81.7061 53.6179ZM78.0977 72.477V71.0943C78.0977 64.8368 78.0977 58.5793 78.0977 52.3218C78.0977 50.6375 78.6991 50.0641 80.3981 50.0372C80.7198 50.0372 81.0416 50.0372 81.649 50.0372L74.9704 41.4483L68.355 49.9834C68.764 50.0103 68.9565 50.0312 69.1188 50.0342C71.4733 50.085 71.8251 50.4463 71.8251 52.7936V72.471L78.0977 72.477Z" fill="#FF6000"/>
<path id="Vector_4" d="M36.7845 57.6376C36.7845 58.4827 36.7845 59.1487 36.7845 59.8117C36.7845 64.4675 36.7845 69.1203 36.7845 73.7761C36.7845 75.568 36.2102 76.1115 34.424 76.1174C31.5373 76.1294 28.6506 76.1294 25.7639 76.1174C23.8905 76.1174 23.3583 75.5739 23.3402 73.7283C23.3402 68.8127 23.3402 63.8981 23.3402 58.9844V57.6555C22.793 57.6555 22.3539 57.6794 21.9179 57.6555C20.7482 57.5749 19.8311 57.0582 19.3349 55.9771C19.0978 55.5065 19.002 54.9781 19.059 54.4549C19.1161 53.9317 19.3235 53.4358 19.6567 53.0266C22.363 49.5414 25.0392 46.0563 27.7756 42.607C28.9783 41.0989 31.0562 41.0362 32.259 42.5353C35.0655 46.0255 37.8129 49.5604 40.5011 53.1401C41.8603 54.9528 40.6755 57.3688 38.3962 57.6376C37.8594 57.6665 37.3213 57.6665 36.7845 57.6376ZM30.0518 45.4889L23.4364 54.021C23.8364 54.0509 24.0138 54.0748 24.1912 54.0778C26.5667 54.1316 26.9546 54.5288 26.9546 56.9268V72.4561H33.1972V57.1179C33.1972 54.3943 33.4377 54.1525 36.2042 54.0718C36.3506 54.0399 36.4936 53.9939 36.6311 53.9345L30.0518 45.4889Z" fill="#FF6000"/>
<path id="Vector_5" d="M66.3823 10.8914C66.1236 11.3285 65.8148 11.7344 65.4622 12.1009C63.9045 13.4946 62.3158 14.8574 60.6961 16.1893C60.4494 16.3492 60.2647 16.5876 60.1723 16.8655C60.08 17.1433 60.0855 17.444 60.1879 17.7184C60.6931 19.6237 61.1141 21.5499 61.5681 23.4702C61.7876 24.399 61.9711 25.3307 61.0449 26.0176C60.1187 26.7045 59.2978 26.3162 58.4589 25.7876C56.7389 24.7275 54.9888 23.721 53.2808 22.6459C53.0635 22.4774 52.7958 22.3858 52.5201 22.3858C52.2444 22.3858 51.9766 22.4774 51.7593 22.6459C49.9852 23.7569 48.175 24.8111 46.3888 25.9041C45.601 26.3849 44.8132 26.6417 43.9832 26.0295C43.1533 25.4173 43.1683 24.6199 43.3818 23.7181C43.878 21.7321 44.2839 19.7222 44.8102 17.7452C45.0176 16.9957 44.8101 16.5955 44.2598 16.1415C42.7022 14.8574 41.1987 13.5105 39.6471 12.2204C38.8954 11.5962 38.3902 10.8944 38.745 9.90294C39.0728 8.95924 39.8787 8.74123 40.8108 8.67553C42.9157 8.53517 44.9966 8.3769 47.0774 8.10813C47.3096 8.05903 47.5282 7.96043 47.7183 7.81915C47.9083 7.67786 48.0651 7.49725 48.178 7.28984C49.053 5.39944 49.8409 3.46724 50.6407 1.544C50.9895 0.698848 51.4676 0.0119797 52.484 3.40934e-05C53.5004 -0.0119115 53.9875 0.663016 54.3543 1.49324C55.1271 3.34779 55.9601 5.17846 56.6787 7.05691C56.7709 7.39071 56.9741 7.6837 57.2553 7.88814C57.5365 8.09258 57.8791 8.19645 58.2274 8.18279C60.3322 8.31419 62.4131 8.50232 64.5029 8.69046C65.7087 8.81291 66.4154 9.50874 66.3823 10.8914ZM44.9064 11.9367C46.0129 12.8983 46.909 13.7285 47.8502 14.4811C48.6982 15.171 49.0019 15.9743 48.6892 17.0405C48.3524 18.2081 48.1359 19.4087 47.8111 20.8392C49.0139 20.1164 50.0543 19.5819 50.9955 18.9249C52.072 18.1723 53.0343 18.2261 54.0927 18.9518C55.0399 19.5998 56.0593 20.1463 57.223 20.8332C56.9223 19.5251 56.7298 18.3903 56.3991 17.2973C56.0082 16.0131 56.3239 15.0814 57.4095 14.284C58.3116 13.621 59.1204 12.8236 60.1548 11.9218C58.7205 11.8023 57.6049 11.65 56.4893 11.6231C55.1933 11.6022 54.3844 11.0587 53.9634 9.83127C53.5725 8.73227 53.0613 7.67808 52.5141 6.4208C51.9367 7.76767 51.4105 8.91145 50.9564 10.0881C50.5685 11.0826 49.8709 11.5365 48.8245 11.5992C47.6066 11.6829 46.3918 11.8083 44.9064 11.9367Z" fill="#FF6000"/>
</g>
<defs>
<clipPath id="clip0_255_401">
<rect width="86" height="114" fill="white"/>
</clipPath>
</defs>
</svg>
