<?xml version="1.0" encoding="utf-8"?>
<!-- Generator: Adobe Illustrator 26.0.1, SVG Export Plug-In . SVG Version: 6.00 Build 0)  -->
<svg version="1.1" id="Layer_1" xmlns="http://www.w3.org/2000/svg" xmlns:xlink="http://www.w3.org/1999/xlink" x="0px" y="0px"
	 viewBox="0 0 254 254" style="enable-background:new 0 0 254 254;" xml:space="preserve">
<style type="text/css">
	.st0{fill:#F5F5FE;}
	.st1{fill:#DBCDFE;}
	.st2{fill:#0B2D4E;}
	.st3{fill:#73B8D4;}
	.st4{fill:#061F33;}
	.st5{fill:#EFB126;}
	.st6{clip-path:url(#SVGID_00000143590587987066794170000010975745847517681295_);fill:#EFB126;}
	.st7{fill:#9B87FF;}
	.st8{fill:none;stroke:#0B2D4E;stroke-width:15;stroke-miterlimit:10;}
	.st9{fill:#FFC73C;}
	.st10{fill:#F8A17A;}
	.st11{fill:#E5785C;}
	.st12{fill:#8070F2;}
	.st13{fill:#FFFFFF;}
	.st14{fill:#3F91AC;}
	.st15{opacity:0.2;fill:#FFFFFF;}
	.st16{fill:#E1F4FD;}
	.st17{fill:url(#SVGID_00000026848880828295698970000012969332089270305180_);}
	.st18{fill:url(#SVGID_00000121998526129852868140000015627853812198667191_);}
</style>
<g>
	
		<linearGradient id="SVGID_00000065037161301293688520000002434050041284273334_" gradientUnits="userSpaceOnUse" x1="128.2004" y1="174.6114" x2="232.8511" y2="174.6114">
		<stop  offset="0" style="stop-color:#F2892A"/>
		<stop  offset="1" style="stop-color:#FB6D47"/>
	</linearGradient>
	<path style="fill:url(#SVGID_00000065037161301293688520000002434050041284273334_);" d="M179.06,234.26
		c-1.56-1.34-3.35-2.49-4.66-4.04c-14.81-17.57-29.55-35.2-44.31-52.81c-0.27-0.32-0.54-0.64-0.81-0.96
		c-1.12-1.36-1.44-2.86-0.66-4.48c0.78-1.62,2.14-2.28,3.92-2.27c7.06,0.02,14.13,0.01,21.19,0c0.76,0,1.52,0,2.6,0
		c0-0.95,0-1.76,0-2.56c0-14.66,0-29.31,0-43.97c0-5.56,2.63-8.18,8.25-8.18c10.63-0.01,21.26-0.01,31.9,0
		c5.62,0.01,8.24,2.62,8.24,8.18c0.01,14.59,0,29.17,0,43.76c0,0.82,0,1.65,0,2.77c0.92,0,1.66,0,2.4,0
		c6.92,0,13.85,0.03,20.77-0.02c1.96-0.01,3.63,0.38,4.54,2.3c0.89,1.9,0.21,3.47-1.05,4.98c-15.26,18.2-30.49,36.42-45.78,54.58
		c-0.95,1.12-2.4,1.83-3.61,2.73C181.02,234.26,180.04,234.26,179.06,234.26z"/>
	
		<linearGradient id="SVGID_00000064337195879140670770000009312772446701835964_" gradientUnits="userSpaceOnUse" x1="21.1489" y1="121.9802" x2="188.9187" y2="121.9802">
		<stop  offset="0" style="stop-color:#F2892A"/>
		<stop  offset="1" style="stop-color:#FB6D47"/>
	</linearGradient>
	<path style="fill:url(#SVGID_00000064337195879140670770000009312772446701835964_);" d="M35.69,39.36c1.12,0,1.94,0,2.75,0
		c40.79,0.02,81.58,0.05,122.37,0.07c6.01,0,8.71,2.67,8.71,8.67c0.01,18.15,0,36.3,0,54.45c0,0.68,0,1.36,0,2.29
		c-3.11,0-6.03-0.05-8.94,0.02c-1.88,0.04-3.79,0.08-5.63,0.42c-5.8,1.05-9.5,5.67-9.48,11.55c0.03,14.24,0.03,28.48,0.03,42.72
		c0,0.54,0,1.09,0,1.88c-3.23,0-6.29-0.04-9.34,0.01c-3.77,0.06-7.58-0.14-11.31,0.34c-7.43,0.96-11.06,7.97-7.78,14.68
		c0.76,1.55,1.82,2.99,2.92,4.32c11.68,14.09,23.4,28.15,35.1,42.22c0.22,0.26,0.41,0.55,0.79,1.05c-0.78,0.06-1.35,0.15-1.93,0.15
		c-41.49,0.01-82.98,0.01-124.46,0c-5.43,0-8.34-2.87-8.34-8.24c-0.01-58.71-0.01-117.42,0-176.14c0-11.86,7.9-19.91,19.84-20.02
		c15.04-0.14,30.08-0.05,45.13-0.05c31.34,0,62.69-0.01,94.03,0.04c1.48,0,3.06,0.37,4.43,0.96c2.88,1.24,4.36,3.47,4.33,6.75
		c-0.07,8.8-0.02,17.59-0.02,26.39c0,16.06,0,32.11,0,48.17c0,0.83,0,1.66,0,2.62c-3.9,0-7.64,0-11.65,0c0-0.86,0-1.67,0-2.48
		c0-20.66,0-41.33,0-61.99c0-6.1-2.38-8.57-8.48-8.58c-41.28-0.02-82.56-0.03-123.83,0.02c-3.78,0.01-6.53,2.2-8.55,5.26
		C36,37.52,35.97,38.33,35.69,39.36z M57.75,81.23c25.51,0,50.9,0,76.33,0c0-4.78,0-9.42,0-14.15c-25.5,0-50.88,0-76.33,0
		C57.75,71.88,57.75,76.52,57.75,81.23z"/>
</g>
</svg>
