<?xml version="1.0" encoding="utf-8"?>
<!-- Generator: Adobe Illustrator 26.0.1, SVG Export Plug-In . SVG Version: 6.00 Build 0)  -->
<svg version="1.1" id="Layer_1" xmlns="http://www.w3.org/2000/svg" xmlns:xlink="http://www.w3.org/1999/xlink" x="0px" y="0px"
	 viewBox="0 0 300 300" style="enable-background:new 0 0 300 300;" xml:space="preserve">
<g>
	<path d="M133.04,186.97c0.01-0.85,0.02-1.39,0.02-1.93c0-18.57,0-37.13,0-55.7c0-28.55,0-57.1-0.01-85.64
		c0-2.66,0.43-5.23,1.68-7.59c2.79-5.26,7.18-8.22,13.1-8.86c6.36-0.69,12.75,2.58,15.9,8.26c1.27,2.3,1.9,4.77,1.99,7.38
		c0.02,0.54,0.01,1.08,0.01,1.63c0,46.93,0,93.87,0,140.8c0,0.54,0,1.07,0,1.6c0.55,0.1,0.72-0.29,0.95-0.52
		c4.06-3.92,8.12-7.85,12.17-11.78c9.57-9.27,19.14-18.54,28.71-27.81c0.32-0.31,0.65-0.63,0.98-0.93
		c5.07-4.56,12.77-4.49,17.76,0.16c0.86,0.8,1.69,1.63,2.5,2.48c4.57,4.73,4.63,12.35,0.05,17.18c-0.37,0.39-0.77,0.77-1.16,1.14
		c-22.94,22.22-45.88,44.43-68.81,66.66c-1.72,1.67-3.62,3.01-5.95,3.62c-4.88,1.29-9.22,0.26-12.89-3.24
		c-2.65-2.52-5.22-5.13-7.82-7.7c-16.01-15.8-32.02-31.6-48.03-47.4c-4.44-4.38-8.87-8.76-13.32-13.13
		c-1.68-1.65-2.92-3.56-3.5-5.85c-1.08-4.24-0.23-8.08,2.61-11.4c1.11-1.3,2.37-2.5,3.69-3.58c4.98-4.1,12.4-3.84,17.13,0.59
		c2.08,1.95,4.07,3.98,6.09,5.98c11.67,11.52,23.34,23.04,35.01,34.55C132.2,186.22,132.5,186.48,133.04,186.97z"/>
	<path d="M253.88,180.86c1.24-0.2,22.69-0.22,24.05-0.04c0.03,0.23,0.09,0.49,0.1,0.74c0.02,0.41,0.01,0.81,0.01,1.22
		c0,14.27-0.12,28.55,0.03,42.82c0.22,21.69-14.89,40.39-35.64,45.68c-4.01,1.02-8.07,1.53-12.2,1.53
		c-53.49,0.01-106.97,0.04-160.46-0.02c-13.36-0.01-24.89-4.78-34.36-14.23c-6.64-6.62-10.82-14.61-12.65-23.81
		c-0.54-2.75-0.81-5.54-0.81-8.35c-0.01-14.73-0.01-29.45,0-44.18c0-0.44,0.03-0.89,0.05-1.36c0.51-0.25,1.01-0.16,1.49-0.16
		c4.02-0.01,8.04,0,12.06,0c3.03,0,6.05,0,9.08,0c0.45,0,0.89,0.01,1.39,0.02c0.05,0.39,0.12,0.7,0.12,1
		c0.01,0.99,0.01,1.99,0.01,2.98c0,13.73,0.01,27.47-0.01,41.2c-0.01,4.36,1.04,8.42,3.37,12.1c3.75,5.93,9.12,9.53,16.02,10.78
		c1.37,0.25,2.78,0.27,4.18,0.38c0.31,0.03,0.63,0,0.95,0c52.94,0,105.89,0,158.83,0c2.87,0,5.69-0.26,8.4-1.23
		c7.86-2.81,13.05-8.18,15.3-16.27c0.53-1.92,0.71-3.9,0.7-5.9c-0.01-12.02-0.01-24.03-0.01-36.05c0-2.48,0-4.97,0-7.45
		C253.88,181.83,253.88,181.38,253.88,180.86z"/>
</g>
</svg>
