<?xml version="1.0" encoding="utf-8"?>
<!-- Generator: Adobe Illustrator 26.0.1, SVG Export Plug-In . SVG Version: 6.00 Build 0)  -->
<svg version="1.1" id="Layer_1" xmlns="http://www.w3.org/2000/svg" xmlns:xlink="http://www.w3.org/1999/xlink" x="0px" y="0px"
	 viewBox="0 0 300 300" style="enable-background:new 0 0 300 300;" xml:space="preserve">
<g>
	<path d="M216.33,173.01c0-27.2,0-52.26,0-77.67c-28.1,0-55.52,0-82.99,0c-2.3,6.86-4.59,13.71-7.19,21.48c2.77,0,5.39,0,8,0
		c17.65,0,35.29,0.04,52.94-0.02c4.98-0.02,8.9,1.38,8.84,7.08c-0.06,5.64-3.99,7.06-8.94,7.05c-22.46-0.05-44.92-0.17-67.37,0.13
		c-3.57,0.05-7.25,1.79-10.64,3.28c-8.3,3.66-16.46,7.63-25.39,11.81c0,34.87,0,71.01,0,107.68c44.07,0,87.92,0,132.35,0
		c-1.11-10.2,7.75-14.17,13.86-22.48c0,10.71,0.75,19.54-0.24,28.17c-0.75,6.58-6.24,8.85-12.78,8.83
		c-30.02-0.11-60.04-0.05-90.06-0.05c-14.67,0-29.33,0.05-44-0.02c-9.36-0.05-13.28-4.01-13.29-13.46
		c-0.04-34.14-0.02-68.29-0.02-102.43c0-2.51,0-5.01,0-7.37c-37.05-13.59-53.03-34.24-49.19-63.17c3.6-27.13,24.83-47.73,51.5-49.97
		c29.27-2.46,49.82,13.9,61.35,49.36c7.49,0,15.21,0,22.94,0c20.17,0,40.33-0.03,60.5,0.01c9.91,0.02,13.79,3.84,13.82,13.63
		c0.05,17.19-0.42,34.39,0.21,51.55c0.29,7.97-1.7,14.16-7.59,19.33C221.05,167.42,219.53,169.47,216.33,173.01z M119.03,88.67
		c0.11-23.8-18.9-43.01-42.54-42.99c-23.17,0.03-42.5,19.23-42.67,42.4c-0.17,23.27,18.83,42.59,42.09,42.8
		C99.94,131.09,118.92,112.51,119.03,88.67z"/>
	<path d="M223.92,221.69c-6.94-6.23-13.19-11.83-19.86-17.81c14-15.63,27.68-30.89,41.83-46.68c6.68,5.99,13.04,11.68,19.85,17.77
		C251.63,190.74,237.96,206.01,223.92,221.69z"/>
	<path d="M150.23,150.46c11.91,0,23.82,0.01,35.72-0.01c5.2-0.01,10.14,0.76,9.98,7.43c-0.14,6.05-4.65,7.11-9.69,7.11
		c-24.27-0.03-48.55-0.02-72.82,0c-5.04,0-9.52-1.06-9.66-7.13c-0.14-6.14,4.32-7.38,9.37-7.39
		C125.5,150.45,137.86,150.46,150.23,150.46z"/>
	<path d="M150.08,184.56c11.9,0,23.79,0.04,35.69-0.02c5.25-0.03,10.14,0.79,10.14,7.3c-0.01,6.05-4.71,7.2-9.65,7.21
		c-24.48,0.04-48.96,0.03-73.44,0c-4.79,0-8.98-1.32-9.07-7.01c-0.1-6.04,4.12-7.5,9.28-7.49
		C125.37,184.58,137.73,184.56,150.08,184.56z"/>
	<path d="M180.86,218.8c-1.03,5.15-1.87,9.34-2.77,13.85c-22.87,0-45.28,0.06-67.68-0.05c-4.33-0.02-6.76-2.69-6.71-7.06
		c0.06-4.44,2.7-6.7,7.01-6.71C133.82,218.77,156.91,218.8,180.86,218.8z"/>
	<path d="M217.7,228.53c-6.06,9.38-15.91,8.97-24.51,11.12c-0.99,0.25-4.02-2.57-3.83-3.52c1.64-8.47,0.04-18.15,9.04-25.07
		C204.77,216.82,211.24,222.68,217.7,228.53z"/>
	<path d="M272.7,169.21c-7.85-7.11-14.08-12.75-21.59-19.55c4.92-3.42,10.72-9.77,13.11-8.67c6.31,2.89,12.32,8.29,15.95,14.23
		C281.49,157.37,275.71,163.86,272.7,169.21z"/>
	<path d="M70.32,92.39c6.39-7.26,11.56-13.02,16.61-18.88c3.3-3.83,7.2-5.46,11.26-1.88c3.87,3.41,2.56,7.4-0.52,10.88
		C91,90.07,84.27,97.57,77.63,105.14c-3.78,4.3-7.71,4.54-11.8,0.58c-4.11-3.99-8.18-8.01-12.14-12.14
		c-3.13-3.27-3.67-7.03-0.35-10.35c3.38-3.38,7.18-2.67,10.27,0.6C65.95,86.31,67.86,89.21,70.32,92.39z"/>
</g>
</svg>
