<?xml version="1.0" encoding="utf-8"?>
<!-- Generator: Adobe Illustrator 26.0.1, SVG Export Plug-In . SVG Version: 6.00 Build 0)  -->
<svg version="1.1" id="Layer_1" xmlns="http://www.w3.org/2000/svg" xmlns:xlink="http://www.w3.org/1999/xlink" x="0px" y="0px"
	 viewBox="0 0 300 300" style="enable-background:new 0 0 300 300;" xml:space="preserve">
<style type="text/css">
	.st0{fill:#69438D;}
</style>
<g>
	<g>
		<path class="st0" d="M149.78,171.75c-0.63,0-1.03,0-1.43,0c-0.07,0.17-0.17,0.3-0.18,0.43c-0.03,0.55-0.03,1.11-0.03,1.66
			c0,16.05,0,32.09,0,48.14c0,2.99-1.29,5.13-3.75,5.95c-2.29,0.77-6.48,0.82-8.15-1.53c-0.73-1.02-1.14-2.31-1.5-3.53
			c-0.21-0.7-0.05-1.5-0.05-2.26c0-30.68,0-61.36-0.01-92.04c0-0.81,0.34-2-1.44-1.52c0,0.58,0,1.17,0,1.77
			c0,12.87,0.01,25.74-0.01,38.6c0,3.28-2.24,5.44-5.31,5.22c-2.35-0.17-4.24-2.05-4.42-4.41c-0.03-0.4-0.02-0.81-0.02-1.21
			c0-15.09-0.01-30.18,0-45.26c0-6.3,4.02-10.35,10.28-10.36c10.14-0.01,20.29-0.01,30.43,0c6.19,0.01,10.26,4.06,10.26,10.23
			c0.01,15.29,0.01,30.58,0,45.87c0,2.78-1.68,4.81-4.16,5.13c-2.53,0.32-4.8-1.14-5.42-3.57c-0.17-0.67-0.17-1.4-0.18-2.1
			c-0.01-12.67-0.01-25.33-0.01-38c0-0.6,0-1.2,0-1.83c-0.98-0.39-1.52-0.27-1.45,0.87c0.03,0.4,0,0.81,0,1.21
			c0,30.83-0.01,61.66,0.02,92.5c0,2.72-0.82,4.93-3.38,6.05c-2.2,0.96-4.56,0.97-6.77-0.01c-2.37-1.05-3.34-3.05-3.34-5.62
			c0.02-8.78,0.01-17.56,0.01-26.34c0-7.42,0-14.84,0-22.25C149.78,172.98,149.78,172.43,149.78,171.75z"/>
		<path class="st0" d="M164.7,92.62c0.03,8.68-6.97,15.74-15.62,15.78c-8.77,0.04-15.85-6.96-15.86-15.7
			c-0.01-8.7,6.96-15.74,15.62-15.78C157.6,76.88,164.67,83.88,164.7,92.62z"/>
		<path class="st0" d="M241.78,103.63c-9.5,5.05-18.89,10.04-28.29,15.03c-9.35,4.97-18.7,9.94-28.06,14.9
			c-0.78,0.41-1.34,0.79-1.4,1.86c-0.09,1.44-1.66,2.32-3.03,1.93c-1.41-0.39-2.17-1.82-1.71-3.22c0.44-1.35,2.09-2.21,3.3-1.42
			c1.14,0.74,1.91,0.32,2.85-0.18c18.16-9.66,36.33-19.32,54.5-28.97c0.49-0.26,0.97-0.53,1.56-0.85
			c-2.37-8.05-1.43-15.58,3.76-22.32c3.66-4.75,8.52-7.62,14.42-8.74c11.45-2.18,23.01,4.74,26.64,15.96
			c3.66,11.31-1.8,23.67-12.52,28.69C263.2,121.25,247.96,117.79,241.78,103.63z M285.09,94.99c0.16-11.55-9.38-21.24-21.04-21.38
			c-11.65-0.14-21.37,9.42-21.47,21.12c-0.1,11.61,9.39,21.23,21.06,21.35C275.37,116.2,284.93,106.8,285.09,94.99z"/>
		<path class="st0" d="M57.85,108.02c3.57,1.73,7.14,3.47,10.72,5.21c15.38,7.44,30.77,14.88,46.15,22.33
			c0.76,0.37,1.34,0.62,2.19,0c0.94-0.68,2.04-0.47,2.9,0.36c0.86,0.84,1.13,1.99,0.43,2.88c-0.54,0.68-1.6,1.26-2.46,1.3
			c-1.2,0.06-1.92-0.87-2.19-2.12c-0.11-0.49-0.43-1.14-0.84-1.34c-18.91-9.19-37.83-18.34-56.76-27.49
			c-0.18-0.09-0.38-0.13-0.67-0.23c-3.81,6.95-9.53,11.39-17.41,12.71c-5.85,0.98-11.35-0.19-16.38-3.36
			c-10.15-6.39-13.86-19.57-8.56-30.32c5.32-10.77,17.77-15.77,29.08-11.89C53.76,79.38,64.11,91.86,57.85,108.02z M36.12,77.11
			c-11.67,0.03-21.19,9.54-21.23,21.19c-0.03,11.66,9.65,21.33,21.3,21.29c11.64-0.04,21.19-9.59,21.22-21.22
			C57.44,86.67,47.84,77.08,36.12,77.11z"/>
		<path class="st0" d="M143.02,57.66c-14.07,0.17-24.69-11.45-24.17-24.48c0.5-12.59,10.37-22.36,23.02-22.82
			c11.88-0.43,22.51,8.7,23.97,20.65c1.64,13.47-8.05,25.36-21.86,26.62c0.17,3.19,0.32,6.4,0.55,9.6c0.02,0.27,0.5,0.55,0.81,0.74
			c1.08,0.65,1.56,1.57,1.27,2.8c-0.27,1.17-1.06,1.82-2.25,1.89c-1.19,0.07-2.05-0.48-2.47-1.61c-0.45-1.2-0.04-2.15,0.93-2.93
			c0.29-0.23,0.71-0.57,0.7-0.85C143.39,64.08,143.19,60.86,143.02,57.66z M142.31,55.21c11.66,0.08,21.24-9.37,21.34-21.04
			c0.1-11.67-9.35-21.32-20.97-21.43c-11.74-0.11-21.43,9.37-21.5,21.05C121.11,45.54,130.56,55.12,142.31,55.21z"/>
		<path class="st0" d="M62.59,184.81c3.5,11.84-3.83,21.18-12.21,23.63c-8.98,2.63-18.77-2.05-22.22-10.78
			c-3.53-8.95,0.33-18.96,8.91-23.27c7.74-3.88,19.7-2.13,25.2,9.47c3.66-1.33,7.34-2.67,11.02-4.01
			c12.83-4.7,25.65-9.41,38.48-14.09c0.85-0.31,1.41-0.59,1.59-1.67c0.23-1.42,1.89-2.11,3.23-1.6c1.39,0.53,2,2.21,1.28,3.52
			c-0.68,1.25-2.37,1.77-3.5,0.85c-0.83-0.67-1.46-0.55-2.31-0.24c-16.04,5.89-32.08,11.77-48.13,17.65
			C63.5,184.42,63.09,184.6,62.59,184.81z M45.21,174.36c-9.06-0.03-16.48,7.34-16.52,16.41c-0.03,9.07,7.31,16.5,16.38,16.57
			c9.07,0.07,16.61-7.42,16.62-16.51C61.7,181.8,54.28,174.39,45.21,174.36z"/>
		<path class="st0" d="M230.75,188.2c6.23-11.2,18.37-12.2,25.89-7.72c8.23,4.91,11.38,15.27,7.17,23.86
			c-4.21,8.6-14.32,12.51-23.23,9c-8.06-3.18-14.39-12.73-10.22-24.18c-0.42-0.21-0.85-0.44-1.29-0.63
			c-15.54-6.87-31.08-13.73-46.61-20.61c-0.74-0.33-1.27-0.41-2.02,0.14c-1.24,0.9-2.97,0.3-3.56-1.04
			c-0.58-1.31,0.07-2.87,1.4-3.37c1.4-0.52,3.01,0.27,3.26,1.79c0.14,0.87,0.47,1.29,1.24,1.63c15.69,6.9,31.36,13.83,47.04,20.75
			C230.1,187.95,230.38,188.05,230.75,188.2z M263.82,196.31c-0.01-9.09-7.36-16.46-16.44-16.49c-9.08-0.02-16.49,7.33-16.53,16.4
			c-0.04,9.14,7.35,16.55,16.51,16.58C256.39,212.82,263.83,205.36,263.82,196.31z"/>
		<path class="st0" d="M202.98,56.07c-10.04-6.76-10.61-18.51-5.65-25.88c5.25-7.82,15.71-10.46,23.97-5.97
			c8.5,4.63,11.92,14.89,8,23.72c-3.45,7.76-13.75,14.19-25.43,8.68c-0.28,0.46-0.57,0.92-0.84,1.4
			c-7.6,13.43-15.2,26.86-22.8,40.28c-0.4,0.7-0.72,1.26-0.16,2.16c0.81,1.31,0.01,2.96-1.41,3.41c-1.41,0.44-2.82-0.32-3.2-1.74
			c-0.39-1.44,0.57-2.95,2.12-3.04c0.87-0.05,1.33-0.32,1.75-1.06c7.7-13.66,15.43-27.31,23.15-40.96
			C202.64,56.77,202.78,56.46,202.98,56.07z M196.11,40.35c0.02,9.09,7.36,16.48,16.42,16.53c9.08,0.05,16.55-7.44,16.54-16.57
			c-0.02-9.06-7.41-16.42-16.5-16.42C203.49,23.88,196.09,31.29,196.11,40.35z"/>
		<path class="st0" d="M161.36,251.23c11.22-0.86,19.18,6.99,20.27,15.93c1.17,9.56-5.05,18.3-14.31,20.25
			c-9.38,1.98-18.57-3.39-21.38-12.54c-1.61-5.26-0.95-10.31,1.92-14.98c2.87-4.67,7.15-7.41,12.57-8.52
			c-0.44-3.66-0.84-7.21-1.33-10.75c-0.05-0.37-0.53-0.78-0.92-0.98c-1.13-0.58-1.67-1.46-1.48-2.7c0.18-1.18,0.93-1.9,2.11-2.06
			c1.17-0.16,2.09,0.33,2.58,1.42c0.53,1.15,0.21,2.14-0.7,3c-0.29,0.27-0.64,0.72-0.6,1.05
			C160.46,243.94,160.91,247.53,161.36,251.23z M179.91,269.5c0.01-9.08-7.36-16.48-16.42-16.5c-9.04-0.02-16.47,7.35-16.56,16.42
			c-0.08,9.06,7.42,16.57,16.55,16.56C172.55,285.97,179.9,278.6,179.91,269.5z"/>
		<path class="st0" d="M77.92,54.44c-6.18,2.73-11.56,1.41-14.42-3.45c-2.65-4.51-1.46-10.32,2.76-13.39
			c4.17-3.04,10.02-2.47,13.5,1.31c3.87,4.21,3.51,9.72-1.03,14.97c3.33,4.66,6.68,9.33,10.03,14c9.15,12.75,18.3,25.5,27.43,38.26
			c0.51,0.72,0.97,1.11,1.94,1.01c1.19-0.12,2.2,0.59,2.28,1.74c0.06,0.87-0.31,1.99-0.9,2.64c-0.77,0.86-1.96,0.73-2.91,0.03
			c-0.96-0.71-1.29-1.77-0.82-2.82c0.35-0.77,0.26-1.24-0.2-1.88c-12.4-17.25-24.77-34.51-37.15-51.77
			C78.28,54.89,78.12,54.7,77.92,54.44z M63.15,45.72c-0.05,5.05,3.97,9.17,9.03,9.25c4.98,0.07,9.2-4.06,9.25-9.06
			c0.05-5.02-4.04-9.19-9.06-9.25C67.35,36.6,63.2,40.68,63.15,45.72z"/>
		<path class="st0" d="M205.09,260.92c-7.18-13.13-14.32-26.18-21.46-39.23c-2.76-5.04-5.53-10.08-8.27-15.14
			c-0.43-0.79-0.79-1.33-1.87-1.37c-1.53-0.06-2.46-1.61-2.08-3.08c0.35-1.38,1.85-2.17,3.21-1.7c1.44,0.5,2.14,2.05,1.4,3.44
			c-0.38,0.71-0.43,1.19-0.04,1.91c9.92,18.09,19.81,36.19,29.71,54.28c0.1,0.17,0.22,0.33,0.4,0.61c3.34-0.94,6.56-0.64,9.44,1.47
			c2.03,1.49,3.35,3.48,3.9,5.94c1.11,4.88-1.51,9.87-6.12,11.71c-4.71,1.88-10.06,0.04-12.61-4.33
			C197.81,270.48,199.29,265.52,205.09,260.92z M218.64,270.37c0.02-5.04-4.05-9.17-9.08-9.21c-5.02-0.04-9.16,4.05-9.19,9.09
			c-0.04,5.04,4.04,9.18,9.07,9.21C214.47,279.49,218.61,275.39,218.64,270.37z"/>
		<path class="st0" d="M92.93,231.68c5.36,4.86,4.42,11.22,1.36,14.73c-3.43,3.93-9.3,4.65-13.57,1.64
			c-4.32-3.05-5.57-8.89-2.91-13.46c2.22-3.82,7.79-6.99,14.23-3.52c0.26-0.32,0.56-0.63,0.82-0.99
			c10.23-14.26,20.45-28.53,30.69-42.78c0.48-0.67,0.63-1.19,0.28-2.03c-0.6-1.44,0.34-2.95,1.8-3.23c1.42-0.27,2.78,0.7,2.97,2.12
			c0.2,1.49-0.91,2.67-2.47,2.82c-0.6,0.06-1.39,0.32-1.71,0.76c-10.41,14.44-20.78,28.91-31.15,43.38
			C93.17,231.26,93.08,231.44,92.93,231.68z M95.73,239.67c-0.02-5.04-4.16-9.13-9.19-9.08c-5.05,0.05-9.11,4.16-9.08,9.2
			c0.03,5.02,4.2,9.15,9.2,9.1C91.68,248.85,95.75,244.72,95.73,239.67z"/>
		<path class="st0" d="M203.48,218.86c5.45-3.14,11.11-2.14,14.32,2.39c3.09,4.36,2.29,10.32-1.84,13.76
			c-3.99,3.32-9.94,3.04-13.64-0.65c-4.08-4.07-3.99-9.66,0.32-14.88c-0.23-0.33-0.46-0.7-0.74-1.03
			c-10.02-12.32-20.05-24.64-30.07-36.97c-0.59-0.73-1.07-1.24-2.2-1.06c-1.44,0.23-2.58-1.09-2.52-2.55
			c0.06-1.45,1.31-2.51,2.77-2.34c1.45,0.16,2.57,1.5,2.07,2.91c-0.43,1.23,0.1,1.85,0.74,2.64c9.84,12.08,19.67,24.17,29.51,36.26
			C202.62,217.83,203.04,218.32,203.48,218.86z M209.46,236.27c5.07,0.02,9.16-4.03,9.18-9.08c0.03-5.03-4.08-9.17-9.1-9.18
			c-5.05-0.02-9.16,4.06-9.17,9.1C200.36,232.18,204.4,236.25,209.46,236.27z"/>
		<path class="st0" d="M120.62,269.52c0.46,0.19,0.88,0.36,1.29,0.52c4.87,2,7.4,7.24,5.94,12.3c-1.46,5.06-6.58,8.14-11.8,7.11
			c-4.9-0.96-8.5-5.65-8.11-10.57c0.43-5.47,4.65-9.57,10.03-9.56c1.31,0,1.81-0.37,2.16-1.59c3.03-10.51,6.12-21.01,9.21-31.5
			c0.23-0.77,0.32-1.34-0.36-2.01c-0.84-0.83-0.83-1.93-0.17-2.92c0.66-0.98,1.63-1.35,2.77-1.01c1.14,0.34,1.76,1.17,1.76,2.37
			c0,1.19-0.62,1.94-1.73,2.41c-0.48,0.2-1.09,0.61-1.22,1.04c-3.25,10.92-6.45,21.86-9.65,32.79
			C120.68,269.08,120.67,269.27,120.62,269.52z M118.11,270.35c-5.07,0-9.14,4.05-9.16,9.1c-0.01,5.04,4.08,9.15,9.12,9.15
			c5.07,0,9.13-4.04,9.15-9.11C127.23,274.44,123.17,270.35,118.11,270.35z"/>
		<path class="st0" d="M205.09,92.79c-3.83-5.84-3.39-11.34,1.09-15c3.99-3.26,9.83-2.98,13.53,0.63c3.7,3.61,4.1,9.44,0.94,13.51
			c-3.51,4.52-9.01,5.12-15.08,1.39c-0.32,0.44-0.65,1.02-1.09,1.48c-6.34,6.7-12.69,13.4-19.06,20.07
			c-0.63,0.66-0.93,1.22-0.7,2.22c0.35,1.56-0.8,2.82-2.32,2.86c-1.47,0.03-2.6-1.11-2.55-2.58c0.06-1.51,1.3-2.47,2.91-2.36
			c0.52,0.04,1.24-0.04,1.56-0.36C191.24,107.41,198.13,100.12,205.09,92.79z M221.7,85.72c-0.01-5.09-4.03-9.13-9.1-9.14
			c-5.05-0.01-9.15,4.07-9.16,9.11c-0.01,5.03,4.09,9.14,9.13,9.15C217.63,94.84,221.71,90.77,221.7,85.72z"/>
		<path class="st0" d="M214.53,148.15c-5.71,0.42-11.33,0.84-16.95,1.26c-3.72,0.28-7.44,0.56-11.16,0.83
			c-0.86,0.06-1.56,0.11-2.03,1.14c-0.64,1.39-2.45,1.61-3.63,0.66c-1.12-0.89-1.24-2.58-0.26-3.63c1.02-1.1,2.67-1.02,3.76,0.07
			c0.4,0.4,1.03,0.86,1.52,0.83c9.55-0.66,19.11-1.38,28.79-2.11c0.44-3.67,2.02-6.64,5.29-8.5c2.2-1.25,4.56-1.59,7.02-1.09
			c5.04,1.03,8.41,5.51,8.1,10.7c-0.29,4.92-4.33,9.03-9.24,9.42C220.08,158.18,216.02,154.76,214.53,148.15z M234,147.63
			c0.03-4.98-4.12-9.17-9.12-9.2c-5-0.03-9.21,4.13-9.2,9.11c0,5.03,4.12,9.19,9.12,9.21C229.78,156.77,233.97,152.63,234,147.63z"
			/>
		<path class="st0" d="M91.79,148.56c5.43,0.34,10.81,0.69,16.19,1.03c0.91,0.06,1.81,0.1,2.72,0.17c1.27,0.09,2.45,0.38,3.4-1.06
			c0.74-1.1,2.58-0.83,3.47,0.22c0.88,1.03,0.75,2.65-0.29,3.53c-1.04,0.87-2.89,0.84-3.46-0.37c-0.66-1.4-1.7-1.29-2.83-1.36
			c-5.89-0.37-11.77-0.75-17.66-1.12c-0.54-0.03-1.09,0-1.62,0c-0.91,5.61-5.65,9.98-12.02,8.92c-5.1-0.85-8.73-5.45-8.44-10.45
			c0.31-5.19,4.3-9.36,9.29-9.69C86.52,137.97,90.4,141.43,91.79,148.56z M72.31,148.5c-0.01,5.05,4.08,9.14,9.13,9.13
			c5.05,0,9.13-4.08,9.13-9.14c0.01-5.02-4.12-9.15-9.14-9.15C76.42,139.33,72.31,143.45,72.31,148.5z"/>
		<path class="st0" d="M263.82,111.03c-3.28,0-6.56,0.01-9.84-0.01c-1.71-0.01-2.19-0.51-2.04-2.19c0.25-2.97,0.5-5.93,0.87-8.88
			c0.37-2.94,1.99-5.11,4.47-6.68c0.63-0.4,1.07-0.4,1.71,0.13c3.17,2.62,6.44,2.56,9.78,0.02c0.35-0.27,1.15-0.35,1.53-0.14
			c2.62,1.48,4.21,3.76,4.6,6.74c0.39,2.95,0.62,5.92,0.88,8.88c0.14,1.55-0.4,2.13-1.97,2.14
			C270.48,111.04,267.15,111.03,263.82,111.03z"/>
		<path class="st0" d="M270.98,87.44c-0.15,2.56-1.42,5.2-4.51,6.58c-2.58,1.15-5.08,0.69-7.17-1.23c-2.36-2.17-3.03-4.96-2.41-8.02
			c0.8-3.91,4.08-6.4,7.71-6.02C268.25,79.14,271.02,82.59,270.98,87.44z"/>
		<path class="st0" d="M36.07,114.48c-3.28,0-6.56,0.01-9.84-0.01c-1.63-0.01-2.13-0.51-2-2.1c0.26-3.02,0.5-6.04,0.9-9.04
			c0.38-2.87,1.97-5.02,4.4-6.57c0.69-0.44,1.14-0.46,1.83,0.13c3.01,2.56,6.58,2.54,9.63-0.02c0.62-0.52,1.04-0.58,1.7-0.17
			c2.5,1.56,4.12,3.74,4.5,6.66c0.39,2.95,0.63,5.92,0.89,8.89c0.15,1.7-0.33,2.21-2.02,2.22C42.73,114.5,39.4,114.48,36.07,114.48z
			"/>
		<path class="st0" d="M29.02,90.09c0.01-4.98,4.02-8.66,8.45-7.77c4.08,0.83,6.67,5.34,5.62,9.79c-1.01,4.28-4.81,6.78-8.68,5.71
			C31.2,96.94,29.01,93.8,29.02,90.09z"/>
		<path class="st0" d="M142.44,50.16c-3.18,0-6.36,0.01-9.54,0c-2.16,0-2.57-0.44-2.37-2.63c0.25-2.76,0.49-5.53,0.82-8.28
			c0.36-3,1.94-5.24,4.48-6.85c0.61-0.38,1.04-0.48,1.71,0.07c3.23,2.65,6.5,2.6,9.78,0.08c0.38-0.29,1.24-0.35,1.65-0.12
			c2.56,1.46,4.11,3.72,4.5,6.64c0.39,2.95,0.63,5.92,0.89,8.88c0.14,1.63-0.38,2.18-2.08,2.19C149,50.17,145.72,50.16,142.44,50.16
			z"/>
		<path class="st0" d="M149.78,25.88c-0.34,1.2-0.53,2.47-1.05,3.59c-1.26,2.68-3.37,4.27-6.43,4.21c-3.06-0.05-5.11-1.75-6.3-4.44
			c-2.38-5.35,1.18-11.48,6.56-11.4C146.49,17.9,149.6,21.44,149.78,25.88z"/>
		<path class="st0" d="M49.6,189.26c2.4,1.13,3.82,3.04,4.19,5.66c0.31,2.19,0.42,4.41,0.66,6.61c0.14,1.29-0.35,1.9-1.66,1.89
			c-5.04-0.01-10.08-0.01-15.11,0c-1.26,0-1.89-0.47-1.74-1.82c0.25-2.3,0.38-4.62,0.69-6.91c0.3-2.22,1.51-3.93,3.45-5.06
			c0.31-0.18,0.89-0.22,1.17-0.05C44.84,191.82,46.11,191.79,49.6,189.26z"/>
		<path class="st0" d="M39.62,184.44c0.01-3.43,2.47-6.14,5.58-6.13c3.09,0.01,5.58,2.78,5.56,6.17c-0.02,3.4-2.52,6.15-5.61,6.15
			C42.09,190.63,39.61,187.87,39.62,184.44z"/>
		<path class="st0" d="M242.91,194.71c3.58,2.6,5.44,2.61,8.81,0.01c2.23,1,3.71,2.71,4.11,5.14c0.41,2.48,0.56,5.01,0.79,7.51
			c0.09,1.01-0.46,1.5-1.44,1.5c-5.24,0.01-10.48,0.01-15.73-0.01c-1,0-1.49-0.56-1.4-1.55c0.23-2.46,0.39-4.93,0.78-7.36
			C239.22,197.5,240.7,195.78,242.91,194.71z"/>
		<path class="st0" d="M252.87,189.95c-0.01,3.43-2.48,6.18-5.56,6.17c-3.06-0.01-5.52-2.78-5.52-6.22
			c-0.01-3.43,2.46-6.14,5.57-6.13C250.48,183.78,252.88,186.47,252.87,189.95z"/>
		<path class="st0" d="M208.15,38.77c3.42,2.51,4.81,2.54,8.38,0.36c0.3-0.19,0.95-0.1,1.29,0.11c2.02,1.23,3.14,3.09,3.41,5.43
			c0.25,2.15,0.41,4.31,0.63,6.47c0.12,1.21-0.35,1.8-1.61,1.79c-5.09-0.02-10.18-0.02-15.27,0c-1.32,0.01-1.81-0.56-1.66-1.87
			c0.27-2.3,0.39-4.62,0.72-6.91C204.41,41.62,205.9,39.88,208.15,38.77z"/>
		<path class="st0" d="M218.13,33.91c0.03,3.43-2.4,6.21-5.48,6.26c-3.09,0.04-5.58-2.66-5.61-6.11c-0.03-3.47,2.36-6.2,5.46-6.23
			C215.64,27.8,218.1,30.45,218.13,33.91z"/>
		<path class="st0" d="M163.49,282.01c-2.57,0-5.14-0.02-7.7,0.01c-1.25,0.02-1.75-0.53-1.63-1.75c0.22-2.2,0.38-4.41,0.65-6.61
			c0.28-2.27,1.4-4.1,3.39-5.26c0.38-0.22,1.16-0.19,1.52,0.06c2.7,1.87,4.72,1.86,7.49-0.05c0.34-0.23,1.06-0.27,1.4-0.07
			c1.88,1.1,3.08,2.76,3.37,4.93c0.32,2.39,0.5,4.81,0.73,7.21c0.11,1.12-0.46,1.54-1.53,1.53
			C168.62,282,166.06,282.01,163.49,282.01z"/>
		<path class="st0" d="M168.99,263.17c-0.02,3.45-2.47,6.11-5.6,6.08c-3.11-0.03-5.54-2.77-5.51-6.2c0.04-3.44,2.53-6.14,5.62-6.1
			C166.61,257,169.01,259.71,168.99,263.17z"/>
		<path class="st0" d="M74.12,45.13c1.72-0.26,2.38,1,2.72,2.23c0.4,1.43,0.47,2.97,0.55,4.47c0.02,0.3-0.55,0.89-0.85,0.9
			c-2.86,0.07-5.73,0.06-8.59,0c-0.27,0-0.77-0.47-0.75-0.69c0.17-1.74,0.26-3.52,0.73-5.19c0.27-0.98,1.03-2,2.43-1.78
			C71.6,45.78,72.84,46.64,74.12,45.13z"/>
		<path class="st0" d="M74.12,45.13c-1.28,1.5-2.52,0.64-3.77-0.06c-0.38-1-1.04-1.99-1.09-3.01c-0.1-1.95,1.62-3.44,3.36-3.21
			c1.84,0.25,3.16,2.25,2.64,4.2C75.06,43.8,74.51,44.45,74.12,45.13z"/>
		<path class="st0" d="M211.47,269.75c1.4-0.53,2.05,0.62,2.3,1.46c0.5,1.71,0.65,3.53,0.82,5.31c0.02,0.21-0.67,0.71-1.03,0.72
			c-2.71,0.06-5.43,0.06-8.14-0.01c-0.36-0.01-1.02-0.5-1-0.73c0.13-1.69,0.23-3.42,0.67-5.05c0.27-1.01,1.03-1.98,2.39-1.91
			C208.77,270.47,210.09,270.69,211.47,269.75z"/>
		<path class="st0" d="M211.47,269.75c-1.38,0.94-2.71,0.72-4-0.2c-0.32-0.62-0.75-1.2-0.93-1.86c-0.44-1.55,0.22-3.23,1.48-3.93
			c1.16-0.64,2.31-0.57,3.35,0.29c1.14,0.94,1.53,2.67,0.92,4.11C212.08,268.71,211.75,269.22,211.47,269.75z"/>
		<path class="st0" d="M88.55,239.2c0.55,0.15,1.27,0.12,1.62,0.47c1.8,1.8,1.29,4.22,1.49,6.44c0.02,0.18-0.56,0.59-0.86,0.59
			c-2.83,0.04-5.65,0.05-8.48-0.02c-0.3-0.01-0.85-0.54-0.83-0.79c0.13-1.65,0.16-3.37,0.69-4.91c0.29-0.84,1.51-1.37,2.31-2.04
			C85.79,239.93,87.14,240.01,88.55,239.2z"/>
		<path class="st0" d="M88.55,239.2c-1.41,0.81-2.76,0.73-4.06-0.26c-0.29-0.58-0.65-1.14-0.84-1.75c-0.47-1.52,0.16-3.24,1.43-3.98
			c1.16-0.67,2.33-0.59,3.38,0.26c1.14,0.92,1.54,2.7,0.92,4.14C89.16,238.16,88.83,238.67,88.55,239.2z"/>
		<path class="st0" d="M211.61,226.26c1.42,0.26,2.21,1.26,2.49,2.54c0.32,1.42,0.43,2.89,0.49,4.35c0.01,0.3-0.62,0.9-0.97,0.91
			c-2.72,0.08-5.45,0.08-8.17,0c-0.37-0.01-1.03-0.57-1.02-0.86c0.06-1.5,0.15-3.03,0.49-4.49c0.39-1.65,1.55-2.42,2.83-2.17
			C209.1,227.35,210.41,227.6,211.61,226.26z"/>
		<path class="st0" d="M211.61,226.26c-1.2,1.33-2.51,1.08-3.86,0.27c-0.43-0.83-1.07-1.61-1.24-2.49c-0.3-1.5,0.3-2.79,1.71-3.54
			c1.14-0.61,2.26-0.42,3.21,0.44c1.17,1.06,1.4,2.41,0.96,3.86C212.22,225.32,211.87,225.78,211.61,226.26z"/>
		<path class="st0" d="M120.12,278.63c1.61,0.19,2.32,1.36,2.67,2.71c1.22,4.72,0.91,5.1-3.85,5.1c-1.56,0-3.13-0.05-4.69,0.02
			c-1.11,0.04-1.43-0.42-1.29-1.45c0.15-1.05,0.14-2.12,0.33-3.16c0.28-1.56,0.92-2.89,2.7-3.22
			C117.79,279.79,118.58,279.79,120.12,278.63z"/>
		<path class="st0" d="M120.12,278.63c-1.54,1.16-2.33,1.16-4.13-0.01c-0.32-0.93-0.84-1.84-0.93-2.78c-0.13-1.41,0.6-2.54,1.94-3.1
			c1.18-0.49,2.29-0.24,3.17,0.68c1.09,1.13,1.21,2.49,0.71,3.92C120.72,277.8,120.38,278.2,120.12,278.63z"/>
		<path class="st0" d="M214.34,85.1c1.6-0.53,2.33,0.68,2.64,1.74c0.47,1.62,0.55,3.36,0.68,5.06c0.02,0.23-0.65,0.73-1.01,0.74
			c-2.72,0.06-5.45,0.06-8.17,0c-0.35-0.01-1.01-0.53-0.99-0.77c0.14-1.7,0.21-3.46,0.74-5.05c0.27-0.82,1.46-1.33,2.23-1.99
			C211.7,85.65,212.95,86.31,214.34,85.1z"/>
		<path class="st0" d="M214.34,85.1c-1.38,1.21-2.64,0.55-3.88-0.27c-0.27-0.54-0.62-1.05-0.8-1.61c-0.5-1.56,0.16-3.36,1.48-4.09
			c1.25-0.69,2.44-0.53,3.47,0.44c1.15,1.07,1.4,3.08,0.56,4.46C214.93,84.42,214.62,84.75,214.34,85.1z"/>
		<path class="st0" d="M226.75,146.88c1.37,0.04,2.44,0.92,2.74,2.47c0.26,1.38,0.4,2.8,0.44,4.2c0.01,0.33-0.6,0.96-0.93,0.97
			c-2.77,0.08-5.55,0.08-8.32,0c-0.33-0.01-0.93-0.64-0.92-0.97c0.03-1.41,0.15-2.82,0.42-4.21c0.29-1.54,1.41-2.43,2.75-2.44
			C224.2,147.79,225.48,147.99,226.75,146.88z"/>
		<path class="st0" d="M226.75,146.88c-1.27,1.11-2.55,0.91-3.83,0.02c-0.39-0.85-0.98-1.67-1.12-2.56c-0.31-1.97,1.2-3.7,3.03-3.72
			c1.81-0.02,3.34,1.72,3.05,3.69C227.74,145.21,227.14,146.03,226.75,146.88z"/>
		<path class="st0" d="M82.91,148.09c1.34-0.5,2.46-0.08,2.92,1.53c0.47,1.62,0.55,3.36,0.68,5.05c0.02,0.23-0.65,0.72-1,0.72
			c-2.71,0.06-5.43,0.07-8.15,0c-0.37-0.01-1.04-0.58-1.02-0.86c0.08-1.55,0.17-3.13,0.56-4.62c0.47-1.79,1.61-2.31,3.2-1.78
			C81.04,148.12,81.98,148.1,82.91,148.09z"/>
		<path class="st0" d="M82.91,148.09c-0.94,0.01-1.87,0.03-2.8,0.04c-1.09-0.77-1.76-1.77-1.76-3.16c0.01-1.55,0.87-2.88,2.2-3.28
			c1.31-0.4,2.39,0,3.23,1.04c0.93,1.16,0.99,3.02,0.14,4.25C83.64,147.39,83.25,147.72,82.91,148.09z"/>
	</g>
</g>
</svg>
