<?xml version="1.0" encoding="utf-8"?>
<!-- Generator: Adobe Illustrator 26.0.1, SVG Export Plug-In . SVG Version: 6.00 Build 0)  -->
<svg version="1.1" id="Layer_1" xmlns="http://www.w3.org/2000/svg" xmlns:xlink="http://www.w3.org/1999/xlink" x="0px" y="0px"
	 viewBox="0 0 300 300" style="enable-background:new 0 0 300 300;" xml:space="preserve">
<style type="text/css">
	.st0{fill:#69438D;}
</style>
<g>
	<g>
		<path class="st0" d="M132.37,24.13c-2.91,6.46-6.1,14.1-9.84,21.46c-1.11,2.18-3.68,3.69-5.74,5.3
			c-20.36,15.95-28.95,37.01-24.04,62.14c4.9,25.12,20.7,41.62,45.71,48.27c27.61,7.34,56.54-5.79,70.02-31.3
			c13.2-24.98,7.79-56.17-13.36-74.86c-4.03-3.56-6.33-7.31-7.8-12.51c-1.68-5.93-5.19-11.33-8-17.18c2.08,0.82,4.78,1.75,7.36,2.92
			c33.59,15.33,55.61,58.25,38.37,97.99c-11.84,27.28-27.81,52.01-44.49,76.38c-8.65,12.64-17.77,24.97-27.09,38.02
			c-26.29-37.42-53.72-72.98-71.57-114.69C61.86,79.24,95.42,31.47,132.37,24.13z"/>
		<path class="st0" d="M102.58,117.12c1.38-19.64,9.45-28.12,28.51-29.42c3.75-0.26,5.69,0.62,6.99,4.44
			c4.24,12.46,8.85,24.8,13.52,37.1c0.7,1.83,2.47,3.25,3.75,4.87c1.31-1.57,3.17-2.94,3.85-4.74c4.58-12.08,8.82-24.29,13.4-36.37
			c0.76-2.01,2.6-5.12,4.02-5.16c19.52-0.56,33.74,10.79,28.97,30.94c-2.84,12-10.9,21.2-21.14,28.12
			c-25.49,17.26-59.85,10.61-76.71-15.14C104.99,127.55,104.25,122.03,102.58,117.12z"/>
		<path class="st0" d="M203.25,203.54c5.57-11.11,5.82-11.84,16.48-8.16c12.35,4.26,25.07,8.58,36.08,15.38
			c18.46,11.4,18.21,28.71,0.58,41.35c-15.26,10.93-33.08,15.5-51.14,18.67c-44.35,7.79-88.58,7.15-132.02-5.4
			c-11.04-3.19-21.92-8.52-31.45-14.97c-14.83-10.03-15.06-25.26-1.52-36.89c13.57-11.66,30.39-16.41,47.48-19.57
			c2.57-0.47,6.22,4.9,10.49,8.52c-11.51,3.43-20.76,5.58-29.5,8.99c-7.19,2.81-14.33,6.39-20.5,10.97
			c-7.97,5.92-8.06,13.38,0.48,18.38c10.39,6.07,21.61,11.66,33.2,14.58c47.79,12.04,95.74,11.61,143.26-1.86
			c8.32-2.36,16.46-6.28,23.86-10.82c11.37-6.98,11.67-16.11-0.11-22.39c-11.89-6.33-25.15-10.1-37.86-14.87
			C208.59,204.52,205.92,204.17,203.25,203.54z"/>
		<path class="st0" d="M155.33,76.54c-14.22-0.02-26.31-11.64-26.2-25.17c0.13-15.88,11.15-27.25,26.35-27.2
			c14.55,0.05,26.08,11.46,26.16,25.88C181.72,64.92,170.16,76.56,155.33,76.54z"/>
		<path class="st0" d="M153.53,123.04c-0.93-5.56-2.61-11.13-2.56-16.68c0.05-5.1,1.63-10.01-2.36-14.51
			c-0.71-0.81,0.35-4.77,0.9-4.84c3.78-0.47,7.66-0.53,11.45-0.1c0.61,0.07,1.81,3.99,1.13,4.86c-4.2,5.34-1.88,11.19-2.19,16.89
			c-0.27,4.89-1.87,9.72-2.89,14.57C155.85,123.16,154.69,123.1,153.53,123.04z"/>
	</g>
</g>
</svg>
