<?xml version="1.0" encoding="utf-8"?>
<!-- Generator: Adobe Illustrator 26.0.1, SVG Export Plug-In . SVG Version: 6.00 Build 0)  -->
<svg version="1.1" id="Layer_1" xmlns="http://www.w3.org/2000/svg" xmlns:xlink="http://www.w3.org/1999/xlink" x="0px" y="0px"
	 viewBox="0 0 300 300" style="enable-background:new 0 0 300 300;" xml:space="preserve">
<style type="text/css">
	.st0{fill:#69438D;}
</style>
<g>
	<g>
		<path class="st0" d="M189.28,135.81c0.71-3,1.34-5.71,1.98-8.41c0.45-1.93,0.9-3.86,1.35-5.79c0.61-2.59,1.9-4.7,4.09-6.32
			c5.5-4.05,11.4-7.33,18.06-8.9c12.37-2.92,24.49-2.1,36.22,3.03c4.13,1.81,7.91,4.18,11.36,7.09c1.69,1.42,2.61,3.34,3.11,5.46
			c2.82,11.93,5.63,23.86,8.43,35.8c1.43,6.11,2.85,12.22,4.23,18.35c1.04,4.6-1.62,9.09-6.1,10.4c-4.5,1.32-9.33-1.07-10.85-5.53
			c-0.76-2.25-1.22-4.61-1.77-6.93c-2.51-10.42-5.01-20.84-7.51-31.26c-0.07-0.27-0.17-0.54-0.43-0.79c0,41.64,0,83.27,0,125.01
			c-6,0-11.87,0-17.88,0c0-0.54,0-1.04,0-1.54c0-25.96,0-51.92,0-77.88c0-1.91,0.23-1.66-1.72-1.67c-2.41-0.01-4.83,0-7.37,0
			c0,27.1,0,54.07,0,81.12c-5.98,0-11.83,0-17.8,0c0-41.92,0-83.8,0-125.67c-0.09-0.02-0.18-0.04-0.27-0.05
			c-0.11,0.39-0.23,0.78-0.32,1.17c-0.89,3.82-1.8,7.64-2.65,11.48c-0.29,1.29-0.92,2.22-2,3.01c-3.78,2.76-7.99,4.12-12.63,4.25
			c-2.87,0.08-5.21-1.03-6.71-3.48c-6.23-10.17-12.4-20.39-18.58-30.59c-0.92-1.52-1.34-3.2-1.17-4.96c0.08-0.85-0.2-1.35-0.75-1.91
			c-7.24-7.25-14.46-14.51-21.68-21.78c-5.51-5.55-11.03-11.09-16.54-16.64c-2.05-2.06-2.16-4.93-0.28-6.79
			c1.84-1.81,4.68-1.68,6.7,0.34c12.64,12.7,25.28,25.4,37.9,38.12c0.6,0.6,1.13,0.77,2.01,0.67c3.68-0.41,6.72,0.68,8.74,4
			c3.33,5.45,6.7,10.88,10.05,16.31C188.67,134.88,188.89,135.21,189.28,135.81z"/>
		<path class="st0" d="M209.33,45.18c-49.49,0-98.83,0-148.23,0c0,33.42,0,66.78,0,100.29c0.55,0,1.05,0,1.54,0
			c33.41,0,66.83,0.01,100.24-0.02c1.05,0,1.64,0.31,2.17,1.22c1.92,3.3,3.94,6.54,5.92,9.81c0.19,0.31,0.35,0.63,0.64,1.16
			c-0.66,0-1.15,0-1.64,0c-36.17,0-72.34,0-108.5,0c-7.27,0-12.53-5.21-12.54-12.48c-0.02-12.81,0-25.63,0-38.44
			c0-20.34,0-40.68,0-61.03c0-7.55,5.17-12.71,12.74-12.71c49.02,0,98.04,0,147.06,0c7.5,0,12.69,5.19,12.68,12.67
			c0,3.16,0.02,6.32-0.03,9.47c-0.01,0.37-0.29,0.98-0.57,1.07c-4.31,1.39-8.07,3.67-11.49,7.13c0-3.23,0-6.17,0-9.11
			C209.33,51.23,209.33,48.26,209.33,45.18z"/>
		<path class="st0" d="M76.16,254.9c-18.23,0-36.28,0-54.48,0c0-0.45,0-0.84,0-1.23c0-3.96,0.02-7.93-0.01-11.89
			c-0.02-2.78,1.08-4.96,3.34-6.57c13.19-9.41,30.51-10.68,45.6-1.4c0.38,0.23,0.73,0.49,1.12,0.7c3.22,1.79,4.59,4.51,4.45,8.19
			c-0.14,3.63-0.03,7.27-0.03,10.9C76.16,253.99,76.16,254.39,76.16,254.9z"/>
		<path class="st0" d="M197.18,254.9c-18.2,0-36.24,0-54.38,0c-0.02-0.44-0.06-0.83-0.06-1.22c0-3.96,0.02-7.93-0.01-11.89
			c-0.02-2.83,1.11-5.02,3.41-6.65c13.08-9.26,30.17-10.56,45.35-1.53c4.07,2.42,6.15,5.42,5.75,10.27
			C196.94,247.49,197.18,251.13,197.18,254.9z"/>
		<path class="st0" d="M136.61,254.9c-18.14,0-36.18,0-54.32,0c-0.02-0.4-0.05-0.75-0.06-1.1c0-4.11,0-8.22-0.01-12.33
			c-0.01-2.53,1-4.59,3.04-6.04c9.38-6.67,19.73-9.3,31.15-7.3c6.25,1.1,11.91,3.62,17.09,7.24c1.78,1.25,3,2.95,3.06,5.11
			C136.7,245.23,136.61,250,136.61,254.9z"/>
		<path class="st0" d="M229.05,64.02c10.04,0.03,17.97,8.12,17.94,18.3c-0.03,9.81-8.13,17.84-17.97,17.81
			c-10.05-0.02-17.97-8.11-17.93-18.29C211.13,72.03,219.23,63.99,229.05,64.02z"/>
		<path class="st0" d="M109.65,195.97c7.53-0.01,13.7,6.17,13.74,13.76c0.04,7.63-6.13,13.85-13.74,13.87
			c-7.52,0.02-13.71-6.17-13.75-13.76C95.87,202.23,102.06,195.98,109.65,195.97z"/>
		<path class="st0" d="M169.59,195.97c7.42-0.21,13.73,5.96,13.91,13.59c0.17,7.48-5.85,13.8-13.36,14.02
			c-7.58,0.23-13.9-5.81-14.11-13.48C155.81,202.46,161.83,196.19,169.59,195.97z"/>
		<path class="st0" d="M35.43,209.83c-0.02-7.68,6.1-13.86,13.71-13.86c7.55,0,13.69,6.17,13.7,13.77
			c0.01,7.67-6.13,13.87-13.72,13.86C41.54,223.58,35.44,217.45,35.43,209.83z"/>
	</g>
</g>
</svg>
