<?xml version="1.0" encoding="utf-8"?>
<!-- Generator: Adobe Illustrator 26.0.1, SVG Export Plug-In . SVG Version: 6.00 Build 0)  -->
<svg version="1.1" id="Layer_1" xmlns="http://www.w3.org/2000/svg" xmlns:xlink="http://www.w3.org/1999/xlink" x="0px" y="0px"
	 viewBox="0 0 300 300" style="enable-background:new 0 0 300 300;" xml:space="preserve">
<style type="text/css">
	.st0{fill:#69438D;}
</style>
<g>
	<g>
		<path class="st0" d="M154.04,267.27c0-16.1,0-32.19,0-48.43c34.99,0,69.84,0,104.86,0c0.07,0.48,0.2,0.98,0.2,1.48
			c0.01,15.27,0.01,30.55,0,45.82c0,0.38-0.07,0.76-0.11,1.13c-2.6,0-5.19,0-7.79,0c0-13.4,0-26.8,0-40.23c-8.36,0-16.31,0-24.29,0
			c0,13.54,0,26.89,0,40.23c-2.75,0-5.5,0-8.25,0c0-13.41,0-26.82,0-40.24c-8.22,0-16.17,0-24.29,0c0,13.54,0,26.89,0,40.24
			c-2.75,0-5.5,0-8.25,0c0.06-0.53,0.17-1.05,0.17-1.58c0.01-12.36,0.01-24.72,0-37.09c0-0.51-0.08-1.02-0.13-1.64
			c-8.05,0-15.95,0-24.12,0c0,0.99,0,1.89,0,2.79c0,11.6,0,23.2-0.01,34.8c0,0.91-0.13,1.81-0.19,2.72
			C159.24,267.27,156.64,267.27,154.04,267.27z"/>
		<path class="st0" d="M267.25,210.43c-0.83,0.05-1.67,0.15-2.5,0.15c-38.71,0.01-77.42,0.01-116.12,0.01c-0.83,0-1.65,0-2.63,0
			c0-2.69,0-5.17,0-7.86c0.63-0.05,1.28-0.16,1.93-0.16c39.39-0.01,78.79-0.01,118.18,0c0.38,0,0.76,0.05,1.14,0.07
			C267.25,205.23,267.25,207.83,267.25,210.43z"/>
		<path class="st0" d="M170.08,267.27c0-10.69,0-21.37,0-32.23c2.73,0,5.28,0,8.25,0c0,10.77,0,21.5,0,32.23
			C175.58,267.27,172.83,267.27,170.08,267.27z"/>
		<path class="st0" d="M234.71,267.27c0.05-9.69,0.09-19.38,0.14-29.08c0.02-3.71-0.4-3.3,3.28-3.33c1.51-0.01,3.02,0,4.83,0
			c0,10.94,0,21.67,0,32.41C240.2,267.27,237.46,267.27,234.71,267.27z"/>
		<path class="st0" d="M202.62,267.27c0-10.72,0-21.44,0-32.28c2.69,0,5.17,0,7.74,0c0.08,0.63,0.2,1.14,0.2,1.65
			c0.01,9.84,0.01,19.67,0,29.51c0,0.38-0.1,0.75-0.15,1.13C207.82,267.27,205.22,267.27,202.62,267.27z"/>
		<path class="st0" d="M40.83,154.11c0-35.27,0-70.15,0-105.21c51.11,0,102.15,0,153.41,0c0.05,0.61,0.15,1.26,0.15,1.91
			c0.01,7.48-0.03,14.97,0.04,22.45c0.02,1.45-0.46,2.13-1.76,2.72c-15.06,6.83-22.35,18.69-22.55,35.08
			c-0.05,4.43-0.02,8.86-0.01,13.29c0.03,8.69,4.08,14.21,12.28,16.93c0.72,0.24,1.33,1.08,1.81,1.77c1.72,2.49,3.39,5.02,5.02,7.57
			c0.56,0.88,0.96,1.86,1.68,3.29c-23.48,0-46.26,0-69.19,0c0,11.08,0,21.89,0,32.68c1.93,1.1,4.04,2.02,5.82,3.37
			c5.77,4.36,7.73,12.29,4.85,18.94c-2.82,6.54-9.89,10.56-16.89,9.61c-7.55-1.02-13.03-6.67-14.01-14.45
			c-0.85-6.76,3.37-13.91,9.96-16.39c1.7-0.64,2.12-1.43,2.11-3.12c-0.08-9.32-0.04-18.63-0.04-27.95c0-0.75,0-1.51,0-2.51
			C89.27,154.11,65.19,154.11,40.83,154.11z M152.16,115.71c2.82-0.96,5.46-1.95,8.16-2.73c1.37-0.4,1.75-1.1,1.74-2.45
			c-0.06-6.11-0.06-12.22,0-18.32c0.01-1.36-0.37-2.04-1.74-2.44c-2.73-0.79-5.4-1.8-8.17-2.75c1.62-3.28,3.1-6.27,4.65-9.39
			c-4.76-4.74-9.51-9.38-14.13-14.13c-1.13-1.17-1.99-1.22-3.33-0.48c-2.37,1.32-4.85,2.46-7.45,3.75c-1.02-3.01-1.89-5.76-2.9-8.46
			c-0.21-0.57-0.91-1.37-1.39-1.38c-7.01-0.09-14.03-0.06-21.01-0.06c-1.16,3.38-2.26,6.57-3.4,9.89c-2.85-1.42-5.34-2.73-7.91-3.88
			c-0.6-0.27-1.76-0.29-2.15,0.09c-4.98,4.83-9.87,9.76-14.81,14.69c1.58,3.18,3.08,6.21,4.65,9.38c-2.89,0.98-5.53,1.96-8.23,2.74
			c-1.34,0.39-1.76,1.02-1.75,2.41c0.07,6.11,0.07,12.22,0,18.32c-0.01,1.35,0.35,2.04,1.72,2.44c2.74,0.8,5.42,1.8,8.25,2.77
			c-1.33,2.67-2.47,5.17-3.8,7.56c-0.7,1.27-0.67,2.06,0.43,3.12c4.39,4.25,8.69,8.58,12.96,12.95c0.96,0.98,1.73,1.17,2.95,0.5
			c2.45-1.34,4.99-2.52,7.72-3.88c0.96,2.88,1.92,5.51,2.72,8.19c0.39,1.31,1.04,1.74,2.42,1.73c6.11-0.08,12.22-0.09,18.32,0.01
			c1.5,0.02,2.15-0.48,2.56-1.87c0.79-2.66,1.73-5.28,2.65-8.05c2.57,1.27,4.91,2.23,7.03,3.54c1.81,1.12,2.92,0.74,4.25-0.75
			c2.03-2.27,4.28-4.35,6.44-6.51c2.42-2.41,4.84-4.81,7.2-7.16C155.19,121.83,153.71,118.84,152.16,115.71z M125.62,202.47
			c-0.03-4.36-3.65-8-8-8.05c-4.44-0.05-8.11,3.65-8.09,8.15c0.02,4.55,3.61,8.05,8.19,7.97
			C122.13,210.47,125.65,206.88,125.62,202.47z"/>
		<path class="st0" d="M206.59,186.05c1.41-2.34,2.7-4.48,3.99-6.63c2.99-4.97,6.01-9.92,8.92-14.93c0.7-1.21,1.34-1.53,2.7-1.06
			c6.7,2.3,13.46,4.45,20.16,6.76c5.09,1.75,8.23,5.32,8.57,10.76c0.28,4.39,0.06,8.81,0.06,13.34c-29.67,0-59.18,0-88.63,0
			c0-5.11-0.4-10.17,0.12-15.13c0.43-4.1,3.25-7.11,7.18-8.52c7.17-2.58,14.44-4.89,21.64-7.36c1.32-0.45,1.73,0.3,2.26,1.2
			c3.83,6.42,7.69,12.83,11.54,19.24C205.54,184.43,206,185.12,206.59,186.05z"/>
		<path class="st0" d="M202.41,32.73c0,2.73,0,5.22,0,7.84c-56.59,0-113.04,0-169.66,0c0-2.59,0-5.14,0-7.84
			C89.25,32.73,145.77,32.73,202.41,32.73z"/>
		<path class="st0" d="M234.82,111.66c-4.99-2.87-10.16-2.11-15.22-2.14c-8.85-0.06-17.7-0.05-26.55,0
			c-4.91,0.03-9.93-0.67-14.75,2.16c-0.33-11.24,3.74-19.98,12.84-25.84c10.1-6.5,20.69-6.51,30.81-0.02
			C231.08,91.67,235.09,100.44,234.82,111.66z"/>
		<path class="st0" d="M190.61,117.65c10.72,0,21.31,0,31.68,0c0,6.67,0.64,13.28-0.17,19.71c-0.94,7.47-8.62,12.88-16.09,12.53
			c-8.1-0.38-14.75-6.27-15.33-14.25C190.26,129.74,190.61,123.78,190.61,117.65z"/>
		<path class="st0" d="M214.89,156.5c-2.97,4.95-5.55,9.24-8.33,13.88c-2.76-4.6-5.36-8.92-8.27-13.78
			C203.92,158.26,209.12,158.41,214.89,156.5z"/>
		<path class="st0" d="M182.1,132.36c-2.5-1.56-3.62-3.67-3.77-6.3c-0.18-2.97,1.09-5.24,3.77-7.24
			C182.1,123.44,182.1,127.7,182.1,132.36z"/>
		<path class="st0" d="M230.95,132.48c0-4.68,0-8.9,0-13.52c2.36,1.38,3.44,3.23,3.74,5.54
			C235.11,127.69,234.02,130.26,230.95,132.48z"/>
		<path class="st0" d="M139.72,71.92c2.16,2.21,4.25,4.23,6.16,6.4c0.44,0.5,0.56,1.63,0.33,2.29c-0.53,1.5-1.25,2.96-2.11,4.3
			c-1.31,2.03-1.39,3.87-0.32,6.13c0.74,1.55,1.58,2.42,3.17,2.86c1.91,0.53,3.8,1.15,5.62,1.91c0.6,0.25,1.32,1.06,1.35,1.66
			c0.15,2.59,0.15,5.19,0,7.78c-0.03,0.6-0.73,1.4-1.32,1.68c-1.37,0.64-2.83,1.18-4.31,1.48c-2.64,0.53-4.19,1.92-5,4.56
			c-0.43,1.38-0.45,2.38,0.19,3.61c1.16,2.22,3.31,4.73,2.94,6.73c-0.39,2.13-3.23,3.8-4.98,5.69c-0.52,0.56-0.98,1.17-1.58,1.89
			c-2.56-1.28-4.92-2.46-7.29-3.64c-2.43-1.2-6.49,0.52-7.36,3.12c-0.63,1.88-1.35,3.74-1.84,5.65c-0.38,1.47-1.16,1.9-2.6,1.83
			c-2.21-0.11-4.43-0.1-6.64,0c-1.28,0.06-1.97-0.33-2.29-1.61c-0.33-1.33-1-2.58-1.26-3.91c-0.54-2.8-1.98-4.7-4.86-5.21
			c-0.96-0.17-2.09-0.26-2.95,0.09c-2.04,0.83-3.93,2.03-5.97,2.87c-0.63,0.26-1.79,0.13-2.28-0.31c-1.89-1.66-3.68-3.45-5.34-5.34
			c-0.43-0.49-0.54-1.65-0.28-2.3c0.72-1.84,1.62-3.62,2.62-5.33c0.81-1.38,0.58-2.55,0.23-4.05c-0.71-3.04-2.97-3.7-5.38-4.48
			c-5.22-1.68-5.21-1.71-5.21-7.16c0-4.92,0-4.92,4.64-6.47c0.58-0.19,1.16-0.39,1.73-0.58c4.15-1.38,5.56-4.86,3.62-8.79
			c-0.97-1.97-2.82-4.14-2.52-5.93c0.3-1.8,2.75-3.26,4.3-4.83c2.52-2.55,2.53-2.54,5.8-0.9c0.75,0.38,1.59,0.63,2.23,1.15
			c2.63,2.13,5.13,0.98,7.58-0.28c0.51-0.26,0.91-0.97,1.13-1.56c0.79-2.14,1.39-4.36,2.27-6.47c0.27-0.63,1.21-1.36,1.87-1.39
			c2.82-0.13,6.25-0.99,8.29,0.29c1.83,1.14,2.19,4.71,3.12,7.23c0.88,2.39,4.99,4.09,7.32,2.94
			C134.86,74.37,137.17,73.2,139.72,71.92z M137.71,101.64c0.29-10.89-8.65-20.14-19.78-20.46c-10.98-0.32-20.38,8.59-20.54,19.93
			c-0.16,11.28,8.65,20.14,19.78,20.43C128.27,121.82,137.41,112.95,137.71,101.64z"/>
		<path class="st0" d="M117.46,89.3c6.66-0.05,12.1,5.25,12.23,11.92c0.12,6.64-5.48,12.28-12.16,12.26
			c-6.64-0.02-12.05-5.43-12.07-12.07C105.44,94.74,110.78,89.36,117.46,89.3z"/>
	</g>
</g>
</svg>
