<?xml version="1.0" encoding="utf-8"?>
<!-- Generator: Adobe Illustrator 23.0.5, SVG Export Plug-In . SVG Version: 6.00 Build 0)  -->
<svg version="1.1" id="Layer_1" xmlns="http://www.w3.org/2000/svg" xmlns:xlink="http://www.w3.org/1999/xlink" x="0px" y="0px"
	 viewBox="0 0 80 80" style="enable-background:new 0 0 80 80;" xml:space="preserve">
<style type="text/css">
	.st0{fill:#4D59A1;}
	.st1{fill:#FFFFFF;}
	.st2{fill:#9D8158;}
	.st3{fill:#535353;}
	.st4{fill:#806947;}
	.st5{fill:#565455;}
</style>
<rect x="-170.98" y="14.58" class="st0" width="151.15" height="110.3"/>
<rect x="-1765.77" y="-35.17" class="st1" width="1200" height="1200"/>
<g>
	<g>
		<rect x="-1765.77" y="-35.17" class="st2" width="608.67" height="121.33"/>
	</g>
	<g>
		<g>
			<path class="st3" d="M-1113.54,31.31c3.19,1.96,7.84,3.6,12.75,3.6c7.27,0,11.52-3.84,11.52-9.4c0-5.15-2.94-8.09-10.38-10.95
				c-8.99-3.19-14.54-7.84-14.54-15.61c0-8.58,7.11-14.95,17.81-14.95c5.64,0,9.72,1.31,12.17,2.7l-1.96,5.8
				c-1.8-0.98-5.47-2.61-10.46-2.61c-7.52,0-10.38,4.49-10.38,8.25c0,5.15,3.35,7.68,10.95,10.62c9.32,3.6,14.05,8.09,14.05,16.18
				c0,8.5-6.29,15.85-19.28,15.85c-5.31,0-11.11-1.55-14.05-3.51L-1113.54,31.31z"/>
		</g>
		<g>
			<path class="st3" d="M-1065.17-15.1v55.07h-7.11V-15.1H-1065.17z"/>
		</g>
		<g>
			<path class="st3" d="M-1006.34,15.79c-0.41-7.68-0.9-16.91-0.82-23.78h-0.25c-1.88,6.46-4.17,13.32-6.95,20.92l-9.72,26.72h-5.39
				l-8.91-26.23c-2.61-7.76-4.82-14.87-6.37-21.41h-0.16c-0.16,6.86-0.57,16.1-1.06,24.35l-1.47,23.61h-6.78l3.84-55.07h9.07
				l9.4,26.64c2.29,6.78,4.17,12.83,5.56,18.55h0.25c1.39-5.56,3.35-11.6,5.8-18.55l9.8-26.64h9.07l3.43,55.07h-6.95L-1006.34,15.79
				z"/>
		</g>
		<g>
			<path class="st3" d="M-987.06-14.45c3.43-0.57,7.93-1.06,13.65-1.06c7.03,0,12.17,1.63,15.44,4.58
				c3.02,2.61,4.82,6.62,4.82,11.52c0,4.98-1.47,8.91-4.25,11.77c-3.76,4-9.89,6.05-16.83,6.05c-2.13,0-4.09-0.08-5.72-0.49v22.06
				h-7.11V-14.45z M-979.95,12.11c1.55,0.41,3.51,0.57,5.88,0.57c8.58,0,13.81-4.17,13.81-11.77c0-7.27-5.15-10.79-12.99-10.79
				c-3.11,0-5.47,0.25-6.7,0.57V12.11z"/>
		</g>
		<g>
			<path class="st3" d="M-943.59-15.1h7.11v49.11h23.53v5.96h-30.64V-15.1z"/>
		</g>
		<g>
			<path class="st3" d="M-876.51,14.15h-21.41v19.86h23.86v5.96h-30.97V-15.1h29.74v5.96h-22.63v17.4h21.41V14.15z"/>
		</g>
		<g>
			<path class="st3" d="M-840.4-15.1v55.07h-7.11V-15.1H-840.4z"/>
		</g>
		<g>
			<path class="st3" d="M-789.5,38.18c-2.62,1.31-7.84,2.61-14.54,2.61c-15.53,0-27.21-9.81-27.21-27.86
				c0-17.24,11.68-28.93,28.76-28.93c6.86,0,11.19,1.47,13.07,2.45l-1.72,5.8c-2.7-1.31-6.54-2.29-11.11-2.29
				c-12.91,0-21.49,8.25-21.49,22.72c0,13.48,7.76,22.14,21.16,22.14c4.33,0,8.74-0.9,11.6-2.29L-789.5,38.18z"/>
		</g>
		<g>
			<path class="st3" d="M-735.24,11.87c0,18.96-11.52,29.01-25.58,29.01c-14.54,0-24.76-11.28-24.76-27.95
				C-785.58-4.56-774.71-16-760-16C-744.97-16-735.24-4.48-735.24,11.87z M-777.98,12.76c0,11.77,6.37,22.31,17.57,22.31
				c11.28,0,17.65-10.38,17.65-22.88c0-10.95-5.72-22.39-17.57-22.39C-772.1-10.2-777.98,0.67-777.98,12.76z"/>
		</g>
		<g>
			<path class="st3" d="M-726.01,39.97V-15.1h7.76l17.65,27.86c4.09,6.46,7.27,12.26,9.89,17.89l0.16-0.08
				c-0.65-7.35-0.82-14.05-0.82-22.63V-15.1h6.7v55.07h-7.19l-17.49-27.95c-3.84-6.13-7.52-12.42-10.3-18.38l-0.25,0.08
				c0.41,6.95,0.57,13.56,0.57,22.72v23.53H-726.01z"/>
		</g>
		<g>
			<path class="st3" d="M-673.23,31.31c3.19,1.96,7.84,3.6,12.75,3.6c7.27,0,11.52-3.84,11.52-9.4c0-5.15-2.94-8.09-10.38-10.95
				c-8.99-3.19-14.54-7.84-14.54-15.61c0-8.58,7.11-14.95,17.81-14.95c5.64,0,9.72,1.31,12.17,2.7l-1.96,5.8
				c-1.8-0.98-5.47-2.61-10.46-2.61c-7.52,0-10.38,4.49-10.38,8.25c0,5.15,3.35,7.68,10.95,10.62c9.31,3.6,14.05,8.09,14.05,16.18
				c0,8.5-6.29,15.85-19.28,15.85c-5.31,0-11.11-1.55-14.05-3.51L-673.23,31.31z"/>
		</g>
	</g>
	<g>
		<path class="st1" d="M-1515.12-12.65v12.47h-15.62v50.59h-14.97V-0.17h-15.71v-12.47H-1515.12z"/>
		<path class="st1" d="M-1495.67-13.94v13.77h-13.77v-13.77H-1495.67z M-1495.67,3.76v46.66h-13.77V3.76H-1495.67z"/>
		<path class="st1" d="M-1417.68,50.42h-13.77V24.59c0-3.63-0.11-6-0.32-7.09c-0.22-1.09-0.78-2-1.69-2.73
			c-0.91-0.72-2.16-1.09-3.77-1.09c-1.51,0-3.05,0.54-4.62,1.62c-1.57,1.08-2.36,4.17-2.36,9.29v25.83h-13.77V24.59
			c0-3.73-0.17-6.14-0.51-7.23c-0.34-1.09-0.98-1.98-1.92-2.66c-0.94-0.68-2.13-1.02-3.58-1.02c-2.37,0-4.14,0.75-5.29,2.24
			c-1.16,1.49-1.73,4.38-1.73,8.66v25.83h-13.35V3.76h12.94v7.12c2.19-5.39,6.57-8.09,13.14-8.09c5.95,0,10.26,2.7,12.91,8.09
			c2.59-5.39,7.1-8.09,13.54-8.09c3.08,0,5.73,0.63,7.95,1.89c2.22,1.26,3.8,2.91,4.76,4.94c0.96,2.03,1.43,5.53,1.43,10.49V50.42z"
			/>
		<path class="st1" d="M-1364.45,29.4h-30.03c-0.03,0.83-0.05,1.56-0.05,2.17c0,3.33,0.88,5.84,2.66,7.53
			c1.77,1.69,3.89,2.54,6.35,2.54c4.59,0,7.35-2.45,8.27-7.35l12.47,0.92c-3.48,10.78-10.55,16.17-21.21,16.17
			c-4.65,0-8.6-0.93-11.85-2.8c-3.25-1.86-5.93-4.58-8.04-8.15c-2.11-3.57-3.16-7.85-3.16-12.84c0-7.42,2.12-13.41,6.35-17.97
			c4.23-4.56,9.68-6.84,16.33-6.84c6.01,0,11.16,2.12,15.45,6.35C-1366.6,13.37-1364.45,20.13-1364.45,29.4z M-1394.53,21.4h16.59
			c-0.43-6.41-3.07-9.61-7.9-9.61C-1391.02,11.79-1393.92,15-1394.53,21.4z"/>
	</g>
	<g>
		<g>
			<path class="st4" d="M-1106.19,79.81h-11.32v-2.23l5.47-6.39c1.4-1.63,2.4-2.98,2.99-4.06c0.6-1.08,0.9-2.24,0.9-3.47
				c0-1.26-0.31-2.24-0.93-2.93c-0.62-0.69-1.5-1.04-2.65-1.04c-1.68,0-3.28,0.83-4.82,2.5v-2.62c1.47-1.33,3.17-2,5.12-2
				c1.68,0,3,0.53,3.96,1.59c0.96,1.06,1.44,2.48,1.44,4.25c0,1.4-0.33,2.77-1,4.11c-0.66,1.34-1.86,3-3.58,4.98l-4.34,4.98v0.06
				h8.74V79.81z"/>
		</g>
		<g>
			<path class="st4" d="M-1102.16,79.27v-2.65c1.28,0.97,2.59,1.45,3.92,1.45c1.33,0,2.4-0.44,3.21-1.31
				c0.81-0.87,1.22-2.03,1.22-3.48c0-1.43-0.42-2.55-1.24-3.35c-0.83-0.8-2.02-1.2-3.56-1.2c-0.52,0-1.51,0.06-2.95,0.18V57.94h9.09
				v2.26h-7.06v6.4c0.58-0.04,1.11-0.06,1.6-0.06c2.01,0,3.56,0.59,4.66,1.76c1.1,1.17,1.65,2.78,1.65,4.83
				c0,2.11-0.59,3.82-1.77,5.11c-1.18,1.29-2.81,1.94-4.87,1.94C-1100.01,80.17-1101.3,79.87-1102.16,79.27z"/>
		</g>
		<g>
			<path class="st4" d="M-1069.47,79.81h-2.15v-2.47h-0.05c-0.89,1.89-2.27,2.84-4.14,2.84c-3.2,0-4.79-2.22-4.79-6.65v-9.33h2.13
				v8.93c0,3.29,1.08,4.94,3.25,4.94c1.05,0,1.91-0.45,2.59-1.35c0.68-0.9,1.01-2.08,1.01-3.53v-8.99h2.15V79.81z"/>
		</g>
		<g>
			<path class="st4" d="M-1054.01,79.81h-2.15v-8.9c0-3.31-1.04-4.97-3.12-4.97c-1.07,0-1.96,0.47-2.67,1.41
				c-0.7,0.94-1.05,2.13-1.05,3.56v8.9h-2.15V64.19h2.15v2.59h0.05c1.01-1.97,2.48-2.96,4.4-2.96c1.47,0,2.59,0.55,3.37,1.65
				c0.78,1.1,1.17,2.7,1.17,4.78V79.81z"/>
		</g>
		<g>
			<path class="st4" d="M-1048.86,60.23c-0.38,0-0.71-0.15-0.98-0.46c-0.27-0.3-0.41-0.69-0.41-1.16c0-0.47,0.13-0.86,0.41-1.17
				c0.27-0.31,0.6-0.46,0.98-0.46c0.39,0,0.73,0.15,1,0.46c0.28,0.31,0.41,0.7,0.41,1.17c0,0.45-0.14,0.83-0.41,1.14
				C-1048.13,60.07-1048.46,60.23-1048.86,60.23z M-1047.81,79.81h-2.15V64.19h2.15V79.81z"/>
		</g>
		<g>
			<path class="st4" d="M-1037.24,79.65c-0.51,0.33-1.17,0.49-2,0.49c-2.35,0-3.52-1.52-3.52-4.57v-9.24h-2.31v-2.13h2.31v-3.81
				l2.15-0.81v4.62h3.38v2.13h-3.38v8.8c0,1.05,0.15,1.79,0.46,2.24c0.31,0.45,0.81,0.67,1.52,0.67c0.54,0,1.01-0.17,1.4-0.52V79.65
				z"/>
		</g>
		<g>
			<path class="st4" d="M-1035.18,79.24v-2.68c1.17,1.01,2.46,1.51,3.86,1.51c1.89,0,2.83-0.73,2.83-2.2c0-0.42-0.08-0.77-0.24-1.06
				c-0.16-0.29-0.38-0.55-0.66-0.77c-0.27-0.22-0.6-0.42-0.97-0.6c-0.37-0.18-0.77-0.36-1.2-0.56c-0.59-0.27-1.12-0.55-1.57-0.83
				c-0.45-0.28-0.83-0.59-1.13-0.95c-0.3-0.35-0.53-0.75-0.68-1.2c-0.15-0.45-0.23-0.97-0.23-1.57c0-0.73,0.14-1.38,0.43-1.94
				c0.29-0.56,0.67-1.04,1.15-1.42c0.48-0.38,1.03-0.67,1.64-0.86c0.62-0.19,1.25-0.29,1.91-0.29c1.16,0,2.2,0.23,3.12,0.7v2.53
				c-0.99-0.75-2.12-1.13-3.41-1.13c-0.4,0-0.76,0.05-1.09,0.16c-0.32,0.11-0.6,0.26-0.83,0.45c-0.23,0.19-0.41,0.42-0.54,0.69
				c-0.13,0.27-0.19,0.57-0.19,0.89c0,0.41,0.06,0.75,0.19,1.02c0.13,0.27,0.31,0.52,0.56,0.73c0.24,0.21,0.54,0.41,0.89,0.58
				c0.35,0.17,0.75,0.36,1.19,0.56c0.59,0.26,1.13,0.54,1.6,0.82c0.47,0.28,0.87,0.59,1.21,0.95c0.33,0.35,0.59,0.75,0.77,1.21
				c0.18,0.46,0.27,1,0.27,1.63c0,0.77-0.15,1.44-0.44,2.01c-0.29,0.57-0.68,1.04-1.17,1.42c-0.49,0.38-1.05,0.66-1.69,0.84
				c-0.64,0.18-1.31,0.27-2,0.27C-1032.97,80.17-1034.17,79.86-1035.18,79.24z"/>
		</g>
		<g>
			<path class="st4" d="M-1009.01,58.89c-0.42-0.27-0.9-0.41-1.43-0.41c-1.5,0-2.25,1.1-2.25,3.31v2.41h3.14v2.13h-3.14v13.48h-2.14
				V66.33h-2.29v-2.13h2.29v-2.53c0-1.64,0.41-2.93,1.22-3.88c0.81-0.95,1.83-1.43,3.04-1.43c0.65,0,1.17,0.09,1.56,0.27V58.89z"/>
		</g>
		<g>
			<path class="st4" d="M-1001.64,80.17c-1.98,0-3.57-0.73-4.75-2.19c-1.18-1.46-1.77-3.39-1.77-5.8c0-2.62,0.62-4.67,1.85-6.14
				s2.89-2.21,4.99-2.21c2,0,3.56,0.72,4.68,2.15c1.12,1.43,1.68,3.42,1.68,5.96c0,2.49-0.6,4.48-1.81,5.98
				C-997.98,79.42-999.6,80.17-1001.64,80.17z M-1001.48,65.93c-1.38,0-2.47,0.55-3.28,1.64c-0.8,1.09-1.21,2.6-1.21,4.52
				c0,1.85,0.41,3.31,1.22,4.38c0.81,1.07,1.9,1.6,3.26,1.6c1.39,0,2.46-0.52,3.2-1.57c0.75-1.05,1.12-2.54,1.12-4.47
				c0-1.95-0.37-3.46-1.12-4.51C-999.02,66.46-1000.09,65.93-1001.48,65.93z"/>
		</g>
		<g>
			<path class="st4" d="M-984.53,66.73c-0.38-0.34-0.92-0.5-1.62-0.5c-0.92,0-1.68,0.5-2.3,1.51c-0.62,1.01-0.92,2.38-0.92,4.12
				v7.96h-2.15V64.19h2.15v3.22h0.05c0.31-1.1,0.77-1.95,1.4-2.57c0.63-0.61,1.33-0.92,2.11-0.92c0.56,0,0.99,0.07,1.28,0.21V66.73z
				"/>
		</g>
		<g>
			<path class="st4" d="M-956.08,64.19l-3.56,11.4c-0.19,0.63-0.33,1.34-0.42,2.12h-0.05c-0.06-0.62-0.22-1.35-0.47-2.18
				l-3.41-11.34h-0.32h-2.04h-0.22l-3.56,11.4c-0.19,0.63-0.33,1.34-0.42,2.12h-0.05c-0.06-0.62-0.22-1.35-0.47-2.18l-3.41-11.34
				h-2.36l5.08,15.61h2.11l4.3-12.55l4.09,12.55h2.11l5.34-15.61H-956.08z"/>
		</g>
		<g>
			<path class="st4" d="M-940.37,72.63h-9.47c0.04,1.74,0.44,3.08,1.21,4.02c0.77,0.95,1.83,1.42,3.17,1.42
				c1.51,0,2.9-0.58,4.17-1.74v2.35c-1.18,1-2.74,1.49-4.68,1.49c-1.9,0-3.38-0.71-4.47-2.13c-1.08-1.42-1.62-3.41-1.62-5.98
				c0-2.43,0.59-4.41,1.77-5.94c1.18-1.53,2.65-2.29,4.41-2.29c1.75,0,3.11,0.66,4.07,1.98c0.96,1.32,1.44,3.16,1.44,5.5V72.63z
				 M-942.58,70.51c-0.01-1.44-0.31-2.57-0.9-3.37c-0.59-0.8-1.41-1.2-2.46-1.2c-1.01,0-1.87,0.42-2.58,1.27
				c-0.71,0.84-1.14,1.95-1.31,3.31H-942.58z"/>
		</g>
		<g>
			<path class="st4" d="M-934.93,77.55h-0.05v2.26h-2.15V56.69h2.15v10.24h0.05c1.06-2.07,2.6-3.11,4.64-3.11
				c1.72,0,3.07,0.7,4.04,2.1c0.97,1.4,1.46,3.27,1.46,5.62c0,2.61-0.55,4.7-1.64,6.27c-1.09,1.57-2.58,2.35-4.48,2.35
				C-932.68,80.17-934.02,79.3-934.93,77.55z M-934.98,71.25v2.18c0,1.29,0.36,2.39,1.08,3.29c0.72,0.9,1.63,1.35,2.74,1.35
				c1.3,0,2.32-0.58,3.06-1.74c0.74-1.16,1.11-2.77,1.11-4.83c0-1.74-0.35-3.1-1.04-4.09c-0.69-0.99-1.62-1.48-2.8-1.48
				c-1.25,0-2.25,0.51-3.01,1.52C-934.6,68.46-934.98,69.73-934.98,71.25z"/>
		</g>
		<g>
			<path class="st4" d="M-904.4,79.81h-2.15v-2.44h-0.05c-0.93,1.87-2.31,2.8-4.13,2.8c-1.34,0-2.38-0.41-3.14-1.23
				c-0.75-0.82-1.13-1.92-1.13-3.28c0-2.92,1.48-4.61,4.43-5.09l4.02-0.66c0-2.65-0.92-3.98-2.76-3.98c-1.62,0-3.07,0.64-4.38,1.92
				v-2.56c1.32-0.98,2.84-1.46,4.56-1.46c3.15,0,4.73,1.94,4.73,5.82V79.81z M-906.55,71.91l-3.24,0.52c-1,0.16-1.75,0.45-2.25,0.86
				c-0.51,0.41-0.76,1.14-0.76,2.19c0,0.76,0.23,1.38,0.7,1.87c0.47,0.48,1.09,0.72,1.87,0.72c1.07,0,1.95-0.43,2.64-1.3
				c0.69-0.87,1.04-1.97,1.04-3.3V71.91z"/>
		</g>
		<g>
			<path class="st4" d="M-889.22,79.81h-2.15v-8.9c0-3.31-1.04-4.97-3.12-4.97c-1.07,0-1.96,0.47-2.67,1.41
				c-0.7,0.94-1.05,2.13-1.05,3.56v8.9h-2.15V64.19h2.15v2.59h0.05c1.01-1.97,2.48-2.96,4.4-2.96c1.47,0,2.59,0.55,3.37,1.65
				c0.78,1.1,1.17,2.7,1.17,4.78V79.81z"/>
		</g>
		<g>
			<path class="st4" d="M-873.73,79.81h-2.15v-2.65h-0.05c-1,2.01-2.53,3.02-4.61,3.02c-1.69,0-3.03-0.7-4.04-2.1
				c-1.01-1.4-1.51-3.3-1.51-5.71c0-2.58,0.56-4.65,1.68-6.2c1.12-1.56,2.61-2.33,4.47-2.33c1.84,0,3.18,0.84,4.02,2.53h0.05v-9.67
				h2.15V79.81z M-875.88,72.75v-2.3c0-1.26-0.36-2.33-1.07-3.2s-1.62-1.31-2.72-1.31c-1.31,0-2.34,0.56-3.09,1.68
				c-0.75,1.12-1.13,2.66-1.13,4.63c0,1.8,0.36,3.22,1.08,4.26c0.72,1.04,1.69,1.56,2.9,1.56c1.2,0,2.17-0.5,2.91-1.51
				C-876.25,75.55-875.88,74.28-875.88,72.75z"/>
		</g>
		<g>
			<path class="st4" d="M-842.98,79.81h-2.15v-8.96c0-1.73-0.23-2.98-0.69-3.75c-0.46-0.77-1.23-1.16-2.31-1.16
				c-0.92,0-1.7,0.49-2.34,1.46c-0.64,0.98-0.96,2.14-0.96,3.51v8.9h-2.15v-9.27c0-3.07-1.02-4.6-3.05-4.6
				c-0.94,0-1.72,0.46-2.33,1.38c-0.61,0.92-0.92,2.12-0.92,3.59v8.9h-2.15V64.19h2.15v2.47h0.05c0.95-1.89,2.34-2.84,4.17-2.84
				c0.92,0,1.72,0.3,2.4,0.89c0.68,0.59,1.15,1.38,1.4,2.34c1-2.15,2.48-3.23,4.45-3.23c2.95,0,4.43,2.12,4.43,6.36V79.81z"/>
		</g>
		<g>
			<path class="st4" d="M-833.32,80.17c-1.98,0-3.57-0.73-4.75-2.19c-1.18-1.46-1.77-3.39-1.77-5.8c0-2.62,0.62-4.67,1.85-6.14
				c1.23-1.47,2.89-2.21,4.99-2.21c2,0,3.56,0.72,4.68,2.15c1.12,1.43,1.68,3.42,1.68,5.96c0,2.49-0.6,4.48-1.81,5.98
				C-829.66,79.42-831.28,80.17-833.32,80.17z M-833.16,65.93c-1.38,0-2.47,0.55-3.28,1.64c-0.8,1.09-1.21,2.6-1.21,4.52
				c0,1.85,0.41,3.31,1.22,4.38c0.81,1.07,1.9,1.6,3.26,1.6c1.39,0,2.46-0.52,3.2-1.57c0.75-1.05,1.12-2.54,1.12-4.47
				c0-1.95-0.37-3.46-1.12-4.51C-830.7,66.46-831.77,65.93-833.16,65.93z"/>
		</g>
		<g>
			<path class="st4" d="M-821,77.55h-0.05v2.26h-2.15V56.69h2.15v10.24h0.05c1.06-2.07,2.6-3.11,4.64-3.11c1.72,0,3.07,0.7,4.04,2.1
				c0.97,1.4,1.46,3.27,1.46,5.62c0,2.61-0.55,4.7-1.64,6.27c-1.09,1.57-2.59,2.35-4.48,2.35C-818.75,80.17-820.1,79.3-821,77.55z
				 M-821.06,71.25v2.18c0,1.29,0.36,2.39,1.08,3.29s1.63,1.35,2.74,1.35c1.3,0,2.32-0.58,3.06-1.74c0.74-1.16,1.11-2.77,1.11-4.83
				c0-1.74-0.35-3.1-1.04-4.09c-0.69-0.99-1.62-1.48-2.8-1.48c-1.25,0-2.25,0.51-3.01,1.52C-820.68,68.46-821.06,69.73-821.06,71.25
				z"/>
		</g>
		<g>
			<path class="st4" d="M-806.33,60.23c-0.38,0-0.71-0.15-0.98-0.46c-0.27-0.3-0.41-0.69-0.41-1.16c0-0.47,0.13-0.86,0.41-1.17
				c0.27-0.31,0.6-0.46,0.98-0.46c0.39,0,0.73,0.15,1,0.46c0.28,0.31,0.41,0.7,0.41,1.17c0,0.45-0.14,0.83-0.41,1.14
				C-805.6,60.07-805.94,60.23-806.33,60.23z M-805.28,79.81h-2.15V64.19h2.15V79.81z"/>
		</g>
		<g>
			<path class="st4" d="M-798.79,79.81h-2.15V56.69h2.15V79.81z"/>
		</g>
		<g>
			<path class="st4" d="M-783.66,72.63h-9.47c0.04,1.74,0.44,3.08,1.21,4.02c0.77,0.95,1.83,1.42,3.17,1.42
				c1.51,0,2.9-0.58,4.17-1.74v2.35c-1.18,1-2.74,1.49-4.68,1.49c-1.9,0-3.38-0.71-4.47-2.13c-1.08-1.42-1.62-3.41-1.62-5.98
				c0-2.43,0.59-4.41,1.77-5.94c1.18-1.53,2.65-2.29,4.41-2.29c1.75,0,3.11,0.66,4.07,1.98c0.96,1.32,1.44,3.16,1.44,5.5V72.63z
				 M-785.86,70.51c-0.01-1.44-0.31-2.57-0.9-3.37c-0.59-0.8-1.41-1.2-2.46-1.2c-1.01,0-1.87,0.42-2.58,1.27
				c-0.71,0.84-1.14,1.95-1.31,3.31H-785.86z"/>
		</g>
		<g>
			<path class="st4" d="M-761.61,79.81h-2.15v-2.65h-0.05c-1,2.01-2.53,3.02-4.61,3.02c-1.69,0-3.03-0.7-4.04-2.1
				c-1.01-1.4-1.51-3.3-1.51-5.71c0-2.58,0.56-4.65,1.68-6.2c1.12-1.56,2.61-2.33,4.47-2.33c1.84,0,3.18,0.84,4.02,2.53h0.05v-9.67
				h2.15V79.81z M-763.76,72.75v-2.3c0-1.26-0.36-2.33-1.07-3.2c-0.72-0.87-1.62-1.31-2.72-1.31c-1.31,0-2.34,0.56-3.09,1.68
				c-0.75,1.12-1.13,2.66-1.13,4.63c0,1.8,0.36,3.22,1.08,4.26c0.72,1.04,1.69,1.56,2.9,1.56c1.2,0,2.17-0.5,2.91-1.51
				C-764.13,75.55-763.76,74.28-763.76,72.75z"/>
		</g>
		<g>
			<path class="st4" d="M-746.48,72.63h-9.47c0.04,1.74,0.44,3.08,1.21,4.02c0.77,0.95,1.83,1.42,3.17,1.42
				c1.51,0,2.9-0.58,4.17-1.74v2.35c-1.18,1-2.74,1.49-4.68,1.49c-1.9,0-3.38-0.71-4.47-2.13c-1.08-1.42-1.62-3.41-1.62-5.98
				c0-2.43,0.59-4.41,1.77-5.94c1.18-1.53,2.65-2.29,4.41-2.29c1.75,0,3.11,0.66,4.07,1.98c0.96,1.32,1.44,3.16,1.44,5.5V72.63z
				 M-748.68,70.51c-0.01-1.44-0.31-2.57-0.9-3.37c-0.59-0.8-1.41-1.2-2.46-1.2c-1.01,0-1.87,0.42-2.58,1.27
				c-0.71,0.84-1.14,1.95-1.31,3.31H-748.68z"/>
		</g>
		<g>
			<path class="st4" d="M-744.05,79.24v-2.68c1.17,1.01,2.46,1.51,3.86,1.51c1.89,0,2.83-0.73,2.83-2.2c0-0.42-0.08-0.77-0.24-1.06
				c-0.16-0.29-0.38-0.55-0.66-0.77c-0.27-0.22-0.6-0.42-0.97-0.6c-0.37-0.18-0.77-0.36-1.2-0.56c-0.59-0.27-1.12-0.55-1.57-0.83
				c-0.45-0.28-0.83-0.59-1.13-0.95c-0.3-0.35-0.53-0.75-0.68-1.2c-0.15-0.45-0.23-0.97-0.23-1.57c0-0.73,0.14-1.38,0.43-1.94
				c0.29-0.56,0.67-1.04,1.15-1.42c0.48-0.38,1.03-0.67,1.64-0.86c0.62-0.19,1.25-0.29,1.91-0.29c1.16,0,2.2,0.23,3.12,0.7v2.53
				c-0.99-0.75-2.12-1.13-3.41-1.13c-0.4,0-0.76,0.05-1.09,0.16c-0.32,0.11-0.6,0.26-0.83,0.45c-0.23,0.19-0.41,0.42-0.54,0.69
				c-0.13,0.27-0.19,0.57-0.19,0.89c0,0.41,0.06,0.75,0.19,1.02c0.13,0.27,0.31,0.52,0.56,0.73c0.24,0.21,0.54,0.41,0.89,0.58
				c0.35,0.17,0.75,0.36,1.19,0.56c0.59,0.26,1.13,0.54,1.6,0.82c0.47,0.28,0.87,0.59,1.21,0.95c0.33,0.35,0.59,0.75,0.77,1.21
				c0.18,0.46,0.27,1,0.27,1.63c0,0.77-0.15,1.44-0.44,2.01c-0.29,0.57-0.68,1.04-1.17,1.42c-0.49,0.38-1.05,0.66-1.69,0.84
				c-0.64,0.18-1.31,0.27-2,0.27C-741.84,80.17-743.03,79.86-744.05,79.24z"/>
		</g>
		<g>
			<path class="st4" d="M-730.75,60.23c-0.38,0-0.71-0.15-0.98-0.46c-0.27-0.3-0.41-0.69-0.41-1.16c0-0.47,0.13-0.86,0.41-1.17
				c0.27-0.31,0.6-0.46,0.98-0.46c0.39,0,0.73,0.15,1,0.46c0.28,0.31,0.41,0.7,0.41,1.17c0,0.45-0.14,0.83-0.41,1.14
				C-730.02,60.07-730.36,60.23-730.75,60.23z M-729.7,79.81h-2.15V64.19h2.15V79.81z"/>
		</g>
		<g>
			<path class="st4" d="M-713.91,78.56c0,5.73-2.36,8.6-7.07,8.6c-1.66,0-3.11-0.37-4.35-1.1v-2.5c1.51,0.98,2.95,1.46,4.32,1.46
				c3.3,0,4.95-2.04,4.95-6.13v-1.71h-0.05c-1.02,1.99-2.56,2.99-4.61,2.99c-1.67,0-3.01-0.69-4.03-2.08
				c-1.02-1.39-1.53-3.25-1.53-5.59c0-2.65,0.55-4.76,1.64-6.33c1.1-1.56,2.6-2.35,4.5-2.35c1.81,0,3.15,0.84,4.02,2.53h0.05v-2.17
				h2.15V78.56z M-716.05,72.75v-2.3c0-1.24-0.36-2.3-1.08-3.19c-0.72-0.88-1.62-1.33-2.69-1.33c-1.33,0-2.37,0.56-3.12,1.68
				c-0.75,1.12-1.13,2.7-1.13,4.72c0,1.74,0.36,3.13,1.08,4.17c0.72,1.04,1.67,1.56,2.86,1.56c1.21,0,2.18-0.5,2.94-1.49
				C-716.43,75.58-716.05,74.3-716.05,72.75z"/>
		</g>
		<g>
			<path class="st4" d="M-698.42,79.81h-2.15v-8.9c0-3.31-1.04-4.97-3.12-4.97c-1.07,0-1.96,0.47-2.67,1.41
				c-0.7,0.94-1.05,2.13-1.05,3.56v8.9h-2.15V64.19h2.15v2.59h0.05c1.01-1.97,2.48-2.96,4.4-2.96c1.47,0,2.59,0.55,3.37,1.65
				c0.78,1.1,1.17,2.7,1.17,4.78V79.81z"/>
		</g>
	</g>
</g>
<g>
	
		<ellipse transform="matrix(0.9872 -0.1596 0.1596 0.9872 -58.1135 -255.9386)" class="st5" cx="-1622.04" cy="233.73" rx="11" ry="11"/>
	<path class="st5" d="M-1622.54,218.57c1.65,0,3-1.35,3-3v-23.5c0-1.65-1.35-3-3-3s-3,1.35-3,3v23.5
		C-1625.54,217.22-1624.19,218.57-1622.54,218.57z"/>
	<path class="st5" d="M-1588.55,230.73h-14.25c-1.65,0-3,1.35-3,3c0,1.65,1.35,3,3,3h14.25c1.65,0,3-1.35,3-3
		C-1585.55,232.08-1586.9,230.73-1588.55,230.73z"/>
	<path class="st5" d="M-1556.05,233.73c0-36.45-29.55-65.99-65.99-65.99c-36.45,0-65.99,29.55-65.99,65.99
		c0,19.36,8.34,36.77,21.62,48.84l-6.14,9.06c-2.33,3.44,0.13,8.09,4.29,8.09h3.39c0.56,0,1.11-0.09,1.64-0.27l15.19-5.06
		c7.98,3.43,16.77,5.33,26.01,5.33c9.19,0,17.95-1.88,25.9-5.28l15.05,5.02c0.53,0.18,1.08,0.27,1.64,0.27h3.39
		c4.16,0,6.62-4.65,4.29-8.09l-6.04-8.92C-1564.45,270.64-1556.05,253.17-1556.05,233.73z M-1677.53,233.73
		c0-30.65,24.84-55.49,55.49-55.49c30.65,0,55.49,24.84,55.49,55.49c0,30.65-24.84,55.49-55.49,55.49
		C-1652.69,289.23-1677.53,264.38-1677.53,233.73z"/>
	<path class="st5" d="M-1649.96,168.47c-5.35-4.02-11.99-6.4-19.2-6.4c-4.06,0-7.94,0.76-11.51,2.14c1.4,3.55-0.34,8.32-4.76,12.41
		c-3.09,2.86-6.56,4.49-9.54,4.49c-1.13,0-2.19-0.24-3.13-0.69c-1.95,4.14-3.05,8.76-3.05,13.64c0,9.17,3.87,17.44,10.05,23.28
		C-1685.88,195.33-1670.38,177.24-1649.96,168.47z"/>
	<path class="st5" d="M-1688.83,172.96c2.99-2.77,4.43-6.08,3.21-7.39s-4.63-0.14-7.62,2.62c-2.99,2.77-4.43,6.08-3.21,7.39
		C-1695.23,176.9-1691.82,175.73-1688.83,172.96z"/>
	<path class="st5" d="M-1545.98,180.44c-0.94,0.45-2,0.69-3.13,0.69c-2.98,0-6.46-1.64-9.54-4.49c-4.42-4.09-6.16-8.87-4.76-12.41
		c-3.57-1.38-7.45-2.14-11.51-2.14c-7.2,0-13.85,2.38-19.2,6.4c20.42,8.77,35.91,26.85,41.14,48.87
		c6.19-5.83,10.05-14.1,10.05-23.28C-1542.93,189.19-1544.02,184.57-1545.98,180.44z"/>
	<path class="st5" d="M-1555.26,172.96c2.99,2.77,6.4,3.94,7.62,2.62c1.22-1.32-0.22-4.63-3.21-7.39c-2.99-2.77-6.4-3.94-7.62-2.62
		C-1559.68,166.89-1558.25,170.2-1555.26,172.96z"/>
</g>
<g>
	<g>
		
			<ellipse transform="matrix(0.9871 -0.1602 0.1602 0.9871 -78.5878 -107.8343)" class="st5" cx="-708.14" cy="433.53" rx="11" ry="11"/>
	</g>
	<g>
		<path class="st5" d="M-708.64,418.36c1.65,0,3-1.35,3-3v-23.5c0-1.65-1.35-3-3-3c-1.65,0-3,1.35-3,3v23.5
			C-711.64,417.01-710.29,418.36-708.64,418.36z"/>
	</g>
	<g>
		<path class="st5" d="M-674.65,430.53h-14.25c-1.65,0-3,1.35-3,3c0,1.65,1.35,3,3,3h14.25c1.65,0,3-1.35,3-3
			C-671.65,431.88-673,430.53-674.65,430.53z"/>
	</g>
	<g>
		<path class="st5" d="M-642.15,433.53c0-36.45-29.55-65.99-65.99-65.99c-36.45,0-65.99,29.55-65.99,65.99
			c0,19.36,8.34,36.77,21.62,48.84l-6.14,9.06c-2.33,3.44,0.13,8.09,4.29,8.09h3.39c0.56,0,1.11-0.09,1.64-0.27l15.19-5.06
			c7.98,3.43,16.77,5.33,26.01,5.33c9.19,0,17.95-1.88,25.9-5.28l15.05,5.02c0.53,0.18,1.08,0.27,1.64,0.27h3.39
			c4.16,0,6.62-4.65,4.29-8.09l-6.04-8.92C-650.56,470.43-642.15,452.96-642.15,433.53z M-763.64,433.53
			c0-30.65,24.84-55.49,55.49-55.49c30.65,0,55.49,24.85,55.49,55.49c0,30.65-24.84,55.49-55.49,55.49
			C-738.79,489.02-763.64,464.18-763.64,433.53z"/>
	</g>
	<g>
		<path class="st5" d="M-640.51,401.12c-0.95,0-1.86-0.55-2.26-1.47c-8.38-18.98-24.48-33.54-44.18-39.93
			c-1.3-0.42-2.01-1.82-1.59-3.11c0.42-1.3,1.82-2.01,3.11-1.59c21.04,6.83,38.23,22.36,47.18,42.63c0.55,1.25-0.01,2.71-1.26,3.26
			C-639.83,401.05-640.17,401.12-640.51,401.12z"/>
	</g>
	<g>
		<path class="st5" d="M-636.57,380.47c-0.8,0-1.58-0.39-2.06-1.1c-6.56-9.84-15.52-18.03-25.9-23.68c-1.2-0.65-1.64-2.15-0.99-3.35
			c0.65-1.2,2.15-1.64,3.35-0.99c11.08,6.03,20.64,14.77,27.65,25.28c0.76,1.14,0.45,2.67-0.69,3.43
			C-635.62,380.34-636.1,380.47-636.57,380.47z"/>
	</g>
	<g>
		<path class="st5" d="M-778.47,402.46c-0.33,0-0.67-0.07-1-0.21c-1.25-0.55-1.81-2.01-1.26-3.26
			c8.95-20.27,26.14-35.81,47.18-42.63c1.3-0.42,2.69,0.29,3.11,1.59c0.42,1.3-0.29,2.69-1.59,3.11
			c-19.7,6.39-35.8,20.95-44.18,39.93C-776.62,401.91-777.52,402.46-778.47,402.46z"/>
	</g>
	<g>
		<path class="st5" d="M-782.41,381.82c-0.47,0-0.95-0.13-1.37-0.42c-1.14-0.76-1.44-2.29-0.69-3.43
			c7.01-10.51,16.57-19.25,27.65-25.28c1.2-0.65,2.7-0.21,3.35,0.99c0.65,1.2,0.21,2.7-0.99,3.35
			c-10.38,5.65-19.34,13.83-25.9,23.68C-780.83,381.43-781.61,381.82-782.41,381.82z"/>
	</g>
</g>
<g>
	<path class="st1" d="M14.74,191.01c-21.22,0-38.42,17.2-38.42,38.42c0,21.22,17.2,38.42,38.42,38.42s38.42-17.2,38.42-38.42
		C53.16,208.21,35.96,191.01,14.74,191.01z M14.74,262.62c-18.33,0-33.19-14.86-33.19-33.19c0-18.33,14.86-33.19,33.19-33.19
		c18.33,0,33.19,14.86,33.19,33.19C47.93,247.76,33.08,262.62,14.74,262.62z"/>
	<circle class="st1" cx="14.74" cy="229.43" r="4.55"/>
	<path class="st1" d="M14.74,223.97L14.74,223.97c-0.88,0-1.59-0.72-1.59-1.59v-15.07c0-0.88,0.72-1.59,1.59-1.59l0,0
		c0.88,0,1.59,0.72,1.59,1.59v15.07C16.34,223.26,15.62,223.97,14.74,223.97z"/>
	<path class="st1" d="M21.3,229.43L21.3,229.43c0-0.88,0.72-1.59,1.59-1.59h9.81c0.88,0,1.59,0.72,1.59,1.59l0,0
		c0,0.88-0.72,1.59-1.59,1.59h-9.81C22.02,231.02,21.3,230.3,21.3,229.43z"/>
	<ellipse class="st1" cx="14.74" cy="200.63" rx="2.05" ry="2.81"/>
	<path class="st1" d="M45.66,229.43c0,1.13-1.37,2.05-3.07,2.05c-1.69,0-3.07-0.92-3.07-2.05c0-1.13,1.37-2.05,3.07-2.05
		C44.29,227.38,45.66,228.3,45.66,229.43z"/>
	<path class="st1" d="M43.62,218.29c0,1.13-0.92,2.05-2.05,2.05c-1.13,0-2.05-0.92-2.05-2.05c0-1.13,0.92-2.05,2.05-2.05
		C42.7,216.24,43.62,217.16,43.62,218.29z"/>
	<path class="st1" d="M36.34,208.97c0,1.13-0.92,2.05-2.05,2.05c-1.13,0-2.05-0.92-2.05-2.05c0-1.13,0.92-2.05,2.05-2.05
		C35.43,206.92,36.34,207.84,36.34,208.97z"/>
	<path class="st1" d="M27.02,202.99c0,1.13-0.92,2.05-2.05,2.05c-1.13,0-2.05-0.92-2.05-2.05c0-1.13,0.92-2.05,2.05-2.05
		C26.1,200.94,27.02,201.86,27.02,202.99z"/>
	<ellipse class="st1" cx="15.85" cy="257.54" rx="2.05" ry="3.07"/>
	<path class="st1" d="M26.99,258.56c-1.13,0-2.05-0.92-2.05-2.05c0-1.13,0.92-2.05,2.05-2.05c1.13,0,2.05,0.92,2.05,2.05
		C29.03,257.64,28.12,258.56,26.99,258.56z"/>
	<circle class="st1" cx="36.31" cy="249.24" r="2.05"/>
	<path class="st1" d="M42.29,241.97c-1.13,0-2.05-0.92-2.05-2.05c0-1.13,0.92-2.05,2.05-2.05c1.13,0,2.05,0.92,2.05,2.05
		C44.33,241.05,43.42,241.97,42.29,241.97z"/>
	<path class="st1" d="M-15.38,229.1c0,1.13,1.37,2.05,3.07,2.05c1.69,0,3.07-0.92,3.07-2.05c0-1.13-1.37-2.05-3.07-2.05
		C-14,227.06-15.38,227.97-15.38,229.1z"/>
	<path class="st1" d="M-13.33,217.96c0,1.13,0.92,2.05,2.05,2.05c1.13,0,2.05-0.92,2.05-2.05c0-1.13-0.92-2.05-2.05-2.05
		C-12.41,215.92-13.33,216.83-13.33,217.96z"/>
	<path class="st1" d="M-6.06,208.64c0,1.13,0.92,2.05,2.05,2.05c1.13,0,2.05-0.92,2.05-2.05c0-1.13-0.92-2.05-2.05-2.05
		C-5.14,206.6-6.06,207.51-6.06,208.64z"/>
	<path class="st1" d="M3.26,202.66c0,1.13,0.92,2.05,2.05,2.05s2.05-0.92,2.05-2.05c0-1.13-0.92-2.05-2.05-2.05
		S3.26,201.53,3.26,202.66z"/>
	<circle class="st1" cx="3.3" cy="256.19" r="2.05"/>
	<path class="st1" d="M-6.02,250.96c1.13,0,2.05-0.92,2.05-2.05s-0.92-2.05-2.05-2.05s-2.05,0.92-2.05,2.05
		S-7.15,250.96-6.02,250.96z"/>
	<path class="st1" d="M-12,241.64c1.13,0,2.05-0.92,2.05-2.05s-0.92-2.05-2.05-2.05c-1.13,0-2.05,0.92-2.05,2.05
		S-13.13,241.64-12,241.64z"/>
</g>
<path class="st5" d="M-896.64,302.04h-1.12c0,0,1.84-28.21-7.36-41.7c-9.2-13.49-22.69-18.4-23.92-23.92
	c-1.23-5.52-1.23-5.52,0-11.04c1.23-5.52,14.72-10.43,23.92-23.92c9.2-13.49,7.36-41.7,7.36-41.7h1.12c2.19,0,3.99-1.79,3.99-3.99
	c0-2.19-1.79-3.99-3.99-3.99h-81.98c-2.19,0-3.99,1.79-3.99,3.99c0,2.19,1.79,3.99,3.99,3.99h1.12c0,0-1.84,28.21,7.36,41.7
	c9.2,13.49,22.69,18.4,23.92,23.92c1.23,5.52,1.23,5.52,0,11.04c-1.23,5.52-14.72,10.43-23.92,23.92c-9.2,13.49-7.36,41.7-7.36,41.7
	h-1.12c-2.19,0-3.99,1.79-3.99,3.99c0,2.19,1.79,3.99,3.99,3.99h81.98c2.19,0,3.99-1.79,3.99-3.99
	C-892.65,303.84-894.45,302.04-896.64,302.04z M-971.53,165.89h67.8c0,0-6.91,23.92-33.9,21.47
	C-964.61,184.9-971.53,165.89-971.53,165.89z M-965.07,263.79c4.44-6.51,10.17-10.9,14.78-14.44c5.03-3.86,9.01-6.9,10.05-11.61
	l0.16-0.72h4.88l0.16,0.72c1.05,4.7,5.02,7.75,10.05,11.61c4.61,3.53,10.35,7.93,14.78,14.44c5.27,7.73,6.45,22.73,6.46,32.12
	c0,0-17.75-17.79-33.9-17.38c-16.15,0.41-33.9,17.38-33.9,17.38C-971.5,286.52-970.32,271.5-965.07,263.79z"/>
<g>
	<path class="st5" d="M-1349.16,399.9l5.24-5.24c2.64-2.64,2.64-6.97,0-9.61c-2.64-2.64-6.97-2.64-9.61,0l-6.06,6.06
		c-9.82-6.56-21.61-10.39-34.31-10.39c-34.15,0-61.84,27.69-61.84,61.84s27.69,61.84,61.84,61.84c34.15,0,61.84-27.69,61.84-61.84
		C-1332.06,426.01-1338.58,411-1349.16,399.9z M-1393.9,494.6c-28.74,0-52.04-23.3-52.04-52.04c0-28.74,23.3-52.04,52.04-52.04
		c28.74,0,52.04,23.3,52.04,52.04C-1341.86,471.3-1365.16,494.6-1393.9,494.6z"/>
	<path class="st5" d="M-1393.9,377.97c10.25,0,18.6-7.13,18.6-15.9c0-8.77-8.34-15.9-18.6-15.9c-10.25,0-18.6,7.13-18.6,15.9
		C-1412.5,370.84-1404.16,377.97-1393.9,377.97z M-1393.9,349.37c8.49,0,15.4,5.7,15.4,12.7c0,4.46-2.81,8.38-7.03,10.65
		c0.02-0.17,0.03-0.34,0.03-0.51v-5.69c0-2.45-2-4.45-4.45-4.45h-7.9c-2.45,0-4.45,2-4.45,4.45v5.69c0,0.17,0.01,0.34,0.03,0.51
		c-4.23-2.27-7.03-6.19-7.03-10.65C-1409.3,355.07-1402.39,349.37-1393.9,349.37z"/>
	<path class="st5" d="M-1392.3,434.32v-30.89c0-0.88-0.72-1.6-1.6-1.6c-0.88,0-1.6,0.72-1.6,1.6v30.89c-3.87,0.75-6.8,4.15-6.8,8.24
		c0,4.09,2.93,7.49,6.8,8.24v23.21c0,0.88,0.72,1.6,1.6,1.6c0.88,0,1.6-0.72,1.6-1.6V450.8c3.87-0.75,6.8-4.15,6.8-8.24
		C-1385.51,438.47-1388.43,435.07-1392.3,434.32z"/>
</g>
<g>
	<path class="st5" d="M-664.75,205.51l5.24-5.24c2.64-2.64,2.64-6.97,0-9.61l0,0c-2.64-2.64-6.97-2.64-9.61,0l-6.06,6.06
		c-9.82-6.56-21.61-10.39-34.31-10.39c-12.69,0-24.49,3.83-34.31,10.39l-6.06-6.06c-2.64-2.64-6.97-2.64-9.61,0l0,0
		c-2.64,2.64-2.64,6.97,0,9.61l5.24,5.24c-10.58,11.1-17.1,26.11-17.1,42.66c0,34.15,27.69,61.84,61.84,61.84
		c34.15,0,61.84-27.69,61.84-61.84C-647.65,231.63-654.16,216.61-664.75,205.51z M-709.49,300.22c-28.74,0-52.04-23.3-52.04-52.04
		c0-28.74,23.3-52.04,52.04-52.04s52.04,23.3,52.04,52.04C-657.45,276.92-680.75,300.22-709.49,300.22z"/>
	<path class="st5" d="M-709.49,183.59c10.25,0,18.6-7.13,18.6-15.9s-8.34-15.9-18.6-15.9s-18.6,7.13-18.6,15.9
		S-719.74,183.59-709.49,183.59z M-709.49,154.98c8.49,0,15.4,5.7,15.4,12.7c0,4.46-2.81,8.38-7.03,10.65
		c0.02-0.17,0.03-0.34,0.03-0.51v-5.69c0-2.45-2-4.45-4.45-4.45h-7.9c-2.45,0-4.45,2-4.45,4.45v5.69c0,0.17,0.01,0.34,0.03,0.51
		c-4.23-2.27-7.03-6.19-7.03-10.65C-724.89,160.68-717.98,154.98-709.49,154.98z"/>
	<path class="st5" d="M-707.89,239.94v-30.89c0-0.88-0.72-1.6-1.6-1.6c-0.88,0-1.6,0.72-1.6,1.6v30.89c-3.87,0.75-6.8,4.15-6.8,8.24
		c0,4.09,2.93,7.49,6.8,8.24v23.21c0,0.88,0.72,1.6,1.6,1.6c0.88,0,1.6-0.72,1.6-1.6v-23.21c3.87-0.75,6.8-4.15,6.8-8.24
		C-701.09,244.09-704.02,240.68-707.89,239.94z"/>
	<path class="st5" d="M-730.28,207.45c-7.72,0-13.99,6.28-13.99,13.99c0,7.72,6.28,13.99,13.99,13.99c7.72,0,13.99-6.28,13.99-13.99
		C-716.29,213.72-722.56,207.45-730.28,207.45z M-730.28,232.24c-5.95,0-10.8-4.84-10.8-10.8c0-5.95,4.84-10.8,10.8-10.8
		c5.95,0,10.8,4.84,10.8,10.8C-719.49,227.39-724.33,232.24-730.28,232.24z"/>
	<path class="st5" d="M-729.08,217.86v-3.4c0-0.66-0.54-1.2-1.2-1.2c-0.66,0-1.2,0.54-1.2,1.2v3.4c-1.5,0.5-2.59,1.91-2.59,3.58
		s1.09,3.08,2.59,3.58v3.32c0,0.66,0.54,1.2,1.2,1.2c0.66,0,1.2-0.54,1.2-1.2v-3.32c1.5-0.5,2.59-1.91,2.59-3.58
		S-727.58,218.36-729.08,217.86z"/>
</g>
<g>
	<circle class="st5" cx="-937.03" cy="433.29" r="8.74"/>
	<path class="st5" d="M-939.91,386.26v30.76c0,1.59,1.3,2.88,2.88,2.88c1.59,0,2.88-1.3,2.88-2.88v-30.76c0-1.59-1.3-2.88-2.88-2.88
		C-938.61,383.38-939.91,384.67-939.91,386.26z"/>
	<path class="st5" d="M-902.39,435.73c1.35,0,2.45-1.1,2.45-2.45s-1.1-2.45-2.45-2.45h-16.86c-1.35,0-2.45,1.1-2.45,2.45
		s1.1,2.45,2.45,2.45H-902.39z"/>
	<circle class="st5" cx="-937.03" cy="480.79" r="5.3"/>
	<circle class="st5" cx="-990.7" cy="433.29" r="5.3"/>
	<path class="st5" d="M-877.5,433.29c0-2.93-2.37-5.3-5.3-5.3c-2.93,0-5.3,2.37-5.3,5.3c0,2.93,2.37,5.3,5.3,5.3
		C-879.87,438.59-877.5,436.21-877.5,433.29z"/>
	<circle class="st5" cx="-937.03" cy="369.86" r="5.3"/>
	<path class="st5" d="M-937.02,352.6c-6.52,0-12.99,0.86-19.22,2.57c-2.11,0.58-3.35,2.75-2.77,4.86c0.58,2.11,2.75,3.35,4.86,2.77
		c5.55-1.52,11.32-2.29,17.13-2.29c35.72,0,64.78,29.06,64.78,64.78c0,35.72-29.06,64.78-64.78,64.78
		c-35.72,0-64.78-29.06-64.78-64.78c0-11.83,3.28-23.45,9.34-33.5l10.63,6.63l0.73-32.63l-29.83,14.5l11.75,7.32
		c-6.84,11.3-10.54,24.37-10.54,37.68c0,40.08,32.61,72.69,72.69,72.69c40.08,0,72.69-32.61,72.69-72.69S-896.94,352.6-937.02,352.6
		z"/>
</g>
<g>
	<path class="st5" d="M-1635.34,870.52l-0.5-0.5c0,0,13.26-11.63,15.15-21.64c1.89-10.01-1.89-18.13,0-21.1
		c1.89-2.98,1.89-2.98,4.87-4.87c2.98-1.89,11.09,1.89,21.1,0c10.01-1.89,21.64-15.15,21.64-15.15l0.5,0.5
		c0.97,0.97,2.55,0.97,3.52,0c0.97-0.97,0.97-2.55,0-3.52l-36.16-36.16c-0.97-0.97-2.55-0.97-3.52,0c-0.97,0.97-0.97,2.55,0,3.52
		l0.5,0.5c0,0-13.26,11.63-15.15,21.64c-1.89,10.01,1.89,18.13,0,21.1c-1.89,2.98-1.89,2.98-4.87,4.87c-2.98,1.89-11.09-1.89-21.1,0
		c-10.01,1.89-21.64,15.15-21.64,15.15l-0.5-0.5c-0.97-0.97-2.55-0.97-3.52,0c-0.97,0.97-0.97,2.55,0,3.52l36.16,36.16
		c0.97,0.97,2.55,0.97,3.52,0C-1634.38,873.07-1634.38,871.49-1635.34,870.52z M-1608.32,777.42l29.91,29.91
		c0,0-13.6,7.5-24.42-5.48C-1613.65,788.86-1608.32,777.42-1608.32,777.42z M-1648.66,823.46c4.83-0.91,9.3-0.32,12.89,0.15
		c3.92,0.52,7.02,0.93,9.56-0.69l0.39-0.25l2.15,2.15l-0.25,0.39c-1.61,2.54-1.2,5.63-0.69,9.56c0.47,3.59,1.07,8.06,0.15,12.89
		c-1.08,5.73-7.18,12.87-11.32,17.02c0,0,0.02-15.68-7.29-22.62c-7.31-6.94-22.62-7.29-22.62-7.29
		C-1661.52,830.65-1654.37,824.54-1648.66,823.46z"/>
	<path class="st5" d="M-1621.39,742.59c-7.04,0-14.02,0.93-20.75,2.77c-2.27,0.62-3.61,2.97-2.99,5.25
		c0.62,2.27,2.96,3.62,5.25,2.99c5.99-1.64,12.22-2.47,18.5-2.47c38.56,0,69.92,31.37,69.92,69.92c0,38.56-31.37,69.92-69.92,69.92
		c-38.56,0-69.92-31.37-69.92-69.92c0-12.77,3.54-25.31,10.09-36.16l11.48,7.15l0.79-35.22l-32.2,15.65l12.68,7.9
		c-7.38,12.2-11.38,26.3-11.38,40.68c0,43.26,35.2,78.46,78.46,78.46c43.27,0,78.46-35.2,78.46-78.46
		C-1542.93,777.79-1578.13,742.59-1621.39,742.59z"/>
</g>
<g>
	<path class="st5" d="M-1594.13,620.72c1.88,0,3.43-1.54,3.43-3.43s-1.54-3.43-3.43-3.43h-18.6c-0.95-2.4-2.86-4.31-5.26-5.26
		v-28.38c0-1.88-1.54-3.43-3.43-3.43s-3.43,1.54-3.43,3.43v28.38c-3.46,1.37-5.92,4.74-5.92,8.69c0,5.16,4.18,9.34,9.34,9.34
		c3.95,0,7.32-2.45,8.69-5.92H-1594.13z"/>
	<path class="st5" d="M-1621.42,550.02c3.44,0,6.23-2.79,6.23-6.23l0,0c0-3.44-2.79-6.23-6.23-6.23s-6.23,2.79-6.23,6.23l0,0
		C-1627.65,547.23-1624.86,550.02-1621.42,550.02z"/>
	<circle class="st5" cx="-1549.78" cy="617.29" r="6.23"/>
	<path class="st5" d="M-1621.42,683.33c-3.44,0-6.23,2.79-6.23,6.23v0c0,3.44,2.79,6.23,6.23,6.23s6.23-2.79,6.23-6.23v0
		C-1615.19,686.12-1617.98,683.33-1621.42,683.33z"/>
	<path class="st5" d="M-1688.07,617.29c0-3.44-2.79-6.23-6.23-6.23c-3.44,0-6.23,2.79-6.23,6.23c0,3.44,2.79,6.23,6.23,6.23
		C-1690.86,623.52-1688.07,620.73-1688.07,617.29z"/>
	<path class="st5" d="M-1567.65,561.51l-8.37,8.37c-0.73,0.73-0.73,1.91,0,2.64c0.36,0.36,0.84,0.55,1.32,0.55s0.96-0.18,1.32-0.55
		l8.37-8.37c0.73-0.73,0.73-1.91,0-2.64C-1565.74,560.78-1566.92,560.78-1567.65,561.51z"/>
	<path class="st5" d="M-1667.42,573.06c0.48,0,0.96-0.18,1.32-0.55c0.73-0.73,0.73-1.91,0-2.64l-8.37-8.37
		c-0.73-0.73-1.91-0.73-2.64,0c-0.73,0.73-0.73,1.91,0,2.64l8.37,8.37C-1668.38,572.88-1667.9,573.06-1667.42,573.06z"/>
	<path class="st5" d="M-1573.38,662.73c-0.73-0.73-1.91-0.73-2.64,0c-0.73,0.73-0.73,1.91,0,2.64l8.37,8.37
		c0.36,0.36,0.84,0.55,1.32,0.55c0.48,0,0.96-0.18,1.32-0.55c0.73-0.73,0.73-1.91,0-2.64L-1573.38,662.73z"/>
	<path class="st5" d="M-1664.52,662.73l-8.37,8.37c-0.73,0.73-0.73,1.91,0,2.64c0.36,0.36,0.84,0.55,1.32,0.55
		c0.48,0,0.96-0.18,1.32-0.55l8.37-8.37c0.73-0.73,0.73-1.91,0-2.64C-1662.6,662-1663.79,662-1664.52,662.73z"/>
	<path class="st5" d="M-1587.64,545.54c-0.85-0.58-2.02-0.36-2.6,0.49l-4.01,5.87c-0.58,0.85-0.36,2.02,0.49,2.6
		c0.32,0.22,0.69,0.33,1.05,0.33c0.6,0,1.18-0.28,1.54-0.81l4.01-5.87C-1586.57,547.28-1586.79,546.12-1587.64,545.54z"/>
	<path class="st5" d="M-1551.01,588.23c-0.4-0.95-1.5-1.4-2.45-0.99l-6.55,2.77c-0.95,0.4-1.4,1.5-0.99,2.45
		c0.3,0.71,0.99,1.14,1.72,1.14c0.24,0,0.49-0.05,0.73-0.15l6.55-2.77C-1551.06,590.28-1550.61,589.19-1551.01,588.23z"/>
	<path class="st5" d="M-1548.73,648.42l-5.87-4.01c-0.85-0.58-2.02-0.36-2.6,0.49c-0.58,0.85-0.36,2.02,0.49,2.6l5.87,4.01
		c0.32,0.22,0.69,0.33,1.05,0.33c0.6,0,1.18-0.28,1.54-0.81C-1547.65,650.17-1547.87,649-1548.73,648.42z"/>
	<path class="st5" d="M-1592.71,678.65c-0.4-0.95-1.5-1.39-2.45-0.99c-0.95,0.4-1.4,1.5-0.99,2.45l2.77,6.55
		c0.3,0.71,0.99,1.14,1.72,1.14c0.24,0,0.49-0.05,0.73-0.15c0.95-0.4,1.4-1.5,0.99-2.45L-1592.71,678.65z"/>
	<path class="st5" d="M-1649.67,554.82c0.36,0,0.73-0.11,1.05-0.33c0.85-0.58,1.07-1.75,0.49-2.6l-4.01-5.87
		c-0.58-0.85-1.74-1.07-2.6-0.49c-0.85,0.58-1.07,1.75-0.49,2.6l4.01,5.87C-1650.85,554.53-1650.26,554.82-1649.67,554.82z"/>
	<path class="st5" d="M-1682.37,590.01l-6.55-2.77c-0.95-0.4-2.05,0.04-2.45,0.99c-0.4,0.95,0.04,2.05,0.99,2.45l6.55,2.77
		c0.24,0.1,0.48,0.15,0.73,0.15c0.73,0,1.42-0.43,1.72-1.14C-1680.97,591.5-1681.42,590.41-1682.37,590.01z"/>
	<path class="st5" d="M-1687.78,644.41l-5.87,4.01c-0.85,0.58-1.07,1.75-0.49,2.6c0.36,0.53,0.95,0.81,1.55,0.81
		c0.36,0,0.73-0.11,1.05-0.33l5.87-4.01c0.85-0.58,1.07-1.75,0.49-2.6C-1685.77,644.05-1686.93,643.83-1687.78,644.41z"/>
	<path class="st5" d="M-1647.22,677.65c-0.95-0.4-2.05,0.04-2.45,0.99l-2.77,6.55c-0.4,0.95,0.04,2.05,0.99,2.45
		c0.24,0.1,0.48,0.15,0.73,0.15c0.73,0,1.42-0.43,1.72-1.14l2.77-6.55C-1645.83,679.15-1646.27,678.06-1647.22,677.65z"/>
</g>
<g>
	<g>
		<path class="st5" d="M-1363.03,621.89c-3.15,0-5.71,2.56-5.71,5.71c0,3.15,2.56,5.71,5.71,5.71c3.15,0,5.71-2.56,5.71-5.71
			C-1357.32,624.44-1359.87,621.89-1363.03,621.89z"/>
	</g>
	<g>
		<path class="st5" d="M-1363.03,597.82c-1.1,0-2,0.9-2,2v18.93c0,1.1,0.9,2,2,2s2-0.9,2-2v-18.93
			C-1361.03,598.72-1361.93,597.82-1363.03,597.82z"/>
	</g>
	<g>
		<path class="st5" d="M-1340.48,625.6h-12.32c-1.1,0-2,0.9-2,2c0,1.1,0.9,2,2,2h12.32c1.1,0,2-0.9,2-2
			C-1338.48,626.5-1339.38,625.6-1340.48,625.6z"/>
	</g>
	<g>
		<path class="st5" d="M-1363.03,594.97c1.42,0,2.57-1.58,2.57-3.52c0-1.95-1.15-3.52-2.57-3.52c-1.42,0-2.57,1.58-2.57,3.52
			C-1365.59,593.39-1364.44,594.97-1363.03,594.97z"/>
	</g>
	<g>
		<path class="st5" d="M-1328.06,625.03c-2.13,0-3.85,1.15-3.85,2.57c0,1.42,1.73,2.57,3.85,2.57s3.85-1.15,3.85-2.57
			C-1324.21,626.18-1325.93,625.03-1328.06,625.03z"/>
	</g>
	<g>
		<path class="st5" d="M-1329.35,616.18c1.42,0,2.57-1.15,2.57-2.57s-1.15-2.57-2.57-2.57c-1.42,0-2.57,1.15-2.57,2.57
			S-1330.76,616.18-1329.35,616.18z"/>
	</g>
	<g>
		<circle class="st5" cx="-1338.48" cy="601.91" r="2.57"/>
	</g>
	<g>
		<circle class="st5" cx="-1393.87" cy="613.61" r="2.57"/>
	</g>
	<g>
		<path class="st5" d="M-1385.92,599.34c-1.42,0-2.57,1.15-2.57,2.57c0,1.42,1.15,2.57,2.57,2.57s2.57-1.15,2.57-2.57
			C-1383.35,600.49-1384.5,599.34-1385.92,599.34z"/>
	</g>
	<g>
		<circle class="st5" cx="-1350.18" cy="594.4" r="2.57"/>
	</g>
	<g>
		<path class="st5" d="M-1361.64,659.03c-1.42,0-2.57,1.73-2.57,3.85c0,2.13,1.15,3.85,2.57,3.85c1.42,0,2.57-1.73,2.57-3.85
			C-1359.07,660.76-1360.22,659.03-1361.64,659.03z"/>
	</g>
	<g>
		
			<ellipse transform="matrix(0.9873 -0.159 0.159 0.9873 -122.3135 -205.8248)" class="st5" cx="-1347.66" cy="661.6" rx="2.57" ry="2.57"/>
	</g>
	<g>
		<path class="st5" d="M-1335.95,649.9c-1.42,0-2.57,1.15-2.57,2.57c0,1.42,1.15,2.57,2.57,2.57c1.42,0,2.57-1.15,2.57-2.57
			C-1333.39,651.05-1334.54,649.9-1335.95,649.9z"/>
	</g>
	<g>
		<circle class="st5" cx="-1328.45" cy="640.77" r="2.57"/>
	</g>
	<g>
		<ellipse class="st5" cx="-1396.99" cy="627.19" rx="3.85" ry="2.57"/>
	</g>
	<g>
		<path class="st5" d="M-1374.87,591.42c-1.42,0-2.57,1.15-2.57,2.57c0,1.42,1.15,2.57,2.57,2.57c1.42,0,2.57-1.15,2.57-2.57
			C-1372.3,592.57-1373.45,591.42-1374.87,591.42z"/>
	</g>
	<g>
		<path class="st5" d="M-1377.4,658.63c-1.42,0-2.57,1.15-2.57,2.57c0,1.42,1.15,2.57,2.57,2.57c1.42,0,2.57-1.15,2.57-2.57
			C-1374.83,659.78-1375.98,658.63-1377.4,658.63z"/>
	</g>
	<g>
		<circle class="st5" cx="-1389.1" cy="652.06" r="2.57"/>
	</g>
	<g>
		<path class="st5" d="M-1396.61,637.79c-1.42,0-2.57,1.15-2.57,2.57c0,1.42,1.15,2.57,2.57,2.57c1.42,0,2.57-1.15,2.57-2.57
			C-1394.04,638.94-1395.19,637.79-1396.61,637.79z"/>
	</g>
	<g>
		<path class="st5" d="M-1363.03,579.36c-26.64,0-48.24,21.6-48.24,48.24c0,26.64,21.6,48.24,48.24,48.24
			c26.64,0,48.24-21.6,48.24-48.24C-1314.79,600.95-1336.39,579.36-1363.03,579.36z M-1363.03,669.27
			c-23.01,0-41.67-18.66-41.67-41.67c0-23.01,18.66-41.67,41.67-41.67s41.67,18.66,41.67,41.67
			C-1321.35,650.61-1340.01,669.27-1363.03,669.27z"/>
	</g>
	<g>
		<path class="st5" d="M-1469.69,567.41c0,1.06,0.86,1.92,1.92,1.92h0c1.06,0,1.92-0.86,1.92-1.92v-2.22h5.62v2.22
			c0,1.06,0.86,1.92,1.92,1.92l0,0c1.06,0,1.92-0.86,1.92-1.92v-2.22h5.62v2.22c0,1.06,0.86,1.92,1.92,1.92l0,0
			c1.06,0,1.92-0.86,1.92-1.92v-2.22h5.62v2.22c0,1.06,0.86,1.92,1.92,1.92h0c1.06,0,1.92-0.86,1.92-1.92v-2.22h5.62v2.22
			c0,1.06,0.86,1.92,1.92,1.92l0,0c1.06,0,1.92-0.86,1.92-1.92v-2.22h5.62v2.22c0,1.06,0.86,1.92,1.92,1.92l0,0
			c1.06,0,1.92-0.86,1.92-1.92v-2.22h5.62v2.22c0,1.06,0.86,1.92,1.92,1.92h0c1.06,0,1.92-0.86,1.92-1.92v-2.22h5.62v2.22
			c0,1.06,0.86,1.92,1.92,1.92h0c1.06,0,1.92-0.86,1.92-1.92v-2.22h5.62v2.22c0,1.06,0.86,1.92,1.92,1.92l0,0
			c1.06,0,1.92-0.86,1.92-1.92v-2.22h5.62v2.22c0,1.06,0.86,1.92,1.92,1.92l0,0c1.06,0,1.92-0.86,1.92-1.92v-2.22h3.28v-3.55h-3.28
			v-2.22c0-1.06-0.86-1.92-1.92-1.92l0,0c-1.06,0-1.92,0.86-1.92,1.92v2.22h-5.62v-2.22c0-1.06-0.86-1.92-1.92-1.92l0,0
			c-1.06,0-1.92,0.86-1.92,1.92v2.22h-5.62v-2.22c0-1.06-0.86-1.92-1.92-1.92h0c-1.06,0-1.92,0.86-1.92,1.92v2.22h-5.62v-2.22
			c0-1.06-0.86-1.92-1.92-1.92h0c-1.06,0-1.92,0.86-1.92,1.92v2.22h-5.62v-2.22c0-1.06-0.86-1.92-1.92-1.92l0,0
			c-1.06,0-1.92,0.86-1.92,1.92v2.22h-5.62v-2.22c0-1.06-0.86-1.92-1.92-1.92l0,0c-1.06,0-1.92,0.86-1.92,1.92v2.22h-5.62v-2.22
			c0-1.06-0.86-1.92-1.92-1.92h0c-1.06,0-1.92,0.86-1.92,1.92v2.22h-5.62v-2.22c0-1.06-0.86-1.92-1.92-1.92l0,0
			c-1.06,0-1.92,0.86-1.92,1.92v2.22h-5.62v-2.22c0-1.06-0.86-1.92-1.92-1.92l0,0c-1.06,0-1.92,0.86-1.92,1.92v2.22h-5.62v-2.22
			c0-1.06-0.86-1.92-1.92-1.92h0c-1.06,0-1.92,0.86-1.92,1.92v2.22h-3.32v3.55h3.32V567.41z"/>
	</g>
	<path class="st5" d="M-1473.02,572.29v91.47h69.74c-8.63-9.6-13.9-22.28-13.9-36.17c0-24.88,16.88-45.88,39.78-52.2v-3.1H-1473.02z
		 M-1452.08,627.89h-3.86v-25.76h-0.09l-5.13,2.77l-0.77-3.04l6.44-3.45h3.4V627.89z M-1425.59,627.89h-18.82v-2.45l3.13-3.04
		c7.53-7.17,10.93-10.98,10.98-15.42c0-2.99-1.45-5.76-5.85-5.76c-2.68,0-4.9,1.36-6.26,2.49l-1.27-2.81
		c2.04-1.72,4.94-2.99,8.35-2.99c6.35,0,9.03,4.35,9.03,8.57c0,5.44-3.95,9.84-10.16,15.83l-2.36,2.18v0.09h13.24V627.89z"/>
</g>
<g>
	<g>
		
			<ellipse transform="matrix(0.9231 -0.3847 0.3847 0.9231 -307.8604 -315.3554)" class="st5" cx="-942.2" cy="611.86" rx="8.47" ry="8.47"/>
	</g>
	<g>
		<path class="st5" d="M-942.2,599.56L-942.2,599.56c-1.71,0-3.11-1.4-3.11-3.11v-35.35c0-1.71,1.4-3.11,3.11-3.11l0,0
			c1.71,0,3.11,1.4,3.11,3.11v35.35C-939.1,598.17-940.5,599.56-942.2,599.56z"/>
	</g>
	<g>
		<path class="st5" d="M-929.99,611.86L-929.99,611.86c0-1.71,1.4-3.11,3.11-3.11h25.47c1.71,0,3.11,1.4,3.11,3.11v0
			c0,1.71-1.4,3.11-3.11,3.11h-25.47C-928.59,614.97-929.99,613.57-929.99,611.86z"/>
	</g>
	<g>
		<path class="st5" d="M-959.14,649.79h-23.72c-2.02,0-3.67-1.65-3.67-3.67v-3.91c0-2.02,1.65-3.67,3.67-3.67h23.72
			c2.02,0,3.67,1.65,3.67,3.67v3.91C-955.47,648.14-957.13,649.79-959.14,649.79z"/>
	</g>
	<g>
		<path class="st5" d="M-936.64,687.53c8.11-7.81,13.84-13.95,13.84-21.84c0-6.23-4.05-12.51-13.11-12.51
			c-4.38,0-8.57,1.51-11.81,4.24l-0.65,0.55l2.64,5.85l1.13-0.94c1.37-1.14,4.18-3.05,7.6-3.05c5.5,0,6.65,3.55,6.65,6.52
			c-0.05,5.34-4.24,10.17-14.24,19.69l-4.5,4.37v4.85h27.25v-6.64h-15.98L-936.64,687.53z"/>
		<path class="st5" d="M-894.54,653.85h-7.43l-18.01,25.78v4.97h18.2v10.67h7.24V684.6h5.48v-6.4h-5.48V653.85z M-911.4,678.19
			l8.44-11.74c0.42-0.7,0.81-1.36,1.19-2.02c-0.01,0.6-0.02,1.2-0.02,1.8v11.95H-911.4z"/>
		<path class="st5" d="M-869.82,663.19c-2.04,0-4.11,0.57-5.97,1.65c-0.82,0.45-1.58,1.01-2.25,1.65v-16.25h-7.55v45.03h7.55v-18.72
			c0-0.89,0.05-1.55,0.3-2.18c0.75-2.26,2.91-4.54,6.05-4.54c4.65,0,5.63,4.11,5.63,7.56v17.87h7.55v-18.48
			C-858.51,666.75-864.6,663.19-869.82,663.19z"/>
	</g>
	<path class="st5" d="M-955.47,675.02c-28.86-6.11-50.52-31.72-50.52-62.4c0-35.23,28.56-63.79,63.79-63.79
		c35.23,0,63.79,28.56,63.79,63.79c0,9.23-1.98,18-5.5,25.92h11.62c2.99-8.07,4.64-16.8,4.64-25.92c0-41.17-33.37-74.54-74.54-74.54
		c-41.17,0-74.54,33.37-74.54,74.54c0,36.64,26.44,67.07,61.27,73.34V675.02z"/>
</g>
<g>
	<path class="st5" d="M-655.77,605.18c-4.31-3.89-2.88-12.65-4.31-23.43c-1.44-10.79-12.25-40.61-50.33-43.86
		c-42.56-3.64-58.96,23.01-61.84,53.21c-2.88,30.2,15.82,44.58,18.69,52.49c2.88,7.91,1.07,52.2,1.07,52.2h54.25
		c0,0-0.67-27.03,2.92-29.91c3.6-2.88,25.17-2.16,31.64-6.47c6.47-4.31,6.47-33.79,6.47-33.79s10.79-3.37,10.79-6.97
		C-646.43,615.05-651.46,609.07-655.77,605.18z M-714.02,621.23v-4.56h-4.07v4.56c-16.26-1.01-29.27-14.02-30.28-30.28h3.98v-4.07
		h-3.98c1-16.12,13.8-29.05,29.86-30.25v3.54h4.07v-3.6c16.46,0.81,29.68,13.91,30.7,30.31h-4.37v4.07h4.37
		C-684.75,607.21-697.76,620.22-714.02,621.23z"/>
	<path class="st5" d="M-702.49,587.29h-7.22c-0.57-2.24-2.29-4-4.5-4.65v-16.4c0-0.89-0.73-1.62-1.62-1.62h-0.44
		c-0.89,0-1.62,0.73-1.62,1.62v16.4c-2.73,0.8-4.73,3.29-4.73,6.27c0,3.63,2.94,6.57,6.57,6.57c2.92,0,5.36-1.91,6.21-4.54h7.35
		c1,0,1.82-0.82,1.82-1.82C-700.67,588.11-701.49,587.29-702.49,587.29z"/>
</g>
<g>
	<path class="st5" d="M-1373.8,824.33c1.52,0,2.77-1.25,2.77-2.77c0-1.52-1.25-2.77-2.77-2.77h-15.03
		c-0.77-1.94-2.31-3.48-4.25-4.25v-22.92c0-1.52-1.25-2.77-2.77-2.77c-1.52,0-2.77,1.25-2.77,2.77v22.92
		c-2.8,1.1-4.78,3.83-4.78,7.02c0,4.17,3.38,7.55,7.55,7.55c3.19,0,5.91-1.98,7.02-4.78H-1373.8z"/>
	<path class="st5" d="M-1395.84,767.22c2.78,0,5.03-2.25,5.03-5.03l0,0c0-2.78-2.25-5.03-5.03-5.03s-5.03,2.25-5.03,5.03l0,0
		C-1400.87,764.97-1398.62,767.22-1395.84,767.22z"/>
	<path class="st5" d="M-1395.84,874.89c-2.78,0-5.03,2.25-5.03,5.03v0c0,2.78,2.25,5.03,5.03,5.03s5.03-2.25,5.03-5.03v0
		C-1390.81,877.15-1393.06,874.89-1395.84,874.89z"/>
	<path class="st5" d="M-1449.68,821.56c0-2.78-2.25-5.03-5.03-5.03s-5.03,2.25-5.03,5.03s2.25,5.03,5.03,5.03
		S-1449.68,824.34-1449.68,821.56z"/>
	<path class="st5" d="M-1352.41,776.5l-6.76,6.76c-0.59,0.59-0.59,1.55,0,2.13c0.29,0.29,0.68,0.44,1.07,0.44s0.77-0.15,1.07-0.44
		l6.76-6.76c0.59-0.59,0.59-1.55,0-2.13C-1350.87,775.91-1351.82,775.91-1352.41,776.5z"/>
	<path class="st5" d="M-1433,785.84c0.39,0,0.77-0.15,1.07-0.44c0.59-0.59,0.59-1.55,0-2.13l-6.76-6.76c-0.59-0.59-1.55-0.59-2.13,0
		c-0.59,0.59-0.59,1.55,0,2.13l6.76,6.76C-1433.77,785.69-1433.38,785.84-1433,785.84z"/>
	<path class="st5" d="M-1430.65,858.26l-6.76,6.76c-0.59,0.59-0.59,1.54,0,2.13c0.29,0.29,0.68,0.44,1.07,0.44
		c0.39,0,0.77-0.15,1.07-0.44l6.76-6.76c0.59-0.59,0.59-1.54,0-2.13C-1429.1,857.67-1430.06,857.67-1430.65,858.26z"/>
	<path class="st5" d="M-1368.56,763.6c-0.69-0.47-1.63-0.29-2.1,0.39l-3.24,4.74c-0.47,0.69-0.29,1.63,0.39,2.1
		c0.26,0.18,0.56,0.26,0.85,0.26c0.48,0,0.96-0.23,1.25-0.66l3.24-4.74C-1367.69,765.01-1367.87,764.07-1368.56,763.6z"/>
	<path class="st5" d="M-1338.97,798.09c-0.32-0.77-1.21-1.13-1.98-0.8l-5.29,2.23c-0.77,0.33-1.13,1.21-0.8,1.98
		c0.24,0.58,0.8,0.92,1.39,0.92c0.2,0,0.39-0.04,0.59-0.12l5.29-2.23C-1339.01,799.74-1338.65,798.86-1338.97,798.09z"/>
	<path class="st5" d="M-1372.65,871.12c-0.32-0.77-1.21-1.12-1.98-0.8c-0.77,0.33-1.13,1.21-0.8,1.98l2.23,5.29
		c0.24,0.58,0.8,0.92,1.39,0.92c0.2,0,0.4-0.04,0.59-0.12c0.77-0.33,1.13-1.21,0.8-1.98L-1372.65,871.12z"/>
	<path class="st5" d="M-1418.65,771.1c0.29,0,0.59-0.09,0.85-0.26c0.69-0.47,0.86-1.41,0.39-2.1l-3.24-4.74
		c-0.47-0.69-1.41-0.86-2.1-0.39c-0.69,0.47-0.86,1.41-0.39,2.1l3.24,4.74C-1419.61,770.87-1419.14,771.1-1418.65,771.1z"/>
	<path class="st5" d="M-1445.07,799.52l-5.29-2.23c-0.77-0.32-1.65,0.04-1.98,0.8c-0.32,0.77,0.03,1.65,0.8,1.98l5.29,2.23
		c0.19,0.08,0.39,0.12,0.59,0.12c0.59,0,1.15-0.35,1.39-0.92C-1443.94,800.73-1444.3,799.84-1445.07,799.52z"/>
	<path class="st5" d="M-1449.44,843.46l-4.74,3.24c-0.69,0.47-0.86,1.41-0.39,2.1c0.29,0.43,0.77,0.66,1.25,0.66
		c0.29,0,0.59-0.09,0.85-0.26l4.74-3.24c0.69-0.47,0.86-1.41,0.39-2.1C-1447.81,843.17-1448.75,842.99-1449.44,843.46z"/>
	<path class="st5" d="M-1416.68,870.31c-0.77-0.32-1.65,0.04-1.98,0.8l-2.23,5.29c-0.32,0.77,0.04,1.65,0.8,1.98
		c0.19,0.08,0.39,0.12,0.59,0.12c0.59,0,1.15-0.35,1.39-0.92l2.23-5.29C-1415.55,871.52-1415.91,870.64-1416.68,870.31z"/>
	<path class="st5" d="M-1353.52,874.31c-11.72,9.43-26.6,15.09-42.82,15.09c-37.75,0-68.35-30.6-68.35-68.35
		c0-37.75,30.6-68.35,68.35-68.35c34.53,0,63.06,25.61,67.68,58.87h10.85c-4.68-39.22-38.04-69.64-78.53-69.64
		c-43.69,0-79.11,35.42-79.11,79.11c0,43.69,35.42,79.11,79.11,79.11c18.85,0,36.14-6.6,49.73-17.6L-1353.52,874.31z"/>
	<polygon class="st5" points="-1320.39,866.59 -1320.39,816.53 -1345.58,816.53 -1345.58,866.59 -1353.54,866.59 -1332.91,891.13 
		-1312.35,866.59 	"/>
</g>
<g>
	<path class="st5" d="M-915.88,824.33c1.52,0,2.77-1.25,2.77-2.77s-1.25-2.77-2.77-2.77h-15.02c-0.77-1.94-2.31-3.48-4.25-4.25
		v-22.92c0-1.52-1.25-2.77-2.77-2.77c-1.52,0-2.77,1.25-2.77,2.77v22.92c-2.8,1.1-4.78,3.83-4.78,7.02c0,4.17,3.38,7.55,7.55,7.55
		c3.19,0,5.91-1.98,7.02-4.78H-915.88z"/>
	<path class="st5" d="M-937.93,767.22c2.78,0,5.03-2.25,5.03-5.03v0c0-2.78-2.25-5.03-5.03-5.03s-5.03,2.25-5.03,5.03v0
		C-942.96,764.97-940.7,767.22-937.93,767.22z"/>
	<path class="st5" d="M-937.93,874.89c-2.78,0-5.03,2.25-5.03,5.03v0c0,2.78,2.25,5.03,5.03,5.03s5.03-2.25,5.03-5.03v0
		C-932.89,877.15-935.15,874.89-937.93,874.89z"/>
	<circle class="st5" cx="-996.79" cy="821.56" r="5.03"/>
	<path class="st5" d="M-894.5,776.5l-6.76,6.76c-0.59,0.59-0.59,1.55,0,2.13c0.29,0.29,0.68,0.44,1.07,0.44
		c0.39,0,0.77-0.15,1.07-0.44l6.76-6.76c0.59-0.59,0.59-1.55,0-2.13C-892.95,775.91-893.91,775.91-894.5,776.5z"/>
	<path class="st5" d="M-975.08,785.84c0.39,0,0.77-0.15,1.07-0.44c0.59-0.59,0.59-1.55,0-2.13l-6.76-6.76
		c-0.59-0.59-1.55-0.59-2.13,0c-0.59,0.59-0.59,1.55,0,2.13l6.76,6.76C-975.85,785.69-975.47,785.84-975.08,785.84z"/>
	<path class="st5" d="M-972.74,858.26l-6.76,6.76c-0.59,0.59-0.59,1.54,0,2.13c0.29,0.29,0.68,0.44,1.07,0.44
		c0.39,0,0.77-0.15,1.07-0.44l6.76-6.76c0.59-0.59,0.59-1.54,0-2.13C-971.19,857.67-972.15,857.67-972.74,858.26z"/>
	<path class="st5" d="M-910.65,763.6c-0.69-0.47-1.63-0.29-2.1,0.39l-3.24,4.74c-0.47,0.69-0.29,1.63,0.39,2.1
		c0.26,0.18,0.56,0.26,0.85,0.26c0.48,0,0.96-0.23,1.25-0.66l3.24-4.74C-909.78,765.01-909.96,764.07-910.65,763.6z"/>
	<path class="st5" d="M-881.06,798.09c-0.32-0.77-1.21-1.13-1.98-0.8l-5.29,2.23c-0.77,0.33-1.13,1.21-0.8,1.98
		c0.24,0.58,0.8,0.92,1.39,0.92c0.2,0,0.4-0.04,0.59-0.12l5.29-2.23C-881.09,799.74-880.74,798.86-881.06,798.09z"/>
	<path class="st5" d="M-914.73,871.12c-0.32-0.77-1.21-1.12-1.98-0.8c-0.77,0.33-1.13,1.21-0.8,1.98l2.23,5.29
		c0.24,0.58,0.8,0.92,1.39,0.92c0.2,0,0.4-0.04,0.59-0.12c0.77-0.33,1.13-1.21,0.8-1.98L-914.73,871.12z"/>
	<path class="st5" d="M-960.74,771.1c0.29,0,0.59-0.09,0.85-0.26c0.69-0.47,0.86-1.41,0.39-2.1l-3.24-4.74
		c-0.47-0.69-1.41-0.86-2.1-0.39c-0.69,0.47-0.86,1.41-0.39,2.1l3.24,4.74C-961.7,770.87-961.22,771.1-960.74,771.1z"/>
	<path class="st5" d="M-987.15,799.52l-5.29-2.23c-0.77-0.32-1.65,0.04-1.98,0.8c-0.32,0.77,0.03,1.65,0.8,1.98l5.29,2.23
		c0.19,0.08,0.39,0.12,0.59,0.12c0.59,0,1.15-0.35,1.39-0.92C-986.02,800.73-986.38,799.84-987.15,799.52z"/>
	<path class="st5" d="M-991.53,843.46l-4.74,3.24c-0.69,0.47-0.86,1.41-0.39,2.1c0.29,0.43,0.77,0.66,1.25,0.66
		c0.29,0,0.59-0.09,0.85-0.26l4.74-3.24c0.69-0.47,0.86-1.41,0.39-2.1C-989.9,843.17-990.84,842.99-991.53,843.46z"/>
	<path class="st5" d="M-958.77,870.31c-0.77-0.32-1.65,0.04-1.98,0.8l-2.23,5.29c-0.32,0.77,0.04,1.65,0.8,1.98
		c0.19,0.08,0.39,0.12,0.59,0.12c0.59,0,1.15-0.35,1.39-0.92l2.23-5.29C-957.64,871.52-958,870.64-958.77,870.31z"/>
	<path class="st5" d="M-895.81,874.47c-11.69,9.34-26.5,14.93-42.62,14.93c-37.75,0-68.35-30.6-68.35-68.35
		c0-37.75,30.6-68.35,68.35-68.35c34.95,0,63.75,26.24,67.83,60.08l11.11,13.22c0.1-1.64,0.17-3.29,0.17-4.95
		c0-43.69-35.42-79.11-79.11-79.11c-43.69,0-79.11,35.42-79.11,79.11c0,43.69,35.42,79.11,79.11,79.11
		c15.7,0,30.32-4.59,42.62-12.48V874.47z"/>
	<polygon class="st5" points="-857.71,835.8 -878.35,811.26 -898.9,835.8 -890.86,835.8 -890.86,885.86 -865.67,885.86 
		-865.67,835.8 	"/>
</g>
<g>
	<polygon class="st5" points="-1597.7,967.99 -1597.7,947.06 -1622.04,947.06 -1646.39,947.06 -1646.39,967.99 -1622.04,967.99 	"/>
	<polygon class="st5" points="-1646.39,1084.89 -1646.39,1105.83 -1622.04,1105.83 -1597.7,1105.83 -1597.7,1084.89 
		-1622.04,1084.89 	"/>
	<path class="st5" d="M-1586.04,971.73v-7.52h-8.92v7.43h-54.17v-7.43h-8.91v7.52c-6.15,0.69-10.97,5.94-10.97,12.26v84.84
		c0,6.33,4.82,11.57,10.97,12.26v6.25h8.91v-6.17h54.17v6.17h8.92v-6.25c6.15-0.69,10.97-5.94,10.97-12.26V984
		C-1575.07,977.67-1579.89,972.42-1586.04,971.73z M-1586.04,1029.67c0,2.71-2.2,4.9-4.9,4.9h-62.2c-2.71,0-4.9-2.2-4.9-4.9v-29.04
		c0-2.71,2.2-4.9,4.9-4.9h62.2c2.71,0,4.9,2.2,4.9,4.9V1029.67z"/>
	<path class="st5" d="M-1644.33,1002.01c-4.5,0-8.17,3.67-8.17,8.17v7.73c0,4.5,3.67,8.17,8.17,8.17s8.17-3.67,8.17-8.17v-7.73
		C-1636.16,1005.68-1639.82,1002.01-1644.33,1002.01z M-1639.81,1017.91c0,2.49-2.03,4.52-4.52,4.52c-2.49,0-4.52-2.03-4.52-4.52
		v-7.73c0-2.49,2.03-4.52,4.52-4.52c2.49,0,4.52,2.03,4.52,4.52V1017.91z"/>
	<path class="st5" d="M-1599.76,1002.01c-4.5,0-8.17,3.67-8.17,8.17v7.73c0,4.5,3.66,8.17,8.17,8.17c4.5,0,8.17-3.67,8.17-8.17
		v-7.73C-1591.59,1005.68-1595.25,1002.01-1599.76,1002.01z M-1595.24,1017.91c0,2.49-2.03,4.52-4.52,4.52
		c-2.49,0-4.52-2.03-4.52-4.52v-7.73c0-2.49,2.03-4.52,4.52-4.52c2.49,0,4.52,2.03,4.52,4.52V1017.91z"/>
	<path class="st5" d="M-1626.5,1002.01c-4.5,0-8.17,3.67-8.17,8.17v7.73c0,4.5,3.66,8.17,8.17,8.17c4.5,0,8.17-3.67,8.17-8.17v-7.73
		C-1618.33,1005.68-1622,1002.01-1626.5,1002.01z M-1621.98,1017.91c0,2.49-2.03,4.52-4.52,4.52c-2.49,0-4.52-2.03-4.52-4.52v-7.73
		c0-2.49,2.03-4.52,4.52-4.52c2.49,0,4.52,2.03,4.52,4.52V1017.91z"/>
	<rect x="-1615.01" y="1005.89" class="st5" width="4.8" height="4.8"/>
	<rect x="-1615.01" y="1016.66" class="st5" width="4.8" height="4.8"/>
</g>
<g>
	<path class="st5" d="M-1620.7,408.75c0,0-14.83-11.23-22.85,2.81c-3.32,5.81,0.04,12.8,5.11,18.98l-1.98,4.87h-7.94
		c-0.89,0-1.6,0.72-1.6,1.6c0,0.89,0.72,1.6,1.6,1.6h10.1l4.48-11.03l4.16,11.03h9.73c0.08,0,0.15-0.01,0.22-0.02
		c0.35,0.29,0.58,0.73,0.58,1.23c0,0.89-0.72,1.6-1.6,1.6h-6.61c3.75,3.08,6.61,5.01,6.61,5.01s30.87-20.85,22.85-34.88
		C-1605.87,397.52-1620.7,408.75-1620.7,408.75z"/>
	<path class="st5" d="M-1599.12,363.87v-12.39h-45.74v12.35c7.11-2.64,14.8-4.09,22.82-4.09
		C-1613.98,359.74-1606.26,361.2-1599.12,363.87z"/>
	<path class="st5" d="M-1644.96,486.71v12.39h45.74v-12.35c-7.11,2.64-14.8,4.09-22.82,4.09
		C-1630.1,490.84-1637.82,489.37-1644.96,486.71z"/>
	<path class="st5" d="M-1561.26,425.46c0-19.88-9.55-37.53-24.3-48.62l0.28,0.12l-5.17-14.86h-6.18v8.14
		c-7.73-3.56-16.33-5.57-25.41-5.57c-9.07,0-17.67,2-25.41,5.57v-8.14h-6.18l-5.17,14.86l0.28-0.12
		c-14.76,11.09-24.3,28.74-24.3,48.62c0,19.81,9.48,37.4,24.15,48.5l5.05,14.5h6.18v-7.78c7.73,3.56,16.33,5.57,25.41,5.57
		c9.07,0,17.67-2,25.41-5.57v7.79h6.18l5.05-14.5C-1570.74,462.87-1561.26,445.28-1561.26,425.46z M-1670.8,425.46
		c0-26.93,21.83-48.76,48.76-48.76s48.76,21.83,48.76,48.76c0,26.93-21.83,48.76-48.76,48.76S-1670.8,452.39-1670.8,425.46z"/>
</g>
<g>
	<g>
		<path class="st5" d="M-780.08,816.52c-0.38,0.11-0.79,0.14-1.21,0.09c-1.61-0.22-2.74-1.71-2.51-3.32
			c3.59-26.12,18.17-49.53,40-64.24c1.34-0.91,3.18-0.55,4.08,0.8c0.91,1.35,0.55,3.18-0.8,4.08
			c-20.44,13.77-34.09,35.7-37.45,60.16C-778.14,815.28-778.99,816.2-780.08,816.52z"/>
	</g>
	<g>
		<path class="st5" d="M-791.35,794.19c-0.54,0.15-1.13,0.16-1.7-0.03c-1.55-0.49-2.4-2.15-1.91-3.7
			c4.57-14.32,12.64-27.45,23.34-37.98c1.16-1.14,3.02-1.12,4.16,0.03c1.14,1.16,1.12,3.02-0.03,4.16
			c-10.02,9.86-17.58,22.16-21.87,35.58C-789.66,793.23-790.43,793.93-791.35,794.19z"/>
	</g>
	<g>
		<path class="st5" d="M-638.9,816.67c0.38,0.11,0.79,0.14,1.21,0.09c1.61-0.22,2.74-1.71,2.51-3.32
			c-3.59-26.12-18.17-49.53-40-64.24c-1.34-0.91-3.18-0.55-4.08,0.8c-0.91,1.35-0.55,3.18,0.8,4.08
			c20.44,13.77,34.09,35.7,37.45,60.16C-640.84,815.43-639.99,816.36-638.9,816.67z"/>
	</g>
	<g>
		<path class="st5" d="M-627.63,794.35c0.54,0.15,1.13,0.16,1.7-0.03c1.55-0.49,2.4-2.15,1.91-3.7
			c-4.57-14.32-12.64-27.45-23.34-37.98c-1.16-1.14-3.02-1.12-4.16,0.03c-1.14,1.16-1.12,3.02,0.03,4.16
			c10.02,9.86,17.58,22.16,21.87,35.58C-629.32,793.38-628.55,794.08-627.63,794.35z"/>
	</g>
	
		<ellipse transform="matrix(0.7071 -0.7071 0.7071 0.7071 -743.4102 -279.9441)" class="st5" cx="-709.63" cy="757.4" rx="15.46" ry="15.46"/>
	<path class="st5" d="M-716.53,891.98v1.29c0,3.8,3.11,6.9,6.9,6.9c3.8,0,6.9-3.11,6.9-6.9v-1.29H-716.53z"/>
	<path class="st5" d="M-662.17,859.12c-5.18-14.3,0-40.05-10.35-70.45c-10.35-30.4-63.85-30.4-74.2,0
		c-10.35,30.4-5.18,56.15-10.35,70.45c-5.18,14.3-10.35,18.62-10.35,18.62v7.77h57.81h57.81v-7.77
		C-651.82,877.74-657,873.42-662.17,859.12z M-722.08,817.52c0.79,28.27-6.29,38.44-15.24,35.5c-8.95-2.94-6.77-33.59-2.84-49.49
		c3.93-15.9,14.37-21.5,14.37-21.5C-711.7,780.85-722.87,789.25-722.08,817.52z"/>
</g>
<g>
	<g>
		<path class="st5" d="M-1165.77,177.08c-29.73,0-53.84,24.1-53.84,53.84c0,29.73,24.1,53.84,53.84,53.84
			c29.73,0,53.84-24.1,53.84-53.84C-1111.93,201.19-1136.03,177.08-1165.77,177.08z M-1165.77,277c-25.45,0-46.08-20.63-46.08-46.08
			s20.63-46.08,46.08-46.08c25.45,0,46.08,20.63,46.08,46.08S-1140.32,277-1165.77,277z"/>
	</g>
	<path class="st5" d="M-1142.25,167.86c-0.9-0.05-1.59-0.82-1.54-1.72s0.83-1.58,1.72-1.54c2.48,0.13,4.85,0.6,6.97,1.18l-2.92-10.5
		c0,0-10.6-3.78-27.74-3.48c-17.13-0.31-27.74,3.48-27.74,3.48l-3.02,10.87c2.41-0.75,5.25-1.39,8.24-1.55
		c0.89-0.04,1.67,0.64,1.72,1.54s-0.64,1.67-1.54,1.72c-3.57,0.19-6.94,1.17-9.48,2.11l-4.4,15.8c9.93-7.98,22.52-12.77,36.22-12.77
		s26.29,4.79,36.22,12.77l-4.52-16.26C-1136.41,168.73-1139.27,168.02-1142.25,167.86z"/>
	<path class="st5" d="M-1142.66,295.67c-0.03,0-0.06,0-0.09,0c-0.86,0-1.58-0.67-1.63-1.54c-0.05-0.9,0.64-1.67,1.54-1.72
		c3.48-0.19,6.78-1.12,9.3-2.05l3.97-14.28c-9.92,7.97-22.51,12.76-36.2,12.76s-26.28-4.79-36.2-12.76l3.97,14.28
		c2.52,0.93,5.82,1.87,9.3,2.05c0.9,0.05,1.59,0.82,1.54,1.72c-0.05,0.87-0.77,1.54-1.63,1.54c-0.03,0-0.06,0-0.09,0
		c-2.92-0.16-5.7-0.77-8.07-1.5l3.44,12.35c0,0,10.6,3.78,27.74,3.48c17.13,0.31,27.74-3.48,27.74-3.48l3.44-12.35
		C-1136.96,294.9-1139.74,295.52-1142.66,295.67z"/>
	<g>
		<path class="st5" d="M-1159.65,230.37c0,3.38-2.74,6.12-6.12,6.12c-3.38,0-6.12-2.74-6.12-6.12c0-3.38,2.74-6.12,6.12-6.12
			C-1162.39,224.26-1159.65,226.99-1159.65,230.37z"/>
	</g>
	<g>
		<path class="st5" d="M-1165.77,221.49L-1165.77,221.49c-1.23,0-2.24-1.01-2.24-2.24v-25.53c0-1.23,1.01-2.24,2.24-2.24l0,0
			c1.23,0,2.24,1.01,2.24,2.24v25.53C-1163.52,220.48-1164.53,221.49-1165.77,221.49z"/>
	</g>
	<g>
		<path class="st5" d="M-1156.94,230.37L-1156.94,230.37c0-1.23,1.01-2.24,2.24-2.24h18.4c1.23,0,2.24,1.01,2.24,2.24l0,0
			c0,1.23-1.01,2.24-2.24,2.24h-18.4C-1155.93,232.62-1156.94,231.61-1156.94,230.37z"/>
	</g>
	<g>
		<path class="st5" d="M-1178,257.77h-17.13c-1.46,0-2.65-1.19-2.65-2.65v-2.82c0-1.46,1.19-2.65,2.65-2.65h17.13
			c1.46,0,2.65,1.19,2.65,2.65v2.82C-1175.35,256.58-1176.54,257.77-1178,257.77z"/>
	</g>
</g>
<g>
	<path class="st5" d="M-1095.67,380.17h-23.14v-3.91h-0.14c0,0,2.27-1.45,5.12-1.45c0.14,0,0.28-0.01,0.42-0.02
		c2.38-0.19,2-2.25-0.4-2.25h-14.8h-0.85h-14.8c-2.4,0-2.78,2.06-0.4,2.25c0.14,0.01,0.28,0.02,0.42,0.02
		c2.84,0,5.12,1.45,5.12,1.45h-0.14v3.91h-52.96v-3.91h-0.14c0,0,2.27-1.45,5.12-1.45c0.14,0,0.28-0.01,0.42-0.02
		c2.38-0.19,2-2.25-0.4-2.25h-14.8h-0.85h-14.8c-2.4,0-2.78,2.06-0.4,2.25c0.14,0.01,0.28,0.02,0.42,0.02
		c2.84,0,5.12,1.45,5.12,1.45h-0.14v3.91h-23.14c-4.98,0-9.02,4.04-9.02,9.02v74.59c0,4.98,4.04,9.02,9.02,9.02h5.59l-0.52,1.22
		c-0.81,1.91,0.59,4.02,2.67,4.02h5.35c0.53,0,1.05-0.14,1.5-0.42l7.98-4.83h95.07l7.98,4.83c0.45,0.27,0.97,0.42,1.5,0.42h5.35
		c2.07,0,3.47-2.11,2.67-4.02l-0.52-1.22h5.59c4.98,0,9.02-4.04,9.02-9.02v-74.59C-1086.65,384.21-1090.69,380.17-1095.67,380.17z
		 M-1234.64,389.39h64.32v74.19h-64.32V389.39z M-1096.89,463.57h-64.32v-74.19h64.32V463.57z"/>
	<path class="st5" d="M-1202.17,396.91c-16.31,0-29.57,13.27-29.57,29.57c0,16.31,13.27,29.57,29.57,29.57
		c16.31,0,29.57-13.27,29.57-29.57C-1172.6,410.17-1185.87,396.91-1202.17,396.91z M-1202.17,452.64
		c-14.42,0-26.16-11.74-26.16-26.16c0-14.43,11.74-26.16,26.16-26.16c14.43,0,26.16,11.74,26.16,26.16
		C-1176.01,440.9-1187.75,452.64-1202.17,452.64z"/>
	<path class="st5" d="M-1190.72,424.75h-7.25c-0.17-0.42-0.42-0.81-0.71-1.15l9.22-11.08c0.61-0.73,0.51-1.82-0.22-2.43
		c-0.73-0.61-1.82-0.51-2.43,0.22l-9.67,11.62c-0.01,0.01-0.02,0.03-0.03,0.04c-0.12-0.01-0.24-0.04-0.37-0.04
		c-2.51,0-4.55,2.04-4.55,4.55c0,2.51,2.04,4.55,4.55,4.55c1.9,0,3.53-1.17,4.21-2.82h7.25c0.95,0,1.73-0.78,1.73-1.73
		C-1188.99,425.53-1189.77,424.75-1190.72,424.75z"/>
	<path class="st5" d="M-1129.05,454.33c16.31,0,29.57-13.27,29.57-29.57s-13.27-29.57-29.57-29.57c-16.31,0-29.57,13.27-29.57,29.57
		S-1145.36,454.33-1129.05,454.33z M-1129.05,398.59c14.43,0,26.16,11.74,26.16,26.16s-11.74,26.16-26.16,26.16
		c-14.43,0-26.16-11.74-26.16-26.16S-1143.48,398.59-1129.05,398.59z"/>
	<path class="st5" d="M-1129.05,429.3c0.14,0,0.27-0.03,0.41-0.04c0.07,0.11,0.15,0.22,0.24,0.32l5.34,5.34
		c0.67,0.67,1.77,0.67,2.44,0c0.67-0.67,0.67-1.77,0-2.44l-4.9-4.9c0.62-0.78,1.01-1.75,1.01-2.83c0-1.9-1.17-3.53-2.82-4.21v-14.52
		c0-0.95-0.78-1.73-1.73-1.73s-1.73,0.78-1.73,1.73v14.52c-1.66,0.68-2.82,2.3-2.82,4.21
		C-1133.6,427.27-1131.56,429.3-1129.05,429.3z"/>
</g>
<g>
	<path class="st5" d="M-1124.78,687.81h-1.12c0,0,1.84-28.21-7.36-41.7c-9.2-13.49-22.69-18.4-23.92-23.92
		c-1.23-5.52-1.23-5.52,0-11.04c1.23-5.52,14.72-10.43,23.92-23.92c9.2-13.49,7.36-41.7,7.36-41.7h1.12c2.19,0,3.99-1.79,3.99-3.99
		c0-2.19-1.79-3.99-3.99-3.99h-81.98c-2.19,0-3.99,1.79-3.99,3.99c0,2.19,1.79,3.99,3.99,3.99h1.12c0,0-1.84,28.21,7.36,41.7
		c9.2,13.49,22.69,18.4,23.92,23.92c1.23,5.52,1.23,5.52,0,11.04s-14.72,10.43-23.92,23.92c-9.2,13.49-7.36,41.7-7.36,41.7h-1.12
		c-2.19,0-3.99,1.79-3.99,3.99s1.79,3.99,3.99,3.99h81.98c2.19,0,3.99-1.79,3.99-3.99S-1122.59,687.81-1124.78,687.81z
		 M-1165.77,648.79c-13.48,0.34-29.12,15.38-30.9,13.16c-1.98-2.47,2.59-11.11,3.46-12.38c4.44-6.51,10.17-10.9,14.78-14.44
		c5.03-3.86,9.01-6.9,10.05-11.61l0.16-0.72c0,0,0.28-13.58-2.68-17.83c-2.97-4.25-16.81-12.23-23.08-23.63
		c-6.26-11.41-5.7-29.68-5.7-29.68h33.9h33.9l0,0h0.01c0,0,0.56,18.27-5.7,29.68c-6.26,11.4-20.11,19.38-23.08,23.63
		c-2.96,4.25-2.68,17.8-2.68,17.83l0,0l0.16,0.72c1.05,4.7,5.02,7.75,10.05,11.61c4.61,3.53,11.43,7.31,14.78,14.44
		c2.65,5.62,4.3,11.89,2.32,13.04C-1138.26,663.92-1152.64,648.45-1165.77,648.79z"/>
</g>
<g>
	<path class="st5" d="M-1201.04,778.9v63.27v5.27h15.82v-5.27h12.17V875c-2.4,1.6-5.68,8.09-5.68,14.22
		c0,7.06,4.34,10.95,6.69,10.95c2.35,0,6.27-3.89,6.27-10.95c0-5.86-2.7-12.05-4.97-13.98v-33.07h9.55v21.89
		c-2.05,1.84-4.55,7.14-4.55,12.17c0,6.21,3.82,9.63,5.89,9.63c2.07,0,5.52-3.43,5.52-9.63c0-5.32-2.53-10.93-4.55-12.44v-21.61
		h12.57v5.27h15.82v-5.27V778.9l-35.27-26.77L-1201.04,778.9z M-1149.07,808.5c0,9.22-7.48,16.7-16.7,16.7s-16.7-7.48-16.7-16.7
		s7.48-16.7,16.7-16.7S-1149.07,799.28-1149.07,808.5z"/>
	<polygon class="st5" points="-1165.77,741.94 -1209.15,774.87 -1209.15,779.3 -1205.09,779.3 -1205.09,776.88 -1165.77,747.03 
		-1126.44,776.88 -1126.44,779.3 -1122.38,779.3 -1122.38,774.87 	"/>
</g>
<g>
	<path class="st5" d="M-1145.34,1029.72c1.52,0,2.77-1.25,2.77-2.77c0-1.52-1.25-2.77-2.77-2.77h-15.04
		c-0.77-1.94-2.31-3.49-4.25-4.25v-22.94c0-1.52-1.25-2.77-2.77-2.77c-1.52,0-2.77,1.25-2.77,2.77v22.94
		c-2.8,1.11-4.78,3.83-4.78,7.02c0,4.17,3.38,7.55,7.55,7.55c3.19,0,5.92-1.98,7.02-4.78H-1145.34z"/>
	<path class="st5" d="M-1167.4,972.55c2.78,0,5.04-2.25,5.04-5.04v0c0-2.78-2.25-5.04-5.04-5.04c-2.78,0-5.04,2.25-5.04,5.04v0
		C-1172.43,970.3-1170.18,972.55-1167.4,972.55z"/>
	<path class="st5" d="M-1109.48,1021.91c-2.78,0-5.04,2.25-5.04,5.04c0,2.78,2.25,5.04,5.04,5.04c2.78,0,5.04-2.25,5.04-5.04
		C-1104.44,1024.16-1106.7,1021.91-1109.48,1021.91z"/>
	<path class="st5" d="M-1167.4,1080.33c-2.78,0-5.04,2.25-5.04,5.04l0,0c0,2.78,2.25,5.04,5.04,5.04c2.78,0,5.04-2.25,5.04-5.04l0,0
		C-1162.36,1082.59-1164.62,1080.33-1167.4,1080.33z"/>
	<path class="st5" d="M-1221.29,1026.94c0-2.78-2.26-5.04-5.04-5.04s-5.04,2.25-5.04,5.04c0,2.78,2.25,5.04,5.04,5.04
		S-1221.29,1029.73-1221.29,1026.94z"/>
	<path class="st5" d="M-1123.93,981.84l-6.77,6.77c-0.59,0.59-0.59,1.55,0,2.14c0.29,0.3,0.68,0.44,1.07,0.44s0.77-0.15,1.07-0.44
		l6.77-6.77c0.59-0.59,0.59-1.55,0-2.14C-1122.38,981.25-1123.34,981.25-1123.93,981.84z"/>
	<path class="st5" d="M-1204.59,991.19c0.39,0,0.77-0.15,1.07-0.44c0.59-0.59,0.59-1.55,0-2.14l-6.77-6.77
		c-0.59-0.59-1.55-0.59-2.14,0c-0.59,0.59-0.59,1.55,0,2.14l6.77,6.77C-1205.36,991.04-1204.98,991.19-1204.59,991.19z"/>
	<path class="st5" d="M-1202.24,1063.68l-6.77,6.77c-0.59,0.59-0.59,1.55,0,2.14c0.29,0.3,0.68,0.44,1.07,0.44
		c0.39,0,0.77-0.15,1.07-0.44l6.77-6.77c0.59-0.59,0.59-1.55,0-2.14C-1200.7,1063.09-1201.65,1063.09-1202.24,1063.68z"/>
	<path class="st5" d="M-1140.09,968.93c-0.69-0.47-1.63-0.29-2.1,0.4l-3.24,4.75c-0.47,0.69-0.29,1.63,0.4,2.1
		c0.26,0.18,0.56,0.26,0.85,0.26c0.48,0,0.96-0.23,1.25-0.66l3.24-4.75C-1139.23,970.34-1139.4,969.4-1140.09,968.93z"/>
	<path class="st5" d="M-1110.48,1003.45c-0.32-0.77-1.21-1.13-1.98-0.8l-5.29,2.24c-0.77,0.33-1.13,1.21-0.8,1.98
		c0.24,0.58,0.8,0.92,1.39,0.92c0.2,0,0.4-0.04,0.59-0.12l5.29-2.24C-1110.51,1005.11-1110.15,1004.22-1110.48,1003.45z"/>
	<path class="st5" d="M-1144.18,1076.55c-0.32-0.77-1.21-1.13-1.98-0.8c-0.77,0.33-1.13,1.21-0.8,1.98l2.24,5.29
		c0.24,0.58,0.8,0.92,1.39,0.92c0.2,0,0.4-0.04,0.59-0.12c0.77-0.33,1.13-1.21,0.8-1.98L-1144.18,1076.55z"/>
	<path class="st5" d="M-1190.24,976.44c0.29,0,0.59-0.09,0.85-0.26c0.69-0.47,0.87-1.41,0.4-2.1l-3.24-4.75
		c-0.47-0.69-1.41-0.87-2.1-0.4c-0.69,0.47-0.87,1.41-0.4,2.1l3.24,4.75C-1191.19,976.21-1190.72,976.44-1190.24,976.44z"/>
	<path class="st5" d="M-1216.67,1004.88l-5.29-2.24c-0.77-0.33-1.66,0.04-1.98,0.8c-0.32,0.77,0.04,1.65,0.8,1.98l5.29,2.24
		c0.19,0.08,0.39,0.12,0.59,0.12c0.59,0,1.15-0.35,1.39-0.92C-1215.54,1006.1-1215.9,1005.21-1216.67,1004.88z"/>
	<path class="st5" d="M-1221.05,1048.87l-4.75,3.24c-0.69,0.47-0.87,1.41-0.4,2.1c0.29,0.43,0.77,0.66,1.25,0.66
		c0.29,0,0.59-0.09,0.85-0.26l4.75-3.24c0.69-0.47,0.87-1.41,0.4-2.1C-1219.42,1048.57-1220.36,1048.4-1221.05,1048.87z"/>
	<path class="st5" d="M-1188.26,1075.75c-0.77-0.32-1.66,0.04-1.98,0.8l-2.24,5.29c-0.32,0.77,0.04,1.65,0.8,1.98
		c0.19,0.08,0.39,0.12,0.59,0.12c0.59,0,1.15-0.35,1.39-0.92l2.24-5.29C-1187.13,1076.96-1187.49,1076.07-1188.26,1075.75z"/>
	<path class="st5" d="M-1096.75,1078.8l10.13-10.13c2.81-2.81,2.81-7.42,0-10.23c-2.81-2.81-7.42-2.81-10.23,0l-10.13,10.13
		l-10.13-10.13c-2.81-2.81-7.42-2.81-10.23,0c-2.81,2.81-2.81,7.42,0,10.23l10.13,10.13l-10.13,10.13c-2.81,2.81-2.81,7.42,0,10.23
		c2.81,2.81,7.42,2.81,10.23,0l10.13-10.13l10.13,10.13c2.81,2.81,7.42,2.81,10.23,0c2.81-2.81,2.81-7.41,0-10.23L-1096.75,1078.8z"
		/>
	<path class="st5" d="M-1138.14,1087.98c-9,4.36-19.09,6.81-29.76,6.81c-37.75,0-68.35-30.6-68.35-68.35
		c0-37.75,30.6-68.35,68.35-68.35c37.75,0,68.35,30.6,68.35,68.35c0,6.38-0.89,12.54-2.53,18.4l9.99,4.24
		c2.14-7.17,3.3-14.77,3.3-22.63c0-43.69-35.42-79.11-79.11-79.11c-43.69,0-79.11,35.42-79.11,79.11
		c0,43.69,35.42,79.11,79.11,79.11c12.24,0,23.82-2.78,34.17-7.74L-1138.14,1087.98z"/>
</g>
<g>
	<path class="st5" d="M-692.57,1029.72c1.52,0,2.77-1.25,2.77-2.77c0-1.52-1.25-2.77-2.77-2.77h-15.04
		c-0.77-1.94-2.31-3.49-4.25-4.25v-22.94c0-1.52-1.25-2.77-2.77-2.77c-1.52,0-2.77,1.25-2.77,2.77v22.94
		c-2.8,1.11-4.78,3.83-4.78,7.02c0,4.17,3.38,7.55,7.55,7.55c3.19,0,5.92-1.98,7.02-4.78H-692.57z"/>
	<path class="st5" d="M-714.63,972.55c2.78,0,5.04-2.25,5.04-5.04v0c0-2.78-2.25-5.04-5.04-5.04s-5.04,2.25-5.04,5.04v0
		C-719.67,970.3-717.42,972.55-714.63,972.55z"/>
	<path class="st5" d="M-656.71,1021.91c-2.78,0-5.04,2.25-5.04,5.04c0,2.78,2.25,5.04,5.04,5.04c2.78,0,5.04-2.25,5.04-5.04
		C-651.68,1024.16-653.93,1021.91-656.71,1021.91z"/>
	<path class="st5" d="M-714.63,1080.33c-2.78,0-5.04,2.25-5.04,5.04l0,0c0,2.78,2.25,5.04,5.04,5.04s5.04-2.25,5.04-5.04l0,0
		C-709.6,1082.59-711.85,1080.33-714.63,1080.33z"/>
	<path class="st5" d="M-768.52,1026.94c0-2.78-2.25-5.04-5.04-5.04s-5.04,2.25-5.04,5.04c0,2.78,2.25,5.04,5.04,5.04
		S-768.52,1029.73-768.52,1026.94z"/>
	<path class="st5" d="M-671.16,981.84l-6.77,6.77c-0.59,0.59-0.59,1.55,0,2.14c0.29,0.3,0.68,0.44,1.07,0.44s0.77-0.15,1.07-0.44
		l6.77-6.77c0.59-0.59,0.59-1.55,0-2.14C-669.62,981.25-670.57,981.25-671.16,981.84z"/>
	<path class="st5" d="M-751.83,991.19c0.39,0,0.77-0.15,1.07-0.44c0.59-0.59,0.59-1.55,0-2.14l-6.77-6.77
		c-0.59-0.59-1.55-0.59-2.14,0c-0.59,0.59-0.59,1.55,0,2.14l6.77,6.77C-752.6,991.04-752.21,991.19-751.83,991.19z"/>
	<path class="st5" d="M-749.48,1063.68l-6.77,6.77c-0.59,0.59-0.59,1.55,0,2.14c0.29,0.3,0.68,0.44,1.07,0.44s0.77-0.15,1.07-0.44
		l6.77-6.77c0.59-0.59,0.59-1.55,0-2.14C-747.93,1063.09-748.89,1063.09-749.48,1063.68z"/>
	<path class="st5" d="M-687.33,968.93c-0.69-0.47-1.63-0.29-2.1,0.4l-3.24,4.75c-0.47,0.69-0.29,1.63,0.4,2.1
		c0.26,0.18,0.56,0.26,0.85,0.26c0.48,0,0.96-0.23,1.25-0.66l3.24-4.75C-686.46,970.34-686.64,969.4-687.33,968.93z"/>
	<path class="st5" d="M-657.71,1003.45c-0.32-0.77-1.21-1.13-1.98-0.8l-5.29,2.24c-0.77,0.33-1.13,1.21-0.8,1.98
		c0.24,0.58,0.8,0.92,1.39,0.92c0.2,0,0.4-0.04,0.59-0.12l5.29-2.24C-657.75,1005.11-657.39,1004.22-657.71,1003.45z"/>
	<path class="st5" d="M-655.86,1052.11l-4.75-3.24c-0.69-0.47-1.63-0.29-2.1,0.39c-0.47,0.69-0.29,1.63,0.4,2.1l4.75,3.24
		c0.26,0.18,0.56,0.26,0.85,0.26c0.48,0,0.96-0.23,1.25-0.66C-655,1053.52-655.17,1052.58-655.86,1052.11z"/>
	<path class="st5" d="M-691.42,1076.55c-0.32-0.77-1.21-1.13-1.98-0.8c-0.77,0.33-1.13,1.21-0.8,1.98l2.24,5.29
		c0.24,0.58,0.8,0.92,1.39,0.92c0.2,0,0.4-0.04,0.59-0.12c0.77-0.33,1.13-1.21,0.8-1.98L-691.42,1076.55z"/>
	<path class="st5" d="M-737.47,976.44c0.29,0,0.59-0.09,0.85-0.26c0.69-0.47,0.87-1.41,0.4-2.1l-3.24-4.75
		c-0.47-0.69-1.41-0.87-2.1-0.4c-0.69,0.47-0.87,1.41-0.4,2.1l3.24,4.75C-738.43,976.21-737.95,976.44-737.47,976.44z"/>
	<path class="st5" d="M-763.91,1004.88l-5.29-2.24c-0.77-0.33-1.66,0.04-1.98,0.8c-0.32,0.77,0.04,1.65,0.8,1.98l5.29,2.24
		c0.19,0.08,0.39,0.12,0.59,0.12c0.59,0,1.15-0.35,1.39-0.92C-762.78,1006.1-763.14,1005.21-763.91,1004.88z"/>
	<path class="st5" d="M-768.29,1048.87l-4.75,3.24c-0.69,0.47-0.87,1.41-0.4,2.1c0.29,0.43,0.77,0.66,1.25,0.66
		c0.29,0,0.59-0.09,0.85-0.26l4.75-3.24c0.69-0.47,0.87-1.41,0.4-2.1C-766.66,1048.57-767.6,1048.4-768.29,1048.87z"/>
	<path class="st5" d="M-735.5,1075.75c-0.77-0.32-1.66,0.04-1.98,0.8l-2.24,5.29c-0.32,0.77,0.04,1.65,0.8,1.98
		c0.19,0.08,0.39,0.12,0.59,0.12c0.59,0,1.15-0.35,1.39-0.92l2.24-5.29C-734.37,1076.96-734.73,1076.07-735.5,1075.75z"/>
	<g>
		<path class="st5" d="M-653.41,1105.43c-2.42,0-4.7-1.19-6.09-3.19l-17.8-25.64c-2.34-3.37-1.5-7.99,1.86-10.32
			c3.37-2.34,7.99-1.5,10.32,1.86l11.16,16.08l15.4-26.4c2.06-3.54,6.61-4.73,10.14-2.67c3.54,2.06,4.73,6.6,2.67,10.14
			l-21.26,36.46c-1.28,2.19-3.58,3.58-6.11,3.67C-653.21,1105.43-653.31,1105.43-653.41,1105.43z"/>
	</g>
	<path class="st5" d="M-677.78,1083.67c-10.74,7.02-23.56,11.12-37.35,11.12c-37.75,0-68.35-30.6-68.35-68.35
		c0-37.75,30.6-68.35,68.35-68.35s68.35,30.6,68.35,68.35c0,14.36-4.44,27.68-12.01,38.68l6.05,9.93
		c10.47-13.42,16.73-30.28,16.73-48.62c0-43.69-35.42-79.11-79.11-79.11s-79.11,35.42-79.11,79.11c0,43.69,35.42,79.11,79.11,79.11
		c15.9,0,30.7-4.71,43.1-12.79L-677.78,1083.67z"/>
</g>
<g>
	<path class="st5" d="M-860.02,1033.77l-6.96-1.39c-1.2-5.7-3.54-10.98-6.76-15.59l3.76-5.4l-4.27-6.41l-6.41-4.27l-5.96,3.98
		c-4.44-2.69-9.4-4.59-14.71-5.52l-0.97-5.41l-7.55-1.51l-7.55,1.51l-1.18,5.89c-4.51,1.06-8.74,2.83-12.58,5.19l-6.19-4.13
		l-6.41,4.27l-4.27,6.41l3.98,5.73c-3.22,4.71-5.52,10.09-6.65,15.89l-7.3,1.46l-1.51,7.55l1.51,7.55l7.62,1.37
		c0.98,4.2,2.57,8.15,4.68,11.78l-4.64,6.96l4.27,6.41l6.41,4.27l6.17-4.29c4.8,3.41,10.34,5.86,16.33,7.05l1.3,7.2l7.55,1.51
		l7.55-1.51l1.49-7.46c5.46-1.24,10.52-3.53,14.96-6.64l5.94,4.13l6.41-4.27l4.27-6.41l-4.39-6.59c2.36-3.95,4.1-8.31,5.08-12.95
		l6.98-1.26l1.51-7.55L-860.02,1033.77z M-908.79,1069.78c-15.78,0-28.57-12.79-28.57-28.57c0-15.78,12.79-28.57,28.57-28.57
		c15.78,0,28.57,12.79,28.57,28.57C-880.22,1056.99-893.01,1069.78-908.79,1069.78z"/>
	<path class="st5" d="M-943.3,1002.86l1.11-5.57l-1.11-5.57l-5.14-1.03c-0.89-4.21-2.61-8.1-4.99-11.51l2.77-3.99l-3.15-4.73
		l-4.73-3.15l-4.4,2.93c-3.27-1.99-6.94-3.39-10.85-4.08l-0.72-3.99l-5.57-1.11l-5.57,1.11l-0.87,4.35
		c-3.33,0.78-6.45,2.09-9.28,3.83l-4.57-3.05l-4.73,3.15l-3.15,4.73l2.94,4.23c-2.38,3.47-4.08,7.45-4.91,11.73l-5.39,1.08
		l-1.11,5.57l1.11,5.57l5.63,1.01c0.72,3.1,1.9,6.02,3.46,8.69l-3.42,5.13l3.15,4.73l4.73,3.15l4.55-3.16
		c3.55,2.52,7.63,4.32,12.05,5.2l0.96,5.32l5.57,1.11l5.57-1.11l1.1-5.5c4.03-0.92,7.76-2.6,11.04-4.9l4.38,3.05l4.73-3.15
		l3.15-4.73l-3.24-4.86c1.74-2.92,3.02-6.13,3.75-9.56L-943.3,1002.86z M-979.3,1008.2c-6.07,0-10.99-4.92-10.99-10.99
		c0-6.07,4.92-10.99,10.99-10.99s10.99,4.92,10.99,10.99C-968.31,1003.28-973.23,1008.2-979.3,1008.2z"/>
	<circle class="st5" cx="-908.79" cy="1041.22" r="4.53"/>
	<path class="st5" d="M-908.79,1034.56L-908.79,1034.56c-1.13,0-2.05-0.92-2.05-2.05v-12.77c0-1.13,0.92-2.05,2.05-2.05l0,0
		c1.13,0,2.05,0.92,2.05,2.05v12.77C-906.74,1033.64-907.66,1034.56-908.79,1034.56z"/>
	<path class="st5" d="M-902.04,1041.22L-902.04,1041.22c0-1.13,0.92-2.05,2.05-2.05h7.92c1.13,0,2.05,0.92,2.05,2.05l0,0
		c0,1.13-0.92,2.05-2.05,2.05h-7.92C-901.11,1043.27-902.04,1042.34-902.04,1041.22z"/>
</g>
<g>
	<path class="st5" d="M-1393.9,1025.24c-4.75,0-8.6,3.85-8.6,8.6c0,3.69,2.33,6.82,5.59,8.04v28.21c0,1.65,1.35,3.01,3.01,3.01
		c1.65,0,3.01-1.35,3.01-3.01v-28.21c3.26-1.22,5.59-4.36,5.59-8.04C-1385.31,1029.09-1389.16,1025.24-1393.9,1025.24z"/>
	<path class="st5" d="M-1359.95,1030.83h-18.55c-1.65,0-3.01,1.35-3.01,3.01s1.35,3.01,3.01,3.01h18.55c1.65,0,3.01-1.35,3.01-3.01
		S-1358.3,1030.83-1359.95,1030.83z"/>
	<path class="st5" d="M-1341.26,1029.06c-3.2,0-5.8,1.73-5.8,3.87c0,2.14,2.6,3.87,5.8,3.87c3.2,0,5.8-1.73,5.8-3.87
		C-1335.46,1030.79-1338.05,1029.06-1341.26,1029.06z"/>
	<path class="st5" d="M-1393.37,1080.27c-2.14,0-3.87,2.6-3.87,5.8s1.73,5.8,3.87,5.8c2.14,0,3.87-2.6,3.87-5.8
		S-1391.24,1080.27-1393.37,1080.27z"/>
	<path class="st5" d="M-1370.76,1080.27c-2.14,0-3.87,1.73-3.87,3.87c0,2.14,1.73,3.87,3.87,3.87c2.14,0,3.87-1.73,3.87-3.87
		C-1366.9,1082-1368.63,1080.27-1370.76,1080.27z"/>
	<path class="st5" d="M-1353.14,1066.51c-2.14,0-3.87,1.73-3.87,3.87c0,2.14,1.73,3.87,3.87,3.87c2.14,0,3.87-1.73,3.87-3.87
		C-1349.28,1068.25-1351.01,1066.51-1353.14,1066.51z"/>
	<path class="st5" d="M-1341.84,1048.89c-2.14,0-3.87,1.73-3.87,3.87c0,2.14,1.73,3.87,3.87,3.87s3.87-1.73,3.87-3.87
		C-1337.97,1050.63-1339.7,1048.89-1341.84,1048.89z"/>
	<path class="st5" d="M-1445.05,1028.45c-3.2,0-5.8,1.73-5.8,3.87s2.6,3.87,5.8,3.87s5.8-1.73,5.8-3.87
		S-1441.84,1028.45-1445.05,1028.45z"/>
	<path class="st5" d="M-1415.54,1079.66c-2.14,0-3.87,1.73-3.87,3.87c0,2.14,1.73,3.87,3.87,3.87s3.87-1.73,3.87-3.87
		C-1411.67,1081.39-1413.4,1079.66-1415.54,1079.66z"/>
	<path class="st5" d="M-1433.16,1065.9c-2.14,0-3.87,1.73-3.87,3.87s1.73,3.87,3.87,3.87s3.87-1.73,3.87-3.87
		S-1431.02,1065.9-1433.16,1065.9z"/>
	<circle class="st5" cx="-1444.47" cy="1052.15" r="3.87"/>
	<path class="st5" d="M-1321.91,1023.49v-2.3h-1.82c0.3-14.71-17.53-30.07-17.53-30.07s0.97,19.35-8.02,17.04
		c-11.76-3.03,2.77-15.43-5.4-28.73c-8.17-13.29-18.16-13.64-18.16-13.64s5.45,8.47,3.61,17.21c-1.84,8.73-16.54,13.05-21.67-4.19
		c-5.13-17.23-0.93-31.48-0.93-31.48s-12.18,4.84-19.85,20.88c-7.1,14.84-2.33,30.69-16.24,31.89
		c-12.69,1.09-11.33-15.55-11.33-15.55s-8.94,6.56-16.21,18.32c-5.82,9.42-7.17,15.71-7.47,18.32h-2.97v2.3h-0.01
		c-0.4,3.09-0.63,6.24-0.63,9.44c0,40.11,32.52,72.63,72.63,72.63c40.11,0,72.63-32.52,72.63-72.63
		C-1321.27,1029.72-1321.5,1026.58-1321.91,1023.49z M-1393.9,1095.67c-34.65,0-62.74-28.09-62.74-62.74c0-3.06,0.23-6.06,0.65-9
		h124.19c0.42,2.94,0.65,5.94,0.65,9C-1331.16,1067.58-1359.25,1095.67-1393.9,1095.67z"/>
</g>
<g>
	<g>
		<path class="st1" d="M66.56,184.73H12.38c-0.6,0-1.09-0.49-1.09-1.09v-72.3c0-0.6,0.49-1.09,1.09-1.09h42.84
			c0.6,0,1.09,0.49,1.09,1.09v10.25h10.25c0.6,0,1.09,0.49,1.09,1.09v60.97C67.65,184.24,67.16,184.73,66.56,184.73z M13.47,182.56
			h52v-58.79H55.22c-0.6,0-1.09-0.49-1.09-1.09v-10.25H13.47V182.56z"/>
	</g>
	<g>
		<path class="st1" d="M66.56,123.76H55.22c-0.6,0-1.09-0.49-1.09-1.09v-11.33c0-0.44,0.26-0.84,0.67-1
			c0.41-0.17,0.87-0.08,1.18,0.24l11.33,11.33c0.31,0.31,0.4,0.78,0.24,1.18C67.39,123.5,67,123.76,66.56,123.76z M56.31,121.59
			h7.62l-7.62-7.62V121.59z"/>
	</g>
</g>
<g>
	<path class="st1" d="M79.3,173.73h-7.61c-0.6,0-1.09-0.49-1.09-1.09v-52.62c0-0.6,0.49-1.09,1.09-1.09h7.61
		c0.6,0,1.09,0.49,1.09,1.09v52.62C80.39,173.24,79.9,173.73,79.3,173.73z M72.78,171.56h5.44v-50.45h-5.44V171.56z"/>
</g>
<g>
	<path class="st1" d="M84.5,144.48c-0.6,0-1.09-0.49-1.09-1.09v-14.02H79.3c-0.6,0-1.09-0.49-1.09-1.09c0-0.6,0.49-1.09,1.09-1.09
		h5.19c0.6,0,1.09,0.49,1.09,1.09v15.1C85.58,143.99,85.1,144.48,84.5,144.48z"/>
</g>
<g>
	<path class="st1" d="M75.49,184.07c-0.46,0-0.87-0.29-1.02-0.72l-3.8-10.62c-0.12-0.33-0.07-0.7,0.13-0.99
		c0.2-0.29,0.53-0.46,0.89-0.46h7.6c0.35,0,0.69,0.17,0.89,0.46c0.2,0.29,0.25,0.66,0.13,0.99l-3.8,10.62
		C76.36,183.78,75.95,184.07,75.49,184.07z M73.23,173.45l2.26,6.31l2.26-6.31H73.23z"/>
</g>
<g>
	<path class="st1" d="M77.6,121.11h-4.2c-0.6,0-1.09-0.49-1.09-1.09v-8.68c0-0.6,0.49-1.09,1.09-1.09h4.2c0.6,0,1.09,0.49,1.09,1.09
		v8.68C78.69,120.62,78.2,121.11,77.6,121.11z M74.48,118.94h2.03v-6.51h-2.03V118.94z"/>
</g>
<g>
	<path class="st1" d="M27.34,132.94c-0.02,0-0.03,0-0.05,0c-0.44-0.02-0.82-0.3-0.97-0.71l-1.6-4.36c-0.21-0.56,0.08-1.19,0.65-1.4
		c0.56-0.21,1.19,0.08,1.4,0.65l0.7,1.92l2.04-4.32c0.26-0.54,0.9-0.78,1.45-0.52c0.54,0.26,0.78,0.9,0.52,1.45l-3.14,6.67
		C28.14,132.7,27.76,132.94,27.34,132.94z"/>
</g>
<g>
	<path class="st1" d="M27.64,137.03c-2.71,0-5.19-1.25-6.82-3.43c-1.11-1.49-1.7-3.25-1.7-5.1c0-4.7,3.82-8.52,8.52-8.52
		c1.61,0,3.18,0.46,4.54,1.32l0,0c2.49,1.58,3.98,4.27,3.98,7.21C36.16,133.2,32.34,137.03,27.64,137.03z M27.64,122.15
		c-3.5,0-6.35,2.85-6.35,6.35c0,1.37,0.44,2.68,1.27,3.79c1.22,1.62,3.07,2.56,5.08,2.56c3.5,0,6.35-2.85,6.35-6.35
		c0-2.19-1.11-4.19-2.97-5.37l0,0C30,122.49,28.83,122.15,27.64,122.15z"/>
</g>
<g>
	<path class="st1" d="M27.34,153.19c-0.02,0-0.03,0-0.05,0c-0.44-0.02-0.82-0.3-0.97-0.71l-1.6-4.36c-0.21-0.56,0.08-1.19,0.65-1.4
		c0.56-0.21,1.19,0.08,1.4,0.65l0.7,1.92l2.04-4.32c0.26-0.54,0.9-0.78,1.45-0.52c0.54,0.26,0.78,0.9,0.52,1.45l-3.14,6.67
		C28.14,152.95,27.76,153.19,27.34,153.19z"/>
</g>
<g>
	<path class="st1" d="M27.64,157.28c-2.71,0-5.19-1.25-6.82-3.43c-1.11-1.49-1.7-3.25-1.7-5.1c0-4.7,3.82-8.52,8.52-8.52
		c1.61,0,3.18,0.46,4.54,1.32l0,0c2.49,1.58,3.98,4.27,3.98,7.21C36.16,153.46,32.34,157.28,27.64,157.28z M27.64,142.41
		c-3.5,0-6.35,2.85-6.35,6.35c0,1.37,0.44,2.68,1.27,3.79c1.22,1.62,3.07,2.56,5.08,2.56c3.5,0,6.35-2.85,6.35-6.35
		c0-2.19-1.11-4.19-2.97-5.37l0,0C30,142.75,28.83,142.41,27.64,142.41z"/>
</g>
<g>
	<path class="st1" d="M27.34,173.45c-0.02,0-0.03,0-0.05,0c-0.44-0.02-0.82-0.3-0.97-0.71l-1.6-4.36c-0.21-0.56,0.08-1.19,0.65-1.4
		c0.56-0.21,1.19,0.08,1.4,0.65l0.7,1.92l2.04-4.32c0.26-0.54,0.9-0.78,1.45-0.52c0.54,0.26,0.78,0.9,0.52,1.45l-3.14,6.67
		C28.14,173.2,27.76,173.45,27.34,173.45z"/>
</g>
<g>
	<path class="st1" d="M27.64,177.54c-2.71,0-5.19-1.25-6.82-3.43c-1.11-1.49-1.7-3.25-1.7-5.1c0-4.7,3.82-8.52,8.52-8.52
		c1.61,0,3.18,0.46,4.54,1.32l0,0c2.49,1.58,3.98,4.27,3.98,7.2C36.16,173.71,32.34,177.54,27.64,177.54z M27.64,162.66
		c-3.5,0-6.35,2.85-6.35,6.35c0,1.37,0.44,2.68,1.27,3.79c1.22,1.62,3.07,2.56,5.08,2.56c3.5,0,6.35-2.85,6.35-6.35
		c0-2.19-1.11-4.19-2.97-5.37l0,0C30,163,28.83,162.66,27.64,162.66z"/>
</g>
<g>
	<path class="st1" d="M58.33,132.94H39.51c-0.6,0-1.09-0.49-1.09-1.09v-5.19c0-0.6,0.49-1.09,1.09-1.09h18.82
		c0.6,0,1.09,0.49,1.09,1.09v5.19C59.42,132.45,58.93,132.94,58.33,132.94z M40.59,130.76h16.65v-3.02H40.59V130.76z"/>
</g>
<g>
	<path class="st1" d="M58.33,152.14H39.51c-0.6,0-1.09-0.49-1.09-1.09v-5.19c0-0.6,0.49-1.09,1.09-1.09h18.82
		c0.6,0,1.09,0.49,1.09,1.09v5.19C59.42,151.66,58.93,152.14,58.33,152.14z M40.59,149.97h16.65v-3.02H40.59V149.97z"/>
</g>
<g>
	<path class="st1" d="M58.33,171.35H39.51c-0.6,0-1.09-0.49-1.09-1.09v-5.19c0-0.6,0.49-1.09,1.09-1.09h18.82
		c0.6,0,1.09,0.49,1.09,1.09v5.19C59.42,170.86,58.93,171.35,58.33,171.35z M40.59,169.17h16.65v-3.02H40.59V169.17z"/>
</g>
<g>
	<g>
		<path class="st1" d="M22.57,25.18c-1,0-1.98-0.24-2.91-0.71c-2.85-1.45-4.68-4.84-4.68-8.64c0-5.16,3.41-9.36,7.6-9.36
			c4.19,0,7.6,4.2,7.6,9.36c0,3.8-1.84,7.2-4.68,8.64C24.55,24.94,23.57,25.18,22.57,25.18z M22.57,8.63
			c-2.99,0-5.43,3.23-5.43,7.19c0,2.95,1.41,5.65,3.5,6.71c1.25,0.63,2.61,0.63,3.85,0c2.09-1.07,3.5-3.76,3.5-6.71
			C27.99,11.85,25.56,8.63,22.57,8.63z"/>
	</g>
</g>
<g>
	<g>
		<path class="st1" d="M35.84,39.32H9.3c-0.6,0-1.08-0.49-1.08-1.08v-5.36c0-3.54,2.88-6.41,6.41-6.41h5.52
			c0.6,0,1.08,0.49,1.08,1.08v0.27c0,0.38,0.16,0.73,0.44,0.99c0.28,0.26,0.65,0.38,1.03,0.34c0.67-0.06,1.2-0.69,1.2-1.43v-0.16
			c0-0.6,0.49-1.08,1.08-1.08h5.52c3.54,0,6.41,2.88,6.41,6.41v5.36C36.92,38.84,36.44,39.32,35.84,39.32z M10.38,37.15h24.37v-4.28
			c0-2.34-1.9-4.24-4.24-4.24h-4.56c-0.37,1.42-1.58,2.53-3.04,2.67c-0.98,0.09-1.97-0.23-2.7-0.89c-0.52-0.48-0.89-1.1-1.05-1.77
			h-4.54c-2.34,0-4.24,1.9-4.24,4.24V37.15z"/>
	</g>
</g>
<g>
	<g>
		<path class="st1" d="M22.57,31.32c-1.93,0-3.5-1.57-3.5-3.5V23.5c0-0.38,0.2-0.73,0.52-0.92c0.32-0.2,0.72-0.21,1.06-0.04
			c1.25,0.63,2.61,0.63,3.85,0c0.34-0.17,0.74-0.16,1.06,0.04c0.32,0.2,0.52,0.55,0.52,0.92v4.32
			C26.07,29.75,24.5,31.32,22.57,31.32z M21.23,25.03v2.78c0,0.74,0.6,1.33,1.33,1.33c0.74,0,1.33-0.6,1.33-1.33v-2.78
			C23.03,25.23,22.11,25.23,21.23,25.03z"/>
	</g>
</g>
<g>
	<g>
		<path class="st1" d="M57.23,57.75c-1,0-1.98-0.24-2.91-0.71c-2.85-1.45-4.68-4.84-4.68-8.64c0-5.16,3.41-9.36,7.6-9.36
			s7.6,4.2,7.6,9.36c0,3.8-1.84,7.2-4.68,8.64C59.21,57.51,58.23,57.75,57.23,57.75z M57.23,41.2c-2.99,0-5.43,3.23-5.43,7.19
			c0,2.95,1.41,5.65,3.5,6.71c1.25,0.63,2.61,0.63,3.85,0c2.09-1.07,3.5-3.76,3.5-6.71C62.66,44.43,60.22,41.2,57.23,41.2z"/>
	</g>
</g>
<g>
	<g>
		<path class="st1" d="M70.5,71.89H43.96c-0.6,0-1.08-0.49-1.08-1.08v-5.36c0-3.54,2.88-6.41,6.41-6.41h5.53
			c0.6,0,1.08,0.49,1.08,1.08v0.27c0,0.38,0.16,0.73,0.44,0.99c0.28,0.25,0.65,0.38,1.03,0.34c0.67-0.06,1.2-0.69,1.2-1.43v-0.16
			c0-0.6,0.49-1.08,1.08-1.08h5.53c3.54,0,6.41,2.88,6.41,6.41v5.36C71.58,71.41,71.1,71.89,70.5,71.89z M45.05,69.72h24.37v-4.28
			c0-2.34-1.9-4.24-4.24-4.24h-4.56c-0.37,1.42-1.58,2.53-3.04,2.67c-0.98,0.09-1.97-0.23-2.7-0.89c-0.52-0.48-0.89-1.1-1.05-1.77
			h-4.54c-2.34,0-4.24,1.9-4.24,4.24V69.72z"/>
	</g>
</g>
<g>
	<g>
		<path class="st1" d="M57.23,63.89c-1.93,0-3.5-1.57-3.5-3.5v-4.32c0-0.38,0.2-0.73,0.52-0.92c0.32-0.2,0.72-0.21,1.06-0.04
			c1.25,0.63,2.61,0.63,3.85,0c0.34-0.17,0.74-0.16,1.06,0.04c0.32,0.2,0.52,0.55,0.52,0.92v4.32
			C60.73,62.32,59.16,63.89,57.23,63.89z M55.9,57.6v2.78c0,0.74,0.6,1.33,1.33,1.33c0.74,0,1.33-0.6,1.33-1.33V57.6
			C57.69,57.8,56.77,57.8,55.9,57.6z"/>
	</g>
</g>
<g>
	<g>
		<path class="st1" d="M76.67,77.55H3.13c-0.6,0-1.08-0.49-1.08-1.08V2.92c0-0.29,0.11-0.56,0.32-0.77c0.2-0.2,0.48-0.32,0.77-0.32
			h0l55.12,0.04c0.6,0,1.08,0.49,1.08,1.08v17.34h17.34c0.6,0,1.08,0.49,1.08,1.08v55.08C77.76,77.06,77.27,77.55,76.67,77.55z
			 M4.21,75.38h71.37V22.46H58.25c-0.6,0-1.08-0.49-1.08-1.08V4.04L4.21,4V75.38z"/>
	</g>
</g>
<g>
	<g>
		<path class="st1" d="M76.67,22.46H58.25c-0.6,0-1.08-0.49-1.08-1.08V2.96c0-0.44,0.26-0.83,0.67-1c0.41-0.17,0.87-0.08,1.18,0.24
			l18.42,18.42c0.31,0.31,0.4,0.78,0.24,1.18C77.51,22.2,77.11,22.46,76.67,22.46z M59.34,20.29h14.72L59.34,5.58V20.29z"/>
	</g>
</g>
<g>
	<g>
		<g>
			<path class="st1" d="M38.73,62.84H26.01c-0.6,0-1.08-0.49-1.08-1.08V41.93c0-0.6,0.49-1.08,1.08-1.08c0.6,0,1.08,0.49,1.08,1.08
				v18.73h11.64c0.6,0,1.08,0.49,1.08,1.08S39.33,62.84,38.73,62.84z"/>
		</g>
	</g>
	<g>
		<g>
			<g>
				<polygon class="st1" points="34.41,58.07 38.09,61.75 34.41,65.43 37.53,65.43 41.21,61.75 37.53,58.07 				"/>
			</g>
		</g>
	</g>
</g>
<g>
	<g>
		<g>
			<path class="st1" d="M56.45,37.96c-0.6,0-1.08-0.49-1.08-1.08V32.4H42.34c-0.6,0-1.08-0.49-1.08-1.08c0-0.6,0.49-1.08,1.08-1.08
				h14.1c0.6,0,1.08,0.49,1.08,1.08v5.56C57.53,37.47,57.04,37.96,56.45,37.96z"/>
		</g>
	</g>
	<g>
		<g>
			<g>
				<polygon class="st1" points="46.66,34.99 42.98,31.32 46.66,27.64 43.54,27.64 39.86,31.32 43.54,34.99 				"/>
			</g>
		</g>
	</g>
</g>
</svg>
