<svg width="18" height="18" viewBox="0 0 18 18" fill="none" xmlns="http://www.w3.org/2000/svg">
<path fill-rule="evenodd" clip-rule="evenodd" d="M9 17C13.4183 17 17 13.4183 17 9C17 4.58172 13.4183 1 9 1C4.58172 1 1 4.58172 1 9C1 13.4183 4.58172 17 9 17ZM5.70711 6.29289C5.31658 5.90237 4.68342 5.90237 4.29289 6.29289C3.90237 6.68342 3.90237 7.31658 4.29289 7.70711L8.29289 11.7071L9 12.4142L9.70711 11.7071L13.7071 7.70711C14.0976 7.31658 14.0976 6.68342 13.7071 6.29289C13.3166 5.90237 12.6834 5.90237 12.2929 6.29289L9 9.58579L5.70711 6.29289Z" fill="white"/>
</svg>
