<svg width="24" height="24" viewBox="0 0 24 24" fill="none" xmlns="http://www.w3.org/2000/svg">
<rect width="24" height="24" rx="5" fill="white"/>
<path d="M17.1098 11.2945C17.1271 9.17972 15.4007 7.241 13.2614 6.97291C13.2189 6.96765 13.1726 6.95964 13.1235 6.95116C13.0176 6.93285 12.9081 6.91403 12.7976 6.91403C12.3591 6.91403 12.2419 7.23537 12.2111 7.42701C12.1811 7.61335 12.2097 7.76982 12.296 7.89229C12.4412 8.09828 12.6966 8.13485 12.9019 8.16415C12.962 8.17282 13.0187 8.18087 13.0662 8.19201C14.9883 8.6401 15.6354 9.34458 15.9517 11.3329C15.9595 11.3815 15.9629 11.4413 15.9666 11.5048C15.9804 11.7425 16.0092 12.237 16.5187 12.237C16.5611 12.237 16.6068 12.2331 16.6542 12.2256C17.1287 12.1504 17.1138 11.6984 17.1067 11.4812C17.1047 11.42 17.1028 11.3622 17.1077 11.3237C17.1091 11.314 17.1097 11.3043 17.1098 11.2945Z" fill="#010273"/>
<path d="M12.6732 6.19664C12.7301 6.20093 12.784 6.20503 12.8289 6.2122C15.985 6.71861 17.4365 8.27879 17.8387 11.5975C17.8455 11.6539 17.8466 11.7227 17.8477 11.7956C17.8517 12.0549 17.86 12.5943 18.4152 12.6054L18.4324 12.6056C18.6066 12.6056 18.7451 12.5508 18.8441 12.4427C19.017 12.2541 19.0049 11.9739 18.9952 11.7487C18.9928 11.6934 18.9905 11.6414 18.9911 11.5958C19.0313 8.20165 16.2153 5.12382 12.965 5.00936C12.9515 5.0089 12.9387 5.00964 12.9257 5.01155C12.9193 5.01253 12.9075 5.01374 12.8872 5.01374C12.8548 5.01374 12.8149 5.01081 12.7726 5.00783C12.7215 5.00419 12.6636 5 12.6048 5C12.0872 5 11.9888 5.38385 11.9762 5.61267C11.9472 6.14149 12.4375 6.17871 12.6732 6.19664Z" fill="#010273"/>
<path d="M17.6864 15.8868C17.6193 15.8333 17.5499 15.7779 17.485 15.7233C17.1404 15.434 16.7737 15.1673 16.4192 14.9094C16.3456 14.8559 16.272 14.8024 16.1987 14.7487C15.7446 14.4159 15.3363 14.2541 14.9505 14.2541C14.4309 14.2541 13.9779 14.5537 13.604 15.1443C13.4384 15.4061 13.2374 15.5335 12.9898 15.5335C12.8433 15.5335 12.6769 15.4899 12.4952 15.4038C11.0293 14.7102 9.98253 13.6468 9.38393 12.2431C9.09456 11.5647 9.18837 11.1212 9.69763 10.7603C9.98681 10.5555 10.5251 10.1742 10.487 9.44418C10.4438 8.61513 8.69054 6.12062 7.95184 5.8373C7.63907 5.7173 7.31046 5.71618 6.97337 5.8345C6.12416 6.13236 5.51476 6.65544 5.21088 7.34712C4.91723 8.01546 4.93049 8.80021 5.24923 9.61654C6.17068 11.9767 7.4662 14.0345 9.09992 15.7327C10.699 17.3949 12.6645 18.7566 14.9417 19.7796C15.1469 19.8718 15.3622 19.922 15.5194 19.9587C15.573 19.9713 15.6192 19.982 15.6529 19.9916C15.6715 19.9969 15.6906 19.9997 15.7097 19.9999L15.7277 20C16.7988 20 18.0848 18.9789 18.4798 17.8148C18.8258 16.7954 18.1941 16.2916 17.6864 15.8868Z" fill="#010273"/>
<path d="M13.1469 8.89272C12.9635 8.89757 12.5819 8.90744 12.448 9.31295C12.3854 9.50245 12.3929 9.66699 12.4703 9.80199C12.584 10.0001 12.8018 10.0608 12.9999 10.0941C13.7183 10.2143 14.0873 10.6288 14.1611 11.3984C14.1954 11.7572 14.427 12.0078 14.7243 12.0078C14.7463 12.0078 14.7688 12.0065 14.7912 12.0036C15.1488 11.9592 15.3222 11.6851 15.3065 11.1889C15.3122 10.671 15.0525 10.0831 14.6107 9.61477C14.1674 9.14502 13.633 8.88047 13.1469 8.89272Z" fill="#010273"/>
</svg>
