<svg width="25" height="24" viewBox="0 0 25 24" fill="none" xmlns="http://www.w3.org/2000/svg">
<g clip-path="url(#clip0_184_4844)">
<mask id="mask0_184_4844" style="mask-type:luminance" maskUnits="userSpaceOnUse" x="0" y="0" width="25" height="24">
<path d="M0.5 0H24.5V24H0.5V0Z" fill="white"/>
</mask>
<g mask="url(#mask0_184_4844)">
<path fill-rule="evenodd" clip-rule="evenodd" d="M16.161 7.423H14.4C13.837 7.423 13.415 7.654 13.415 8.237V9.254H16.161L15.943 12H13.415V19.322H10.669V12H8.838V9.254H10.669V7.493C10.669 5.643 11.643 4.677 13.837 4.677H16.161V7.423ZM19.5 0H5.5C4.17392 0 2.90215 0.526784 1.96447 1.46447C1.02678 2.40215 0.5 3.67392 0.5 5L0.5 19C0.5 19.6566 0.629329 20.3068 0.880602 20.9134C1.13188 21.52 1.50017 22.0712 1.96447 22.5355C2.90215 23.4732 4.17392 24 5.5 24H19.5C20.1566 24 20.8068 23.8707 21.4134 23.6194C22.02 23.3681 22.5712 22.9998 23.0355 22.5355C23.4998 22.0712 23.8681 21.52 24.1194 20.9134C24.3707 20.3068 24.5 19.6566 24.5 19V5C24.5 4.34339 24.3707 3.69321 24.1194 3.08658C23.8681 2.47995 23.4998 1.92876 23.0355 1.46447C22.5712 1.00017 22.02 0.631876 21.4134 0.380602C20.8068 0.129329 20.1566 0 19.5 0Z" fill="white"/>
</g>
</g>
<defs>
<clipPath id="clip0_184_4844">
<rect width="25" height="24" fill="white"/>
</clipPath>
</defs>
</svg>
