<svg width="205" height="125" viewBox="0 0 205 125" fill="none" xmlns="http://www.w3.org/2000/svg">
<g clip-path="url(#clip0_184_4766)">
<path d="M86.7159 25.5768C87.9491 23.8396 89.0603 22.1045 90.337 20.4987C99.0544 9.54735 110.336 2.89853 124.104 0.749438C139.691 -1.68445 153.938 1.78565 166.46 11.5146C176.844 19.5808 183.204 30.2167 185.432 43.2537C186.389 48.8444 186.28 54.4548 185.223 60.0258C185.058 60.8977 185.304 61.1693 186.014 61.4892C193.333 64.8016 198.854 70.0155 202.213 77.3741C208.721 91.6247 203.503 108.285 189.916 116.544C187.755 117.858 185.343 118.77 183.012 119.784C181.938 120.251 181.249 119.942 180.953 119.116C180.646 118.255 181.06 117.67 182.212 117.249C192.289 113.569 199.104 106.745 201.614 96.1529C204.281 84.8992 199.547 73.2884 189.838 66.7381C187.794 65.358 185.487 64.3678 183.273 63.2505C182.286 62.751 182.02 62.3786 182.26 61.2964C186.618 41.7268 178.112 22.5273 162.141 11.6461C154.496 6.43653 146.057 3.33886 136.832 2.87662C116.055 1.83603 99.8366 9.90663 88.6681 27.7456C88.0057 28.8015 87.4327 28.9943 86.2627 28.3897C80.0924 25.2066 73.5233 23.9447 66.6471 24.4968C58.2479 25.1715 50.877 28.3612 44.7154 34.1776C38.9329 39.6324 35.4643 46.3338 34.3988 54.2423C34.1701 55.9489 34.1918 57.6927 34.1483 59.4212C34.1112 60.8692 33.7866 61.1913 32.3246 61.2416C21.4808 61.6228 12.8419 66.1313 6.91124 75.3498C0.0524143 86.0164 1.66908 100.396 10.5346 109.475C14.4041 113.438 18.9578 116.202 24.2762 117.699C24.4025 117.734 24.5246 117.791 24.6531 117.823C25.4963 118.042 25.8841 118.595 25.7447 119.447C25.6183 120.224 24.8666 120.684 23.9646 120.367C21.7226 119.58 19.4088 118.892 17.3171 117.793C8.31656 113.059 2.4469 105.77 0.577502 95.649C-1.38341 85.0328 1.68215 75.8121 9.21858 68.1862C15.025 62.3085 22.1845 59.2371 30.4029 58.661C30.9803 58.6215 31.4618 58.6435 31.4989 57.7781C32.1133 43.5538 38.8152 33.0055 51.1668 26.3304C62.2677 20.3322 73.8349 20.1833 85.4696 25.0226C85.8923 25.1978 86.3063 25.3928 86.7181 25.5746L86.7159 25.5768Z" fill="white"/>
<path d="M45.1314 102.926C52.7506 102.824 60.3677 102.736 67.9869 102.615C75.4384 102.499 82.8876 102.357 90.3391 102.219C97.2916 102.09 104.246 101.958 111.199 101.818C117.622 101.691 124.045 101.559 130.468 101.417C136.128 101.292 141.791 101.174 147.452 101.012C152.084 100.878 156.716 100.696 161.346 100.51C162.915 100.447 163.832 98.935 163.259 97.4125C161.516 92.7835 159.762 88.1567 158.014 83.5277C157.875 83.1597 157.755 82.7851 157.568 82.2505C158.984 82.2505 160.291 82.2133 161.592 82.2856C161.81 82.2965 162.087 82.75 162.189 83.0501C163.267 86.1894 164.313 89.3397 165.374 92.4877C165.457 92.7331 165.566 92.9697 165.751 93.4254C165.967 92.8404 166.124 92.4571 166.255 92.0649C167.242 89.0702 168.248 86.0799 169.192 83.0698C169.403 82.3973 169.717 82.1892 170.383 82.222C171.438 82.2746 172.497 82.2352 173.678 82.2352C173.573 82.5988 173.51 82.8727 173.414 83.1356C171.34 88.8468 169.272 94.5601 167.181 100.267C165.976 103.557 164.403 104.662 160.886 104.626C153.069 104.548 145.251 104.434 137.436 104.329C132.965 104.269 128.494 104.195 124.023 104.131C114.848 103.998 105.676 103.864 96.5007 103.73C92.0625 103.665 87.6243 103.597 83.1883 103.531C73.9807 103.397 64.7754 103.251 55.5678 103.137C52.0926 103.095 48.6153 103.13 45.1379 103.13L45.1336 102.924L45.1314 102.926Z" fill="white"/>
<path d="M155.077 98.0629H151.112C151.112 96.4637 151.127 94.9368 151.108 93.4098C151.082 91.3484 151.042 89.2869 150.981 87.2254C150.953 86.2637 150.609 85.4619 149.606 85.1355C148.554 84.7938 147.641 85.1005 146.861 85.8212C145.935 86.6778 145.741 87.8367 145.72 89.0153C145.674 91.5784 145.672 94.1415 145.659 96.7047C145.65 98.1374 145.659 98.1374 144.183 98.1374C143.586 98.1374 142.987 98.1045 142.395 98.1462C141.726 98.1922 141.549 97.8964 141.556 97.2655C141.584 94.9674 141.578 92.6694 141.56 90.3735C141.554 89.4096 141.514 88.4457 141.451 87.4839C141.351 85.9745 140.863 85.2538 139.852 85.0435C138.586 84.7806 137.035 85.4115 136.632 86.6361C136.244 87.8104 136.087 89.0963 136.039 90.3406C135.95 92.6343 136.015 94.9346 136.009 97.2326C136.009 97.4911 135.965 97.7496 135.93 98.1286C134.738 98.1286 133.586 98.1527 132.435 98.1023C132.257 98.0936 131.947 97.7343 131.947 97.5371C131.932 92.5445 131.952 87.5497 131.969 82.557C131.969 82.4979 132.021 82.4365 132.08 82.3073H135.717C135.745 82.9141 135.771 83.4684 135.806 84.222C137.222 82.8221 138.684 81.8604 140.641 81.8538C142.6 81.8494 144.103 82.5877 145.175 84.2965C145.65 83.8693 146.042 83.4771 146.473 83.1332C148.234 81.7268 150.21 81.5055 152.28 82.2219C153.927 82.7936 155.006 84.0292 155.049 85.773C155.149 89.828 155.082 93.8852 155.082 98.0585L155.077 98.0629Z" fill="white"/>
<path d="M37.998 98.1376C38.9524 95.6775 39.8282 93.4254 40.6997 91.1712C42.5474 86.4064 44.4059 81.6459 46.2273 76.8724C46.4539 76.2809 46.7263 76.0465 47.3668 76.0815C48.3909 76.1385 49.4236 76.0487 50.4433 76.1253C50.7766 76.1494 51.2669 76.4233 51.3823 76.7059C54.193 83.6614 56.9644 90.6344 59.738 97.6031C59.7729 97.6929 59.7707 97.7981 59.8208 98.1376C58.7575 98.1376 57.7161 98.0522 56.6964 98.1595C55.546 98.2822 54.9447 97.8945 54.644 96.7575C54.3738 95.7366 53.8836 94.7771 53.5306 93.7759C53.3541 93.2742 53.1036 93.0289 52.5327 93.0333C50.0816 93.0596 47.6305 93.0574 45.1793 93.0333C44.6085 93.0267 44.3645 93.2742 44.1923 93.7869C43.7936 94.983 43.3121 96.1507 42.9221 97.349C42.7413 97.9032 42.4842 98.1683 41.8698 98.1464C40.6518 98.107 39.4317 98.1354 37.998 98.1354V98.1376ZM51.8573 89.4274C50.8355 86.6671 49.8703 84.0601 48.9051 81.4553C48.8288 81.4641 48.7525 81.4729 48.6763 81.4816C47.7307 84.0973 46.7873 86.7152 45.809 89.4274H51.8573Z" fill="white"/>
<path d="M142.774 62.5646C142.774 68.0589 139.05 71.8664 133.677 71.8642C128.041 71.862 124.518 68.2561 124.513 62.4879C124.511 57.09 128.265 53.311 133.638 53.3023C139.024 53.2935 142.774 57.0966 142.774 62.5668V62.5646ZM138.203 62.5646C137.95 61.5678 137.817 60.4944 137.41 59.5436C136.725 57.9466 135.399 57.0747 133.66 57.0769C131.878 57.0791 130.546 57.9926 129.843 59.6181C129.006 61.5547 128.991 63.5789 129.825 65.5199C130.518 67.1322 131.775 68.0808 133.601 68.1005C135.466 68.1203 136.769 67.2002 137.464 65.5243C137.837 64.6261 137.95 63.6183 138.203 62.5624V62.5646Z" fill="white"/>
<path d="M107.162 95.9029C106.802 96.214 106.654 96.3257 106.523 96.4571C103.625 99.4014 99.3636 99.0619 97.004 95.6948C95.0191 92.8666 94.9647 87.4336 96.8907 84.5791C98.9388 81.5449 103.148 80.9315 105.965 83.2559C106.185 83.4377 106.408 83.6195 106.782 83.9262V76.1602H110.879V98.1265C109.787 98.1265 108.735 98.1527 107.687 98.1002C107.504 98.0914 107.225 97.7694 107.188 97.5591C107.109 97.1122 107.164 96.6433 107.164 95.9007L107.162 95.9029ZM99.6186 89.9441C99.6556 89.9551 99.6926 89.966 99.7297 89.9748C99.7645 90.5378 99.7689 91.1052 99.8452 91.6638C99.904 92.0867 100.022 92.5095 100.168 92.9126C100.673 94.2927 101.871 95.1778 103.235 95.2172C104.473 95.2522 105.819 94.3803 106.321 93.0725C107.072 91.1074 107.055 89.0876 106.331 87.1269C105.826 85.7577 104.756 85.0019 103.272 85.0085C101.789 85.0172 100.734 85.8037 100.218 87.1488C99.88 88.0273 99.8081 89.0065 99.6186 89.9419V89.9441Z" fill="white"/>
<path d="M75.6192 71.5006H71.6778V49.6504H75.6911V57.5983C76.1182 57.2325 76.3491 57.0331 76.5801 56.8359C78.4996 55.2039 80.6566 54.8752 82.9922 55.7165C84.598 56.2948 85.6918 57.5041 85.7833 59.169C86.012 63.246 86.0295 67.3338 86.134 71.4896H81.8963C81.8963 70.7689 81.9028 70.1117 81.8963 69.4545C81.8636 66.6591 81.8658 63.8637 81.7743 61.0706C81.722 59.4867 81.0749 58.7397 79.8003 58.4812C78.4625 58.2095 76.8393 58.8558 76.3687 60.0957C75.9787 61.1254 75.7805 62.2777 75.7412 63.3862C75.6497 65.98 75.7042 68.5804 75.6977 71.1785C75.6977 71.2421 75.6672 71.3078 75.6214 71.4984L75.6192 71.5006Z" fill="white"/>
<path d="M93.1388 98.133C91.764 98.133 90.6419 98.1593 89.522 98.1111C89.3042 98.1024 89.0275 97.8438 88.9011 97.6292C88.7072 97.2984 88.62 96.904 88.4544 96.444C88.1211 96.7003 87.8705 96.8975 87.6134 97.088C85.7876 98.4572 83.7504 98.7596 81.5891 98.1922C79.6914 97.6949 78.4451 96.1351 78.3318 94.2533C78.1923 91.9464 79.0748 90.3275 81.1272 89.6177C82.7417 89.0591 84.4477 88.7633 86.1122 88.3493C86.3998 88.277 86.6983 88.2288 86.9729 88.1193C87.45 87.9287 88.1821 88.0513 88.1559 87.2014C88.1276 86.3141 87.8858 85.5583 86.9576 85.221C85.0032 84.509 83.5456 85.0523 82.4105 86.9757C81.8287 86.8706 81.2187 86.7588 80.6086 86.6493C80.0269 86.5441 79.4452 86.4412 78.7523 86.3185C79.2687 84.4323 80.223 82.9755 82.0706 82.3708C84.4585 81.5887 86.9097 81.6216 89.302 82.338C91.2629 82.9251 92.1104 84.2548 92.1911 86.612C92.2412 88.1083 92.1889 89.6068 92.2041 91.103C92.2281 93.4142 91.9427 95.7605 93.1388 98.1352V98.133ZM88.0535 90.4677C86.5589 90.8598 85.0969 91.1468 83.7047 91.6332C82.3081 92.1217 82.0183 93.7122 83.0118 94.8031C83.6764 95.5326 84.8573 95.7451 85.9575 95.3333C87.8226 94.6366 88.4239 93.3134 88.0535 90.4677Z" fill="white"/>
<path d="M118.31 91.344C118.193 93.2915 119.191 94.8382 120.731 95.2544C122.413 95.7101 123.352 95.1799 124.472 93.1119C125.747 93.331 127.036 93.5544 128.474 93.8042C127.81 95.6597 126.744 97.007 125.038 97.7935C119.626 100.286 114.092 96.8909 114.005 90.9343C113.981 89.3417 114.201 87.6526 114.737 86.163C115.857 83.0499 118.77 81.5427 122.348 81.8976C125.385 82.2 127.721 84.3512 128.379 87.5234C128.572 88.4632 128.62 89.4337 128.749 90.3867C128.849 91.1337 128.544 91.3681 127.801 91.3571C125.019 91.3199 122.237 91.3418 119.454 91.3418C119.095 91.3418 118.737 91.3418 118.31 91.3418V91.344ZM118.36 88.7151H124.568C124.437 86.2374 123.104 84.8376 121.149 85.015C119.402 85.1749 118.164 86.7939 118.36 88.7151Z" fill="white"/>
<path d="M104.037 64.823H93.5201C93.2674 66.5186 94.2674 68.1792 95.7621 68.6546C97.4594 69.1935 98.5684 68.613 99.636 66.569C100.902 66.7793 102.192 66.994 103.645 67.235C103.041 68.9482 102.111 70.2056 100.627 71.014C95.2675 73.9386 89.3325 70.4992 89.1168 64.3367C89.034 61.9948 89.3543 59.7274 90.8947 57.8434C92.8817 55.4139 95.5137 54.8597 98.4333 55.5235C101.24 56.1609 102.867 58.0734 103.501 60.8206C103.791 62.0715 103.85 63.375 104.035 64.823H104.037ZM93.5528 62.284C95.444 62.284 97.3548 62.2993 99.2656 62.2599C99.4377 62.2555 99.7406 61.9116 99.7471 61.7166C99.8037 59.8808 98.1457 58.2991 96.3656 58.4437C94.5681 58.5905 93.2608 60.3102 93.5528 62.284Z" fill="white"/>
<path d="M62.2109 71.4918H57.8751V53.2848H51.3998V49.6548H68.6667V53.2125H62.2109V71.4918Z" fill="white"/>
<path d="M153.541 71.4806H149.155V53.2627H142.674C142.674 52.1344 142.634 51.0851 142.711 50.0445C142.724 49.8671 143.22 49.5954 143.499 49.591C145.356 49.5494 147.212 49.5691 149.068 49.5691C152.317 49.5691 155.565 49.5691 158.814 49.5691H159.967V53.221H153.544V71.4828L153.541 71.4806Z" fill="white"/>
<path d="M72.3205 92.0646C73.6648 92.3012 74.9547 92.5246 76.3208 92.7656C75.6998 95.3331 74.4601 97.2325 71.9196 98.043C68.2832 99.1997 64.588 98.1197 62.7665 95.3726C60.9451 92.6232 60.8928 87.6174 62.8079 84.936C63.4419 84.0487 64.3353 83.2228 65.2939 82.7234C67.6819 81.4768 70.2223 81.5338 72.6931 82.5284C74.5494 83.2754 75.5081 84.8571 76.1138 86.8397C74.7891 87.0917 73.5036 87.3348 72.1549 87.5911C72.0765 87.4137 71.9981 87.2472 71.9305 87.0763C71.4141 85.74 70.486 85.0302 69.1569 85.074C67.8061 85.1178 66.6491 85.6545 66.1654 86.9931C65.4203 89.0611 65.4595 91.1861 66.2439 93.2344C66.7363 94.5204 68.0109 95.1601 69.475 95.0768C70.7409 95.0023 71.5579 94.3232 72.0395 92.9431C72.1266 92.6955 72.2029 92.4414 72.3227 92.0668L72.3205 92.0646Z" fill="white"/>
<path d="M115.809 60.4638C115.809 57.1689 115.831 53.8719 115.794 50.5771C115.785 49.7928 116.023 49.4992 116.811 49.5562C117.635 49.6153 118.469 49.6044 119.295 49.5584C119.992 49.5189 120.215 49.784 120.208 50.4785C120.18 53.6747 120.195 56.871 120.195 60.0672C120.195 63.5636 120.175 67.0578 120.21 70.5542C120.219 71.3385 119.981 71.632 119.193 71.5751C118.369 71.5159 117.535 71.5269 116.709 71.5729C116.012 71.6123 115.79 71.3472 115.796 70.6528C115.822 67.2572 115.809 63.8616 115.809 60.4659V60.4638Z" fill="white"/>
<path d="M31.0347 117.004C31.3397 116.463 31.7536 116.038 32.2787 115.733C32.8038 115.429 33.3856 115.275 34.0283 115.275C34.7822 115.275 35.4402 115.457 36.0001 115.823C36.5622 116.189 36.9718 116.706 37.2289 117.378H36.1483C35.9565 116.96 35.6798 116.638 35.3203 116.412C34.9608 116.187 34.5294 116.075 34.0261 116.075C33.5228 116.075 33.111 116.189 32.7276 116.412C32.3441 116.638 32.0434 116.96 31.8256 117.374C31.6077 117.79 31.4966 118.277 31.4966 118.833C31.4966 119.39 31.6055 119.867 31.8256 120.283C32.0434 120.7 32.3441 121.019 32.7276 121.245C33.111 121.471 33.5446 121.582 34.0261 121.582C34.5076 121.582 34.9586 121.471 35.3203 121.249C35.682 121.028 35.9565 120.706 36.1483 120.288H37.2289C36.9718 120.952 36.5622 121.466 36.0001 121.828C35.438 122.189 34.7822 122.371 34.0283 122.371C33.3877 122.371 32.8038 122.22 32.2787 121.918C31.7536 121.615 31.3397 121.195 31.0347 120.656C30.7318 120.117 30.5793 119.51 30.5793 118.833C30.5793 118.156 30.7318 117.547 31.0347 117.004Z" fill="white"/>
<path d="M39.5559 122.051C39.1419 121.819 38.8173 121.488 38.5841 121.059C38.3488 120.63 38.2333 120.134 38.2333 119.569C38.2333 119.004 38.3532 118.518 38.595 118.091C38.8369 117.661 39.1659 117.333 39.582 117.105C39.9982 116.875 40.4644 116.761 40.9786 116.761C41.4928 116.761 41.9612 116.875 42.3774 117.105C42.7935 117.335 43.1225 117.661 43.3644 118.086C43.6062 118.511 43.7261 119.006 43.7261 119.571C43.7261 120.137 43.6019 120.632 43.3535 121.061C43.1051 121.488 42.7696 121.821 42.3469 122.054C41.9242 122.286 41.4536 122.402 40.9394 122.402C40.4252 122.402 39.9698 122.286 39.558 122.054L39.5559 122.051ZM41.8479 121.372C42.1312 121.219 42.3621 120.991 42.5364 120.684C42.7107 120.38 42.7979 120.007 42.7979 119.567C42.7979 119.127 42.7129 118.756 42.5408 118.452C42.3687 118.147 42.1443 117.92 41.8676 117.768C41.5909 117.62 41.288 117.545 40.9655 117.545C40.6431 117.545 40.3337 117.62 40.0592 117.768C39.7846 117.917 39.5646 118.145 39.399 118.452C39.2334 118.756 39.1506 119.129 39.1506 119.567C39.1506 120.005 39.2334 120.389 39.3946 120.693C39.558 120.998 39.7737 121.225 40.0439 121.377C40.3141 121.526 40.6126 121.6 40.935 121.6C41.2575 121.6 41.5625 121.523 41.8479 121.37V121.372Z" fill="white"/>
<path d="M49.1622 117.352C49.5718 117.755 49.7766 118.334 49.7766 119.092V122.31H48.8833V119.221C48.8833 118.675 48.7482 118.259 48.4759 117.97C48.2057 117.681 47.8353 117.536 47.3669 117.536C46.8984 117.536 46.5128 117.685 46.2317 117.985C45.9506 118.283 45.8112 118.719 45.8112 119.291V122.31H44.9092V116.848H45.8112V117.626C45.9899 117.348 46.2317 117.131 46.5411 116.978C46.8483 116.824 47.186 116.748 47.5564 116.748C48.2188 116.748 48.7526 116.949 49.1622 117.35V117.352Z" fill="white"/>
<path d="M55.5068 117.352C55.9164 117.755 56.1212 118.334 56.1212 119.092V122.31H55.2279V119.221C55.2279 118.675 55.0928 118.259 54.8205 117.97C54.5503 117.681 54.1799 117.536 53.7115 117.536C53.243 117.536 52.8574 117.685 52.5763 117.985C52.2952 118.283 52.1558 118.719 52.1558 119.291V122.31H51.2538V116.848H52.1558V117.626C52.3345 117.348 52.5763 117.131 52.8857 116.978C53.1929 116.824 53.5306 116.748 53.901 116.748C54.5634 116.748 55.0972 116.949 55.5068 117.35V117.352Z" fill="white"/>
<path d="M62.5225 119.918H58.1802C58.2129 120.456 58.3981 120.877 58.7314 121.179C59.0648 121.482 59.47 121.633 59.945 121.633C60.335 121.633 60.6596 121.541 60.9211 121.359C61.1804 121.177 61.3656 120.932 61.4701 120.627H62.4419C62.2959 121.153 62.0061 121.578 61.5704 121.909C61.1346 122.238 60.5921 122.402 59.945 122.402C59.4308 122.402 58.9689 122.286 58.5615 122.054C58.154 121.821 57.8359 121.49 57.605 121.061C57.374 120.632 57.2585 120.137 57.2585 119.571C57.2585 119.006 57.3718 118.511 57.5963 118.086C57.8207 117.661 58.1366 117.333 58.5419 117.105C58.9471 116.877 59.4155 116.761 59.945 116.761C60.4744 116.761 60.9167 116.875 61.3133 117.1C61.7098 117.326 62.0148 117.637 62.2305 118.031C62.4462 118.428 62.553 118.875 62.553 119.372C62.553 119.545 62.5421 119.727 62.5225 119.92V119.918ZM61.3939 118.29C61.2414 118.04 61.0366 117.852 60.7751 117.722C60.5158 117.593 60.2261 117.527 59.908 117.527C59.4526 117.527 59.0648 117.674 58.7423 117.966C58.4198 118.257 58.239 118.662 58.1932 119.181H61.6227C61.6227 118.838 61.5464 118.54 61.3939 118.29Z" fill="white"/>
<path d="M63.7426 118.091C63.967 117.668 64.2786 117.341 64.6795 117.109C65.0782 116.877 65.5358 116.761 66.0521 116.761C66.7188 116.761 67.2701 116.925 67.7015 117.249C68.1351 117.576 68.4205 118.027 68.5599 118.603H67.5882C67.4967 118.27 67.3158 118.009 67.0478 117.817C66.7799 117.624 66.4487 117.527 66.0521 117.527C65.5379 117.527 65.1218 117.705 64.8037 118.06C64.4856 118.415 64.3265 118.919 64.3265 119.569C64.3265 120.22 64.4856 120.735 64.8037 121.094C65.1218 121.453 65.5379 121.633 66.0521 121.633C66.4487 121.633 66.7798 121.541 67.0435 121.355C67.3071 121.168 67.488 120.903 67.5882 120.557H68.5599C68.4139 121.116 68.1242 121.563 67.6884 121.898C67.2526 122.233 66.7058 122.402 66.0521 122.402C65.5379 122.402 65.0782 122.286 64.6795 122.054C64.2786 121.821 63.967 121.493 63.7426 121.068C63.5182 120.643 63.4049 120.143 63.4049 119.574C63.4049 119.004 63.5182 118.516 63.7426 118.095V118.091Z" fill="white"/>
<path d="M70.8585 117.595V120.814C70.8585 121.079 70.9152 121.267 71.0263 121.377C71.1396 121.486 71.3335 121.541 71.6124 121.541H72.2769V122.308H71.4642C70.9609 122.308 70.5862 122.192 70.3334 121.959C70.0829 121.727 69.9565 121.344 69.9565 120.814V117.595H69.2527V116.848H69.9565V115.473H70.8585V116.848H72.2747V117.595H70.8585Z" fill="white"/>
<path d="M73.3968 115.782C73.2791 115.661 73.2181 115.516 73.2181 115.343C73.2181 115.17 73.2791 115.024 73.3968 114.905C73.5166 114.785 73.6604 114.726 73.8326 114.726C74.0047 114.726 74.1376 114.785 74.2531 114.905C74.3685 115.026 74.4274 115.17 74.4274 115.343C74.4274 115.516 74.3685 115.663 74.2531 115.782C74.1376 115.902 73.9981 115.961 73.8326 115.961C73.667 115.961 73.5145 115.902 73.3968 115.782ZM74.2683 116.848V122.31H73.3663V116.848H74.2683Z" fill="white"/>
<path d="M80.0574 117.352C80.467 117.755 80.6718 118.334 80.6718 119.092V122.31H79.7785V119.221C79.7785 118.675 79.6434 118.259 79.3711 117.97C79.1009 117.681 78.7305 117.536 78.2621 117.536C77.7936 117.536 77.408 117.685 77.1269 117.985C76.8458 118.283 76.7064 118.719 76.7064 119.291V122.31H75.8044V116.848H76.7064V117.626C76.8851 117.348 77.1269 117.131 77.4363 116.978C77.7435 116.824 78.0812 116.748 78.4516 116.748C79.114 116.748 79.6478 116.949 80.0574 117.35V117.352Z" fill="white"/>
<path d="M85.622 117.067C85.975 117.273 86.2386 117.532 86.4107 117.845V116.848H87.3215V122.428C87.3215 122.928 87.2169 123.37 87.0034 123.758C86.792 124.146 86.4914 124.45 86.097 124.669C85.7048 124.888 85.2473 124.998 84.7244 124.998C84.0097 124.998 83.4149 124.829 82.9399 124.49C82.465 124.15 82.1839 123.688 82.0989 123.105H82.99C83.0881 123.438 83.2951 123.703 83.6045 123.907C83.916 124.111 84.2886 124.211 84.7244 124.211C85.2211 124.211 85.6242 124.056 85.9379 123.743C86.2517 123.429 86.4086 122.991 86.4086 122.428V121.282C86.2299 121.6 85.9663 121.867 85.6155 122.08C85.2669 122.292 84.8573 122.4 84.3866 122.4C83.916 122.4 83.4672 122.279 83.0728 122.04C82.6807 121.802 82.3713 121.466 82.1469 121.035C81.9224 120.603 81.8091 120.11 81.8091 119.56C81.8091 119.011 81.9224 118.513 82.1469 118.091C82.3713 117.668 82.6807 117.341 83.0728 117.109C83.4672 116.877 83.9051 116.761 84.3866 116.761C84.8682 116.761 85.2669 116.864 85.622 117.07V117.067ZM86.1624 118.494C85.9968 118.187 85.7745 117.952 85.4935 117.79C85.2124 117.628 84.9052 117.547 84.5675 117.547C84.2298 117.547 83.9226 117.626 83.6459 117.786C83.3692 117.946 83.1469 118.178 82.9813 118.483C82.8157 118.787 82.7329 119.146 82.7329 119.558C82.7329 119.97 82.8157 120.34 82.9813 120.649C83.1469 120.958 83.367 121.195 83.6459 121.357C83.9247 121.519 84.232 121.6 84.5675 121.6C84.903 121.6 85.2146 121.519 85.4935 121.357C85.7724 121.195 85.9968 120.958 86.1624 120.649C86.3279 120.34 86.4107 119.979 86.4107 119.567C86.4107 119.155 86.3279 118.796 86.1624 118.491V118.494Z" fill="white"/>
<path d="M95.7468 115.363V116.102H93.8644V122.31H92.9623V116.102H91.069V115.363H95.7468Z" fill="white"/>
<path d="M100.662 117.013C100.993 117.188 101.25 117.453 101.44 117.806C101.63 118.159 101.723 118.586 101.723 119.092V122.31H100.83V119.221C100.83 118.676 100.695 118.259 100.423 117.97C100.152 117.681 99.7819 117.536 99.3135 117.536C98.8451 117.536 98.4594 117.685 98.1784 117.986C97.8973 118.283 97.7578 118.719 97.7578 119.291V122.31H96.8558V114.936H97.7578V117.626C97.9365 117.348 98.1827 117.131 98.4965 116.978C98.8102 116.824 99.1632 116.748 99.551 116.748C99.9606 116.748 100.331 116.835 100.662 117.011V117.013Z" fill="white"/>
<path d="M108.127 119.918H103.784C103.817 120.456 104.002 120.877 104.336 121.179C104.669 121.482 105.074 121.633 105.549 121.633C105.939 121.633 106.264 121.541 106.525 121.359C106.785 121.177 106.97 120.932 107.074 120.627H108.046C107.9 121.153 107.61 121.578 107.175 121.909C106.739 122.238 106.196 122.402 105.549 122.402C105.035 122.402 104.573 122.286 104.166 122.054C103.758 121.821 103.44 121.49 103.209 121.061C102.978 120.632 102.863 120.137 102.863 119.571C102.863 119.006 102.976 118.511 103.2 118.086C103.425 117.661 103.741 117.333 104.146 117.105C104.551 116.877 105.02 116.761 105.549 116.761C106.079 116.761 106.521 116.875 106.917 117.1C107.314 117.326 107.619 117.637 107.835 118.031C108.05 118.428 108.157 118.875 108.157 119.372C108.157 119.545 108.146 119.727 108.127 119.92V119.918ZM106.996 118.29C106.843 118.04 106.639 117.852 106.377 117.722C106.118 117.593 105.828 117.527 105.51 117.527C105.055 117.527 104.667 117.674 104.344 117.966C104.022 118.257 103.841 118.662 103.795 119.181H107.225C107.225 118.838 107.148 118.54 106.996 118.29Z" fill="white"/>
<path d="M112.872 115.363V119.758C112.872 120.376 113.022 120.834 113.323 121.134C113.624 121.432 114.042 121.583 114.578 121.583C115.114 121.583 115.522 121.434 115.822 121.134C116.123 120.836 116.273 120.376 116.273 119.758V115.363H117.175V119.749C117.175 120.327 117.06 120.814 116.829 121.208C116.598 121.602 116.286 121.898 115.892 122.091C115.5 122.284 115.057 122.38 114.569 122.38C114.081 122.38 113.639 122.284 113.245 122.091C112.852 121.898 112.541 121.605 112.314 121.208C112.088 120.812 111.972 120.325 111.972 119.749V115.363H112.874H112.872Z" fill="white"/>
<path d="M122.932 117.352C123.341 117.755 123.546 118.334 123.546 119.092V122.31H122.653V119.221C122.653 118.675 122.518 118.259 122.245 117.97C121.975 117.681 121.605 117.536 121.136 117.536C120.668 117.536 120.282 117.685 120.001 117.985C119.72 118.283 119.581 118.719 119.581 119.291V122.31H118.679V116.848H119.581V117.626C119.759 117.348 120.001 117.131 120.31 116.978C120.618 116.824 120.955 116.748 121.326 116.748C121.988 116.748 122.522 116.949 122.932 117.35V117.352Z" fill="white"/>
<path d="M125.023 118.091C125.248 117.668 125.559 117.341 125.96 117.109C126.359 116.877 126.816 116.761 127.333 116.761C127.999 116.761 128.551 116.925 128.982 117.249C129.416 117.576 129.701 118.027 129.84 118.603H128.869C128.777 118.27 128.596 118.009 128.328 117.817C128.06 117.624 127.729 117.527 127.333 117.527C126.819 117.527 126.402 117.705 126.084 118.06C125.766 118.415 125.607 118.919 125.607 119.569C125.607 120.22 125.766 120.735 126.084 121.094C126.402 121.453 126.819 121.633 127.333 121.633C127.729 121.633 128.06 121.541 128.324 121.355C128.588 121.168 128.769 120.903 128.869 120.557H129.84C129.695 121.116 129.405 121.563 128.969 121.898C128.533 122.233 127.986 122.402 127.333 122.402C126.819 122.402 126.359 122.286 125.96 122.054C125.559 121.821 125.248 121.493 125.023 121.068C124.799 120.643 124.685 120.143 124.685 119.574C124.685 119.004 124.799 118.516 125.023 118.095V118.091Z" fill="white"/>
<path d="M132.026 122.051C131.612 121.819 131.287 121.488 131.054 121.059C130.819 120.63 130.703 120.134 130.703 119.569C130.703 119.004 130.823 118.518 131.065 118.091C131.307 117.661 131.636 117.333 132.052 117.105C132.468 116.877 132.934 116.761 133.449 116.761C133.963 116.761 134.431 116.875 134.847 117.105C135.264 117.335 135.593 117.661 135.834 118.086C136.076 118.511 136.196 119.006 136.196 119.571C136.196 120.137 136.072 120.632 135.823 121.061C135.575 121.488 135.24 121.821 134.817 122.054C134.394 122.286 133.924 122.402 133.409 122.402C132.895 122.402 132.44 122.286 132.028 122.054L132.026 122.051ZM134.32 121.372C134.603 121.219 134.834 120.991 135.009 120.684C135.183 120.38 135.27 120.007 135.27 119.567C135.27 119.127 135.185 118.756 135.013 118.452C134.841 118.147 134.616 117.92 134.34 117.768C134.063 117.62 133.76 117.545 133.438 117.545C133.115 117.545 132.806 117.62 132.531 117.768C132.257 117.917 132.037 118.145 131.871 118.452C131.706 118.756 131.623 119.129 131.623 119.567C131.623 120.005 131.706 120.389 131.867 120.693C132.03 120.998 132.246 121.225 132.516 121.377C132.786 121.526 133.085 121.6 133.407 121.6C133.73 121.6 134.035 121.523 134.32 121.37V121.372Z" fill="white"/>
<path d="M141.634 117.352C142.044 117.755 142.249 118.334 142.249 119.092V122.31H141.355V119.221C141.355 118.675 141.22 118.259 140.948 117.97C140.678 117.681 140.307 117.536 139.839 117.536C139.371 117.536 138.985 117.685 138.704 117.985C138.423 118.283 138.283 118.719 138.283 119.291V122.31H137.381V116.848H138.283V117.626C138.462 117.348 138.704 117.131 139.013 116.978C139.32 116.824 139.658 116.748 140.029 116.748C140.691 116.748 141.225 116.949 141.634 117.35V117.352Z" fill="white"/>
<path d="M147.979 117.352C148.389 117.755 148.593 118.334 148.593 119.092V122.31H147.7V119.221C147.7 118.675 147.565 118.259 147.293 117.97C147.022 117.681 146.652 117.536 146.184 117.536C145.715 117.536 145.33 117.685 145.048 117.985C144.767 118.283 144.628 118.719 144.628 119.291V122.31H143.726V116.848H144.628V117.626C144.807 117.348 145.048 117.131 145.358 116.978C145.665 116.824 146.003 116.748 146.373 116.748C147.036 116.748 147.569 116.949 147.979 117.35V117.352Z" fill="white"/>
<path d="M154.997 119.918H150.654C150.687 120.456 150.872 120.877 151.206 121.179C151.539 121.482 151.944 121.633 152.419 121.633C152.809 121.633 153.134 121.541 153.395 121.359C153.655 121.177 153.84 120.932 153.944 120.627H154.916C154.77 121.153 154.48 121.578 154.045 121.909C153.609 122.238 153.066 122.402 152.419 122.402C151.905 122.402 151.443 122.286 151.036 122.054C150.628 121.821 150.31 121.49 150.079 121.061C149.848 120.632 149.733 120.137 149.733 119.571C149.733 119.006 149.846 118.511 150.071 118.086C150.295 117.661 150.611 117.333 151.016 117.105C151.421 116.877 151.89 116.761 152.419 116.761C152.949 116.761 153.391 116.875 153.788 117.1C154.184 117.326 154.489 117.637 154.705 118.031C154.921 118.428 155.027 118.875 155.027 119.372C155.027 119.545 155.016 119.727 154.997 119.92V119.918ZM153.866 118.29C153.714 118.04 153.509 117.852 153.247 117.722C152.988 117.593 152.698 117.527 152.38 117.527C151.925 117.527 151.537 117.674 151.214 117.966C150.892 118.257 150.711 118.662 150.665 119.181H154.095C154.095 118.838 154.019 118.54 153.866 118.29Z" fill="white"/>
<path d="M156.215 118.091C156.439 117.668 156.751 117.341 157.152 117.109C157.55 116.877 158.008 116.761 158.524 116.761C159.191 116.761 159.742 116.925 160.174 117.249C160.607 117.576 160.893 118.027 161.032 118.603H160.06C159.969 118.27 159.788 118.009 159.52 117.817C159.252 117.624 158.921 117.527 158.524 117.527C158.01 117.527 157.594 117.705 157.276 118.06C156.958 118.415 156.799 118.919 156.799 119.569C156.799 120.22 156.958 120.735 157.276 121.094C157.594 121.453 158.01 121.633 158.524 121.633C158.921 121.633 159.252 121.541 159.516 121.355C159.779 121.168 159.96 120.903 160.06 120.557H161.032C160.886 121.116 160.596 121.563 160.161 121.898C159.725 122.233 159.178 122.402 158.524 122.402C158.01 122.402 157.55 122.286 157.152 122.054C156.751 121.821 156.439 121.493 156.215 121.068C155.99 120.643 155.877 120.143 155.877 119.574C155.877 119.004 155.99 118.516 156.215 118.095V118.091Z" fill="white"/>
<path d="M163.333 117.595V120.814C163.333 121.079 163.39 121.267 163.501 121.377C163.614 121.486 163.808 121.541 164.087 121.541H164.751V122.308H163.939C163.435 122.308 163.061 122.192 162.808 121.959C162.557 121.727 162.431 121.344 162.431 120.814V117.595H161.727V116.848H162.431V115.473H163.333V116.848H164.749V117.595H163.333Z" fill="white"/>
<path d="M170.765 119.918H166.422C166.455 120.456 166.64 120.877 166.974 121.179C167.307 121.482 167.712 121.633 168.187 121.633C168.577 121.633 168.902 121.541 169.163 121.359C169.423 121.177 169.608 120.932 169.712 120.627H170.684C170.538 121.153 170.248 121.578 169.813 121.909C169.377 122.238 168.834 122.402 168.187 122.402C167.673 122.402 167.211 122.286 166.804 122.054C166.396 121.821 166.078 121.49 165.847 121.061C165.616 120.632 165.501 120.137 165.501 119.571C165.501 119.006 165.614 118.511 165.838 118.086C166.063 117.661 166.379 117.333 166.784 117.105C167.189 116.877 167.658 116.761 168.187 116.761C168.717 116.761 169.159 116.875 169.555 117.1C169.952 117.326 170.257 117.637 170.473 118.031C170.688 118.428 170.795 118.875 170.795 119.372C170.795 119.545 170.784 119.727 170.765 119.92V119.918ZM169.634 118.29C169.481 118.04 169.277 117.852 169.015 117.722C168.756 117.593 168.466 117.527 168.148 117.527C167.693 117.527 167.305 117.674 166.982 117.966C166.66 118.257 166.479 118.662 166.433 119.181H169.863C169.863 118.838 169.786 118.54 169.634 118.29Z" fill="white"/>
<path d="M171.985 118.09C172.209 117.668 172.519 117.341 172.911 117.109C173.305 116.877 173.745 116.761 174.236 116.761C174.658 116.761 175.05 116.859 175.414 117.054C175.778 117.251 176.055 117.508 176.249 117.828V114.938H177.159V122.312H176.249V121.287C176.07 121.613 175.806 121.878 175.456 122.088C175.107 122.299 174.697 122.402 174.227 122.402C173.756 122.402 173.307 122.281 172.913 122.042C172.521 121.804 172.211 121.469 171.987 121.037C171.763 120.605 171.649 120.112 171.649 119.563C171.649 119.013 171.763 118.515 171.987 118.093L171.985 118.09ZM175.998 118.494C175.833 118.187 175.61 117.952 175.329 117.79C175.048 117.628 174.741 117.547 174.403 117.547C174.066 117.547 173.758 117.626 173.482 117.786C173.205 117.946 172.983 118.178 172.817 118.483C172.652 118.787 172.569 119.146 172.569 119.558C172.569 119.97 172.652 120.34 172.817 120.649C172.983 120.958 173.203 121.195 173.482 121.357C173.761 121.519 174.068 121.6 174.403 121.6C174.739 121.6 175.05 121.519 175.329 121.357C175.608 121.195 175.833 120.958 175.998 120.649C176.164 120.34 176.247 119.979 176.247 119.567C176.247 119.155 176.164 118.796 175.998 118.491V118.494Z" fill="white"/>
</g>
<defs>
<clipPath id="clip0_184_4766">
<rect width="205" height="125" fill="white"/>
</clipPath>
</defs>
</svg>
