<svg width="25" height="24" viewBox="0 0 25 24" fill="none" xmlns="http://www.w3.org/2000/svg">
<g clip-path="url(#clip0_184_4839)">
<path d="M20.126 0.000488281C22.3351 0.000488281 24.126 1.79135 24.126 4.00049V20.0005C24.126 22.2096 22.3351 24.0005 20.126 24.0005H4.126C1.91686 24.0005 0.125999 22.2096 0.125999 20.0005V4.00049C0.125999 1.79135 1.91686 0.000488281 4.126 0.000488281H20.126ZM16.2125 3.5614H8.1607L7.17659 3.86558C5.33248 4.28082 3.96222 5.83138 3.77693 7.71256C3.70265 8.15581 3.67268 8.60535 3.68746 9.05453V15.3171C3.6071 16.8383 4.23459 18.3112 5.38729 19.3072C6.32269 20.057 7.50005 20.4389 8.69749 20.3808H15.4073C16.9409 20.4724 18.4295 19.8439 19.4333 18.6809C20.0105 17.8571 20.3789 16.9053 20.5068 15.9075V8.03463C20.4604 7.57976 20.3706 7.13039 20.2384 6.69266C19.757 5.14334 18.4403 3.99988 16.8388 3.74033C16.794 3.71796 16.7437 3.70119 16.6906 3.68721L16.3607 3.61452L16.2125 3.5614ZM8.69749 5.26123C11.0236 5.17176 13.3497 5.17176 15.6757 5.26123C16.5672 5.21435 17.4367 5.54802 18.0679 6.17925C18.6991 6.81048 19.0328 7.67996 18.9859 8.57142C19.0754 10.8975 19.0754 13.2236 18.9859 15.5497C18.8965 17.6074 17.7334 18.8599 15.6757 18.8599C13.3497 18.9493 11.0236 18.9493 8.69749 18.8599C7.79811 18.9371 6.91054 18.6132 6.27224 17.9749C5.63395 17.3366 5.31008 16.449 5.38729 15.5497V8.57142C5.31008 7.67205 5.63395 6.78447 6.27224 6.14618C6.91054 5.50788 7.79811 5.18402 8.69749 5.26123ZM12.2224 7.71256C9.80335 7.71748 7.84355 9.67728 7.83863 12.0963C7.88619 14.4974 9.82128 16.4325 12.2224 16.4801C14.6414 16.4752 16.6012 14.5154 16.6062 12.0963C16.5586 9.69522 14.6235 7.76012 12.2224 7.71256ZM12.2224 9.32293C13.7047 9.32293 14.9063 10.5246 14.9063 12.0069C14.9244 13.1184 14.2663 14.1299 13.2427 14.5636C12.2191 14.9974 11.0347 14.7668 10.2486 13.9807C9.46245 13.1946 9.23186 12.0102 9.66563 10.9866C10.0994 9.96295 11.1108 9.30485 12.2224 9.32293ZM16.6956 6.46005C16.4079 6.44995 16.1289 6.55981 15.9254 6.76338C15.7218 6.96694 15.612 7.24592 15.6221 7.53363C15.6221 8.12655 16.1027 8.60721 16.6956 8.60721C17.2886 8.60721 17.7692 8.12655 17.7692 7.53363C17.7302 6.95762 17.2716 6.49902 16.6956 6.46005Z" fill="white"/>
</g>
<defs>
<clipPath id="clip0_184_4839">
<rect width="25" height="24" fill="white"/>
</clipPath>
</defs>
</svg>
