<svg width="25" height="24" viewBox="0 0 25 24" fill="none" xmlns="http://www.w3.org/2000/svg">
<g clip-path="url(#clip0_184_4819)">
<mask id="mask0_184_4819" style="mask-type:luminance" maskUnits="userSpaceOnUse" x="0" y="0" width="25" height="24">
<path d="M0.583 0H24.583V24H0.583V0Z" fill="white"/>
</mask>
<g mask="url(#mask0_184_4819)">
<path fill-rule="evenodd" clip-rule="evenodd" d="M20.071 18.47H17.272V13.242C17.272 10.1 13.541 10.338 13.541 13.242V18.47H10.742V8.208H13.541V9.855C14.843 7.442 20.071 7.264 20.071 12.165V18.47ZM7.477 7.025C7.04239 7.02315 6.62629 6.84886 6.3201 6.54042C6.01391 6.23198 5.84267 5.81461 5.844 5.38C5.84241 4.94522 6.01353 4.52759 6.31975 4.21894C6.62596 3.91028 7.04222 3.73585 7.477 3.734C7.91178 3.73585 8.32804 3.91028 8.63425 4.21894C8.94047 4.52759 9.1116 4.94522 9.11 5.38C9.11133 5.81461 8.94009 6.23198 8.6339 6.54042C8.32771 6.84886 7.91161 7.02315 7.477 7.025ZM6.077 18.47H8.876V8.208H6.077V18.47ZM19.583 0H5.583C4.25692 0 2.98515 0.526784 2.04747 1.46447C1.10978 2.40215 0.583 3.67392 0.583 5L0.583 19C0.583 19.6566 0.712329 20.3068 0.963603 20.9134C1.21488 21.52 1.58317 22.0712 2.04747 22.5355C2.98515 23.4732 4.25692 24 5.583 24H19.583C20.2396 24 20.8898 23.8707 21.4964 23.6194C22.103 23.3681 22.6542 22.9998 23.1185 22.5355C23.5828 22.0712 23.9511 21.52 24.2024 20.9134C24.4537 20.3068 24.583 19.6566 24.583 19V5C24.583 4.34339 24.4537 3.69321 24.2024 3.08658C23.9511 2.47995 23.5828 1.92876 23.1185 1.46447C22.6542 1.00017 22.103 0.631876 21.4964 0.380602C20.8898 0.129329 20.2396 0 19.583 0Z" fill="white"/>
</g>
</g>
<defs>
<clipPath id="clip0_184_4819">
<rect width="25" height="24" fill="white"/>
</clipPath>
</defs>
</svg>
