<?xml version="1.0" encoding="UTF-8"?>
<svg id="Layer_1" data-name="Layer 1" xmlns="http://www.w3.org/2000/svg" viewBox="0 0 122 75">
  <defs>
    <style>
      .cls-1 {
        fill: #03045e;
        stroke-width: 0px;
      }
    </style>
  </defs>
  <path class="cls-1" d="M51.64,15.73c.73-1.02,1.39-2.05,2.15-2.99,5.17-6.46,11.85-10.38,20.01-11.64,9.24-1.43,17.68.61,25.11,6.35,6.15,4.76,9.93,11.02,11.25,18.71.57,3.3.5,6.6-.12,9.89-.1.51.05.67.47.86,4.34,1.95,7.61,5.03,9.6,9.36,3.86,8.4.76,18.22-7.29,23.09-1.28.77-2.71,1.31-4.09,1.91-.64.28-1.04.09-1.22-.39-.18-.51.06-.85.75-1.1,5.97-2.17,10.01-6.19,11.5-12.44,1.58-6.63-1.23-13.48-6.98-17.34-1.21-.81-2.58-1.4-3.89-2.06-.58-.29-.74-.51-.6-1.15,2.58-11.54-2.46-22.85-11.92-29.27-4.53-3.07-9.53-4.9-15-5.17-12.31-.61-21.93,4.14-28.55,14.66-.39.62-.73.74-1.43.38-3.66-1.88-7.55-2.62-11.63-2.29-4.98.4-9.35,2.28-13,5.71-3.43,3.22-5.48,7.17-6.11,11.83-.14,1.01-.12,2.03-.15,3.05-.02.85-.21,1.04-1.08,1.07-6.43.22-11.55,2.88-15.06,8.32-4.07,6.29-3.11,14.76,2.14,20.12,2.29,2.34,4.99,3.97,8.15,4.85.08.02.15.05.22.07.5.13.73.45.65.96-.08.46-.52.73-1.05.54-1.33-.46-2.7-.87-3.94-1.52-5.34-2.79-8.81-7.09-9.92-13.05-1.16-6.26.66-11.69,5.12-16.19,3.44-3.46,7.69-5.28,12.56-5.61.34-.02.63-.01.65-.52.36-8.39,4.34-14.6,11.66-18.54,6.58-3.54,13.44-3.62,20.33-.77.25.1.5.22.74.33Z"/>
  <path class="cls-1" d="M27,61.33c4.52-.06,9.03-.11,13.55-.18,4.42-.07,8.83-.15,13.25-.23,4.12-.08,8.24-.15,12.36-.24,3.81-.08,7.61-.15,11.42-.24,3.36-.07,6.71-.14,10.07-.24,2.75-.08,5.49-.19,8.24-.3.93-.04,1.47-.93,1.13-1.83-1.03-2.73-2.07-5.46-3.11-8.18-.08-.22-.15-.44-.26-.75.84,0,1.61-.02,2.38.02.13,0,.29.27.35.45.64,1.85,1.26,3.71,1.89,5.56.05.14.11.28.22.55.13-.34.22-.57.3-.8.59-1.77,1.18-3.53,1.74-5.3.12-.4.31-.52.71-.5.63.03,1.25,0,1.95,0-.06.21-.1.38-.16.53-1.23,3.37-2.46,6.74-3.69,10.1-.71,1.94-1.65,2.59-3.73,2.57-4.63-.05-9.27-.11-13.9-.18-2.65-.04-5.3-.08-7.95-.12-5.44-.08-10.88-.16-16.31-.24-2.63-.04-5.26-.08-7.89-.12-5.46-.08-10.91-.17-16.37-.23-2.06-.03-4.12,0-6.18,0v-.12Z"/>
  <path class="cls-1" d="M92.16,58.46h-2.35c0-.94,0-1.84,0-2.74-.02-1.22-.04-2.43-.08-3.65-.02-.57-.22-1.04-.82-1.23-.62-.2-1.17-.02-1.63.4-.55.51-.66,1.19-.68,1.88-.03,1.51-.03,3.02-.04,4.53,0,.84,0,.84-.87.84-.35,0-.71-.02-1.06,0-.4.03-.5-.15-.5-.52.02-1.35.01-2.71,0-4.06,0-.57-.03-1.14-.06-1.7-.06-.89-.35-1.32-.95-1.44-.75-.15-1.67.22-1.91.94-.23.69-.32,1.45-.35,2.18-.05,1.35-.01,2.71-.02,4.06,0,.15-.03.3-.05.53-.71,0-1.39.01-2.07-.02-.11,0-.29-.22-.29-.33,0-2.94,0-5.89.01-8.83,0-.04.03-.07.07-.15h2.16c.02.36.03.68.05,1.13.84-.82,1.71-1.39,2.87-1.4,1.16,0,2.05.43,2.69,1.44.28-.25.51-.48.77-.69,1.04-.83,2.22-.96,3.44-.54.98.34,1.62,1.07,1.64,2.09.06,2.39.02,4.78.02,7.24Z"/>
  <path class="cls-1" d="M22.77,58.51c.57-1.45,1.08-2.78,1.6-4.11,1.1-2.81,2.2-5.61,3.28-8.43.13-.35.3-.49.67-.47.61.03,1.22-.02,1.82.03.2.01.49.18.56.34,1.67,4.1,3.31,8.21,4.95,12.32.02.05.02.11.05.31-.63,0-1.25-.05-1.85.01-.68.07-1.04-.16-1.22-.83-.16-.6-.45-1.17-.66-1.76-.1-.3-.25-.44-.59-.44-1.45.02-2.91.01-4.36,0-.34,0-.48.14-.58.44-.24.7-.52,1.39-.75,2.1-.11.33-.26.48-.62.47-.72-.02-1.45,0-2.3,0ZM30.98,53.37c-.61-1.63-1.18-3.16-1.75-4.7-.04,0-.09.01-.13.02-.56,1.54-1.12,3.08-1.7,4.68h3.58Z"/>
  <path class="cls-1" d="M84.87,37.54c0,3.24-2.21,5.48-5.39,5.48-3.34,0-5.43-2.13-5.43-5.53,0-3.18,2.22-5.41,5.41-5.42,3.19,0,5.41,2.24,5.41,5.46ZM82.16,37.54c-.15-.59-.23-1.22-.47-1.78-.41-.94-1.19-1.46-2.22-1.45-1.06,0-1.85.54-2.26,1.5-.5,1.14-.5,2.34-.01,3.48.41.95,1.16,1.51,2.24,1.52,1.1.01,1.88-.53,2.29-1.52.22-.53.29-1.12.44-1.75Z"/>
  <path class="cls-1" d="M63.76,57.19c-.21.18-.3.25-.38.33-1.72,1.74-4.24,1.53-5.64-.45-1.18-1.67-1.21-4.87-.07-6.55,1.21-1.79,3.71-2.15,5.38-.78.13.11.26.21.48.4v-4.58h2.43v12.95c-.65,0-1.27.02-1.89-.01-.11,0-.27-.19-.3-.32-.05-.26-.01-.54-.01-.98ZM59.29,53.68s.04.01.07.02c.02.33.02.67.07,1,.03.25.1.5.19.74.3.81,1.01,1.34,1.82,1.36.73.02,1.53-.49,1.83-1.26.45-1.16.44-2.35,0-3.51-.3-.81-.93-1.25-1.81-1.25-.88,0-1.5.47-1.81,1.26-.2.52-.24,1.1-.36,1.65Z"/>
  <path class="cls-1" d="M45.07,42.81h-2.34v-12.88h2.38v4.69c.25-.22.39-.33.53-.45,1.14-.96,2.42-1.16,3.8-.66.95.34,1.6,1.05,1.65,2.04.14,2.4.15,4.81.21,7.26h-2.51c0-.43,0-.81,0-1.2-.02-1.65-.02-3.3-.07-4.94-.03-.93-.41-1.37-1.17-1.53-.79-.16-1.76.22-2.03.95-.23.61-.35,1.29-.37,1.94-.05,1.53-.02,3.06-.03,4.59,0,.04-.02.08-.05.19Z"/>
  <path class="cls-1" d="M55.45,58.51c-.82,0-1.48.02-2.14-.01-.13,0-.29-.16-.37-.28-.11-.2-.17-.43-.26-.7-.2.15-.35.27-.5.38-1.08.81-2.29.99-3.57.65-1.12-.29-1.86-1.21-1.93-2.32-.08-1.36.44-2.31,1.66-2.73.96-.33,1.97-.5,2.95-.75.17-.04.35-.07.51-.14.28-.11.72-.04.7-.54-.02-.52-.16-.97-.71-1.17-1.16-.42-2.02-.1-2.7,1.03-.34-.06-.71-.13-1.07-.19-.34-.06-.69-.12-1.1-.19.31-1.11.87-1.97,1.97-2.33,1.41-.46,2.87-.44,4.29-.02,1.16.35,1.66,1.13,1.71,2.52.03.88,0,1.76,0,2.65.01,1.36-.16,2.75.55,4.15ZM52.44,53.99c-.89.23-1.75.4-2.58.69-.83.29-1,1.23-.41,1.87.39.43,1.09.55,1.75.31,1.11-.41,1.46-1.19,1.24-2.87Z"/>
  <path class="cls-1" d="M70.37,54.5c-.07,1.15.52,2.06,1.44,2.31,1,.27,1.55-.04,2.22-1.26.75.13,1.52.26,2.37.41-.39,1.09-1.03,1.89-2.04,2.35-3.21,1.47-6.49-.53-6.54-4.04-.01-.94.12-1.93.43-2.81.66-1.84,2.39-2.72,4.51-2.51,1.8.18,3.18,1.45,3.57,3.32.12.55.14,1.13.22,1.69.06.44-.12.58-.56.57-1.65-.02-3.3,0-4.95,0-.21,0-.43,0-.68,0ZM70.4,52.95h3.68c-.08-1.46-.87-2.29-2.03-2.18-1.04.09-1.77,1.05-1.65,2.18Z"/>
  <path class="cls-1" d="M61.91,38.87h-6.23c-.15,1,.44,1.98,1.33,2.26,1.01.32,1.66-.02,2.3-1.23.75.12,1.52.25,2.38.39-.36,1.01-.91,1.75-1.79,2.23-3.18,1.72-6.69-.3-6.82-3.94-.05-1.38.14-2.72,1.05-3.83,1.18-1.43,2.74-1.76,4.47-1.37,1.66.38,2.63,1.5,3,3.12.17.74.21,1.51.32,2.36ZM55.7,37.37c1.12,0,2.25,0,3.39-.01.1,0,.28-.21.29-.32.03-1.08-.95-2.02-2-1.93-1.06.09-1.84,1.1-1.67,2.26Z"/>
  <path class="cls-1" d="M37.12,42.8h-2.57v-10.73h-3.84v-2.14h10.23v2.1h-3.83v10.78Z"/>
  <path class="cls-1" d="M91.25,42.79h-2.6v-10.74h-3.84c0-.67-.02-1.28.02-1.9,0-.1.3-.26.47-.27,1.1-.02,2.2-.01,3.3-.01,1.93,0,3.85,0,5.78,0h.68v2.15h-3.81v10.77Z"/>
  <path class="cls-1" d="M43.11,54.93c.8.14,1.56.27,2.37.41-.37,1.51-1.1,2.63-2.61,3.11-2.16.68-4.35.05-5.43-1.57-1.08-1.62-1.11-4.57.02-6.15.38-.52.91-1.01,1.47-1.3,1.42-.74,2.92-.7,4.39-.11,1.1.44,1.67,1.37,2.03,2.54-.78.15-1.55.29-2.35.44-.05-.1-.09-.2-.13-.3-.31-.79-.86-1.21-1.64-1.18-.8.03-1.49.34-1.77,1.13-.44,1.22-.42,2.47.05,3.68.29.76,1.05,1.14,1.91,1.09.75-.04,1.24-.44,1.52-1.26.05-.15.1-.3.17-.52Z"/>
  <path class="cls-1" d="M68.89,36.3c0-1.94.01-3.89,0-5.83,0-.46.14-.63.6-.6.49.03.98.03,1.47,0,.41-.02.54.13.54.54-.02,1.88,0,3.77,0,5.65,0,2.06-.01,4.12,0,6.18,0,.46-.14.63-.6.6-.49-.03-.98-.03-1.47,0-.41.02-.54-.13-.54-.54.02-2,0-4,0-6.01Z"/>
  <g>
    <path class="cls-1" d="M18.64,69.63c.18-.32.43-.57.74-.75.31-.18.66-.27,1.04-.27.45,0,.84.11,1.17.32.33.22.58.52.73.92h-.64c-.11-.25-.28-.44-.49-.57-.21-.13-.47-.2-.77-.2s-.54.07-.77.2c-.23.13-.41.32-.53.57-.13.24-.19.53-.19.86s.07.61.19.85c.13.24.31.43.53.57s.48.2.77.2.55-.07.77-.2.38-.32.49-.57h.64c-.15.39-.4.69-.73.91-.33.21-.72.32-1.17.32-.38,0-.73-.09-1.04-.27-.31-.18-.56-.43-.74-.74-.18-.32-.27-.68-.27-1.08s.09-.76.27-1.08Z"/>
    <path class="cls-1" d="M23.69,72.61c-.24-.14-.44-.33-.58-.58-.14-.25-.21-.55-.21-.88s.07-.62.21-.87c.14-.25.34-.45.58-.58s.52-.2.83-.2.58.07.83.2.44.33.58.58c.14.25.21.54.21.88s-.07.63-.22.88c-.15.25-.35.45-.6.58s-.53.21-.83.21-.57-.07-.82-.21ZM25.05,72.21c.17-.09.3-.23.41-.41.1-.18.16-.4.16-.66s-.05-.48-.15-.66-.23-.31-.4-.4c-.16-.09-.34-.13-.53-.13s-.37.04-.54.13c-.16.09-.29.22-.39.4-.1.18-.15.4-.15.66s.05.48.14.66c.1.18.22.31.39.4.16.09.34.13.53.13s.37-.04.54-.14Z"/>
    <path class="cls-1" d="M29.39,69.84c.24.24.36.58.36,1.03v1.9h-.53v-1.82c0-.32-.08-.57-.24-.74-.16-.17-.38-.26-.66-.26s-.51.09-.67.26c-.17.18-.25.43-.25.77v1.78h-.53v-3.22h.53v.46c.11-.16.25-.29.43-.38.18-.09.38-.14.6-.14.39,0,.71.12.95.36Z"/>
    <path class="cls-1" d="M33.14,69.84c.24.24.36.58.36,1.03v1.9h-.53v-1.82c0-.32-.08-.57-.24-.74-.16-.17-.38-.26-.66-.26s-.51.09-.67.26c-.17.18-.25.43-.25.77v1.78h-.53v-3.22h.53v.46c.11-.16.25-.29.43-.38.18-.09.38-.14.6-.14.39,0,.71.12.95.36Z"/>
    <path class="cls-1" d="M37.3,71.35h-2.57c.02.32.13.57.33.74s.44.27.72.27c.23,0,.42-.05.58-.16.15-.11.26-.25.33-.43h.58c-.09.31-.26.56-.52.76-.26.19-.58.29-.96.29-.31,0-.58-.07-.82-.21s-.43-.33-.57-.58c-.14-.25-.21-.55-.21-.88s.07-.62.2-.88c.13-.25.32-.44.56-.58s.52-.2.83-.2.58.07.81.2c.23.13.42.32.54.55.13.23.19.5.19.79,0,.1,0,.21-.02.32ZM36.63,70.39c-.09-.15-.21-.26-.37-.33-.15-.08-.33-.11-.51-.11-.27,0-.5.09-.69.26s-.3.41-.33.72h2.03c0-.2-.04-.38-.14-.53Z"/>
    <path class="cls-1" d="M38.03,70.27c.13-.25.32-.44.56-.58.24-.14.51-.21.81-.21.4,0,.72.1.98.29.26.19.43.46.51.8h-.58c-.05-.2-.16-.35-.32-.46-.16-.11-.36-.17-.59-.17-.31,0-.55.1-.74.31s-.28.51-.28.89.09.69.28.9c.19.21.43.32.74.32.24,0,.43-.05.59-.16.16-.11.26-.27.32-.47h.58c-.09.33-.26.59-.52.79-.26.2-.58.3-.97.3-.31,0-.58-.07-.81-.21-.24-.14-.42-.33-.56-.58-.13-.25-.2-.54-.2-.88s.07-.62.2-.87Z"/>
    <path class="cls-1" d="M42.25,69.98v1.9c0,.16.03.27.1.33.07.06.18.1.35.1h.39v.45h-.48c-.3,0-.52-.07-.67-.21-.15-.14-.22-.36-.22-.68v-1.9h-.42v-.44h.42v-.81h.53v.81h.84v.44h-.84Z"/>
    <path class="cls-1" d="M43.75,68.91c-.07-.07-.11-.16-.11-.26s.04-.19.11-.26c.07-.07.16-.11.26-.11s.18.04.25.11c.07.07.1.16.1.26s-.03.19-.1.26c-.07.07-.15.11-.25.11s-.19-.04-.26-.11ZM44.27,69.54v3.22h-.53v-3.22h.53Z"/>
    <path class="cls-1" d="M47.7,69.84c.24.24.36.58.36,1.03v1.9h-.53v-1.82c0-.32-.08-.57-.24-.74-.16-.17-.38-.26-.66-.26s-.51.09-.67.26c-.17.18-.25.43-.25.77v1.78h-.53v-3.22h.53v.46c.11-.16.25-.29.43-.38.18-.09.38-.14.6-.14.39,0,.71.12.95.36Z"/>
    <path class="cls-1" d="M51,69.67c.21.12.37.27.47.46v-.59h.54v3.29c0,.29-.06.56-.19.78-.12.23-.3.41-.54.54-.23.13-.5.19-.81.19-.42,0-.78-.1-1.06-.3-.28-.2-.45-.47-.5-.82h.53c.06.2.18.35.36.47.18.12.41.18.66.18.29,0,.53-.09.72-.28.19-.18.28-.44.28-.78v-.68c-.11.19-.26.34-.47.47-.21.13-.45.19-.73.19s-.55-.07-.78-.21c-.23-.14-.42-.34-.55-.59-.13-.25-.2-.54-.2-.87s.07-.62.2-.87c.13-.25.32-.44.55-.58.23-.14.49-.21.78-.21s.52.06.73.18ZM51.32,70.51c-.1-.18-.23-.32-.4-.41s-.35-.14-.55-.14-.38.05-.55.14-.3.23-.39.41c-.1.18-.15.39-.15.63s.05.46.15.64c.1.18.23.32.39.42s.35.14.55.14.38-.05.55-.14.3-.24.4-.42.15-.39.15-.64-.05-.45-.15-.63Z"/>
    <path class="cls-1" d="M57,68.66v.43h-1.12v3.66h-.53v-3.66h-1.12v-.43h2.77Z"/>
    <path class="cls-1" d="M59.91,69.64c.2.1.35.26.46.47s.17.46.17.76v1.9h-.53v-1.82c0-.32-.08-.57-.24-.74-.16-.17-.38-.26-.66-.26s-.51.09-.67.26c-.17.18-.25.43-.25.77v1.78h-.53v-4.35h.53v1.59c.11-.16.25-.29.44-.38s.39-.14.63-.14c.24,0,.46.05.66.16Z"/>
    <path class="cls-1" d="M64.33,71.35h-2.57c.02.32.13.57.33.74s.44.27.72.27c.23,0,.42-.05.58-.16.15-.11.26-.25.33-.43h.58c-.09.31-.26.56-.52.76-.26.19-.58.29-.96.29-.31,0-.58-.07-.82-.21s-.43-.33-.57-.58c-.14-.25-.21-.55-.21-.88s.07-.62.2-.88c.13-.25.32-.44.56-.58s.52-.2.83-.2.58.07.81.2c.23.13.42.32.54.55.13.23.19.5.19.79,0,.1,0,.21-.02.32ZM63.66,70.39c-.09-.15-.21-.26-.37-.33-.15-.08-.33-.11-.51-.11-.27,0-.5.09-.69.26s-.3.41-.33.72h2.03c0-.2-.04-.38-.14-.53Z"/>
    <path class="cls-1" d="M67.15,68.66v2.59c0,.36.09.63.27.81.18.18.43.26.74.26s.56-.09.74-.26c.18-.18.27-.45.27-.81v-2.59h.53v2.58c0,.34-.07.63-.21.86s-.32.41-.56.52c-.23.11-.49.17-.78.17s-.55-.06-.78-.17c-.23-.11-.42-.29-.55-.52s-.2-.52-.2-.86v-2.58h.53Z"/>
    <path class="cls-1" d="M73.11,69.84c.24.24.36.58.36,1.03v1.9h-.53v-1.82c0-.32-.08-.57-.24-.74-.16-.17-.38-.26-.66-.26s-.51.09-.67.26c-.17.18-.25.43-.25.77v1.78h-.53v-3.22h.53v.46c.11-.16.25-.29.43-.38.18-.09.38-.14.6-.14.39,0,.71.12.95.36Z"/>
    <path class="cls-1" d="M74.35,70.27c.13-.25.32-.44.56-.58.24-.14.51-.21.81-.21.4,0,.72.1.98.29.26.19.43.46.51.8h-.58c-.05-.2-.16-.35-.32-.46-.16-.11-.36-.17-.59-.17-.31,0-.55.1-.74.31s-.28.51-.28.89.09.69.28.9c.19.21.43.32.74.32.24,0,.43-.05.59-.16.16-.11.26-.27.32-.47h.58c-.09.33-.26.59-.52.79-.26.2-.58.3-.97.3-.31,0-.58-.07-.81-.21-.24-.14-.42-.33-.56-.58-.13-.25-.2-.54-.2-.88s.07-.62.2-.87Z"/>
    <path class="cls-1" d="M78.5,72.61c-.24-.14-.44-.33-.58-.58-.14-.25-.21-.55-.21-.88s.07-.62.21-.87c.14-.25.34-.45.58-.58s.52-.2.83-.2.58.07.83.2.44.33.58.58c.14.25.21.54.21.88s-.07.63-.22.88c-.15.25-.35.45-.6.58s-.53.21-.83.21-.57-.07-.82-.21ZM79.86,72.21c.17-.09.3-.23.41-.41.1-.18.16-.4.16-.66s-.05-.48-.15-.66-.23-.31-.4-.4c-.16-.09-.34-.13-.53-.13s-.37.04-.54.13c-.16.09-.29.22-.39.4-.1.18-.15.4-.15.66s.05.48.14.66c.1.18.22.31.39.4.16.09.34.13.53.13s.37-.04.54-.14Z"/>
    <path class="cls-1" d="M84.2,69.84c.24.24.36.58.36,1.03v1.9h-.53v-1.82c0-.32-.08-.57-.24-.74-.16-.17-.38-.26-.66-.26s-.51.09-.67.26c-.17.18-.25.43-.25.77v1.78h-.53v-3.22h.53v.46c.11-.16.25-.29.43-.38.18-.09.38-.14.6-.14.39,0,.71.12.95.36Z"/>
    <path class="cls-1" d="M87.96,69.84c.24.24.36.58.36,1.03v1.9h-.53v-1.82c0-.32-.08-.57-.24-.74-.16-.17-.38-.26-.66-.26s-.51.09-.67.26c-.17.18-.25.43-.25.77v1.78h-.53v-3.22h.53v.46c.11-.16.25-.29.43-.38.18-.09.38-.14.6-.14.39,0,.71.12.95.36Z"/>
    <path class="cls-1" d="M92.12,71.35h-2.57c.02.32.13.57.33.74s.44.27.72.27c.23,0,.42-.05.58-.16.15-.11.26-.25.33-.43h.58c-.09.31-.26.56-.52.76-.26.19-.58.29-.96.29-.31,0-.58-.07-.82-.21s-.43-.33-.57-.58c-.14-.25-.21-.55-.21-.88s.07-.62.2-.88c.13-.25.32-.44.56-.58s.52-.2.83-.2.58.07.81.2c.23.13.42.32.54.55.13.23.19.5.19.79,0,.1,0,.21-.02.32ZM91.45,70.39c-.09-.15-.21-.26-.37-.33-.15-.08-.33-.11-.51-.11-.27,0-.5.09-.69.26s-.3.41-.33.72h2.03c0-.2-.04-.38-.14-.53Z"/>
    <path class="cls-1" d="M92.84,70.27c.13-.25.32-.44.56-.58.24-.14.51-.21.81-.21.4,0,.72.1.98.29.26.19.43.46.51.8h-.58c-.05-.2-.16-.35-.32-.46-.16-.11-.36-.17-.59-.17-.31,0-.55.1-.74.31s-.28.51-.28.89.09.69.28.9c.19.21.43.32.74.32.24,0,.43-.05.59-.16.16-.11.26-.27.32-.47h.58c-.09.33-.26.59-.52.79-.26.2-.58.3-.97.3-.31,0-.58-.07-.81-.21-.24-.14-.42-.33-.56-.58-.13-.25-.2-.54-.2-.88s.07-.62.2-.87Z"/>
    <path class="cls-1" d="M97.06,69.98v1.9c0,.16.03.27.1.33.07.06.18.1.35.1h.39v.45h-.48c-.3,0-.52-.07-.67-.21-.15-.14-.22-.36-.22-.68v-1.9h-.42v-.44h.42v-.81h.53v.81h.84v.44h-.84Z"/>
    <path class="cls-1" d="M101.46,71.35h-2.57c.02.32.13.57.33.74s.44.27.72.27c.23,0,.42-.05.58-.16.15-.11.26-.25.33-.43h.58c-.09.31-.26.56-.52.76-.26.19-.58.29-.96.29-.31,0-.58-.07-.82-.21s-.43-.33-.57-.58c-.14-.25-.21-.55-.21-.88s.07-.62.2-.88c.13-.25.32-.44.56-.58s.52-.2.83-.2.58.07.81.2c.23.13.42.32.54.55.13.23.19.5.19.79,0,.1,0,.21-.02.32ZM100.79,70.39c-.09-.15-.21-.26-.37-.33-.15-.08-.33-.11-.51-.11-.27,0-.5.09-.69.26s-.3.41-.33.72h2.03c0-.2-.04-.38-.14-.53Z"/>
    <path class="cls-1" d="M102.19,70.27c.13-.25.32-.44.55-.58.23-.14.49-.21.78-.21.25,0,.48.06.7.17.22.12.38.27.49.46v-1.7h.54v4.35h-.54v-.6c-.11.19-.26.35-.47.47-.21.12-.45.19-.73.19s-.55-.07-.78-.21c-.23-.14-.42-.34-.55-.59-.13-.25-.2-.54-.2-.87s.07-.62.2-.87ZM104.56,70.51c-.1-.18-.23-.32-.4-.41s-.35-.14-.55-.14-.38.05-.55.14-.3.23-.39.41c-.1.18-.15.39-.15.63s.05.46.15.64c.1.18.23.32.39.42s.35.14.55.14.38-.05.55-.14.3-.24.4-.42.15-.39.15-.64-.05-.45-.15-.63Z"/>
  </g>
</svg>