<svg width="122" height="75" viewBox="0 0 122 75" fill="none" xmlns="http://www.w3.org/2000/svg">
<path d="M51.6398 15.73C52.3698 14.71 53.0298 13.68 53.7898 12.74C58.9598 6.28002 65.6398 2.36002 73.7998 1.10002C83.0398 -0.329976 91.4798 1.71002 98.9098 7.45002C105.06 12.21 108.84 18.47 110.16 26.16C110.73 29.46 110.66 32.76 110.04 36.05C109.94 36.56 110.09 36.72 110.51 36.91C114.85 38.86 118.12 41.94 120.11 46.27C123.97 54.67 120.87 64.49 112.82 69.36C111.54 70.13 110.11 70.67 108.73 71.27C108.09 71.55 107.69 71.36 107.51 70.88C107.33 70.37 107.57 70.03 108.26 69.78C114.23 67.61 118.27 63.59 119.76 57.34C121.34 50.71 118.53 43.86 112.78 40C111.57 39.19 110.2 38.6 108.89 37.94C108.31 37.65 108.15 37.43 108.29 36.79C110.87 25.25 105.83 13.94 96.3698 7.52002C91.8398 4.45002 86.8398 2.62002 81.3698 2.35002C69.0598 1.74002 59.4398 6.49002 52.8198 17.01C52.4298 17.63 52.0898 17.75 51.3898 17.39C47.7298 15.51 43.8398 14.77 39.7598 15.1C34.7798 15.5 30.4098 17.38 26.7598 20.81C23.3298 24.03 21.2798 27.98 20.6498 32.64C20.5098 33.65 20.5298 34.67 20.4998 35.69C20.4798 36.54 20.2898 36.73 19.4198 36.76C12.9898 36.98 7.86976 39.64 4.35976 45.08C0.289762 51.37 1.24976 59.84 6.49976 65.2C8.78976 67.54 11.4898 69.17 14.6498 70.05C14.7298 70.07 14.7998 70.1 14.8698 70.12C15.3698 70.25 15.5998 70.57 15.5198 71.08C15.4398 71.54 14.9998 71.81 14.4698 71.62C13.1398 71.16 11.7698 70.75 10.5298 70.1C5.18976 67.31 1.71976 63.01 0.609762 57.05C-0.550238 50.79 1.26976 45.36 5.72976 40.86C9.16976 37.4 13.4198 35.58 18.2898 35.25C18.6298 35.23 18.9198 35.24 18.9398 34.73C19.2998 26.34 23.2798 20.13 30.5998 16.19C37.1798 12.65 44.0398 12.57 50.9298 15.42C51.1798 15.52 51.4298 15.64 51.6698 15.75L51.6398 15.73Z" fill="white"/>
<path d="M27 61.33C31.52 61.27 36.03 61.22 40.55 61.15C44.97 61.08 49.38 61 53.8 60.92C57.92 60.84 62.04 60.77 66.16 60.68C69.97 60.6 73.77 60.53 77.58 60.44C80.94 60.37 84.29 60.3 87.65 60.2C90.4 60.12 93.14 60.01 95.89 59.9C96.82 59.86 97.36 58.97 97.02 58.07C95.99 55.34 94.95 52.61 93.91 49.89C93.83 49.67 93.76 49.45 93.65 49.14C94.49 49.14 95.26 49.12 96.03 49.16C96.16 49.16 96.32 49.43 96.38 49.61C97.02 51.46 97.64 53.32 98.27 55.17C98.32 55.31 98.38 55.45 98.49 55.72C98.62 55.38 98.71 55.15 98.79 54.92C99.38 53.15 99.97 51.39 100.53 49.62C100.65 49.22 100.84 49.1 101.24 49.12C101.87 49.15 102.49 49.12 103.19 49.12C103.13 49.33 103.09 49.5 103.03 49.65C101.8 53.02 100.57 56.39 99.34 59.75C98.63 61.69 97.69 62.34 95.61 62.32C90.98 62.27 86.34 62.21 81.71 62.14C79.06 62.1 76.41 62.06 73.76 62.02C68.32 61.94 62.88 61.86 57.45 61.78C54.82 61.74 52.19 61.7 49.56 61.66C44.1 61.58 38.65 61.49 33.19 61.43C31.13 61.4 29.07 61.43 27.01 61.43V61.31L27 61.33Z" fill="white"/>
<path d="M92.1597 58.46H89.8097C89.8097 57.52 89.8097 56.62 89.8097 55.72C89.7897 54.5 89.7697 53.29 89.7297 52.07C89.7097 51.5 89.5097 51.03 88.9097 50.84C88.2897 50.64 87.7397 50.82 87.2797 51.24C86.7297 51.75 86.6197 52.43 86.5997 53.12C86.5697 54.63 86.5697 56.14 86.5597 57.65C86.5597 58.49 86.5597 58.49 85.6897 58.49C85.3397 58.49 84.9797 58.47 84.6297 58.49C84.2297 58.52 84.1297 58.34 84.1297 57.97C84.1497 56.62 84.1397 55.26 84.1297 53.91C84.1297 53.34 84.0997 52.77 84.0697 52.21C84.0097 51.32 83.7197 50.89 83.1197 50.77C82.3697 50.62 81.4497 50.99 81.2097 51.71C80.9797 52.4 80.8897 53.16 80.8597 53.89C80.8097 55.24 80.8497 56.6 80.8397 57.95C80.8397 58.1 80.8097 58.25 80.7897 58.48C80.0797 58.48 79.3997 58.49 78.7197 58.46C78.6097 58.46 78.4297 58.24 78.4297 58.13C78.4297 55.19 78.4297 52.24 78.4397 49.3C78.4397 49.26 78.4697 49.23 78.5097 49.15H80.6697C80.6897 49.51 80.6997 49.83 80.7197 50.28C81.5597 49.46 82.4297 48.89 83.5897 48.88C84.7497 48.88 85.6397 49.31 86.2797 50.32C86.5597 50.07 86.7897 49.84 87.0497 49.63C88.0897 48.8 89.2697 48.67 90.4897 49.09C91.4697 49.43 92.1097 50.16 92.1297 51.18C92.1897 53.57 92.1497 55.96 92.1497 58.42L92.1597 58.46Z" fill="white"/>
<path d="M22.7695 58.51C23.3395 57.06 23.8495 55.73 24.3695 54.4C25.4695 51.59 26.5695 48.79 27.6495 45.97C27.7795 45.62 27.9495 45.48 28.3195 45.5C28.9295 45.53 29.5395 45.48 30.1395 45.53C30.3395 45.54 30.6295 45.71 30.6995 45.87C32.3695 49.97 34.0095 54.08 35.6495 58.19C35.6695 58.24 35.6695 58.3 35.6995 58.5C35.0695 58.5 34.4495 58.45 33.8495 58.51C33.1695 58.58 32.8095 58.35 32.6295 57.68C32.4695 57.08 32.1795 56.51 31.9695 55.92C31.8695 55.62 31.7195 55.48 31.3795 55.48C29.9295 55.5 28.4695 55.49 27.0195 55.48C26.6795 55.48 26.5395 55.62 26.4395 55.92C26.1995 56.62 25.9195 57.31 25.6895 58.02C25.5795 58.35 25.4295 58.5 25.0695 58.49C24.3495 58.47 23.6195 58.49 22.7695 58.49V58.51ZM30.9795 53.37C30.3695 51.74 29.7995 50.21 29.2295 48.67C29.1895 48.67 29.1395 48.68 29.0995 48.69C28.5395 50.23 27.9795 51.77 27.3995 53.37H30.9795Z" fill="white"/>
<path d="M84.8698 37.5399C84.8698 40.7799 82.6598 43.0199 79.4798 43.0199C76.1398 43.0199 74.0498 40.8899 74.0498 37.4899C74.0498 34.3099 76.2698 32.0799 79.4598 32.0699C82.6498 32.0699 84.8698 34.3099 84.8698 37.5299V37.5399ZM82.1598 37.5399C82.0098 36.9499 81.9298 36.3199 81.6898 35.7599C81.2798 34.8199 80.4998 34.2999 79.4698 34.3099C78.4098 34.3099 77.6198 34.8499 77.2098 35.8099C76.7098 36.9499 76.7098 38.1499 77.1998 39.2899C77.6098 40.2399 78.3598 40.7999 79.4398 40.8099C80.5398 40.8199 81.3198 40.2799 81.7298 39.2899C81.9498 38.7599 82.0198 38.1699 82.1698 37.5399H82.1598Z" fill="white"/>
<path d="M63.7604 57.1901C63.5504 57.3701 63.4604 57.4401 63.3804 57.5201C61.6604 59.2601 59.1404 59.0501 57.7404 57.0701C56.5604 55.4001 56.5304 52.2001 57.6704 50.5201C58.8804 48.7301 61.3804 48.3701 63.0504 49.7401C63.1804 49.8501 63.3104 49.9501 63.5304 50.1401V45.5601H65.9604V58.5101C65.3104 58.5101 64.6904 58.5301 64.0704 58.5001C63.9604 58.5001 63.8004 58.3101 63.7704 58.1801C63.7204 57.9201 63.7604 57.6401 63.7604 57.2001V57.1901ZM59.2904 53.6801C59.2904 53.6801 59.3304 53.6901 59.3604 53.7001C59.3804 54.0301 59.3804 54.3701 59.4304 54.7001C59.4604 54.9501 59.5304 55.2001 59.6204 55.4401C59.9204 56.2501 60.6304 56.7801 61.4404 56.8001C62.1704 56.8201 62.9704 56.3101 63.2704 55.5401C63.7204 54.3801 63.7104 53.1901 63.2704 52.0301C62.9704 51.2201 62.3404 50.7801 61.4604 50.7801C60.5804 50.7801 59.9604 51.2501 59.6504 52.0401C59.4504 52.5601 59.4104 53.1401 59.2904 53.6901V53.6801Z" fill="white"/>
<path d="M45.0705 42.8101H42.7305V29.9301H45.1105V34.6201C45.3605 34.4001 45.5005 34.2901 45.6405 34.1701C46.7805 33.2101 48.0605 33.0101 49.4405 33.5101C50.3905 33.8501 51.0405 34.5601 51.0905 35.5501C51.2305 37.9501 51.2405 40.3601 51.3005 42.8101H48.7905C48.7905 42.3801 48.7905 42.0001 48.7905 41.6101C48.7705 39.9601 48.7705 38.3101 48.7205 36.6701C48.6905 35.7401 48.3105 35.3001 47.5505 35.1401C46.7605 34.9801 45.7905 35.3601 45.5205 36.0901C45.2905 36.7001 45.1705 37.3801 45.1505 38.0301C45.1005 39.5601 45.1305 41.0901 45.1205 42.6201C45.1205 42.6601 45.1005 42.7001 45.0705 42.8101Z" fill="white"/>
<path d="M55.4498 58.51C54.6298 58.51 53.9698 58.53 53.3098 58.5C53.1798 58.5 53.0198 58.34 52.9398 58.22C52.8298 58.02 52.7698 57.79 52.6798 57.52C52.4798 57.67 52.3298 57.79 52.1798 57.9C51.0998 58.71 49.8898 58.89 48.6098 58.55C47.4898 58.26 46.7498 57.34 46.6798 56.23C46.5998 54.87 47.1198 53.92 48.3398 53.5C49.2998 53.17 50.3098 53 51.2898 52.75C51.4598 52.71 51.6398 52.68 51.7998 52.61C52.0798 52.5 52.5198 52.57 52.4998 52.07C52.4798 51.55 52.3398 51.1 51.7898 50.9C50.6298 50.48 49.7698 50.8 49.0898 51.93C48.7498 51.87 48.3798 51.8 48.0198 51.74C47.6798 51.68 47.3298 51.62 46.9198 51.55C47.2298 50.44 47.7898 49.58 48.8898 49.22C50.2998 48.76 51.7598 48.78 53.1798 49.2C54.3398 49.55 54.8398 50.33 54.8898 51.72C54.9198 52.6 54.8898 53.48 54.8898 54.37C54.8998 55.73 54.7298 57.12 55.4398 58.52L55.4498 58.51ZM52.4398 53.99C51.5498 54.22 50.6898 54.39 49.8598 54.68C49.0298 54.97 48.8598 55.91 49.4498 56.55C49.8398 56.98 50.5398 57.1 51.1998 56.86C52.3098 56.45 52.6598 55.67 52.4398 53.99Z" fill="white"/>
<path d="M70.3699 54.5C70.2999 55.65 70.8899 56.56 71.8099 56.81C72.8099 57.08 73.3599 56.77 74.0299 55.55C74.7799 55.68 75.5499 55.81 76.3999 55.96C76.0099 57.05 75.3699 57.85 74.3599 58.31C71.1499 59.78 67.8699 57.78 67.8199 54.27C67.8099 53.33 67.9399 52.34 68.2499 51.46C68.9099 49.62 70.6399 48.74 72.7599 48.95C74.5599 49.13 75.9399 50.4 76.3299 52.27C76.4499 52.82 76.4699 53.4 76.5499 53.96C76.6099 54.4 76.4299 54.54 75.9899 54.53C74.3399 54.51 72.6899 54.53 71.0399 54.53C70.8299 54.53 70.6099 54.53 70.3599 54.53L70.3699 54.5ZM70.3999 52.95H74.0799C73.9999 51.49 73.2099 50.66 72.0499 50.77C71.0099 50.86 70.2799 51.82 70.3999 52.95Z" fill="white"/>
<path d="M61.9096 38.87H55.6796C55.5296 39.87 56.1196 40.85 57.0096 41.13C58.0196 41.45 58.6696 41.11 59.3096 39.9C60.0596 40.02 60.8296 40.15 61.6896 40.29C61.3296 41.3 60.7796 42.04 59.8996 42.52C56.7196 44.24 53.2096 42.22 53.0796 38.58C53.0296 37.2 53.2196 35.86 54.1296 34.75C55.3096 33.32 56.8696 32.99 58.5996 33.38C60.2596 33.76 61.2296 34.88 61.5996 36.5C61.7696 37.24 61.8096 38.01 61.9196 38.86L61.9096 38.87ZM55.6996 37.37C56.8196 37.37 57.9496 37.37 59.0896 37.36C59.1896 37.36 59.3696 37.15 59.3796 37.04C59.4096 35.96 58.4296 35.02 57.3796 35.11C56.3196 35.2 55.5396 36.21 55.7096 37.37H55.6996Z" fill="white"/>
<path d="M37.12 42.8001H34.55V32.0701H30.71V29.9301H40.94V32.0301H37.11V42.8101L37.12 42.8001Z" fill="white"/>
<path d="M91.2497 42.7901H88.6497V32.0501H84.8097C84.8097 31.3801 84.7897 30.7701 84.8297 30.1501C84.8297 30.0501 85.1297 29.8901 85.2997 29.8801C86.3997 29.8601 87.4997 29.8701 88.5997 29.8701C90.5297 29.8701 92.4497 29.8701 94.3797 29.8701H95.0597V32.0201H91.2497V42.7901Z" fill="white"/>
<path d="M43.1098 54.93C43.9098 55.07 44.6698 55.2 45.4798 55.34C45.1098 56.85 44.3798 57.97 42.8698 58.45C40.7098 59.13 38.5198 58.5 37.4398 56.88C36.3598 55.26 36.3298 52.3099 37.4598 50.7299C37.8398 50.2099 38.3698 49.72 38.9298 49.43C40.3498 48.69 41.8498 48.73 43.3198 49.32C44.4198 49.76 44.9898 50.69 45.3498 51.86C44.5698 52.01 43.7998 52.1499 42.9998 52.2999C42.9498 52.1999 42.9098 52.1 42.8698 52C42.5598 51.21 42.0098 50.79 41.2298 50.82C40.4298 50.85 39.7398 51.16 39.4598 51.95C39.0198 53.17 39.0398 54.42 39.5098 55.63C39.7998 56.39 40.5598 56.77 41.4198 56.72C42.1698 56.68 42.6598 56.2799 42.9398 55.4599C42.9898 55.3099 43.0398 55.1599 43.1098 54.9399V54.93Z" fill="white"/>
<path d="M68.8896 36.3C68.8896 34.36 68.8996 32.41 68.8896 30.47C68.8896 30.01 69.0296 29.84 69.4896 29.87C69.9796 29.9 70.4696 29.9 70.9596 29.87C71.3696 29.85 71.4996 30 71.4996 30.41C71.4796 32.29 71.4996 34.18 71.4996 36.06C71.4996 38.12 71.4896 40.18 71.4996 42.24C71.4996 42.7 71.3597 42.87 70.8997 42.84C70.4097 42.81 69.9196 42.81 69.4296 42.84C69.0196 42.86 68.8896 42.71 68.8896 42.3C68.9096 40.3 68.8896 38.3 68.8896 36.29V36.3Z" fill="white"/>
<path d="M18.6401 69.63C18.8201 69.31 19.0701 69.06 19.3801 68.88C19.6901 68.7 20.0401 68.61 20.4201 68.61C20.8701 68.61 21.2601 68.72 21.5901 68.93C21.9201 69.15 22.1701 69.45 22.3201 69.85H21.6801C21.5701 69.6 21.4001 69.41 21.1901 69.28C20.9801 69.15 20.7201 69.08 20.4201 69.08C20.1201 69.08 19.8801 69.15 19.6501 69.28C19.4201 69.41 19.2401 69.6 19.1201 69.85C18.9901 70.09 18.9301 70.38 18.9301 70.71C18.9301 71.04 19.0001 71.32 19.1201 71.56C19.2501 71.8 19.4301 71.99 19.6501 72.13C19.8701 72.27 20.1301 72.33 20.4201 72.33C20.7101 72.33 20.9701 72.26 21.1901 72.13C21.4101 72 21.5701 71.81 21.6801 71.56H22.3201C22.1701 71.95 21.9201 72.25 21.5901 72.47C21.2601 72.68 20.8701 72.79 20.4201 72.79C20.0401 72.79 19.6901 72.7 19.3801 72.52C19.0701 72.34 18.8201 72.09 18.6401 71.78C18.4601 71.46 18.3701 71.1 18.3701 70.7C18.3701 70.3 18.4601 69.94 18.6401 69.62V69.63Z" fill="white"/>
<path d="M23.6904 72.61C23.4504 72.47 23.2504 72.28 23.1104 72.03C22.9704 71.78 22.9004 71.48 22.9004 71.15C22.9004 70.82 22.9704 70.53 23.1104 70.28C23.2504 70.03 23.4504 69.83 23.6904 69.7C23.9304 69.57 24.2104 69.5 24.5204 69.5C24.8304 69.5 25.1004 69.57 25.3504 69.7C25.6004 69.83 25.7904 70.03 25.9304 70.28C26.0704 70.53 26.1404 70.82 26.1404 71.16C26.1404 71.5 26.0704 71.79 25.9204 72.04C25.7704 72.29 25.5704 72.49 25.3204 72.62C25.0704 72.75 24.7904 72.83 24.4904 72.83C24.1904 72.83 23.9204 72.76 23.6704 72.62L23.6904 72.61ZM25.0504 72.21C25.2204 72.12 25.3504 71.98 25.4604 71.8C25.5604 71.62 25.6204 71.4 25.6204 71.14C25.6204 70.88 25.5704 70.66 25.4704 70.48C25.3704 70.3 25.2404 70.17 25.0704 70.08C24.9104 69.99 24.7304 69.95 24.5404 69.95C24.3504 69.95 24.1704 69.99 24.0004 70.08C23.8404 70.17 23.7104 70.3 23.6104 70.48C23.5104 70.66 23.4604 70.88 23.4604 71.14C23.4604 71.4 23.5104 71.62 23.6004 71.8C23.7004 71.98 23.8204 72.11 23.9904 72.2C24.1504 72.29 24.3304 72.33 24.5204 72.33C24.7104 72.33 24.8904 72.29 25.0604 72.19L25.0504 72.21Z" fill="white"/>
<path d="M29.3901 69.84C29.6301 70.08 29.7501 70.42 29.7501 70.87V72.77H29.2201V70.95C29.2201 70.63 29.1401 70.38 28.9801 70.21C28.8201 70.04 28.6001 69.95 28.3201 69.95C28.0401 69.95 27.8101 70.04 27.6501 70.21C27.4801 70.39 27.4001 70.64 27.4001 70.98V72.76H26.8701V69.54H27.4001V70C27.5101 69.84 27.6501 69.71 27.8301 69.62C28.0101 69.53 28.2101 69.48 28.4301 69.48C28.8201 69.48 29.1401 69.6 29.3801 69.84H29.3901Z" fill="white"/>
<path d="M33.1401 69.84C33.3801 70.08 33.5001 70.42 33.5001 70.87V72.77H32.9701V70.95C32.9701 70.63 32.8901 70.38 32.7301 70.21C32.5701 70.04 32.3501 69.95 32.0701 69.95C31.7901 69.95 31.5601 70.04 31.4001 70.21C31.2301 70.39 31.1501 70.64 31.1501 70.98V72.76H30.6201V69.54H31.1501V70C31.2601 69.84 31.4001 69.71 31.5801 69.62C31.7601 69.53 31.9601 69.48 32.1801 69.48C32.5701 69.48 32.8901 69.6 33.1301 69.84H33.1401Z" fill="white"/>
<path d="M37.3004 71.35H34.7304C34.7504 71.67 34.8604 71.92 35.0604 72.09C35.2604 72.26 35.5004 72.36 35.7804 72.36C36.0104 72.36 36.2004 72.31 36.3604 72.2C36.5104 72.09 36.6204 71.95 36.6904 71.77H37.2704C37.1804 72.08 37.0104 72.33 36.7504 72.53C36.4904 72.72 36.1704 72.82 35.7904 72.82C35.4804 72.82 35.2104 72.75 34.9704 72.61C34.7304 72.47 34.5404 72.28 34.4004 72.03C34.2604 71.78 34.1904 71.48 34.1904 71.15C34.1904 70.82 34.2604 70.53 34.3904 70.27C34.5204 70.02 34.7104 69.83 34.9504 69.69C35.1904 69.55 35.4704 69.49 35.7804 69.49C36.0904 69.49 36.3604 69.56 36.5904 69.69C36.8204 69.82 37.0104 70.01 37.1304 70.24C37.2604 70.47 37.3204 70.74 37.3204 71.03C37.3204 71.13 37.3204 71.24 37.3004 71.35ZM36.6304 70.39C36.5404 70.24 36.4204 70.13 36.2604 70.06C36.1104 69.98 35.9304 69.95 35.7504 69.95C35.4804 69.95 35.2504 70.04 35.0604 70.21C34.8704 70.38 34.7604 70.62 34.7304 70.93H36.7604C36.7604 70.73 36.7204 70.55 36.6204 70.4L36.6304 70.39Z" fill="white"/>
<path d="M38.0301 70.27C38.1601 70.02 38.3501 69.83 38.5901 69.69C38.8301 69.55 39.1001 69.48 39.4001 69.48C39.8001 69.48 40.1201 69.58 40.3801 69.77C40.6401 69.96 40.8101 70.23 40.8901 70.57H40.3101C40.2601 70.37 40.1501 70.22 39.9901 70.11C39.8301 70 39.6301 69.94 39.4001 69.94C39.0901 69.94 38.8501 70.04 38.6601 70.25C38.4701 70.46 38.3801 70.76 38.3801 71.14C38.3801 71.52 38.4701 71.83 38.6601 72.04C38.8501 72.25 39.0901 72.36 39.4001 72.36C39.6401 72.36 39.8301 72.31 39.9901 72.2C40.1501 72.09 40.2501 71.93 40.3101 71.73H40.8901C40.8001 72.06 40.6301 72.32 40.3701 72.52C40.1101 72.72 39.7901 72.82 39.4001 72.82C39.0901 72.82 38.8201 72.75 38.5901 72.61C38.3501 72.47 38.1701 72.28 38.0301 72.03C37.9001 71.78 37.8301 71.49 37.8301 71.15C37.8301 70.81 37.9001 70.53 38.0301 70.28V70.27Z" fill="white"/>
<path d="M42.2498 69.98V71.88C42.2498 72.04 42.2798 72.15 42.3498 72.21C42.4198 72.27 42.5298 72.31 42.6998 72.31H43.0898V72.76H42.6098C42.3098 72.76 42.0898 72.69 41.9398 72.55C41.7898 72.41 41.7198 72.19 41.7198 71.87V69.97H41.2998V69.53H41.7198V68.72H42.2498V69.53H43.0898V69.97H42.2498V69.98Z" fill="white"/>
<path d="M43.7496 68.91C43.6796 68.84 43.6396 68.75 43.6396 68.65C43.6396 68.55 43.6796 68.46 43.7496 68.39C43.8196 68.32 43.9096 68.28 44.0096 68.28C44.1096 68.28 44.1896 68.32 44.2596 68.39C44.3296 68.46 44.3596 68.55 44.3596 68.65C44.3596 68.75 44.3296 68.84 44.2596 68.91C44.1896 68.98 44.1096 69.02 44.0096 69.02C43.9096 69.02 43.8196 68.98 43.7496 68.91ZM44.2696 69.54V72.76H43.7397V69.54H44.2696Z" fill="white"/>
<path d="M47.6997 69.84C47.9397 70.08 48.0597 70.42 48.0597 70.87V72.77H47.5297V70.95C47.5297 70.63 47.4497 70.38 47.2897 70.21C47.1297 70.04 46.9097 69.95 46.6297 69.95C46.3497 69.95 46.1197 70.04 45.9597 70.21C45.7897 70.39 45.7097 70.64 45.7097 70.98V72.76H45.1797V69.54H45.7097V70C45.8197 69.84 45.9597 69.71 46.1397 69.62C46.3197 69.53 46.5197 69.48 46.7397 69.48C47.1297 69.48 47.4497 69.6 47.6897 69.84H47.6997Z" fill="white"/>
<path d="M51.0005 69.6701C51.2105 69.7901 51.3705 69.9401 51.4705 70.1301V69.5401H52.0105V72.8301C52.0105 73.1201 51.9505 73.3901 51.8205 73.6101C51.7005 73.8401 51.5205 74.0201 51.2805 74.1501C51.0505 74.2801 50.7805 74.3401 50.4705 74.3401C50.0505 74.3401 49.6905 74.2401 49.4105 74.0401C49.1305 73.8401 48.9605 73.5701 48.9105 73.2201H49.4405C49.5005 73.4201 49.6205 73.5701 49.8005 73.6901C49.9805 73.8101 50.2105 73.8701 50.4605 73.8701C50.7505 73.8701 50.9905 73.7801 51.1805 73.5901C51.3705 73.4101 51.4605 73.1501 51.4605 72.8101V72.1301C51.3505 72.3201 51.2005 72.4701 50.9905 72.6001C50.7805 72.7301 50.5405 72.7901 50.2605 72.7901C49.9805 72.7901 49.7105 72.7201 49.4805 72.5801C49.2505 72.4401 49.0605 72.2401 48.9305 71.9901C48.8005 71.7401 48.7305 71.4501 48.7305 71.1201C48.7305 70.7901 48.8005 70.5001 48.9305 70.2501C49.0605 70.0001 49.2505 69.8101 49.4805 69.6701C49.7105 69.5301 49.9705 69.4601 50.2605 69.4601C50.5505 69.4601 50.7805 69.5201 50.9905 69.6401L51.0005 69.6701ZM51.3205 70.5101C51.2205 70.3301 51.0905 70.1901 50.9205 70.1001C50.7505 70.0101 50.5705 69.9601 50.3705 69.9601C50.1705 69.9601 49.9905 70.0101 49.8205 70.1001C49.6505 70.1901 49.5205 70.3301 49.4305 70.5101C49.3305 70.6901 49.2805 70.9001 49.2805 71.1401C49.2805 71.3801 49.3305 71.6001 49.4305 71.7801C49.5305 71.9601 49.6605 72.1001 49.8205 72.2001C49.9805 72.3001 50.1705 72.3401 50.3705 72.3401C50.5705 72.3401 50.7505 72.2901 50.9205 72.2001C51.0905 72.1101 51.2205 71.9601 51.3205 71.7801C51.4205 71.6001 51.4705 71.3901 51.4705 71.1401C51.4705 70.8901 51.4205 70.6901 51.3205 70.5101Z" fill="white"/>
<path d="M57.0005 68.66V69.09H55.8805V72.75H55.3505V69.09H54.2305V68.66H57.0005Z" fill="white"/>
<path d="M59.9102 69.64C60.1102 69.74 60.2602 69.9 60.3702 70.11C60.4802 70.32 60.5402 70.57 60.5402 70.87V72.77H60.0102V70.95C60.0102 70.63 59.9302 70.38 59.7702 70.21C59.6102 70.04 59.3902 69.95 59.1102 69.95C58.8302 69.95 58.6002 70.04 58.4402 70.21C58.2702 70.39 58.1902 70.64 58.1902 70.98V72.76H57.6602V68.41H58.1902V70C58.3002 69.84 58.4402 69.71 58.6302 69.62C58.8202 69.53 59.0202 69.48 59.2602 69.48C59.5002 69.48 59.7202 69.53 59.9202 69.64H59.9102Z" fill="white"/>
<path d="M64.3297 71.35H61.7597C61.7797 71.67 61.8897 71.92 62.0897 72.09C62.2897 72.26 62.5297 72.36 62.8097 72.36C63.0397 72.36 63.2297 72.31 63.3897 72.2C63.5397 72.09 63.6497 71.95 63.7197 71.77H64.2997C64.2097 72.08 64.0397 72.33 63.7797 72.53C63.5197 72.72 63.1997 72.82 62.8197 72.82C62.5097 72.82 62.2397 72.75 61.9997 72.61C61.7597 72.47 61.5697 72.28 61.4297 72.03C61.2897 71.78 61.2197 71.48 61.2197 71.15C61.2197 70.82 61.2897 70.53 61.4197 70.27C61.5497 70.02 61.7397 69.83 61.9797 69.69C62.2197 69.55 62.4997 69.49 62.8097 69.49C63.1197 69.49 63.3897 69.56 63.6197 69.69C63.8497 69.82 64.0397 70.01 64.1597 70.24C64.2897 70.47 64.3497 70.74 64.3497 71.03C64.3497 71.13 64.3497 71.24 64.3297 71.35ZM63.6597 70.39C63.5697 70.24 63.4497 70.13 63.2897 70.06C63.1397 69.98 62.9597 69.95 62.7797 69.95C62.5097 69.95 62.2797 70.04 62.0897 70.21C61.8997 70.38 61.7897 70.62 61.7597 70.93H63.7897C63.7897 70.73 63.7497 70.55 63.6497 70.4L63.6597 70.39Z" fill="white"/>
<path d="M67.1501 68.66V71.25C67.1501 71.61 67.2401 71.88 67.4201 72.06C67.6001 72.24 67.8501 72.32 68.1601 72.32C68.4701 72.32 68.7201 72.23 68.9001 72.06C69.0801 71.88 69.1701 71.61 69.1701 71.25V68.66H69.7001V71.24C69.7001 71.58 69.6301 71.87 69.4901 72.1C69.3501 72.33 69.1701 72.51 68.9301 72.62C68.7001 72.73 68.4401 72.79 68.1501 72.79C67.8601 72.79 67.6001 72.73 67.3701 72.62C67.1401 72.51 66.9501 72.33 66.8201 72.1C66.6901 71.87 66.6201 71.58 66.6201 71.24V68.66H67.1501Z" fill="white"/>
<path d="M73.1098 69.84C73.3498 70.08 73.4698 70.42 73.4698 70.87V72.77H72.9398V70.95C72.9398 70.63 72.8598 70.38 72.6998 70.21C72.5398 70.04 72.3198 69.95 72.0398 69.95C71.7598 69.95 71.5299 70.04 71.3699 70.21C71.1999 70.39 71.1199 70.64 71.1199 70.98V72.76H70.5898V69.54H71.1199V70C71.2299 69.84 71.3699 69.71 71.5499 69.62C71.7299 69.53 71.9298 69.48 72.1498 69.48C72.5398 69.48 72.8598 69.6 73.0998 69.84H73.1098Z" fill="white"/>
<path d="M74.3504 70.27C74.4804 70.02 74.6704 69.83 74.9104 69.69C75.1504 69.55 75.4204 69.48 75.7204 69.48C76.1204 69.48 76.4404 69.58 76.7004 69.77C76.9604 69.96 77.1304 70.23 77.2104 70.57H76.6304C76.5804 70.37 76.4704 70.22 76.3104 70.11C76.1504 70 75.9504 69.94 75.7204 69.94C75.4104 69.94 75.1704 70.04 74.9804 70.25C74.7904 70.46 74.7004 70.76 74.7004 71.14C74.7004 71.52 74.7904 71.83 74.9804 72.04C75.1704 72.25 75.4104 72.36 75.7204 72.36C75.9604 72.36 76.1504 72.31 76.3104 72.2C76.4704 72.09 76.5704 71.93 76.6304 71.73H77.2104C77.1204 72.06 76.9504 72.32 76.6904 72.52C76.4304 72.72 76.1104 72.82 75.7204 72.82C75.4104 72.82 75.1404 72.75 74.9104 72.61C74.6704 72.47 74.4904 72.28 74.3504 72.03C74.2204 71.78 74.1504 71.49 74.1504 71.15C74.1504 70.81 74.2204 70.53 74.3504 70.28V70.27Z" fill="white"/>
<path d="M78.5 72.61C78.26 72.47 78.06 72.28 77.92 72.03C77.78 71.78 77.71 71.48 77.71 71.15C77.71 70.82 77.78 70.53 77.92 70.28C78.06 70.03 78.26 69.83 78.5 69.7C78.74 69.57 79.02 69.5 79.33 69.5C79.64 69.5 79.91 69.57 80.16 69.7C80.41 69.83 80.6 70.03 80.74 70.28C80.88 70.53 80.95 70.82 80.95 71.16C80.95 71.5 80.88 71.79 80.73 72.04C80.58 72.29 80.38 72.49 80.13 72.62C79.88 72.75 79.6 72.83 79.3 72.83C79 72.83 78.73 72.76 78.48 72.62L78.5 72.61ZM79.86 72.21C80.03 72.12 80.16 71.98 80.27 71.8C80.37 71.62 80.43 71.4 80.43 71.14C80.43 70.88 80.38 70.66 80.28 70.48C80.18 70.3 80.05 70.17 79.88 70.08C79.72 69.99 79.54 69.95 79.35 69.95C79.16 69.95 78.98 69.99 78.81 70.08C78.65 70.17 78.52 70.3 78.42 70.48C78.32 70.66 78.27 70.88 78.27 71.14C78.27 71.4 78.32 71.62 78.41 71.8C78.51 71.98 78.63 72.11 78.8 72.2C78.96 72.29 79.14 72.33 79.33 72.33C79.52 72.33 79.7 72.29 79.87 72.19L79.86 72.21Z" fill="white"/>
<path d="M84.1997 69.84C84.4397 70.08 84.5597 70.42 84.5597 70.87V72.77H84.0297V70.95C84.0297 70.63 83.9497 70.38 83.7897 70.21C83.6297 70.04 83.4097 69.95 83.1297 69.95C82.8497 69.95 82.6197 70.04 82.4597 70.21C82.2897 70.39 82.2097 70.64 82.2097 70.98V72.76H81.6797V69.54H82.2097V70C82.3197 69.84 82.4597 69.71 82.6397 69.62C82.8197 69.53 83.0197 69.48 83.2397 69.48C83.6297 69.48 83.9497 69.6 84.1897 69.84H84.1997Z" fill="white"/>
<path d="M87.9604 69.84C88.2004 70.08 88.3204 70.42 88.3204 70.87V72.77H87.7904V70.95C87.7904 70.63 87.7104 70.38 87.5504 70.21C87.3904 70.04 87.1704 69.95 86.8904 69.95C86.6104 69.95 86.3804 70.04 86.2204 70.21C86.0504 70.39 85.9704 70.64 85.9704 70.98V72.76H85.4404V69.54H85.9704V70C86.0804 69.84 86.2204 69.71 86.4004 69.62C86.5804 69.53 86.7804 69.48 87.0004 69.48C87.3904 69.48 87.7104 69.6 87.9504 69.84H87.9604Z" fill="white"/>
<path d="M92.1198 71.35H89.5498C89.5698 71.67 89.6798 71.92 89.8798 72.09C90.0798 72.26 90.3198 72.36 90.5998 72.36C90.8298 72.36 91.0198 72.31 91.1798 72.2C91.3298 72.09 91.4398 71.95 91.5098 71.77H92.0898C91.9998 72.08 91.8298 72.33 91.5698 72.53C91.3098 72.72 90.9898 72.82 90.6098 72.82C90.2998 72.82 90.0298 72.75 89.7898 72.61C89.5498 72.47 89.3598 72.28 89.2198 72.03C89.0798 71.78 89.0098 71.48 89.0098 71.15C89.0098 70.82 89.0798 70.53 89.2098 70.27C89.3398 70.02 89.5298 69.83 89.7698 69.69C90.0098 69.55 90.2898 69.49 90.5998 69.49C90.9098 69.49 91.1798 69.56 91.4098 69.69C91.6398 69.82 91.8298 70.01 91.9498 70.24C92.0798 70.47 92.1398 70.74 92.1398 71.03C92.1398 71.13 92.1398 71.24 92.1198 71.35ZM91.4498 70.39C91.3598 70.24 91.2398 70.13 91.0798 70.06C90.9298 69.98 90.7498 69.95 90.5698 69.95C90.2998 69.95 90.0698 70.04 89.8798 70.21C89.6898 70.38 89.5798 70.62 89.5498 70.93H91.5798C91.5798 70.73 91.5398 70.55 91.4398 70.4L91.4498 70.39Z" fill="white"/>
<path d="M92.8396 70.27C92.9696 70.02 93.1597 69.83 93.3997 69.69C93.6397 69.55 93.9096 69.48 94.2096 69.48C94.6096 69.48 94.9297 69.58 95.1897 69.77C95.4497 69.96 95.6196 70.23 95.6996 70.57H95.1197C95.0697 70.37 94.9597 70.22 94.7997 70.11C94.6397 70 94.4396 69.94 94.2096 69.94C93.8996 69.94 93.6597 70.04 93.4697 70.25C93.2797 70.46 93.1897 70.76 93.1897 71.14C93.1897 71.52 93.2797 71.83 93.4697 72.04C93.6597 72.25 93.8996 72.36 94.2096 72.36C94.4496 72.36 94.6397 72.31 94.7997 72.2C94.9597 72.09 95.0597 71.93 95.1197 71.73H95.6996C95.6096 72.06 95.4396 72.32 95.1796 72.52C94.9196 72.72 94.5996 72.82 94.2096 72.82C93.8996 72.82 93.6297 72.75 93.3997 72.61C93.1597 72.47 92.9796 72.28 92.8396 72.03C92.7096 71.78 92.6396 71.49 92.6396 71.15C92.6396 70.81 92.7096 70.53 92.8396 70.28V70.27Z" fill="white"/>
<path d="M97.0603 69.98V71.88C97.0603 72.04 97.0904 72.15 97.1604 72.21C97.2304 72.27 97.3404 72.31 97.5104 72.31H97.9004V72.76H97.4203C97.1203 72.76 96.9004 72.69 96.7504 72.55C96.6004 72.41 96.5303 72.19 96.5303 71.87V69.97H96.1104V69.53H96.5303V68.72H97.0603V69.53H97.9004V69.97H97.0603V69.98Z" fill="white"/>
<path d="M101.461 71.35H98.8906C98.9106 71.67 99.0206 71.92 99.2206 72.09C99.4206 72.26 99.6606 72.36 99.9406 72.36C100.171 72.36 100.361 72.31 100.521 72.2C100.671 72.09 100.781 71.95 100.851 71.77H101.431C101.341 72.08 101.171 72.33 100.911 72.53C100.651 72.72 100.331 72.82 99.9506 72.82C99.6406 72.82 99.3706 72.75 99.1306 72.61C98.8906 72.47 98.7006 72.28 98.5606 72.03C98.4206 71.78 98.3506 71.48 98.3506 71.15C98.3506 70.82 98.4206 70.53 98.5506 70.27C98.6806 70.02 98.8706 69.83 99.1106 69.69C99.3506 69.55 99.6306 69.49 99.9406 69.49C100.251 69.49 100.521 69.56 100.751 69.69C100.981 69.82 101.171 70.01 101.291 70.24C101.421 70.47 101.481 70.74 101.481 71.03C101.481 71.13 101.481 71.24 101.461 71.35ZM100.791 70.39C100.701 70.24 100.581 70.13 100.421 70.06C100.271 69.98 100.091 69.95 99.9106 69.95C99.6406 69.95 99.4106 70.04 99.2206 70.21C99.0306 70.38 98.9206 70.62 98.8906 70.93H100.921C100.921 70.73 100.881 70.55 100.781 70.4L100.791 70.39Z" fill="white"/>
<path d="M102.19 70.27C102.32 70.02 102.51 69.83 102.74 69.69C102.97 69.55 103.23 69.48 103.52 69.48C103.77 69.48 104 69.54 104.22 69.65C104.44 69.77 104.6 69.92 104.71 70.11V68.41H105.25V72.76H104.71V72.16C104.6 72.35 104.45 72.51 104.24 72.63C104.03 72.75 103.79 72.82 103.51 72.82C103.23 72.82 102.96 72.75 102.73 72.61C102.5 72.47 102.31 72.27 102.18 72.02C102.05 71.77 101.98 71.48 101.98 71.15C101.98 70.82 102.05 70.53 102.18 70.28L102.19 70.27ZM104.56 70.51C104.46 70.33 104.33 70.19 104.16 70.1C103.99 70.01 103.81 69.96 103.61 69.96C103.41 69.96 103.23 70.01 103.06 70.1C102.89 70.19 102.76 70.33 102.67 70.51C102.57 70.69 102.52 70.9 102.52 71.14C102.52 71.38 102.57 71.6 102.67 71.78C102.77 71.96 102.9 72.1 103.06 72.2C103.22 72.3 103.41 72.34 103.61 72.34C103.81 72.34 103.99 72.29 104.16 72.2C104.33 72.11 104.46 71.96 104.56 71.78C104.66 71.6 104.71 71.39 104.71 71.14C104.71 70.89 104.66 70.69 104.56 70.51Z" fill="white"/>
</svg>
