<svg width="24" height="24" viewBox="0 0 24 24" fill="none" xmlns="http://www.w3.org/2000/svg">
<rect width="24" height="24" rx="5" fill="white"/>
<path d="M19.8591 7.71447L15.0066 12L19.8591 16.2855C19.9468 16.1226 20 15.9424 20 15.75V8.25C20 8.05758 19.9468 7.87744 19.8591 7.71447Z" fill="#010273"/>
<path d="M18.5938 7H5.40625C5.18978 7 4.98713 7.04731 4.80378 7.12528L11.0058 12.6104C11.5541 13.0978 12.4459 13.0978 12.9943 12.6104L19.1962 7.12528C19.0129 7.04731 18.8102 7 18.5938 7Z" fill="#010273"/>
<path d="M4.14094 7.71447C4.05322 7.87744 4 8.05758 4 8.25V15.75C4 15.9424 4.05322 16.1226 4.14094 16.2855L8.99341 12L4.14094 7.71447Z" fill="#010273"/>
<path d="M14.3438 12.5892L13.6571 13.1996C12.7434 14.0117 11.2566 14.0117 10.3429 13.1996L9.65625 12.5892L4.80378 16.8747C4.98713 16.9527 5.18978 17 5.40625 17H18.5938C18.8102 17 19.0129 16.9527 19.1962 16.8747L14.3438 12.5892Z" fill="#010273"/>
</svg>
