<svg width="20" height="20" viewBox="0 0 20 20" fill="none" xmlns="http://www.w3.org/2000/svg">
<path d="M11.8828 0C7.40699 0 3.76562 3.64136 3.76562 8.11718C3.76562 10.1445 4.51273 12.0007 5.74605 13.4247L0.171602 18.9997C-0.0572265 19.2286 -0.0571875 19.5996 0.171641 19.8284C0.400469 20.0572 0.771445 20.0572 1.00027 19.8284L6.57465 14.2534C7.99883 15.4871 9.8552 16.2344 11.8828 16.2344C16.3586 16.2344 20 12.593 20 8.11718C20 3.64136 16.3586 0 11.8828 0ZM11.8828 15.0625C8.05313 15.0625 4.9375 11.9468 4.9375 8.11718C4.9375 4.28753 8.05316 1.17187 11.8828 1.17187C15.7125 1.17187 18.8281 4.28753 18.8281 8.11718C18.8281 11.9468 15.7125 15.0625 11.8828 15.0625Z" fill="white"/>
</svg>
