<svg width="24" height="24" viewBox="0 0 24 24" fill="none" xmlns="http://www.w3.org/2000/svg">
<path fill-rule="evenodd" clip-rule="evenodd" d="M4 0C1.79086 0 0 1.79086 0 4V20C0 22.2091 1.79086 24 4 24H20C22.2091 24 24 22.2091 24 20V4C24 1.79086 22.2091 0 20 0H4ZM17.6089 6L13.1416 11.0812H13.1414L18 18H14.4267L11.1549 13.3409L7.05866 18H6L10.6849 12.6716L6 6H9.57328L12.6714 10.4119L16.5503 6H17.6089ZM7.44011 6.7798L11.6917 12.7304V12.7306L14.9248 17.2557H16.5508L9.06615 6.7798H7.44011Z" fill="white"/>
</svg>
