<svg width="25" height="24" viewBox="0 0 25 24" fill="none" xmlns="http://www.w3.org/2000/svg">
<g clip-path="url(#clip0_184_4836)">
<path d="M10.5835 15.0005L15.0835 12.0005L10.5835 9.00049V15.0005ZM19.5835 0.000488281H4.5835C2.09822 0.000488281 0.0834999 2.01521 0.0834999 4.50049V19.5005C0.0834999 21.9858 2.09822 24.0005 4.5835 24.0005H19.5835C22.0688 24.0005 24.0835 21.9858 24.0835 19.5005V4.50049C24.0835 2.01521 22.0688 0.000488281 19.5835 0.000488281ZM19.456 14.687C19.375 15.686 18.6175 16.961 17.5555 17.1455C14.161 17.408 10.132 17.3765 6.613 17.1455C5.515 17.0075 4.7935 15.6845 4.7125 14.687C4.5415 12.59 4.5415 11.396 4.7125 9.29899C4.7935 8.30149 5.533 6.98599 6.613 6.86599C10.0915 6.57349 14.14 6.63649 17.5555 6.86599C18.7795 6.91099 19.375 8.16949 19.456 9.16849C19.6255 11.2655 19.6255 12.59 19.456 14.687Z" fill="white"/>
</g>
<defs>
<clipPath id="clip0_184_4836">
<rect width="25" height="24" fill="white"/>
</clipPath>
</defs>
</svg>
