<svg width="90" height="90" viewBox="0 0 90 90" fill="none" xmlns="http://www.w3.org/2000/svg">
<path d="M74.2928 75.4817H45.4735V74.8392C45.4735 74.1096 44.8834 73.5181 44.155 73.5181C43.4267 73.5181 42.8366 74.1096 42.8366 74.8392V75.4817H27.6373C26.909 75.4817 26.3188 76.0732 26.3188 76.8028C26.3188 77.5325 26.909 78.124 27.6373 78.124H42.8366V78.7666C42.8366 79.4962 43.4267 80.0878 44.155 80.0878C44.8834 80.0878 45.4735 79.4962 45.4735 78.7666V78.124H74.293C75.0213 78.124 75.6115 77.5325 75.6115 76.8028C75.6115 76.0732 75.0211 75.4817 74.2928 75.4817Z" fill="#02C4EB"/>
<path d="M14.3961 69.6182C10.4428 69.6182 7.22656 72.8409 7.22656 76.8023C7.22656 80.7637 10.4428 83.9864 14.3961 83.9864C18.3494 83.9864 21.5656 80.7637 21.5656 76.8023C21.5656 72.8409 18.3494 69.6182 14.3961 69.6182ZM14.3961 81.3441C11.8968 81.3441 9.86352 79.3067 9.86352 76.8023C9.86352 74.2979 11.8968 72.2605 14.3961 72.2605C16.8954 72.2605 18.9287 74.2979 18.9287 76.8023C18.9287 79.3067 16.8952 81.3441 14.3961 81.3441Z" fill="#02C4EB"/>
<path d="M33.9174 53.5406C34.1742 54.2223 34.9368 54.5672 35.6165 54.3102C36.2977 54.0527 36.6415 53.2903 36.3843 52.6077L31.0169 38.3557C31.0125 38.3435 31.0076 38.3314 31.0027 38.3194C30.7479 37.6988 30.1508 37.2979 29.4796 37.2979C28.8093 37.2984 28.2121 37.7005 27.9582 38.3222C27.9542 38.3322 27.9501 38.3423 27.9464 38.3523L22.5296 52.6036C22.2703 53.2855 22.6121 54.0488 23.2926 54.3085C23.972 54.5685 24.7346 54.226 24.9939 53.5441L26.0195 50.8458H32.9027C32.9025 50.846 33.9169 53.5392 33.9174 53.5406ZM27.0237 48.2036L29.4768 41.7498L31.9073 48.2036H27.0237Z" fill="#02C4EB"/>
<path d="M56.2809 54.2598C58.2931 54.2598 59.9839 52.9666 60.3016 51.1848C60.5415 49.8372 59.94 48.0801 57.5312 47.1896C56.9416 46.9717 56.3574 46.7386 55.7773 46.4961C55.4882 46.3752 54.8691 46.2008 54.9303 45.7749C54.9487 45.6463 55.0447 45.3322 55.5345 45.1842C56.7273 44.8244 57.851 45.7043 57.8896 45.7353C58.4467 46.1973 59.273 46.1233 59.7394 45.5674C60.2079 45.0088 60.1358 44.1754 59.5785 43.706C59.4892 43.6307 57.3628 41.8731 54.7738 42.6543C53.4451 43.0552 52.505 44.1074 52.3199 45.3999C52.1456 46.616 52.6718 47.7862 53.6927 48.454C54.5375 49.0066 55.6786 49.3214 56.6183 49.6688C56.8988 49.7724 57.8061 50.1546 57.7054 50.7205C57.6284 51.1519 57.062 51.6174 56.2807 51.6174C55.4204 51.6174 54.5945 51.272 54.0711 50.6932C53.5821 50.1524 52.7483 50.1117 52.2088 50.6014C51.6692 51.0914 51.6281 51.9269 52.1172 52.4676C53.1475 53.6064 54.665 54.2598 56.2809 54.2598Z" fill="#02C4EB"/>
<path d="M43.4003 54.2594C44.63 54.2594 45.7735 53.8819 46.7212 53.2366C46.8563 53.8225 47.3801 54.2594 48.006 54.2594C48.7343 54.2594 49.3244 53.6679 49.3244 52.9382V39.1747C49.3244 38.445 48.7343 37.8535 48.006 37.8535C47.2776 37.8535 46.6875 38.445 46.6875 39.1747V43.3869C45.7463 42.7556 44.6154 42.3869 43.4003 42.3869C40.1336 42.3869 37.4761 45.0498 37.4761 48.3231C37.4761 51.5964 40.1336 54.2594 43.4003 54.2594ZM43.4003 45.029C45.2129 45.029 46.6875 46.5068 46.6875 48.323C46.6875 50.1391 45.2127 51.6169 43.4003 51.6169C41.5878 51.6169 40.113 50.1391 40.113 48.323C40.113 46.5068 41.5876 45.029 43.4003 45.029Z" fill="#02C4EB"/>
<path d="M73.6809 0C72.0907 0 70.5189 0.229002 69.0086 0.680488C68.3109 0.889232 67.9139 1.62503 68.1222 2.32437C68.3304 3.02353 69.0649 3.42093 69.7626 3.21254C71.0278 2.83416 72.3463 2.64233 73.6809 2.64233C81.2254 2.64233 87.3632 8.79261 87.3632 16.3525C87.3632 23.9124 81.2254 30.0627 73.6809 30.0627C66.1366 30.0627 59.9988 23.9124 59.9988 16.3525C59.9988 12.2444 61.8148 8.38728 64.9814 5.77014C65.5431 5.3058 65.6229 4.47311 65.1597 3.91029C64.6961 3.3473 63.8651 3.26768 63.3035 3.73185C61.222 5.45236 59.6298 7.62224 58.6201 10.044H3.95385C1.77379 10.044 0 11.8212 0 14.0057V86.0381C0 88.2228 1.77379 90 3.95385 90H78.8404C81.0205 90 82.7943 88.2228 82.7943 86.0381V29.9112C87.1384 26.9699 90 21.9896 90 16.3523C90.0002 7.33563 82.6795 0 73.6809 0ZM2.63696 14.0057C2.63696 13.2782 3.22763 12.6862 3.95385 12.6862H57.7743C57.5025 13.8757 57.3619 15.1043 57.3619 16.3523C57.3619 17.3568 57.4528 18.3402 57.6266 19.295H2.63696V14.0057ZM80.1575 86.0381C80.1575 86.7658 79.5668 87.3577 78.8406 87.3577H3.95385C3.22763 87.3577 2.63696 86.7658 2.63696 86.0381V21.9373H58.3421C58.7767 23.1318 59.3464 24.2619 60.0328 25.3086H9.75093C8.33506 25.3086 7.18324 26.4627 7.18324 27.8815V63.8108C7.18324 65.2296 8.33524 66.3838 9.75093 66.3838H22.12C22.8483 66.3838 23.4385 65.7922 23.4385 65.0626C23.4385 64.3329 22.8483 63.7414 22.12 63.7414H9.82002V27.9509H62.1882C64.9837 30.7326 68.7762 32.5094 72.9742 32.6897V63.7416H28.1998C27.4715 63.7416 26.8813 64.3331 26.8813 65.0628C26.8813 65.7924 27.4715 66.3839 28.1998 66.3839H73.0435C74.4594 66.3839 75.6112 65.2298 75.6112 63.811V32.591C77.208 32.4016 78.7349 31.9803 80.1573 31.3616V86.0381H80.1575Z" fill="#03045E"/>
<path d="M74.007 21.901C72.5342 21.901 71.1132 21.3019 70.2057 20.2984C69.7168 19.7577 68.883 19.7165 68.3433 20.2066C67.8036 20.6966 67.7627 21.532 68.2517 22.0728C69.2984 23.2303 70.7662 24.0387 72.3624 24.3725V25.8569C72.3624 26.5866 72.9526 27.1781 73.6809 27.1781C74.4092 27.1781 74.9994 26.5866 74.9994 25.8569V24.4611C77.2186 24.0897 79.0271 22.5005 79.3876 20.4766C79.9466 17.3388 77.0428 15.6288 74.4908 14.8377C73.2154 14.4422 72.011 14.0688 71.5646 13.1762C71.0793 12.2049 71.719 11.2589 72.6989 10.9632C74.8415 10.3162 76.7874 11.87 76.8366 11.9102C77.3939 12.3752 78.2221 12.3018 78.6893 11.745C79.1578 11.1864 79.0859 10.353 78.5285 9.88353C78.4439 9.81236 77.0298 8.64339 74.9995 8.27276V6.84802C74.9995 6.11838 74.4094 5.52686 73.6811 5.52686C72.9527 5.52686 72.3626 6.11838 72.3626 6.84802V8.32085C72.2223 8.35291 72.0808 8.39026 71.9384 8.43306C70.6512 8.82166 69.6182 9.72939 69.1045 10.9241C68.6229 12.0441 68.6594 13.2645 69.2074 14.3602C70.157 16.26 72.1279 16.8709 73.7115 17.362C74.8695 17.721 77.0833 18.379 76.7921 20.0123C76.6264 20.9404 75.5394 21.901 74.007 21.901Z" fill="#02C4EB"/>
<path d="M15.1269 75.7066C14.9858 75.6099 14.8258 75.5403 14.654 75.5067C13.8471 75.3483 13.0771 75.9865 13.0771 76.8032C13.0771 77.4985 13.7033 78.1243 14.3956 78.1243C15.106 78.1243 15.7141 77.5226 15.7141 76.8032C15.7143 76.3601 15.4799 75.9486 15.1269 75.7066Z" fill="#02C4EB"/>
</svg>
