<svg width="63" height="62" viewBox="0 0 63 62" fill="none" xmlns="http://www.w3.org/2000/svg">
<g clip-path="url(#clip0_190_1208)">
<path d="M4.15532 10.0815C3.16995 10.0815 2.22666 10.0815 1.2939 10.0815C0.38919 10.0815 0.0157372 9.70872 0.00346401 8.82627C0.00346401 8.35124 0.00346401 7.87449 0.00346401 7.39946C0.00346401 6.40259 0.129702 6.21361 1.05545 5.84781C5.47555 4.10199 9.93422 2.44632 14.2947 0.568737C16.0883 -0.204486 17.5822 -0.17848 19.3583 0.580874C23.7047 2.43938 28.1406 4.09852 32.5397 5.83914C33.4795 6.21188 33.6039 6.39392 33.6039 7.37865C33.6039 7.85542 33.6039 8.33044 33.6039 8.80721C33.5934 9.70179 33.2287 10.0728 32.3345 10.0797C31.379 10.0797 30.4217 10.0797 29.4363 10.0797V24.6201C29.7344 24.6201 30.0289 24.6201 30.3252 24.6201C31.102 24.6409 31.4912 25.0154 31.5017 25.7852C31.514 26.7543 31.5017 27.7234 31.5017 28.7723C31.8682 28.7723 32.189 28.7602 32.5081 28.7723C33.1726 28.8052 33.5829 29.1797 33.5934 29.8264C33.6145 31.1891 33.6145 32.5517 33.5934 33.9144C33.5847 34.594 33.1709 34.9754 32.466 34.991C31.7612 35.0066 31.0213 34.991 30.3007 34.991H1.55865C0.29802 34.991 0.0034623 34.705 0.00170898 33.4793C0.00170898 32.3974 0.00170898 31.3156 0.00170898 30.2338C0.00170898 29.0774 0.308536 28.7706 1.46748 28.7619H2.10219V26.1874C2.10219 24.8871 2.36519 24.6271 3.65387 24.6097H4.15532V10.0815ZM2.1355 32.8794H31.4684V30.851H30.7986C29.3557 30.851 27.9109 30.877 26.4697 30.8319C26.1191 30.8198 25.6474 30.6586 25.4581 30.4089C25.3631 30.25 25.3066 30.0716 25.293 29.8875C25.2793 29.7035 25.3088 29.5188 25.3791 29.3479C25.485 29.1959 25.6228 29.0684 25.7832 28.9741C25.9437 28.8799 26.1228 28.8211 26.3084 28.8018C27.3218 28.7307 28.344 28.7758 29.3504 28.7758V26.7335H4.23947V28.774H21.464C21.6621 28.774 21.8585 28.774 22.0549 28.774C22.6808 28.8226 23.0858 29.2439 23.0753 29.8143C23.0763 30.0774 22.9733 30.3306 22.7883 30.5197C22.6032 30.7089 22.3507 30.819 22.0847 30.8267C21.8901 30.8458 21.6919 30.8267 21.4938 30.8267H2.1355V32.8794ZM2.06712 7.84674L2.13725 7.97157H31.4684C31.4457 7.87349 31.4008 7.7818 31.337 7.70341C31.2732 7.62502 31.1922 7.56199 31.1002 7.51908C26.4598 5.67791 21.8164 3.8454 17.1701 2.02156C16.9319 1.93828 16.672 1.93828 16.4338 2.02156C11.7863 3.84193 7.14354 5.67502 2.50544 7.52082C2.34482 7.60974 2.19683 7.71933 2.06536 7.84674H2.06712ZM13.6074 24.5907V10.1335H10.5339V24.5907H13.6074ZM23.0578 24.5907V10.1352H19.9842V24.5907H23.0578ZM6.35922 10.1092V24.582H8.36326V10.1075L6.35922 10.1092ZM17.8084 24.5889V10.1335H15.785V24.582L17.8084 24.5889ZM25.2459 10.1127V24.5681H27.2675V10.1127H25.2459Z" fill="#2B0F64"/>
<path d="M39.9019 55.7672H57.1773C57.3737 55.7672 57.5718 55.7586 57.7664 55.7672C58.4029 55.8123 58.7956 56.2162 58.7903 56.8074C58.7851 57.3986 58.3906 57.7887 57.7489 57.832C57.5525 57.8459 57.3561 57.832 57.158 57.832H39.9019C39.9019 58.1094 39.9019 58.34 39.9019 58.5689C39.9019 59.5605 40.2526 59.9038 41.2309 59.9073C42.4582 59.9073 43.6855 59.9073 44.9129 59.9073H59.4145C60.6138 59.9073 60.9066 59.6125 60.9066 58.4042V32.919H39.3443C38.0995 32.919 37.8014 32.6243 37.8014 31.3916C37.8014 30.8282 37.7857 30.2665 37.8014 29.7048C37.8223 28.9053 38.1562 28.145 38.7329 27.5842C39.3095 27.0235 40.0838 26.7059 40.8925 26.6985C47.2138 26.6812 53.5345 26.6812 59.8546 26.6985C60.2668 26.6958 60.6755 26.7741 61.0568 26.929C61.4381 27.0838 61.7845 27.3121 62.0757 27.6006C62.367 27.8891 62.5973 28.2319 62.7532 28.6092C62.9092 28.9866 62.9878 29.3908 62.9843 29.7984C62.9971 39.4862 62.9971 49.1746 62.9843 58.8636C62.9881 59.2765 62.9082 59.686 62.7494 60.0679C62.5906 60.4498 62.3561 60.7964 62.0597 61.0872C61.7632 61.3781 61.4109 61.6073 61.0234 61.7613C60.636 61.9154 60.2213 61.9912 59.8037 61.9842C53.5269 61.9969 47.25 61.9969 40.9732 61.9842C39.1585 61.9842 37.7997 60.6111 37.7962 58.7942C37.788 51.2689 37.788 43.743 37.7962 36.2165C37.7962 35.4086 38.1468 35.0029 38.8166 34.9856C39.5179 34.97 39.8914 35.386 39.8931 36.2251C39.8931 42.4537 39.8931 48.6822 39.8931 54.9108L39.9019 55.7672ZM39.9019 30.8022H60.8978C60.8978 30.6288 60.8978 30.504 60.8978 30.3757C60.9136 29.0407 60.6471 28.7703 59.3198 28.7703H54.8576C50.3107 28.7703 45.7644 28.7703 41.2186 28.7703C40.2578 28.7703 39.9124 29.117 39.9019 30.0515C39.8984 30.2907 39.9019 30.5265 39.9019 30.8056V30.8022Z" fill="#2B0F64"/>
<path d="M21.8077 57.8431C18.5057 57.8431 15.2036 57.8431 11.9015 57.8431C8.52814 57.8431 6.30671 55.6517 6.3032 52.3282C6.3032 48.4159 6.3032 44.5024 6.3032 40.5877C6.28927 40.3933 6.29751 40.1978 6.32775 40.0052C6.461 39.4574 6.81517 39.1384 7.40253 39.1592C7.95658 39.1817 8.27918 39.5059 8.38438 40.0364C8.40962 40.251 8.41548 40.4674 8.40191 40.6831C8.40191 44.5746 8.40191 48.4667 8.40191 52.3594C8.40191 54.5248 9.66781 55.7661 11.8735 55.7661C18.5641 55.7661 25.2553 55.7661 31.9471 55.7661C32.1225 55.7661 32.2978 55.7661 32.4731 55.7661C33.213 55.7887 33.6163 56.1666 33.6058 56.8185C33.6058 57.4391 33.199 57.824 32.4994 57.8344C31.3861 57.85 30.2692 57.8344 29.1541 57.8344L21.8077 57.8431Z" fill="#02C4EB"/>
<path d="M49.3541 37.1594C49.3541 36.778 49.3313 36.3879 49.3541 36.0013C49.3558 35.8655 49.3851 35.7315 49.4402 35.6072C49.4953 35.4828 49.5751 35.3707 49.6748 35.2774C49.7746 35.1841 49.8922 35.1116 50.0208 35.0641C50.1495 35.0166 50.2864 34.9951 50.4236 35.0009C50.9759 35.0131 51.4896 35.4205 51.4159 35.9857C51.2985 36.9115 51.6982 37.305 52.4995 37.7037C53.8162 38.3591 54.4807 39.5519 54.5842 41.0151C54.635 41.7502 54.2721 42.2009 53.6427 42.2599C53.0132 42.3188 52.5644 41.9131 52.4925 41.1451C52.4083 40.2419 51.9665 39.5848 51.0898 39.2866C50.7105 39.1345 50.2927 39.1028 49.8943 39.196C49.496 39.2892 49.1368 39.5026 48.8666 39.8067C48.5717 40.0882 48.3736 40.4541 48.3003 40.8529C48.227 41.2517 48.2822 41.6632 48.4581 42.0293C48.828 42.8961 49.5434 43.2723 50.4849 43.3105C52.8852 43.4093 54.7069 45.3164 54.5736 47.6447C54.4737 49.3784 53.5515 50.6041 51.9437 51.2733C51.5492 51.438 51.3896 51.62 51.4405 52.024C51.4659 52.2608 51.4659 52.4997 51.4405 52.7365C51.4365 52.8676 51.4059 52.9965 51.3504 53.1155C51.2949 53.2346 51.2156 53.3413 51.1174 53.4294C51.0192 53.5174 50.904 53.585 50.7788 53.628C50.6535 53.671 50.5208 53.6886 50.3885 53.6796C49.8081 53.6606 49.312 53.3329 49.3891 52.7885C49.5364 51.7241 48.9701 51.3461 48.1425 50.8971C46.9152 50.2331 46.3033 49.0802 46.2051 47.695C46.1507 46.9373 46.5558 46.4606 47.2027 46.4346C47.8217 46.4103 48.2179 46.8143 48.2968 47.5511C48.4073 48.5913 49.0507 49.316 50.015 49.4997C50.4601 49.5782 50.9189 49.5128 51.3234 49.3132C51.7279 49.1137 52.0567 48.7906 52.261 48.3919C52.6836 47.5632 52.5521 46.549 51.8262 45.9647C51.4403 45.6557 50.9743 45.4599 50.4814 45.3996C48.1548 45.1985 46.5628 43.8843 46.2314 41.7935C45.9211 39.8518 47.059 38.0973 49.1594 37.2738C49.2266 37.2397 49.2916 37.2015 49.3541 37.1594Z" fill="#02C4EB"/>
<path d="M56.6985 15.0919C56.6985 17.1879 56.6985 19.284 56.6985 21.38C56.6985 22.1983 56.2216 22.6421 55.4922 22.5485C54.9417 22.4791 54.6155 22.096 54.6155 21.4545C54.6033 20.0069 54.6155 18.5593 54.6155 17.1116C54.6155 14.4961 54.6155 11.8811 54.6155 9.26673C54.6155 7.21925 53.3321 5.9398 51.2685 5.93633C47.1815 5.93633 43.0963 5.93633 39.0093 5.93633C38.2782 5.93633 37.8925 5.65894 37.8048 5.10069C37.6926 4.37775 38.1362 3.87498 38.9444 3.86631C40.3874 3.85071 41.8287 3.86631 43.2716 3.86631C45.9156 3.86631 48.5602 3.86631 51.2054 3.86631C54.477 3.86631 56.709 6.08543 56.716 9.32915C56.702 11.2466 56.6985 13.1693 56.6985 15.0919Z" fill="#02C4EB"/>
</g>
<defs>
<clipPath id="clip0_190_1208">
<rect width="63" height="62" fill="white"/>
</clipPath>
</defs>
</svg>
