<svg width="59" height="45" viewBox="0 0 59 45" fill="none" xmlns="http://www.w3.org/2000/svg">
<g clip-path="url(#clip0_190_1193)">
<path d="M59.0001 30.8762C58.957 30.9989 58.9031 31.1185 58.8708 31.2442C58.6434 32.1505 58.1417 32.9653 57.4337 33.5781C56.7258 34.191 55.8458 34.5724 54.9129 34.6706C53.5274 34.8239 53.5274 34.8239 53.5274 36.2282C53.5274 37.5466 53.5351 38.8666 53.5274 40.1865C53.5044 43.107 51.6031 44.9988 48.6859 44.9988C34.0727 44.9988 19.4579 44.9988 4.84158 44.9988C1.93052 44.9988 0.00471325 43.0794 0.00317383 40.1835C0.00317383 31.769 0.00317383 23.354 0.00317383 14.9385C0.00317383 12.0533 1.94131 10.117 4.84774 10.117C19.461 10.117 34.0758 10.117 48.6921 10.117C51.5754 10.117 53.5105 12.0196 53.5228 14.8894C53.5428 19.3261 53.5228 23.7643 53.5228 28.201C53.5228 28.3727 53.5597 28.6027 53.4658 28.7023C53.238 28.9476 52.9702 29.2527 52.6715 29.3156C52.2728 29.3984 51.9341 29.1255 51.8433 28.6901C51.8023 28.445 51.7869 28.1963 51.7971 27.9481C51.7971 23.6831 51.7971 19.4181 51.7971 15.1531C51.7971 12.921 50.7195 11.8356 48.4843 11.8356H4.92933C3.23597 11.8356 2.09833 12.6604 1.79198 14.1229C1.74424 14.3859 1.72412 14.653 1.73194 14.9201C1.73194 23.355 1.73194 31.7894 1.73194 40.2233C1.73194 42.1105 2.89113 43.2772 4.77385 43.2772C19.4261 43.2772 34.0794 43.2772 48.7337 43.2772C50.6287 43.2772 51.7848 42.1381 51.7956 40.2448C51.8079 37.7214 51.7956 35.1964 51.7956 32.6714C51.7876 32.4615 51.7973 32.2512 51.8248 32.0429C51.841 31.8391 51.9371 31.6498 52.0924 31.5161C52.2477 31.3823 52.4497 31.3149 52.6546 31.3285C52.7562 31.3195 52.8586 31.3307 52.9559 31.3614C53.0531 31.3922 53.1432 31.4419 53.221 31.5077C53.2988 31.5734 53.3627 31.6539 53.4089 31.7445C53.4552 31.8351 53.4829 31.9339 53.4905 32.0352C53.5261 32.355 53.5456 32.6763 53.549 32.998C56.2214 33.2755 57.4837 31.4281 57.2297 29.5072C56.6879 25.3955 56.2491 21.2716 55.7688 17.1523C55.2654 12.8428 54.7728 8.53183 54.254 4.22393C54.0585 2.58815 52.69 1.5656 50.9674 1.7465C49.2447 1.9274 47.536 2.13896 45.8211 2.3398L34.3277 3.67969C29.5042 4.24079 24.6807 4.80292 19.8571 5.36606C15.7397 5.84233 11.6217 6.31451 7.50325 6.78261C6.59807 6.88379 5.78832 7.12755 5.15254 7.83429C4.76769 8.26201 4.2412 8.26355 3.88098 7.90941C3.52075 7.55527 3.5423 7.08616 3.89945 6.6707C4.80463 5.61902 6.00385 5.21582 7.3493 5.06404C12.2308 4.51521 17.1093 3.93724 21.9892 3.37767C26.7738 2.82475 31.5583 2.27387 36.3428 1.72504C41.115 1.1716 45.8765 0.633496 50.6379 0.0493993C53.4089 -0.290941 55.6918 1.48894 55.9997 4.24232C56.5031 8.7434 57.0512 13.2399 57.5761 17.7333C58.0133 21.4729 58.449 25.2126 58.8831 28.9522C58.9097 29.0991 58.9462 29.2441 58.9924 29.3861L59.0001 30.8762Z" fill="#2B0F64"/>
<path d="M11.0424 20.2553C11.926 20.2553 12.8096 20.2415 13.6917 20.2553C15.402 20.2874 16.4935 21.3698 16.5181 23.0669C16.5366 24.2336 16.5397 25.4002 16.5181 26.5669C16.4873 28.218 15.3759 29.3264 13.7133 29.3478C11.9276 29.3693 10.1418 29.3693 8.35609 29.3478C6.68273 29.3264 5.55897 28.1735 5.54511 26.504C5.53588 25.3558 5.53434 24.2044 5.54511 23.0608C5.56205 21.4449 6.65196 20.3166 8.27605 20.2614C9.19971 20.2292 10.1234 20.2614 11.047 20.2614L11.0424 20.2553ZM11.0424 27.6339C11.8875 27.6339 12.7358 27.6415 13.5763 27.6339C14.4168 27.6262 14.777 27.2843 14.7847 26.4565C14.797 25.3476 14.797 24.2387 14.7847 23.1297C14.7755 22.328 14.4307 21.9861 13.6117 21.9815C11.8844 21.9692 10.1572 21.9692 8.42999 21.9815C7.62795 21.9815 7.27542 22.354 7.26772 23.1512C7.25951 24.2407 7.25951 25.3302 7.26772 26.4197C7.26772 27.2736 7.63411 27.6262 8.50851 27.6339C9.35981 27.64 10.2034 27.6339 11.0486 27.6339H11.0424Z" fill="#2B0F64"/>
<path d="M16.1234 38.5591C13.1677 38.5591 10.211 38.5591 7.25327 38.5591C7.08119 38.5707 6.90837 38.5645 6.73757 38.5407C6.26496 38.4395 5.98479 38.1329 6.01096 37.65C6.03559 37.2008 6.31885 36.9172 6.78068 36.8498C6.91466 36.8362 7.04948 36.8326 7.184 36.839H25.0413C25.1758 36.8331 25.3105 36.8357 25.4447 36.8467C25.9342 36.9111 26.2144 37.2116 26.2267 37.6868C26.239 38.1621 25.945 38.4656 25.457 38.5469C25.2852 38.5648 25.1122 38.5689 24.9397 38.5591C22.0005 38.5612 19.0617 38.5612 16.1234 38.5591Z" fill="#02C4EB"/>
<path d="M46.5642 21.581C46.5775 23.0744 46.2479 24.551 45.6005 25.8981C45.3234 26.4914 44.8493 26.7137 44.369 26.4945C43.8887 26.2753 43.7532 25.7877 44.0396 25.1699C45.1274 22.7691 45.1274 20.3704 44.0396 17.9737C43.7563 17.3605 43.8856 16.8776 44.3859 16.6568C44.8863 16.436 45.3281 16.6568 45.6175 17.27C46.2589 18.6164 46.5827 20.091 46.5642 21.581Z" fill="#02C4EB"/>
<path d="M43.8362 32.2384C45.0247 32.2384 46.2131 32.2384 47.4015 32.2384C48.0527 32.2384 48.4037 32.545 48.4098 33.08C48.416 33.6151 48.0512 33.9508 47.4231 33.9539C45.0462 33.9631 42.6693 33.9631 40.2925 33.9539C39.6767 33.9539 39.2888 33.5783 39.2995 33.0724C39.3103 32.5664 39.6998 32.243 40.3279 32.2384C41.4978 32.2338 42.6663 32.2384 43.8362 32.2384Z" fill="#02C4EB"/>
<path d="M10.5939 33.9607C9.44398 33.9607 8.28478 33.9607 7.14253 33.9607C6.42516 33.9607 6.01258 33.6465 6.00027 33.1099C5.98795 32.5733 6.40053 32.2422 7.11175 32.2422C9.41165 32.2422 11.7121 32.2422 14.013 32.2422C14.7427 32.2422 15.1198 32.5488 15.1121 33.1068C15.1044 33.6649 14.7134 33.9577 13.9868 33.9607C12.8553 33.9638 11.7239 33.9607 10.5939 33.9607Z" fill="#02C4EB"/>
<path d="M32.3324 32.2387C33.5024 32.2387 34.6708 32.2387 35.8408 32.2387C36.4781 32.2387 36.8584 32.556 36.8722 33.0665C36.8861 33.577 36.4904 33.9542 35.8331 33.9557C33.4932 33.9618 31.1543 33.9618 28.8164 33.9557C28.139 33.9557 27.7619 33.6292 27.7634 33.0865C27.765 32.5438 28.1314 32.2417 28.8241 32.2387C29.9941 32.2356 31.1625 32.2387 32.3324 32.2387Z" fill="#02C4EB"/>
<path d="M21.684 32.2387C22.8524 32.2387 24.0224 32.2387 25.1908 32.2387C25.8297 32.2387 26.2099 32.5545 26.2268 33.065C26.2438 33.5755 25.8343 33.9542 25.1846 33.9557C22.8468 33.9618 20.5084 33.9618 18.1695 33.9557C17.4998 33.9557 17.1135 33.623 17.115 33.0865C17.1165 32.5499 17.4906 32.2417 18.1772 32.2387C19.3456 32.2356 20.5156 32.2387 21.684 32.2387Z" fill="#02C4EB"/>
<path d="M43.0249 21.6165C42.7678 22.5226 42.5631 23.3903 42.2721 24.2228C42.0551 24.836 41.5409 25.0521 41.0591 24.836C40.5772 24.6198 40.4294 24.1507 40.6881 23.5758C40.9841 22.9528 41.1377 22.2721 41.1377 21.5828C41.1377 20.8935 40.9841 20.2129 40.6881 19.5898C40.4264 19.0088 40.5757 18.5458 41.0468 18.3235C41.5178 18.1012 42.0489 18.2929 42.2644 18.9183C42.5677 19.7922 42.7709 20.6982 43.0249 21.6165Z" fill="#02C4EB"/>
<path d="M39.2458 21.5823C39.1509 21.9766 39.0316 22.3647 38.8886 22.7443C38.8473 22.8466 38.7857 22.9395 38.7076 23.0176C38.6294 23.0957 38.5363 23.1573 38.4337 23.1987C38.3312 23.2402 38.2213 23.2607 38.1106 23.2591C37.9999 23.2574 37.8907 23.2335 37.7895 23.1889C37.3615 23.0172 37.2107 22.6018 37.2953 22.1081C37.3554 21.7449 37.3523 21.3741 37.2861 21.012C37.1968 20.526 37.34 20.1857 37.7695 19.9756C37.8685 19.9253 37.9769 19.8961 38.0879 19.8899C38.1988 19.8837 38.3099 19.9006 38.4139 19.9396C38.5179 19.9785 38.6126 20.0387 38.692 20.1162C38.7714 20.1936 38.8336 20.2868 38.8748 20.3896C39.0249 20.7785 39.1488 21.177 39.2458 21.5823Z" fill="#02C4EB"/>
<path d="M11.4669 25.6542C11.159 25.6542 10.8511 25.6757 10.5433 25.6542C10.3206 25.6492 10.1084 25.559 9.95071 25.4022C9.79306 25.2455 9.70205 25.0344 9.69657 24.8126C9.69555 24.7025 9.71634 24.5932 9.75772 24.4911C9.7991 24.389 9.86028 24.296 9.93776 24.2174C10.0152 24.1388 10.1075 24.0762 10.2093 24.0331C10.3111 23.99 10.4204 23.9674 10.5309 23.9664C11.1621 23.9357 11.7938 23.9357 12.426 23.9664C12.9555 23.9924 13.2542 24.3236 13.2573 24.8019C13.2603 25.2802 12.9494 25.5975 12.4383 25.6604C12.4004 25.6627 12.3623 25.6627 12.3244 25.6604H11.4623L11.4669 25.6542Z" fill="#02C4EB"/>
</g>
<defs>
<clipPath id="clip0_190_1193">
<rect width="59" height="45" fill="white"/>
</clipPath>
</defs>
</svg>
