<svg width="82" height="82" viewBox="0 0 82 82" fill="none" xmlns="http://www.w3.org/2000/svg">
<g clip-path="url(#clip0_153_2017)">
<path d="M14.1979 28.5202H10.5723C10.0128 30.664 9.47719 32.8079 8.8749 34.9327C8.63684 35.7783 8.37259 36.6716 7.88933 37.3862C7.31519 38.2128 6.46741 38.8097 5.4959 39.0713C4.5244 39.3328 3.49175 39.2422 2.58058 38.8154C1.64569 38.4057 0.88767 37.6754 0.442955 36.7562C-0.00175904 35.837 -0.103963 34.7891 0.154739 33.8012C1.1165 30.0963 2.11715 26.4025 3.15668 22.7199C3.72327 20.7094 5.3278 19.5922 7.50367 19.5898C15.7025 19.5898 23.9013 19.5962 32.1001 19.6089C32.8309 19.6089 33.1452 19.3969 33.3404 18.7085C33.6951 17.4531 34.1331 16.2216 34.5688 14.9901C35.133 13.3989 36.3923 12.4818 38.0754 12.4675C38.8733 12.4263 39.6732 12.4863 40.456 12.6461C42.232 13.0987 43.4318 14.9162 42.9866 16.6956C42.182 19.8852 41.2797 23.0581 40.2799 26.1929C39.7799 27.7651 38.4611 28.4868 36.8208 28.5083C34.6783 28.5345 32.5524 28.5083 30.3599 28.5083V35.5544C31.6549 35.6282 32.9357 35.5925 34.1688 35.7926C37.3041 36.2905 39.2134 38.6511 39.2086 41.8311C39.2086 43.2842 39.2086 44.7396 39.2086 46.2641H53.4661V45.3208C53.4661 39.2863 53.4661 33.2517 53.4661 27.2172C53.4661 25.5116 54.0612 24.9209 55.78 24.9209H78.3577C78.3868 24.7634 78.4067 24.6043 78.4172 24.4445C78.4172 20.5212 78.4172 16.598 78.4339 12.6747C78.4339 12.1054 78.2148 11.9172 77.7197 11.7791C74.3511 10.8262 70.9897 9.87341 67.6259 8.89915C66.5213 8.58234 66.0071 8.0559 65.9595 7.19836C65.9119 6.34082 66.3642 5.74054 67.4021 5.29271L79.0957 0.290387C80.874 -0.471872 81.9929 0.290399 81.9929 2.23892C81.9929 28.0652 81.9929 53.8931 81.9929 79.7225C81.9929 81.3757 81.3834 81.995 79.7456 81.995H2.22111C0.633241 81.995 0.0119021 81.3709 0.00952148 79.7749C0.00952148 76.5036 0.00952148 73.2338 0.00952148 69.9656C0.00952148 68.3339 0.628479 67.7312 2.2949 67.7312H14.1979V28.5202ZM57.0489 28.5202V47.5981C57.0489 49.2941 56.4442 49.8849 54.7278 49.8849H39.2181C39.2181 52.8029 39.2181 55.6018 39.2181 58.384C39.2181 59.9586 38.5849 60.5827 36.9875 60.5827C33.3055 60.5827 29.6227 60.5827 25.9391 60.5827H25.0273C25.0005 60.6814 24.9798 60.7816 24.9654 60.8828V68.9961C24.9654 70.6874 24.3607 71.2805 22.642 71.2805H3.61138V78.3648H78.3791V28.513L57.0489 28.5202ZM39.53 16.0668C37.9945 15.9381 37.9945 15.9381 37.5826 17.1744C37.2859 18.0748 36.9867 18.9753 36.6852 19.8757C35.8448 22.3935 34.8188 23.1367 32.1763 23.1367C24.0989 23.1367 16.0191 23.1367 7.9417 23.1177C7.04421 23.1177 6.55619 23.3559 6.39669 24.2825C6.26575 25.0376 6.00151 25.7713 5.79916 26.5145C5.08339 29.1491 4.36921 31.782 3.65661 34.4134C3.50901 34.9565 3.62804 35.3948 4.1732 35.5616C4.71836 35.7283 5.07069 35.4139 5.21115 34.8731C5.26352 34.673 5.32066 34.4729 5.37541 34.2729C5.96104 32.0647 6.53715 29.8541 7.1323 27.6507C7.58938 25.9523 8.8749 24.9542 10.6389 24.9257C11.7673 24.9042 12.8957 24.9257 14.0265 24.9257C16.6452 24.9257 17.8355 26.1167 17.8355 28.7226V67.6669H21.4064V66.5545C21.4064 58.7382 21.4064 50.9242 21.4064 43.1127C21.4064 41.6406 22.0611 40.9855 23.5204 40.9688C24.8583 40.9688 26.1938 40.9688 27.5317 40.9688C30.3456 40.9688 32.093 42.7149 32.0977 45.5185C32.0977 49.0249 32.0977 52.5313 32.0977 56.0377V56.9739H35.6115C35.6343 56.8494 35.6502 56.7237 35.6591 56.5975C35.6591 51.5952 35.6734 46.6143 35.6591 41.6239C35.6591 40.1946 34.7497 39.3085 33.2214 39.2132C32.3334 39.1561 31.4407 39.1918 30.5503 39.1847C28.2721 39.1608 26.7699 37.6578 26.758 35.3734C26.758 33.3224 26.758 31.2738 26.758 29.2229C26.758 26.2739 28.1054 24.9352 31.0431 24.9352H37.0018C37.8517 21.9481 38.6801 19.0443 39.5252 16.0787L39.53 16.0668ZM25.0226 44.5371V56.95H28.5268C28.5268 53.0554 28.5268 49.2298 28.5268 45.4018C28.5268 44.8063 28.2388 44.5348 27.6555 44.5371H25.0226ZM78.4005 4.47568L73.3108 6.65763C74.127 7.0356 74.9755 7.33936 75.8461 7.5652C76.6817 7.80341 77.5126 8.02257 78.4005 8.26316V4.47568Z" fill="#03045E"/>
<path d="M27.6389 10.6671C27.6345 12.5595 26.8801 14.3728 25.5412 15.7094C24.2023 17.046 22.3883 17.7966 20.497 17.7966C18.6051 17.7821 16.7957 17.0193 15.4639 15.6746C14.132 14.3299 13.386 12.5126 13.3886 10.6194C13.4097 8.74177 14.1667 6.94749 15.4965 5.62261C16.8264 4.29774 18.6229 3.54816 20.4994 3.53517C21.4365 3.53329 22.3648 3.71641 23.231 4.07401C24.0973 4.43161 24.8846 4.95668 25.5478 5.61915C26.2109 6.28163 26.737 7.06848 27.0958 7.93468C27.4546 8.80088 27.6392 9.72941 27.6389 10.6671ZM24.068 10.6861C24.0718 9.74391 23.702 8.83863 23.0397 8.16882C22.3775 7.499 21.4768 7.11933 20.5351 7.11303C19.5914 7.11232 18.6855 7.48371 18.0135 8.14672C17.3415 8.80973 16.9577 9.71095 16.9452 10.6551C16.947 11.5994 17.3201 12.5051 17.9838 13.1764C18.6476 13.8477 19.5486 14.2307 20.4923 14.2425C21.4381 14.2451 22.3463 13.872 23.0176 13.2053C23.6888 12.5385 24.0683 11.6325 24.0727 10.6861H24.068Z" fill="#02C4EB"/>
<path d="M71.3039 48.0555C71.3039 45.2351 71.3039 42.4163 71.3039 39.5992C71.3039 38.239 71.9943 37.4124 73.1012 37.422C74.2082 37.4315 74.8653 38.2557 74.8653 39.6325C74.8653 45.3002 74.8653 50.9671 74.8653 56.6333C74.8653 57.9958 74.1749 58.82 73.0679 58.8105C71.9609 58.8009 71.3039 57.9791 71.3039 56.5999C71.3007 53.751 71.3007 50.9028 71.3039 48.0555Z" fill="#02C4EB"/>
<path d="M71.3038 73.0818C71.3038 71.8908 71.3038 70.8355 71.3038 69.7684C71.3181 68.5464 72.018 67.746 73.075 67.7412C74.132 67.7365 74.8533 68.5369 74.8628 69.7517C74.8771 71.3858 74.8771 73.0199 74.8628 74.654C74.8628 75.9498 74.1653 76.6335 72.875 76.6454C71.2086 76.6597 69.5422 76.662 67.8758 76.6454C66.7331 76.6454 65.9499 75.8855 65.9546 74.8612C65.9594 73.8369 66.7402 73.1175 67.89 73.0889C68.4542 73.0747 69.0185 73.0889 69.5827 73.0889L71.3038 73.0818Z" fill="#02C4EB"/>
</g>
<defs>
<clipPath id="clip0_153_2017">
<rect width="82" height="82" fill="white"/>
</clipPath>
</defs>
</svg>
