<svg width="90" height="89" viewBox="0 0 90 89" fill="none" xmlns="http://www.w3.org/2000/svg">
<path d="M16.2759 69.5524C16.2759 71.5635 17.6559 73.1998 19.352 73.1998H35.1712C36.8672 73.1998 38.2473 71.5635 38.2473 69.5524V63.8773C38.2473 61.8663 36.8672 60.23 35.1712 60.23H19.352C17.6559 60.23 16.2759 61.8663 16.2759 63.8773V69.5524ZM18.9126 63.8773C18.9126 63.5899 19.1096 63.3563 19.352 63.3563H35.1712C35.4136 63.3563 35.6106 63.5899 35.6106 63.8773V69.5524C35.6106 69.8398 35.4136 70.0735 35.1712 70.0735H19.352C19.1096 70.0735 18.9126 69.8398 18.9126 69.5524V63.8773Z" fill="#02C4EB"/>
<path d="M17.5944 33.599H26.8461C28.5918 33.5273 28.5904 30.5435 26.8461 30.4727H17.5944C15.8488 30.5441 15.85 33.5281 17.5944 33.599Z" fill="#02C4EB"/>
<path d="M17.5944 40.8939H31.5148C33.2605 40.8222 33.2591 37.8384 31.5148 37.7676H17.5944C15.8488 37.8391 15.85 40.823 17.5944 40.8939Z" fill="#02C4EB"/>
<path d="M49.5818 8.0786C49.2754 6.29867 47.1523 6.15715 46.6777 7.88414C46.6728 7.90207 46.6682 7.9202 46.6638 7.93833L45.4677 12.9138L44.2258 7.92291C44.2212 7.90415 44.2161 7.8856 44.211 7.86705C43.9934 7.10005 43.3673 6.60151 42.6845 6.6559C42.0032 6.7103 41.4374 7.30306 41.3055 8.11591L39.8615 17.6025C39.7323 18.452 40.2083 19.2653 40.9248 19.4185C41.6407 19.5715 42.3272 19.0075 42.4564 18.1578L43.051 14.2504L44.0459 18.2486C44.0503 18.267 44.0553 18.2849 44.0604 18.303C44.2667 19.0342 44.8433 19.5233 45.4931 19.5196C46.1437 19.5158 46.7159 19.0204 46.9168 18.2868C46.9215 18.2688 46.9263 18.2507 46.9307 18.2326L47.8906 14.2398L48.5247 18.1738C48.6614 19.0219 49.3535 19.5788 50.067 19.4156C50.782 19.2536 51.251 18.4348 51.1143 17.5869L49.5818 8.0786Z" fill="#02C4EB"/>
<path d="M36.9215 15.383C36.3634 14.8288 35.532 14.9153 35.0642 15.5768C35.0018 15.6654 34.9347 15.7475 34.8643 15.8217C33.2206 17.413 30.6141 15.5132 30.6971 13.0853C30.6556 10.4879 33.2561 8.85098 35.0454 10.3416C35.6487 10.8245 36.4682 10.6368 36.8758 9.92124C37.2833 9.20593 37.1247 8.23426 36.5213 7.75092C33.0085 4.85592 28.0047 8.00728 28.0602 13.0853C27.9511 18.1694 33.3185 21.5707 36.6176 18.1565C36.783 17.9818 36.9401 17.7896 37.0846 17.5854C37.5527 16.9236 37.4794 15.9376 36.9215 15.383Z" fill="#02C4EB"/>
<path d="M58.2913 11.6956C57.3345 11.2773 56.44 10.8227 56.113 10.6537C56.0369 10.5624 56.0304 10.449 56.0408 10.3633C56.068 10.1384 56.2319 9.9567 56.4901 9.86436C57.4906 9.50608 58.4462 10.3871 58.4831 10.4215C59.0405 10.9671 59.8656 10.8794 60.3318 10.222C60.8002 9.56132 60.7283 8.57526 60.1709 8.01961C59.4205 7.27158 57.6409 6.18798 55.7295 6.87099C54.4857 7.31534 53.6048 8.48314 53.431 9.91897C53.2668 11.2743 53.7628 12.5785 54.7249 13.3223C54.7832 13.3673 54.8444 13.4067 54.9077 13.4403C54.9555 13.4657 56.0958 14.0676 57.379 14.6285C57.8262 14.824 58.3277 15.1881 58.2702 15.5702C57.9258 16.9072 55.8606 16.408 55.2357 15.4624C54.0188 13.9768 52.155 15.9814 53.2819 17.5617C55.374 20.4356 60.1627 20.2434 60.866 16.1196C61.0911 14.6241 60.5332 12.6762 58.2913 11.6956Z" fill="#02C4EB"/>
<path d="M88.154 59.7923H85.5764C85.2204 58.2717 84.7086 56.8098 84.049 55.4299L85.8747 53.2652C86.5934 52.4122 86.5934 51.0243 85.8741 50.1706L82.27 45.8974C81.5834 45.0478 80.3461 45.0476 79.6595 45.8967L78.8643 46.8396V40.2144C78.8038 38.1445 76.2874 38.1462 76.2276 40.2144V47.1168C75.5538 46.7733 74.8623 46.4824 74.1552 46.2496V43.1933C74.1552 41.9865 73.3273 41.0049 72.3095 41.0049H67.2119C66.1942 41.0049 65.3663 41.9865 65.3663 43.1933V46.2496C64.0836 46.6716 62.8505 47.2788 61.6871 48.0608L59.862 45.8965C59.1752 45.0476 57.9382 45.0476 57.2518 45.8965L53.6466 50.171C52.9279 51.0241 52.9279 52.412 53.6471 53.2657L55.4722 55.4295C54.8125 56.8094 54.3009 58.2713 53.9449 59.7921H51.3673C50.3495 59.7921 49.5216 60.7738 49.5216 61.9806V68.0247C49.5216 69.2315 50.3495 70.2132 51.3673 70.2132H53.9449C54.3009 71.7338 54.8129 73.1957 55.4722 74.5756L53.647 76.7397C53.4893 76.9266 53.3682 77.1402 53.2796 77.3676H11.5089C12.2857 76.0985 12.7451 74.5321 12.7451 72.8389V28.3598C12.7451 27.153 13.5731 26.1714 14.5908 26.1714H74.3818C75.3995 26.1714 76.2274 27.153 76.2274 28.3598V32.92C76.2879 34.9899 78.8043 34.9882 78.8641 32.92V28.3598C78.8641 25.4292 76.8534 23.0451 74.3818 23.0451H74.2288V5.31473C74.2288 2.38412 72.2181 0 69.7465 0H19.2261C16.7545 0 14.7437 2.38412 14.7437 5.31473V7.91394H4.48357C2.01195 7.91394 0.00122191 10.2981 0.00122191 13.2287V15.3045C0.0616896 17.3744 2.57813 17.3727 2.63789 15.3045V13.2287C2.63789 12.0219 3.46581 11.0403 4.48357 11.0403H14.7437V23.0453H14.5908C12.1192 23.0453 10.1085 25.4294 10.1085 28.36V72.8391C10.1299 76.8178 6.0777 78.8758 3.73352 76.0687C3.02689 75.2311 2.63789 74.1167 2.63789 72.9306V22.5988C2.57743 20.529 0.0609865 20.5307 0.00122191 22.5988V72.9301C-0.0696167 76.9975 2.9499 80.5777 6.38021 80.4937H54.2033L57.2515 84.1077C57.9382 84.9573 59.175 84.9575 59.862 84.1084L61.6872 81.9443C62.8509 82.7265 64.084 83.3333 65.3664 83.7553V86.8116C65.3664 88.0183 66.1944 89 67.2121 89H72.3097C73.3274 89 74.1554 88.0183 74.1554 86.8116V83.7553C75.438 83.3333 76.6711 82.7261 77.8346 81.9443L79.6593 84.1077C80.3459 84.9573 81.5832 84.9575 82.2698 84.1084L85.875 79.8339C86.5941 78.9806 86.594 77.5925 85.8747 76.7394L84.0494 74.5754C84.7089 73.1957 85.2208 71.7336 85.5767 70.213H88.1543C89.1721 70.213 90 69.2313 90 68.0245V61.9803C89.9996 60.774 89.1717 59.7923 88.154 59.7923ZM17.3804 5.31452C17.3804 4.10776 18.2083 3.1261 19.2261 3.1261H69.7465C70.7642 3.1261 71.5922 4.10776 71.5922 5.31452V23.0449H17.3804V5.31452ZM87.363 67.0871H84.9659C84.1042 67.0871 83.3647 67.778 83.1677 68.7673C82.8297 70.4651 82.2628 72.0842 81.4828 73.5787C81.0318 74.4426 81.1418 75.5498 81.7502 76.2715L83.4503 78.2872L80.9643 81.2347L79.2644 79.219C78.6562 78.4981 77.7226 78.3676 76.9938 78.9016C75.733 79.8266 74.3679 80.4989 72.9358 80.8995C72.1012 81.1332 71.5183 82.01 71.5183 83.0317V85.8741H68.0028V83.0317C68.0028 82.01 67.4199 81.1332 66.5853 80.8995C65.1534 80.4989 63.7881 79.8268 62.5269 78.9014C61.7987 78.3674 60.8651 78.4981 60.2569 79.219L58.5568 81.2347L56.0708 78.2872L57.7709 76.2715C58.3794 75.5498 58.4895 74.4426 58.0384 73.5792C57.2583 72.0842 56.6914 70.4654 56.3534 68.7676C56.1564 67.778 55.4169 67.0871 54.5552 67.0871H52.1581V62.9187H54.5552C55.4169 62.9187 56.1564 62.2275 56.3534 61.2382C56.6914 59.5404 57.2583 57.9213 58.0383 56.4268C58.4893 55.5629 58.3793 54.4557 57.7707 53.734L56.0708 51.7183L58.5568 48.7709L60.2573 50.7871C60.8657 51.5078 61.7992 51.6379 62.5273 51.1041C63.7881 50.1792 65.1532 49.5068 66.5853 49.1062C67.4199 48.8726 68.0028 47.9957 68.0028 46.9741V44.1316H71.5183V46.9741C71.5183 47.9957 72.1012 48.8726 72.9358 49.1062C74.3677 49.5068 75.733 50.1789 76.9942 51.1043C77.7226 51.6383 78.6558 51.5076 79.2642 50.7867L80.9643 48.7711L83.4503 51.7185L81.7502 53.7342C81.1417 54.4559 81.0316 55.5631 81.4827 56.4266C82.2628 57.9216 82.8297 59.5404 83.1677 61.2382C83.3647 62.2277 84.1042 62.9189 84.9659 62.9189H87.363V67.0871Z" fill="#03045E"/>
<path d="M69.7605 55.7378C65.452 55.7378 61.947 59.8939 61.947 65.0025C62.3397 77.2764 77.183 77.2731 77.5741 65.0023C77.5741 59.8941 74.069 55.7378 69.7605 55.7378ZM69.7605 71.1409C66.9061 71.1409 64.5837 68.3873 64.5837 65.0027C64.844 56.8704 74.6783 56.8726 74.9374 65.0027C74.9374 68.3873 72.6152 71.1409 69.7605 71.1409Z" fill="#02C4EB"/>
</svg>
