<svg width="45" height="45" viewBox="0 0 45 45" fill="none" xmlns="http://www.w3.org/2000/svg">
<path d="M40.4997 4.47334C40.9324 4.47554 41.3647 4.50062 41.7947 4.54848C43.7374 4.86618 44.9966 6.37779 44.9983 8.38815C44.9983 14.9299 44.9983 21.4718 44.9983 28.0135V40.9434C44.9983 43.4115 43.4298 44.9761 40.9575 44.9761C30.1936 44.9761 19.4298 44.947 8.66584 45C6.12692 45.0119 4.32266 43.1707 4.49693 40.8375C4.49693 40.7435 4.49693 40.6496 4.49693 40.4788C4.24236 40.4788 4.00144 40.4788 3.75883 40.4788C1.64876 40.4498 -1.49244e-06 38.8357 -1.49244e-06 36.7314C-0.00797476 25.7384 -0.00797476 14.7461 -1.49244e-06 3.75426C-0.00575521 3.25968 0.0876454 2.76895 0.274636 2.31102C0.461626 1.85309 0.738457 1.43722 1.08879 1.08795C1.43912 0.738683 1.85586 0.463065 2.31444 0.277383C2.77301 0.0917005 3.26411 -0.000270489 3.75883 0.00683216C14.7562 -0.00227739 25.7542 -0.00227739 36.7528 0.00683216C38.8577 0.00683216 40.4672 1.65338 40.498 3.76452C40.5116 3.99681 40.4997 4.22567 40.4997 4.47334ZM38.9995 7.53071H1.50183V7.83988C1.50183 17.4425 1.50183 27.0445 1.50183 36.646C1.50183 38.0312 2.47232 38.9791 3.88188 38.9791H36.5905C38.053 38.9791 38.9962 38.0363 38.9979 36.5776C38.9979 33.0477 38.9979 29.5177 38.9979 25.9878C38.993 25.8734 38.9822 25.7594 38.9654 25.6462L38.8526 25.5779C38.7588 25.7213 38.6555 25.8582 38.5434 25.9878C36.2653 28.2754 33.9776 30.5585 31.6801 32.837C31.4261 33.0864 31.1253 33.2832 30.795 33.4161C28.7055 34.2359 26.604 35.0268 24.511 35.8364C24.1402 35.9798 23.7883 36.0704 23.4688 35.7527C23.1493 35.435 23.2501 35.0814 23.3936 34.7125C24.2052 32.6201 24.9962 30.5192 25.818 28.432C25.9503 28.1015 26.1472 27.8007 26.3972 27.5473C30.3081 23.6188 34.2173 19.6903 38.1692 15.7994C38.7877 15.1913 39.0457 14.6037 39.0235 13.7343C38.9586 11.6813 38.9995 9.61964 38.9995 7.53071ZM43.4999 21.0242C42.5619 21.9671 41.7299 22.8245 40.8704 23.6546C40.7443 23.7652 40.6447 23.9028 40.579 24.0572C40.5134 24.2115 40.4833 24.3787 40.4911 24.5462C40.5048 28.4975 40.5077 32.4482 40.4997 36.3983C40.4997 38.9296 38.95 40.4737 36.3991 40.4737C26.4644 40.4737 16.5286 40.4737 6.59163 40.4737H6.01758C5.76813 42.5131 7.04269 43.5037 8.77004 43.4969C19.5032 43.4491 30.2346 43.473 40.9678 43.473C42.5892 43.473 43.4913 42.5712 43.4913 40.9502V21.0242H43.4999ZM38.9995 5.98155V4.09074C38.9995 2.37074 38.1265 1.50137 36.4043 1.50137H4.11251C3.95703 1.50137 3.79984 1.50137 3.64437 1.50137C2.67903 1.5509 1.75298 2.20506 1.62142 3.15132C1.48986 4.09757 1.59239 5.03017 1.59239 5.98326L38.9995 5.98155ZM36.7784 19.4033L27.8939 28.2851L28.7567 29.3339L37.6806 20.4128L36.7784 19.4033ZM30.8497 31.3784C33.826 28.4052 36.8109 25.4219 39.8043 22.4283L38.8953 21.5333C35.9122 24.5166 32.9222 27.5057 29.9254 30.5005L30.8497 31.3784ZM37.9317 18.2042L40.9952 21.3112L42.984 19.3179L39.9086 16.2434L37.9317 18.2042ZM40.5219 10.4908H43.5016V8.53164C43.5016 6.75186 42.3261 5.76974 40.5219 6.05669V10.4908ZM40.5014 12.0007C40.5014 12.7881 40.486 13.5379 40.5133 14.2792C40.5261 14.4883 40.6092 14.6869 40.7491 14.8428C41.5624 15.6849 42.3979 16.5065 43.2282 17.3315C43.3015 17.3954 43.3804 17.4526 43.464 17.5023V12.0058L40.5014 12.0007ZM26.9098 29.7762C26.7611 30.1588 26.5835 30.5722 26.4468 31.0009C26.4323 31.0689 26.433 31.1392 26.4489 31.2068C26.4649 31.2745 26.4957 31.3377 26.539 31.3921C26.9628 31.8464 27.407 32.2836 27.8563 32.7141C27.8984 32.7517 27.9482 32.7796 28.0022 32.7958C28.0562 32.8121 28.1132 32.8162 28.169 32.808C28.6184 32.6577 29.0575 32.4766 29.4624 32.3229L26.9098 29.7762ZM25.7668 32.7397C25.6147 33.1462 25.4934 33.4673 25.3226 33.9199L26.4741 33.457L25.7668 32.7397Z" fill="#2B0F64"/>
<path d="M11.2697 10.4958C13.1924 10.4958 15.1139 10.4958 17.0344 10.4958C17.7417 10.4958 17.9997 10.7504 17.9997 11.4507C17.9997 13.8078 17.9997 16.1654 17.9997 18.5236C17.9997 19.2291 17.7434 19.4887 17.0429 19.4887C13.185 19.4887 9.32646 19.4887 5.46739 19.4887C4.76005 19.4887 4.50378 19.2342 4.50208 18.5322C4.50208 16.1751 4.50208 13.8174 4.50208 11.4592C4.50208 10.752 4.75667 10.4958 5.45888 10.4958C7.39525 10.4936 9.33219 10.4936 11.2697 10.4958ZM6.02268 17.96H16.4637V12.0194H6.02268V17.96Z" fill="#2B0F64"/>
<path d="M7.52283 23.9552V22.5137H26.9782V23.9552H7.52283Z" fill="#2B0F64"/>
<path d="M23.9813 25.5215V26.9613H4.52429V25.5215H23.9813Z" fill="#2B0F64"/>
<path d="M20.9811 28.5156V29.9572H4.52429V28.5156H20.9811Z" fill="#2B0F64"/>
<path d="M4.52258 32.9567V31.5151H20.9794V32.9567H4.52258Z" fill="#2B0F64"/>
<path d="M4.52258 35.9489V34.5073H20.9623V35.9489H4.52258Z" fill="#2B0F64"/>
<path d="M34.4787 14.2773V15.719H21.0341V14.2773H34.4787Z" fill="#2B0F64"/>
<path d="M35.9805 11.2798V12.7197H24.0206V11.2798H35.9805Z" fill="#2B0F64"/>
<path d="M21.0341 17.251H31.4563V18.7096H21.0341V17.251Z" fill="#2B0F64"/>
<path d="M22.4778 12.7248H21.0341V11.2729H22.4795L22.4778 12.7248Z" fill="#2B0F64"/>
<path d="M5.97489 23.9673H4.53625V22.5205H5.97489V23.9673Z" fill="#2B0F64"/>
<path d="M4.54138 3.00977H5.96633V4.46844H4.54138V3.00977Z" fill="#2B0F64"/>
<path d="M8.98536 3.03711V4.47014H7.52625V3.03711H8.98536Z" fill="#2B0F64"/>
<path d="M11.9788 4.48015H10.535V3.02832H11.9788V4.48015Z" fill="#2B0F64"/>
</svg>
