<svg width="71" height="84" viewBox="0 0 71 84" fill="none" xmlns="http://www.w3.org/2000/svg">
<g clip-path="url(#clip0_153_2012)">
<path d="M13.4724 72.015C11.3293 72.3978 9.21685 72.774 7.10439 73.1547C5.73977 73.3996 4.37443 73.649 3.00836 73.9027C1.97507 74.0942 1.04227 73.9863 0.386904 73.0226C-0.268461 72.059 -0.0259784 71.1767 0.507051 70.2526C3.36444 65.2977 6.18688 60.3274 9.05956 55.3747C9.34792 54.8774 9.35447 54.5562 8.9962 54.0832C-1.55953 40.1096 0.076694 20.7784 12.876 8.87085C18.4815 3.65633 25.1378 0.694826 32.7553 0.0941663C49.7948 -1.24797 64.9206 10.1822 68.2433 27.0667C70.1745 36.8664 68.0489 45.8565 62.1266 53.8895C61.6569 54.5254 61.6657 54.9457 62.0458 55.5969C64.8857 60.4726 67.6666 65.3725 70.4781 70.2614C70.8735 70.9478 71.151 71.6365 70.8801 72.444C70.4759 73.6431 69.4842 74.1536 67.9703 73.8851C65.1544 73.3857 62.3451 72.8642 59.5314 72.345C58.876 72.2262 58.201 72.125 57.4801 71.9995L54.7996 79.4627C54.4938 80.312 54.1705 81.1569 53.8952 82.0172C53.5588 83.0667 52.9733 83.8389 51.8112 83.9313C50.6839 84.0215 50.022 83.3615 49.4934 82.433C46.6906 77.5089 43.8529 72.6046 41.0588 67.6761C40.7268 67.0908 40.3882 66.884 39.7175 66.9831C36.9094 67.3989 34.0561 67.3989 31.248 66.9831C30.5664 66.8818 30.2409 67.1129 29.9132 67.6871C27.0908 72.664 24.2509 77.6292 21.3935 82.5826C20.6835 83.8147 19.5235 84.3428 18.4662 83.7245C17.8962 83.3747 17.4522 82.8504 17.1992 82.2284C16.0195 79.1327 14.936 76.0017 13.8175 72.884C13.7279 72.6244 13.6165 72.3538 13.4724 72.015ZM66.1352 33.6475C66.1549 16.642 52.4338 2.79384 35.5341 2.76524C18.6344 2.73663 4.95042 16.5034 4.86304 33.5683C4.78221 50.5562 18.5995 64.51 35.5013 64.5078C52.4032 64.5056 66.1134 50.6706 66.1352 33.6475ZM51.5119 80.3384C51.6757 79.9291 51.7784 79.6783 51.868 79.4385C52.9515 76.4242 54.0343 73.4106 55.1164 70.3978C55.5708 69.1327 55.964 68.895 57.2529 69.1217C58.7274 69.3813 60.1998 69.6541 61.6744 69.9159C63.6208 70.2636 65.5695 70.6046 67.6732 70.9764L59.6209 56.9258C55.2237 61.5247 49.6322 64.7869 43.4837 66.3406C46.1663 71.0204 48.8008 75.6101 51.5119 80.3384ZM19.4646 80.3802C22.2105 75.5903 24.8407 70.9984 27.519 66.3296C21.369 64.7814 15.774 61.5255 11.3708 56.9324L3.31856 70.9896L13.8874 69.0909C14.9425 68.9016 15.445 69.1877 15.8251 70.224C16.2314 71.3241 16.6181 72.4396 17.0135 73.5485C17.8065 75.7575 18.5973 77.9644 19.4646 80.3802Z" fill="#03045E"/>
<path d="M35.4748 9.28228C48.8005 9.25368 59.6774 20.1866 59.6927 33.6079C59.708 47.0292 48.8704 57.9555 35.5207 57.9731C22.1709 57.9907 11.3137 47.0755 11.3027 33.6541C11.2918 20.2328 22.1359 9.31309 35.4748 9.28228ZM35.5665 12.0832C23.8552 12.004 14.1907 21.6123 14.0837 33.4385C13.9788 45.3351 23.5013 55.0688 35.3459 55.1723C47.1424 55.2757 56.8418 45.6453 56.9117 33.7421C56.9816 21.8389 47.4264 12.1624 35.5665 12.0832Z" fill="#03045E"/>
<path d="M31.3679 34.9882C31.6563 34.711 31.8725 34.5108 32.0823 34.3018C35.8018 30.5541 39.5228 26.8086 43.2453 23.0653C45.4692 20.8452 48.9819 21.4789 50.1659 24.282C50.8694 25.9453 50.498 27.6769 49.0933 29.0982C46.2097 32.0172 43.3196 34.9303 40.4229 37.8375C38.3839 39.891 36.3407 41.9446 34.293 43.9981C32.0866 46.2093 29.3996 46.0399 27.475 43.5889C25.5089 41.0916 23.5428 38.6076 21.5768 36.1081C19.9689 34.0597 20.1896 31.4877 22.0901 29.9629C23.9492 28.4844 26.5051 28.8496 28.0976 30.843C29.1768 32.194 30.2341 33.5537 31.3679 34.9882ZM24.646 31.6549C24.1676 32.0509 23.7045 32.2996 23.4424 32.6868C23.0819 33.2193 23.2851 33.7869 23.6608 34.2776C25.6123 36.7462 27.5602 39.2163 29.5045 41.6879C30.5967 43.0674 31.2521 43.1092 32.4777 41.8661L46.8673 27.3733C47.0462 27.2041 47.2154 27.0249 47.3741 26.8364C47.598 26.5726 47.7159 26.234 47.7045 25.8872C47.6932 25.5403 47.5535 25.2103 47.3129 24.9618C47.0701 24.6956 46.7328 24.5363 46.3743 24.5186C46.0157 24.5009 45.6646 24.6261 45.3971 24.8672C45.1894 25.0444 44.9925 25.234 44.8072 25.4349C40.7221 29.5419 36.6378 33.6549 32.5541 37.7737C31.5121 38.8232 30.789 38.7682 29.8627 37.5955C28.552 35.9431 27.2697 34.2754 25.9306 32.6472C25.6313 32.2776 25.1681 32.0465 24.646 31.6549Z" fill="#02C4EB"/>
</g>
<defs>
<clipPath id="clip0_153_2012">
<rect width="71" height="84" fill="white"/>
</clipPath>
</defs>
</svg>
