<svg width="45" height="45" viewBox="0 0 45 45" fill="none" xmlns="http://www.w3.org/2000/svg">
<path d="M34.7321 6.11452C36.6737 5.62202 37.9309 6.02503 38.657 7.36182C39.3831 8.69861 39.0568 10.0002 37.6973 11.273L37.9788 11.7687C38.7305 13.0671 39.4886 14.3624 40.2179 15.6672C40.5823 16.2545 40.7007 16.9617 40.5474 17.6356C40.3941 18.3096 39.9816 18.8961 39.399 19.2682C38.1931 20.0262 36.7185 19.7063 35.8068 18.5198C35.7279 18.4394 35.6339 18.3754 35.5301 18.3315C35.4264 18.2876 35.315 18.2646 35.2023 18.264C32.7254 18.278 30.2658 18.6783 27.9123 19.4504C26.8216 19.7958 25.75 20.2084 24.6176 20.6082C24.7616 20.8161 24.8479 20.9536 24.9375 21.0847L29.0607 26.6397C29.7389 27.5543 29.6621 28.258 28.8144 29.0287C28.5809 29.243 28.3473 29.4573 28.1074 29.6683C27.3013 30.3751 26.3961 30.2856 25.75 29.4221C24.2466 27.4201 22.7474 25.4159 21.2525 23.4097C21.1886 23.3233 21.1246 23.2401 21.0894 23.1986C20.433 23.438 19.762 23.6356 19.0806 23.7902C17.9902 23.9507 16.8778 23.7346 15.9269 23.1776C14.976 22.6205 14.2436 21.7559 13.8507 20.7265C13.4515 19.6987 13.414 18.5658 13.7441 17.5138C14.0743 16.4619 14.7526 15.5535 15.6675 14.938C16.8287 14.1929 18.0442 13.5373 19.2373 12.8465C19.3269 12.7953 19.4517 12.7249 19.5316 12.7473C20.053 12.9008 20.3505 12.533 20.6799 12.2676C23.2869 10.1953 25.5996 7.84785 27.3205 4.96639C27.4335 4.81273 27.5024 4.63121 27.5199 4.44132C27.5374 4.25142 27.5027 4.06037 27.4197 3.88868C27.1791 3.29002 27.1737 2.62258 27.4044 2.02005C27.6352 1.41752 28.0851 0.924423 28.6641 0.639475C29.2416 0.332417 29.9147 0.25804 30.5453 0.43171C31.1759 0.605381 31.716 1.01389 32.0547 1.57329C32.8832 2.93246 33.6541 4.32679 34.457 5.70196C34.5593 5.84587 34.6489 5.9834 34.7321 6.11452ZM20.6863 13.8954C21.6907 15.6352 22.6888 17.3333 23.6548 19.0507C23.8691 19.4345 24.0291 19.5369 24.4769 19.3482C27.1807 18.1806 30.0446 17.426 32.9728 17.1095C33.6125 17.0456 34.2298 17.0103 34.9208 16.9591C32.7392 13.1822 30.5897 9.46294 28.405 5.67643C26.3898 8.98003 23.7284 11.5864 20.6863 13.8954ZM29.8508 1.63403C29.5761 1.63746 29.3091 1.72561 29.0863 1.88646C28.8636 2.0473 28.696 2.27303 28.6064 2.53271C28.5389 2.75816 28.5245 2.9962 28.5644 3.22814C28.6044 3.46009 28.6976 3.67962 28.8367 3.86948L34.0443 12.8816C34.9528 14.4551 35.858 16.0317 36.7729 17.602C37.1439 18.2416 37.7325 18.5134 38.3211 18.3567C39.2327 18.1201 39.6006 17.1703 39.1144 16.2972C38.0492 14.4295 36.968 12.5683 35.8932 10.707C34.3109 7.96304 32.7285 5.22017 31.1462 2.47836C31.0343 2.22802 30.8526 2.01519 30.6228 1.86545C30.3931 1.71571 30.1251 1.63537 29.8508 1.63403ZM23.0343 20.5026L19.4004 14.2089C18.3289 14.8485 17.2669 15.3986 16.2817 16.0733C15.6235 16.5495 15.1486 17.2369 14.9361 18.0208C14.7236 18.8048 14.7865 19.6379 15.1141 20.3811C15.4278 21.1297 15.9881 21.7486 16.702 22.1348C17.416 22.5211 18.2406 22.6516 19.039 22.5046C20.5488 22.2232 21.6524 21.155 23.0343 20.5122V20.5026ZM22.161 22.4535L26.8152 28.6865C26.9591 28.8784 27.0967 28.8783 27.2662 28.7184C27.5093 28.4882 27.7492 28.258 28.0115 28.0501C28.0678 28.0204 28.1158 27.9774 28.1515 27.9247C28.1871 27.872 28.2093 27.8114 28.2159 27.7482C28.2225 27.6849 28.2135 27.6211 28.1896 27.5622C28.1656 27.5033 28.1275 27.4512 28.0787 27.4105C27.7172 26.9627 27.3878 26.4894 27.0455 26.0289L23.7476 21.5804C23.6612 21.622 23.5908 21.6475 23.5269 21.6827L22.161 22.4535ZM37.0224 10.1217C37.2014 10.001 37.3546 9.84595 37.4731 9.6655C37.5915 9.48506 37.673 9.28282 37.7126 9.07063C37.7522 8.85843 37.7491 8.64047 37.7037 8.42945C37.6582 8.21843 37.5713 8.01863 37.4478 7.84153C37.2394 7.5137 36.9119 7.27944 36.5342 7.18817C36.1565 7.09691 35.7582 7.15575 35.423 7.35221L37.0224 10.1217Z" fill="#03045E"/>
<path d="M6.81348 42.8858L11.2437 39.7965C11.9378 39.3136 12.6224 38.8019 13.3421 38.3542C13.6074 38.1961 13.9132 38.1194 14.2218 38.1335C16.6878 38.346 19.1719 38.1602 21.5789 37.5835C21.5789 37.0622 21.5789 36.5473 21.5789 36.0356C21.5638 35.8296 21.5931 35.6227 21.6648 35.4289C21.7364 35.2352 21.8488 35.059 21.9943 34.9124C22.1398 34.7657 22.315 34.6518 22.5082 34.5786C22.7014 34.5053 22.9081 34.4743 23.1143 34.4877C24.6305 34.4877 26.1499 34.4877 27.6661 34.4877C27.8727 34.494 28.0757 34.4334 28.2451 34.315C29.8669 32.9142 31.0312 31.2385 31.2775 29.0478C31.4408 27.4307 31.0149 25.8091 30.078 24.4809C29.4434 23.5328 28.6515 22.7 27.7365 22.0184C27.5884 21.9358 27.4774 21.7998 27.4263 21.6381C27.3751 21.4764 27.3877 21.3013 27.4614 21.1486C27.4992 21.0646 27.5555 20.9903 27.6261 20.9314C27.6968 20.8724 27.7799 20.8302 27.8692 20.8081C27.9586 20.7859 28.0518 20.7843 28.1419 20.8034C28.2319 20.8225 28.3164 20.8618 28.389 20.9183C32.7969 24.1771 34.1659 29.4571 30.4362 33.928C30.3018 34.0879 30.1611 34.2479 29.9756 34.4622C30.1739 34.4622 30.2954 34.4941 30.4298 34.4941C31.3414 34.4941 32.2531 34.4941 33.1647 34.4941C33.3671 34.4841 33.5693 34.5164 33.7583 34.5892C33.9474 34.6619 34.1192 34.7734 34.2626 34.9165C34.406 35.0596 34.5178 35.2311 34.591 35.4199C34.6641 35.6088 34.697 35.8109 34.6873 36.0132C34.7001 38.5013 34.7001 40.9894 34.6873 43.4775C34.696 43.68 34.6624 43.882 34.5887 44.0708C34.515 44.2596 34.403 44.4311 34.2595 44.5743C34.116 44.7174 33.9442 44.8292 33.7552 44.9024C33.5662 44.9757 33.364 45.0088 33.1615 44.9998C29.8092 44.9998 26.4548 44.9998 23.0983 44.9998C22.8962 45.0099 22.6943 44.9775 22.5055 44.9047C22.3168 44.8319 22.1454 44.7203 22.0025 44.5771C21.8596 44.434 21.7484 44.2623 21.6759 44.0735C21.6035 43.8846 21.5715 43.6827 21.5821 43.4807C21.5821 41.9776 21.5821 40.4777 21.5821 38.9395C20.8984 39.0828 20.2076 39.1895 19.5125 39.2593C17.8172 39.3456 16.1219 39.3647 14.4265 39.4287C14.1777 39.4317 13.9343 39.5025 13.7227 39.6334C11.2757 41.322 8.84147 43.0297 6.39763 44.7247C6.21997 44.8621 6.00928 44.9504 5.78669 44.9806C5.34527 45.0062 5.10536 44.584 5.23011 44.0564C5.62356 42.3422 6.0266 40.6312 6.42324 38.9202C6.48439 38.5612 6.56874 38.2065 6.67588 37.8585C6.81982 37.4747 6.65668 37.334 6.356 37.1709C4.27681 36.0836 2.48553 34.6636 1.25721 32.6265C-0.639643 29.486 -0.342125 25.9105 2.01215 23.0131C3.9314 20.6689 6.46162 19.2521 9.29251 18.3246C9.96745 18.104 10.6616 17.9377 11.3557 17.7746C11.8739 17.6499 12.2065 17.829 12.2961 18.2192C12.3857 18.6093 12.1266 18.9099 11.618 19.0187C9.74479 19.4057 7.9463 20.0925 6.29204 21.0526C4.7308 21.9168 3.40183 23.1456 2.4184 24.6344C0.710269 27.3368 0.956573 30.4422 3.05815 32.991C4.242 34.3825 5.7144 35.5 7.37326 36.2658C8.19854 36.6688 8.23692 36.7392 8.01301 37.6346C7.63236 39.3456 7.23571 41.0565 6.81348 42.8858ZM28.1075 43.7205C29.7069 43.7205 31.3255 43.7205 32.9344 43.7205C33.3183 43.7205 33.4303 43.5894 33.4271 43.2184C33.4143 40.8732 33.4143 38.5365 33.4271 36.2083C33.4271 35.8885 33.3343 35.7446 32.9888 35.7446C29.7559 35.7446 26.5231 35.7446 23.2902 35.7446C22.948 35.7446 22.8488 35.8661 22.852 36.1987C22.852 38.5525 22.852 40.9031 22.852 43.2568C22.852 43.6246 22.9799 43.7205 23.3286 43.7173C24.9216 43.7014 26.5145 43.7205 28.1075 43.7205Z" fill="#03045E"/>
<path d="M1.28585 11.3404C1.40375 11.0808 1.53949 10.8297 1.69209 10.5888C2.16871 9.93001 1.88397 9.22961 1.08108 9.12407C0.34857 9.02813 0.0127452 8.65403 0.00634766 7.91527C0.00634766 7.50592 0.00634766 7.09654 0.00634766 6.68719C0.00771777 6.42514 0.1068 6.17302 0.284286 5.98019C0.461772 5.78736 0.704887 5.66771 0.965972 5.64461C1.94479 5.4943 2.20071 4.88983 1.62493 4.08712C1.44858 3.88226 1.35807 3.61731 1.37238 3.34741C1.38668 3.0775 1.50468 2.82354 1.7017 2.63846C1.99918 2.31866 2.31263 1.9988 2.63251 1.70777C2.81674 1.51037 3.06965 1.39112 3.33918 1.37446C3.60872 1.3578 3.8744 1.445 4.08155 1.61822C4.89403 2.20027 5.49536 1.93803 5.6425 0.978606C5.66607 0.710886 5.79124 0.462351 5.99229 0.283948C6.19333 0.105545 6.45504 0.0107997 6.72372 0.0191862C7.14915 0.0191862 7.57459 0.0191862 8.00322 0.0191862C8.14398 0.0127437 8.28464 0.0341494 8.41712 0.0821169C8.5496 0.130084 8.67127 0.203726 8.77526 0.298783C8.87925 0.393839 8.96351 0.508441 9.02313 0.636079C9.08276 0.763717 9.11662 0.901892 9.12278 1.04263C9.23474 1.9125 9.91605 2.20353 10.6166 1.68224C10.7222 1.58265 10.8469 1.50544 10.9831 1.45535C11.1194 1.40526 11.2644 1.38331 11.4094 1.39078C11.5544 1.39825 11.6963 1.43501 11.8267 1.49884C11.9571 1.56267 12.0732 1.65228 12.168 1.76219C12.4655 2.04362 12.7566 2.33144 13.038 2.63206C13.2441 2.8179 13.3689 3.07712 13.3856 3.35405C13.4024 3.63097 13.3097 3.90342 13.1276 4.11273C12.5646 4.88666 12.8269 5.5199 13.7674 5.65742C14.0358 5.67611 14.287 5.79625 14.47 5.99347C14.653 6.19068 14.754 6.45019 14.7525 6.7192C14.7749 7.17332 14.7749 7.63065 14.7525 8.08158C14.749 8.35084 14.644 8.60878 14.4584 8.80388C14.2727 8.99897 14.0202 9.11677 13.7514 9.13368C12.8461 9.2552 12.5678 9.9108 13.1116 10.6496C13.2066 10.754 13.2798 10.8763 13.3272 11.0093C13.3746 11.1422 13.3953 11.2832 13.3878 11.4242C13.3804 11.5651 13.3451 11.7032 13.284 11.8305C13.2228 11.9577 13.1371 12.0715 13.0316 12.1654C12.7502 12.4661 12.4591 12.7571 12.1616 13.0354C12.0683 13.1419 11.9547 13.2288 11.8275 13.2911C11.7003 13.3533 11.562 13.3897 11.4206 13.3981C11.2792 13.4064 11.1376 13.3865 11.004 13.3396C10.8704 13.2927 10.7474 13.2197 10.6422 13.1249C9.90648 12.578 9.24434 12.853 9.12598 13.7645C9.10876 14.0407 8.98583 14.2998 8.78276 14.4879C8.57969 14.6761 8.31199 14.7789 8.03516 14.7751C7.60973 14.7943 7.18429 14.7911 6.75566 14.7751C6.47109 14.7864 6.19372 14.6842 5.9844 14.4911C5.77509 14.2981 5.65095 14.0298 5.6393 13.7453C5.51455 12.8691 4.84923 12.5908 4.14231 13.1057C4.03693 13.206 3.9122 13.2836 3.77573 13.334C3.63927 13.3843 3.49396 13.4062 3.34871 13.3984C3.20346 13.3907 3.06129 13.3533 2.93099 13.2887C2.80068 13.224 2.68502 13.1335 2.59096 13.0226C2.28509 12.7498 1.99758 12.4571 1.73044 12.1463C1.55714 11.8923 1.4083 11.6224 1.28585 11.3404ZM3.4482 2.79196L2.7477 3.43158C3.70732 4.98904 3.15713 6.30984 1.29865 6.94945V7.83212C3.19231 8.51331 3.65931 9.65176 2.79885 11.2892L3.4386 12.0055C4.73729 11.0461 6.43261 11.7274 6.77487 13.0258C6.89323 13.4607 7.09479 13.5407 7.46265 13.4927C7.581 13.4927 7.70251 13.4927 7.81767 13.4735C8.22711 11.5546 10.108 11.1069 11.3203 11.9896L11.9985 11.3212C11.7594 11.0236 11.6065 10.6663 11.5563 10.288C11.5061 9.90966 11.5605 9.52484 11.7137 9.17529C11.8621 8.8162 12.1043 8.50354 12.4149 8.27006C12.7256 8.03658 13.0932 7.89081 13.4794 7.84805C13.4714 7.72879 13.4714 7.60916 13.4794 7.4899C13.5466 7.08375 13.4123 6.88548 12.9805 6.77674C12.6701 6.69534 12.3863 6.53459 12.1569 6.31031C11.9275 6.08602 11.7605 5.80591 11.6722 5.49752C11.5477 5.16602 11.5096 4.80825 11.5617 4.45799C11.6137 4.10773 11.7541 3.77651 11.9696 3.49552L11.3299 2.76955C11.0308 3.00915 10.6721 3.16278 10.2923 3.21405C9.91251 3.26532 9.52587 3.21226 9.17393 3.06055C8.82045 2.91596 8.51197 2.6797 8.2803 2.37612C8.04863 2.07254 7.90221 1.71268 7.85609 1.33363H6.9188C6.8705 1.71182 6.72365 2.07064 6.49287 2.37417C6.26209 2.6777 5.95556 2.91525 5.604 3.06297C5.25244 3.21069 4.8682 3.26342 4.48983 3.21585C4.11146 3.16828 3.75224 3.02211 3.4482 2.79196Z" fill="#03045E"/>
<path d="M45.0001 24.5868C44.8302 25.4523 44.6081 26.3067 44.3348 27.1453C43.5457 29.4726 42.1113 31.5278 40.1987 33.0713C39.0088 34.0083 37.6717 34.5329 36.1299 34.0627C35.7125 33.9276 35.3146 33.7384 34.9464 33.4999C34.5987 33.2866 34.3469 32.9472 34.2437 32.5526C34.1406 32.158 34.1941 31.7388 34.393 31.3827C34.6905 30.8199 35.0136 30.2698 35.3527 29.7293C35.5615 29.3605 35.9083 29.0897 36.3167 28.9764C36.7252 28.863 37.1619 28.9164 37.531 29.1249C37.6681 29.1906 37.8006 29.2654 37.9277 29.3488C38.2475 29.579 38.4682 29.499 38.7017 29.2144C39.5934 28.1199 40.307 26.8917 40.8161 25.5751C40.9729 25.1721 40.9121 24.9162 40.4963 24.7307C40.2543 24.6375 40.0358 24.4921 39.8567 24.3047C39.6775 24.1172 39.542 23.8925 39.4599 23.6466C39.3883 23.4295 39.364 23.1995 39.3888 22.9722C39.4136 22.7449 39.487 22.5255 39.6038 22.329C39.9237 21.8045 40.1987 21.2704 40.5154 20.7555C40.6223 20.5684 40.7655 20.4045 40.9364 20.2733C41.1073 20.142 41.3027 20.046 41.5111 19.9909C41.7195 19.9359 41.9368 19.9228 42.1502 19.9525C42.3637 19.9822 42.5691 20.054 42.7545 20.1639C44.3315 20.9954 44.9937 22.3322 45.0001 24.5868ZM43.7206 24.283C43.7206 22.8599 43.3176 21.9165 42.2396 21.3216C42.187 21.2773 42.1244 21.2463 42.0573 21.2313C41.9902 21.2162 41.9204 21.2175 41.8539 21.235C41.7874 21.2526 41.7262 21.2859 41.6753 21.3321C41.6243 21.3784 41.5853 21.4362 41.5614 21.5007C41.3023 21.9612 41.0336 22.4217 40.7681 22.879C40.7262 22.9292 40.6972 22.9889 40.6835 23.0528C40.6697 23.1168 40.6718 23.183 40.6894 23.246C40.707 23.309 40.7397 23.3667 40.7846 23.4142C40.8295 23.4617 40.8854 23.4975 40.9473 23.5186C41.1072 23.6061 41.2639 23.6988 41.4175 23.7969C41.7333 23.9861 41.9741 24.2783 42.0994 24.6244C42.2247 24.9705 42.2267 25.3491 42.1052 25.6965C41.5482 27.3717 40.6558 28.9157 39.4822 30.2346C39.249 30.5104 38.9272 30.6966 38.5719 30.7614C38.2165 30.8261 37.8497 30.7654 37.5342 30.5896C37.3455 30.4969 37.1664 30.3753 36.9776 30.2698C36.9302 30.2372 36.8761 30.2155 36.8193 30.2062C36.7624 30.197 36.7042 30.2005 36.6489 30.2164C36.5935 30.2323 36.5424 30.2602 36.4992 30.2982C36.4559 30.3362 36.4216 30.3833 36.3987 30.4361C36.1204 30.9222 35.8356 31.3955 35.5573 31.8912C35.5231 31.9376 35.4996 31.9909 35.4886 32.0475C35.4776 32.104 35.4794 32.1623 35.4939 32.2181C35.5083 32.2738 35.5349 32.3257 35.5719 32.3699C35.6089 32.414 35.6553 32.4493 35.7077 32.4732C36.2769 32.8633 36.975 33.0181 37.6557 32.905C38.5186 32.7021 39.3062 32.2585 39.9269 31.6258C40.8391 30.7756 41.61 29.7857 42.2108 28.6932C43.0296 27.2604 43.647 25.7381 43.7206 24.283Z" fill="#03045E"/>
<path d="M16.3073 31.3668H8.97579C8.80903 31.3728 8.64205 31.3642 8.47677 31.3413C8.40401 31.337 8.3329 31.3179 8.26786 31.285C8.20283 31.2521 8.1453 31.2062 8.09879 31.1501C8.05228 31.094 8.01777 31.0288 7.9975 30.9589C7.97723 30.8889 7.9716 30.8155 7.98094 30.7432C8.06213 30.5001 8.22055 30.2901 8.43202 30.1452C8.53758 30.0589 8.75182 30.094 8.91816 30.094H23.6708C23.8532 30.094 24.0866 30.0588 24.2018 30.1547C24.3873 30.3114 24.6144 30.5673 24.6016 30.7688C24.5888 30.9703 24.3297 31.1878 24.1282 31.3317C24.0163 31.4116 23.8083 31.3668 23.6388 31.3668H16.3073Z" fill="#03045E"/>
<path d="M14.1961 26.6397H8.96295C8.79607 26.6462 8.62894 26.6366 8.46392 26.611C8.39117 26.6057 8.3203 26.5853 8.2558 26.5512C8.1913 26.5172 8.13461 26.4701 8.08922 26.413C8.04384 26.3559 8.01079 26.29 7.99215 26.2195C7.97352 26.149 7.96966 26.0753 7.98091 26.0033C8.06789 25.7622 8.23059 25.5558 8.44471 25.4149C8.55347 25.3285 8.76459 25.3669 8.93093 25.3669H19.6724C20.2001 25.3669 20.4976 25.6131 20.4913 26.0065C20.4849 26.3999 20.1969 26.6301 19.6563 26.6461L14.1961 26.6397Z" fill="#03045E"/>
<path d="M37.1469 3.86965C36.5935 3.86965 36.2609 3.40914 36.4784 3.00298C36.9678 2.07874 37.4988 1.17689 38.0426 0.284628C38.0796 0.216972 38.1305 0.157779 38.1918 0.110905C38.253 0.0640308 38.3234 0.0305176 38.3984 0.0124488C38.4734 -0.00562004 38.5513 -0.00778265 38.6272 0.00604641C38.7031 0.0198755 38.7753 0.0493528 38.8391 0.0927128C38.9144 0.12302 38.9822 0.169183 39.0381 0.228022C39.094 0.28686 39.1366 0.357021 39.163 0.433757C39.1894 0.510492 39.199 0.59199 39.1911 0.672753C39.1832 0.753515 39.1581 0.831641 39.1174 0.901833C38.6184 1.81968 38.0874 2.72153 37.5436 3.61379C37.454 3.7577 37.2301 3.81848 37.1469 3.86965Z" fill="#03045E"/>
<path d="M42.8505 11.3403C42.3802 11.3403 41.9101 11.3403 41.4398 11.3403C40.9696 11.3403 40.7393 11.094 40.7233 10.7359C40.72 10.644 40.7365 10.5526 40.7717 10.4677C40.807 10.3828 40.8601 10.3064 40.9275 10.2439C40.9948 10.1814 41.075 10.1341 41.1623 10.1053C41.2496 10.0765 41.3421 10.0669 41.4334 10.0771C42.3909 10.0622 43.3505 10.0622 44.3123 10.0771C44.4008 10.0696 44.4898 10.0805 44.5738 10.1092C44.6579 10.1379 44.7349 10.1839 44.8002 10.244C44.8655 10.3042 44.9176 10.3773 44.9531 10.4587C44.9886 10.54 45.0067 10.628 45.0064 10.7167C45.0067 10.8049 44.9886 10.8922 44.9535 10.9731C44.9184 11.054 44.867 11.1268 44.8024 11.1868C44.7378 11.2469 44.6615 11.293 44.5783 11.3221C44.4951 11.3513 44.4067 11.363 44.3187 11.3563C43.8357 11.3723 43.3591 11.3563 42.8633 11.3563L42.8505 11.3403Z" fill="#03045E"/>
<path d="M43.9221 4.76182C43.8256 4.92422 43.701 5.06825 43.5542 5.18719C42.7833 5.6605 41.9964 6.10824 41.2064 6.54957C41.1347 6.59941 41.0537 6.63403 40.9682 6.65138C40.8826 6.66874 40.7944 6.66842 40.709 6.65045C40.6237 6.63247 40.5428 6.59727 40.4716 6.54692C40.4003 6.49656 40.3401 6.43214 40.2947 6.35766C40.2481 6.2794 40.2189 6.19213 40.2088 6.10164C40.1987 6.01115 40.208 5.91956 40.2362 5.83297C40.2643 5.74639 40.3107 5.66677 40.3721 5.59952C40.4335 5.53227 40.5085 5.47897 40.5921 5.44305C41.3566 4.98893 42.1275 4.54114 42.9048 4.1062C43.4198 3.82158 43.9189 4.08383 43.9221 4.76182Z" fill="#03045E"/>
<path d="M25.6829 39.7137C25.6829 39.0741 25.6829 38.4089 25.6829 37.7565C25.6829 37.1041 26.1499 36.8195 26.7225 37.1425C27.8826 37.7991 29.0383 38.4665 30.1899 39.1445C30.7273 39.4643 30.7337 40.0079 30.1899 40.3309C29.0277 41.0196 27.8548 41.6933 26.6713 42.3521C26.1467 42.6432 25.6829 42.3521 25.6701 41.7637C25.6669 41.0825 25.6829 40.3981 25.6829 39.7137ZM28.6737 39.7361L26.9943 38.7767V40.7179L28.6737 39.7361Z" fill="#03045E"/>
<path d="M11.2372 7.3873C11.2372 7.89534 11.1364 8.39835 10.9405 8.86711C10.7446 9.33587 10.4576 9.76108 10.096 10.1181C9.7345 10.4751 9.3056 10.7568 8.83434 10.9468C8.36308 11.1368 7.85881 11.2313 7.35071 11.225C6.33474 11.2183 5.36228 10.8118 4.64387 10.0936C3.92546 9.3753 3.51891 8.40305 3.51221 7.3873C3.5122 6.35982 3.91955 5.37427 4.64505 4.64654C5.37054 3.9188 6.35503 3.50827 7.38272 3.50488C8.40869 3.50912 9.391 3.9204 10.1138 4.64841C10.8365 5.37642 11.2406 6.36155 11.2372 7.3873ZM7.37312 9.96496C7.71484 9.96884 8.05388 9.90425 8.37023 9.775C8.68658 9.64575 8.97377 9.45449 9.21498 9.21245C9.45618 8.9704 9.6465 8.68245 9.7746 8.36569C9.90271 8.04894 9.96601 7.70973 9.96086 7.36809C9.96008 6.68683 9.69123 6.03328 9.2124 5.54857C8.73357 5.06386 8.08321 4.78695 7.40186 4.77771C6.71205 4.77513 6.04925 5.0453 5.55789 5.52936C5.06654 6.01342 4.78649 6.67214 4.7789 7.36177C4.77721 7.7033 4.84308 8.04176 4.97273 8.35773C5.10238 8.6737 5.29328 8.9609 5.53438 9.20285C5.77549 9.44479 6.06209 9.63671 6.37765 9.7675C6.69321 9.8983 7.03152 9.96539 7.37312 9.96496Z" fill="#03045E"/>
</svg>
