<svg width="45" height="45" viewBox="0 0 45 45" fill="none" xmlns="http://www.w3.org/2000/svg">
<path d="M1.92213 18.7516L5.31307 21.6604C10.6958 26.276 16.0802 30.8916 21.4663 35.5072C22.2177 36.1545 22.7899 36.1596 23.5412 35.5147C29.9691 30.005 36.397 24.4954 42.8249 18.9858C42.8951 18.9269 42.9589 18.8605 43.0754 18.7466C42.5933 18.3259 42.1187 17.9264 41.6642 17.5044C41.5089 17.3616 41.3061 17.1651 41.3023 16.9898C41.3023 16.7393 41.3887 16.4012 41.5652 16.2622C41.7418 16.1232 42.1701 16.0556 42.3266 16.1733C43.5124 17.0624 44.7496 17.9377 44.9562 19.5868C44.9881 19.8498 45.0031 20.1145 45.0012 20.3794C45.0012 27.2556 45.0012 34.131 45.0012 41.0055C45.0012 43.416 43.4173 45.0038 41.0156 45.0038H3.99827C1.59281 45.0038 0.00754983 43.4172 0.00629764 41.0105C0.00629764 34.136 0.00417397 27.2611 0 20.3857C0 19.0621 0.454548 17.984 1.47383 17.14C1.78688 16.8821 2.08739 16.6078 2.40044 16.3499C2.83245 15.9918 3.2607 15.9868 3.56122 16.3286C3.86175 16.6705 3.81168 17.1037 3.35713 17.5044C2.90259 17.9051 2.423 18.3158 1.92213 18.7516ZM41.9321 43.436L41.971 43.2895L29.3839 32.4944C29.2412 32.6108 29.1197 32.7072 29.0083 32.8074C27.4906 34.1072 25.973 35.4078 24.4553 36.7093C23.2107 37.7724 21.8044 37.7699 20.5572 36.7093C19.0371 35.4103 17.5194 34.1093 16.0043 32.8062C15.8878 32.706 15.7663 32.6121 15.6286 32.4994L3.02531 43.3108L3.08664 43.436H41.9321ZM1.54647 20.4057C1.52909 20.4762 1.51612 20.5478 1.50764 20.6199C1.50764 27.4952 1.51054 34.371 1.51639 41.2472C1.51639 41.6053 1.65919 41.9622 1.75435 42.413C6.05187 38.7278 10.2517 35.124 14.4816 31.4976L1.54647 20.4057ZM30.5285 31.4976L43.2732 42.428C43.3609 41.9021 43.4911 41.4826 43.4911 41.0631C43.5037 34.3289 43.5066 27.5946 43.4999 20.8603C43.4999 20.7351 43.4811 20.5998 43.4673 20.4007L30.5285 31.4976Z" fill="#2B0F64"/>
<path d="M26.2522 14.2514C27.1851 14.1876 28.0291 14.2652 28.664 14.9802C29.0405 15.3855 29.2494 15.9184 29.2488 16.4715C29.2543 16.8326 29.1718 17.1897 29.0084 17.5117C28.845 17.8337 28.6056 18.1111 28.3109 18.3198C27.7124 18.7743 27.0036 18.7568 26.2522 18.7468V21.7182C26.2522 22.2028 26.2522 22.6874 26.2522 23.1708C26.2522 23.5377 26.102 23.8082 25.7514 23.9409C25.4008 24.0736 25.1391 23.9597 24.9086 23.7055C23.2808 21.9048 21.1521 21.2211 18.7491 21.017V21.4891C18.7491 22.566 18.7579 23.6441 18.7491 24.7223C18.7514 25.0197 18.6949 25.3147 18.5826 25.5902C18.4704 25.8657 18.3047 26.1162 18.0952 26.3274C17.8857 26.5385 17.6364 26.7061 17.3618 26.8205C17.0872 26.9349 16.7927 26.9937 16.4952 26.9937C15.2505 26.9937 14.265 25.992 14.2538 24.7122C14.2421 23.5093 14.2421 22.3063 14.2538 21.1034C14.2538 20.8317 14.1736 20.704 13.9182 20.5888C12.9659 20.1689 12.1896 19.4306 11.7225 18.5005C11.2555 17.5705 11.1268 16.5069 11.3587 15.4923C11.807 13.4563 13.6264 12.0313 15.7739 11.9862C17.2215 11.9549 18.6827 11.9687 20.114 11.7758C21.9635 11.5254 23.6026 10.734 24.8786 9.30902C25.1178 9.0423 25.3995 8.90956 25.7552 9.0473C26.1108 9.18504 26.256 9.48682 26.2497 9.86749C26.2497 11.3012 26.2522 12.7375 26.2522 14.2514ZM18.7704 19.5206C20.903 19.6031 22.9685 20.2887 24.7271 21.4979V11.4803C22.9705 12.6956 20.9047 13.3869 18.7704 13.4738V19.5206ZM17.2365 13.5001C16.6267 13.5001 16.0657 13.4688 15.5085 13.5001C14.8101 13.5577 14.1537 13.8575 13.653 14.3477C13.1522 14.838 12.8386 15.4878 12.7662 16.1848C12.6197 17.6073 13.5312 19.026 14.9199 19.3491C15.6612 19.5206 16.4513 19.4743 17.2365 19.5344V13.5001ZM15.7601 21.0132C15.7601 22.2917 15.7464 23.5502 15.7677 24.8074C15.7721 24.9015 15.7952 24.9938 15.8354 25.079C15.8756 25.1641 15.9322 25.2406 16.002 25.3039C16.0718 25.3671 16.1534 25.416 16.2421 25.4477C16.3308 25.4794 16.4249 25.4933 16.519 25.4886C16.617 25.4873 16.7138 25.4665 16.8036 25.4275C16.8935 25.3884 16.9747 25.3319 17.0425 25.2612C17.1104 25.1904 17.1635 25.1069 17.1987 25.0155C17.2339 24.924 17.2506 24.8264 17.2478 24.7285C17.2641 23.9346 17.2478 23.1395 17.2478 22.3493V21.017L15.7601 21.0132ZM26.2873 15.7728V17.2191C27.3279 17.2842 27.7562 17.0626 27.7486 16.4803C27.7411 15.8981 27.2916 15.6739 26.2873 15.7753V15.7728Z" fill="#2B0F64"/>
<path d="M22.5143 4.48802H35.7312C38.1717 4.48802 39.7507 6.06077 39.752 8.49503C39.752 11.9795 39.752 15.4643 39.752 18.9496C39.7562 19.0748 39.7541 19.2002 39.7457 19.3252C39.7336 19.5142 39.6515 19.6918 39.5153 19.8234C39.3791 19.9549 39.1987 20.0309 39.0094 20.0365C38.8198 20.0349 38.6375 19.9625 38.4985 19.8335C38.3595 19.7044 38.2738 19.5281 38.2581 19.339C38.2485 19.199 38.2464 19.0585 38.2518 18.9183C38.2518 15.448 38.2518 11.9786 38.2518 8.51007C38.2518 6.88222 37.3565 5.98689 35.7312 5.98689H9.25235C7.66207 5.98689 6.75549 6.89348 6.75549 8.49127C6.75549 11.9765 6.75549 15.4614 6.75549 18.9458C6.76582 19.1017 6.76038 19.2581 6.73923 19.4129C6.71414 19.5855 6.62814 19.7435 6.4968 19.8583C6.36545 19.9731 6.19739 20.0372 6.02295 20.039C5.84133 20.0426 5.66463 19.9797 5.52623 19.8621C5.38782 19.7444 5.29728 19.5802 5.27163 19.4004C5.25575 19.2607 5.25116 19.12 5.25787 18.9796C5.25787 15.4785 5.25787 11.9778 5.25787 8.47751C5.25787 6.07456 6.84564 4.49178 9.25486 4.49178C13.6734 4.48761 18.0933 4.48635 22.5143 4.48802Z" fill="#2B0F64"/>
<path d="M25.839 2.27669C25.6662 2.49458 25.5472 2.79384 25.3469 2.86397C25.0773 2.94668 24.786 2.9192 24.5367 2.78757C24.1423 2.5484 23.8155 2.19655 23.4561 1.89728C22.8075 1.35883 22.2039 1.35758 21.5628 1.89728C21.2147 2.18653 20.8815 2.49332 20.5284 2.77381C20.1465 3.07809 19.7271 3.04927 19.4441 2.7212C19.1611 2.39312 19.1936 1.9699 19.5605 1.64183C19.9537 1.2862 20.3531 0.935592 20.7713 0.611274C21.2502 0.22681 21.8432 0.0122909 22.4572 0.00141172C23.0712 -0.00946742 23.6714 0.183912 24.1636 0.551171C24.6249 0.900016 25.0648 1.27636 25.4809 1.67814C25.6224 1.81088 25.6925 2.03127 25.839 2.27669Z" fill="#2B0F64"/>
<path d="M30.7626 13.2985C30.8577 13.192 31.003 12.9416 31.2196 12.8101C31.6782 12.5455 32.1505 12.3055 32.6346 12.0914C33.0691 11.8885 33.4735 12.0275 33.6664 12.4169C33.8492 12.7926 33.729 13.1883 33.327 13.4062C32.8262 13.6804 32.3078 13.9459 31.7781 14.1713C31.2484 14.3967 30.7287 13.996 30.7626 13.2985Z" fill="#2B0F64"/>
<path d="M33.7466 20.0953C33.7466 20.7214 33.2632 21.1334 32.8212 20.9556C32.2154 20.7085 31.6293 20.4154 31.0681 20.079C30.7213 19.8737 30.6474 19.5005 30.854 19.1349C31.0606 18.7692 31.3862 18.634 31.7682 18.8031C32.3264 19.0444 32.8699 19.3183 33.396 19.6233C33.5801 19.736 33.6777 19.9989 33.7466 20.0953Z" fill="#2B0F64"/>
<path d="M32.2691 15.7477C32.5346 15.7477 32.8025 15.7276 33.0655 15.7477C33.2554 15.7599 33.4329 15.8461 33.56 15.9877C33.6871 16.1294 33.7537 16.3151 33.7454 16.5053C33.7191 16.9185 33.4824 17.194 33.0767 17.2228C32.5308 17.2553 31.9835 17.2553 31.4376 17.2228C31.2483 17.2118 31.0708 17.1269 30.9434 16.9864C30.816 16.8458 30.7489 16.661 30.7564 16.4714C30.7619 16.282 30.8388 16.1017 30.9716 15.9666C31.1044 15.8314 31.2834 15.7514 31.4727 15.7427C31.504 15.7427 31.5353 15.7427 31.5666 15.7427H32.2691V15.7477Z" fill="#2B0F64"/>
</svg>
