<svg width="77" height="78" viewBox="0 0 77 78" fill="none" xmlns="http://www.w3.org/2000/svg">
<g clip-path="url(#clip0_153_2022)">
<path d="M57.0515 0C57.21 0.0610536 57.3643 0.136358 57.5289 0.183166C59.9663 0.885282 61.6786 2.91633 61.7111 5.47447C61.7781 10.5501 61.7415 15.6297 61.7334 20.7073C61.7334 21.5214 61.2419 22.0078 60.5431 21.9834C59.8444 21.9589 59.4666 21.5071 59.4646 20.6931C59.4646 15.8671 59.4646 11.0432 59.4646 6.22135C59.4646 3.59401 58.1626 2.28951 55.5464 2.28951H17.8376C16.6717 2.28951 16.6717 2.2895 16.6717 3.42917C16.6717 6.40044 16.6717 9.36969 16.6717 12.341C16.6717 15.1413 15.0813 16.7185 12.2762 16.7226C9.26194 16.7226 6.24632 16.7226 3.22934 16.7226H2.33968C2.3214 17.1296 2.29093 17.4491 2.29093 17.7727C2.29093 35.8486 2.29093 53.9252 2.29093 72.0025C2.29093 74.3755 3.64167 75.7146 6.02221 75.7146H55.6622C58.1118 75.7146 59.4483 74.3592 59.4544 71.8824C59.4544 71.5019 59.4422 71.1213 59.4666 70.7407C59.4652 70.5994 59.4923 70.4593 59.5462 70.3288C59.6002 70.1983 59.68 70.0801 59.7807 69.9812C59.8815 69.8824 60.0011 69.8049 60.1325 69.7536C60.2639 69.7023 60.4042 69.6781 60.5452 69.6825C61.1545 69.6519 61.5465 70.0061 61.6948 70.5942C62.621 74.2879 59.8343 77.9878 56.0522 77.9919C39.2516 78.0108 22.4517 78.0108 5.65253 77.9919C2.40264 77.9919 0.0180366 75.4988 0.0139743 72.1734C0.0017872 61.7631 0.0017872 51.3542 0.0139743 40.9466C0.0139743 33.2783 0.0363138 25.612 -0.00227863 17.9497C-0.0275519 17.038 0.140419 16.1313 0.49054 15.2894C0.840662 14.4474 1.36498 13.6895 2.0289 13.0655C5.46024 9.68173 8.8645 6.27021 12.2417 2.83086C13.4604 1.5874 14.7157 0.443649 16.4625 0.0183091L57.0515 0ZM4.00118 14.2153L4.14337 14.4188C7.00124 14.4188 9.85708 14.4432 12.7129 14.4066C13.7915 14.3923 14.3785 13.7065 14.3846 12.5587C14.4029 9.89474 14.3846 7.22873 14.3846 4.56476C14.3644 4.39469 14.3277 4.22702 14.2749 4.06413C10.8077 7.49941 7.40341 10.8533 4.00118 14.2153Z" fill="#03045E"/>
<path d="M52.6441 56.7676C50.0909 56.0859 48.9758 54.7773 48.6894 52.209C48.5756 51.1914 47.9764 50.5809 47.0644 50.2003C45.3745 49.4941 44.4239 48.2018 44.2208 46.3865C44.0962 45.4191 44.3226 44.4391 44.8586 43.6248C45.5309 42.589 45.4679 41.6284 44.8586 40.5722C43.4245 38.1504 44.3894 35.2096 46.971 34.0842C48.0861 33.5978 48.6447 32.8631 48.7605 31.6095C49.0225 28.801 51.5127 26.9816 54.265 27.584C55.5019 27.8547 56.3957 27.5433 57.2264 26.6051C59.091 24.5029 62.1967 24.5375 64.0451 26.6581C64.8311 27.5596 65.7005 27.8527 66.8786 27.5942C69.7385 26.9674 72.1596 28.7563 72.4521 31.6889C72.572 32.8407 73.1021 33.5815 74.1807 34.0476C76.8496 35.1994 77.8023 38.1463 76.3236 40.6434C75.7284 41.6487 75.7142 42.5544 76.3236 43.5638C77.8205 46.0955 76.8557 49.0423 74.1441 50.2064C73.0879 50.6602 72.5679 51.399 72.4684 52.5163C72.2815 54.6185 71.142 55.9882 69.1474 56.5865C68.6213 56.7432 68.5563 56.9935 68.5584 57.4372C68.5705 60.5848 68.5705 63.7325 68.5584 66.8801C68.5584 68.3963 67.7276 69.4363 66.385 69.5116C65.8094 69.5204 65.2418 69.3764 64.7397 69.0943C63.5413 68.437 62.3876 67.6983 61.2441 66.9493C60.8094 66.6644 60.4865 66.6237 60.0254 66.9249C58.9082 67.6657 57.7403 68.3312 56.6069 69.0516C55.7233 69.6133 54.8154 69.7619 53.8871 69.2246C52.9589 68.6873 52.6583 67.8753 52.6684 66.8537C52.6827 63.7827 52.6684 60.7117 52.6684 57.6407L52.6441 56.7676ZM74.7189 38.5065C74.6742 37.2285 74.1746 36.4999 73.2077 36.1071C71.3634 35.3582 70.3844 33.9886 70.1792 32.0084C69.9985 30.2663 68.8732 29.4726 67.169 29.8532C65.2861 30.2745 63.7282 29.7575 62.4567 28.3146C61.3131 27.0142 59.8609 27 58.7396 28.2882C57.4742 29.7392 55.9244 30.2745 54.0395 29.8593C52.2663 29.4665 51.1227 30.3376 50.9683 32.1264C50.814 33.9153 49.9121 35.2137 48.277 35.9708C46.3819 36.8459 45.998 37.9957 47.0075 39.7927C47.8749 41.3333 47.8749 42.8861 47.0075 44.4267C45.992 46.2237 46.3779 47.3776 48.275 48.2486C49.8573 48.9752 50.7632 50.2227 50.9562 51.9424C51.1836 53.9775 52.2074 54.761 54.1898 54.3397C55.8919 53.9795 57.4539 54.3723 58.5101 55.7318C59.609 57.1563 61.5284 57.1828 62.6395 55.7562C63.6977 54.3947 65.2679 53.9002 66.9415 54.3519C68.8305 54.8628 70.1671 53.6681 70.2463 51.981C70.3316 50.1494 71.402 48.8958 73.0737 48.1672C74.6986 47.461 75.1516 46.0955 74.2579 44.5895C73.2768 42.9288 73.2809 41.2885 74.2579 39.6238C74.4417 39.2646 74.5959 38.8909 74.7189 38.5065ZM54.9474 67.3543C56.0422 66.6848 57.0761 66.1902 57.9495 65.4922C59.743 64.0676 61.4208 64.0554 63.2184 65.4922C64.0918 66.1902 65.1236 66.6929 66.1839 67.3462V56.5458C65.3532 56.4583 64.7012 56.7371 64.2563 57.3314C63.824 57.8973 63.2674 58.3558 62.6296 58.6714C61.9919 58.987 61.2902 59.1511 60.5789 59.1511C59.8676 59.1511 59.1659 58.987 58.5281 58.6714C57.8904 58.3558 57.3337 57.8973 56.9014 57.3314C56.6803 57.0319 56.3805 56.7999 56.0355 56.6612C55.6905 56.5225 55.3138 56.4826 54.9474 56.5458V67.3543Z" fill="#03045E"/>
<path d="M37.8227 7.89438H49.1445C51.0781 7.89438 52.047 8.85564 52.0511 10.7781C52.0511 11.7672 52.0511 12.7583 52.0511 13.7474C52.0511 15.7479 51.072 16.7166 49.049 16.7187H35.371C34.7617 16.7187 34.1523 16.737 33.543 16.7187C32.7305 16.6861 32.2349 16.1997 32.2694 15.5139C32.2999 14.8626 32.7833 14.4454 33.5795 14.4454C38.6453 14.4373 43.7111 14.4373 48.7768 14.4454C49.766 14.4454 49.766 14.4454 49.768 13.4401C49.768 12.5772 49.7457 11.7143 49.768 10.8514C49.7822 10.3711 49.6421 10.1819 49.1282 10.1819C41.5803 10.1968 34.0325 10.1968 26.4846 10.1819C26.0053 10.1819 25.796 10.308 25.8123 10.8209C25.8407 11.8099 25.8387 12.8011 25.8123 13.7901C25.8001 14.2928 26.0012 14.4719 26.4866 14.4495C27.0168 14.4251 27.551 14.4353 28.0811 14.4495C28.7392 14.4739 29.0967 14.8565 29.1901 15.4854C29.2067 15.6319 29.1932 15.7802 29.1503 15.9213C29.1075 16.0623 29.0364 16.1931 28.9413 16.3056C28.8461 16.4181 28.729 16.5098 28.5972 16.5753C28.4653 16.6407 28.3215 16.6784 28.1746 16.6861C27.3425 16.7523 26.506 16.7401 25.6762 16.6495C24.427 16.4867 23.5942 15.5159 23.5557 14.248C23.5171 12.9802 23.5191 11.7082 23.5557 10.4403C23.5942 8.90176 24.6301 7.90863 26.1962 7.90456C30.0717 7.88625 33.9472 7.89438 37.8227 7.89438Z" fill="#02C4EB"/>
<path d="M24.2767 43.7082H38.4076C38.6839 43.7082 39.0515 43.6308 39.2201 43.7753C39.5512 44.0623 39.9087 44.4449 40.0021 44.8458C40.1321 45.4055 39.7137 45.7942 39.1734 45.9427C38.8996 45.9942 38.6204 46.01 38.3426 45.9895H9.93658C9.1241 45.9651 8.59601 45.5215 8.59194 44.8478C8.58788 44.1742 9.10379 43.7102 9.92439 43.7082C13.8243 43.7 17.7241 43.7 21.624 43.7082H24.2767Z" fill="#02C4EB"/>
<path d="M24.2988 37.9506H10.3202C10.0675 37.9621 9.81433 37.9553 9.56261 37.9302C8.98372 37.8427 8.57546 37.4459 8.63639 36.9127C8.68311 36.5056 9.02232 36.0803 9.34934 35.7995C9.55245 35.6244 9.97697 35.6733 10.2999 35.6733C19.6434 35.6733 28.9868 35.6733 38.3302 35.6733C38.6328 35.6571 38.9363 35.6825 39.2321 35.7486C39.4983 35.8063 39.731 35.9668 39.8797 36.1955C40.0284 36.4241 40.0811 36.7023 40.0262 36.9696C40.0113 37.227 39.9013 37.4695 39.7177 37.6501C39.5341 37.8307 39.2901 37.9363 39.033 37.9465C38.781 37.9672 38.528 37.9726 38.2754 37.9628L24.2988 37.9506Z" fill="#02C4EB"/>
<path d="M24.3761 51.7424H38.3527C38.6553 51.7424 39.0392 51.6692 39.2423 51.8198C39.5714 52.066 39.9878 52.473 39.9858 52.8068C39.9858 53.1833 39.6141 53.6208 39.285 53.9037C39.0819 54.0787 38.6574 54.0217 38.3304 54.0217C28.9869 54.0217 19.6435 54.0217 10.3001 54.0217C10.1741 54.0217 10.0462 54.0217 9.92024 54.0217C9.10776 53.979 8.58576 53.5252 8.59185 52.8597C8.59794 52.1942 9.10979 51.7445 9.94258 51.7424C14.2758 51.7424 18.6056 51.7424 22.932 51.7424H24.3761Z" fill="#02C4EB"/>
<path d="M24.3699 27.6598C29.0024 27.6598 33.6355 27.6598 38.2693 27.6598C38.5728 27.6464 38.8769 27.6628 39.1772 27.7086C39.4199 27.7434 39.6415 27.8662 39.7998 28.0538C39.9582 28.2413 40.0424 28.4806 40.0364 28.7262C40.0728 28.9822 40.0105 29.2425 39.8623 29.4542C39.714 29.6659 39.4908 29.8131 39.2381 29.8658C38.9422 29.9312 38.6391 29.9578 38.3363 29.9452C28.9929 29.9452 19.6494 29.9452 10.306 29.9452H10.0034C9.11778 29.9106 8.58154 29.4771 8.58154 28.7892C8.58154 28.1014 9.11169 27.6659 10.0034 27.6638C13.4225 27.6638 16.841 27.6638 20.2588 27.6638L24.3699 27.6598Z" fill="#02C4EB"/>
<path d="M17.1452 63.506C19.4486 63.506 21.7519 63.506 24.0512 63.506C24.9734 63.506 25.4629 63.8927 25.4731 64.603C25.4832 65.3132 24.9673 65.7874 24.035 65.7874C19.3524 65.7874 14.6706 65.7874 9.98937 65.7874C8.923 65.7874 8.31973 65.0324 8.68331 64.1959C8.93518 63.618 9.42063 63.4999 9.99343 63.502C12.3862 63.5101 14.7667 63.506 17.1452 63.506Z" fill="#02C4EB"/>
<path d="M60.5515 32.5499C63.073 32.5401 65.4959 33.5301 67.2913 35.3039C69.0868 37.0776 70.1089 39.4911 70.1347 42.0173C70.1484 43.2813 69.9114 44.5355 69.4376 45.7071C68.9638 46.8787 68.2625 47.9443 67.3745 48.8423C66.4864 49.7402 65.4292 50.4525 64.2643 50.9379C63.0993 51.4233 61.8498 51.6721 60.5881 51.6698C58.0541 51.6677 55.6245 50.6586 53.8321 48.8639C52.0398 47.0692 51.0311 44.6355 51.0273 42.0966C51.038 39.5687 52.0448 37.1472 53.8285 35.3593C55.6122 33.5714 58.0285 32.5617 60.5515 32.5499ZM60.5962 34.8394C58.6758 34.835 56.8316 35.5925 55.4668 36.9462C54.102 38.2999 53.3274 40.1399 53.3124 42.0641C53.3073 43.0238 53.4915 43.9752 53.8544 44.8634C54.2173 45.7517 54.7517 46.5594 55.427 47.2401C56.1023 47.9209 56.9051 48.4613 57.7894 48.8303C58.6737 49.1993 59.622 49.3897 60.58 49.3905C62.5006 49.3986 64.3459 48.6421 65.7099 47.2872C67.0739 45.9324 67.845 44.0902 67.8536 42.1658C67.8628 41.2058 67.6817 40.2535 67.3209 39.364C66.9601 38.4746 66.4267 37.6658 65.7517 36.9843C65.0767 36.3029 64.2735 35.7624 63.3885 35.3942C62.5035 35.0261 61.5545 34.8375 60.5962 34.8394Z" fill="#02C4EB"/>
</g>
<defs>
<clipPath id="clip0_153_2022">
<rect width="77" height="78" fill="white"/>
</clipPath>
</defs>
</svg>
