<svg width="90" height="90" viewBox="0 0 90 90" fill="none" xmlns="http://www.w3.org/2000/svg">
<path d="M88.2422 36.6942H76.9922C76.0213 36.6942 75.2344 37.4813 75.2344 38.452V47.3289C75.2344 48.2996 76.0213 49.0867 76.9922 49.0867C77.963 49.0867 78.75 48.2996 78.75 47.3289V40.2098H86.4844V86.4844H82.6172H78.75V60.5125C78.75 59.5419 77.963 58.7547 76.9922 58.7547C76.0213 58.7547 75.2344 59.5419 75.2344 60.5125V86.4844H71.7188V50.0977C71.7188 49.127 70.9318 48.3398 69.9609 48.3398H58.7109C57.7401 48.3398 56.9531 49.127 56.9531 50.0977V86.4844H53.4375V62.4023C53.4375 61.4317 52.6505 60.6445 51.6797 60.6445H40.4297C39.4588 60.6445 38.6719 61.4317 38.6719 62.4023V86.4844H35.1562V72.4878C35.1562 71.5171 34.3693 70.73 33.3984 70.73H22.1484C21.1776 70.73 20.3906 71.5171 20.3906 72.4878V86.4844H5.27344C4.30418 86.4844 3.51562 85.6958 3.51562 84.7266V5.27344C3.51562 4.30418 4.30418 3.51562 5.27344 3.51562H50.6206V15.1177C50.6206 18.0255 52.9863 20.3912 55.894 20.3912H67.4956V42.0117C67.4956 42.9824 68.2826 43.7695 69.2534 43.7695C70.2243 43.7695 71.0112 42.9824 71.0112 42.0117V18.6333C71.0112 18.1672 70.826 17.7202 70.4964 17.3904L53.6214 0.514863C53.2916 0.185273 52.8446 0 52.3784 0H5.27344C2.36566 0 0 2.36566 0 5.27344V84.7266C0 87.6343 2.36566 90 5.27344 90H88.2422C89.213 90 90 89.2129 90 88.2422V38.452C90 37.4813 89.213 36.6942 88.2422 36.6942ZM54.1362 6.0017L65.0099 16.8755H55.894C54.9246 16.8755 54.1362 16.087 54.1362 15.1177V6.0017ZM31.6406 86.4844H23.9062V74.2456H31.6406V86.4844ZM49.9219 86.4844H42.1875V64.1602H49.9219V86.4844ZM68.2031 86.4844H60.4688V51.8555H68.2031V86.4844Z" fill="#03045E"/>
<path d="M78.235 52.351C77.908 52.0224 77.4545 51.8359 76.9922 51.8359C76.5299 51.8359 76.0764 52.0224 75.7494 52.351C75.4225 52.6779 75.2344 53.1314 75.2344 53.5938C75.2344 54.0561 75.4225 54.5096 75.7494 54.8365C76.0764 55.1633 76.5299 55.3516 76.9922 55.3516C77.4545 55.3516 77.908 55.1635 78.235 54.8365C78.5619 54.5096 78.75 54.0561 78.75 53.5938C78.75 53.1314 78.5619 52.6779 78.235 52.351Z" fill="#02C4EB"/>
<path d="M25.5898 9.62061C24.619 9.62061 23.832 10.4078 23.832 11.3784V14.5405C15.7406 15.4189 9.42236 22.292 9.42236 30.6131C9.42236 39.5279 16.6751 46.7806 25.5898 46.7806C33.911 46.7806 40.784 40.4625 41.6624 32.3709H44.8244C45.7952 32.3709 46.5822 31.5838 46.5822 30.6131C46.5822 19.0377 37.165 9.62061 25.5898 9.62061ZM25.5898 43.2648C18.6136 43.2648 12.938 37.5892 12.938 30.6129C12.938 24.2333 17.685 18.9412 23.832 18.0829V30.6129C23.832 31.5836 24.619 32.3707 25.5898 32.3707H38.1199C37.2615 38.5178 31.9695 43.2648 25.5898 43.2648ZM27.3477 28.8553V28.8551V13.2239C35.5834 14.0505 42.1523 20.6196 42.9788 28.8553H27.3477Z" fill="#02C4EB"/>
<path d="M44.8242 51.7236H11.25C10.2792 51.7236 9.49219 52.5108 9.49219 53.4814C9.49219 54.4521 10.2792 55.2393 11.25 55.2393H44.8242C45.7951 55.2393 46.582 54.4521 46.582 53.4814C46.582 52.5108 45.7951 51.7236 44.8242 51.7236Z" fill="#02C4EB"/>
<path d="M22.5 60.2051H11.25C10.2792 60.2051 9.49219 60.9922 9.49219 61.9629C9.49219 62.9336 10.2792 63.7207 11.25 63.7207H22.5C23.4708 63.7207 24.2578 62.9336 24.2578 61.9629C24.2578 60.9922 23.4708 60.2051 22.5 60.2051Z" fill="#02C4EB"/>
<path d="M32.546 60.7201C32.219 60.3932 31.7655 60.2051 31.3032 60.2051C30.8392 60.2051 30.3874 60.393 30.0604 60.7201C29.7317 61.0471 29.5454 61.5006 29.5454 61.9629C29.5454 62.4252 29.7317 62.8787 30.0604 63.2055C30.3874 63.5324 30.8392 63.7207 31.3032 63.7207C31.7655 63.7207 32.219 63.5326 32.546 63.2055C32.8729 62.8787 33.061 62.4252 33.061 61.9629C33.061 61.5006 32.8729 61.0471 32.546 60.7201Z" fill="#02C4EB"/>
</svg>
