<svg width="90" height="91" viewBox="0 0 90 91" fill="none" xmlns="http://www.w3.org/2000/svg">
<path d="M18.6913 9.9917H9.06258C4.06547 9.9917 0 14.0572 0 19.0541V66.3197C0 69.8352 2.06121 73.0631 5.25076 74.5435C5.49018 74.6548 5.74189 74.7073 5.98957 74.7073C6.65262 74.7073 7.28771 74.3303 7.58514 73.6892C7.99383 72.8085 7.61133 71.7633 6.73084 71.3548C4.77773 70.4481 3.51562 68.472 3.51562 66.3196V19.0541C3.51562 15.9955 6.00398 13.5071 9.06258 13.5071H18.6913C19.662 13.5071 20.4492 12.72 20.4492 11.7493C20.4492 10.7787 19.662 9.9917 18.6913 9.9917Z" fill="#03045E"/>
<path d="M80.9374 9.99219H65.8769C65.7515 4.73703 61.4408 0.5 56.1563 0.5H33.8437C28.4805 0.5 24.1172 4.86324 24.1172 10.2265V20.3047H12.0704C11.0997 20.3047 10.3126 21.0919 10.3126 22.0626C10.3126 23.0332 11.0997 23.8204 12.0704 23.8204H24.1172V29.4454H12.0704C11.0997 29.4454 10.3126 30.2325 10.3126 31.2032C10.3126 32.1738 11.0997 32.961 12.0704 32.961H24.1172V38.586H12.0704C11.0997 38.586 10.3126 39.3731 10.3126 40.3438C10.3126 41.3145 11.0997 42.1016 12.0704 42.1016H24.1172V47.7266H12.0704C11.0997 47.7266 10.3126 48.5138 10.3126 49.4844C10.3126 50.4551 11.0997 51.2422 12.0704 51.2422H24.1172V60.7541C19.0396 61.2899 15.0696 65.5944 15.0696 70.8088C15.0696 71.0839 15.081 71.3599 15.1039 71.6353C11.9973 73.425 10.0554 76.7268 10.0554 80.3882C10.0554 85.9638 14.5939 90.4998 20.1725 90.4998H66.5215C73.9227 90.4998 79.9443 84.4818 79.9443 77.0844C79.9443 69.687 73.9227 63.6689 66.5215 63.6689C65.7797 63.6689 65.0433 63.7292 64.3182 63.8489C62.6919 58.6544 58.9126 54.2745 53.9434 51.9238C53.0654 51.5084 52.0179 51.8835 51.6027 52.7612C51.1877 53.6387 51.5625 54.6867 52.4401 55.1019C56.5163 57.0302 59.6168 60.6196 60.955 64.8764C59.786 65.4104 58.6904 66.1121 57.7196 66.9555C56.5241 67.994 55.5306 69.2215 54.7663 70.6035C54.2966 71.4532 54.6045 72.5227 55.4541 72.9925C55.7237 73.1416 56.0154 73.2123 56.3031 73.2123C56.922 73.2123 57.5225 72.8846 57.8431 72.3047C58.4074 71.2839 59.1416 70.3773 60.0251 69.6096C61.1529 68.63 62.507 67.9086 63.941 67.5233C64.7779 67.2985 65.6441 67.1845 66.5215 67.1845C71.9844 67.1845 76.4287 71.6257 76.4287 77.0844C76.4287 82.5431 71.9846 86.9844 66.5216 86.9844H20.1727C16.5326 86.9844 13.5712 84.0254 13.5712 80.3884C13.5712 77.6899 15.1891 75.2904 17.6933 74.2752C18.4901 73.952 18.9362 73.0998 18.7478 72.2608C18.64 71.7809 18.5852 71.2922 18.5852 70.809C18.5852 67.1719 21.5466 64.213 25.1867 64.213C26.1916 64.213 27.1559 64.4323 28.053 64.8653C28.4956 65.0789 29.0073 65.0972 29.464 64.9164C29.921 64.7356 30.281 64.3715 30.4575 63.9129C31.9912 59.9248 35.1164 56.6479 39.0317 54.9228C39.9201 54.5313 40.323 53.4938 39.9316 52.6053C39.5401 51.717 38.503 51.314 37.614 51.7054C33.3805 53.5706 29.9055 56.9267 27.8731 61.0568C27.7933 61.0348 27.713 61.015 27.6327 60.9949V10.2265C27.6328 6.80193 30.4192 4.01562 33.8437 4.01562H56.1563C59.5809 4.01562 62.3672 6.80193 62.3672 10.2265V53.4123C62.3672 54.3829 63.1544 55.1701 64.125 55.1701C65.0957 55.1701 65.8828 54.3829 65.8828 53.4123V51.2422H77.9296C78.9003 51.2422 79.6875 50.4551 79.6875 49.4844C79.6875 48.5138 78.9003 47.7266 77.9296 47.7266H65.8828V42.1016H77.9296C78.9003 42.1016 79.6875 41.3145 79.6875 40.3438C79.6875 39.3731 78.9003 38.586 77.9296 38.586H65.8828V32.961H77.9296C78.9003 32.961 79.6875 32.1738 79.6875 31.2032C79.6875 30.2325 78.9003 29.4454 77.9296 29.4454H65.8828V23.8204H77.9296C78.9003 23.8204 79.6875 23.0332 79.6875 22.0626C79.6875 21.0919 78.9003 20.3047 77.9296 20.3047H65.8828V13.5078H80.9376C83.996 13.5078 86.4844 15.9962 86.4844 19.0548V66.3204C86.4844 67.6746 85.9912 68.9784 85.0957 69.9918C84.4529 70.7192 84.5213 71.8301 85.2488 72.4729C85.5832 72.7684 85.9985 72.9136 86.4121 72.9136C86.8985 72.9136 87.3826 72.7129 87.73 72.3198C89.1939 70.6634 90 68.5328 90 66.3204V19.0546C90 14.0577 85.9346 9.99219 80.9374 9.99219Z" fill="#03045E"/>
<path d="M52.7344 11.7495H37.2656C36.295 11.7495 35.5078 12.5367 35.5078 13.5073C35.5078 14.478 36.295 15.2651 37.2656 15.2651H52.7344C53.705 15.2651 54.4922 14.478 54.4922 13.5073C54.4922 12.5365 53.705 11.7495 52.7344 11.7495Z" fill="#02C4EB"/>
<path d="M52.7344 30.0308H37.2656C36.295 30.0308 35.5078 30.8179 35.5078 31.7886C35.5078 32.7592 36.295 33.5464 37.2656 33.5464H52.7344C53.705 33.5464 54.4922 32.7592 54.4922 31.7886C54.4922 30.8177 53.705 30.0308 52.7344 30.0308Z" fill="#02C4EB"/>
<path d="M52.7344 20.8901H37.2656C36.295 20.8901 35.5078 21.6773 35.5078 22.6479C35.5078 23.6186 36.295 24.4058 37.2656 24.4058H52.7344C53.705 24.4058 54.4922 23.6186 54.4922 22.6479C54.4922 21.6771 53.705 20.8901 52.7344 20.8901Z" fill="#02C4EB"/>
<path d="M52.7344 39.1714H37.2656C36.295 39.1714 35.5078 39.9585 35.5078 40.9292C35.5078 41.8999 36.295 42.687 37.2656 42.687H52.7344C53.705 42.687 54.4922 41.8999 54.4922 40.9292C54.4922 39.9584 53.705 39.1714 52.7344 39.1714Z" fill="#02C4EB"/>
<path d="M45.6051 50.043C45.5877 50.043 45.57 50.0431 45.5527 50.0435L45.5396 50.0431C44.5689 50.0431 43.7817 50.8303 43.7817 51.801C43.7817 52.7716 44.5689 53.5588 45.5396 53.5588C45.548 53.5588 45.5564 53.5588 45.5647 53.5586L45.5833 53.5588C45.587 53.5588 45.5907 53.5588 45.5944 53.5588C46.56 53.5588 47.3459 52.779 47.352 51.8119C47.358 50.8412 46.5761 50.0493 45.6051 50.043Z" fill="#02C4EB"/>
<path d="M54.2043 76.5854C53.2337 76.5854 52.4465 77.3726 52.4465 78.3433V78.3707C52.4465 79.3413 53.2337 80.1285 54.2043 80.1285C55.175 80.1285 55.9622 79.3413 55.9622 78.3707V78.3433C55.9622 77.3724 55.175 76.5854 54.2043 76.5854Z" fill="#02C4EB"/>
<path d="M19.242 55.2778C16.4993 55.2778 14.2681 57.509 14.2681 60.2517C14.2681 61.2224 15.0552 62.0096 16.0259 62.0096C16.9965 62.0096 17.7837 61.2224 17.7837 60.2517C17.7837 59.4477 18.4379 58.7935 19.242 58.7935C20.2126 58.7935 20.9998 58.0063 20.9998 57.0356C20.9998 56.0648 20.2126 55.2778 19.242 55.2778Z" fill="#02C4EB"/>
<path d="M70.6841 55.2778C69.7134 55.2778 68.9263 56.0648 68.9263 57.0356C68.9263 58.0063 69.7134 58.7935 70.6841 58.7935C71.4881 58.7935 72.1424 59.4477 72.1424 60.2517C72.1424 61.2224 72.9295 62.0096 73.9002 62.0096C74.8708 62.0096 75.658 61.2224 75.658 60.2517C75.658 57.509 73.4268 55.2778 70.6841 55.2778Z" fill="#02C4EB"/>
</svg>
