<svg width="50" height="50" viewBox="0 0 50 50" fill="none" xmlns="http://www.w3.org/2000/svg">
<path d="M0 2C0 0.895432 0.89543 0 2 0H48C49.1046 0 50 0.89543 50 2V35C50 43.2843 43.2843 50 35 50H2C0.895432 50 0 49.1046 0 48V2Z" fill="#02C4EB"/>
<g clip-path="url(#clip0_108_154)">
<path d="M10.5878 38.6201C9.92626 38.3168 9.51018 37.8474 9.4583 37.1403C9.43535 36.835 9.52315 36.5228 9.51717 36.2155C9.5032 35.9741 9.45964 35.7353 9.38746 35.5045C9.3303 35.354 9.25985 35.2089 9.17692 35.0709C8.79477 34.2982 8.89854 33.5364 9.5471 32.9776C10.0055 32.5963 10.3122 32.0645 10.4122 31.4779C10.5708 30.6485 11.2104 30.1603 12.0555 30.1225C13.1471 30.0748 13.1471 30.0747 13.1471 29.0087V14.8676C12.6482 14.7681 12.1643 14.6786 11.6804 14.5812C11.1565 14.4748 11.0208 14.3087 11.0198 13.7677C11.0198 12.7872 11.0198 11.8067 11.0198 10.8271C11.0198 10.1579 11.0089 10.1469 10.2575 10.0922C10.2575 11.3701 10.2575 12.647 10.2675 13.9228C10.2788 13.9844 10.3042 14.0426 10.3418 14.0928C10.3793 14.143 10.428 14.1839 10.484 14.2122C11.0228 14.44 11.1994 14.8308 11.1545 15.3996C11.1126 15.9416 11.1416 16.4935 11.1476 17.0365C11.1476 17.3288 11.0897 17.5864 10.8013 17.7206C10.6831 17.7811 10.548 17.8006 10.4174 17.7761C10.2868 17.7517 10.168 17.6846 10.0799 17.5854C9.78857 17.2871 9.53214 17.2871 9.24078 17.5854C9.15259 17.6848 9.03369 17.752 8.90286 17.7765C8.77203 17.801 8.63674 17.7814 8.51838 17.7206C8.23102 17.5854 8.17015 17.3229 8.17315 17.0355C8.17813 16.4269 8.1941 15.8183 8.16816 15.2116C8.1492 14.7711 8.30485 14.4618 8.71295 14.2977C8.99333 14.1844 9.07415 13.9994 9.06916 13.7011C9.0512 12.4978 9.05918 11.2945 9.06916 10.0912C9.07908 9.99626 9.06384 9.90039 9.02497 9.81315C8.98611 9.7259 8.92497 9.65033 8.84765 9.59398C8.70696 9.47863 8.59222 9.17532 8.64809 9.02018C8.69509 8.91285 8.76357 8.81622 8.84936 8.73619C8.93515 8.65617 9.03642 8.59443 9.14699 8.55478C10.1837 8.24849 11.2334 7.98894 12.2791 7.71249C13.6969 7.33857 15.1128 6.9587 16.5336 6.59771C16.7476 6.5444 16.9712 6.54235 17.1862 6.59174C18.0842 6.80554 18.9632 7.0661 19.8593 7.27195C20.3272 7.38653 20.8064 7.44922 21.2881 7.4589C25.4216 7.47414 29.5551 7.47414 33.6886 7.4589C33.9481 7.44803 34.2068 7.49376 34.4467 7.59287C34.6866 7.69197 34.9019 7.84207 35.0775 8.0327C36.1166 9.10273 37.1729 10.1555 38.2465 11.1911C38.4334 11.3617 38.5809 11.5707 38.6788 11.8037C38.7766 12.0367 38.8225 12.2881 38.8133 12.5406C38.8003 18.3084 38.8073 24.0762 38.7983 29.844C38.7983 30.1334 38.8661 30.2627 39.1605 30.3651C41.9842 31.3437 43.6256 34.0357 43.3911 36.7296C43.1247 39.7965 40.9016 42.1544 37.9542 42.5233C35.769 42.7968 33.9121 42.0957 32.3985 40.4916C32.2801 40.3606 32.1181 40.2765 31.9425 40.255C27.9713 40.243 23.9997 40.24 20.0279 40.246C19.972 40.2498 19.9164 40.2565 19.8612 40.2659C19.9351 40.4558 20.0438 40.6279 20.0608 40.8089C20.0828 41.0376 20.1107 41.3429 19.986 41.4881C19.8612 41.6333 19.5519 41.679 19.3274 41.6691C18.9923 41.644 18.6612 41.5807 18.3406 41.4801C18.1231 41.4185 18.0283 41.495 17.9295 41.6681C17.7579 41.9704 17.574 42.2651 17.3778 42.5521C17.0505 43.0305 16.5057 42.9857 16.2662 42.4527C15.9848 41.8322 15.7065 41.2086 15.461 40.5742C15.3213 40.2132 15.01 40.2251 14.7336 40.1684C14.4572 40.1118 14.3604 40.3335 14.2637 40.5463C13.8975 41.3419 13.5183 42.1375 13.1491 42.94C13.0284 43.2035 12.8687 43.4163 12.5504 43.4272C12.2511 43.4372 12.0765 43.2502 11.9418 43.0096C11.7857 42.7134 11.6145 42.4253 11.4289 42.1464C11.3859 42.0974 11.3326 42.0583 11.2728 42.032C11.2129 42.0057 11.1481 41.9928 11.0827 41.9943C10.7494 42.0251 10.4212 42.1026 10.0899 42.1583C9.8205 42.2031 9.51218 42.212 9.39145 41.9425C9.29817 41.7107 9.2932 41.4528 9.37748 41.2176C9.74866 40.3663 10.1667 39.5211 10.5878 38.6201ZM31.4037 39.0636C30.4677 36.8589 30.5416 34.7397 31.8936 32.7717C33.2456 30.8037 35.2043 29.9266 37.586 30.0201V12.6112H37.2008C36.4026 12.6112 35.6044 12.6112 34.8061 12.6112C33.969 12.6112 33.6417 12.28 33.6407 11.4327V8.69004H24.9959C25.2703 9.31456 25.1266 9.61289 24.49 9.78394C23.9971 9.9162 23.5062 10.0524 23.0103 10.1688C22.7908 10.2195 22.7169 10.317 22.7189 10.5457C22.7319 11.6127 22.7259 12.6798 22.7249 13.7468C22.7249 14.3156 22.5982 14.4768 22.0494 14.5862C21.2322 14.7492 20.416 14.9123 19.5958 15.0585C18.4454 15.2634 17.3009 15.5299 16.1165 15.3767C15.5398 15.3022 14.9651 15.2057 14.3724 15.1162V29.1847C14.9841 29.0952 15.482 29.2841 15.917 29.6571C16.2513 29.9576 16.6851 30.1248 17.1353 30.1264C18.2818 30.1443 18.8226 30.5909 19.056 31.7027C19.1336 32.1289 19.3529 32.5167 19.6787 32.8035C20.5567 33.5931 20.6685 34.2375 20.1217 35.2767C19.9221 35.6546 19.8114 36.0285 19.9012 36.4512C20.0858 37.3163 19.8463 38.0174 19.1029 38.4848C19.1488 38.9821 19.4192 39.0815 19.8632 39.0765C23.5491 39.0576 27.2349 39.0656 30.9207 39.0656L31.4037 39.0636ZM37.103 41.4036C38.4624 41.3988 39.7645 40.8572 40.7239 39.8974C41.6834 38.9376 42.222 37.638 42.2217 36.2831C42.213 34.9345 41.6692 33.6441 40.709 32.6938C39.7488 31.7435 38.4502 31.2106 37.0971 31.2114C36.4237 31.2097 35.7567 31.3409 35.1345 31.5976C34.5124 31.8543 33.9474 32.2313 33.4723 32.7069C32.9972 33.1825 32.6214 33.7471 32.3665 34.3683C32.1116 34.9894 31.9828 35.6548 31.9874 36.3259C31.9924 37.6746 32.5336 38.9664 33.4925 39.9182C34.4514 40.87 35.7497 41.4041 37.103 41.4036ZM12.2142 10.5686C12.2142 11.5163 12.2082 12.3954 12.2252 13.2725C12.2252 13.356 12.3698 13.4873 12.4666 13.5102C12.9256 13.6185 13.3906 13.7031 13.8556 13.7836C15.0529 13.9915 16.2423 14.3525 17.4705 14.1814C18.7607 14.0004 20.0408 13.7448 21.322 13.5052C21.4058 13.4893 21.5156 13.3282 21.5216 13.2307C21.5435 12.7733 21.5315 12.3148 21.5315 11.8554V10.5884C21.3849 10.6183 21.3001 10.6302 21.2182 10.6521C19.8972 10.9992 18.5801 11.3572 17.255 11.6873C17.0045 11.7475 16.7432 11.7475 16.4927 11.6873C15.445 11.4297 14.4043 11.1394 13.3607 10.8629C13.0014 10.7664 12.6422 10.6779 12.2142 10.5686ZM10.7345 36.1499C10.7085 36.3716 10.6956 36.5954 10.6556 36.8151C10.5918 37.1662 10.7205 37.3969 11.0548 37.5053C11.4315 37.617 11.7811 37.8046 12.082 38.0566C12.3829 38.3086 12.6286 38.6195 12.8039 38.9701C12.9595 39.2685 13.217 39.3788 13.5223 39.2535C13.8941 39.0931 14.295 39.0104 14.7002 39.0104C15.1054 39.0104 15.5062 39.0931 15.8781 39.2535C15.9403 39.2853 16.0085 39.3039 16.0783 39.3081C16.1482 39.3123 16.2181 39.302 16.2838 39.2779C16.3494 39.2538 16.4093 39.2164 16.4597 39.168C16.5101 39.1197 16.5499 39.0614 16.5765 38.997C16.7572 38.6353 17.0108 38.3147 17.3216 38.0553C17.6324 37.7958 17.9936 37.6032 18.3825 37.4894C18.6888 37.3899 18.8166 37.1582 18.7497 36.847C18.5761 36.0464 18.6739 35.2976 19.1269 34.6015C19.3264 34.2962 19.2855 34.0128 18.9872 33.784C18.6766 33.5543 18.4167 33.2635 18.2234 32.9296C18.0302 32.5957 17.9077 32.2258 17.8637 31.8429C17.8178 31.4819 17.6043 31.2939 17.2271 31.3099C16.4728 31.3514 15.7327 31.0936 15.1686 30.5929C14.7635 30.2448 14.6388 30.2468 14.2287 30.5929C13.6818 31.0725 12.9734 31.3289 12.2451 31.3109C11.7303 31.3109 11.6155 31.3984 11.5267 31.9184C11.4167 32.6213 11.05 33.2588 10.497 33.7085C10.058 34.0764 10.062 34.1739 10.3284 34.7029C10.5619 35.1604 10.8083 35.6069 10.7345 36.1499ZM11.6504 9.11963L11.6574 9.18129C13.3577 9.63211 15.0586 10.0819 16.7601 10.5308C16.8447 10.5517 16.933 10.5517 17.0175 10.5308C18.7138 10.0833 20.3991 9.63575 22.1302 9.17134C22.0696 9.1318 22.005 9.09848 21.9377 9.0719C20.3182 8.64329 18.6988 8.2127 17.0754 7.79603C16.9075 7.76277 16.7341 7.76993 16.5695 7.81691C15.6316 8.05458 14.6957 8.30617 13.7608 8.55578C13.0583 8.73876 12.3559 8.92969 11.6524 9.11963H11.6504ZM34.86 9.63079V11.389H36.6371L34.86 9.63079ZM12.9835 40.4797C12.302 40.3375 11.9268 39.8721 11.5986 39.2864L10.8652 40.8596C11.6834 40.5314 12.1892 40.785 12.4616 41.6005C12.6552 41.1758 12.8069 40.8526 12.9835 40.4797ZM16.9597 41.0585C17.249 40.2192 17.7689 39.9954 18.5731 40.3693L18.0293 39.1153C17.6042 39.5857 17.1882 40.0461 16.7322 40.5493L16.9597 41.0585ZM10.026 15.9486C9.95932 15.7 9.87972 15.455 9.78757 15.2146C9.7736 15.1818 9.52116 15.1898 9.50819 15.2266C9.43045 15.4636 9.36551 15.7046 9.31362 15.9486H10.026Z" fill="#03045E"/>
<path d="M26.0204 18.7325H35.3996C35.5234 18.7236 35.6479 18.7282 35.7708 18.7464C36.0881 18.82 36.2697 19.0209 36.2587 19.355C36.2467 19.6702 36.0591 19.8522 35.7598 19.9119C35.6237 19.9278 35.4865 19.9318 35.3497 19.9238H16.5913C15.9716 19.9238 15.7002 19.7468 15.6932 19.3391C15.6863 18.9313 15.9626 18.7325 16.6072 18.7325H26.0204Z" fill="#03045E"/>
<path d="M24.5366 24.3939H16.4366C15.9796 24.3939 15.7381 24.2238 15.6982 23.8837C15.6859 23.8073 15.6892 23.7291 15.7078 23.6539C15.7264 23.5787 15.76 23.508 15.8065 23.4459C15.853 23.3839 15.9115 23.3318 15.9786 23.2927C16.0457 23.2536 16.12 23.2284 16.1971 23.2184C16.3332 23.2028 16.4703 23.1982 16.6072 23.2045H32.5129C32.6738 23.1966 32.8351 23.209 32.9929 23.2413C33.1296 23.2688 33.2505 23.3479 33.3302 23.462C33.4099 23.5761 33.4424 23.7165 33.4209 23.8539C33.395 24.1681 33.2064 24.3451 32.8971 24.3889C32.7856 24.3984 32.6736 24.4004 32.5618 24.3949L24.5366 24.3939Z" fill="#03045E"/>
<path d="M24.4139 22.1603H16.5703C16.4458 22.1677 16.3209 22.164 16.1971 22.1494C15.8978 22.0927 15.7102 21.9088 15.6982 21.5925C15.684 21.4547 15.7225 21.3166 15.8062 21.2059C15.8898 21.0953 16.0124 21.0202 16.1492 20.9958C16.2837 20.9709 16.4208 20.9629 16.5573 20.972H32.2825C32.419 20.9628 32.5561 20.9709 32.6906 20.9958C32.8266 21.0213 32.9482 21.0967 33.0312 21.2072C33.1141 21.3177 33.1524 21.4552 33.1386 21.5925C33.1226 21.9078 32.939 22.0897 32.6337 22.1464C32.5098 22.1605 32.385 22.1642 32.2605 22.1574L24.4139 22.1603Z" fill="#03045E"/>
<path d="M30.0613 15.7461H35.4733C35.5971 15.7461 35.7617 15.7133 35.8355 15.777C36.0012 15.9202 36.2167 16.1081 36.2346 16.2911C36.2526 16.4741 36.07 16.7008 35.9203 16.8539C35.8375 16.9385 35.64 16.9325 35.4953 16.9335C31.8507 16.9388 28.2058 16.9411 24.5605 16.9405C24.0955 16.9405 23.8261 16.7127 23.8321 16.3338C23.8381 15.955 24.0916 15.7601 24.5426 15.7511C24.6793 15.7511 24.8159 15.7511 24.9526 15.7511H30.0613V15.7461Z" fill="#03045E"/>
<path d="M31.8105 27.3792C30.5782 27.3792 29.3469 27.3792 28.1187 27.3792C27.7006 27.3792 27.4641 27.1853 27.4342 26.8492C27.3992 26.4603 27.6577 26.1988 28.1087 26.1928C28.8181 26.1849 29.5265 26.1928 30.236 26.1928H35.3796C35.4793 26.1878 35.5792 26.1878 35.6789 26.1928C36.0351 26.2306 36.2636 26.4733 36.2566 26.8014C36.2496 27.1296 36.0152 27.3683 35.651 27.3732C34.8298 27.3852 34.0086 27.3792 33.1884 27.3792H31.8105Z" fill="#03045E"/>
<path d="M27.9111 11.2791C28.9678 11.2791 30.0234 11.2791 31.0801 11.2791C31.5461 11.2791 31.8175 11.5078 31.8095 11.8807C31.8015 12.2377 31.5321 12.4664 31.0921 12.4674C28.9668 12.4674 26.8415 12.4674 24.7162 12.4674C24.2453 12.4674 23.9858 12.2397 23.9928 11.8568C23.9988 11.4889 24.2502 11.28 24.7042 11.2791C25.7729 11.2771 26.8425 11.2791 27.9111 11.2791Z" fill="#03045E"/>
<path d="M27.9271 13.5156C28.9838 13.5156 30.0404 13.5156 31.0961 13.5156C31.5381 13.5156 31.8045 13.7383 31.8095 14.0973C31.8145 14.4563 31.5441 14.7029 31.1111 14.7039C28.9738 14.7079 26.8362 14.7079 24.6983 14.7039C24.2483 14.7039 23.9998 14.4831 23.9908 14.1152C23.9908 13.7283 24.2393 13.5185 24.7182 13.5185C25.7885 13.5152 26.8582 13.5142 27.9271 13.5156Z" fill="#03045E"/>
<path d="M30.5273 29.6128C29.7291 29.6128 28.9309 29.6128 28.1326 29.6128C27.6757 29.6128 27.4272 29.4019 27.4242 29.032C27.4212 28.6621 27.6727 28.4284 28.1227 28.4264C29.7278 28.4191 31.3339 28.4191 32.941 28.4264C33.394 28.4264 33.6454 28.6521 33.6484 29.0231C33.6484 29.4059 33.398 29.6197 32.9151 29.6197C32.1208 29.6148 31.3236 29.6128 30.5273 29.6128Z" fill="#03045E"/>
<path d="M36.1928 35.8251C37.0139 35.0047 37.7683 34.2499 38.5236 33.4971C38.9965 33.0257 39.5613 32.8686 40.1989 33.0665C41.2964 33.4076 41.6956 34.7929 40.9053 35.6282C39.7329 36.8593 38.5166 38.0497 37.2933 39.2321C37.0255 39.4931 36.6682 39.6428 36.2937 39.6509C35.9193 39.659 35.5557 39.525 35.2768 39.2758C34.5264 38.6437 33.8269 37.9541 33.1844 37.2133C32.6576 36.6047 32.8142 35.6809 33.4179 35.133C33.7059 34.8715 34.0802 34.7247 34.4697 34.7205C34.8592 34.7163 35.2366 34.855 35.5302 35.1101C35.7637 35.3364 35.9849 35.5751 36.1928 35.8251ZM34.4895 35.8629C34.3628 35.9623 34.1902 36.024 34.1573 36.1314C34.1144 36.2726 34.1253 36.5023 34.2161 36.5978C34.7519 37.1666 35.3137 37.7166 35.8774 38.2546C36.1319 38.4962 36.3903 38.4783 36.6557 38.2078C37.4979 37.3466 38.3589 36.5023 39.2121 35.6521C39.4765 35.3885 39.7459 35.131 39.9983 34.8565C40.1649 34.6755 40.1769 34.4329 39.9714 34.3056C39.8397 34.223 39.6142 34.2628 39.4366 34.2907C39.3567 34.3036 39.2919 34.4189 39.221 34.4896L36.8762 36.8305C36.3404 37.3635 36.1239 37.3615 35.5791 36.8186C35.3416 36.5819 35.1082 36.3402 34.8637 36.1105C34.7453 36.0188 34.6203 35.936 34.4895 35.8629Z" fill="#03045E"/>
<path d="M14.6964 31.2128C15.1735 31.2106 15.6463 31.3024 16.0877 31.4829C16.5292 31.6634 16.9304 31.929 17.2685 32.2645C17.6065 32.6001 17.8747 32.9989 18.0577 33.4381C18.2406 33.8773 18.3346 34.3482 18.3343 34.8237C18.3359 35.784 17.9553 36.7058 17.2759 37.3868C16.5965 38.0678 15.6739 38.4525 14.7104 38.4564C13.7469 38.4559 12.8229 38.0747 12.141 37.3963C11.4591 36.718 11.0748 35.7979 11.0724 34.8376C11.0704 34.3621 11.1627 33.891 11.344 33.4511C11.5253 33.0113 11.7919 32.6115 12.1287 32.2747C12.4654 31.9379 12.8656 31.6707 13.3062 31.4885C13.7469 31.3062 14.2193 31.2126 14.6964 31.2128ZM17.138 34.8118C17.1371 34.4918 17.0724 34.1753 16.9477 33.8805C16.823 33.5858 16.6407 33.3186 16.4115 33.0947C16.1822 32.8708 15.9106 32.6945 15.6124 32.5761C15.3142 32.4578 14.9954 32.3996 14.6744 32.4052C14.3535 32.4072 14.0361 32.4728 13.7408 32.5981C13.4455 32.7234 13.1781 32.906 12.9542 33.1352C12.7303 33.3644 12.5543 33.6356 12.4365 33.9332C12.3186 34.2307 12.2613 34.5486 12.2678 34.8684C12.2777 35.5081 12.5398 36.1182 12.9975 36.5669C13.4551 37.0155 14.0714 37.2667 14.7134 37.2661C15.0343 37.2638 15.3517 37.1986 15.6474 37.074C15.943 36.9494 16.2111 36.7679 16.4363 36.54C16.6615 36.312 16.8394 36.0421 16.9598 35.7455C17.0802 35.449 17.1407 35.1317 17.138 34.8118Z" fill="#03045E"/>
</g>
<defs>
<clipPath id="clip0_108_154">
<rect width="35.2459" height="36.8852" fill="white" transform="translate(8.16589 6.55737)"/>
</clipPath>
</defs>
</svg>
