<svg width="50" height="50" viewBox="0 0 50 50" fill="none" xmlns="http://www.w3.org/2000/svg">
<path d="M0 2C0 0.895432 0.89543 0 2 0H48C49.1046 0 50 0.89543 50 2V35C50 43.2843 43.2843 50 35 50H2C0.895432 50 0 49.1046 0 48V2Z" fill="#02C4EB"/>
<g clip-path="url(#clip0_108_124)">
<path d="M7.34619 28.9316C7.54019 28.6501 7.80589 28.5784 8.14332 28.5811C9.73667 28.5949 11.3309 28.5875 12.9243 28.5875C13.8538 28.5875 13.8759 28.6069 13.9835 29.5533C14.753 29.0677 15.3984 28.4836 15.6586 27.6153C16.374 25.2238 17.047 22.8214 17.7365 20.4225C17.9066 19.8311 18.1043 19.7051 18.7102 19.7961C20.4571 20.0537 21.6082 21.3993 21.6413 23.3199C21.6542 24.0806 21.5025 24.8458 21.417 25.6074C21.348 26.2209 21.2653 26.8335 21.1834 27.4856H28.0386C29.2007 27.4856 30.0135 28.01 30.3445 28.973C30.6755 29.936 30.3638 30.8052 29.4472 31.5291C29.4308 31.5451 29.416 31.5627 29.403 31.5815C30.213 32.7368 29.9722 34.065 28.8376 34.8928C29.0344 35.1379 29.1771 35.4219 29.2563 35.7261C29.3355 36.0304 29.3495 36.3479 29.2973 36.6579C29.2517 36.9524 29.1459 37.2342 28.9864 37.4859C28.8269 37.7375 28.6173 37.9535 28.3705 38.1204C28.514 38.6033 28.7153 39.0457 28.7659 39.5047C28.8716 40.4549 28.2317 41.3563 27.3086 41.681C27.1918 41.7214 27.0751 41.7656 26.9592 41.8079H16.9817L14.1039 40.9166C13.92 41.2533 13.7628 41.5301 13.6093 41.8079H7.34619V28.9316ZM13.966 39.7227C14.0442 39.7521 14.1159 39.7862 14.1913 39.8073C15.1824 40.0897 16.1726 40.373 17.1646 40.6498C17.2843 40.6838 17.408 40.7017 17.5324 40.7032C20.5358 40.7032 23.5393 40.7032 26.5427 40.7032C27.2176 40.7032 27.7085 40.2387 27.714 39.6132C27.7196 38.9878 27.224 38.5095 26.5289 38.503C25.8761 38.503 25.2224 38.503 24.5687 38.503C24.1145 38.503 23.8543 38.2896 23.8645 37.9364C23.8746 37.5832 24.1237 37.4039 24.566 37.403C25.4146 37.403 26.2632 37.403 27.1109 37.403C27.7793 37.3984 28.2694 36.9219 28.2648 36.2992C28.2602 35.6765 27.7692 35.2111 27.0962 35.2065C26.4232 35.2019 25.7658 35.2065 25.1011 35.2065C24.6662 35.2065 24.4161 35.0004 24.4152 34.6546C24.4143 34.3087 24.6653 34.1027 25.1001 34.1027C25.9368 34.1027 26.7735 34.1027 27.6111 34.1027C28.3144 34.1027 28.8063 33.6428 28.8155 33.0109C28.821 32.3606 28.32 31.9071 27.5945 31.9007C26.9509 31.9007 26.3073 31.9007 25.6683 31.9007C25.227 31.9007 24.9769 31.7075 24.9659 31.3672C24.9549 31.0269 25.2141 30.8015 25.6683 30.8006C26.517 30.8006 27.3656 30.8006 28.2142 30.8006C28.7245 30.8006 29.1254 30.5293 29.2927 30.0942C29.5786 29.3519 29.0343 28.6014 28.1958 28.5995C25.6959 28.5995 23.197 28.5995 20.6971 28.5995C20.1739 28.5995 19.9615 28.3576 20.0213 27.8481C20.1684 26.6762 20.31 25.5044 20.4755 24.3353C20.5803 23.5995 20.595 22.8719 20.2796 22.1766C20.1475 21.8638 19.9406 21.5884 19.677 21.3746C19.4134 21.1608 19.1013 21.0151 18.7681 20.9505C18.7369 21.0424 18.713 21.1078 18.6936 21.1721C18.0501 23.4073 17.4184 25.6433 16.7684 27.8747C16.6775 28.1809 16.5454 28.4733 16.3758 28.7439C15.791 29.6775 15.0445 30.4308 13.9605 30.7491L13.966 39.7227ZM8.47614 29.7033V40.6885H12.837V29.7033H8.47614Z" fill="#03045E"/>
<path d="M25.4983 25.8475C25.6822 24.7235 25.8542 23.7062 26.0252 22.6898C26.1962 21.6734 26.3764 20.68 26.5262 19.6719C26.5315 19.5864 26.5197 19.5007 26.4914 19.4198C26.4631 19.339 26.419 19.2646 26.3617 19.201C24.8949 17.7158 23.4201 16.2383 21.9374 14.7685C21.7535 14.5845 21.5614 14.3647 21.6965 14.1108C21.7488 14.0157 21.8198 13.932 21.9051 13.8649C21.9904 13.7977 22.0883 13.7484 22.193 13.7199C24.1137 13.4016 26.0353 13.076 27.967 12.8359C28.6961 12.744 29.1199 12.5039 29.4114 11.7837C30.055 10.1814 30.8264 8.62879 31.5398 7.05317C31.6594 6.78735 31.7963 6.55554 32.1264 6.55738C32.4565 6.55922 32.5861 6.79653 32.7093 7.05959C33.512 8.83389 34.3238 10.6036 35.1237 12.3779C35.1535 12.4673 35.2089 12.5461 35.2832 12.6041C35.3574 12.6622 35.4472 12.6971 35.5411 12.7044C37.6935 13.0264 39.8431 13.3676 41.9945 13.696C42.2501 13.7346 42.4791 13.8045 42.5646 14.0639C42.6501 14.3233 42.5232 14.544 42.3301 14.7363C40.8499 16.2079 39.3779 17.6888 37.8939 19.1568C37.8139 19.2273 37.755 19.3186 37.7237 19.4206C37.6924 19.5226 37.6899 19.6312 37.7165 19.7344C38.0539 21.6991 38.3812 23.6657 38.7131 25.6313C38.7563 25.888 38.7131 26.1133 38.4925 26.2752C38.2507 26.4472 38.0208 26.3745 37.7854 26.2457C36.0073 25.2717 34.2245 24.3068 32.4528 23.3245C32.3561 23.2601 32.2425 23.2258 32.1264 23.2258C32.0103 23.2258 31.8967 23.2601 31.8 23.3245C30.0237 24.3013 28.2373 25.256 26.4554 26.2264C26.2311 26.3478 25.9911 26.4371 25.7815 26.2632C25.6362 26.1437 25.5627 25.9441 25.4983 25.8475ZM23.3892 14.6194C23.4995 14.739 23.5731 14.8237 23.6512 14.9018C24.9084 16.1595 26.1664 17.4166 27.4254 18.673C27.624 18.8699 27.7564 19.0731 27.7013 19.3702C27.5063 20.4991 27.3157 21.6289 27.1294 22.7597C27.02 23.4109 26.9142 24.0621 26.7965 24.7704C26.9473 24.6986 27.0393 24.66 27.1275 24.6122C28.6381 23.7936 30.1524 22.9814 31.6538 22.1462C31.9857 21.9622 32.2533 21.9668 32.5806 22.1462C34.1032 22.9906 35.6368 23.8156 37.1667 24.6462C37.2503 24.6922 37.3404 24.7271 37.4425 24.7741C37.4455 24.729 37.4455 24.6839 37.4425 24.6389C37.1667 22.9998 36.9111 21.3589 36.615 19.7234C36.5304 19.2516 36.604 18.9085 36.9598 18.5562C38.1835 17.3458 39.3714 16.1013 40.5731 14.8696C40.6412 14.7988 40.7009 14.7197 40.7883 14.6185C38.8226 14.3132 36.9 14.0069 34.9748 13.7217C34.6171 13.6684 34.4001 13.5138 34.254 13.1845C33.5957 11.7129 32.9226 10.2412 32.2551 8.76949C32.2083 8.66739 32.1577 8.56808 32.0887 8.42735C32.0133 8.58556 31.9591 8.69869 31.9048 8.81274C31.241 10.2725 30.5745 11.7303 29.9171 13.1937C29.7957 13.4642 29.6412 13.6537 29.3277 13.7024C28.2621 13.8625 27.1983 14.028 26.1336 14.1917L23.3892 14.6194Z" fill="#03045E"/>
<path d="M15.0426 14.8475C14.1305 14.7243 13.9392 14.6148 13.9558 14.2386C13.9723 13.8624 14.1875 13.753 15.0426 13.6941C15.0968 13.2664 14.9019 12.6069 15.6347 12.6318C16.2902 12.6538 16.1293 13.248 16.1633 13.6932C16.6074 13.7567 17.2666 13.5617 17.2344 14.3012C17.2059 14.9533 16.6065 14.7795 16.1734 14.8255C16.1137 15.2661 16.3031 15.8593 15.5896 15.9063C15.2053 15.9311 15.0812 15.6698 15.0426 14.8475Z" fill="#03045E"/>
<path d="M36.5432 34.0825C36.9882 34.1303 37.5545 33.9537 37.6189 34.6417C37.6557 35.0234 37.4166 35.1412 36.5413 35.2203C36.4843 35.6498 36.6747 36.3075 35.9382 36.2762C35.2854 36.2486 35.4601 35.6489 35.4132 35.2148C34.9746 35.154 34.3347 35.3444 34.3448 34.6325C34.355 33.9491 34.9737 34.1331 35.4141 34.0806C35.4601 33.6299 35.2826 33.0431 35.997 33.0008C36.374 32.9787 36.4908 33.2289 36.5432 34.0825Z" fill="#03045E"/>
</g>
<defs>
<clipPath id="clip0_108_124">
<rect width="35.2459" height="35.2459" fill="white" transform="translate(7.34619 6.55737)"/>
</clipPath>
</defs>
</svg>
