<svg width="50" height="50" viewBox="0 0 50 50" fill="none" xmlns="http://www.w3.org/2000/svg">
<path d="M0 2C0 0.895432 0.89543 0 2 0H48C49.1046 0 50 0.89543 50 2V35C50 43.2843 43.2843 50 35 50H2C0.895432 50 0 49.1046 0 48V2Z" fill="#03045E"/>
<g clip-path="url(#clip0_108_146)">
<path d="M37.9469 12.5936L32.0199 18.5233C31.7993 18.3401 31.5345 18.1188 31.2697 17.9024C25.686 13.3693 17.2579 16.4623 15.8816 23.5442C14.8415 28.8987 18.3968 34.0434 23.7731 34.898C26.05 35.2604 28.2325 34.9273 30.212 33.6606C31.6567 32.7355 32.6668 31.4329 33.371 29.8775C33.3827 29.8505 33.3916 29.8225 33.3975 29.7937C33.3977 29.7724 33.395 29.7513 33.3896 29.7307H24.5233V21.5746H24.7642L40.5376 21.6021C40.9934 21.6021 41.4497 21.6101 41.9055 21.6021C42.0476 21.6021 42.1058 21.6416 42.1411 21.787C42.3998 22.8726 42.5465 23.982 42.5789 25.0978C42.6848 28.2024 42.1685 31.1929 40.8977 34.031C38.7796 38.7676 35.1582 41.6908 30.1503 42.8918C28.1148 43.3823 26.0147 43.5449 23.9284 43.3734C19.4743 43.008 15.6525 41.2317 12.5072 38.0385C9.78595 35.2759 8.09151 31.9576 7.55052 28.1101C6.75051 22.4159 8.27639 17.3883 12.1476 13.1404C14.9717 10.0403 18.4991 8.15496 22.6408 7.57397C28.342 6.77565 33.3388 8.38071 37.6036 12.2716C37.7192 12.3785 37.8309 12.4849 37.9469 12.5936ZM35.6497 12.7444C35.6003 12.7 35.5751 12.6716 35.5469 12.649C31.8006 9.65934 27.56 8.42772 22.8169 9.13156C19.0088 9.69704 15.773 11.4294 13.1934 14.302C9.80052 18.0798 8.44407 22.5383 9.05037 27.5837C9.35652 30.1955 10.3205 32.6856 11.8511 34.8186C14.7555 38.8989 18.703 41.2295 23.6637 41.775C25.7231 42.0012 27.7771 41.8455 29.7999 41.3861C33.8388 40.4685 36.9214 38.2372 38.8952 34.5561C40.764 31.0728 41.3019 27.3384 40.816 23.4342C40.7949 23.2644 40.7754 23.1624 40.5513 23.1628C35.8086 23.1646 31.0656 23.1603 26.3223 23.1499H26.0831V28.1793H35.6762C35.6785 28.2029 35.6785 28.2267 35.6762 28.2503C35.5619 28.6166 35.4516 28.9838 35.3311 29.348C34.551 31.7074 33.1822 33.6291 31.0765 34.9619C28.548 36.5616 25.7901 36.9443 22.8963 36.3292C17.2583 35.1317 13.4092 29.5773 14.2524 23.8587C14.7422 20.535 16.3939 17.913 19.176 16.0565C21.6065 14.4346 24.2912 13.8749 27.1744 14.3831C28.8388 14.6767 30.3369 15.3753 31.7009 16.3678C31.8597 16.4831 31.9449 16.4729 32.079 16.3332C32.5322 15.8591 33.0013 15.4019 33.4646 14.9353L35.6497 12.7444Z" fill="white"/>
</g>
<defs>
<clipPath id="clip0_108_146">
<rect width="35.2459" height="36.0656" fill="white" transform="translate(7.34619 7.37705)"/>
</clipPath>
</defs>
</svg>
