<svg width="50" height="50" viewBox="0 0 50 50" fill="none" xmlns="http://www.w3.org/2000/svg">
<path d="M0 2C0 0.895432 0.89543 0 2 0H48C49.1046 0 50 0.89543 50 2V35C50 43.2843 43.2843 50 35 50H2C0.895432 50 0 49.1046 0 48V2Z" fill="#02C4EB"/>
<g clip-path="url(#clip0_108_131)">
<path d="M7.34619 26.1135V23.9815C7.36948 23.9175 7.38641 23.8513 7.39675 23.7839C7.51955 22.0103 7.91301 20.2659 8.56347 18.6112C8.59651 18.4915 8.6132 18.3679 8.61311 18.2437C8.73112 18.0849 8.83803 17.9182 8.93306 17.7447C10.0446 15.3205 11.5883 13.2134 13.6643 11.5391C18.5895 7.5665 24.1454 6.39303 30.1968 8.22171C38.9651 10.8664 44.1459 19.8803 42.1756 28.816C40.5979 35.9709 34.7644 41.3733 27.4598 42.4402C26.9753 42.511 26.4871 42.5652 26.0007 42.624H23.9357C23.8611 42.6007 23.7853 42.5814 23.7086 42.5661C22.8812 42.4476 22.0455 42.3759 21.2263 42.2068C14.2968 40.7687 8.82182 35.0768 7.61925 28.08C7.51168 27.4284 7.43813 26.7696 7.34619 26.1135ZM19.9971 9.37864L19.9529 9.48709C20.2407 9.60288 20.5183 9.76828 20.8171 9.82618C21.7623 10.01 22.7148 10.1478 23.6673 10.3077C24.3108 10.4171 24.4874 10.701 24.2851 11.3185C24.1279 11.7973 23.9606 12.2724 23.8089 12.7521C23.7733 12.8793 23.7057 12.9953 23.6125 13.0889C23.5193 13.1826 23.4036 13.2507 23.2765 13.2869C22.8849 13.4128 22.4877 13.5286 22.1061 13.682C21.9424 13.7487 21.8022 13.8626 21.7034 14.0092C21.2281 14.7655 20.7841 15.5438 20.3078 16.2973C20.1651 16.5156 19.9769 16.7006 19.7562 16.8395C18.9594 17.3413 18.154 17.8246 17.34 18.2896C17.073 18.4428 16.7811 18.548 16.4776 18.6002C15.4828 18.7638 14.4825 18.897 13.4822 19.0275C13.28 19.0542 13.2294 19.1313 13.2064 19.3289C13.1549 19.8316 13.2551 20.2479 13.6918 20.5575C13.854 20.6673 13.993 20.8078 14.101 20.9711C14.2298 21.1764 14.323 21.4019 14.3768 21.6382C14.4237 21.8615 14.3869 22.1023 14.3869 22.3357L14.4788 22.3669C14.6627 22.1703 14.8466 21.9663 15.047 21.777C15.4865 21.3524 15.8864 21.4213 16.1669 21.969C16.4234 22.468 16.6836 22.9661 16.9134 23.477C17.0366 23.7527 17.1892 23.863 17.5037 23.8547C18.5591 23.829 19.6183 23.8547 20.67 23.8391C20.8296 23.8265 20.9892 23.8617 21.1286 23.9403C21.268 24.0189 21.3807 24.1372 21.4525 24.2802C21.8956 25.0429 22.3489 25.8001 22.8205 26.5453C22.8679 26.6082 22.9277 26.6606 22.9962 26.6995C23.0646 26.7384 23.1403 26.7628 23.2186 26.7714C23.7215 26.7981 24.2299 26.7806 24.7319 26.7815C25.4095 26.7815 25.6283 27.0462 25.4987 27.7051C25.3387 28.5137 25.1971 29.327 25.0013 30.1264C24.9201 30.4182 24.7743 30.688 24.5747 30.9158C24.2654 31.3006 23.9149 31.6504 23.5294 31.9588C22.7773 32.5313 22.4454 33.2453 22.6173 34.1762C22.6173 34.1872 22.6173 34.1992 22.6173 34.2102C22.6412 34.5502 22.4978 34.7983 22.2238 34.9977C21.6584 35.4085 21.1086 35.8423 20.5395 36.2484C20.4481 36.3031 20.3738 36.3823 20.3251 36.477C20.2763 36.5716 20.2551 36.678 20.2637 36.7842C20.2812 37.4826 20.272 38.1819 20.2692 38.8812C20.2664 39.5805 19.9456 39.8066 19.3038 39.5961C18.8359 39.4417 18.3725 39.2736 17.9027 39.1293C17.7646 39.0922 17.6378 39.0217 17.5336 38.9239C17.4293 38.8261 17.3508 38.7041 17.3051 38.5688C16.9778 37.7261 16.6238 36.8935 16.3038 36.0481C16.2123 35.8028 16.1637 35.5435 16.1604 35.2817C16.1476 33.7112 16.154 32.1408 16.154 30.5703V30.1917C15.39 30.041 14.6618 29.8903 13.93 29.7561C13.576 29.6909 13.325 29.5282 13.1751 29.1873C13.0188 28.8066 12.8344 28.438 12.6235 28.0846C12.1427 27.3173 11.9946 26.4985 12.0195 25.5988C12.0351 25.0135 12.1555 24.5476 12.6253 24.1901C12.7141 24.1093 12.7965 24.0218 12.8717 23.9282C11.9643 23.3217 11.0844 22.7226 10.1908 22.1455C9.91443 21.9796 9.7126 21.7137 9.6272 21.403C9.52055 21.0354 9.38908 20.6788 9.24841 20.2571C8.11763 23.9719 8.34155 27.9672 9.88035 31.5325C11.4192 35.0979 14.1731 38.0023 17.6526 39.7294C24.8239 43.3132 33.457 41.1188 38.1376 34.8241C37.9537 34.6688 37.7515 34.5181 37.5759 34.3389C36.5452 33.2867 36.7392 33.7406 36.7181 32.2933C36.7181 31.9726 36.7328 31.6501 36.7116 31.3312C36.7039 31.1393 36.6596 30.9506 36.5811 30.7752C36.1214 29.8388 35.7012 28.8813 35.1717 27.9862C34.5281 26.9019 34.2256 25.7734 34.3561 24.52C34.3718 24.373 34.3139 24.1322 34.2127 24.0762C33.7742 23.8372 33.4634 23.3585 32.9008 23.3539C32.8321 23.3605 32.7645 23.3753 32.6994 23.398C32.1662 23.5303 31.6347 23.6737 31.0969 23.7876C30.91 23.8312 30.7145 23.8207 30.5333 23.7573C29.202 23.2059 27.8735 22.638 26.5579 22.0462C26.4595 21.9956 26.3729 21.925 26.3035 21.8389C26.2342 21.7528 26.1836 21.6531 26.1552 21.5463C25.9419 20.2469 25.7709 18.9411 25.5815 17.6372C25.5544 17.491 25.5656 17.3404 25.6139 17.1998C25.6622 17.0593 25.7461 16.9336 25.8573 16.8349C26.3694 16.3415 26.8502 15.8149 27.3789 15.3407C27.5734 15.1733 27.8169 15.0733 28.073 15.0559C29.0007 15.0237 29.933 15.0816 30.8597 15.0292C31.5033 14.9934 31.9501 15.1661 32.2149 15.7643C32.5983 16.6245 33.2382 17.095 34.2063 17.0628C34.2522 17.066 34.2975 17.0759 34.3405 17.0922C35.4797 17.412 36.5857 17.3679 37.6715 16.8496C38.0687 16.6612 38.5081 16.5611 38.9908 16.4003L37.221 14.0404C36.7751 14.3363 36.3862 14.6184 35.9725 14.8583C35.7968 14.9594 35.5532 15.0485 35.3666 15.0108C33.9544 14.7241 32.5164 14.533 31.1576 14.023C30.9258 13.9384 30.6729 13.9313 30.4368 14.0028C29.168 14.4503 27.9222 14.5376 26.6921 13.8897C26.682 13.8851 26.67 13.8842 26.659 13.8805C26.1607 13.7041 26.0218 13.3935 26.2526 12.9184C26.6029 12.197 26.9688 11.4839 27.3228 10.7653C27.3787 10.6326 27.4753 10.521 27.5988 10.4467C27.7222 10.3724 27.866 10.3392 28.0096 10.3518C28.5713 10.3638 29.1349 10.3325 29.6957 10.3619C30.2566 10.3913 30.6381 10.0476 31.1346 9.8317C27.8891 8.41377 23.6222 8.15094 19.9971 9.37864ZM39.5305 17.4543C38.5137 17.7943 37.5179 18.1361 36.5149 18.455C36.2984 18.5232 36.0696 18.5429 35.8447 18.5129C34.791 18.3539 33.7429 18.1646 32.6911 17.9974C32.5545 17.9817 32.4232 17.9353 32.3071 17.8616C32.191 17.7879 32.0931 17.6889 32.0209 17.5719C31.7745 17.186 31.5263 16.8 31.2541 16.4324C31.1646 16.3153 31.0324 16.2383 30.8864 16.2183C30.0497 16.1999 29.2121 16.2027 28.3746 16.2183C28.2429 16.2239 28.1171 16.2741 28.0179 16.3607C27.6409 16.7136 27.2759 17.0781 26.9228 17.4543C26.8413 17.5537 26.8017 17.6809 26.8125 17.809C26.9449 18.8198 27.0883 19.8307 27.2474 20.8351C27.2638 20.9059 27.295 20.9724 27.3389 21.0303C27.3828 21.0883 27.4384 21.1364 27.5021 21.1714C28.5581 21.6419 29.6203 22.0983 30.6887 22.5406C30.8361 22.5938 30.9957 22.6034 31.1484 22.5682C31.7184 22.4404 32.2829 22.2925 32.8484 22.1455C32.9906 22.1017 33.1411 22.0919 33.2878 22.1168C33.4346 22.1417 33.5734 22.2006 33.6933 22.2888C34.1714 22.6251 34.6574 22.9495 35.1514 23.262C35.2814 23.3353 35.3881 23.4438 35.4591 23.575C35.5302 23.7061 35.5628 23.8547 35.5532 24.0036C35.5449 24.588 35.5385 25.1734 35.5532 25.7569C35.5602 25.96 35.6087 26.1595 35.6957 26.3432C36.1343 27.2493 36.5434 28.1756 37.0537 29.0412C37.7147 30.1641 38.0595 31.3321 37.8977 32.6352C37.8848 32.7029 37.8848 32.7724 37.8977 32.8401C37.9159 32.9374 37.9551 33.0296 38.0126 33.1102C38.2461 33.3758 38.4943 33.6294 38.7481 33.895C41.8805 29.3187 42.3567 22.6435 39.5305 17.4543ZM15.4084 23.0653C14.6912 23.7839 14.0155 24.4529 13.3535 25.1357C13.2736 25.2422 13.2278 25.3703 13.222 25.5033C13.1227 26.2232 13.2858 26.9549 13.6817 27.5645C13.8435 27.8117 13.9336 28.1066 14.0973 28.3529C14.1923 28.496 14.3345 28.6014 14.4991 28.6507C15.2346 28.8207 15.9802 28.9521 16.7194 29.1101C17.1957 29.2103 17.329 29.3858 17.3308 29.8701C17.3308 30.9728 17.3942 32.0755 17.3161 33.17C17.2064 34.7025 17.5025 36.2369 18.1748 37.6186C18.3817 38.056 18.6621 38.1883 19.1016 38.2453C19.1016 37.602 19.1144 36.9882 19.1016 36.3716C19.0896 36.2115 19.1217 36.0512 19.1945 35.9082C19.2673 35.7651 19.3779 35.6447 19.5144 35.5601C19.826 35.346 20.1239 35.1117 20.4246 34.8829C20.7611 34.6256 21.2208 34.4289 21.3927 34.0871C21.5646 33.7452 21.4607 33.26 21.4497 32.8382C21.4436 32.6957 21.4694 32.5536 21.5252 32.4223C21.581 32.2909 21.6655 32.1737 21.7724 32.0792C22.404 31.4617 23.0237 30.8331 23.647 30.2073C23.7188 30.1357 23.8227 30.0621 23.842 29.9748C23.9863 29.3196 24.1123 28.6598 24.2529 27.9532C23.7574 27.9532 23.3124 27.9394 22.8683 27.9532C22.4702 27.9688 22.2018 27.8264 22.0013 27.4707C21.5959 26.7521 21.1463 26.0601 20.7399 25.3434C20.5983 25.0943 20.4494 24.9942 20.1533 24.9997C19.1108 25.0217 18.0663 24.9896 17.0274 25.0172C16.5558 25.03 16.2799 24.8508 16.0961 24.429C15.892 23.9852 15.6502 23.5561 15.4084 23.0653ZM13.1871 22.718C13.2515 22.1372 13.3002 21.6355 12.7807 21.2844C12.6226 21.1769 12.5049 21.0087 12.3624 20.8773C12.2539 20.7835 12.1684 20.666 12.1126 20.5339C12.0568 20.4018 12.0322 20.2587 12.0406 20.1155C12.0498 19.6689 12.0406 19.2214 12.0406 18.7748C12.0406 18.2179 12.2006 18.0268 12.7412 17.9477C13.4556 17.8421 14.1727 17.764 14.8852 17.6445C15.7127 17.5085 16.565 17.514 17.2986 16.9737C17.9137 16.5207 18.7016 16.2652 19.2294 15.7377C19.7571 15.2102 20.0964 14.4751 20.4356 13.7905C20.8089 13.036 21.3375 12.5389 22.1769 12.4203C22.7773 12.3349 22.9033 11.9057 22.9906 11.3948C22.5778 11.3241 22.1861 11.2331 21.7899 11.1935C20.6765 11.0814 19.6311 10.8048 18.7678 10.044C18.6069 9.90152 18.4617 9.91899 18.2732 10.0063C14.511 11.7406 11.7556 14.4837 10.0069 18.2354C9.94586 18.3767 9.93483 18.5345 9.97566 18.6829C10.2064 19.4245 10.4593 20.1606 10.7112 20.8966C10.7394 21.005 10.7993 21.1026 10.8831 21.1769C11.6315 21.686 12.3845 22.1841 13.1871 22.718ZM27.5738 12.9028C28.3626 13.2658 28.4353 13.2703 29.2075 13.0755C29.6672 12.9607 30.1159 12.8348 30.5756 12.7429C30.7629 12.6991 30.9585 12.7064 31.142 12.764C32.4447 13.2621 33.8082 13.5047 35.168 13.7749C35.2654 13.7942 35.3932 13.8208 35.4677 13.7749C35.7683 13.5984 36.0534 13.3962 36.3623 13.1913C35.2711 12.1344 34.0358 11.2372 32.693 10.5264C32.6378 10.5065 32.5791 10.4979 32.5206 10.501C32.462 10.5042 32.4046 10.5191 32.3519 10.5448C31.8002 10.803 31.2697 11.0962 30.7163 11.3433C30.4881 11.4435 30.2435 11.5008 29.9945 11.5124C29.5027 11.5382 29.008 11.5124 28.5152 11.5299C28.4481 11.5358 28.383 11.556 28.3244 11.5891C28.2657 11.6223 28.2148 11.6675 28.1751 11.7219C27.959 12.0978 27.7788 12.4939 27.5738 12.9028Z" fill="#03045E"/>
</g>
<defs>
<clipPath id="clip0_108_131">
<rect width="35.2459" height="35.2459" fill="white" transform="translate(7.34619 7.37705)"/>
</clipPath>
</defs>
</svg>
