<svg width="50" height="50" viewBox="0 0 50 50" fill="none" xmlns="http://www.w3.org/2000/svg">
<path d="M0 2C0 0.895432 0.89543 0 2 0H48C49.1046 0 50 0.89543 50 2V35C50 43.2843 43.2843 50 35 50H2C0.895432 50 0 49.1046 0 48V2Z" fill="#03045E"/>
<g clip-path="url(#clip0_108_135)">
<path d="M26.4791 42.6229C26.4323 42.5959 26.384 42.5718 26.3343 42.5507C25.3039 42.1768 24.8702 41.1244 25.3694 40.1295C26.531 37.8141 28.3053 36.1819 30.7122 35.3067C35.1122 33.7079 39.9275 35.5935 42.2346 39.7324C42.9053 40.9355 42.6599 42.1931 41.2651 42.6229H26.4791ZM33.9064 41.513V41.5045C36.1929 41.5045 38.4771 41.5045 40.7591 41.5045C41.4907 41.5045 41.7255 41.1198 41.3627 40.4661C39.7225 37.5125 37.247 35.8803 33.9003 35.8803C30.5537 35.8803 28.0789 37.5125 26.4311 40.4614C26.0615 41.1221 26.3076 41.5154 27.0561 41.5154L33.9064 41.513Z" fill="white"/>
<path d="M19.3042 34.737V31.5394H9.95698C8.84803 31.5394 8.16666 30.8601 8.16589 29.7261C8.16589 24.104 8.16921 18.4819 8.17581 12.8598C8.17581 11.8221 8.86862 11.1319 9.90974 11.1257C11.4173 11.1179 12.9251 11.1179 14.4332 11.1257C14.6618 11.1257 14.7838 11.0744 14.8905 10.8412C15.184 10.1813 15.7074 9.65615 16.3592 9.36761C17.011 9.07907 17.7446 9.04777 18.4178 9.27975C19.0923 9.50733 19.6607 9.98071 20.0141 10.6092C20.3675 11.2377 20.4811 11.977 20.3331 12.6856C20.0534 14.1166 18.7211 15.1231 17.2562 15.0096C16.6179 14.9534 16.0163 14.6813 15.5468 14.2366C15.0773 13.792 14.7669 13.2002 14.6649 12.5551C14.6291 12.3219 14.5574 12.2302 14.3082 12.2325C12.8563 12.245 11.4051 12.2364 9.95319 12.2403C9.46083 12.2403 9.26723 12.4354 9.26342 12.9157C9.26342 17.1833 9.26342 21.451 9.26342 25.7186C9.26342 25.7761 9.26951 25.8328 9.27714 25.9479H9.63077C16.382 25.9479 23.1333 25.9455 29.8845 25.9408C30.0332 25.9408 30.2344 25.8841 30.3213 25.7776C31.0796 24.8449 32.0308 24.2713 33.2007 24.0677C33.2551 24.0533 33.3083 24.0348 33.36 24.0125V19.691C33.36 19.164 33.5399 18.9138 33.9126 18.9223C34.2739 18.9285 34.4461 19.1718 34.4461 19.6778C34.4461 20.997 34.4461 22.3163 34.4461 23.6356V24.0242C34.6481 24.0716 34.8341 24.1112 35.0177 24.1586C37.276 24.7385 38.7828 27.0383 38.404 29.3242C37.9963 31.7796 35.9484 33.4506 33.5704 33.2711C32.3441 33.1786 31.3334 32.6493 30.4973 31.7376C30.4082 31.6412 30.2626 31.541 30.1429 31.541C27.8816 31.5293 25.6203 31.5324 23.3322 31.5324V34.7308C23.8261 34.7308 24.3169 34.7207 24.8078 34.7308C25.2399 34.7417 25.4891 35.0362 25.3992 35.414C25.3176 35.7521 25.0639 35.8461 24.7567 35.8485C24.0929 35.8531 23.429 35.8601 22.7652 35.8594C21.1677 35.8594 19.5702 35.8557 17.9727 35.8485C17.8708 35.8517 17.7688 35.8463 17.6678 35.8321C17.363 35.777 17.1747 35.5469 17.1983 35.257C17.2235 34.9539 17.3927 34.7603 17.6907 34.7424C18.0832 34.7183 18.478 34.7292 18.8713 34.7261L19.3042 34.737ZM29.6094 27.0803H9.25961V29.5675C9.25961 30.2359 9.41204 30.3945 10.0736 30.3945H29.6696C29.2758 29.3298 29.2545 28.1591 29.6094 27.0803ZM33.889 32.176C34.3426 32.1792 34.7923 32.091 35.2123 31.9163C35.6324 31.7417 36.0144 31.484 36.3364 31.1582C36.6584 30.8325 36.9141 30.445 37.0887 30.018C37.2633 29.5911 37.3534 29.1331 37.3538 28.6706C37.3559 28.2081 37.2685 27.7497 37.0966 27.3217C36.9248 26.8937 36.6718 26.5045 36.3522 26.1764C36.0326 25.8482 35.6527 25.5876 35.2342 25.4094C34.8157 25.2312 34.3669 25.139 33.9134 25.1379C33.4598 25.1353 33.0102 25.2241 32.5903 25.3992C32.1705 25.5743 31.7888 25.8322 31.467 26.1583C31.1452 26.4843 30.8898 26.8719 30.7154 27.2989C30.5411 27.726 30.4511 28.1839 30.4508 28.6465C30.4477 29.1089 30.5344 29.5674 30.7058 29.9955C30.8772 30.4236 31.1299 30.8129 31.4495 31.141C31.7691 31.4691 32.1491 31.7294 32.5678 31.9071C32.9865 32.0847 33.4355 32.1761 33.889 32.176ZM17.4963 10.2498C17.2595 10.2495 17.0251 10.2972 16.8065 10.3901C16.5879 10.4829 16.3895 10.619 16.2229 10.7905C16.0562 10.9621 15.9246 11.1656 15.8356 11.3894C15.7466 11.6132 15.7021 11.8527 15.7045 12.0942C15.712 12.5755 15.9035 13.0349 16.2381 13.3745C16.5728 13.714 17.0243 13.907 17.4963 13.9122C17.9743 13.9105 18.4324 13.717 18.7713 13.3733C19.1103 13.0297 19.3028 12.5637 19.3072 12.0763C19.3064 11.835 19.2589 11.5961 19.1674 11.3736C19.0758 11.151 18.9421 10.9491 18.7738 10.7794C18.6056 10.6097 18.4061 10.4755 18.1869 10.3846C17.9676 10.2937 17.733 10.2479 17.4963 10.2498ZM20.42 31.5464V34.7012H22.192V31.5464H20.42Z" fill="white"/>
<path d="M20.5679 19.6964V20.8134C20.5679 21.4212 20.5755 22.0297 20.5679 22.6375C20.5534 23.4987 20.0344 24.0249 19.1853 24.0265C17.2505 24.0312 15.3156 24.0312 13.3807 24.0265C12.4973 24.0265 11.9097 23.348 12.0461 22.472C12.2466 21.1825 12.4516 19.8923 12.7008 18.6114C13.0057 17.053 14.2869 16.0014 15.8585 15.9913C17.6704 15.9794 19.4818 15.9794 21.2927 15.9913C21.403 15.9977 21.5132 15.9787 21.6154 15.9358C21.7175 15.8929 21.8088 15.8271 21.8826 15.7434C22.17 15.4371 22.484 15.1566 22.7774 14.8558C23.3262 14.293 23.9679 14.1041 24.7209 14.3218C24.7713 14.3307 24.8223 14.3353 24.8734 14.3357L25.6546 12.1789C25.6858 12.0926 25.7102 12.004 25.7453 11.9201C25.884 11.5882 26.1538 11.4475 26.4427 11.5532C26.7476 11.6651 26.8847 11.9574 26.7628 12.3064C26.4655 13.1582 26.1607 14.0078 25.8482 14.855C25.7725 15.0413 25.7709 15.2503 25.8436 15.4379C26.0867 16.1429 25.9778 16.8074 25.4587 17.3499C24.9176 17.9158 24.352 18.4598 23.7781 18.9923C23.2667 19.4648 22.6433 19.6801 21.9558 19.6918C21.5092 19.7034 21.0595 19.6964 20.5679 19.6964ZM15.5247 22.8948C15.6451 22.9049 15.7221 22.9174 15.799 22.9174C16.8897 22.9174 17.9811 22.9104 19.0718 22.9228C19.382 22.9267 19.4826 22.8148 19.478 22.5C19.4628 21.4344 19.4696 20.3672 19.4734 19.3008C19.4734 18.7777 19.6571 18.5928 20.1594 18.5904C20.7219 18.5904 21.2843 18.5904 21.8468 18.5904C22.0949 18.5957 22.3416 18.5502 22.5722 18.4568C22.8028 18.3634 23.0128 18.2238 23.1898 18.0463C23.6471 17.5924 24.1181 17.1447 24.5761 16.6877C24.9443 16.3201 24.9686 15.9011 24.6523 15.5661C24.365 15.2552 23.9313 15.2755 23.5739 15.6174C23.1722 16.0022 22.769 16.3854 22.3849 16.788C22.1631 17.0212 21.9192 17.1035 21.6044 17.0989C19.7143 17.088 17.8246 17.088 15.9355 17.0989C14.7823 17.1043 13.9325 17.8085 13.7336 18.9277C13.5186 20.1332 13.3319 21.3442 13.1238 22.552C13.0796 22.8124 13.1795 22.9189 13.4249 22.9174C13.6497 22.9069 13.8748 22.9084 14.0994 22.922C14.3509 22.9477 14.4241 22.8342 14.4592 22.5995C14.5925 21.7165 14.7396 20.8359 14.8943 19.9568C14.9629 19.5682 15.2328 19.3645 15.5513 19.4314C15.8562 19.4943 16.0216 19.7749 15.9644 20.1441C15.9004 20.5514 15.8288 20.9571 15.7632 21.3644C15.6878 21.8696 15.6077 22.3741 15.5247 22.8948Z" fill="white"/>
<path d="M29.1475 7.37779C31.1053 7.37779 33.0627 7.37779 35.02 7.37779C36.1594 7.37779 36.8263 8.05014 36.8278 9.20979C36.8319 11.526 36.8319 13.8427 36.8278 16.1599C36.8278 17.3258 36.1693 17.9888 35.023 17.9904C32.4581 17.9904 29.8934 17.9904 27.329 17.9904C27.2502 17.9933 27.1713 17.9913 27.0927 17.9842C26.7955 17.9469 26.6225 17.7751 26.6049 17.4688C26.5874 17.1626 26.7513 16.9706 27.0355 16.8983C27.1466 16.8795 27.2594 16.8742 27.3717 16.8828H34.9643C35.5741 16.8828 35.7372 16.7165 35.7372 16.0853C35.7372 13.8142 35.7372 11.5434 35.7372 9.27276C35.7372 8.6665 35.5657 8.48849 34.9811 8.48849H23.2377C22.676 8.48849 22.4961 8.67581 22.4953 9.25564C22.4953 10.6091 22.4953 11.9626 22.4953 13.316C22.4953 13.4077 22.4953 13.4994 22.4953 13.5912C22.4763 13.9324 22.2484 14.1725 21.9496 14.1717C21.6509 14.171 21.4161 13.9386 21.4161 13.588C21.4085 12.7735 21.4161 11.9558 21.4161 11.1451C21.4161 10.4798 21.4161 9.81447 21.4161 9.14915C21.4222 8.08198 22.1059 7.3809 23.1485 7.37935C25.1459 7.37572 27.1456 7.3752 29.1475 7.37779Z" fill="white"/>
<path d="M30.3121 9.9715C31.0431 9.9715 31.7732 9.9715 32.5041 9.9715C32.9424 9.9715 33.174 10.165 33.1794 10.5156C33.184 10.8785 32.9408 11.0868 32.4934 11.0876C31.0199 11.0907 29.5464 11.0907 28.0729 11.0876C27.6156 11.0876 27.3465 10.8078 27.425 10.42C27.4906 10.0997 27.7132 9.97461 28.018 9.97461L30.3121 9.9715Z" fill="white"/>
<path d="M30.7276 13.2375C30.1323 13.2375 29.5371 13.2375 28.9426 13.2375C28.5493 13.2375 28.3077 13.0183 28.3092 12.6849C28.3107 12.3515 28.5569 12.1338 28.9479 12.1323C30.1496 12.1292 31.3513 12.1292 32.553 12.1323C32.9485 12.1323 33.1794 12.3476 33.1779 12.6903C33.1764 13.0331 32.9493 13.2344 32.5469 13.2344C31.9402 13.2406 31.3342 13.2375 30.7276 13.2375Z" fill="white"/>
<path d="M31.2733 15.4146C30.8472 15.4146 30.4212 15.4216 29.9951 15.4146C29.5942 15.4052 29.3678 15.1946 29.3671 14.8542C29.3663 14.5137 29.5904 14.3015 29.9943 14.2977C30.8464 14.2894 31.6985 14.2894 32.5506 14.2977C32.9538 14.3015 33.1794 14.5145 33.1794 14.8534C33.1794 15.1923 32.9508 15.4052 32.5514 15.4146C32.1254 15.4216 31.6993 15.4146 31.2733 15.4146Z" fill="white"/>
<path d="M21.3117 28.1778C21.5587 28.1778 21.8056 28.1661 22.0518 28.1778C22.3856 28.1972 22.6181 28.4444 22.6104 28.7467C22.6028 29.0491 22.3879 29.2706 22.0609 29.2799C21.5564 29.2939 21.0503 29.2947 20.5458 29.2799C20.4751 29.2808 20.405 29.2674 20.3395 29.2405C20.2739 29.2136 20.2143 29.1737 20.1641 29.123C20.1138 29.0724 20.0739 29.0121 20.0466 28.9457C20.0194 28.8792 20.0054 28.8079 20.0054 28.7358C20.0054 28.4459 20.2234 28.212 20.5389 28.1747C20.5614 28.1718 20.584 28.1705 20.6067 28.1708H21.314L21.3117 28.1778Z" fill="white"/>
</g>
<defs>
<clipPath id="clip0_108_135">
<rect width="34.4262" height="35.2459" fill="white" transform="translate(8.16589 7.37704)"/>
</clipPath>
</defs>
</svg>
