<svg width="50" height="50" viewBox="0 0 50 50" fill="none" xmlns="http://www.w3.org/2000/svg">
<path d="M0 2C0 0.895432 0.89543 0 2 0H48C49.1046 0 50 0.89543 50 2V35C50 43.2843 43.2843 50 35 50H2C0.895432 50 0 49.1046 0 48V2Z" fill="#03045E"/>
<g clip-path="url(#clip0_108_150)">
<path d="M10.9374 34.4838C11.2952 33.1787 11.5774 31.8945 12.0018 30.6574C12.6819 28.685 13.4652 26.7423 14.183 24.7809C14.3419 24.3426 14.6274 24.1234 15.0608 24.0138C16.3264 23.6665 17.5975 23.3334 18.8486 22.94C19.5431 22.7209 20.2064 22.4053 20.8753 22.1127C21.1954 21.9725 21.2987 21.7117 21.3109 21.3512C21.3311 21.0973 21.2981 20.8421 21.214 20.6014C21.1299 20.3607 20.9965 20.1396 20.822 19.9519C20.0442 19.0753 19.6309 17.9971 19.3186 16.8838C19.2418 16.6098 19.1341 16.3451 18.9975 16.0948C18.0053 14.2868 17.6064 12.3955 18.7486 10.5613C20.082 8.41576 22.0343 6.97704 24.6299 6.61653C26.4388 6.36451 27.9722 7.0428 29.1633 8.36099C30.7644 10.1306 31.4244 12.1961 30.7811 14.5421C30.6172 15.0624 30.3663 15.552 30.0389 15.9907C29.7972 16.3185 29.6169 16.6863 29.5066 17.0766C29.2202 18.1781 28.7032 19.2083 27.9888 20.1009C27.8677 20.251 27.8299 20.4987 27.8277 20.7036C27.811 22.0009 27.8421 22.0995 29.1011 22.5302C30.4455 22.9904 31.8167 23.3794 33.1856 23.7629C34.6678 24.1771 34.6767 24.1574 35.2567 25.5468C36.429 28.3519 37.429 31.2119 38.0568 34.189C38.0768 34.2811 38.1135 34.3698 38.1535 34.4915C39.1346 34.4915 40.1179 34.4915 41.1002 34.4915C41.668 34.4915 41.7669 34.601 41.7669 35.1686C41.7669 37.9708 41.7669 40.7727 41.7669 43.5742C41.7669 44.1439 41.6413 44.2678 41.058 44.2678H8.13398C7.43842 44.2678 7.34619 44.1768 7.34619 43.4887V35.2059C7.34619 34.5791 7.43397 34.4914 8.06287 34.4904L10.9374 34.4838ZM8.25176 37.6921H40.8502V35.3681H8.25176V37.6921ZM27.2788 34.4575H31.12C31.2712 33.0606 31.6682 31.7005 32.2933 30.4383C32.5156 29.9758 32.9134 29.943 33.1611 30.3911C33.4447 30.8745 33.6792 31.3843 33.8612 31.9131C34.1234 32.7448 34.3056 33.6006 34.5212 34.4641H37.2046C37.1834 34.3304 37.1734 34.2241 37.1501 34.1211C36.4757 31.0847 35.4323 28.1678 34.2134 25.3079C34.1655 25.1752 34.0844 25.0566 33.9776 24.9631C33.8707 24.8696 33.7416 24.8043 33.6023 24.7732C32.4022 24.4445 31.2 24.1256 30.01 23.7662C29.33 23.5613 28.6766 23.2863 27.9844 23.0353C28.2488 26.8661 27.5544 30.6355 27.2788 34.452V34.4575ZM21.1287 23.0419C20.4209 23.2972 19.7575 23.5712 19.0742 23.7772C17.8964 24.1322 16.703 24.4346 15.5252 24.7852C15.3163 24.8477 15.0608 25.0143 14.9786 25.1983C13.6718 28.089 12.6562 31.0992 11.9463 34.1857C11.9368 34.2783 11.9368 34.3715 11.9463 34.4641H14.6441C14.7063 34.1353 14.763 33.8066 14.8274 33.4921C15.0497 32.404 15.3452 31.3401 15.9475 30.3857C16.2241 29.9474 16.5919 29.9682 16.8242 30.424C16.9292 30.6163 17.018 30.8167 17.0897 31.0234C17.4408 32.152 17.7808 33.285 18.1364 34.4575H21.8443C21.5576 30.641 20.8731 26.8727 21.1287 23.0364V23.0419ZM28.8655 15.3125C28.7666 14.6944 28.7122 13.9789 28.5244 13.2995C28.391 12.8163 28.091 12.3726 27.8377 11.9266C27.7388 11.7535 27.5721 11.7425 27.3788 11.8729C26.4779 12.4624 25.4715 12.8774 24.4132 13.0957C23.1732 13.3675 21.912 13.5483 20.662 13.774C20.4642 13.8102 20.2176 13.7389 20.1576 14.0677C19.7609 16.1397 20.3076 17.9762 21.6365 19.5782C23.0021 21.2219 25.131 21.4596 26.6766 20.1404C28.1222 18.9022 28.7733 17.2728 28.8655 15.307V15.3125ZM29.7244 14.8161C29.7592 14.7681 29.7915 14.7183 29.8211 14.6671C29.8493 14.605 29.8738 14.5413 29.8944 14.4764C30.4966 12.5336 30.0055 10.7957 28.7888 9.24744C27.6088 7.74845 26.031 7.08663 24.1276 7.56986C22.2243 8.05309 20.7265 9.20142 19.612 10.7859C18.8875 11.817 18.7631 13.3741 19.2309 14.3482C19.2631 14.1444 19.2964 13.9712 19.3186 13.8003C19.4142 13.0804 19.482 13.0431 20.2231 12.9511C21.2387 12.8262 22.2587 12.7079 23.2576 12.4997C24.6676 12.2049 26.0543 11.8203 27.2299 10.9261C27.2912 10.8858 27.3609 10.8598 27.4339 10.8501C27.5069 10.8404 27.5812 10.8473 27.651 10.8703C27.9688 11.0226 28.3555 11.1628 28.5399 11.4269C28.8877 11.9251 29.1665 12.4668 29.3688 13.0377C29.5577 13.5855 29.6044 14.1805 29.7244 14.8106V14.8161ZM11.8829 38.6027V43.3539H15.3275V38.6027H11.8829ZM16.2664 38.6027V43.3572H19.7053V38.6027H16.2664ZM20.6531 38.6027V43.3506H24.1054V38.6027H20.6531ZM28.4699 43.3638V38.6049H25.0254V43.3638H28.4699ZM32.8578 38.6071H29.4133V43.3638H32.8578V38.6071ZM37.2479 38.6071H33.7834V43.3605H37.2423L37.2479 38.6071ZM10.9729 38.6071H8.26288V43.3528H10.9685L10.9729 38.6071ZM38.1624 38.6071V43.3583H40.858V38.6071H38.1624ZM24.5665 34.2548C24.8288 33.96 25.061 33.7244 25.2588 33.4625C25.3417 33.3436 25.3831 33.2013 25.3765 33.0571C25.2654 31.4354 25.1543 29.8137 25.0321 28.1931C25.0032 27.7909 24.9654 27.3888 24.9321 26.9877H24.2276C24.2051 27.0272 24.1882 27.0696 24.1776 27.1137C24.0295 29.1153 23.8858 31.118 23.7465 33.1218C23.7386 33.2276 23.7672 33.333 23.8276 33.4209C24.0454 33.6861 24.2899 33.9447 24.561 34.2482L24.5665 34.2548ZM23.5887 34.4739C23.3961 34.2801 23.2161 34.0744 23.0498 33.8581C22.9367 33.7091 22.8714 33.5301 22.862 33.3442C22.9298 32.1443 23.0276 30.9467 23.1121 29.7479C23.1843 28.7398 23.2609 27.7317 23.3109 26.7225C23.3068 26.5423 23.2454 26.368 23.1354 26.224C22.9976 26.0344 22.7754 25.9062 22.6387 25.7166C22.4165 25.412 22.2409 25.0778 22.0443 24.7568C21.9698 28.0265 22.4665 31.2327 22.7409 34.4739H23.5887ZM27.171 24.7086C27.1241 24.7476 27.0793 24.7889 27.0366 24.8324C26.6499 25.309 26.5588 26.0081 25.8988 26.2853C25.8366 26.3116 25.8177 26.4826 25.8143 26.5867C25.8085 26.806 25.8144 27.0254 25.8321 27.2441C25.961 29.028 26.0688 30.8141 26.2355 32.5947C26.301 33.2883 26.2554 33.891 25.661 34.3479C25.6388 34.3654 25.6421 34.4169 25.631 34.4652H26.3899C26.6566 31.2119 27.151 28.0111 27.1655 24.6976L27.171 24.7086ZM24.5654 23.6249C25.2765 23.0518 25.9521 22.5072 26.6255 21.9626C27.021 21.6437 27.0232 21.6339 26.901 21.0937C25.3643 22.059 23.7898 22.0985 22.1498 21.2602C22.1831 21.4739 22.2065 21.6985 22.3354 21.8081C23.0509 22.4151 23.7976 23.0003 24.5599 23.6139L24.5654 23.6249ZM15.4941 34.4586H17.1864C16.9297 33.4603 16.6897 32.5235 16.4497 31.5866H16.2397L15.4941 34.4586ZM33.6423 34.4783L32.8822 31.5723L32.74 31.5986C32.3822 32.5202 32.0845 33.4559 32.0367 34.4783H33.6423ZM23.9376 24.2363L22.1231 22.7757L21.9776 22.8852L23.2343 25.0493L23.9376 24.2363ZM27.1232 22.86L26.9844 22.791L25.191 24.2297L25.891 25.034C26.3021 24.2615 26.8188 23.6117 27.1177 22.8491L27.1232 22.86ZM24.5554 24.8959C23.9999 25.4438 23.8287 25.8602 24.1287 26.0103C24.3676 26.1308 24.7954 26.133 25.0088 25.9972C25.3132 25.7912 25.141 25.4098 24.5499 24.885L24.5554 24.8959Z" fill="white"/>
</g>
<defs>
<clipPath id="clip0_108_150">
<rect width="34.4262" height="37.7049" fill="white" transform="translate(7.34619 6.55737)"/>
</clipPath>
</defs>
</svg>
