<svg width="124" height="125" viewBox="0 0 124 125" fill="none" xmlns="http://www.w3.org/2000/svg">
<circle cx="61.773" cy="62.6797" r="59.273" stroke="#230D57" stroke-width="5" stroke-dasharray="12 12"/>
<g clip-path="url(#clip0_191_1898)">
<path d="M40.2514 64.4734C40.2514 57.2516 40.2514 50.0298 40.2514 42.808C40.2514 40.7993 41.2691 39.3059 43.0256 38.7695C43.4986 38.6321 43.9893 38.5646 44.482 38.569C56.1543 38.5577 67.8271 38.5577 79.5003 38.569C82.0863 38.569 83.738 40.2234 83.7394 42.8038C83.7451 57.2813 83.7451 71.7597 83.7394 86.239C83.7394 88.8039 82.0254 90.495 79.4437 90.4964C67.8063 90.4964 56.1689 90.4964 44.5315 90.4964C41.8932 90.4964 40.2528 88.8476 40.2514 86.1966C40.2486 78.9532 40.2486 71.7122 40.2514 64.4734ZM41.8678 64.4932C41.8678 71.698 41.8678 78.9024 41.8678 86.1063C41.8678 87.9725 42.7878 88.8844 44.6731 88.8844H79.3276C81.1677 88.8844 82.1344 87.9202 82.1344 86.0823V42.9633C82.1344 41.0859 81.22 40.174 79.3432 40.174H44.6887C42.7694 40.174 41.8678 41.0732 41.8678 42.9887V64.4932Z" fill="#230D57"/>
<path d="M71.5884 70.4852C73.4756 70.4852 75.3628 70.4852 77.25 70.4852C78.0666 70.4852 78.3186 70.7421 78.3186 71.5608C78.3186 75.344 78.3186 79.1275 78.3186 82.9116C78.3186 83.7585 78.0624 84.0126 77.216 84.0126C73.4416 84.0126 69.6672 84.0126 65.8928 84.0126C65.0195 84.0126 64.7605 83.7529 64.7605 82.8763C64.7605 79.112 64.7605 75.3477 64.7605 71.5834C64.7605 70.7463 65.0209 70.4908 65.873 70.4894C67.7781 70.4847 69.6832 70.4833 71.5884 70.4852ZM66.4222 72.1255V82.3483H76.6767V72.1255H66.4222Z" fill="#230D57"/>
<path d="M53.2081 61.0729C51.7446 61.0729 50.2811 61.0729 48.8204 61.0729C46.7737 61.0729 45.5239 59.8025 45.5848 57.7571C45.6016 57.0908 45.6899 56.4283 45.848 55.7808C46.3915 53.6211 47.814 52.28 49.9428 51.7281C52.1023 51.1533 54.3758 51.1581 56.5329 51.7422C59.1641 52.448 60.6927 54.4567 60.8286 57.2856C60.8702 57.7562 60.8555 58.2301 60.7847 58.6972C60.5016 60.1088 59.3084 61.0405 57.8124 61.0673C57.0367 61.08 56.2554 61.0673 55.4855 61.0673L53.2081 61.0729ZM48.9308 59.379C48.9308 58.9696 48.9308 58.5843 48.9308 58.2003C48.9449 57.6272 49.2507 57.2884 49.7319 57.287C50.2131 57.2856 50.533 57.6314 50.5471 58.1932C50.5571 58.5927 50.5471 58.9922 50.5471 59.4002H56.0049C56.0375 59.3479 56.0545 59.3338 56.0545 59.3183C56.0545 58.9499 56.0545 58.58 56.0743 58.2116C56.0927 57.6385 56.3942 57.2969 56.8768 57.287C57.3595 57.2771 57.6836 57.6117 57.7062 58.1805C57.7232 58.58 57.7062 58.9809 57.7062 59.3733C58.5144 59.451 59.174 58.9936 59.2023 58.254C59.2915 55.9417 58.5654 53.9076 55.9469 53.2639C54.2092 52.8393 52.3967 52.8204 50.6505 53.2089C49.2351 53.5124 48.0617 54.2182 47.5861 55.6665C47.3542 56.4204 47.2196 57.2007 47.1856 57.9886C47.1403 58.9597 47.8508 59.5117 48.9308 59.3776V59.379Z" fill="#230D57"/>
<path d="M65.5529 65.2939C61.6889 65.2939 57.8248 65.2939 53.9608 65.2939C53.7344 65.2939 53.4456 65.3348 53.2942 65.2176C53.0578 65.0341 52.7705 64.7321 52.769 64.4794C52.7676 64.2267 53.0521 63.9303 53.2899 63.7355C53.423 63.6239 53.6947 63.6607 53.9042 63.6607C61.6492 63.6607 69.3948 63.6607 77.1407 63.6607C77.3502 63.6607 77.622 63.6239 77.755 63.734C77.9872 63.9274 78.2773 64.2225 78.2773 64.4751C78.2773 64.7278 77.9942 65.0313 77.7579 65.2162C77.6078 65.3334 77.3191 65.2939 77.0926 65.2939C73.2456 65.2948 69.399 65.2948 65.5529 65.2939Z" fill="#230D57"/>
<path d="M53.3289 50.5522C52.8244 50.5563 52.3241 50.4607 51.8569 50.271C51.3896 50.0813 50.9647 49.8013 50.6065 49.4469C50.2483 49.0926 49.964 48.6711 49.77 48.2066C49.576 47.7422 49.4762 47.244 49.4762 46.7409C49.4693 46.2382 49.5624 45.7392 49.7501 45.2727C49.9379 44.8061 50.2165 44.3814 50.5699 44.023C50.9234 43.6646 51.3446 43.3797 51.8092 43.1847C52.2738 42.9897 52.7725 42.8886 53.2765 42.8872C53.7848 42.8795 54.2895 42.973 54.7611 43.1622C55.2327 43.3514 55.6617 43.6326 56.023 43.9893C56.3842 44.3459 56.6706 44.7708 56.8651 45.2392C57.0597 45.7075 57.1586 46.2099 57.1561 46.7169C57.1593 47.2199 57.0626 47.7185 56.8716 48.1841C56.6806 48.6496 56.3991 49.0729 56.0434 49.4294C55.6876 49.786 55.2646 50.0687 54.7987 50.2614C54.3328 50.4541 53.8333 50.553 53.3289 50.5522ZM55.5355 46.7409C55.5412 46.1535 55.3134 45.5878 54.902 45.1675C54.4907 44.7471 53.9291 44.5064 53.3402 44.4978C52.7508 44.494 52.1836 44.7225 51.7622 45.1336C51.3407 45.5446 51.0991 46.105 51.0897 46.6928C51.0863 47.2803 51.3159 47.8454 51.7285 48.2647C52.141 48.6841 52.7031 48.9239 53.2921 48.9317C53.8797 48.9381 54.446 48.7118 54.8665 48.3024C55.2871 47.893 55.5277 47.334 55.5355 46.7479V46.7409Z" fill="#02C4EB"/>
<path d="M53.8906 84.0074C51.5057 84.0074 49.1222 84.0145 46.7387 83.9989C46.4726 83.9989 46.1399 83.9368 45.9616 83.7731C45.8692 83.675 45.7994 83.558 45.7571 83.4303C45.7148 83.3025 45.701 83.1671 45.7167 83.0334C45.7649 82.8061 46.0196 82.5817 46.2404 82.4462C46.4004 82.3473 46.6509 82.3784 46.8604 82.3784C51.5576 82.3784 56.2553 82.3784 60.9535 82.3784C61.1295 82.3734 61.3057 82.3833 61.48 82.408C61.668 82.4273 61.8416 82.5176 61.965 82.6604C62.0884 82.8032 62.1524 82.9877 62.1438 83.176C62.1566 83.5995 61.9202 83.8733 61.5154 83.9792C61.3417 84.0097 61.1649 84.0197 60.9889 84.0088C58.6223 84.0135 56.2562 84.0131 53.8906 84.0074Z" fill="#02C4EB"/>
<path d="M53.9426 71.5583C51.5237 71.5583 49.1048 71.5583 46.6859 71.5583C46.2612 71.5583 45.9116 71.4651 45.7333 71.0473C45.6873 70.9374 45.6668 70.8186 45.6733 70.6997C45.6798 70.5809 45.7131 70.4649 45.7708 70.3607C45.8285 70.2565 45.9091 70.1666 46.0065 70.0977C46.1039 70.0289 46.2157 69.9829 46.3334 69.9632C46.4742 69.9454 46.6163 69.9397 46.758 69.9462H61.062C61.1682 69.9462 61.2743 69.9462 61.3791 69.9462C61.8419 69.9858 62.1434 70.2921 62.1519 70.7255C62.1571 70.8317 62.1405 70.9378 62.103 71.0374C62.0656 71.1369 62.0081 71.2278 61.9341 71.3044C61.8601 71.3809 61.7712 71.4416 61.6728 71.4826C61.5745 71.5236 61.4687 71.5441 61.3621 71.5428C60.4619 71.5625 59.5617 71.5428 58.6601 71.5428C57.0871 71.555 55.5146 71.5602 53.9426 71.5583Z" fill="#02C4EB"/>
<path d="M71.2202 51.2169C73.1603 51.2169 75.1003 51.2169 77.0404 51.2169C77.2341 51.2115 77.428 51.2195 77.6207 51.2409C77.8085 51.2535 77.9845 51.337 78.1128 51.4744C78.2412 51.6118 78.3122 51.7928 78.3114 51.9806C78.3397 52.4323 78.0892 52.7104 77.6645 52.8177C77.4907 52.8475 77.3139 52.856 77.138 52.8431H65.1836C65.042 52.8493 64.9002 52.8469 64.759 52.836C64.5545 52.8204 64.3635 52.7281 64.2243 52.5778C64.0852 52.4275 64.0082 52.2303 64.0088 52.0258C64.005 51.8208 64.0826 51.6227 64.2248 51.4746C64.3669 51.3265 64.562 51.2405 64.7675 51.2353C65.1921 51.2042 65.6167 51.2169 66.0413 51.2169C67.7662 51.215 69.4925 51.215 71.2202 51.2169Z" fill="#02C4EB"/>
<path d="M71.1411 58.9963C69.0605 58.9963 66.9799 58.9963 64.8992 58.9963C64.5029 58.9963 64.1632 58.8552 64.0826 58.4726C64.0381 58.1902 64.0979 57.9013 64.251 57.6596C64.36 57.4972 64.6756 57.3984 64.8964 57.397C69.0747 57.3829 73.2534 57.3805 77.4326 57.3899C77.9846 57.3899 78.3328 57.7344 78.3186 58.2171C78.3045 58.6999 77.9718 58.9893 77.4354 58.9907C75.3364 59.0006 73.2416 58.9963 71.1411 58.9963Z" fill="#230D57"/>
<path d="M57.4275 77.731C56.2103 77.731 54.9916 77.731 53.7744 77.731C53.0823 77.731 52.71 77.4233 52.727 76.8967C52.7426 76.397 53.1176 76.1077 53.7716 76.1077C56.2249 76.1077 58.6783 76.1077 61.1316 76.1077C61.7756 76.1077 62.1507 76.414 62.1507 76.9208C62.1507 77.4275 61.7954 77.7268 61.1344 77.731C59.8974 77.7352 58.6618 77.731 57.4275 77.731Z" fill="#02C4EB"/>
<path d="M74.9102 44.9343C75.7212 44.9343 76.5322 44.9343 77.3418 44.9343C77.9575 44.9343 78.3085 45.235 78.317 45.7347C78.3255 46.2344 77.9773 46.5548 77.3673 46.559C75.7283 46.5694 74.0892 46.5694 72.4502 46.559C71.8331 46.559 71.4976 46.2414 71.5061 45.7333C71.5146 45.2251 71.8642 44.9385 72.4785 44.9329C73.2881 44.93 74.0991 44.9343 74.9102 44.9343Z" fill="#230D57"/>
<path d="M66.3779 46.5629C65.8839 46.5629 65.3871 46.5784 64.8974 46.5629C64.3312 46.5417 63.9944 46.2044 64.0114 45.7258C64.0283 45.2473 64.3652 44.948 64.8974 44.941C65.9023 44.9283 66.9073 44.9269 67.9122 44.941C68.4331 44.9494 68.7742 45.2925 68.7756 45.7512C68.777 46.21 68.4444 46.5375 67.9122 46.5587C67.38 46.5798 66.8903 46.5629 66.3779 46.5629Z" fill="#230D57"/>
<path d="M47.8502 65.2905C47.41 65.2905 46.9684 65.3074 46.5297 65.2905C46.0003 65.2665 45.6804 64.9404 45.6804 64.4774C45.6804 64.0144 46.006 63.6784 46.5297 63.6657C47.41 63.6459 48.2899 63.6459 49.1694 63.6657C49.3842 63.6607 49.5924 63.7403 49.7489 63.8871C49.9054 64.034 49.9977 64.2364 50.0059 64.4506C50.0214 64.8938 49.6732 65.2608 49.1679 65.2876C48.7306 65.3088 48.289 65.2905 47.8502 65.2905Z" fill="#02C4EB"/>
<path d="M47.8714 76.1024C48.296 76.1024 48.7206 76.0911 49.1452 76.1024C49.659 76.1222 50.0115 76.4581 50.0157 76.907C50.02 77.3559 49.6774 77.7032 49.158 77.7145C48.2776 77.7342 47.3977 77.7342 46.5183 77.7145C45.9903 77.7004 45.669 77.3588 45.6832 76.8929C45.6973 76.4271 46.03 76.1278 46.5579 76.0996C46.5933 76.0996 46.6287 76.0996 46.6641 76.0996L47.8714 76.1024Z" fill="#02C4EB"/>
<path d="M70.0884 78.2282L73.6269 74.6682C73.9213 74.3731 74.2638 74.2941 74.6361 74.4875C74.799 74.5629 74.9284 74.6956 74.9994 74.8602C75.0704 75.0248 75.0781 75.2097 75.021 75.3796C74.9637 75.5629 74.8604 75.7286 74.721 75.861C73.4179 77.1785 72.1086 78.4851 70.7933 79.781C70.3262 80.2426 69.9327 80.2341 69.4614 79.781C69.0679 79.4041 68.6772 79.0201 68.3022 78.6249C67.9271 78.2296 67.9271 77.7779 68.2427 77.4448C68.581 77.0919 69.0523 77.0989 69.46 77.4928C69.6793 77.6989 69.852 77.9459 70.0884 78.2282Z" fill="#02C4EB"/>
</g>
<defs>
<clipPath id="clip0_191_1898">
<rect width="43.4951" height="51.9345" fill="white" transform="translate(40.2493 38.5591)"/>
</clipPath>
</defs>
</svg>
