<svg width="125" height="125" viewBox="0 0 125 125" fill="none" xmlns="http://www.w3.org/2000/svg">
<circle cx="62.4795" cy="62.4378" r="59.273" stroke="#230D57" stroke-width="5" stroke-dasharray="12 12"/>
<g clip-path="url(#clip0_191_1916)">
<path d="M84.5482 46.1579L80.39 47.2189V47.8358C80.39 51.3363 80.39 54.8357 80.39 58.3341C80.39 60.6699 79.168 62.2751 76.9238 62.9072C76.6512 62.9829 76.3817 63.0724 76.1046 63.13C75.4625 63.2649 74.9128 62.9678 74.7417 62.413C74.5645 61.8234 74.875 61.2535 75.5094 61.0352C75.8486 60.92 76.2015 60.8442 76.5422 60.732C77.5431 60.4122 78.1761 59.7028 78.1852 58.663C78.217 55.0691 78.1973 51.4767 78.1973 47.801C77.3675 48.0086 76.574 48.2011 75.7835 48.4073C71.5269 49.5002 67.2747 50.6037 63.0135 51.6783C62.5965 51.7791 62.1616 51.7791 61.7446 51.6783C56.917 50.4657 52.097 49.2152 47.2755 47.9768C47.0423 47.9162 46.8076 47.8616 46.5184 47.7904V48.4118C46.5184 51.6657 46.5184 54.9195 46.5184 58.1734C46.5184 59.7165 47.0423 60.4092 48.5263 60.8366C48.8006 60.9038 49.0711 60.9857 49.3365 61.0822C49.5789 61.1721 49.7801 61.3476 49.9023 61.5757C50.0244 61.8038 50.0591 62.0687 49.9997 62.3206C49.9514 62.5754 49.8093 62.8027 49.6015 62.9577C49.3937 63.1126 49.1354 63.1839 48.8777 63.1573C46.4442 62.8102 44.3636 61.4278 44.3439 58.4766C44.3181 54.9024 44.3303 51.3267 44.3439 47.751C44.3439 47.3341 44.2258 47.1689 43.8154 47.0704C42.183 46.6808 40.5612 46.2519 38.9364 45.8274C38.1429 45.6198 37.7976 45.109 37.9627 44.436C38.0884 43.9267 38.4609 43.719 38.9288 43.5993C44.2258 42.2381 49.5222 40.8739 54.8182 39.5067C57.1199 38.914 59.4171 38.3032 61.7234 37.7378C62.1405 37.6379 62.5752 37.6379 62.9923 37.7378C70.5385 39.6648 78.0812 41.606 85.6203 43.5614C86.5865 43.81 86.8106 44.1146 86.8106 45.1272C86.8106 49.6684 86.8106 54.2087 86.8106 58.7479C86.8106 59.1253 86.8969 59.336 87.2649 59.5315C88.39 60.1257 88.9911 61.1064 88.9911 62.3842C88.9911 63.6848 88.3673 64.6473 87.2406 65.293C87.0871 65.4061 86.9469 65.5362 86.8227 65.681C86.9581 65.7929 87.1019 65.8943 87.2527 65.9842C87.9857 66.3495 88.449 66.93 88.5263 67.7395C88.6777 69.3204 88.8019 70.9044 88.8882 72.4899C88.9684 73.9723 88.0311 74.9151 86.5441 74.9257C85.958 74.9257 85.372 74.9257 84.7875 74.9257C83.4125 74.9045 82.4691 73.9435 82.5418 72.5627C82.6251 70.9575 82.7508 69.3537 82.9037 67.7546C82.9855 66.8982 83.4761 66.2964 84.2666 65.9493C84.386 65.8782 84.4955 65.7916 84.5921 65.6916C84.4907 65.5764 84.4104 65.4188 84.2893 65.3506C83.1021 64.717 82.4388 63.7378 82.4403 62.3888C82.4419 61.0397 83.1112 60.0666 84.2999 59.433C84.3793 59.3836 84.4468 59.3172 84.4976 59.2386C84.5484 59.1599 84.5812 59.0711 84.5937 58.9783C84.6088 54.7796 84.6118 50.5799 84.6027 46.3792C84.592 46.3038 84.5737 46.2296 84.5482 46.1579ZM43.511 44.6921C43.7442 44.7831 43.8275 44.824 43.9153 44.8437C49.9594 46.3999 56.0039 47.9521 62.0489 49.5002C62.3221 49.5541 62.6042 49.5411 62.8712 49.4623C68.8435 47.9334 74.8139 46.3959 80.7822 44.8498C80.9141 44.8008 81.0426 44.7431 81.1668 44.677C74.9249 43.0672 68.7921 41.4832 62.6562 39.9114C62.437 39.868 62.2105 39.8778 61.9959 39.9402C59.7296 40.5121 57.4642 41.0912 55.1998 41.6773L43.511 44.6921ZM86.7197 72.7036C86.5955 71.109 86.4744 69.5735 86.3548 68.035H85.0661C84.9465 69.6099 84.8299 71.1408 84.7118 72.7036H86.7197ZM85.6976 61.3096C85.4117 61.3135 85.1386 61.4293 84.9369 61.6321C84.7351 61.8349 84.6206 62.1086 84.6179 62.3948C84.6202 62.6808 84.7344 62.9544 84.936 63.157C85.1376 63.3596 85.4104 63.475 85.6961 63.4786C85.8423 63.4804 85.9875 63.453 86.123 63.3978C86.2585 63.3426 86.3816 63.2608 86.485 63.1573C86.5884 63.0537 86.6701 62.9305 86.7253 62.7949C86.7804 62.6593 86.8079 62.514 86.806 62.3676C86.7947 62.0827 86.6735 61.8134 86.4679 61.6161C86.2624 61.4188 85.9884 61.3089 85.7036 61.3096H85.6976Z" fill="#230D57"/>
<path d="M66.3414 78.371C66.5382 78.2468 66.6957 78.1498 66.8502 78.0467C68.5719 76.8856 70.2861 75.7109 72.0169 74.5604C73.7841 73.3872 75.9541 73.4524 77.5743 74.6998C78.757 75.6093 78.8055 77.0326 77.6561 77.9846C73.6402 81.3193 69.6304 84.6539 65.5888 87.9416C61.9545 90.8974 57.1163 91.0096 53.2912 88.2994C52.4296 87.693 51.5755 87.064 50.7169 86.4562C49.8557 85.8292 48.8214 85.485 47.7565 85.4709C46.8676 85.4618 45.9802 85.4436 45.0929 85.4709C44.868 85.5006 44.6634 85.6163 44.522 85.7938C44.051 86.4001 43.462 86.7518 42.6897 86.7518C40.9892 86.7518 39.2886 86.7518 37.5896 86.7518C36.896 86.7518 36.4402 86.3213 36.4205 85.7029C36.4009 85.0844 36.8748 84.5872 37.5805 84.5812C39.0524 84.566 40.5258 84.5812 41.9992 84.5812H42.6518V73.1341H41.4207C40.1745 73.1341 38.9267 73.1341 37.6804 73.1341C36.9081 73.1341 36.4266 72.7096 36.419 72.0564C36.4115 71.4031 36.8975 70.962 37.6577 70.9589C39.3234 70.9514 40.9816 70.9589 42.6443 70.9589C43.4166 70.9589 44.0071 71.2863 44.4962 71.8851C44.6671 72.0836 44.9068 72.2099 45.1671 72.2382C46.4497 72.2867 47.7414 72.2382 49.0164 72.314C50.7158 72.3969 52.3251 73.1039 53.5365 74.2997C54.1409 74.9115 54.8684 75.3875 55.6707 75.6962C56.4731 76.0048 57.3318 76.139 58.1899 76.0898C59.7042 76.0368 61.2185 76.1004 62.7222 76.0731C64.4076 76.0428 65.6281 76.7264 66.3414 78.371ZM44.89 83.2594C45.791 83.2594 46.6178 83.2594 47.4446 83.2594C49.0996 83.24 50.7171 83.7533 52.0586 84.7237C52.8551 85.2966 53.6536 85.8686 54.4542 86.4395C57.6342 88.701 61.373 88.5813 64.3879 86.103C68.1817 82.9835 71.9674 79.857 75.7451 76.7234C75.8693 76.6203 75.9813 76.5021 76.1312 76.3611C75.0485 75.7366 74.0673 75.8079 73.1026 76.4642C70.4779 78.2437 67.8531 80.0202 65.2284 81.7937C64.6601 82.2076 63.9776 82.4348 63.2749 82.4439C60.8006 82.4364 58.3277 82.4439 55.8549 82.4439C55.0978 82.4439 54.6132 82.0074 54.6193 81.3496C54.6253 80.6917 55.1053 80.2718 55.8731 80.2688C57.5736 80.2688 59.2727 80.2688 60.9732 80.2688C61.7092 80.2688 62.4451 80.2779 63.1825 80.2688C63.8079 80.2582 64.2426 79.8717 64.2638 79.3336C64.2865 78.847 63.8791 78.4074 63.3052 78.3195C63.0988 78.2937 62.8908 78.2831 62.6828 78.2877C61.1534 78.2877 59.624 78.2589 58.0945 78.2877C55.7656 78.3408 53.7758 77.5859 52.0995 75.9519C51.6206 75.4782 51.0531 75.1035 50.4296 74.8494C49.806 74.5953 49.1385 74.4667 48.4652 74.471C47.4052 74.4604 46.3452 74.471 45.2928 74.471C45.1589 74.481 45.0259 74.4997 44.8945 74.5271V83.267L44.89 83.2594Z" fill="#230D57"/>
<path d="M72.5979 63.6207C72.6028 66.3361 71.532 68.9427 69.6204 70.8694C67.7087 72.796 65.1119 73.8855 62.3992 73.8991C61.0512 73.9003 59.7162 73.6354 58.4707 73.1195C57.2251 72.6035 56.0935 71.8467 55.1405 70.8924C54.1875 69.9381 53.432 68.805 52.9171 67.558C52.4022 66.311 52.1381 64.9745 52.1399 63.6252C52.1411 60.909 53.2185 58.3043 55.1359 56.3822C57.0532 54.4601 59.6539 53.3778 62.3674 53.3726C65.0808 53.3766 67.6818 54.4578 69.5997 56.379C71.5177 58.3003 72.5959 60.9047 72.5979 63.6207ZM62.3598 71.6952C64.4913 71.6956 66.536 70.8503 68.0461 69.3445C69.5561 67.8387 70.4082 65.7952 70.4158 63.6616C70.4203 61.5275 69.5799 59.4785 68.0785 57.9632C66.5772 56.4479 64.5373 55.5897 62.4053 55.5765C57.9972 55.5401 54.3341 59.1689 54.319 63.5873C54.3136 64.6486 54.5175 65.7005 54.9189 66.6828C55.3204 67.6651 55.9115 68.5584 56.6585 69.3116C57.4054 70.0647 58.2935 70.663 59.2719 71.072C60.2502 71.4811 61.2996 71.6928 62.3598 71.6952Z" fill="#164863"/>
<path d="M40.3031 83.4577C40.161 83.4624 40.0194 83.4384 39.8868 83.3872C39.7541 83.336 39.6331 83.2586 39.531 83.1596C39.4288 83.0606 39.3476 82.942 39.2922 82.8109C39.2367 82.6799 39.2082 82.539 39.2083 82.3967C39.2014 82.2548 39.223 82.1131 39.2718 81.9797C39.3207 81.8464 39.3957 81.7242 39.4926 81.6205C39.5895 81.5167 39.7062 81.4335 39.8358 81.3757C39.9654 81.3179 40.1052 81.2868 40.2471 81.2841C40.3937 81.2782 40.54 81.3019 40.6772 81.3538C40.8145 81.4056 40.9399 81.4846 41.046 81.5861C41.1521 81.6875 41.2368 81.8092 41.2949 81.9441C41.353 82.0789 41.3834 82.2241 41.3843 82.3709C41.3839 82.6583 41.27 82.9338 41.0675 83.1374C40.8649 83.341 40.5902 83.4561 40.3031 83.4577Z" fill="#02C4EB"/>
<path d="M67.5774 45.6998C66.6234 45.4572 65.5543 45.2723 64.5488 44.91C63.1313 44.3836 61.5712 44.389 60.1574 44.9252C59.2912 45.2284 58.3766 45.4057 57.4801 45.627C56.6957 45.821 56.1021 45.5361 55.934 44.901C55.7584 44.2416 56.1521 43.702 56.9668 43.4928C58.6083 43.0699 60.2482 42.6394 61.8943 42.2378C62.2021 42.1665 62.5222 42.1665 62.8301 42.2378C64.5463 42.6571 66.2625 43.0967 67.9787 43.5565C68.6223 43.7293 68.9372 44.2461 68.8282 44.8312C68.7192 45.3587 68.2149 45.7422 67.5774 45.6998Z" fill="#02C4EB"/>
<path d="M65.4468 60.8258C65.4271 61.4549 65.1682 61.8141 64.6896 61.9626C64.4649 62.0466 64.2179 62.0492 63.9914 61.97C63.7649 61.8908 63.5732 61.7349 63.4494 61.5292C63.3556 61.3912 63.3162 61.2169 63.2269 61.0744C62.9725 60.6621 62.6105 60.4681 62.1244 60.5969C61.9077 60.6403 61.7139 60.7605 61.5785 60.9353C61.443 61.1101 61.375 61.3279 61.387 61.5488C61.3743 61.7697 61.4419 61.9877 61.5771 62.1626C61.7123 62.3375 61.9062 62.4576 62.1229 62.5008C62.2723 62.5337 62.4244 62.5525 62.5772 62.5569C63.2595 62.599 63.9096 62.8622 64.4292 63.3069C64.9488 63.7515 65.3097 64.3534 65.4574 65.0215C65.6127 65.6696 65.5559 66.3505 65.2956 66.9639C65.0353 67.5773 64.5851 68.0909 64.0113 68.429C63.6842 68.6199 63.4676 68.8033 63.3783 69.202C63.2662 69.6916 62.8771 69.9447 62.3667 69.9417C61.8307 69.9417 61.4506 69.6689 61.337 69.1489C61.3109 69.0046 61.2496 68.869 61.1584 68.7542C61.0673 68.6394 60.9492 68.5491 60.8146 68.4911C60.136 68.1379 59.6232 67.5321 59.3866 66.804C59.1625 66.1614 59.3957 65.5687 59.959 65.3368C60.5223 65.1048 61.1114 65.3368 61.393 65.9719C61.5884 66.4115 61.8806 66.7692 62.3531 66.6964C62.7105 66.6302 63.0272 66.4253 63.2344 66.1265C63.6236 65.4717 63.1057 64.7865 62.2456 64.7244C60.7616 64.6152 59.641 63.7088 59.2942 62.3355C58.9323 60.9137 59.5502 59.5147 60.8328 58.7553C61.0495 58.6073 61.2146 58.3954 61.3052 58.149C61.4915 57.6503 61.8019 57.3562 62.338 57.335C62.874 57.3138 63.2314 57.6306 63.4298 58.1505C63.5226 58.3969 63.6892 58.6087 63.9068 58.7568C64.7381 59.2661 65.2832 59.9603 65.4468 60.8258Z" fill="#02C4EB"/>
</g>
<defs>
<clipPath id="clip0_191_1916">
<rect width="52.5836" height="52.5836" fill="white" transform="translate(36.4104 37.668)"/>
</clipPath>
</defs>
</svg>
