<svg width="125" height="124" viewBox="0 0 125 124" fill="none" xmlns="http://www.w3.org/2000/svg">
<circle cx="62.6455" cy="61.773" r="59.273" stroke="#230D57" stroke-width="5" stroke-dasharray="12 12"/>
<g clip-path="url(#clip0_191_1936)">
<path d="M85.9708 35.0496C86.4345 35.3362 86.5659 35.7462 86.5643 36.2733C86.5516 44.3902 86.5485 52.5036 86.5548 60.6133C86.5697 60.8051 86.558 60.9979 86.52 61.1867C86.3934 61.6228 86.0895 61.8756 85.6052 61.8432C85.3944 61.8438 85.1915 61.7648 85.0393 61.6228C84.887 61.4809 84.7971 61.2869 84.7885 61.0818C84.7722 60.8901 84.7685 60.6976 84.7775 60.5054C84.7775 52.8529 84.7775 45.2009 84.7775 37.5494V36.8219H41.01V92.348H77.1822V91.7315C77.1822 89.8467 77.1822 87.9633 77.1822 86.0785C77.1822 85.2847 77.475 84.9996 78.2901 84.9996C80.4219 84.9996 82.5522 84.9996 84.779 84.9996V84.3092C84.779 78.0612 84.779 71.8126 84.779 65.5636C84.7679 65.3524 84.7727 65.1407 84.7933 64.9302C84.8089 64.7346 84.8985 64.5517 85.0447 64.4167C85.1908 64.2818 85.3832 64.2044 85.5846 64.1997C85.7831 64.1697 85.9859 64.2125 86.1537 64.3199C86.3216 64.4272 86.4425 64.5914 86.4931 64.7807C86.5474 64.9843 86.5693 65.1948 86.558 65.4049C86.558 72.0967 86.5617 78.7876 86.569 85.4774C86.5772 85.7154 86.5325 85.9524 86.438 86.1721C86.3435 86.3918 86.2014 86.5891 86.0214 86.7504C83.6664 89.0242 81.3214 91.3082 78.9864 93.6025C78.8203 93.7769 78.6175 93.9143 78.3919 94.0055C78.1663 94.0968 77.9232 94.1396 77.6791 94.1312C65.2804 94.1209 52.8828 94.1178 40.4861 94.1219C39.4542 94.1219 39.1931 93.8676 39.1931 92.8628C39.1931 74.0017 39.1899 55.1405 39.1836 36.2794C39.1836 35.7523 39.3134 35.3409 39.7771 35.0557L85.9708 35.0496ZM78.9896 90.924L83.2628 86.7627H78.9896V90.924Z" fill="#230D57"/>
<path d="M45.6107 76.611C44.84 75.6092 44.1088 74.6568 43.3744 73.7059C43.1069 73.3606 42.8489 73.0185 43.0816 72.5515C43.3143 72.0845 43.7748 72.0476 44.2417 72.0491C46.4575 72.0491 48.6732 72.0383 50.8763 72.0599C51.3274 72.0599 51.5426 71.9335 51.7721 71.5312C52.3159 70.5982 52.9124 69.6952 53.5589 68.8264C53.9515 68.2886 54.5228 68.21 54.9359 68.5506C55.349 68.8912 55.3806 69.3936 54.9248 69.9192C52.9718 72.1847 52.1583 74.7801 52.4273 77.7268C52.8373 82.1963 56.7844 86.2034 61.3726 86.7351C67.1937 87.4179 72.1539 83.8808 73.2269 78.2817C74.2557 72.9245 70.2926 67.444 64.7469 66.5485C62.7138 66.1909 60.6177 66.4224 58.7185 67.2144C58.0633 67.4887 57.5679 67.3592 57.3416 66.8815C57.0994 66.3744 57.3416 65.9074 58.011 65.6254C63.9999 63.0685 71.1568 65.6855 73.9391 71.4696C74.1575 71.932 74.4139 72.0691 74.9125 72.0629C77.1029 72.0337 79.2949 72.0506 81.4869 72.0491C81.9522 72.0491 82.408 72.0491 82.6518 72.5438C82.8955 73.0385 82.6122 73.3838 82.3352 73.7444C81.612 74.6799 80.8934 75.62 80.1321 76.6095C80.8349 77.527 81.5397 78.444 82.2466 79.3605C82.3852 79.5232 82.5111 79.6958 82.6233 79.8768C82.9825 80.5318 82.5426 81.1683 81.7006 81.1822C80.5167 81.2007 79.3266 81.1822 78.1475 81.1822C77.0016 81.1822 75.8557 81.1991 74.7115 81.1745C74.338 81.1652 74.167 81.3008 74.0024 81.6183C71.6791 86.114 67.9249 88.5707 62.7559 88.5337C57.7673 88.4967 54.105 86.1001 51.8259 81.7755C51.5727 81.2962 51.3131 81.1591 50.7988 81.1714C48.6273 81.1976 46.4559 81.1807 44.2844 81.1853C43.8096 81.1853 43.3633 81.1683 43.1022 80.7029C42.8205 80.1958 43.1291 79.829 43.4187 79.4545C44.142 78.5236 44.8605 77.5866 45.6107 76.611ZM50.9254 79.4206C50.4767 77.5874 50.4735 75.6776 50.9159 73.843H45.712L47.214 75.8003C47.7521 76.5031 47.7521 76.7251 47.214 77.4309C46.7249 78.0705 46.2311 78.707 45.6804 79.4206H50.9254ZM74.8064 73.8292C75.2812 75.7248 75.2258 77.5666 74.8333 79.4067H80.0467C79.4864 78.6762 78.9815 78.0197 78.4798 77.3585C78.005 76.7343 78.005 76.4847 78.4798 75.8697C78.98 75.2116 79.4848 74.5566 80.0435 73.8292H74.8064Z" fill="#230D57"/>
<path d="M42.9862 49.8236V40.9401C42.9862 39.9368 43.2552 39.6748 44.2808 39.6748H60.5618C61.5937 39.6748 61.8565 39.9275 61.858 40.9355C61.858 46.8383 61.858 52.741 61.858 58.6438C61.858 59.6733 61.6254 59.8968 60.5682 59.8968C55.1375 59.8968 49.7078 59.8968 44.2792 59.8968C43.2346 59.8968 42.9783 59.6502 42.9783 58.6484C42.9772 55.7068 42.9798 52.7652 42.9862 49.8236ZM46.7276 58.1352C46.7482 58.0796 46.7635 58.0224 46.7735 57.9641C46.7735 56.5031 46.7735 55.0359 46.7878 53.5825C46.8083 51.9427 47.9843 50.7899 49.6682 50.7714C51.5231 50.7514 53.3796 50.7483 55.2345 50.7714C56.8694 50.793 58.0121 51.9134 58.0564 53.5055C58.0802 54.3701 58.0564 55.2362 58.0564 56.1008V58.1136H60.0427V41.441H44.7936V58.1321L46.7276 58.1352ZM56.2633 58.1352C56.2633 56.5139 56.2854 54.9434 56.2522 53.3744C56.2395 52.8057 55.7995 52.516 55.2535 52.5099C53.3807 52.4862 51.5084 52.4862 49.6366 52.5099C48.9608 52.5191 48.5968 52.9121 48.5699 53.5764C48.5493 54.0742 48.5699 54.575 48.5699 55.0728V58.1383L56.2633 58.1352Z" fill="#230D57"/>
<path d="M62.8713 68.3582C65.1183 68.3585 67.2734 69.226 68.8649 70.7706C70.4564 72.3151 71.3545 74.4109 71.3624 76.5989C71.3557 78.797 70.4547 80.9029 68.8566 82.4553C67.2585 84.0077 65.0938 84.8801 62.8365 84.8813C60.5908 84.8618 58.4435 83.9808 56.8607 82.4293C55.2779 80.8779 54.3872 78.7812 54.3818 76.5943C54.391 74.4073 55.2894 72.313 56.8804 70.7695C58.4714 69.2259 60.6255 68.359 62.8713 68.3582ZM56.1608 76.5527C56.0943 80.0743 59.0966 83.0796 62.7495 83.1474C66.4419 83.2168 69.5202 80.2947 69.5787 76.6744C69.6357 73.1297 66.6808 70.1829 62.9885 70.1012C62.1043 70.0853 61.2257 70.2399 60.4032 70.556C59.5807 70.8721 58.8305 71.3436 58.1959 71.9433C57.5612 72.5429 57.0547 73.2589 56.7054 74.05C56.3562 74.8411 56.1711 75.6916 56.1608 76.5527Z" fill="#02C4EB"/>
<path d="M73.3057 56.1966C71.1754 56.1966 69.0452 56.1966 66.9149 56.1966C66.1647 56.1966 65.7801 55.8884 65.7943 55.3181C65.8086 54.7818 66.1979 54.4705 66.9022 54.4705C71.1839 54.4705 75.4645 54.4705 79.7441 54.4705C80.4262 54.4705 80.852 54.8172 80.852 55.3381C80.852 55.8591 80.4436 56.195 79.7551 56.1966C77.6059 56.1997 75.455 56.1966 73.3057 56.1966Z" fill="#02C4EB"/>
<path d="M72.849 48.8046C70.877 48.8046 68.9049 48.8046 66.9329 48.8046C66.1811 48.8046 65.7902 48.4964 65.795 47.937C65.7997 47.3775 66.2033 47.0723 66.9472 47.0708C70.8912 47.0708 74.8358 47.0708 78.7809 47.0708C79.5184 47.0708 79.9679 47.4731 79.8887 48.0356C79.827 48.5226 79.4551 48.8062 78.8173 48.8062C76.8342 48.8093 74.8416 48.8046 72.849 48.8046Z" fill="#02C4EB"/>
<path d="M79.0163 45.1073C78.13 45.1073 77.2437 45.1073 76.359 45.1073C75.6579 45.1073 75.2812 44.7852 75.2907 44.2335C75.2907 43.7079 75.6737 43.3796 76.3258 43.3766C78.1195 43.3673 79.9105 43.3673 81.699 43.3766C82.332 43.3766 82.742 43.7249 82.753 44.2304C82.7641 44.7359 82.3526 45.1012 81.6721 45.1058C80.7874 45.1119 79.9011 45.1073 79.0163 45.1073Z" fill="#02C4EB"/>
<path d="M69.4945 45.1077C68.6098 45.1077 67.7235 45.1077 66.8387 45.1077C66.1772 45.1077 65.8053 44.7995 65.7942 44.2678C65.7831 43.736 66.174 43.38 66.8546 43.3769C68.6261 43.3708 70.3971 43.3708 72.1676 43.3769C72.8419 43.3769 73.2581 43.7283 73.2533 44.2554C73.2486 44.7825 72.845 45.1046 72.1455 45.1092C71.2655 45.1123 70.3808 45.1077 69.4945 45.1077Z" fill="#02C4EB"/>
<path d="M69.5323 52.4979C68.6239 52.4979 67.717 52.4979 66.8086 52.4979C66.1755 52.4979 65.821 52.202 65.7972 51.6872C65.7735 51.1725 66.1438 50.781 66.7801 50.7764C68.597 50.762 70.4134 50.762 72.2292 50.7764C72.8623 50.7764 73.2643 51.154 73.2532 51.6626C73.2421 52.1712 72.8528 52.4948 72.1976 52.4995C71.3176 52.5025 70.4202 52.4979 69.5323 52.4979Z" fill="#02C4EB"/>
<path d="M56.1496 47.0141C56.1529 47.4903 56.0595 47.9625 55.8746 48.4034C55.6897 48.8442 55.4171 49.2451 55.0724 49.583C54.7277 49.9208 54.3177 50.1888 53.8662 50.3716C53.4146 50.5545 52.9304 50.6485 52.4414 50.6483C51.9474 50.6511 51.4577 50.5587 51.0006 50.3763C50.5434 50.1939 50.1279 49.9251 49.778 49.5855C49.4281 49.246 49.1508 48.8423 48.9619 48.3977C48.7731 47.9532 48.6765 47.4767 48.6777 46.9957C48.6918 46.0334 49.0929 45.1148 49.7948 44.4373C50.4968 43.7599 51.4436 43.3775 52.4319 43.3723C53.42 43.3776 54.3658 43.7637 55.0625 44.4461C55.7592 45.1286 56.15 46.0519 56.1496 47.0141ZM54.3675 47.028C54.3702 46.778 54.3222 46.53 54.2262 46.2981C54.1302 46.0662 53.9882 45.8551 53.8082 45.6768C53.6282 45.4985 53.4138 45.3566 53.1773 45.2592C52.9409 45.1618 52.687 45.1109 52.4303 45.1092C51.9125 45.114 51.4169 45.3151 51.049 45.67C50.6811 46.0248 50.4697 46.5054 50.4598 47.0095C50.459 47.26 50.5089 47.5081 50.6066 47.7397C50.7044 47.9713 50.848 48.1819 51.0294 48.3594C51.2108 48.5369 51.4264 48.6778 51.6638 48.7741C51.9012 48.8704 52.1557 48.9202 52.4129 48.9206C52.6697 48.9245 52.9248 48.8783 53.163 48.7847C53.4013 48.6912 53.6178 48.5521 53.8 48.3757C53.9822 48.1993 54.1262 47.9892 54.2237 47.7578C54.3212 47.5263 54.37 47.2782 54.3675 47.028Z" fill="#02C4EB"/>
<path d="M62.8574 79.3363H62.6802C61.395 79.3363 61.395 79.3363 60.9028 80.4798C60.6449 81.0747 60.2144 81.3028 59.7095 81.1087C59.2046 80.9145 59.0163 80.4583 59.2442 79.8618C60.1495 77.4899 61.0674 75.1226 61.9775 72.7523C62.1357 72.3377 62.3921 72.0572 62.8828 72.0618C63.3734 72.0664 63.6155 72.3701 63.7707 72.7754C64.6738 75.1293 65.5775 77.4822 66.4818 79.8341C66.7239 80.4691 66.5403 80.9283 66.007 81.1179C65.5021 81.2982 65.0827 81.064 64.8279 80.4567C64.3531 79.3363 64.3531 79.3363 63.0964 79.3363H62.8574ZM62.0297 77.5778H63.72C63.4478 76.8719 63.193 76.2123 62.878 75.3924L62.0297 77.5778Z" fill="#02C4EB"/>
</g>
<defs>
<clipPath id="clip0_191_1936">
<rect width="47.3902" height="59.0754" fill="white" transform="translate(39.1741 35.0559)"/>
</clipPath>
</defs>
</svg>
