<svg width="125" height="124" viewBox="0 0 125 124" fill="none" xmlns="http://www.w3.org/2000/svg">
<circle cx="62.4647" cy="61.7688" r="59.273" stroke="#230D57" stroke-width="5" stroke-dasharray="12 12"/>
<g clip-path="url(#clip0_191_1925)">
<path d="M39.0147 59.6253L41.0968 60.2902L41.4245 60.3979C42.5217 60.7519 42.8787 60.6411 43.5435 59.6746C43.6165 59.5089 43.6226 59.3213 43.5604 59.1513C43.3065 58.3079 43.0218 57.4722 42.7571 56.6319C42.5448 55.9547 42.6417 55.6284 43.2357 55.2652C43.9713 54.8158 44.7253 54.3972 45.4808 53.9817C45.9656 53.7154 46.4041 53.8047 46.7734 54.2218C47.3613 54.8805 47.9706 55.5207 48.5415 56.1948C48.7908 56.4903 49.0247 56.4718 49.3848 56.4334C50.3343 56.3287 50.7036 55.8316 50.7774 54.9205C50.8298 54.2772 51.0483 53.6477 51.1821 53.009C51.2868 52.5135 51.5776 52.2133 52.087 52.2026C53.0257 52.1841 53.9643 52.1841 54.903 52.2026C55.4401 52.2118 55.7324 52.5273 55.8401 53.0475C56.0171 53.9109 56.2264 54.7681 56.3895 55.6346C56.4603 56.0009 56.6465 56.1332 56.9881 56.2733C57.8529 56.6273 58.4454 56.4272 58.9639 55.6577C59.3163 55.139 59.8057 54.7127 60.2242 54.2387C60.5905 53.8232 61.0213 53.7047 61.5107 53.974C62.3001 54.4065 63.0803 54.8559 63.8558 55.3129C64.3421 55.5977 64.4544 56.0348 64.2867 56.555C64.0174 57.3953 63.765 58.2479 63.4665 59.0697C63.3373 59.433 63.4542 59.6253 63.6742 59.9177C64.239 60.6734 64.8576 60.7673 65.6824 60.3794C66.2502 60.1132 66.8811 59.9808 67.4813 59.7823C68.0276 59.6022 68.4677 59.7207 68.7646 60.2301C69.1996 60.975 69.6295 61.723 70.0542 62.4741C70.3512 63.0019 70.2573 63.459 69.8003 63.8592C69.1524 64.4302 68.5277 65.0304 67.8691 65.5875C67.5751 65.8368 67.5905 66.0692 67.6275 66.4309C67.7275 67.3851 68.243 67.7437 69.1401 67.8253C69.8033 67.8853 70.4527 68.0961 71.1067 68.2454C71.5484 68.347 71.8377 68.6225 71.8484 69.0796C71.8731 70.0574 71.8731 71.0321 71.8484 72.0037C71.8377 72.487 71.5407 72.7732 71.0683 72.8702C70.1881 73.061 69.3109 73.2657 68.4261 73.4381C68.0645 73.5089 67.9275 73.6905 67.786 74.0353C67.4305 74.9033 67.6321 75.4927 68.4015 76.0114C68.9201 76.3653 69.3479 76.8517 69.8218 77.2718C70.2342 77.6381 70.3512 78.0706 70.0819 78.56C69.6479 79.3495 69.1971 80.1283 68.74 80.9055C68.4538 81.3949 68.0183 81.4995 67.4982 81.3333C66.6596 81.064 65.8055 80.8131 64.9853 80.513C64.6191 80.3807 64.4298 80.513 64.139 80.7239C63.3696 81.2887 63.2988 81.912 63.6773 82.7338C63.942 83.3033 64.0774 83.9328 64.2744 84.5345C64.4529 85.0809 64.3267 85.521 63.8127 85.8165C63.051 86.2613 62.2893 86.703 61.5168 87.1278C61.0321 87.3956 60.5935 87.3017 60.2258 86.8846C59.6518 86.2413 59.0563 85.6134 58.4946 84.9578C58.2407 84.6623 58.0114 84.6253 57.6129 84.673C56.6588 84.7884 56.3002 85.2886 56.2279 86.1921C56.1741 86.8354 55.9571 87.4648 55.8217 88.1035C55.7155 88.6006 55.42 88.8961 54.9138 88.9069C53.9751 88.9284 53.0364 88.9284 52.0977 88.9069C51.5638 88.8961 51.2714 88.5791 51.1652 88.0589C50.9898 87.1939 50.779 86.3367 50.6159 85.4702C50.5466 85.0993 50.3512 84.9762 50.0127 84.8346C49.1448 84.4729 48.5585 84.6915 48.0384 85.4502C47.6844 85.9689 47.1982 86.3952 46.7781 86.8692C46.4103 87.2817 45.9779 87.3971 45.4901 87.1278C44.7022 86.6922 43.9251 86.2351 43.1465 85.7826C42.6525 85.4933 42.5556 85.0593 42.7217 84.5422C42.991 83.7019 43.248 82.857 43.5404 82.0259C43.6558 81.6965 43.5742 81.5057 43.3696 81.221C42.7833 80.4038 42.1216 80.3422 41.2645 80.7469C40.7151 81.0055 40.1011 81.1302 39.5195 81.321C38.9717 81.4995 38.5316 81.3733 38.2361 80.8593C37.7945 80.0898 37.3513 79.3341 36.9266 78.5615C36.6588 78.0767 36.7542 77.6381 37.1697 77.2718C37.8145 76.6962 38.4423 76.1006 39.0978 75.5389C39.3933 75.2865 39.4302 75.0556 39.3794 74.657C39.261 73.709 38.7747 73.3411 37.8622 73.2719C37.2005 73.2195 36.5496 73.0041 35.8956 72.8533C35.4539 72.7517 35.1677 72.4747 35.1569 72.016C35.1338 71.0403 35.1323 70.0615 35.1569 69.0919C35.1677 68.6086 35.4647 68.33 35.9386 68.23C36.8204 68.0422 37.6975 67.8345 38.5823 67.6667C38.9516 67.5975 39.0778 67.4051 39.2179 67.065C39.5749 66.2001 39.3717 65.6091 38.6023 65.0889C38.0822 64.7364 37.6575 64.247 37.1836 63.8269C36.7681 63.4606 36.6511 63.0296 36.9189 62.5418C37.3544 61.7522 37.7852 60.9596 38.273 60.204C38.4485 59.9562 38.7855 59.8069 39.0147 59.6253ZM67.5351 61.7061L64.8991 62.5556C64.0128 62.8419 63.8589 62.7849 63.248 62.1124C62.8326 61.635 62.382 61.1895 61.9 60.7796C61.3768 60.3517 61.2414 59.8962 61.4676 59.2636C61.7877 58.3679 62.0585 57.4538 62.3586 56.5226L61.2229 55.8932C60.5797 56.6042 59.9503 57.2537 59.3763 57.9478C58.9147 58.5111 58.4223 58.6757 57.7144 58.3879C57.104 58.1592 56.4719 57.9932 55.8278 57.8924C55.2123 57.7815 54.8892 57.4661 54.7722 56.8566C54.5906 55.9009 54.366 54.9544 54.1567 54.0048H52.8502C52.6379 54.9944 52.4224 55.9486 52.2347 56.9074C52.1239 57.4645 51.8146 57.7646 51.2529 57.8816C50.5574 58.0155 49.872 58.1975 49.2017 58.4264C48.5862 58.648 48.143 58.5203 47.726 58.0339C47.1104 57.3091 46.4488 56.6134 45.7871 55.8793L44.6637 56.5242C44.9823 57.5261 45.27 58.4787 45.587 59.4206C45.7594 59.9269 45.627 60.3009 45.2469 60.6518C44.7042 61.1368 44.188 61.6505 43.7004 62.1909C43.2757 62.6833 42.8325 62.8065 42.2247 62.591C41.3276 62.2709 40.4135 61.9985 39.4748 61.6968L38.8424 62.8311C39.6118 63.5345 40.3535 64.2162 41.0968 64.8719C41.4845 65.2197 41.5784 65.609 41.4138 66.1123C41.1811 66.8022 40.9914 67.5059 40.8459 68.2193C40.7274 68.8349 40.4289 69.1658 39.8165 69.2827C38.8624 69.4689 37.9145 69.6906 36.9527 69.8983V71.2034C37.956 71.4189 38.9286 71.6328 39.9026 71.8329C40.4381 71.9437 40.7167 72.2592 40.8259 72.7933C40.9607 73.489 41.1422 74.1749 41.3691 74.8463C41.5892 75.4619 41.4784 75.9067 40.9906 76.3253C40.2658 76.9486 39.5687 77.6058 38.8362 78.2722L39.4795 79.4018C40.4335 79.094 41.3507 78.8201 42.2493 78.5015C42.8341 78.2937 43.2665 78.4107 43.6773 78.8832C44.1447 79.4166 44.6464 79.9188 45.1792 80.3868C45.6255 80.7808 45.764 81.1933 45.5639 81.7627C45.2439 82.6861 44.9638 83.6095 44.656 84.5807L45.784 85.2194C46.4426 84.493 47.0904 83.8127 47.6983 83.0971C48.1261 82.5907 48.5754 82.4491 49.2186 82.6892C49.8698 82.9207 50.5388 83.0983 51.2191 83.2202C51.8084 83.3356 52.1239 83.6419 52.2378 84.2252C52.4255 85.1809 52.644 86.132 52.8533 87.1078H54.1613C54.3721 86.1336 54.5906 85.1824 54.7768 84.2267C54.8907 83.6434 55.2062 83.3356 55.7955 83.2202C56.4759 83.0995 57.145 82.9224 57.796 82.6908C58.4377 82.4507 58.8885 82.5907 59.3179 83.0955C59.9334 83.8235 60.5935 84.5145 61.2383 85.2255L62.3555 84.5776C62.0477 83.5988 61.76 82.6477 61.4322 81.7088C61.2522 81.1794 61.383 80.7947 61.7892 80.4299C62.3016 79.9682 62.7956 79.4834 63.2634 78.9771C63.8543 78.3353 64.0205 78.2722 64.8668 78.543L67.5398 79.4049L68.1753 78.2814C67.4151 77.5889 66.6857 76.9117 65.9394 76.253C65.5285 75.8898 65.4316 75.4927 65.607 74.9663C65.8313 74.2952 66.0213 73.613 66.1764 72.9225C66.3487 72.153 66.4934 71.9899 67.2874 71.8221C68.2184 71.6236 69.1463 71.4127 70.0573 71.2065V69.8952C69.097 69.6859 68.1799 69.4828 67.2612 69.2889C66.4918 69.1257 66.3379 68.9595 66.1733 68.1654C66.0498 67.5254 65.878 66.8956 65.6593 66.2816C65.4147 65.646 65.5362 65.1905 66.0456 64.758C66.7734 64.1424 67.4659 63.4806 68.1845 62.828L67.5351 61.7061Z" fill="#230D57"/>
<path d="M79.1807 53.6757C78.9283 53.5756 78.7191 53.5141 78.5436 53.4202C77.9097 53.1001 77.2864 52.7615 76.6524 52.4429C76.1908 52.2121 75.7845 52.3844 75.6245 52.8708C75.3952 53.5618 75.1629 54.2559 74.9628 54.9531C74.8197 55.4348 74.5227 55.7226 74.018 55.7226C73.2342 55.737 72.4499 55.737 71.6651 55.7226C71.185 55.7103 70.8957 55.4255 70.7665 54.97C70.568 54.3098 70.3525 53.6541 70.1417 52.9969C69.9309 52.3398 69.5723 52.1813 68.9322 52.5122C68.3167 52.8292 67.7058 53.1493 67.0995 53.4725C66.6794 53.6941 66.2762 53.6772 65.93 53.3448C65.3637 52.8 64.8082 52.2449 64.2634 51.6796C63.9326 51.3348 63.9126 50.93 64.1357 50.5099C64.4589 49.9004 64.7795 49.2889 65.0975 48.6754C65.4299 48.0351 65.2898 47.6781 64.6158 47.4611C63.9418 47.2441 63.3048 47.0332 62.6431 46.8377C62.1814 46.7023 61.8998 46.4253 61.889 45.9436C61.8685 45.1587 61.866 44.3738 61.8814 43.5889C61.8906 43.0872 62.1691 42.7886 62.6508 42.647C63.3494 42.4423 64.0357 42.2145 64.7312 41.9852C65.2252 41.8205 65.3929 41.4204 65.1606 40.9571C64.8436 40.3215 64.5266 39.6859 64.1773 39.0687C63.8895 38.5593 63.9403 38.1161 64.3388 37.7083C64.822 37.2158 65.3093 36.7274 65.8007 36.2431C66.2239 35.8229 66.6809 35.7706 67.2087 36.0738C67.8073 36.417 68.4275 36.7217 69.0445 37.0311C69.5539 37.2865 69.9294 37.128 70.1048 36.5909C70.331 35.8984 70.5541 35.2058 70.7665 34.5086C70.905 34.0469 71.1912 33.7745 71.6728 33.7652C72.4566 33.7488 73.2409 33.7488 74.0257 33.7652C74.532 33.776 74.8197 34.0731 74.9613 34.5502C75.1644 35.2304 75.386 35.903 75.606 36.5771C75.7892 37.1403 76.1723 37.2943 76.7094 37.0203C77.3403 36.6971 77.9712 36.3708 78.5944 36.0322C79.0361 35.7937 79.4515 35.8152 79.8132 36.16C80.3656 36.6909 80.9057 37.2373 81.4382 37.7867C81.7859 38.15 81.809 38.5562 81.5736 39.0041C81.2304 39.6474 80.8919 40.2923 80.5641 40.9433C80.3133 41.4389 80.4856 41.8236 81.0258 41.996C81.6813 42.2068 82.3384 42.4223 83.0001 42.6116C83.5186 42.7655 83.8433 43.0733 83.8495 43.6274C83.8495 44.3969 83.8495 45.1587 83.8387 45.9236C83.8264 46.4053 83.5509 46.6931 83.097 46.8347C82.4015 47.0517 81.7121 47.2748 81.0165 47.498C80.4841 47.6688 80.3164 48.0567 80.5687 48.5569C80.8765 49.1725 81.1842 49.7881 81.5274 50.3914C81.8352 50.9193 81.7798 51.3794 81.3628 51.8027C80.8657 52.3075 80.3702 52.8169 79.8486 53.2955C79.6624 53.4679 79.3992 53.5495 79.1807 53.6757ZM82.0675 44.777C82.1722 44.363 81.9521 44.2045 81.5813 44.106C80.9839 43.9695 80.3996 43.7816 79.8347 43.5442C79.4941 43.3615 79.2076 43.0924 79.0037 42.7639C78.2882 41.6789 78.4159 40.6093 79.1869 39.5951C79.3007 39.4412 79.35 39.2457 79.4546 39.0872C79.6501 38.7871 79.7116 38.5532 79.4023 38.2423C79.093 37.9314 78.8406 37.9345 78.5144 38.1607C78.3605 38.2685 78.1605 38.3146 78.0066 38.43C77.0064 39.1642 76.0061 39.3165 74.8751 38.6501C74.4689 38.41 74.1534 38.1884 74.0241 37.7267C73.8703 37.1742 73.6794 36.6309 73.5225 36.0784C73.4271 35.7414 73.3194 35.5244 72.8793 35.5167C72.4084 35.5074 72.2961 35.7444 72.196 36.103C72.0421 36.6555 71.8544 37.2004 71.6944 37.7529C71.5682 38.1915 71.2727 38.4193 70.8788 38.6455C69.7693 39.2796 68.7506 39.2134 67.7442 38.4516C67.5627 38.3146 67.3257 38.2546 67.1379 38.1253C66.8302 37.9129 66.6163 37.9714 66.347 38.2284C66.0485 38.5131 66.0654 38.7317 66.2531 39.0687C66.8917 40.2261 67.7919 41.3635 66.7425 42.7501C66.7209 42.7794 66.7225 42.8301 66.6978 42.8548C66.4609 43.0841 66.2577 43.398 65.9731 43.5212C65.3877 43.7516 64.7872 43.9414 64.1757 44.0891C63.8264 44.1876 63.6325 44.3138 63.6325 44.7447C63.6325 45.1756 63.8218 45.3172 64.1773 45.3957C64.3819 45.4419 64.5774 45.5388 64.7836 45.5681C66.0562 45.7497 66.8763 46.4361 67.1256 47.7104C67.21 48.0692 67.1989 48.4438 67.0933 48.797C66.8705 49.3686 66.5895 49.9157 66.2547 50.4299C66.0208 50.8054 66.1162 51.0208 66.3932 51.3117C66.6701 51.6026 66.9056 51.5056 67.1918 51.344C68.3521 50.6899 69.4831 49.9174 70.885 50.8531C71.2558 51.1009 71.5728 51.3148 71.699 51.7473C71.8529 52.2629 72.0191 52.7723 72.1729 53.2863C72.2822 53.6495 72.3268 53.9973 72.8823 53.9897C73.4163 53.9897 73.4486 53.6526 73.5548 53.314C73.7087 52.8015 73.8841 52.2921 74.0288 51.775C74.158 51.3133 74.4719 51.087 74.8782 50.8516C76.0015 50.1898 77.011 50.336 78.0112 51.0716C78.1651 51.184 78.3605 51.2332 78.5175 51.341C78.8437 51.561 79.0915 51.581 79.4069 51.2609C79.7224 50.9408 79.6562 50.7176 79.4592 50.416C79.3546 50.2621 79.3054 50.059 79.1915 49.9097C78.4221 48.8893 78.2928 47.8258 79.0084 46.7393C79.2107 46.4102 79.497 46.1409 79.8378 45.959C80.4205 45.7133 81.0234 45.5187 81.6397 45.3772C81.9706 45.2818 82.146 45.1341 82.0675 44.777Z" fill="#230D57"/>
<path d="M86.2516 73.472C85.7468 73.2396 85.2606 73.0196 84.7758 72.7949C84.1603 72.5086 83.6771 72.7102 83.4402 73.3612C83.414 73.432 83.3894 73.5059 83.3571 73.5752C83.1262 74.0846 83.1539 74.8895 82.5215 74.988C81.6151 75.128 80.6657 75.0311 79.7393 74.9695C79.5716 74.9572 79.3808 74.6432 79.2777 74.4324C79.1053 74.0707 78.9976 73.6783 78.8591 73.3012C78.6483 72.7302 78.1435 72.5194 77.5896 72.7718C77.4357 72.8426 77.2818 72.9257 77.1279 72.9934C75.9092 73.5782 75.8138 73.5628 74.8197 72.6225C74.7505 72.5563 74.6797 72.4902 74.6135 72.4209C73.5209 71.302 73.5117 71.2512 74.1873 69.8384C74.3673 69.4598 74.6274 69.0904 74.3104 68.6718C74.1845 68.5183 74.0374 68.3835 73.8733 68.2716C73.7707 68.2199 73.6629 68.1792 73.5517 68.1501C73.0408 67.9208 72.2345 67.9531 72.1314 67.3252C71.9852 66.4202 72.0775 65.4691 72.1314 64.5426C72.1422 64.3733 72.453 64.1809 72.6638 64.0809C72.9972 63.9351 73.3389 63.8092 73.6871 63.7038C74.4165 63.4437 74.6104 62.9851 74.2904 62.2987L74.0257 61.7216C73.564 60.7412 73.581 60.6073 74.3211 59.7901C74.3981 59.7054 74.475 59.6223 74.5581 59.5392C75.7476 58.308 75.8461 58.2526 77.3526 59.0359C78.0728 59.4099 78.7175 59.1621 78.9714 58.3588C79.4869 56.7305 79.5731 56.7089 81.3043 56.7351C81.572 56.7351 81.8398 56.7736 82.1075 56.789C82.6338 56.8182 82.9508 57.0968 83.1078 57.5923C83.2109 57.9217 83.334 58.2434 83.4525 58.5681C83.671 59.1699 84.1803 59.3838 84.7528 59.1175C84.8928 59.0529 85.0297 58.9851 85.1682 58.9205C86.4547 58.3203 86.5224 58.3326 87.5611 59.333C87.6288 59.3992 87.6981 59.4669 87.7642 59.5361C88.7845 60.5857 88.7968 60.6658 88.1751 61.9801C88.0843 62.171 87.8919 62.3803 87.9243 62.548C88.0061 62.9052 88.1409 63.2481 88.3243 63.5653C88.3797 63.6669 88.6013 63.6746 88.7398 63.7361C89.2676 63.9731 90.0894 63.9393 90.2002 64.5995C90.354 65.486 90.2617 66.4202 90.2002 67.3298C90.1879 67.5145 89.8585 67.7222 89.6323 67.8346C89.2633 67.9951 88.8857 68.1354 88.5013 68.2547C87.9412 68.4625 87.7319 68.9796 87.9873 69.5306C88.052 69.6707 88.1228 69.8061 88.1874 69.9446C88.7937 71.2266 88.7845 71.3097 87.7842 72.3409C87.5183 72.6164 87.234 72.8735 86.9333 73.1104C86.7169 73.2503 86.4888 73.3713 86.2516 73.472ZM81.1489 73.472C81.3551 73.2735 81.5228 73.1812 81.5859 73.0411C81.7398 72.6917 81.8198 72.3085 81.986 71.9638C82.0968 71.7345 82.263 71.4667 82.4753 71.3651C83.5525 70.8526 84.6297 70.2786 85.773 71.2251C85.7799 71.2319 85.788 71.2373 85.797 71.241C85.806 71.2447 85.8156 71.2466 85.8253 71.2466C86.0054 71.2158 86.2439 71.2466 86.35 71.1327C86.4036 71.0585 86.4399 70.9734 86.4565 70.8834C86.473 70.7934 86.4692 70.7009 86.4455 70.6125C86.3497 70.3211 86.2217 70.0413 86.0638 69.7784C85.8192 69.3367 85.9099 68.9411 86.05 68.4671C86.3901 67.3113 87.0394 66.5726 88.2582 66.3663C88.369 66.3479 88.5244 66.0878 88.5105 65.9539C88.496 65.8624 88.4617 65.775 88.4102 65.698C88.3587 65.6209 88.2911 65.556 88.212 65.5076C87.8904 65.3429 87.518 65.2813 87.1933 65.1228C86.9625 65.012 86.6855 64.8566 86.5778 64.6457C86.0669 63.5776 85.4883 62.4911 86.4239 61.3476C86.4362 61.3327 86.4437 61.3145 86.4455 61.2953C86.4208 61.1136 86.4562 60.8581 86.3516 60.7704C86.269 60.7147 86.1756 60.6772 86.0774 60.6605C85.9792 60.6438 85.8786 60.6482 85.7822 60.6735C85.4375 60.7797 85.1313 61.0136 84.7866 61.109C84.5007 61.1945 84.1969 61.2003 83.908 61.1259C82.7585 60.772 81.7351 60.2564 81.5997 58.8605C81.5993 58.841 81.5916 58.8223 81.5782 58.8082C81.4474 58.7266 81.312 58.5804 81.1842 58.5881C81.0991 58.5932 81.0161 58.6169 80.9411 58.6576C80.8662 58.6983 80.801 58.755 80.7503 58.8236C80.5826 59.1652 80.5118 59.5546 80.3425 59.9009C80.2225 60.1456 80.0486 60.4288 79.8209 60.5426C78.7437 61.0813 77.6557 61.5738 76.5232 60.6612C76.5164 60.6542 76.5082 60.6488 76.4992 60.6451C76.4902 60.6414 76.4806 60.6395 76.4709 60.6396C76.3062 60.6658 76.0815 60.6396 75.9923 60.7396C75.9339 60.8106 75.8921 60.8937 75.87 60.9829C75.8479 61.0722 75.846 61.1652 75.8646 61.2552C75.98 61.6169 76.217 61.9401 76.3262 62.3048C76.4154 62.5898 76.4245 62.8939 76.3524 63.1836C76.0031 64.3364 75.4922 65.3567 74.0949 65.5245C73.9795 65.5384 73.8072 65.7846 73.8133 65.9154C73.8217 66.0085 73.8511 66.0984 73.8994 66.1784C73.9476 66.2584 74.0134 66.3264 74.0918 66.3771C74.4304 66.548 74.8274 66.6064 75.1613 66.7865C75.429 66.9204 75.6528 67.1281 75.8061 67.3852C76.3447 68.4502 76.7294 69.5398 75.8723 70.6464C75.7999 70.7403 75.8723 71.0527 75.9892 71.1558C76.0653 71.2071 76.1518 71.241 76.2425 71.2551C76.3332 71.2692 76.4259 71.2631 76.5139 71.2374C76.8571 71.1235 77.1633 70.8973 77.5096 70.7988C77.7935 70.7059 78.0977 70.6937 78.3882 70.7634C79.5331 71.1158 80.5733 71.6052 80.7318 73.0149C80.7426 73.1535 80.9596 73.2735 81.1489 73.4751V73.472Z" fill="#230D57"/>
<path d="M54.9328 46.4343L53.7433 45.4755C54.2619 45.003 54.6943 44.609 55.1283 44.2166C56.0192 45.0861 56.9748 45.9895 57.8981 46.9406C58.2721 47.3285 58.1905 47.8071 57.8227 48.1841C56.9394 49.0891 56.0377 49.9771 55.136 50.879C54.7236 50.4173 54.3312 49.9879 53.8233 49.4231L54.9005 48.7028C50.8134 48.0041 42.3976 49.363 36.5024 56.381L35.1006 55.2175C37.4889 52.3349 40.5243 50.0573 43.9595 48.5704C47.3829 47.0797 51.1081 46.4129 54.8359 46.6236L54.9328 46.4343Z" fill="#02C4EB"/>
<path d="M89.6246 36.4663C89.5015 37.0912 89.3938 37.6483 89.2738 38.2639L86.9301 37.8176C88.4967 41.1789 88.9306 44.6016 88.1535 48.1506C87.6415 50.4887 86.5932 52.6757 85.0913 54.5392L83.6863 53.4126C87.004 48.8879 87.5657 44.0707 85.3005 38.9334L84.8158 41.2296L83.02 40.8757C83.3401 39.2828 83.6355 37.7407 83.9679 36.2093C83.9867 36.098 84.0282 35.9917 84.0899 35.8971C84.1515 35.8026 84.232 35.7217 84.3263 35.6596C84.4206 35.5975 84.5266 35.5555 84.6379 35.5362C84.7491 35.517 84.8631 35.5208 84.9728 35.5475C86.4977 35.823 88.0166 36.1401 89.6246 36.4663Z" fill="#230D57"/>
<path d="M53.5206 60.4182C56.2104 60.4268 58.787 61.5022 60.685 63.4085C62.583 65.3149 63.6473 67.8964 63.6444 70.5866C63.633 73.2771 62.5548 75.8532 60.6464 77.7494C58.738 79.6457 56.1553 80.7072 53.4652 80.7011C50.7849 80.6853 48.2196 79.6104 46.3284 77.7109C44.4372 75.8113 43.3734 73.2411 43.369 70.5604C43.3731 67.8699 44.4443 65.291 46.3475 63.3895C48.2507 61.4881 50.8305 60.4194 53.5206 60.4182ZM53.5206 62.265C51.3276 62.265 49.2236 63.1319 47.667 64.6769C46.1104 66.2218 45.2276 68.3195 45.211 70.5127C45.2063 71.6042 45.4167 72.686 45.8301 73.6962C46.2435 74.7064 46.8518 75.6252 47.6203 76.4003C48.3888 77.1753 49.3024 77.7913 50.309 78.2132C51.3156 78.635 52.3954 78.8544 53.4867 78.8589C55.6802 78.8589 57.7847 77.9916 59.3414 76.446C60.898 74.9004 61.7805 72.8019 61.7963 70.6082C61.8053 68.4048 60.9391 66.288 59.3881 64.7232C57.8371 63.1585 55.7282 62.2737 53.5252 62.2635L53.5206 62.265Z" fill="#02C4EB"/>
<path d="M72.8721 40.137C74.0957 40.1419 75.2672 40.6323 76.1294 41.5007C76.9916 42.369 77.4738 43.5441 77.4701 44.7679C77.4615 45.9919 76.9674 47.1624 76.0962 48.0221C75.2251 48.8819 74.0482 49.3604 72.8244 49.3527C71.611 49.3397 70.4515 48.8495 69.5967 47.988C68.742 47.1265 68.2608 45.9631 68.2572 44.7494C68.2584 43.526 68.7451 42.353 69.6104 41.4882C70.4757 40.6233 71.6488 40.1374 72.8721 40.137ZM75.6266 44.7294C75.6209 44.0019 75.3294 43.3058 74.8148 42.7915C74.3003 42.2772 73.6042 41.9859 72.8767 41.9807C72.5123 41.9807 72.1515 42.0526 71.815 42.1923C71.4784 42.332 71.1727 42.5367 70.9154 42.7948C70.6581 43.0529 70.4542 43.3592 70.3155 43.6962C70.1767 44.0331 70.1058 44.3942 70.1069 44.7586C70.1121 45.4862 70.4033 46.1824 70.9175 46.697C71.4318 47.2116 72.1278 47.5033 72.8552 47.5089C73.5909 47.5069 74.2958 47.2131 74.8153 46.6921C75.3348 46.171 75.6266 45.4652 75.6266 44.7294Z" fill="#02C4EB"/>
<path d="M81.1207 69.6369C80.6357 69.6309 80.1566 69.5294 79.7108 69.3381C79.2651 69.1469 78.8613 68.8698 78.5227 68.5225C78.184 68.1752 77.917 67.7646 77.7371 67.3141C77.5571 66.8636 77.4676 66.3821 77.4737 65.897C77.4895 64.9176 77.8936 63.9846 78.5971 63.3032C79.3007 62.6218 80.2461 62.2478 81.2253 62.2634C82.1943 62.2832 83.1168 62.6831 83.7936 63.377C84.4704 64.0709 84.8473 65.0031 84.8431 65.9724C84.8392 66.4575 84.7399 66.9371 84.5508 67.3838C84.3616 67.8304 84.0864 68.2355 83.7407 68.5758C83.3951 68.916 82.9858 69.1849 82.5362 69.367C82.0867 69.549 81.6057 69.6407 81.1207 69.6369ZM81.1745 67.7901C81.6598 67.782 82.1226 67.5842 82.4637 67.239C82.8049 66.8937 82.9972 66.4286 82.9996 65.9432C82.9968 65.4574 82.8039 64.9921 82.4622 64.6468C82.1204 64.3016 81.6571 64.104 81.1715 64.0964C80.9269 64.0964 80.6847 64.1449 80.4591 64.2393C80.2334 64.3336 80.0287 64.4719 79.8569 64.646C79.6851 64.8201 79.5496 65.0266 79.4583 65.2535C79.367 65.4804 79.3216 65.7232 79.3249 65.9678C79.3333 66.4534 79.5317 66.9163 79.8775 67.2573C80.2233 67.5982 80.689 67.7901 81.1745 67.7916V67.7901Z" fill="#02C4EB"/>
</g>
<defs>
<clipPath id="clip0_191_1925">
<rect width="55.1804" height="55.1804" fill="white" transform="translate(35.0985 33.7529)"/>
</clipPath>
</defs>
</svg>
