<svg width="90" height="90" viewBox="0 0 90 90" fill="none" xmlns="http://www.w3.org/2000/svg">
<path d="M63.2015 8.39062H38.4069C37.4363 8.39062 36.6492 9.24437 36.6492 10.2976C36.6492 11.3508 37.4363 12.2045 38.4069 12.2045H63.2015C64.1721 12.2045 64.9592 11.3508 64.9592 10.2976C64.9592 9.24437 64.1721 8.39062 63.2015 8.39062Z" fill="#02C4EB"/>
<path d="M18.0083 8.39062C17.5458 8.39062 17.0925 8.59468 16.7655 8.94938C16.4386 9.30409 16.2505 9.7961 16.2505 10.2976C16.2505 10.8011 16.4384 11.2912 16.7655 11.6459C17.0925 12.0006 17.5458 12.2047 18.0083 12.2047C18.4706 12.2047 18.9241 12.0006 19.2509 11.6459C19.5779 11.2912 19.7661 10.7992 19.7661 10.2976C19.7661 9.7961 19.578 9.30409 19.2509 8.94938C18.9241 8.59468 18.4706 8.39062 18.0083 8.39062Z" fill="#02C4EB"/>
<path d="M9.47412 8.39062C9.01182 8.39062 8.5583 8.59468 8.23152 8.94938C7.90457 9.30409 7.71631 9.7961 7.71631 10.2976C7.71631 10.7992 7.9044 11.2912 8.23152 11.6459C8.5583 12.0006 9.01182 12.2047 9.47412 12.2047C9.93836 12.2047 10.3899 12.0006 10.7169 11.6459C11.0438 11.2912 11.2319 10.7992 11.2319 10.2976C11.2319 9.7961 11.044 9.30409 10.7169 8.94938C10.3899 8.59468 9.93836 8.39062 9.47412 8.39062Z" fill="#02C4EB"/>
<path d="M26.542 8.39062C26.0797 8.39062 25.6262 8.59468 25.2992 8.94938C24.9723 9.30409 24.7842 9.7961 24.7842 10.2976C24.7842 10.7992 24.9721 11.2912 25.2992 11.6459C25.6262 12.0006 26.0797 12.2047 26.542 12.2047C27.0043 12.2047 27.4578 12.0006 27.7846 11.6459C28.1115 11.2912 28.2998 10.7992 28.2998 10.2976C28.2998 9.7961 28.1117 9.30409 27.7846 8.94938C27.4578 8.59468 27.0043 8.39062 26.542 8.39062Z" fill="#02C4EB"/>
<path d="M88.0791 77.7142L76.4711 65.121C77.9147 62.0214 78.7295 58.521 78.7295 54.8175C78.7295 51.2586 77.9778 47.8865 76.6381 44.8781V1.90696C76.6381 0.853747 75.851 0 74.8803 0H1.75775C0.787122 0 0 0.853747 0 1.90696V71.3204C0 72.3734 0.787122 73.2273 1.75775 73.2273H12.785C13.7557 73.2273 14.5428 72.3734 14.5428 71.3204C14.5428 70.2673 13.7557 69.4134 12.785 69.4134H3.51551V20.5952H73.1226V39.2826C69.2592 34.7425 63.7307 31.8941 57.5995 31.8941C45.9486 31.8941 36.4697 42.1774 36.4697 54.8175C36.4697 60.3584 38.2913 65.4462 41.3186 69.4136H28.605C27.6344 69.4136 26.8472 70.2675 26.8472 71.3205C26.8472 72.3736 27.6344 73.2275 28.605 73.2275H45.024C48.5402 76.0618 52.8924 77.7411 57.5995 77.7411C60.9978 77.7411 64.2106 76.865 67.058 75.312L78.6757 87.9159C79.9569 89.3057 81.6415 90 83.3302 90C85.0347 90 86.7434 89.2927 88.0457 87.88C90.6384 85.0675 90.6532 80.5071 88.0791 77.7142ZM3.51551 16.7813V3.81392H73.1226V16.7813H3.51551ZM39.9852 54.8175C39.9852 44.2806 47.8868 35.708 57.5995 35.708C67.3121 35.708 75.214 44.2806 75.214 54.8175C75.214 65.3546 67.3121 73.9272 57.5995 73.9272C47.8868 73.9272 39.9852 65.3546 39.9852 54.8175ZM85.5601 85.183C84.3385 86.5085 82.3652 86.5249 81.1618 85.2189L70.1367 73.258C71.8248 71.9037 73.3212 70.2839 74.5727 68.4552L85.5931 80.411C86.7969 81.7167 86.7819 83.8575 85.5601 85.183Z" fill="#03045E"/>
<path d="M14.4136 59.879H26.9766C30.2721 59.879 32.953 56.9705 32.953 53.3953C32.953 49.8201 30.2721 46.9116 26.9766 46.9116H14.4136C11.1182 46.9116 8.43726 49.8201 8.43726 53.3953C8.43726 56.9705 11.1182 59.879 14.4136 59.879ZM14.4136 50.7255H26.9766C28.3336 50.7255 29.4375 51.9231 29.4375 53.3953C29.4375 54.8675 28.3336 56.065 26.9766 56.065H14.4136C13.0566 56.065 11.9528 54.8675 11.9528 53.3953C11.9528 51.9231 13.0566 50.7255 14.4136 50.7255Z" fill="#02C4EB"/>
<path d="M11.4221 41.5957H28.1828C29.1534 41.5957 29.9405 40.7419 29.9405 39.6887C29.9405 38.6355 29.1534 37.7817 28.1828 37.7817H11.4221C10.4514 37.7817 9.66431 38.6355 9.66431 39.6887C9.66431 40.7419 10.4514 41.5957 11.4221 41.5957Z" fill="#02C4EB"/>
<path d="M11.4221 32.4428H28.6052C29.5758 32.4428 30.3629 31.5891 30.3629 30.5359C30.3629 29.4827 29.5758 28.6289 28.6052 28.6289H11.4221C10.4514 28.6289 9.66431 29.4827 9.66431 30.5359C9.66431 31.5891 10.4514 32.4428 11.4221 32.4428Z" fill="#02C4EB"/>
<path d="M42.4791 32.4428C43.4497 32.4428 44.2368 31.5891 44.2368 30.5359C44.2368 29.4827 43.4497 28.6289 42.4791 28.6289H37.0861C36.1155 28.6289 35.3284 29.4827 35.3284 30.5359C35.3284 31.5891 36.1155 32.4428 37.0861 32.4428H42.4791Z" fill="#02C4EB"/>
<path d="M70.292 54.8177C70.292 53.7646 69.5049 52.9107 68.5343 52.9107H56.5953C55.843 50.2633 53.567 48.334 50.8831 48.334C47.5877 48.334 44.9067 51.2425 44.9067 54.8177C44.9067 58.3928 47.5877 61.3013 50.8831 61.3013C53.567 61.3013 55.843 59.372 56.5953 56.7246H59.7455V58.2877C59.7455 59.3408 60.5326 60.1947 61.5033 60.1947C62.4739 60.1947 63.261 59.3408 63.261 58.2877V56.7246H66.7765V57.394C66.7765 58.447 67.5637 59.3009 68.5343 59.3009C69.5049 59.3009 70.292 58.447 70.292 57.394V54.8177ZM50.8831 57.4874C49.5261 57.4874 48.4222 56.2898 48.4222 54.8177C48.4222 53.3455 49.5261 52.1479 50.8831 52.1479C52.2401 52.1479 53.344 53.3455 53.344 54.8177C53.344 56.2898 52.2401 57.4874 50.8831 57.4874Z" fill="#02C4EB"/>
<path d="M20.6938 69.4131C20.2315 69.4131 19.78 69.6169 19.4528 69.9718C19.1241 70.3264 18.936 70.8184 18.936 71.3201C18.936 71.8217 19.1241 72.3137 19.4528 72.6682C19.778 73.0229 20.2315 73.2271 20.6938 73.2271C21.1581 73.2271 21.6116 73.0231 21.9384 72.6682C22.2653 72.3137 22.4536 71.8217 22.4536 71.3201C22.4536 70.8184 22.2655 70.3264 21.9384 69.9718C21.6097 69.6169 21.1581 69.4131 20.6938 69.4131Z" fill="#02C4EB"/>
</svg>
