<svg width="36" height="46" viewBox="0 0 36 46" fill="none" xmlns="http://www.w3.org/2000/svg">
<path d="M26.9967 45.9984C26.0228 45.7049 25.3529 45.0171 24.7064 44.2808C23.521 42.9305 22.3104 41.597 21.1803 40.3423C20.1191 40.7264 19.1352 41.181 18.1025 41.441C12.6337 42.793 7.02042 38.7723 6.46967 33.175C6.28115 31.3496 6.60317 29.5078 7.3999 27.8544C7.49034 27.6517 7.53671 27.4321 7.53592 27.2102C7.546 25.7577 7.53592 24.3051 7.53592 22.8491C7.53592 22.1329 7.75418 21.9216 8.47956 21.9216H12.2575C13.1458 21.9216 13.265 22.0104 13.4329 22.8541C13.8863 22.7753 14.3363 22.6864 14.7913 22.6227C15.112 22.5807 15.065 22.3627 15.065 22.1581V16.7687C15.065 15.6717 15.191 15.5459 16.2673 15.5459H19.8202C20.7404 15.5459 20.91 15.7136 20.91 16.6546C20.91 18.9157 20.9184 21.1835 20.91 23.4379C20.8967 23.5832 20.927 23.7292 20.9969 23.8573C21.0669 23.9854 21.1734 24.0899 21.3029 24.1575C21.7311 24.4258 22.1206 24.7563 22.6042 25.1203V24.6171C22.6042 23.1197 22.6042 21.6224 22.6042 20.1251C22.6042 19.387 22.8342 19.1606 23.5764 19.1589C24.8962 19.1589 26.2159 19.1589 27.5357 19.1589C28.2275 19.1589 28.4542 19.3871 28.4542 20.0748C28.4542 25.3752 28.4542 30.6757 28.4542 35.9761C28.4542 36.6655 28.2325 36.8803 27.534 36.8836C26.5736 36.8836 25.6148 36.8836 24.6544 36.8937C24.4938 36.9288 24.3405 36.9912 24.201 37.0782C24.2623 37.2152 24.3419 37.3433 24.4378 37.459C25.8381 38.7237 27.2587 39.9666 28.6355 41.2498C29.0369 41.607 29.3717 42.0323 29.6245 42.5062C30.2827 43.8195 29.6346 45.3308 28.2544 45.8508C28.1301 45.8978 28.0059 45.9481 27.8833 45.9967L26.9967 45.9984ZM16.0137 40.3105C17.0917 40.308 18.1586 40.0935 19.1536 39.6792C20.1485 39.2648 21.052 38.6586 21.8124 37.8954C22.5729 37.1322 23.1754 36.2268 23.5855 35.2309C23.9956 34.2351 24.2054 33.1682 24.2027 32.0914C24.1947 29.9189 23.3236 27.8386 21.7808 26.3074C20.238 24.7763 18.1498 23.9198 15.9751 23.926C14.8977 23.9297 13.8317 24.1459 12.8382 24.5623C11.8447 24.9786 10.9433 25.5868 10.1858 26.352C9.42817 27.1172 8.8293 28.0244 8.42356 29.0214C8.01781 30.0184 7.81317 31.0856 7.82136 32.1618C7.82892 34.3268 8.69556 36.4003 10.2313 37.9279C11.767 39.4554 13.8465 40.3123 16.0137 40.3105ZM24.018 20.588C24.018 22.6562 24.018 24.6775 24.0264 26.697C24.0473 26.8583 24.1085 27.0117 24.2044 27.1432C25.5997 29.5233 25.9322 32.0461 25.2119 34.7098C25.1464 34.9597 25.0742 35.2129 25.002 35.4696H27.0404V20.588H24.018ZM19.5029 23.1141V16.9951H16.4939V22.4834L19.5029 23.1141ZM22.2835 39.4634C22.3068 39.5013 22.3332 39.5372 22.3624 39.5708C23.6906 41.0536 25.0171 42.538 26.357 44.0091C26.5411 44.2049 26.7596 44.3652 27.0018 44.4821C27.1865 44.5862 27.401 44.6251 27.6106 44.5926C27.8202 44.56 28.0126 44.4579 28.157 44.3026C28.5079 43.9671 28.6188 43.5545 28.3921 43.1284C28.236 42.8402 28.0328 42.5799 27.7909 42.3585C26.812 41.4561 25.813 40.5738 24.8206 39.6865L23.3379 38.363L22.2835 39.4634ZM11.873 23.3607H8.95644V25.4591L11.873 23.3607Z" fill="#2B0F64"/>
<path d="M26.5566 8.27281C27.7488 6.86718 28.9292 5.47497 30.1113 4.07941C30.2171 3.9536 30.3161 3.81942 30.432 3.70368C30.8282 3.30279 31.065 2.91195 30.9609 2.26449C30.8081 1.30168 31.4646 0.429483 32.3714 0.114139C32.8069 -0.0357663 33.2788 -0.0430865 33.7188 0.0932537C34.1587 0.229594 34.5437 0.502457 34.8178 0.872269C35.0966 1.2481 35.2449 1.70455 35.2403 2.17227C35.2358 2.63999 35.0786 3.09347 34.7926 3.46383C34.5091 3.83609 34.1109 4.10478 33.6593 4.22847C33.2078 4.35215 32.728 4.32393 32.2941 4.14816L31.9835 4.0274L28.726 7.86523C28.5329 8.09335 28.3499 8.33318 28.1434 8.54956C27.7471 8.96723 27.4902 9.35974 27.5909 10.0307C27.7186 10.8828 27.2383 11.5638 26.4525 11.9445C26.0921 12.139 25.6798 12.2157 25.2735 12.164C24.8672 12.1122 24.4874 11.9346 24.1874 11.656C23.8728 11.4066 23.6435 11.0658 23.5313 10.6805C23.4191 10.2953 23.4295 9.88477 23.5611 9.50569C23.6019 9.40582 23.6085 9.29526 23.58 9.19123C23.5514 9.0872 23.4893 8.99548 23.4033 8.93033C21.9973 7.5616 20.598 6.18675 19.2055 4.80572C19.139 4.7325 19.0541 4.67832 18.9597 4.64883C18.8652 4.61935 18.7646 4.61562 18.6682 4.63798C18.1866 4.69339 17.6996 4.67813 17.2225 4.59269C17.1298 4.56053 17.0298 4.55608 16.9346 4.57991C16.8395 4.60375 16.7534 4.65485 16.6869 4.72689C15.3654 6.01175 14.0322 7.28319 12.7191 8.58482C12.6578 8.65784 12.6126 8.74287 12.5862 8.83446C12.5599 8.92605 12.5531 9.02216 12.5663 9.11653C12.8199 10.341 12.1029 11.5219 10.9326 11.7601C10.6426 11.825 10.3422 11.8293 10.0505 11.7725C9.75882 11.7158 9.48205 11.5993 9.23767 11.4303C8.99329 11.2614 8.78662 11.0437 8.63068 10.7909C8.47473 10.5382 8.37291 10.2559 8.33163 9.96193C8.28449 9.72765 8.29426 9.48549 8.36016 9.25577C8.49449 8.87668 8.36017 8.67202 8.07472 8.43383C6.8792 7.41064 5.7038 6.36564 4.52675 5.32064C4.45438 5.24013 4.35797 5.18508 4.2518 5.16363C4.14564 5.14218 4.03538 5.15547 3.93738 5.20155C3.48713 5.37833 2.98971 5.39499 2.52863 5.24869C2.06755 5.10238 1.67093 4.80202 1.40532 4.39809C1.1403 4.00334 1.01311 3.53226 1.04347 3.05792C1.07383 2.58358 1.26004 2.13253 1.57323 1.77471C1.88882 1.41892 2.31289 1.17682 2.77996 1.08587C3.24704 0.994918 3.7311 1.06017 4.15735 1.2715C4.5928 1.48366 4.94241 1.83834 5.14801 2.27657C5.3536 2.7148 5.40278 3.21017 5.28739 3.68021C5.24609 3.80172 5.24626 3.93344 5.28788 4.05484C5.3295 4.17623 5.41025 4.28046 5.51745 4.35116C6.72976 5.40119 7.93368 6.45959 9.1292 7.5264C9.19982 7.61054 9.29717 7.66791 9.40505 7.68897C9.51292 7.71004 9.62479 7.69351 9.72193 7.64212C9.95597 7.53767 10.2094 7.48368 10.4658 7.48368C10.7221 7.48368 10.9756 7.53767 11.2096 7.64212C11.4665 7.75618 11.6109 7.69244 11.7922 7.51632C13.1019 6.24153 14.4178 4.97289 15.7398 3.7104C15.8265 3.64441 15.8902 3.55281 15.9218 3.44863C15.9535 3.34446 15.9515 3.23301 15.9161 3.13003C15.8025 2.70014 15.8271 2.24538 15.9865 1.83024C16.1459 1.4151 16.4321 1.06061 16.8044 0.816944C17.1754 0.570601 17.6137 0.445105 18.059 0.45772C18.5043 0.470335 18.9347 0.62043 19.2911 0.88738C19.6505 1.15024 19.9173 1.52002 20.0533 1.94368C20.1893 2.36734 20.1877 2.82314 20.0484 3.24576C20.002 3.34402 19.9903 3.4551 20.0153 3.56084C20.0404 3.66658 20.1005 3.7607 20.1861 3.8278C21.6049 5.20659 23.012 6.59712 24.4292 7.97424C24.5215 8.06482 24.7062 8.16545 24.7986 8.13022C25.0854 8.0305 25.3899 7.9917 25.6926 8.01625C25.9954 8.0408 26.2897 8.12818 26.5566 8.27281ZM11.2298 9.65664C11.2241 9.45356 11.1397 9.26062 10.9943 9.11854C10.8489 8.97646 10.654 8.89634 10.4506 8.89511C10.3501 8.89727 10.251 8.91938 10.159 8.96014C10.0671 9.0009 9.98423 9.0595 9.91517 9.13254C9.84612 9.20559 9.7923 9.29158 9.75682 9.38558C9.72133 9.47959 9.7049 9.5797 9.70848 9.6801C9.71196 9.87534 9.79136 10.0616 9.92989 10.1993C10.0684 10.3371 10.2552 10.4156 10.4506 10.4182C10.6539 10.4165 10.8486 10.3363 10.9938 10.1943C11.1391 10.0523 11.2237 9.85958 11.2298 9.65664ZM3.21036 2.43558C3.00721 2.43599 2.81234 2.51601 2.6676 2.6584C2.52286 2.80079 2.43979 2.99421 2.43627 3.19711C2.43481 3.3926 2.50951 3.58099 2.64456 3.72248C2.77961 3.86396 2.96443 3.94745 3.15998 3.95528C3.36264 3.96306 3.56022 3.8909 3.71007 3.75438C3.85993 3.61786 3.95004 3.42793 3.96091 3.22561C3.96284 3.02239 3.88562 2.82637 3.74557 2.67896C3.60552 2.53154 3.41362 2.44428 3.21036 2.43558ZM33.0749 2.91533C33.1755 2.91623 33.2754 2.89702 33.3685 2.85886C33.4616 2.82069 33.5461 2.76434 33.6172 2.69308C33.6882 2.62183 33.7442 2.53712 33.782 2.44394C33.8198 2.35075 33.8386 2.25097 33.8372 2.15044C33.8381 1.9548 33.7618 1.7667 33.6247 1.62696C33.4876 1.48722 33.301 1.40711 33.1051 1.40402C33.0046 1.39999 32.9042 1.41594 32.8098 1.45095C32.7154 1.48597 32.6289 1.53935 32.5554 1.608C32.4818 1.67665 32.4226 1.7592 32.3812 1.85088C32.3398 1.94256 32.3171 2.04152 32.3142 2.14204C32.3133 2.34509 32.3928 2.54027 32.5352 2.6851C32.6777 2.82992 32.8717 2.91267 33.0749 2.91533ZM17.9999 1.87537C17.8994 1.87351 17.7997 1.89203 17.7066 1.92983C17.6135 1.96764 17.5291 2.02392 17.4585 2.09528C17.3878 2.16664 17.3324 2.25157 17.2956 2.34496C17.2588 2.43834 17.2413 2.53822 17.2443 2.63854C17.2478 2.84155 17.3318 3.03491 17.4779 3.1761C17.624 3.3173 17.8202 3.39481 18.0234 3.39167C18.2188 3.38315 18.4034 3.30047 18.5398 3.1605C18.6762 3.02053 18.7539 2.83383 18.7572 2.63854C18.7599 2.53814 18.7423 2.43823 18.7053 2.34483C18.6683 2.25144 18.6127 2.16653 18.5419 2.0952C18.4711 2.02386 18.3866 1.96758 18.2934 1.92979C18.2003 1.89201 18.1004 1.87352 17.9999 1.87537ZM26.2175 10.1112C26.222 10.0218 26.2083 9.93235 26.1772 9.84837C26.1461 9.76439 26.0983 9.68759 26.0365 9.62265C25.9748 9.55771 25.9006 9.50599 25.8182 9.4706C25.7359 9.43521 25.6472 9.4169 25.5575 9.41679C25.3768 9.41133 25.2012 9.47731 25.0688 9.60041C24.9365 9.72352 24.8581 9.8938 24.8506 10.0743C24.8505 10.2553 24.9202 10.4294 25.0453 10.5604C25.1704 10.6913 25.3413 10.7689 25.5223 10.7771C25.7013 10.7794 25.8741 10.7118 26.004 10.5887C26.1338 10.4656 26.2105 10.2966 26.2175 10.1179V10.1112Z" fill="#2B0F64"/>
<path d="M36 23.4476V35.845C36 36.6954 35.817 36.8833 34.9825 36.885C33.6929 36.885 32.4034 36.885 31.1205 36.885C30.375 36.885 30.1567 36.6619 30.1567 35.9189V11.0335C30.1567 10.2871 30.3784 10.064 31.1155 10.064C32.4487 10.064 33.7831 10.064 35.1185 10.064C35.7734 10.064 36.005 10.3005 36.005 10.9614C36.0039 15.1235 36.0023 19.2856 36 23.4476ZM31.5907 11.4595V35.4626H34.6131V12.0634C34.6131 11.9577 34.6467 11.8336 34.603 11.7531C34.5409 11.639 34.4217 11.4747 34.3226 11.473C33.4293 11.4596 32.531 11.4595 31.5907 11.4595Z" fill="#2B0F64"/>
<path d="M5.85004 28.0756V35.8904C5.85004 36.667 5.63846 36.8818 4.86775 36.8834C3.56477 36.8834 2.26065 36.8834 0.955429 36.8834C0.208227 36.8834 0.00170898 36.6721 0.00170898 35.919C0.00170898 30.6632 0.00170898 25.4075 0.00170898 20.1517C0.00170898 19.4204 0.204884 19.2141 0.928578 19.2124C2.26179 19.2124 3.59557 19.2124 4.9299 19.2124C5.62001 19.2124 5.84836 19.4388 5.84836 20.1232C5.85172 22.7746 5.85228 25.4254 5.85004 28.0756ZM4.41608 35.4744V20.613H1.42054V35.4744H4.41608Z" fill="#2B0F64"/>
</svg>
