<svg width="49" height="43" viewBox="0 0 49 43" fill="none" xmlns="http://www.w3.org/2000/svg">
<path d="M48.9999 37.9041C48.9654 37.9942 48.9231 38.0817 48.895 38.1732C48.2558 40.3001 45.8623 40.9715 44.3204 39.4297C43.3142 38.4247 42.3617 37.3619 41.3619 36.3489C41.182 36.1742 40.9493 36.0717 40.7047 36.0596C36.5584 36.0381 32.4108 36.0381 28.2645 36.0341C28.1251 36.0341 27.9845 36.0489 27.7812 36.0596C27.9769 36.8238 28.1507 37.5503 28.3617 38.2633C28.3898 38.3602 28.6033 38.4436 28.7363 38.4543C29.1493 38.4866 29.5661 38.4543 29.979 38.492C31.7434 38.6521 33.0821 40.4091 32.8647 42.2589C32.8085 42.7392 32.5668 42.9733 32.049 42.9868C31.3803 43.0043 30.7104 42.9868 30.0404 42.9868L13.4373 42.9733C12.4541 42.9733 12.2483 42.7446 12.3096 41.7262C12.4183 39.9019 13.6291 38.6037 15.3577 38.4611L15.5955 38.4436C15.988 38.4167 16.4905 38.5337 16.7398 38.3212C16.9891 38.1086 17.0044 37.5637 17.1118 37.1615C17.2064 36.8117 17.287 36.4579 17.3931 36.026H15.6338C15.171 36.026 14.7082 36.0381 14.2466 36.0139C13.8413 35.9924 13.5997 35.7448 13.5728 35.313C13.546 34.8811 13.7915 34.5946 14.2223 34.5367C14.4127 34.5172 14.604 34.5105 14.7951 34.5165L38.9595 34.5287H39.6256C38.8789 33.7336 38.2192 33.0205 37.539 32.3236C37.4866 32.2712 37.3089 32.3156 37.2079 32.36C36.5264 32.66 36.0483 32.5752 35.5087 32.025C35.1533 31.6631 34.7915 31.3052 34.4642 30.9164C34.2455 30.6568 34.0806 30.6473 33.7789 30.8048C29.304 33.1927 24.7664 33.3017 20.2021 31.0738C18.7262 30.3493 17.3842 29.355 16.2386 28.137C16.1333 28.0153 16.0041 27.9192 15.8599 27.8556C15.7157 27.7919 15.56 27.7621 15.4037 27.7684C12.0386 27.7818 8.67348 27.7778 5.30325 27.7684C5.09616 27.7768 4.88879 27.7628 4.68442 27.7266C4.51518 27.7022 4.36192 27.6085 4.25782 27.466C4.15372 27.3235 4.10718 27.1436 4.12828 26.9652C4.12731 26.7944 4.18738 26.6295 4.29655 26.5032C4.40573 26.3768 4.55602 26.2983 4.71767 26.2831C4.89201 26.2613 5.0677 26.2537 5.24316 26.2602H14.5995C14.1968 25.5701 13.8516 24.9431 13.4629 24.3485C13.3951 24.2462 13.1432 24.2516 12.977 24.2503C10.408 24.2449 7.83987 24.2449 5.27256 24.2503C5.06569 24.259 4.85854 24.2432 4.65502 24.2032C4.49427 24.1756 4.3496 24.0846 4.25051 23.9485C4.15143 23.8125 4.10542 23.6418 4.12188 23.4713C4.11616 23.3006 4.1714 23.1339 4.2767 23.0039C4.38201 22.8739 4.52974 22.7901 4.69082 22.7691C4.8644 22.7432 5.03989 22.7342 5.21503 22.7422H12.7328C12.5167 22.0318 12.316 21.3726 12.1038 20.6717H11.5924C9.42312 20.6717 7.25388 20.6717 5.08462 20.6717C4.40955 20.6717 4.16536 20.4188 4.1628 19.7004C4.15683 17.8169 4.15683 15.937 4.1628 14.0607C4.1628 13.3773 4.41849 13.119 5.0667 13.119C7.25173 13.119 9.43675 13.1109 11.6218 13.119C11.9529 13.119 12.1153 13.0504 12.2176 12.6737C12.4605 11.7763 12.7763 10.9019 13.0755 9.98301H1.46251V34.5098H10.5286C11.2881 34.5098 11.6512 34.7695 11.6346 35.2928C11.618 35.796 11.2804 36.0193 10.5312 36.0193H1.58141C0.382137 36.0193 -0.00524902 35.6157 -0.00524902 34.3739V6.9291C-0.00524902 5.74656 0.402616 5.30396 1.50855 5.29992C3.02362 5.29992 4.53994 5.29992 6.05501 5.29992C6.1832 5.29686 6.31142 5.30404 6.43857 5.32144C6.84131 5.3887 7.07787 5.64298 7.0702 6.06945C7.06252 6.49592 6.82598 6.75287 6.41813 6.79592C6.1816 6.82013 5.93994 6.80938 5.70085 6.80938H1.46891V8.39285C1.62617 8.40092 1.79364 8.41975 1.95985 8.41975C5.80442 8.41975 9.64773 8.41973 13.491 8.44126C13.8362 8.44126 14.0459 8.33904 14.2211 8.02692C14.4384 7.64215 14.7082 7.29102 15.0253 6.81612H10.1438C9.98456 6.8209 9.82522 6.81413 9.66689 6.79592C9.25136 6.73538 8.96881 6.4125 9.00589 6.01966C9.00924 5.8317 9.08247 5.6526 9.20988 5.52081C9.33728 5.38901 9.5087 5.31502 9.68736 5.3147C9.83056 5.3026 9.97374 5.30662 10.1169 5.30662C12.0629 5.30662 14.0088 5.31741 15.9548 5.29319C16.2317 5.28049 16.4971 5.17275 16.7104 4.98645C19.4789 2.39401 23.0579 0.965478 26.7639 0.973668C30.4699 0.981857 34.0432 2.42621 36.8013 5.03086C36.9915 5.19638 37.2284 5.291 37.4751 5.29992C39.5323 5.3201 41.5907 5.31066 43.6479 5.31201C44.773 5.31201 45.1719 5.73579 45.1719 6.92641C45.1719 15.1491 45.1694 23.3722 45.1643 31.5958C45.1565 31.7677 45.1854 31.9392 45.2489 32.0977C45.3124 32.2563 45.4089 32.3978 45.5312 32.512C46.1999 33.1847 46.8328 33.8963 47.5014 34.569C48.1407 35.208 48.7288 35.8713 48.9999 36.7808V37.9041ZM43.7131 30.5478V10.0046H40.3263C40.403 10.2037 40.4707 10.353 40.5168 10.5091C40.8568 11.658 41.2263 12.7961 41.5153 13.9639C41.7084 14.7388 41.4846 15.1612 40.9898 15.2419C40.518 15.3186 40.2304 14.9904 40.1076 14.2316C38.8368 6.39097 31.3522 1.0971 23.9558 2.80836C16.7462 4.47658 12.1754 11.4831 13.2954 19.1447C14.4755 27.2168 22.2055 32.6882 29.7553 30.7954C35.5458 29.3424 39.7151 24.3162 40.2866 18.0967C40.3416 17.5075 40.6229 17.2061 41.0819 17.2465C41.5409 17.2868 41.7736 17.6393 41.7122 18.238C41.6547 18.8044 41.5843 19.3694 41.4782 19.9291C41.1676 21.5945 40.6037 23.1963 39.8084 24.6727C40.1792 25.0508 40.5295 25.4396 40.9118 25.792C41.6317 26.4566 41.9155 27.2033 41.3823 28.0872L43.7131 30.5478ZM38.512 31.1626C38.5529 31.2138 38.6066 31.2972 38.6718 31.3644C40.8556 33.6641 43.0397 35.9623 45.2243 38.2593C45.304 38.343 45.3895 38.4203 45.48 38.4907C45.7278 38.6773 46.029 38.7687 46.3332 38.7496C46.6374 38.7305 46.9262 38.6021 47.1511 38.3857C47.3769 38.1672 47.5216 37.8715 47.5595 37.5512C47.5974 37.231 47.5261 36.9069 47.3582 36.6368C47.2485 36.4721 47.123 36.3197 46.9836 36.1821C44.8689 33.9542 42.7525 31.7272 40.6344 29.5011C40.5385 29.3989 40.4298 29.3114 40.3455 29.2321L38.512 31.1626ZM5.63949 14.6729V19.1407H11.7458V14.6729H5.63949ZM13.8324 41.445H31.3484C31.1323 40.4508 30.4943 39.9732 29.3922 39.9651C24.8815 39.9589 20.3713 39.9548 15.8614 39.953C15.6385 39.9507 15.4157 39.9674 15.1953 40.0028C14.854 40.0648 14.5395 40.2369 14.2953 40.4953C14.0512 40.7537 13.8894 41.0856 13.8324 41.445ZM26.9042 38.414C26.7098 37.6687 26.5423 36.9893 26.3442 36.3206C26.3186 36.2521 26.2778 36.1912 26.225 36.1429C26.1722 36.0947 26.1091 36.0606 26.0411 36.0435C23.7491 36.0274 21.4567 36.0274 19.1639 36.0435C19.0949 36.0563 19.03 36.0867 18.9747 36.1319C18.9195 36.1772 18.8755 36.236 18.8468 36.3032C18.6435 36.9866 18.4735 37.6821 18.2817 38.4153L26.9042 38.414ZM36.5546 30.9393C37.7692 29.6679 38.9633 28.4181 40.0885 27.2383L39.0656 26.1405L35.5113 29.8751L36.5546 30.9393ZM43.7144 8.44934V6.88874H38.4724C38.6552 7.1578 38.8342 7.3327 38.9301 7.56141C39.2676 8.34439 39.8251 8.53543 40.6114 8.47624C41.624 8.39552 42.6596 8.45473 43.7029 8.45473L43.7144 8.44934Z" fill="#03045E"/>
<path d="M7.9922 29.8049C8.96261 29.8049 9.9343 29.8049 10.906 29.8049C11.489 29.8049 11.7946 30.0592 11.801 30.5288C11.8138 31.0185 11.4967 31.3077 10.8958 31.3104C8.93533 31.3175 6.97704 31.3175 5.02087 31.3104C4.29594 31.3104 3.87019 30.7252 4.22435 30.2072C4.31941 30.0938 4.43494 30.0014 4.56421 29.9354C4.69348 29.8693 4.83391 29.8309 4.97739 29.8225C5.98488 29.7781 6.98854 29.8049 7.9922 29.8049Z" fill="#03045E"/>
<path d="M26.6933 3.95996C33.678 3.98014 39.2869 10.2131 38.879 17.5478C38.484 24.662 32.7139 30.0769 25.9658 29.6168C24.9583 29.5469 23.9598 29.2643 22.9702 29.0195C22.3424 28.8634 22.1059 28.4558 22.253 27.9984C22.4051 27.5195 22.781 27.3916 23.4036 27.5881C26.9388 28.7114 30.2221 28.1625 33.1908 25.8526C36.6812 23.1364 38.2142 18.4425 37.1326 13.9894C36.6007 11.8503 35.4853 9.92185 33.9239 8.442C32.3626 6.96215 30.4237 5.99566 28.3465 5.6618C21.5779 4.58553 15.5611 10.3557 16.0098 17.5371C16.2208 20.8883 17.6182 23.6341 20.1203 25.7436C20.6931 26.2266 20.8402 26.6329 20.5576 27.0351C20.2572 27.4643 19.8276 27.4562 19.2381 26.9356C15.3297 23.4861 13.7289 19.0896 14.9205 13.871C16.1121 8.65248 19.4197 5.44653 24.4277 4.2734C25.1642 4.09044 25.9351 4.05817 26.6933 3.95996Z" fill="#03045E"/>
<path d="M32.6693 20.3044C32.2338 20.3023 31.8031 20.2096 31.4019 20.0316C31.0006 19.8537 30.6368 19.594 30.3313 19.2676C30.0257 18.9411 29.7846 18.5543 29.6217 18.1294C29.4588 17.7044 29.3774 17.2499 29.3822 16.7917C29.3942 15.8745 29.7482 14.999 30.3678 14.3538C30.9874 13.7086 31.8231 13.3454 32.6948 13.3423C33.13 13.3437 33.5606 13.4353 33.9621 13.6118C34.3636 13.7884 34.728 14.0465 35.0347 14.3713C35.3414 14.6961 35.5842 15.0814 35.7494 15.505C35.9146 15.9286 35.9988 16.3823 35.9973 16.8402C35.9987 17.2987 35.9133 17.7529 35.7461 18.1763C35.5789 18.5998 35.3332 18.9839 35.0235 19.3064C34.7137 19.6289 34.3459 19.8832 33.9418 20.0545C33.5376 20.2259 33.105 20.3108 32.6693 20.3044ZM34.5615 16.8146C34.5603 16.5546 34.5103 16.2975 34.4143 16.0579C34.3183 15.8184 34.1782 15.6012 34.0021 15.4189C33.8259 15.2366 33.6173 15.0927 33.3881 14.9956C33.1589 14.8985 32.9138 14.8501 32.6667 14.8531C32.176 14.8636 31.7084 15.0748 31.3633 15.442C31.0181 15.8092 30.8225 16.3035 30.8179 16.82C30.8166 17.0798 30.8643 17.3373 30.9582 17.5775C31.0521 17.8178 31.1905 18.0361 31.3652 18.2196C31.5399 18.4032 31.7475 18.5485 31.976 18.647C32.2044 18.7455 32.4492 18.7953 32.6961 18.7936C32.9431 18.7963 33.1881 18.7469 33.4166 18.6482C33.6451 18.5495 33.8525 18.4036 34.0264 18.2191C34.2003 18.0345 34.3373 17.8151 34.4293 17.5739C34.5212 17.3326 34.5661 17.0744 34.5615 16.8146Z" fill="#03045E"/>
<path d="M20.151 20.3056C19.7431 20.311 19.3383 20.2305 18.9604 20.0687C18.5825 19.907 18.2392 19.6674 17.9507 19.3639C17.6093 19.0128 17.5799 18.5567 17.8573 18.2459C18.1348 17.9351 18.5465 17.9069 18.9147 18.2593C19.3443 18.6629 19.8391 18.889 20.4004 18.7558C20.5242 18.7198 20.6395 18.6571 20.739 18.5716C20.8385 18.4862 20.92 18.3798 20.9783 18.2593C21.0256 18.141 20.7699 17.7939 20.5806 17.6916C20.1165 17.4387 19.6077 17.28 19.1257 17.0607C18.301 16.684 17.9046 16.0826 17.9417 15.301C17.9633 14.8781 18.1107 14.4731 18.3631 14.1433C18.6155 13.8135 18.9601 13.5756 19.3481 13.4632C20.3288 13.1619 21.2084 13.435 22.0011 14.0606C22.0782 14.1145 22.1441 14.1844 22.1945 14.2661C22.245 14.3478 22.2789 14.4395 22.2944 14.5356C22.3099 14.6316 22.3065 14.73 22.2844 14.8246C22.2623 14.9193 22.222 15.0081 22.166 15.0857C21.9487 15.4153 21.5664 15.4893 21.1918 15.2889C20.9193 15.1191 20.6288 14.9837 20.3262 14.8853C20.0921 14.8532 19.8541 14.8862 19.6358 14.9808C19.5751 15.0152 19.5231 15.0645 19.4842 15.1244C19.4453 15.1843 19.4205 15.2532 19.412 15.3252C19.412 15.4301 19.5399 15.5808 19.6499 15.6359C19.9644 15.7947 20.2968 15.9144 20.6228 16.0503C20.7417 16.1001 20.8606 16.1459 20.9783 16.197C22.0855 16.6799 22.6237 17.5558 22.4268 18.5513C22.2146 19.6087 21.2953 20.3231 20.151 20.3056Z" fill="#03045E"/>
<path d="M25.6449 14.877V16.0703C26.0284 16.0703 26.412 16.0623 26.7866 16.0703C27.298 16.0838 27.6241 16.3879 27.6215 16.8345C27.619 17.2812 27.3044 17.5664 26.7764 17.5771C26.4146 17.5839 26.0515 17.5771 25.6577 17.5771V18.7758C26.0834 18.7758 26.5079 18.7691 26.9362 18.7758C27.4642 18.7852 27.7698 19.0637 27.7749 19.5238C27.78 19.9839 27.477 20.2759 26.9528 20.2826C26.2995 20.2907 25.6462 20.292 24.9928 20.2826C24.4584 20.2745 24.2001 20.0135 24.1976 19.4458C24.1882 17.7022 24.1882 15.9582 24.1976 14.2138C24.1976 13.6447 24.4533 13.381 24.9903 13.3676C25.6594 13.3514 26.3285 13.3514 26.9976 13.3676C27.4975 13.3797 27.7762 13.673 27.7737 14.1263C27.7711 14.5797 27.4937 14.8447 26.9848 14.869C26.7611 14.8797 26.5386 14.869 26.3148 14.869L25.6449 14.877Z" fill="#03045E"/>
</svg>
