<svg width="90" height="90" viewBox="0 0 90 90" fill="none" xmlns="http://www.w3.org/2000/svg">
<path d="M87.2754 75.7148H84.1757V27.5272C84.1757 23.589 80.9715 20.3848 77.0331 20.3848H72.5273V17.0961C76.645 16.4598 79.8077 12.8918 79.8077 8.59869C79.8077 3.85734 75.9502 0 71.209 0C66.9159 0 63.3479 3.16266 62.7115 7.28033H20.2472C18.7174 7.28033 17.4728 8.52486 17.4728 10.0547V20.3848H12.9669C9.02848 20.3848 5.82434 23.589 5.82434 27.5272V31.9753C5.82434 32.7036 6.41443 33.2937 7.14269 33.2937C7.87096 33.2937 8.46105 32.7036 8.46105 31.9753V27.5272C8.46105 25.0427 10.4824 23.0215 12.9669 23.0215H17.4727V26.2092H12.9667C12.2384 26.2092 11.6483 26.7993 11.6483 27.5275V75.715H8.46105V37.2487C8.46105 36.5205 7.87096 35.9304 7.14269 35.9304C6.41443 35.9304 5.82434 36.5205 5.82434 37.2487V75.715H2.72461C1.22221 75.715 0 76.9372 0 78.4396V83.0566C0 86.8852 3.11484 90 6.94336 90H83.0566C86.8852 90 90 86.8852 90 83.0566V78.4394C90 76.937 88.7778 75.7148 87.2754 75.7148ZM77.0331 23.0215C79.5176 23.0215 81.5389 25.0427 81.5389 27.5272V75.715H78.3519V27.5275C78.3519 26.7993 77.7616 26.2092 77.0335 26.2092H72.5273V23.0215H77.0331ZM71.209 2.63672C74.4964 2.63672 77.171 5.31123 77.171 8.59869C77.171 11.886 74.4964 14.5605 71.209 14.5605C67.9217 14.5605 65.2472 11.886 65.2472 8.59869C65.2472 5.31123 67.9215 2.63672 71.209 2.63672ZM20.1094 10.0547C20.1094 9.97875 20.1712 9.91705 20.247 9.91705H62.7114C63.2812 13.6048 66.2026 16.5263 69.8904 17.0961V66.8408C69.8904 66.9168 69.8286 66.9785 69.7528 66.9785H20.2472C20.1712 66.9785 20.1096 66.9166 20.1096 66.8408L20.1094 10.0547ZM14.285 28.8459H17.4727V66.8408C17.4727 68.3706 18.7172 69.6152 20.247 69.6152H69.7528C71.2826 69.6152 72.5272 68.3706 72.5272 66.8408V28.8459H75.7151V75.715H14.285V28.8459ZM37.582 78.3515H52.418V81.4013C52.418 81.4772 52.3561 81.5389 52.2803 81.5389H37.7197C37.6437 81.5389 37.582 81.4771 37.582 81.4013V78.3515ZM23.2968 87.3633H14.2852V84.1757H23.297L23.2968 87.3633ZM87.3633 83.0566C87.3633 85.4314 85.4314 87.3633 83.0566 87.3633H25.9335V82.8573C25.9335 82.129 25.3434 81.5389 24.6152 81.5389H12.9669C12.2386 81.5389 11.6485 82.129 11.6485 82.8573V87.3633H6.94336C4.56855 87.3633 2.63672 85.4314 2.63672 83.0566V78.4394C2.63672 78.3911 2.67627 78.3515 2.72461 78.3515H34.9453V81.4013C34.9453 82.9311 36.1898 84.1757 37.7197 84.1757H52.2803C53.8102 84.1757 55.0547 82.9311 55.0547 81.4013V78.3515H87.2754C87.3237 78.3515 87.3633 78.3911 87.3633 78.4394V83.0566Z" fill="#03045E"/>
<path d="M31.8459 37.5821H58.1544C59.6568 37.5821 60.879 36.3599 60.879 34.8575V17.2852C60.879 15.7828 59.6568 14.5605 58.1544 14.5605H31.8459C30.3435 14.5605 29.1213 15.7828 29.1213 17.2852V34.8575C29.1213 36.3599 30.3435 37.5821 31.8459 37.5821ZM31.7581 17.2852C31.7581 17.2368 31.7976 17.1973 31.8459 17.1973H58.1544C58.2028 17.1973 58.2423 17.2368 58.2423 17.2852V34.8575C58.2423 34.9058 58.2028 34.9454 58.1544 34.9454H31.8459C31.7976 34.9454 31.7581 34.9058 31.7581 34.8575V17.2852Z" fill="#03045E"/>
<path d="M41.3945 31.5607C41.6064 31.6915 41.8467 31.7576 42.0876 31.7576C42.2891 31.7576 42.4912 31.7113 42.6774 31.6183L51.4135 27.25C51.8602 27.0268 52.1423 26.5703 52.1423 26.0709C52.1423 25.5715 51.8602 25.115 51.4135 24.8917L42.6774 20.5236C42.2687 20.3191 41.7834 20.3409 41.3945 20.5812C41.0059 20.8213 40.7693 21.2457 40.7693 21.7027V30.439C40.7695 30.8962 41.0059 31.3206 41.3945 31.5607ZM43.4062 23.836L47.8761 26.0709L43.4062 28.3059V23.836Z" fill="#02C4EB"/>
<path d="M30.4397 49.2304H45.0002C45.7284 49.2304 46.3185 48.6403 46.3185 47.9121V42.0879C46.3185 41.3596 45.7284 40.7695 45.0002 40.7695H30.4397C29.7114 40.7695 29.1213 41.3596 29.1213 42.0879V47.9121C29.1213 48.6403 29.7114 49.2304 30.4397 49.2304ZM31.7581 43.4064H43.6818V46.5939H31.7581V43.4064Z" fill="#02C4EB"/>
<path d="M30.4397 55.0547H59.5607C60.2889 55.0547 60.879 54.4646 60.879 53.7363C60.879 53.0081 60.2889 52.418 59.5607 52.418H30.4397C29.7114 52.418 29.1213 53.0081 29.1213 53.7363C29.1213 54.4646 29.7114 55.0547 30.4397 55.0547Z" fill="#02C4EB"/>
<path d="M30.4397 60.8789H59.5607C60.2889 60.8789 60.879 60.2888 60.879 59.5605C60.879 58.8323 60.2889 58.2422 59.5607 58.2422H30.4397C29.7114 58.2422 29.1213 58.8323 29.1213 59.5605C29.1213 60.2888 29.7114 60.8789 30.4397 60.8789Z" fill="#02C4EB"/>
<path d="M69.7529 7.73291H69.8906V10.7827C69.8906 11.511 70.4807 12.1011 71.2089 12.1011C71.9372 12.1011 72.5273 11.511 72.5273 10.7827V6.41455C72.5273 5.68629 71.9372 5.09619 71.2089 5.09619H69.7529C69.0247 5.09619 68.4346 5.68629 68.4346 6.41455C68.4346 7.14281 69.0248 7.73291 69.7529 7.73291Z" fill="#02C4EB"/>
</svg>
