<svg width="42" height="45" viewBox="0 0 42 45" fill="none" xmlns="http://www.w3.org/2000/svg">
<path d="M31.3115 -0.00018192C31.4282 0.146578 31.5812 0.276904 31.6407 0.443622C31.8146 0.937909 31.4808 1.31713 30.8854 1.31713C27.9573 1.31713 25.0304 1.31713 22.1036 1.31713C21.7981 1.31369 21.4929 1.33804 21.1918 1.38991C20.3881 1.52777 19.6574 1.94331 19.1257 2.56484C18.594 3.18638 18.2945 3.97497 18.2789 4.79473C18.2474 7.28377 18.2626 9.774 18.2789 12.263C18.2937 12.444 18.3773 12.6122 18.5124 12.7327C19.5387 13.5991 20.0302 14.6992 20.0302 16.0412C20.0302 18.326 20.0301 20.6107 20.022 22.8943C20.022 23.2043 20.0944 23.4109 20.4002 23.4813C20.9361 23.5988 21.4755 23.7807 22.0149 23.7878C24.5331 23.8206 27.0537 23.8019 29.5731 23.803C30.3086 23.803 30.5012 24.0003 30.5071 24.7423C30.5071 25.4585 30.5071 26.1747 30.5071 26.9895C30.6892 26.8591 30.8118 26.777 30.9297 26.6866C32.04 25.833 33.1549 24.9865 34.2547 24.1189C34.524 23.8945 34.8675 23.7805 35.2167 23.7995C35.7841 23.8171 36.3527 23.7995 36.9201 23.7995C39.1453 23.7901 40.677 22.2568 40.6794 20.0119C40.6864 15.7947 40.6864 11.5774 40.6794 7.3601C40.6794 6.56994 40.6875 5.77862 40.6794 4.98847C40.6525 2.85634 39.1137 1.32887 36.9866 1.31478C36.4764 1.31478 35.9674 1.30891 35.4572 1.31478C35.0964 1.32065 34.7346 1.32653 34.5793 0.912078C34.4357 0.529329 34.6131 0.239325 34.8968 -0.00488281H37.6987C38.0735 0.103132 38.4564 0.188846 38.8207 0.323864C39.7388 0.657113 40.5339 1.26413 41.0999 2.06385C41.6658 2.86358 41.9757 3.81792 41.9881 4.79943C42.0083 9.97006 42.0083 15.1407 41.9881 20.3113C41.9741 22.9154 39.8925 24.9783 37.2458 25.111C37.1441 25.1209 37.0416 25.1209 36.9399 25.111C35.6557 24.9055 34.6294 25.3458 33.6639 26.2099C32.6459 27.1233 31.503 27.8959 30.4184 28.7353C30.1627 28.9338 29.9117 29.0817 29.5813 28.9173C29.2509 28.753 29.196 28.4794 29.1995 28.1483C29.2089 27.1562 29.1995 26.1629 29.1995 25.1591C26.1337 24.9431 23.0843 25.401 20.0547 24.8574V28.1671H20.5415C22.2308 28.1671 23.9202 28.1671 25.6107 28.1671C27.6619 28.1671 28.8983 29.4186 28.9065 31.4803C28.9065 32.3883 28.9065 33.2962 28.9065 34.2042C28.9065 34.8217 28.6999 35.0812 28.2387 35.0742C27.7776 35.0671 27.5989 34.8194 27.5966 34.2241C27.5966 33.2849 27.5966 32.3456 27.5966 31.4122C27.5884 30.1642 26.9171 29.4891 25.6691 29.4867C22.959 29.4813 20.2493 29.4813 17.5399 29.4867C16.2931 29.4867 15.6276 30.1642 15.6253 31.4204C15.6206 34.131 15.6206 36.8411 15.6253 39.5509C15.6253 40.7966 16.3117 41.4776 17.5469 41.4788C18.9479 41.4788 20.3489 41.4788 21.7428 41.4788C22.4854 41.4788 22.6768 41.6678 22.6768 42.4075C22.6768 42.5648 22.6768 42.7233 22.6768 42.9945C23.2022 42.5918 23.6715 42.2607 24.107 41.8885C24.4572 41.5868 24.8332 41.4189 25.3013 41.4776C25.5193 41.4952 25.7383 41.4952 25.9563 41.4776C26.3606 41.4627 26.7461 41.3017 27.042 41.0242C27.3379 40.7466 27.5244 40.3712 27.5674 39.9665C27.6106 39.531 27.5826 39.0883 27.6013 38.6504C27.6211 38.1808 27.8464 37.946 28.2644 37.9565C28.6613 37.9624 28.9042 38.1914 28.8983 38.6328C28.889 39.2739 28.9158 39.9348 28.7734 40.5512C28.6259 41.1933 28.2639 41.7651 27.7478 42.1711C27.2317 42.5771 26.5928 42.7927 25.9376 42.782C25.6514 42.7678 25.3651 42.8107 25.0954 42.9082C24.8257 43.0057 24.5779 43.156 24.3661 43.3502C23.7964 43.8492 23.173 44.2895 22.5752 44.7591C22.3336 44.9482 22.0884 45.082 21.7744 44.9317C21.4603 44.7814 21.3599 44.5079 21.3646 44.1744C21.3716 43.7365 21.3646 43.2997 21.3646 42.8055H20.2543C19.3203 42.8055 18.3863 42.8055 17.4524 42.8055C15.6101 42.7972 14.3247 41.5234 14.3107 39.6543C14.292 37.4129 14.3107 35.1716 14.3107 32.9303V32.3538C13.8845 32.679 13.5436 32.9409 13.2039 33.2015C12.5116 33.7369 11.8181 34.2711 11.1305 34.8135C10.883 35.0084 10.6285 35.1129 10.3249 34.9661C10.0214 34.8194 9.94429 34.5552 9.94779 34.2382C9.95479 33.495 9.94779 32.7507 9.94779 31.9535H9.38275C7.64904 31.9535 5.91536 31.9629 4.18166 31.9535C2.04284 31.9394 0.437548 30.6432 0.0569507 28.6332C0.0153066 28.3877 -0.00423052 28.139 -0.00142315 27.89C-0.00609306 25.7368 -0.00609306 23.5843 -0.00142315 21.4326C-0.00142315 20.916 0.17135 20.6882 0.568292 20.6518C1.02711 20.6095 1.30147 20.8796 1.30498 21.4103C1.31315 22.3906 1.30498 23.3721 1.30498 24.3537C1.30498 25.482 1.30498 26.6103 1.30498 27.7374C1.31081 29.4985 2.40707 30.6256 4.16296 30.6373C6.18737 30.6491 8.21177 30.6373 10.2338 30.6373C11.0931 30.6373 11.2519 30.7994 11.253 31.667V33.0043C11.4212 32.8927 11.5298 32.8305 11.6267 32.7554C12.1816 32.328 12.735 31.8975 13.2868 31.4639C13.8542 31.0224 14.3737 30.6033 14.6656 29.8542C15.0695 28.8187 15.9802 28.2774 17.1021 28.1964C17.6193 28.1589 18.1423 28.1906 18.7085 28.1906V27.6035C18.7085 23.7956 18.7085 19.9873 18.7085 16.1786C18.7085 14.2895 17.6041 13.1858 15.714 13.1858C11.8975 13.1858 8.08103 13.2187 4.26454 13.1706C2.57404 13.1483 1.18008 14.3963 1.29916 16.1563C1.32251 16.5085 1.30967 16.8607 1.29916 17.2129C1.28632 17.7037 1.04815 17.955 0.623189 17.9467C0.198227 17.9385 -0.0119624 17.7119 -0.0049575 17.2235C0.00671727 16.5085 -0.0364429 15.7771 0.0908121 15.0808C0.256398 14.1854 0.72711 13.376 1.42195 12.7919C2.1168 12.2078 2.99231 11.8854 3.89794 11.8803C7.97594 11.8568 12.0551 11.8709 16.1343 11.8803C16.3783 11.8803 16.6235 11.9261 16.9212 11.9566C16.9294 11.791 16.9434 11.6396 16.9434 11.487C16.9434 9.4065 16.9434 7.32644 16.9434 5.24676C16.9434 2.47007 18.4295 0.637322 21.1334 0.067895C21.1745 0.0525668 21.2137 0.0324707 21.2501 0.00801598L31.3115 -0.00018192Z" fill="#2B0F64"/>
<path d="M10.3964 24.2447H8.86697C8.74088 24.9926 8.61714 25.724 8.49455 26.4555C8.40699 26.9826 8.11046 27.2421 7.689 27.1599C7.29907 27.0836 7.11695 26.742 7.19984 26.2301C7.30608 25.582 7.41581 24.9386 7.53606 24.2212C6.92197 24.2212 6.34174 24.2482 5.76734 24.2083C5.53385 24.1907 5.23496 24.0909 5.08669 23.9218C4.74346 23.5309 5.03997 22.9462 5.58635 22.9168C6.18176 22.8851 6.77952 22.8922 7.3761 22.9086C7.66447 22.9168 7.79172 22.8335 7.81624 22.5282C7.84776 22.1384 7.93301 21.7533 8.0124 21.2872H6.28684C6.06852 21.2872 5.84905 21.2942 5.6319 21.2872C5.21744 21.2637 4.95826 21.0066 4.9606 20.6332C4.96293 20.2599 5.22679 19.9887 5.63891 19.9793C6.33939 19.9628 7.03988 19.9793 7.74037 19.9793H8.23888L8.58913 17.9164C8.60664 17.8154 8.61711 17.7133 8.64163 17.6135C8.74553 17.1897 9.00709 16.9901 9.38418 17.0406C9.76128 17.091 9.96788 17.3752 9.92118 17.8049C9.86164 18.3121 9.7659 18.8158 9.68768 19.3218C9.65616 19.5226 9.62816 19.7233 9.58963 19.9781C10.0683 19.9781 10.5166 19.9957 10.9626 19.9629C11.0537 19.9558 11.1833 19.7668 11.2066 19.6435C11.3362 18.9836 11.4296 18.318 11.5568 17.6558C11.6432 17.1861 11.9444 16.9678 12.346 17.0488C12.7173 17.1239 12.9088 17.4468 12.8375 17.8906C12.7371 18.5258 12.6321 19.1609 12.5317 19.7961C12.5301 19.8574 12.5336 19.9186 12.5422 19.9793C13.1481 19.9793 13.7563 19.9793 14.3646 19.9793C14.6845 19.9793 14.9799 20.1131 15.0254 20.4337C15.0397 20.6836 14.9666 20.9307 14.8188 21.1322C14.737 21.2496 14.4825 21.2837 14.3039 21.2884C13.6501 21.3048 12.9963 21.2884 12.2889 21.2884L12.011 22.9051H14.0401C14.7767 22.9051 15.0663 23.0882 15.0721 23.5532C15.0779 24.0181 14.7768 24.2224 14.0588 24.2236H12.4278C11.7868 24.2236 11.7833 24.2236 11.6736 24.8517C11.5744 25.427 11.4915 26.007 11.3841 26.5823C11.3035 27.0155 10.9941 27.2351 10.6088 27.1634C10.2411 27.0942 10.0344 26.7572 10.1033 26.3263C10.206 25.6771 10.3135 25.0278 10.4174 24.3785C10.4158 24.3332 10.4087 24.2883 10.3964 24.2447ZM9.10047 22.8687H10.6766L10.9311 21.2884C10.4396 21.2884 9.9971 21.279 9.54528 21.2989C9.49503 21.3116 9.44871 21.3367 9.41058 21.372C9.37245 21.4073 9.3437 21.4516 9.32695 21.5009C9.23472 21.9423 9.17402 22.3873 9.10047 22.8687Z" fill="#2B0F64"/>
<path d="M17.8473 34.6131C17.8532 32.7088 20.0913 31.7953 21.4432 32.771C21.4887 32.796 21.5394 32.8101 21.5912 32.8121C21.6431 32.8142 21.6947 32.8041 21.742 32.7827C22.7297 32.2028 23.6672 32.299 24.5358 33.0093C25.3227 33.6516 25.5761 34.8033 25.2258 35.9046C24.9987 36.6071 24.554 37.2181 23.9568 37.6481C23.3232 38.1121 22.6628 38.5379 21.9791 38.9232C21.8723 38.9771 21.7551 39.0068 21.6356 39.0103C21.5162 39.0137 21.3976 38.9908 21.2879 38.9431C20.4952 38.4594 19.6955 37.971 18.9775 37.3863C18.2244 36.7723 17.838 35.9199 17.8473 34.6131ZM24.0595 34.9454C24.0595 34.3689 23.7746 33.9357 23.3018 33.7842C22.829 33.6328 22.5441 33.7654 22.1705 34.2715C21.8331 34.7294 21.3533 34.7035 21.0031 34.1881C20.7637 33.8359 20.4602 33.6668 20.0399 33.7373C19.8428 33.7636 19.6585 33.8505 19.5122 33.986C19.366 34.1215 19.2649 34.2991 19.2227 34.4946C19.0417 35.1427 19.1794 35.759 19.6546 36.1958C20.2068 36.703 20.8524 37.1104 21.4677 37.546C21.5158 37.5699 21.5688 37.5818 21.6225 37.5808C21.6761 37.5798 21.7287 37.5658 21.7759 37.5401C22.3503 37.1433 22.9364 36.7594 23.4687 36.312C23.6636 36.1451 23.8181 35.9356 23.9205 35.6997C24.0229 35.4637 24.0704 35.2073 24.0595 34.9501V34.9454Z" fill="#2B0F64"/>
<path d="M26.7505 10.7112C27.3669 9.99852 28.0347 9.26471 28.6581 8.49334C29.1152 7.91536 29.3792 7.20698 29.4123 6.46923C29.4146 6.22085 29.4507 5.97395 29.5197 5.73544C29.5991 5.48882 29.7505 5.27196 29.9541 5.11303C30.1578 4.9541 30.4042 4.86047 30.6615 4.84433C30.9171 4.80798 31.1776 4.85267 31.4067 4.9722C31.6358 5.09173 31.8222 5.28014 31.9399 5.5112C32.6999 6.87782 32.819 8.30667 32.3135 9.78835C32.2528 9.96564 32.1862 10.1406 32.1022 10.3754H35.1003C36.3483 10.3754 37.0091 11.0423 37.0102 12.2997C37.0102 14.3062 37.0102 16.3127 37.0102 18.318C37.0102 19.3136 36.367 20.0662 35.3851 20.0791C33.1727 20.112 30.958 20.1167 28.7468 20.0486C28.0708 20.0287 27.4042 19.734 26.7505 19.5684C26.4469 19.6389 26.1165 19.7739 25.7826 19.7833C24.7786 19.8126 23.7734 19.7962 22.7682 19.7927C22.1552 19.7927 21.9416 19.5884 21.9404 18.9884C21.9404 16.4258 21.9404 13.8632 21.9404 11.3006C21.9404 10.7394 22.1529 10.5186 22.6993 10.5139C23.792 10.5046 24.8848 10.501 25.9764 10.5139C26.204 10.5222 26.4341 10.629 26.7505 10.7112ZM30.7875 6.16282C30.7599 6.26149 30.7389 6.3619 30.7246 6.46339C30.6638 7.79831 30.1069 8.90897 29.2231 9.88346C28.4689 10.7171 27.7272 11.5628 26.9979 12.4206C26.8686 12.57 26.7908 12.7574 26.7761 12.9548C26.759 14.4788 26.759 16.0024 26.7761 17.5255C26.7958 17.7176 26.8871 17.8951 27.0318 18.0222C27.6286 18.5275 28.3883 18.7964 29.1683 18.7783C31.1507 18.783 33.1323 18.783 35.1131 18.7783C35.5999 18.7783 35.6968 18.6726 35.6968 18.1771C35.6968 16.2148 35.6968 14.2522 35.6968 12.2891C35.6968 11.7632 35.6198 11.6927 35.0746 11.6903C33.8067 11.6903 32.5388 11.6904 31.2721 11.6822C30.5611 11.6822 30.2914 11.2689 30.5506 10.6149C30.7549 10.0995 30.993 9.59346 31.1518 9.06395C31.4449 8.08947 31.3258 7.14787 30.7875 6.16282ZM23.2667 18.4413H25.4218V11.8665H23.2667V18.4413Z" fill="#2B0F64"/>
</svg>
