<svg width="45" height="44" viewBox="0 0 45 44" fill="none" xmlns="http://www.w3.org/2000/svg">
<rect x="0.364746" width="44.0962" height="43.9329" rx="6" fill="white"/>
<g clip-path="url(#clip0_146_120)">
<g clip-path="url(#clip1_146_120)">
<path d="M25.5968 30.9999V32.0014C25.7421 32.0014 25.8824 32.0014 26.0218 32.0014C26.3667 32.0123 26.5847 32.2051 26.588 32.4972C26.5913 32.7893 26.3734 32.9905 26.0327 32.998C25.8983 32.998 25.7638 32.998 25.5901 32.998V34.2232C25.5901 34.8784 25.4732 34.9936 24.8044 34.9986H24.5655C24.0336 36.3916 23.2161 37.0242 22.0061 36.9992C20.8922 36.9733 20.0388 36.2655 19.6255 34.9961H19.2079C18.762 34.9961 18.5925 34.82 18.59 34.3659C18.5875 33.9119 18.59 33.4745 18.59 33.0088C18.1767 32.9596 17.6381 33.1332 17.598 32.4813C17.5771 32.1333 17.8084 32.024 18.5666 31.9806V30.9915C18.4188 30.9915 18.2668 30.9974 18.1157 30.9915C17.7976 30.9757 17.5562 30.7879 17.603 30.4907C17.7007 29.8731 17.3909 29.5668 16.93 29.2213C13.5706 26.704 12.6078 22.0101 14.667 18.3552C14.682 18.3277 14.6987 18.3018 14.7146 18.2718C14.9158 17.9279 15.1814 17.8253 15.4569 17.9847C15.7325 18.1441 15.7592 18.402 15.5981 18.7459C15.381 19.2057 15.1613 19.6639 14.9826 20.1422C14.8687 20.4769 14.7816 20.8202 14.7221 21.1688C14.6712 21.4192 14.657 21.6829 14.6236 21.9675H16.5943C16.5467 21.3524 16.6126 20.7723 17.1228 20.3483C17.4029 20.1097 17.7622 19.9847 18.1299 19.9978C19.0418 20.0178 19.4743 20.5904 19.6138 21.9967H21.5895V19.7274C21.5895 19.134 21.7289 18.9971 22.3276 18.9962C22.5781 18.9962 22.8287 19.0038 23.0792 18.9962C23.3781 18.9837 23.5802 18.7817 23.5894 18.5113C23.5961 18.2275 23.3865 18.0105 23.0717 18.0022C22.7702 17.9922 22.4671 18.0022 22.1656 17.998C21.779 17.9913 21.5953 17.8077 21.5928 17.4138C21.5878 16.7369 21.5928 16.0592 21.5928 15.3823V15.0484C20.868 15.0661 20.1522 15.2122 19.4785 15.48C19.1117 15.6263 18.7527 15.7915 18.403 15.9749C18.0197 16.1677 17.7458 16.1418 17.5863 15.863C17.4193 15.5734 17.5337 15.3122 17.927 15.0877C20.8354 13.4268 24.5413 13.6772 27.2243 15.7162C31.842 19.2216 31.68 26.2108 26.8961 29.4875C26.6565 29.6544 26.5496 29.8172 26.593 30.0926C26.5963 30.134 26.5963 30.1756 26.593 30.217C26.593 30.8655 26.4744 30.9873 25.8415 30.9949C25.7655 31.0007 25.6945 30.9999 25.5968 30.9999ZM14.6336 23.0025C14.6453 23.1802 14.6436 23.3163 14.6637 23.449C15.0044 25.7359 16.1158 27.5387 18.0606 28.804C18.4339 29.046 18.6618 29.2964 18.5917 29.7546C18.5895 29.833 18.5965 29.9115 18.6126 29.9883H21.5711V28.0019C21.3891 28.0019 21.2246 28.0019 21.06 28.0019C20.6653 27.9931 20.2899 27.8295 20.0149 27.5464C19.7399 27.2632 19.5874 26.8833 19.5904 26.4887C19.595 26.0994 19.7507 25.7272 20.0245 25.4504C20.2984 25.1736 20.669 25.0138 21.0584 25.0047C21.2304 24.9997 21.4032 25.0047 21.5744 25.0047V23.0016H21.2571C20.5699 23.0016 19.8826 23.0016 19.1962 23.0016C18.7695 23.0016 18.5942 22.8205 18.59 22.3907C18.59 22.0994 18.5967 21.8064 18.5858 21.5168C18.575 21.2272 18.3746 21.016 18.104 21.0044C17.8209 20.996 17.603 21.2055 17.5921 21.5177C17.5813 21.7881 17.5921 22.0593 17.5921 22.3297C17.5921 22.8397 17.4301 22.9974 16.9241 23.0025H14.6336ZM27.6051 23.0183C27.5216 24.3412 27.0807 24.9488 26.1855 24.9997C25.8182 25.0234 25.4553 24.9094 25.1676 24.6801C24.6206 24.2569 24.5505 23.6568 24.5939 23.0233H22.5898C22.5898 23.8229 22.5898 24.6016 22.5898 25.3812C22.5898 25.8268 22.4128 25.9988 21.9627 26.0021C21.6922 26.0021 21.4216 25.9979 21.1511 26.0021C20.8079 26.0096 20.5924 26.2074 20.5933 26.5029C20.5941 26.7983 20.8104 26.9937 21.1536 27.0037C21.445 27.0095 21.7381 27.0037 22.0279 27.0037C22.3978 27.0112 22.5832 27.1948 22.589 27.5637C22.5957 27.9902 22.589 28.4175 22.589 28.844V29.9783H25.5784C25.6219 29.1637 25.6219 29.1637 26.2957 28.6996C27.51 27.876 28.4532 26.7114 29.0063 25.3528C29.3232 24.6121 29.5042 23.8205 29.5407 23.0158L27.6051 23.0183ZM22.5974 22.0009H22.893C23.5802 22.0009 24.2674 22.0009 24.9547 22.0009C25.4198 22.0009 25.5876 22.1745 25.5901 22.6461C25.5901 22.9173 25.5851 23.1877 25.5901 23.4582C25.5985 23.7812 25.7947 23.9915 26.077 23.9982C26.3592 24.0048 26.578 23.7853 26.5863 23.449C26.593 23.2195 26.5863 22.9908 26.5863 22.7613C26.5863 22.1269 26.7141 22.0009 27.3562 22.0009H29.5357C29.3687 18.2501 26.1446 15.1828 22.5857 15.0551V17.0006C22.7844 17.0006 22.9489 16.9965 23.1134 17.0006C23.5029 17.0088 23.8741 17.1679 24.1485 17.4442C24.423 17.7206 24.5794 18.0927 24.5847 18.4821C24.5884 18.8763 24.4369 19.2561 24.1629 19.5397C23.8889 19.8232 23.5143 19.9877 23.1201 19.9978C22.9481 20.0036 22.776 19.9978 22.5974 19.9978V22.0009ZM24.5789 31.0257H19.6079V31.9831H24.5806L24.5789 31.0257ZM24.5789 33.023H19.6146V33.9853H24.5756L24.5789 33.023ZM20.7027 35.0211C20.8092 35.3222 21.0111 35.5803 21.2776 35.7564C21.5442 35.9325 21.8609 36.0169 22.1798 35.9968C22.7752 35.9634 23.3138 35.5553 23.4558 35.0169L20.7027 35.0211Z" fill="#2B0F64"/>
<path d="M22.5899 10.0006C22.5899 10.4697 22.5899 10.9387 22.5899 11.407C22.5899 11.7734 22.3903 11.9979 22.0889 11.9954C21.7874 11.9929 21.5945 11.77 21.5937 11.4011C21.5904 10.463 21.5904 9.52543 21.5937 8.58842C21.5937 8.22202 21.7916 7.99834 22.0947 8.00001C22.3978 8.00168 22.5874 8.22619 22.5907 8.5951C22.5924 9.06416 22.5899 9.53239 22.5899 10.0006Z" fill="#2B0F64"/>
<path d="M9.57324 23.0024C9.10395 23.0024 8.63549 23.0024 8.16704 23.0024C7.8063 23.0024 7.58251 22.7921 7.59003 22.4891C7.59754 22.1862 7.81549 22.0009 8.16787 22.0009C9.11425 21.9975 10.0623 21.9975 11.012 22.0009C11.3727 22.0009 11.5965 22.2104 11.589 22.5142C11.5815 22.818 11.3636 22.9949 11.0137 22.9983C10.5319 23.0024 10.0526 23.0024 9.57324 23.0024Z" fill="#2B0F64"/>
<path d="M34.5919 22.0009C35.0603 22.0009 35.5296 22.0009 35.9981 22.0009C36.3655 22.0009 36.5893 22.197 36.5893 22.5017C36.5893 22.8063 36.3647 23.0024 35.9973 23.0024C35.0603 23.0024 34.1229 23.0024 33.1849 23.0024C32.8174 23.0024 32.5936 22.8063 32.5945 22.5017C32.5953 22.197 32.8158 22.0067 33.1857 22.0009C33.6541 21.9959 34.1234 22.0009 34.5919 22.0009Z" fill="#2B0F64"/>
<path d="M9.89228 14.9458C10.0273 14.9946 10.1596 15.0503 10.2889 15.1127C11.1 15.5756 11.9092 16.0416 12.7164 16.5107C13.0454 16.7018 13.1448 16.9965 12.9828 17.2619C12.8208 17.5273 12.5469 17.5673 12.2204 17.3804C11.4009 16.9108 10.5834 16.4378 9.76786 15.9615C9.53572 15.828 9.38541 15.6277 9.4948 15.3723C9.56996 15.1995 9.76369 15.0785 9.89228 14.9458Z" fill="#2B0F64"/>
<path d="M12.6187 27.4568C12.7448 27.5637 12.9486 27.6547 12.9945 27.7974C13.0454 27.9543 12.9719 28.1654 12.911 28.3382C12.8826 28.4175 12.7548 28.4659 12.6655 28.5177C11.8755 28.975 11.0856 29.4358 10.2923 29.8848C9.97166 30.0684 9.68858 30.01 9.53577 29.7471C9.38296 29.4842 9.47398 29.2087 9.79463 29.0226C10.6113 28.548 11.4294 28.0764 12.2488 27.6079C12.3691 27.5504 12.4926 27.5 12.6187 27.4568Z" fill="#2B0F64"/>
<path d="M29.6459 10.3036C29.5624 10.4997 29.524 10.6191 29.463 10.7209C29.0054 11.5233 28.5442 12.3231 28.0793 13.1205C27.8881 13.4501 27.595 13.5511 27.332 13.3909C27.0689 13.2306 27.0239 12.9552 27.2109 12.6297C27.6858 11.8012 28.1634 10.9746 28.6438 10.15C28.7724 9.928 28.9778 9.79613 29.215 9.89963C29.3878 9.98225 29.5098 10.1717 29.6459 10.3036Z" fill="#2B0F64"/>
<path d="M31.5364 17.5523C31.4103 17.4196 31.2358 17.3019 31.1556 17.135C31.0496 16.9155 31.1556 16.7018 31.3602 16.5741C31.741 16.3421 32.1301 16.1234 32.5168 15.8998C32.966 15.6402 33.4144 15.3798 33.8653 15.1236C34.2069 14.9291 34.4924 14.9792 34.6478 15.2538C34.8031 15.5284 34.702 15.7929 34.3563 15.9941C33.5575 16.4581 32.757 16.9188 31.9548 17.3762C31.8186 17.4424 31.679 17.5012 31.5364 17.5523Z" fill="#2B0F64"/>
<path d="M34.7171 29.4007C34.7037 29.9015 34.3054 30.1151 33.9413 29.914C33.3785 29.6027 32.8257 29.273 32.2713 28.9508C31.984 28.7839 31.6934 28.6228 31.4103 28.4501C31.1273 28.2773 31.0479 28.0102 31.1824 27.7598C31.3227 27.5011 31.6149 27.426 31.908 27.5929C32.7431 28.0695 33.5856 28.5477 34.4131 29.046C34.5618 29.1353 34.6528 29.3231 34.7171 29.4007Z" fill="#2B0F64"/>
<path d="M15.1822 9.87289C15.2565 9.93048 15.4419 10.0114 15.5263 10.1525C16.0348 10.9963 16.5283 11.8518 17.011 12.709C17.0474 12.766 17.0715 12.83 17.0819 12.8968C17.0922 12.9637 17.0886 13.0319 17.0712 13.0973C17.0537 13.1627 17.0229 13.2237 16.9806 13.2765C16.9384 13.3294 16.8856 13.3728 16.8256 13.4042C16.7686 13.4351 16.7062 13.4545 16.6417 13.4612C16.5773 13.4678 16.5122 13.4618 16.4501 13.4432C16.388 13.4247 16.3302 13.3941 16.28 13.3531C16.2298 13.3122 16.1882 13.2618 16.1576 13.2047C15.6524 12.3459 15.1505 11.4854 14.6653 10.6174C14.4691 10.2752 14.7021 9.88625 15.1822 9.87289Z" fill="#2B0F64"/>
<path d="M15.9404 16.7953C15.9455 16.7305 15.9636 16.6674 15.9935 16.6098C16.0235 16.5521 16.0647 16.5011 16.1148 16.4597C16.1649 16.4182 16.2228 16.3873 16.2851 16.3687C16.3474 16.3501 16.4127 16.3442 16.4774 16.3513C16.5423 16.356 16.6056 16.3739 16.6634 16.4037C16.7213 16.4335 16.7725 16.4748 16.814 16.5249C16.8555 16.575 16.8864 16.633 16.9049 16.6954C16.9234 16.7578 16.9291 16.8233 16.9216 16.888C16.9168 16.9527 16.899 17.0159 16.8692 17.0736C16.8394 17.1314 16.7982 17.1825 16.7481 17.2239C16.6981 17.2653 16.6401 17.2961 16.5778 17.3146C16.5155 17.333 16.4501 17.3386 16.3855 17.3311C16.3207 17.3263 16.2575 17.3084 16.1997 17.2786C16.1419 17.2488 16.0907 17.2076 16.0492 17.1576C16.0077 17.1076 15.9766 17.0498 15.9579 16.9875C15.9392 16.9253 15.9333 16.8599 15.9404 16.7953Z" fill="#2B0F64"/>
</g>
</g>
<defs>
<clipPath id="clip0_146_120">
<rect width="29.942" height="29.8311" fill="white" transform="translate(8 7.32797)"/>
</clipPath>
<clipPath id="clip1_146_120">
<rect width="29" height="29" fill="white" transform="translate(7.59009 8)"/>
</clipPath>
</defs>
</svg>
