<svg width="45" height="44" viewBox="0 0 45 44" fill="none" xmlns="http://www.w3.org/2000/svg">
<rect x="0.364868" width="44.0962" height="43.9329" rx="6" fill="white"/>
<g clip-path="url(#clip0_146_5)">
<path d="M16.2104 41C16.0438 40.8074 15.8907 40.6037 15.7522 40.3904C15.0038 39.0511 14.2684 37.705 13.513 36.333C12.5755 36.6641 11.652 36.9883 10.7295 37.3164C10.1552 37.5193 9.58122 37.7254 9.00758 37.9349C8.71543 38.042 8.42728 38.1203 8.17114 37.8665C7.915 37.6128 7.99004 37.3382 8.1031 37.0428C9.47716 33.4788 10.8489 29.9144 12.2183 26.3498C12.3294 26.0633 12.3033 25.9215 12.0402 25.7193C10.8606 24.8172 10.3663 23.6079 10.6565 22.1507C10.8836 21.0107 10.6124 20.1076 9.72096 19.3285C9.3377 18.9936 9.03074 18.5817 8.82048 18.1203C8.61023 17.6588 8.50149 17.1583 8.50149 16.652C8.50149 16.1457 8.61023 15.6452 8.82048 15.1837C9.03074 14.7223 9.3377 14.3104 9.72096 13.9755C10.6114 13.1954 10.8976 12.2903 10.6555 11.1543C10.2132 9.07856 11.743 7.04345 13.8822 6.84916C15.0188 6.75003 15.8062 6.21473 16.2905 5.1828C17.256 3.12489 19.6303 2.39332 21.6273 3.5224C22.5678 4.05373 23.4883 4.05175 24.4288 3.5224C26.4549 2.38738 28.7961 3.12588 29.7837 5.20759C30.2509 6.19887 31.0083 6.72227 32.0989 6.83627C34.3691 7.0722 35.8309 9.00719 35.3906 11.2188C35.1715 12.3181 35.4527 13.1954 36.3081 13.9408C36.6971 14.2737 37.0097 14.6851 37.2249 15.1476C37.4401 15.61 37.5529 16.1127 37.5558 16.6219C37.5586 17.1312 37.4514 17.6351 37.2414 18.0999C37.0314 18.5646 36.7234 18.9795 36.3382 19.3166C35.4487 20.0987 35.1725 21.0018 35.3987 22.1378C35.6908 23.6069 35.1845 24.8143 33.9919 25.7292C33.7558 25.9086 33.7228 26.0405 33.8238 26.3012C35.1886 29.8288 36.5469 33.3588 37.899 36.8911C37.934 36.9833 38.0061 37.0785 37.999 37.1677C37.98 37.3977 37.9991 37.701 37.865 37.8338C37.7309 37.9667 37.3937 38.0162 37.1966 37.9518C36.025 37.5672 34.8694 37.1399 33.7078 36.7275C33.3336 36.5937 32.9584 36.4619 32.5581 36.3201C32.4861 36.4411 32.4141 36.5531 32.349 36.6701C31.6687 37.9062 30.9933 39.1483 30.3039 40.3775C30.1661 40.5913 30.0129 40.795 29.8457 40.9871H29.3935C29.2464 40.768 29.0513 40.5668 28.9582 40.3259C27.6715 37.0084 26.3929 33.6876 25.1222 30.3635C25.0742 30.2406 25.0221 30.0711 24.9221 30.0235C24.4528 29.8004 23.9826 29.5546 23.4833 29.4287C22.816 29.2542 22.1946 29.4763 21.5823 29.7786C21.1681 29.9818 20.952 30.2584 20.7939 30.6708C19.5746 33.8951 18.3406 37.1138 17.0919 40.3269C16.9989 40.5678 16.8037 40.769 16.6557 40.9881L16.2104 41ZM34.2961 10.504C34.2711 10.3058 34.2651 10.1283 34.226 9.9618C34.1203 9.45499 33.8534 8.99512 33.4644 8.6497C33.0754 8.30429 32.5849 8.09153 32.0649 8.04267C30.456 7.88307 29.3344 7.09995 28.6551 5.63781C28.0257 4.28172 26.4539 3.80888 25.1032 4.51567C24.8224 4.67546 24.5286 4.81142 24.2247 4.9221C23.0921 5.28887 22.0235 5.12035 20.987 4.54343C19.6333 3.79104 18.0384 4.26884 17.4051 5.63384C16.7197 7.11086 15.5841 7.88505 13.9612 8.04763C13.6186 8.08428 13.2877 8.19212 12.99 8.36411C12.6923 8.5361 12.4346 8.76837 12.2336 9.04574C12.0327 9.32312 11.8931 9.63937 11.8239 9.97383C11.7547 10.3083 11.7575 10.6535 11.8321 10.9868C12.1663 12.5163 11.7501 13.7812 10.5644 14.8211C9.4088 15.8342 9.4138 17.4867 10.5754 18.5037C11.737 19.5208 12.1543 20.7916 11.8451 22.3083C11.7746 22.6584 11.7746 23.0189 11.8451 23.369C12.0832 24.4861 12.9007 25.1394 14.2344 25.3099C15.6951 25.4953 16.7187 26.2477 17.336 27.5631C18.0364 29.0441 19.5902 29.5457 21.032 28.7526C22.3647 28.0151 23.6784 28.0221 25.0211 28.7427C25.3923 28.9439 25.8007 29.0686 26.2218 29.1095C27.3124 29.2017 28.2328 28.6139 28.7161 27.569C29.2504 26.4132 30.1258 25.6737 31.3765 25.3882C31.6767 25.3178 31.9958 25.3129 32.3 25.2494C32.622 25.1845 32.9276 25.0567 33.1992 24.8734C33.4707 24.6901 33.7027 24.4551 33.8815 24.182C34.0603 23.909 34.1825 23.6033 34.2408 23.283C34.2991 22.9626 34.2924 22.634 34.221 22.3162C33.8979 20.8174 34.2891 19.5594 35.4517 18.5374C35.6488 18.3668 35.8214 18.1704 35.965 17.9536C36.6403 16.9058 36.4172 15.6399 35.4167 14.7507C34.3301 13.7878 33.9212 12.5983 34.19 11.1821C34.233 10.9432 34.2631 10.7102 34.2961 10.504ZM19.6673 30.3298L19.4031 30.305C17.9964 30.1454 16.9128 29.4793 16.3255 28.1916C15.7582 26.9475 14.7927 26.4449 13.46 26.44C12.1893 29.7509 10.9186 33.0618 9.62091 36.445C9.84603 36.3697 9.9751 36.329 10.1032 36.2844C11.2168 35.8879 12.3294 35.4914 13.4449 35.0949C13.9242 34.9254 14.1453 35.0116 14.3965 35.4587C14.8707 36.3142 15.339 37.1726 15.8112 38.0291C15.9753 38.3265 16.1414 38.6239 16.3415 38.9877L19.6673 30.3298ZM32.5892 26.4152C32.4091 26.434 32.273 26.4509 32.1369 26.4618C31.0143 26.552 30.2239 27.0962 29.7697 28.1252C29.6586 28.3736 29.5193 28.6088 29.3544 28.826C28.626 29.7875 27.6245 30.2455 26.3909 30.3238C27.4914 33.1986 28.592 36.0584 29.7116 38.9688C29.8047 38.8122 29.8677 38.7111 29.9257 38.607C30.4994 37.5662 31.0724 36.525 31.6447 35.4835C31.9168 34.9878 32.1159 34.9145 32.6452 35.1028C33.7718 35.4993 34.8977 35.8995 36.023 36.3033C36.1341 36.3429 36.2481 36.3717 36.4302 36.4252L32.5892 26.4152Z" fill="#2B0F64"/>
<path d="M14.0382 16.653C14.0386 14.8903 14.5669 13.1673 15.5562 11.7021C16.5454 10.237 17.9512 9.09559 19.5956 8.42243C21.2399 7.74927 23.0489 7.5746 24.7935 7.92054C26.5381 8.26649 28.1398 9.11748 29.396 10.3658C30.6522 11.6141 31.5063 13.2037 31.8502 14.9332C32.1941 16.6627 32.0124 18.4544 31.328 20.0815C30.6436 21.7086 29.4874 23.098 28.0056 24.0737C26.5238 25.0494 24.7832 25.5676 23.004 25.5627C18.0684 25.5657 14.0362 21.5579 14.0382 16.653ZM15.2388 16.6897C15.2278 20.9007 18.7337 24.3613 23.024 24.3751C27.2873 24.389 30.8092 20.9205 30.8202 16.6986C30.8312 12.4618 27.3673 8.95963 23.1461 8.9398C18.7427 8.91899 15.2489 12.3389 15.2378 16.6897H15.2388Z" fill="#2B0F64"/>
<path d="M19.5452 20.633C19.6912 19.7855 19.8533 18.9102 19.9844 18.0309C19.9929 17.946 19.9842 17.8602 19.9587 17.7787C19.9333 17.6971 19.8917 17.6215 19.8363 17.5561C19.254 16.9613 18.6497 16.3893 18.0444 15.8174C17.8182 15.6032 17.6832 15.3693 17.7962 15.06C17.9093 14.7507 18.1724 14.6962 18.4556 14.6566C19.271 14.5436 20.0864 14.4355 20.8969 14.2967C20.9807 14.2774 21.0597 14.2417 21.1293 14.1917C21.1989 14.1416 21.2576 14.0782 21.3021 14.0053C21.6873 13.2856 22.0465 12.5521 22.4027 11.8185C22.5308 11.5538 22.7028 11.3546 23.014 11.3486C23.3452 11.3427 23.5233 11.5518 23.6574 11.8284C24.0145 12.562 24.3747 13.2955 24.7579 14.0162C24.7992 14.084 24.8538 14.143 24.9184 14.1896C24.983 14.2362 25.0563 14.2696 25.1341 14.2878C25.9566 14.4286 26.785 14.5406 27.6115 14.6576C27.8956 14.6982 28.1587 14.7696 28.2628 15.0719C28.3669 15.3743 28.2278 15.6151 28.0037 15.8273C27.4033 16.3903 26.825 16.9682 26.2267 17.5293C26.1507 17.5896 26.0941 17.6707 26.0639 17.7624C26.0337 17.8541 26.0312 17.9526 26.0566 18.0458C26.2167 18.8705 26.3678 19.6982 26.4738 20.5309C26.4889 20.7664 26.4147 20.999 26.2657 21.1832C26.0776 21.4062 25.7965 21.3359 25.5444 21.203C24.819 20.8184 24.0836 20.4536 23.3632 20.0591C23.2677 19.9946 23.1552 19.9595 23.0397 19.9581C22.9242 19.9567 22.8109 19.9891 22.7138 20.0511C21.9725 20.4576 21.2191 20.8442 20.4626 21.2219C19.9794 21.4647 19.5111 21.1703 19.5452 20.633ZM20.9369 19.6368C21.5062 19.3394 22.0375 19.0817 22.5588 18.7902C22.7003 18.7004 22.8649 18.6527 23.033 18.6527C23.2011 18.6527 23.3657 18.7004 23.5073 18.7902C24.0226 19.0767 24.5528 19.3354 25.1231 19.6298C25.0231 19.0351 24.951 18.4958 24.823 17.9694C24.7109 17.5035 24.838 17.1764 25.1932 16.8562C25.5934 16.4984 25.9466 16.083 26.3298 15.6816C25.9066 15.6171 25.4773 15.4992 25.0471 15.4972C24.2877 15.4972 23.8625 15.1334 23.6163 14.4504C23.4743 14.0539 23.2451 13.691 23.025 13.2529C22.7148 13.8754 22.4417 14.4157 22.1766 14.9589C22.1233 15.0841 22.0365 15.1924 21.9256 15.2722C21.8147 15.3521 21.6838 15.4004 21.5472 15.4119C20.9329 15.4883 20.3226 15.5913 19.7533 15.6776C20.1705 16.1207 20.5787 16.5697 21.0019 17C21.2171 17.22 21.3201 17.446 21.2551 17.7642C21.136 18.3699 21.048 18.9806 20.9369 19.6368Z" fill="#2B0F64"/>
</g>
<defs>
<clipPath id="clip0_146_5">
<rect width="30" height="38" fill="white" transform="translate(8 3)"/>
</clipPath>
</defs>
</svg>
