<svg width="45" height="44" viewBox="0 0 45 44" fill="none" xmlns="http://www.w3.org/2000/svg">
<rect x="0.364746" width="44.0962" height="43.9329" rx="6" fill="white"/>
<g clip-path="url(#clip0_146_108)">
<path d="M30.8597 37H10.4361C10.1064 36.8358 10.0029 36.559 10.0037 36.1943C10.0081 27.8599 10.0103 19.5255 10.0103 11.191C10.0063 10.9268 10.0296 10.6628 10.0798 10.4035C10.3873 8.94264 11.5678 8.00228 13.0853 8.00228C19.431 8.00228 25.7771 8.00228 32.1237 8.00228C32.4645 8.00228 32.806 7.99698 33.1475 8.00682C34.5896 8.0507 35.8322 9.1991 35.9512 10.6675C36.0199 11.5209 35.9859 12.3833 35.9918 13.2397C35.9955 13.8328 35.7871 14.0454 35.2135 14.0462H31.2869V18.2275C31.6144 17.6609 31.8923 17.1631 32.1865 16.6751C32.4586 16.2129 32.8942 15.8757 33.4029 15.7337C33.9115 15.5917 34.4541 15.6557 34.9178 15.9125C35.9763 16.4905 36.3171 17.7925 35.688 18.9091C34.2658 21.4329 32.8341 23.9514 31.4156 26.4744C31.3221 26.6436 31.2713 26.8339 31.2677 27.0282C31.2589 30.077 31.2589 33.1258 31.2677 36.1746C31.264 36.5446 31.1702 36.8192 30.8597 37ZM30.6875 9.20516H30.3674C24.6121 9.20516 18.8569 9.20516 13.1016 9.20516C11.9226 9.20516 11.1982 9.95715 11.1974 11.1721C11.1974 19.27 11.1974 27.3679 11.1974 35.4658C11.1974 35.5656 11.2063 35.6663 11.2107 35.7729H30.0555V28.9052C29.7273 29.3999 29.4486 29.9083 29.1618 30.4107C29.0879 30.5393 29.014 30.6875 28.8979 30.7662C27.9636 31.4062 27.0211 32.0334 26.0787 32.6575C25.868 32.7983 25.627 32.7922 25.4681 32.6152C25.338 32.4714 25.222 32.2422 25.2279 32.0546C25.2641 31.0083 25.3291 29.9628 25.4082 28.9188C25.4319 28.6864 25.504 28.462 25.6196 28.2606C27.0544 25.7005 28.5024 23.148 29.935 20.5879C30.0268 20.418 30.0761 20.2275 30.0784 20.0333C30.0865 17.0829 30.0784 14.1256 30.0858 11.1714C30.0836 10.4935 30.1626 9.82324 30.6838 9.20516H30.6875ZM31.8029 19.6975L27.0581 28.0805L28.5926 28.9884C30.1567 26.2255 31.7383 23.4314 33.3374 20.606L31.8029 19.6975ZM34.7988 12.813C34.7988 12.1783 34.8128 11.5587 34.7988 10.9399C34.7729 10.0366 34.1247 9.34133 33.2266 9.2218C32.4002 9.11135 31.5264 9.65 31.3653 10.5079C31.2278 11.2546 31.2677 12.0346 31.2285 12.8108L34.7988 12.813ZM33.9547 19.5325C34.2245 19.0453 34.4957 18.5975 34.7264 18.1292C34.9259 17.7222 34.7567 17.2297 34.3804 16.9944C34.0042 16.7591 33.4882 16.8249 33.2428 17.2017C32.9471 17.651 32.7113 18.1375 32.443 18.6194L33.9547 19.5325ZM26.4416 30.9864L27.8276 30.0543C27.5119 29.6421 27.0525 29.371 26.5458 29.2978C26.5081 29.8508 26.4749 30.3849 26.4379 30.9879L26.4416 30.9864Z" fill="#2B0F64"/>
<path d="M20.6249 12.8304C22.7188 12.8304 24.8131 12.8304 26.908 12.8304C27.0368 12.8271 27.1656 12.8396 27.2916 12.8675C27.4184 12.8988 27.5302 12.9752 27.6072 13.0829C27.6842 13.1907 27.7214 13.3229 27.7122 13.4561C27.7129 13.5847 27.6709 13.7097 27.5929 13.8107C27.515 13.9116 27.4059 13.9824 27.2835 14.0114C27.1667 14.0371 27.0473 14.0485 26.9279 14.0454C22.7303 14.0454 18.533 14.0454 14.3359 14.0454C14.2164 14.0482 14.097 14.036 13.9804 14.0091C13.8591 13.976 13.7516 13.9033 13.6744 13.8019C13.5971 13.7006 13.5543 13.5763 13.5524 13.4478C13.5493 13.3143 13.5909 13.1838 13.6702 13.0779C13.7495 12.972 13.8618 12.8969 13.9885 12.8652C14.1147 12.8388 14.2434 12.8271 14.3722 12.8304C16.4557 12.8294 18.5399 12.8294 20.6249 12.8304Z" fill="#2B0F64"/>
<path d="M20.6249 20.0795H14.4535C14.3707 20.0795 14.2872 20.0795 14.2044 20.0795C13.8097 20.0689 13.5428 19.82 13.5502 19.4743C13.5576 19.1285 13.823 18.8819 14.2236 18.8819C18.4946 18.8819 22.7656 18.8819 27.0366 18.8819C27.4609 18.8819 27.7152 19.1179 27.7107 19.4939C27.7063 19.8699 27.4624 20.0825 27.0455 20.0825C24.9068 20.0825 22.7666 20.0815 20.6249 20.0795Z" fill="#2B0F64"/>
<path d="M20.6405 17.064C18.5102 17.064 16.3794 17.064 14.2481 17.064C13.7535 17.064 13.4594 16.7258 13.5828 16.3006C13.6087 16.1845 13.6704 16.0799 13.7587 16.0024C13.8471 15.9249 13.9575 15.8786 14.0736 15.8702C14.1746 15.8611 14.2761 15.8581 14.3774 15.8611H26.914C27.0062 15.8587 27.0984 15.8612 27.1904 15.8687C27.3297 15.878 27.4606 15.9403 27.5574 16.0433C27.6543 16.1463 27.71 16.2826 27.7137 16.4255C27.7243 16.5729 27.6806 16.7191 27.5911 16.8352C27.5016 16.9512 27.3729 17.0288 27.2303 17.0526C27.1295 17.0651 27.0279 17.0689 26.9265 17.064H20.6405Z" fill="#2B0F64"/>
<path d="M22.3132 33.3725C21.8889 33.352 21.5474 33.1168 21.2739 32.7597C21.1542 32.6038 21.0455 32.4397 20.925 32.2846C20.8141 32.1424 20.6907 32.1431 20.5798 32.2846C20.4586 32.4359 20.3484 32.6023 20.2287 32.7582C19.5827 33.5903 18.5922 33.5903 17.955 32.743C17.887 32.653 17.8227 32.5615 17.7576 32.4692C17.4804 32.078 17.4139 32.0773 17.1419 32.4586C17.0502 32.5879 16.9608 32.7203 16.858 32.8414C16.2371 33.5699 15.3109 33.5586 14.7055 32.8149C14.6117 32.6992 14.5429 32.5577 14.4357 32.4571C14.3118 32.3295 14.1657 32.2268 14.0048 32.1545C13.7091 32.0417 13.5184 31.7906 13.5576 31.4932C13.577 31.3368 13.655 31.1943 13.7751 31.0955C13.8952 30.9967 14.048 30.9495 14.2014 30.9637C14.67 30.9864 15.0145 31.2307 15.2932 31.5992C15.4055 31.7505 15.5105 31.9018 15.6236 32.0531C15.7367 32.2044 15.855 32.1953 15.9658 32.0531C16.0908 31.8904 16.2053 31.7179 16.3354 31.5576C16.9815 30.7496 17.9446 30.7594 18.5737 31.5795C18.6875 31.7308 18.7954 31.8821 18.9033 32.0334C19.0268 32.2006 19.1576 32.2059 19.2848 32.038C19.4038 31.8821 19.5132 31.7179 19.6344 31.5636C20.2701 30.7556 21.2392 30.7579 21.8763 31.5697C21.9746 31.6945 22.0493 31.842 22.1602 31.9479C22.2597 32.0507 22.3811 32.1284 22.515 32.1749C22.8262 32.2694 23.0324 32.5312 22.9925 32.8399C22.9504 33.1629 22.6872 33.3808 22.3132 33.3725Z" fill="#2B0F64"/>
<path d="M18.854 21.8921C20.3851 21.8921 21.9165 21.8921 23.4481 21.8921C23.879 21.8921 24.1348 22.0896 24.1658 22.4338C24.1858 22.5804 24.1501 22.7293 24.0659 22.8497C23.9817 22.9701 23.8555 23.0527 23.7134 23.0806C23.6048 23.1018 23.4943 23.111 23.3837 23.1079C20.3679 23.1079 17.3515 23.1079 14.3347 23.1079C14.2152 23.1106 14.0958 23.0984 13.9791 23.0715C13.8578 23.0382 13.7504 22.9653 13.6732 22.8638C13.5959 22.7624 13.5531 22.638 13.5511 22.5094C13.5485 22.3761 13.5902 22.2458 13.6695 22.14C13.7487 22.0341 13.8608 21.959 13.9873 21.9269C14.104 21.9011 14.2234 21.8897 14.3428 21.8929C15.8468 21.8914 17.3505 21.8911 18.854 21.8921Z" fill="#2B0F64"/>
</g>
<defs>
<clipPath id="clip0_146_108">
<rect width="26" height="29" fill="white" transform="translate(10 8)"/>
</clipPath>
</defs>
</svg>
