<svg width="45" height="44" viewBox="0 0 45 44" fill="none" xmlns="http://www.w3.org/2000/svg">
<rect x="0.364868" width="44.0962" height="43.9329" rx="6" fill="white"/>
<g clip-path="url(#clip0_146_68)">
<path d="M17.8739 10.3696C17.8739 10.0055 17.8686 9.69262 17.8739 9.3797C17.8967 8.16617 18.7129 7.34357 19.9407 7.33664C21.9182 7.32508 23.8958 7.32508 25.8733 7.33664C27.1177 7.34357 27.9366 8.17658 27.9418 9.40657C27.9418 9.70909 27.9418 10.0133 27.9418 10.3696H28.2922C29.4937 10.3696 30.6953 10.3696 31.8977 10.3696C33.5284 10.3696 34.6836 11.5077 34.7002 13.1208C34.7072 13.8351 34.7107 14.5493 34.7002 15.2627C34.6818 16.3705 34.1546 17.1792 33.1702 17.6828C32.9653 17.7877 32.9233 17.9013 32.9233 18.1041C32.9291 20.6352 32.9291 23.1662 32.9233 25.6973C32.9269 25.8054 32.9249 25.9136 32.9171 26.0215C32.9157 26.079 32.9027 26.1357 32.8789 26.1882C32.855 26.2407 32.8209 26.2879 32.7784 26.3272C32.7359 26.3665 32.686 26.3971 32.6315 26.4171C32.577 26.437 32.519 26.4461 32.4609 26.4436C32.4007 26.4517 32.3394 26.4478 32.2808 26.432C32.2222 26.4162 32.1674 26.3888 32.1197 26.3516C32.072 26.3144 32.0323 26.2681 32.0031 26.2154C31.9738 26.1627 31.9556 26.1047 31.9494 26.0449C31.9355 25.9377 31.9317 25.8295 31.938 25.7216V18.17L25.3198 19.0931C25.3198 19.5603 25.3198 20.0761 25.3198 20.5918C25.3198 21.372 24.9695 21.7126 24.176 21.7187C23.3002 21.7187 22.4244 21.7187 21.5539 21.7187C20.8699 21.7187 20.503 21.3529 20.4828 20.6785C20.4767 20.4185 20.4828 20.1584 20.4828 19.8984V19.1529L13.8751 18.2281V24.9146C13.8751 25.4537 13.7306 25.6704 13.3768 25.667C13.023 25.6635 12.8855 25.4477 12.8846 24.9059C12.8846 22.6782 12.8846 20.4497 12.889 18.222C12.889 17.9723 12.8382 17.8259 12.5868 17.7019C11.711 17.2512 11.1856 16.517 11.133 15.5349C11.0742 14.6279 11.078 13.7179 11.1444 12.8114C11.2626 11.3647 12.4099 10.3765 13.876 10.3713C15.0775 10.3661 16.2791 10.3713 17.4815 10.3713L17.8739 10.3696ZM20.4863 18.059C20.4863 17.7669 20.4863 17.5389 20.4863 17.317C20.4977 16.6626 20.8691 16.2855 21.5233 16.2769C22.4516 16.2699 23.3802 16.2699 24.3091 16.2769C24.9449 16.2812 25.3145 16.6574 25.3233 17.2954C25.3233 17.5164 25.3233 17.7374 25.3233 17.9654C25.4441 17.9654 25.5089 17.9654 25.5737 17.9654C27.8569 17.8172 30.1041 17.4401 32.3383 16.9634C33.1974 16.7796 33.7115 16.0966 33.7185 15.2246C33.7237 14.5545 33.7185 13.8836 33.7185 13.2136C33.7185 12.0633 32.9995 11.3413 31.8443 11.3448C25.868 11.3609 19.8923 11.3803 13.9171 11.4028C12.8382 11.4072 12.1113 12.1223 12.0955 13.1919C12.0859 13.8854 12.0876 14.5788 12.0955 15.2722C12.106 16.2101 12.621 16.8724 13.544 17.0518C14.9996 17.3326 16.4604 17.591 17.9229 17.8155C18.7532 17.9377 19.5948 17.9758 20.4863 18.059ZM18.8889 10.3488H26.9575V9.52359C26.9575 8.66459 26.5975 8.31006 25.7191 8.31006H21.2334C20.7859 8.31006 20.3383 8.3014 19.8917 8.31006C19.3706 8.3248 18.9476 8.63078 18.8986 9.08065C18.8513 9.49585 18.8889 9.91972 18.8889 10.3488ZM21.5399 20.6638H24.3109V17.3335H21.5399V20.6638Z" fill="#2B0F64"/>
<path d="M8.39703 36.1579H10.4113V29.5035H8.40141V32.2062C8.40141 32.4983 8.41279 32.7904 8.3944 33.0816C8.3934 33.1444 8.37943 33.2062 8.35336 33.2634C8.32729 33.3205 8.28968 33.3718 8.24283 33.414C8.19598 33.4563 8.14089 33.4885 8.08095 33.5089C8.02102 33.5292 7.95751 33.5372 7.89433 33.5324C7.831 33.5351 7.76779 33.5247 7.70875 33.5019C7.64972 33.479 7.59617 33.4442 7.55155 33.3996C7.50693 33.355 7.47223 33.3017 7.44966 33.2431C7.4271 33.1844 7.41718 33.1218 7.42054 33.0591C7.41353 31.6953 7.41353 30.3324 7.42054 28.9704C7.42054 28.667 7.60971 28.5066 7.89871 28.5032C8.92629 28.4934 9.95329 28.4934 10.9797 28.5032C11.2748 28.5032 11.4351 28.6852 11.4596 28.9765C11.4701 29.1013 11.4736 29.227 11.4798 29.3526L11.5735 29.4125C11.8774 29.0701 12.2347 28.7598 12.4764 28.3784C13.2007 27.2368 14.2726 26.676 15.567 26.4714C17.534 26.1576 19.3732 26.6447 21.186 27.3512C22.7624 27.958 24.3388 28.5734 25.9433 29.0848C26.9346 29.3977 27.9838 29.5451 29.0164 29.7089C29.8536 29.8415 30.4658 30.229 30.81 30.9935C31.2671 32.0094 30.7311 33.1042 29.6277 33.268C28.6667 33.4025 27.6976 33.4726 26.7271 33.4778C25.1367 33.502 23.5743 33.2645 22.0294 32.8831C21.6975 32.8017 21.5241 32.5581 21.5863 32.2764C21.6441 32.0163 21.9313 31.8725 22.2711 31.9557C23.968 32.3761 25.7127 32.5777 27.4619 32.5555C28.1441 32.5442 28.8281 32.4281 29.505 32.3232C29.865 32.2677 29.9823 32.0493 29.9359 31.687C29.8702 31.1669 29.5453 30.8704 29.0602 30.7612C28.2623 30.5878 27.4531 30.4561 26.6561 30.2732C24.6637 29.8138 22.7537 29.1108 20.8699 28.3281C19.5343 27.7725 18.155 27.3746 16.6845 27.3893C15.8517 27.3989 15.01 27.4535 14.2901 27.9242C13.9424 28.1433 13.6408 28.427 13.4021 28.7598C12.9548 29.4287 12.3765 30.002 11.7013 30.4457C11.4631 30.6017 11.4115 30.7655 11.4132 31.0221C11.4228 32.8285 11.4185 34.635 11.4176 36.4414C11.4176 37.036 11.288 37.166 10.6872 37.1669C9.81141 37.1669 8.93563 37.1669 8.06511 37.1669C7.56504 37.1669 7.42141 37.0187 7.41966 36.5281C7.41966 36.1709 7.41266 35.8138 7.41966 35.4567C7.42929 35.136 7.60445 34.9695 7.90747 34.9704C8.21049 34.9713 8.38302 35.1438 8.39878 35.4593C8.40579 35.6734 8.39703 35.9022 8.39703 36.1579Z" fill="#2B0F64"/>
<path d="M16.23 34.0923C17.8844 34.1038 19.5146 34.4867 20.9977 35.2122C24.1812 36.7525 27.1983 36.2654 29.907 34.2345C31.7173 32.8779 33.2867 31.2059 34.9612 29.6716C35.322 29.3414 35.6784 29.0059 36.0244 28.6601C36.3344 28.3515 36.4097 27.9891 36.2547 27.6884C36.0042 27.2038 35.1381 27.0287 34.7124 27.3798C33.7649 28.1636 32.7183 28.8222 31.599 29.3388C31.5313 29.3739 31.4614 29.4049 31.3897 29.4315C31.1139 29.5182 30.8441 29.4116 30.7636 29.1715C30.6707 28.9002 30.7487 28.6817 31.014 28.5456C31.3048 28.3965 31.6131 28.2761 31.8898 28.101C32.6123 27.6372 33.3296 27.1648 34.0311 26.6707C34.9069 26.0536 36.0051 26.103 36.7933 26.825C37.4615 27.437 37.5657 28.5179 36.9334 29.1654C34.7028 31.426 32.4363 33.6433 29.886 35.5616C28.6818 36.4682 27.285 36.7942 25.8329 36.9753C24.6699 37.1209 23.5007 37.225 22.3596 36.8531C21.8334 36.6778 21.3182 36.4721 20.8165 36.2368C19.3233 35.5494 17.7723 35.11 16.1144 35.116C15.0416 35.1204 14.0125 35.3301 13.0579 35.8398C12.7251 36.0175 12.4493 35.9525 12.2934 35.6794C12.1375 35.4064 12.2435 35.1386 12.5745 34.9591C13.7148 34.3437 14.9417 34.0889 16.23 34.0923Z" fill="#2B0F64"/>
</g>
<defs>
<clipPath id="clip0_146_68">
<rect width="29.942" height="29.8311" fill="white" transform="translate(7.41003 7.32797)"/>
</clipPath>
</defs>
</svg>
