<svg width="147" height="68" viewBox="0 0 147 68" fill="none" xmlns="http://www.w3.org/2000/svg">
<g clip-path="url(#clip0_153_2072)">
<mask id="mask0_153_2072" style="mask-type:luminance" maskUnits="userSpaceOnUse" x="0" y="0" width="147" height="68">
<path d="M147 0H0V67.9998H147V0Z" fill="white"/>
</mask>
<g mask="url(#mask0_153_2072)">
<path d="M5.53452 67.5747C4.27658 67.5534 3.05551 67.1445 2.03643 66.4034C0.903989 65.6251 0.103625 64.4482 -0.206299 63.1055L1.73129 62.3123C1.95286 63.2058 2.44871 64.0066 3.14856 64.6012C3.80365 65.2071 4.66251 65.5418 5.55299 65.5384C6.39403 65.5653 7.2203 65.312 7.90309 64.818C8.21318 64.5959 8.46388 64.3004 8.63291 63.9576C8.80194 63.6149 8.88407 63.2354 8.87199 62.8531C8.87199 61.934 8.54902 61.2131 7.90309 60.7263C7.25715 60.222 6.21675 59.753 4.81686 59.3386C3.36394 58.8703 2.25225 58.2754 1.51568 57.5548C1.14209 57.1916 0.848478 56.7537 0.653809 56.2694C0.459141 55.7851 0.367743 55.2652 0.385518 54.7433C0.385431 54.1562 0.510226 53.576 0.751543 53.0413C0.99286 52.5066 1.34513 52.03 1.78475 51.6432C2.71779 50.7601 3.93794 50.3271 5.44454 50.3271C6.84421 50.3271 7.97437 50.6699 8.83504 51.3727C9.71375 52.0754 10.2695 52.8321 10.5394 53.6615L8.60183 54.4723C8.41893 53.8919 8.06221 53.3822 7.58034 53.0129C7.04199 52.5621 6.3415 52.3461 5.48105 52.3461C4.72992 52.3294 3.99565 52.571 3.40002 53.031C3.13291 53.2244 2.91548 53.4789 2.76571 53.7735C2.61594 54.068 2.53812 54.3942 2.5387 54.7249C2.5395 55.0275 2.61144 55.3256 2.74865 55.595C2.88586 55.8643 3.08447 56.0973 3.3283 56.275C4.0334 56.7879 4.82287 57.1722 5.66057 57.4102C6.46777 57.6807 7.14935 57.9331 7.6877 58.1674C8.26602 58.441 8.81844 58.7668 9.33818 59.1406C9.87888 59.5289 10.3113 60.05 10.5942 60.6542C10.8915 61.3164 11.0385 62.0367 11.0245 62.7629C11.0394 63.5088 10.8667 64.2463 10.5225 64.9073C10.2207 65.5103 9.76968 66.0254 9.21278 66.4032C8.66946 66.7676 8.07738 67.0527 7.45428 67.25C6.83886 67.4728 6.18861 67.5826 5.53452 67.5744V67.5747Z" fill="#616161"/>
<path d="M17.932 67.5748C16.2272 67.5748 14.8458 66.9985 13.7876 65.8628C12.7293 64.7271 12.1908 63.2866 12.1908 61.5556C12.1639 59.995 12.7137 58.4798 13.7339 57.3025C14.2199 56.7263 14.8285 56.2669 15.5146 55.9581C16.2008 55.6493 16.9472 55.499 17.6988 55.5182C19.3673 55.5182 20.6948 56.059 21.6996 57.1582C22.7044 58.2575 23.2068 59.7174 23.2068 61.5377L23.1886 61.9337H14.3081C14.3193 62.9484 14.7249 63.9184 15.4382 64.6369C15.7596 64.956 16.1407 65.2079 16.5596 65.378C16.9784 65.5481 17.4268 65.6331 17.8785 65.6281C19.3854 65.6281 20.4258 64.9792 20.9648 63.6818L22.8487 64.4749C22.472 65.3703 21.8419 66.1348 21.0365 66.6736C20.1934 67.2864 19.1711 67.5744 17.9329 67.5744L17.932 67.5748ZM20.963 60.2042C20.8902 59.5078 20.5796 58.8581 20.0839 58.3658C19.546 57.789 18.7383 57.4824 17.6621 57.4824C16.919 57.4706 16.1975 57.7337 15.6349 58.2217C15.0426 58.741 14.6282 59.4346 14.4507 60.204H20.963V60.2042Z" fill="#616161"/>
<path d="M28.212 67.5748C27.1185 67.614 26.0499 67.2412 25.2159 66.5297C24.8199 66.1679 24.5075 65.7235 24.3004 65.2276C24.0934 64.7317 23.9967 64.1964 24.0172 63.6591C24.0377 63.1217 24.1749 62.5954 24.4192 62.1169C24.6635 61.6384 25.0089 61.2194 25.4313 60.8891C26.3822 60.1863 27.5482 59.844 28.9479 59.844C30.1867 59.844 31.2082 60.078 31.9976 60.5288V60.2044C32.0108 59.8294 31.9422 59.456 31.7965 59.1104C31.6509 58.7649 31.4318 58.4555 31.1545 58.204C30.5806 57.697 29.8371 57.4265 29.0731 57.4468C28.4886 57.4403 27.9128 57.5897 27.4045 57.8798C26.925 58.1387 26.5602 58.5697 26.3831 59.0869L24.4455 58.2572C24.6967 57.5724 25.2168 56.9598 25.9886 56.3828C26.7604 55.8058 27.7645 55.5176 29.0205 55.5176C30.4549 55.5176 31.6577 55.9324 32.6088 56.7792C33.5598 57.6261 34.026 58.8161 34.026 60.3476V67.2139H31.9978V65.6464H31.9089C31.0648 66.9445 29.8268 67.5748 28.212 67.5748ZM28.5532 65.6469C29.4389 65.6446 30.2888 65.2954 30.9222 64.6736C31.26 64.3888 31.5315 64.0329 31.7173 63.6312C31.9032 63.2294 31.9989 62.7915 31.9978 62.3485C31.4058 61.8621 30.509 61.6097 29.3067 61.6097C28.2852 61.6097 27.5123 61.8261 26.9925 62.2765C26.7525 62.4618 26.5569 62.6989 26.4203 62.9703C26.2836 63.2417 26.2093 63.5404 26.2029 63.8444C26.1961 64.1078 26.259 64.3683 26.3849 64.5993C26.5109 64.8304 26.6956 65.0239 26.9201 65.16C27.4028 65.4849 27.9722 65.6546 28.5532 65.6469Z" fill="#616161"/>
<path d="M38.1518 67.2138H36.0349V55.9145H38.062V57.7525H38.1516C38.3938 57.1012 38.8664 56.5624 39.4791 56.2389C40.0591 55.8674 40.729 55.6618 41.4167 55.6442C41.9556 55.6288 42.4923 55.7207 42.9957 55.9147L42.1885 57.8971C41.8248 57.774 41.4417 57.7189 41.0583 57.7346C40.6752 57.7366 40.2967 57.8195 39.9475 57.9778C39.5983 58.1362 39.2861 58.3665 39.0312 58.6538C38.7339 58.9714 38.503 59.3456 38.352 59.7543C38.201 60.163 38.133 60.5979 38.152 61.0334L38.1518 67.2138Z" fill="#616161"/>
<path d="M48.5752 67.576C47.8008 67.5986 47.0303 67.4579 46.3133 67.163C45.5964 66.8682 44.9489 66.4256 44.4127 65.864C43.3184 64.7108 42.78 63.2878 42.78 61.5568C42.78 59.8257 43.3184 58.4027 44.4127 57.2496C45.507 56.0964 46.8886 55.5371 48.5752 55.5371C49.8311 55.5371 50.8717 55.8435 51.6971 56.4562C52.5062 57.045 53.1342 57.8506 53.5092 58.7809L51.5716 59.5921C50.9974 58.1685 49.939 57.4653 48.4317 57.4653C47.9609 57.4682 47.4961 57.5727 47.0689 57.7717C46.6417 57.9707 46.2621 58.2597 45.9558 58.6189C45.261 59.4385 44.8794 60.4799 44.8794 61.5565C44.8794 62.633 45.261 63.6744 45.9558 64.494C46.2621 64.8532 46.6417 65.1422 47.0689 65.3412C47.4961 65.5402 47.9609 65.6447 48.4317 65.6476C50.0107 65.6476 51.087 64.9444 51.6971 63.5208L53.581 64.3316C53.1894 65.2624 52.5503 66.0669 51.7336 66.6569C50.8045 67.292 49.6984 67.6139 48.5752 67.576Z" fill="#616161"/>
<path d="M56.9717 50.707V55.9152L56.8822 57.4827H56.9717C57.3226 56.9014 57.8253 56.4277 58.4253 56.1132C59.0694 55.7424 59.7998 55.5497 60.5422 55.555C61.9419 55.555 63.0003 55.9873 63.7358 56.8527C64.4713 57.7181 64.8301 58.871 64.8301 60.3126V67.2147H62.7132V60.6189C62.7132 58.5285 61.7802 57.483 59.9313 57.483C59.5181 57.4731 59.1087 57.563 58.7373 57.7449C58.3659 57.9268 58.0433 58.1955 57.7965 58.5285C57.2475 59.218 56.9554 60.0784 56.9707 60.9612V67.2147H54.8538V50.707H56.9707H56.9717Z" fill="#616161"/>
<path d="M77.4957 67.5746C75.0735 67.5746 73.0461 66.7449 71.4137 65.1058C69.7812 63.4667 68.9556 61.4115 68.9556 58.9423C68.9556 56.4731 69.7815 54.4369 71.4137 52.7787C73.0463 51.1387 75.0735 50.3096 77.4957 50.3096C79.9712 50.3096 81.9805 51.2108 83.5415 53.0132L82.0705 54.4369C80.9579 53.0313 79.4333 52.3465 77.4955 52.3465C76.6561 52.329 75.8218 52.4811 75.0421 52.7937C74.2623 53.1063 73.5531 53.5731 72.9564 54.1664C71.7175 55.3739 71.109 56.9779 71.109 58.9423C71.109 60.9067 71.719 62.5107 72.9564 63.7182C73.5531 64.3115 74.2623 64.7783 75.0421 65.0909C75.8218 65.4035 76.6561 65.5556 77.4955 65.5381C79.4689 65.5381 81.1553 64.7454 82.5545 63.1414L84.0259 64.619C83.254 65.5364 82.2928 66.2744 81.209 66.7818C80.0451 67.3199 78.7764 67.5907 77.4953 67.5746H77.4957Z" fill="#616161"/>
<path d="M86.4666 57.2662C87.5614 56.1126 88.9426 55.5541 90.6291 55.5541C91.4035 55.5315 92.1741 55.6721 92.891 55.967C93.608 56.2619 94.2554 56.7045 94.7916 57.2662C95.8859 58.4193 96.4243 59.8423 96.4243 61.5733C96.4243 63.3044 95.8859 64.7274 94.7916 65.8805C93.6973 67.0337 92.3157 67.593 90.6291 67.593C89.8547 67.6155 89.0842 67.4748 88.3672 67.1798C87.6503 66.8848 87.0029 66.4422 86.4666 65.8805C85.3723 64.7274 84.834 63.3044 84.834 61.5733C84.834 59.8423 85.3723 58.4012 86.4666 57.2662ZM88.0276 64.5287C88.3599 64.8817 88.7604 65.1629 89.2046 65.355C89.6489 65.5472 90.1274 65.6463 90.6111 65.6463C91.0948 65.6463 91.5733 65.5472 92.0175 65.355C92.4618 65.1629 92.8623 64.8817 93.1946 64.5287C93.9301 63.7899 94.2889 62.7988 94.2889 61.5731C94.2889 60.3475 93.9301 59.3563 93.1946 58.6175C92.8622 58.2647 92.4617 57.9836 92.0175 57.7915C91.5733 57.5994 91.0947 57.5004 90.6111 57.5004C90.1275 57.5004 89.6489 57.5994 89.2047 57.7915C88.7605 57.9836 88.36 58.2647 88.0276 58.6175C87.2921 59.3563 86.9333 60.3475 86.9333 61.5731C86.9513 62.7988 87.3099 63.772 88.0276 64.5285V64.5287Z" fill="#616161"/>
<path d="M99.9228 55.915V57.4825H100.012C100.363 56.9012 100.865 56.4276 101.465 56.113C102.11 55.7422 102.84 55.5496 103.583 55.5548C104.982 55.5548 106.041 55.9871 106.776 56.8525C107.512 57.7179 107.87 58.8706 107.87 60.3119V67.2143H105.753V60.6184C105.753 58.5281 104.82 57.4825 102.971 57.4825C102.558 57.4727 102.148 57.5625 101.777 57.7444C101.406 57.9263 101.083 58.195 100.836 58.5281C100.287 59.2176 99.9952 60.078 100.01 60.9608V67.2143H97.8931V55.915H99.9208H99.9228Z" fill="#616161"/>
<path d="M114.024 67.5756C112.768 67.5756 111.728 67.2699 110.921 66.6569C110.121 66.0703 109.499 65.2715 109.126 64.3502L111.01 63.557C111.602 64.9807 112.625 65.6839 114.06 65.6839C114.63 65.71 115.193 65.5588 115.674 65.2509C115.867 65.1275 116.026 64.957 116.136 64.7554C116.246 64.5538 116.303 64.3276 116.302 64.0978C116.302 63.3586 115.782 62.8534 114.759 62.6019L112.48 62.043C111.733 61.8421 111.036 61.4861 110.435 60.9979C110.12 60.7514 109.868 60.4333 109.7 60.0699C109.532 59.7065 109.451 59.3081 109.466 58.9075C109.466 57.9163 109.915 57.1051 110.794 56.4744C111.646 55.9089 112.636 55.5868 113.656 55.5424C114.677 55.498 115.691 55.7331 116.589 56.2224C117.359 56.6499 117.95 57.3404 118.257 58.1687L116.427 58.9254C116.014 57.9342 115.153 57.4295 113.863 57.4295C113.309 57.408 112.762 57.5457 112.284 57.8264C112.09 57.9273 111.927 58.0798 111.813 58.2673C111.699 58.4548 111.638 58.67 111.638 58.8896C111.638 59.5384 112.14 59.9707 113.127 60.2052L115.351 60.7276C116.41 60.98 117.181 61.3944 117.702 61.9893C118.192 62.5534 118.459 63.2777 118.455 64.0262C118.458 64.5171 118.348 65.0021 118.133 65.443C117.918 65.8839 117.604 66.2687 117.216 66.567C116.39 67.2518 115.315 67.576 114.023 67.576L114.024 67.5756Z" fill="#616161"/>
<path d="M120.878 57.2662C121.972 56.1126 123.353 55.5541 125.04 55.5541C125.814 55.5315 126.585 55.6721 127.302 55.967C128.019 56.2619 128.666 56.7045 129.203 57.2662C130.297 58.4193 130.835 59.8423 130.835 61.5733C130.835 63.3044 130.297 64.7274 129.203 65.8805C128.108 67.0337 126.726 67.593 125.04 67.593C124.266 67.6155 123.495 67.4748 122.778 67.1798C122.061 66.8849 121.414 66.4423 120.878 65.8805C119.783 64.7274 119.245 63.3044 119.245 61.5733C119.245 59.8423 119.783 58.4012 120.878 57.2662ZM122.457 64.5287C122.789 64.8817 123.189 65.1629 123.634 65.355C124.078 65.5472 124.556 65.6463 125.04 65.6463C125.524 65.6463 126.002 65.5472 126.446 65.355C126.891 65.1629 127.291 64.8817 127.624 64.5287C128.359 63.7899 128.718 62.7988 128.718 61.5731C128.718 60.3475 128.359 59.3563 127.624 58.6175C127.291 58.2647 126.891 57.9836 126.446 57.7915C126.002 57.5994 125.524 57.5004 125.04 57.5004C124.556 57.5004 124.078 57.5994 123.634 57.7915C123.189 57.9836 122.789 58.2647 122.457 58.6175C121.721 59.3563 121.362 60.3475 121.362 61.5731C121.362 62.7988 121.721 63.772 122.456 64.5285L122.457 64.5287Z" fill="#616161"/>
<path d="M134.459 67.2147H132.342V50.707H134.459V67.2147Z" fill="#616161"/>
<path d="M141.725 67.5748C140.021 67.5748 138.639 66.9985 137.581 65.8628C136.523 64.7271 135.984 63.2866 135.984 61.5556C135.957 59.995 136.507 58.4798 137.527 57.3025C138.013 56.7263 138.622 56.2669 139.308 55.9581C139.994 55.6493 140.741 55.499 141.492 55.5182C143.161 55.5182 144.488 56.059 145.493 57.1582C146.498 58.2575 147 59.7174 147 61.5377L146.982 61.9341H138.101C138.113 62.9488 138.518 63.9189 139.232 64.6374C139.553 64.9564 139.934 65.2083 140.353 65.3784C140.772 65.5486 141.22 65.6336 141.672 65.6285C143.179 65.6285 144.219 64.9797 144.758 63.6822L146.642 64.4754C146.265 65.3707 145.635 66.1353 144.83 66.674C143.987 67.2869 142.946 67.5748 141.726 67.5748H141.725ZM144.757 60.2042C144.684 59.5078 144.374 58.8581 143.878 58.3658C143.34 57.789 142.533 57.4824 141.456 57.4824C140.713 57.4706 139.992 57.7337 139.429 58.2217C138.837 58.741 138.422 59.4346 138.245 60.204L144.757 60.2042Z" fill="#616161"/>
<path d="M-0.206299 18.715C-0.206299 8.41308 8.41709 0 18.709 0C24.3874 0 28.433 2.24583 31.4851 5.1691L27.9005 8.76916C25.7356 6.70235 22.7554 5.13352 18.709 5.13352C11.2212 5.13352 5.36543 11.1936 5.36543 18.715C5.36543 26.2365 11.221 32.297 18.709 32.297C23.5711 32.297 26.3392 30.3363 28.1133 28.5537C29.5695 27.0923 30.5258 24.9891 30.8816 22.1374H18.709V17.0397H35.8502C36.0455 18.098 36.1405 19.1726 36.134 20.2489C36.134 24.0992 35.1045 28.8402 31.7331 32.1909C28.4682 35.6135 24.2807 37.4305 18.7442 37.4305C8.4171 37.3947 -0.206299 29.0177 -0.206299 18.715Z" fill="#4285F4"/>
<path d="M49.939 13.332C43.3023 13.332 37.908 18.3939 37.908 25.3812C37.908 32.3324 43.3023 37.4304 49.939 37.4304C56.5757 37.4304 61.9697 32.3324 61.9697 25.3812C61.9697 18.395 56.5753 13.332 49.939 13.332ZM49.939 32.6531C46.3192 32.6531 43.1604 29.6585 43.1604 25.3454C43.1604 20.9963 46.2831 18.037 49.939 18.037C53.5584 18.037 56.7172 20.9963 56.7172 25.3454C56.717 29.6587 53.5584 32.6536 49.939 32.6536V32.6531Z" fill="#DB4437"/>
<path d="M76.2003 13.332C69.5643 13.332 64.1697 18.3939 64.1697 25.3812C64.1697 32.3324 69.5641 37.4304 76.2003 37.4304C82.8366 37.4304 88.2316 32.3324 88.2316 25.3812C88.2316 18.395 82.8372 13.332 76.2005 13.332H76.2003ZM76.2003 32.6531C72.5809 32.6531 69.4221 29.6585 69.4221 25.3454C69.4221 20.9963 72.5449 18.037 76.2003 18.037C79.8557 18.037 82.9787 20.9965 82.9787 25.3456C82.9787 29.6587 79.8205 32.6536 76.2003 32.6536V32.6531Z" fill="#F4B400"/>
<path d="M108.424 14.0453V16.006H108.247C107.075 14.5801 104.804 13.2969 101.93 13.2969C95.9314 13.2969 90.4314 18.5725 90.4314 25.3816C90.4314 32.1191 95.9325 37.3948 101.93 37.3948C104.804 37.3948 107.076 36.1115 108.247 34.6501H108.424V36.3966C108.424 40.9953 105.975 43.4553 102.036 43.4553C98.8066 43.4553 96.8199 41.1378 96.0031 39.1762L91.4251 41.1014C92.7385 44.3106 96.2518 48.2312 102.072 48.2312C108.247 48.2312 113.464 44.5951 113.464 35.6827V14.0453H108.424ZM102.391 32.6538C98.7712 32.6538 95.7186 29.5879 95.7186 25.3814C95.7186 21.1393 98.7707 18.0376 102.391 18.0376C105.975 18.0376 108.779 21.1395 108.779 25.3814C108.814 29.6235 105.975 32.6538 102.391 32.6538Z" fill="#4285F4"/>
<path d="M122.336 1.2832H117.083V36.6819H122.336V1.2832Z" fill="#0F9D58"/>
<path d="M136.78 32.6536C134.083 32.6536 132.202 31.4059 130.959 29.0175L147.001 22.3501L146.468 20.9965C145.475 18.287 142.422 13.332 136.212 13.332C130.037 13.332 124.891 18.216 124.891 25.3812C124.891 32.1187 129.966 37.4304 136.78 37.4304C142.281 37.4304 145.439 34.0434 146.787 32.0831L142.706 29.338C141.322 31.3343 139.477 32.6536 136.78 32.6536ZM136.388 17.9663C138.482 17.9663 140.257 19 140.825 20.5328L130.108 24.9889C129.966 20.3547 133.692 17.9663 136.389 17.9663H136.388Z" fill="#DB4437"/>
</g>
</g>
<defs>
<clipPath id="clip0_153_2072">
<rect width="147" height="68" fill="white"/>
</clipPath>
</defs>
</svg>
