<svg width="231" height="58" viewBox="0 0 231 58" fill="none" xmlns="http://www.w3.org/2000/svg">
<g clip-path="url(#clip0_153_2064)">
<path d="M3.94058 22.7748H26.6435V28.9935L18.1055 29.6338C4.3135 30.6378 0 34.2085 0 44.177V46.1901C0 53.5106 5.25412 57.9007 13.3245 57.9007C19.7029 57.9007 23.3652 56.4354 27.868 51.9532H28.6194V56.7067H37.7193V13.083H3.94058V22.7802V22.7748ZM26.6435 43.8133C23.8272 46.5592 19.6083 48.3878 16.1352 48.3878C12.3839 48.3878 10.7865 47.015 10.8811 43.9978C10.9758 39.7924 12.5676 38.783 19.792 38.1427L26.6435 37.5024V43.8133Z" fill="#FF8800"/>
<path d="M217.193 30.644L210.437 30.0035C206.686 29.64 205.745 28.7229 205.745 25.798C205.745 22.5042 207.059 21.6792 212.313 21.6792C217.005 21.6792 218.319 22.4119 218.975 25.5212H229.484C229.199 15.0915 225.916 12.4434 212.875 12.4434C198.615 12.4434 195.048 15.0969 195.048 25.798C195.048 35.5875 197.675 38.2355 208.278 39.2449L213.816 39.7929C218.785 40.2488 220.01 41.166 220.01 44.0908C220.01 47.6559 218.507 48.5731 212.413 48.5731C207.064 48.5731 205.656 47.7483 205.378 44.3674H194.775C195.059 55.1609 198.432 57.9067 211.945 57.9067C226.955 57.9067 230.707 54.9764 230.707 43.0869C230.707 34.2145 227.986 31.6531 217.2 30.6494L217.193 30.644Z" fill="#054ADA"/>
<path d="M160.902 31.4687C160.902 17.3815 155.931 12.4434 141.666 12.4434C127.401 12.4434 122.058 18.8466 122.058 34.7626C122.058 52.1438 126.939 57.9067 142.696 57.9067C154.05 57.9067 158.831 54.5206 160.428 45.0079H149.642C148.423 47.9382 147.109 48.5731 142.512 48.5731C135.572 48.5731 133.785 46.6522 133.412 38.5124H160.15C160.618 36.1356 160.902 33.2974 160.902 31.4687ZM133.507 29.9113C133.601 23.7847 136.134 21.4948 142.139 21.4948C148.145 21.4948 150.21 23.7793 150.393 29.9113H133.507Z" fill="#054ADA"/>
<path d="M74.6818 13.0833H57.1384V0H45.9734V56.7125H57.1384V22.8672H73.0842V56.7125H84.2492V21.9557H74.6818V13.0833Z" fill="#054ADA"/>
<path d="M167.186 14.9993V56.713H178.351V22.412H191.765V13.0838H178.351V11.8953C178.446 9.33404 179.102 8.60145 181.256 8.60145H193.451V0.00585938H180.316C171.405 0.00585938 167.18 2.65943 167.18 15.0047L167.186 14.9993Z" fill="#054ADA"/>
<path d="M92.5098 56.7121H103.669V23.3229H120.277V13.083H92.5098V56.7121Z" fill="#054ADA"/>
</g>
<defs>
<clipPath id="clip0_153_2064">
<rect width="231" height="58" fill="white"/>
</clipPath>
</defs>
</svg>
