<svg width="57" height="58" viewBox="0 0 57 58" fill="none" xmlns="http://www.w3.org/2000/svg">
<g clip-path="url(#clip0_190_1216)">
<path d="M44.9224 41.9882C46.6295 40.7638 49.0148 40.9175 50.571 42.9725C51.1519 42.7405 51.7068 42.4332 52.2975 42.2955C54.6179 41.7561 56.9416 43.4847 56.9741 45.8407C57.026 49.682 56.987 53.5104 56.9854 57.3453C56.9757 57.3953 56.9604 57.4442 56.94 57.491H55.0496V56.8299C55.0496 53.2543 55.0496 49.6788 55.0496 46.1064C55.0496 44.6819 53.7222 43.7456 52.4322 44.2386C52.064 44.3624 51.7445 44.5971 51.5186 44.9095C51.2927 45.2219 51.1718 45.5962 51.173 45.9799C51.1486 46.5177 51.173 47.0587 51.173 47.5981C51.173 48.4512 50.8225 48.9089 50.1864 48.8977C49.5503 48.8865 49.2322 48.4416 49.2306 47.5693C49.2306 46.769 49.2306 45.9687 49.2306 45.1685C49.2176 44.0017 48.3901 43.147 47.2834 43.1486C46.1767 43.1502 45.3573 44.0001 45.3459 45.1733C45.3378 46.0328 45.3459 46.8906 45.3459 47.7501C45.3459 48.4576 44.9711 48.8881 44.3853 48.8945C43.7995 48.9009 43.4117 48.4704 43.4117 47.7741C43.4117 46.5945 43.4117 45.4166 43.4117 44.2386C43.4117 43.0606 42.5922 42.2043 41.4904 42.1931C40.3545 42.1819 39.5432 43.0414 39.527 44.253C39.527 45.4118 39.527 46.5705 39.527 47.7293C39.527 48.4672 39.1359 48.9153 38.5306 48.8977C37.9254 48.8801 37.5879 48.4528 37.5879 47.7373C37.5879 42.7458 37.5879 37.7527 37.5879 32.758C37.5879 31.2567 36.2508 30.2996 34.9202 30.8261C34.1559 31.1286 33.7064 31.8153 33.7048 32.7243C33.7048 36.0193 33.7048 39.3148 33.7048 42.6108C33.7048 45.2469 33.7048 47.8846 33.7048 50.5206C33.7048 51.0936 33.5847 51.5818 32.9697 51.7418C32.3547 51.9019 31.9961 51.5258 31.7219 51.0296C31.1588 50.0389 30.5762 49.0562 29.9905 48.0766C29.3787 47.0555 28.2591 46.7258 27.2936 47.2684C26.3281 47.8109 26.0344 48.9489 26.625 49.9701C27.9783 52.31 29.3511 54.6372 30.7596 57.046L29.111 58.0063C28.9844 57.8127 28.8594 57.6366 28.7523 57.4509C27.5873 55.4641 26.4238 53.4774 25.262 51.4906C24.389 49.9957 24.3192 49.7012 24.4506 47.9902H18.5457C18.6593 48.2031 18.7501 48.4095 18.8702 48.5968C19.7046 49.8598 20.1228 51.3462 20.0677 52.8526C20.0369 54.3859 20.0677 55.9208 20.0677 57.4942H18.1205V56.9484C18.1205 55.4903 18.1108 54.0322 18.1205 52.5741C18.1343 51.6107 17.8704 50.6632 17.3595 49.842C16.7429 48.8353 16.1473 47.8125 15.5064 46.8202C15.1591 46.284 15.1575 45.8151 15.4853 45.2661C16.8678 42.9437 18.2195 40.6022 19.5939 38.275C19.9055 37.7484 20.058 37.2058 19.8844 36.6152C19.6621 35.863 19.1574 35.3764 18.3591 35.2484C17.4893 35.1107 16.7948 35.4084 16.3469 36.1639C15.4431 37.6764 14.562 39.2049 13.6711 40.7222C12.631 42.4892 11.5908 44.2706 10.5085 46.116L8.90044 45.2101C8.90044 45.1141 8.90044 45.0628 8.9118 45.0388C9.65661 44.1425 9.83511 43.163 9.44566 42.0538C9.32558 41.7097 9.37588 41.3016 9.37588 40.9239C9.37588 36.6697 9.37588 32.4154 9.37588 28.1612V27.3418C9.21361 27.6139 9.12923 27.7499 9.06108 27.8972C7.83325 30.522 6.60597 33.148 5.37922 35.775C4.79816 37.0076 4.49954 38.3513 4.50459 39.7107C4.51433 45.3829 4.51433 51.0552 4.50459 56.7275V57.4846H2.55737V56.8443C2.55737 51.1518 2.55737 45.4592 2.55737 39.7667C2.54628 38.0653 2.91991 36.3829 3.65106 34.8419C5.04819 31.8761 6.40962 28.8895 7.83758 25.9413C8.11993 25.3587 8.69436 24.917 9.10165 24.3872C9.25126 24.1994 9.33903 23.971 9.35317 23.7326C9.36723 19.5584 9.37102 15.3842 9.36453 11.21C9.36453 9.75195 9.35641 8.29386 9.36453 6.83578C9.38887 2.94489 12.3421 0.0143235 16.2869 0.0063209C22.6694 -0.00861738 29.0471 -0.00861738 35.42 0.0063209C39.441 0.0063209 42.3975 2.92409 42.3975 6.8886C42.4072 17.833 42.4072 28.778 42.3975 39.7235C42.3975 40.1732 42.5127 40.3861 42.9492 40.6102C43.6388 40.9655 44.2279 41.4905 44.9224 41.9882ZM11.3199 40.6422L11.4367 40.6774C11.5503 40.4933 11.6687 40.3125 11.7775 40.1252C12.73 38.5023 13.6679 36.8697 14.635 35.2548C15.5616 33.7055 17.2638 32.982 18.9286 33.3918C21.4925 34.0224 22.6835 36.7625 21.3627 39.0801C20.1538 41.2088 18.8929 43.2894 17.6597 45.4037C17.5542 45.5846 17.4682 45.7751 17.3351 46.0232C19.9996 46.0232 22.5683 46.0344 25.137 46.012C25.4698 45.9976 25.7935 45.9007 26.0782 45.7303C27.4753 44.9092 28.8838 44.8452 30.2598 45.7046C30.4724 45.8441 30.7112 45.9401 30.962 45.9871C31.2128 46.0341 31.4706 46.0311 31.7202 45.9783V45.3189C31.7202 41.1575 31.7202 37.0106 31.7202 32.8556C31.7208 32.3782 31.7908 31.9034 31.9279 31.4455C32.1987 30.589 32.7667 29.8539 33.5324 29.3695C34.298 28.885 35.2123 28.6822 36.1145 28.7967C38.0406 29.0703 39.475 30.6165 39.4961 32.5243C39.5237 35.0403 39.4961 37.5563 39.4961 40.074V40.6902C40.3075 40.6278 40.4892 40.2356 40.4876 39.5074C40.4606 28.6814 40.4541 17.856 40.4681 7.03105C40.4681 3.94843 38.4203 1.92696 35.2999 1.92696C29.0255 1.92696 22.7511 1.92696 16.4768 1.92696C16.1514 1.91782 15.8259 1.93387 15.5031 1.97497C12.9864 2.3735 11.3182 4.31175 11.3166 6.86139C11.3166 17.9851 11.3166 29.1098 11.3166 40.2356L11.3199 40.6422Z" fill="#2B0F64"/>
<path d="M7.11222 13.6941L5.69238 15.0642L4.73337 13.8494L4.54514 13.963V24.8931H2.58981V13.8494C2.103 14.2975 1.72816 14.6497 1.32736 15.029L0 13.6797C0.960629 12.7194 1.91314 11.7495 2.89973 10.81C3.30703 10.4227 3.80844 10.4451 4.21087 10.8308C5.18285 11.7591 6.12726 12.7194 7.11222 13.6941Z" fill="#02C4EB"/>
<path d="M47.2687 24.8832V13.8699L46.0306 15.0287L44.6968 13.6971C45.6704 12.7255 46.6213 11.7492 47.6095 10.8081C48.0152 10.4208 48.5182 10.4496 48.9206 10.8337C49.8942 11.7636 50.8354 12.7191 51.8122 13.6859L50.3372 14.9983L49.4318 13.8539L49.2468 13.9644V24.8832H47.2687Z" fill="#02C4EB"/>
<path d="M2.5979 28.7326V26.8936H4.47372V28.7326H2.5979Z" fill="#02C4EB"/>
<path d="M49.1836 28.7376H47.3208V26.8906H49.1836V28.7376Z" fill="#02C4EB"/>
<path d="M47.3208 30.709H49.1836V32.5656H47.3208V30.709Z" fill="#02C4EB"/>
<path d="M25.9241 30.6801C24.6411 30.6831 23.3703 30.4356 22.1847 29.952C20.9991 29.4684 19.9223 28.7582 19.0163 27.8622C18.1102 26.9663 17.3928 25.9024 16.9055 24.7318C16.4181 23.5613 16.1704 22.3071 16.1766 21.0417C16.188 15.7904 20.5579 11.5234 25.9257 11.5186C31.2432 11.5186 35.6294 15.8544 35.6115 21.1057C35.5937 26.3859 31.2497 30.6817 25.9241 30.6801ZM25.8997 13.428C24.8758 13.4295 23.8622 13.63 22.9169 14.0183C21.9717 14.4065 21.1133 14.9748 20.3909 15.6906C19.6685 16.4064 19.0963 17.2556 18.707 18.1898C18.3178 19.1239 18.119 20.1246 18.1222 21.1345C18.1359 23.1654 18.9644 25.1083 20.4264 26.5384C21.8884 27.9684 23.8651 28.7693 25.9241 28.7659C27.9821 28.7528 29.9516 27.9379 31.4032 26.4989C32.8548 25.0599 33.6711 23.1133 33.674 21.0833C33.6667 19.0527 32.8447 17.1075 31.3876 15.673C29.9305 14.2385 27.9568 13.4314 25.8981 13.428H25.8997Z" fill="#02C4EB"/>
<path d="M25.833 44.1042C25.1839 44.1042 24.5349 44.1186 23.8858 44.1042C23.1188 44.0874 22.3893 43.7737 21.8549 43.2307C21.3205 42.6877 21.0241 41.9592 21.0299 41.2025C21.0365 40.4556 21.3386 39.7408 21.8718 39.2105C22.405 38.6801 23.127 38.376 23.8842 38.3631C25.2202 38.3386 26.5551 38.3386 27.8889 38.3631C28.6464 38.3756 29.3688 38.6795 29.9024 39.2099C30.4359 39.7403 30.7382 40.4553 30.7449 41.2025C30.7506 41.9589 30.4545 42.6872 29.9204 43.2301C29.3864 43.7731 28.6573 44.087 27.8906 44.1042C27.209 44.1202 26.521 44.1042 25.833 44.1042ZM25.8947 40.2726C25.2683 40.2726 24.6403 40.2598 24.0124 40.2726C23.3844 40.2854 22.9852 40.6791 22.9836 41.2329C22.982 41.7867 23.3892 42.1804 24.0091 42.1932C25.2629 42.2071 26.5178 42.2071 27.7737 42.1932C28.3952 42.1852 28.8041 41.7835 28.8041 41.2329C28.8041 40.6823 28.3985 40.295 27.777 40.2726C27.1555 40.2502 26.5226 40.2726 25.8947 40.2726Z" fill="#02C4EB"/>
<path d="M22.041 3.86719H29.7374V5.7206H22.041V3.86719Z" fill="#02C4EB"/>
<path d="M20.0303 5.73197H18.1626V3.87695H20.0303V5.73197Z" fill="#02C4EB"/>
<path d="M26.8667 25.925V26.8053H24.9503L24.8935 25.9522C22.9755 25.5361 22.0474 24.5982 22.0295 23.0457H23.8923C24.2169 23.854 24.3986 23.9708 25.2943 23.9724C25.7811 23.9724 26.268 23.982 26.7548 23.9724C27.4152 23.9548 27.8403 23.5643 27.8306 23.0025C27.8209 22.4407 27.4006 22.071 26.7288 22.0598C26.182 22.0502 25.6351 22.0598 25.0883 22.0598C23.4218 22.0502 22.1415 20.957 22.0052 19.4349C21.8737 17.8648 22.9561 16.5811 24.6323 16.3171L24.8887 16.277C24.9033 15.9873 24.9163 15.7121 24.9309 15.3936H26.8245L26.8976 16.2402C28.8091 16.6484 29.7421 17.5895 29.76 19.1452H27.889C27.5645 18.3449 27.386 18.2217 26.487 18.2185C26.0002 18.2185 25.5134 18.2185 25.0266 18.2185C24.3645 18.2345 23.9443 18.6218 23.9524 19.1868C23.9605 19.7518 24.3824 20.1183 25.0542 20.1311C25.5994 20.1407 26.1463 20.1311 26.6931 20.1311C28.3645 20.1311 29.6383 21.2275 29.7762 22.7544C29.9093 24.3197 28.8269 25.6049 27.1491 25.8722L26.8667 25.925Z" fill="#02C4EB"/>
</g>
<defs>
<clipPath id="clip0_190_1216">
<rect width="57" height="58" fill="white"/>
</clipPath>
</defs>
</svg>
