<svg width="24" height="25" viewBox="0 0 24 25" fill="none" xmlns="http://www.w3.org/2000/svg">
<path d="M23.525 12.0214C22.8918 11.3962 21.8649 11.3962 21.2317 12.0214L13.6217 19.5342V1.60088C13.6217 0.716812 12.8954 0 12 0C11.1044 0 10.3784 0.716812 10.3784 1.60088V19.5342L2.76844 12.0217C2.13497 11.3966 1.1083 11.3966 0.475098 12.0217C-0.158366 12.6469 -0.158366 13.6605 0.475098 14.2857L10.8534 24.5311C11.1698 24.8436 11.585 25 12 25C12.4151 25 12.8299 24.8436 13.1467 24.5311L23.525 14.2855C24.1583 13.6602 24.1583 12.6467 23.525 12.0214Z" fill="white"/>
</svg>
