<svg width="15" height="16" viewBox="0 0 15 16" fill="none" xmlns="http://www.w3.org/2000/svg">
<path d="M14.5597 7.91158C14.1684 7.5407 13.5339 7.5407 13.1426 7.91158L8.44049 12.368L8.44049 1.73037C8.44049 1.20596 7.99177 0.780762 7.43852 0.780762C6.88511 0.780762 6.43654 1.20596 6.43654 1.73037L6.43654 12.368L1.7344 7.91173C1.34298 7.54093 0.708614 7.54093 0.317362 7.91173C-0.0740492 8.28261 -0.0740492 8.88382 0.317362 9.2547L6.73 15.332C6.92551 15.5174 7.18209 15.6101 7.43852 15.6101C7.69494 15.6101 7.95129 15.5174 8.14704 15.332L14.5597 9.25455C14.951 8.88367 14.951 8.28245 14.5597 7.91158Z" fill="#113563"/>
</svg>
